<svg width="159" height="24" viewBox="0 0 159 24" fill="none" xmlns="http://www.w3.org/2000/svg">
<path d="M4.28 11.864C4.536 11.6293 4.856 11.3627 5.24 11.064C5.64533 10.7653 6.072 10.4667 6.52 10.168C6.98933 9.848 7.46933 9.56 7.96 9.304C8.472 9.02667 8.97333 8.792 9.464 8.6V6.36C9.12267 6.31733 8.80267 6.24267 8.504 6.136C8.20533 6.02933 7.896 5.912 7.576 5.784C7.27733 5.63467 6.95733 5.496 6.616 5.368C6.296 5.21867 5.912 5.08 5.464 4.952C5.31467 4.90933 5.15467 4.952 4.984 5.08C4.81333 5.208 4.64267 5.37867 4.472 5.592C4.38667 5.74133 4.33333 5.90133 4.312 6.072C4.29067 6.22133 4.28 6.392 4.28 6.584V11.864ZM4.28 18.008C4.57867 18.6907 4.96267 19.1813 5.432 19.48C5.92267 19.7573 6.43467 19.896 6.968 19.896C7.52267 19.896 8.07733 19.7787 8.632 19.544C9.18667 19.3093 9.688 19 10.136 18.616V14.264C9.944 14.0293 9.72 13.8053 9.464 13.592C9.22933 13.3787 8.94133 13.176 8.6 12.984C8.28 12.792 7.896 12.6213 7.448 12.472C7.02133 12.3227 6.50933 12.2053 5.912 12.12C5.54933 12.376 5.22933 12.6107 4.952 12.824C4.67467 13.0373 4.45067 13.1973 4.28 13.304V18.008ZM12.856 8.792C12.1733 8.94133 11.512 9.13333 10.872 9.368C10.2533 9.58133 9.66667 9.83733 9.112 10.136C10.072 10.392 10.9147 10.776 11.64 11.288C12.3653 11.8 12.9947 12.3653 13.528 12.984V19.192C13.528 19.2347 13.3573 19.3627 13.016 19.576C12.696 19.768 12.28 20.0027 11.768 20.28C11.2773 20.5573 10.7333 20.856 10.136 21.176C9.56 21.496 9.00533 21.7947 8.472 22.072C7.93867 22.328 7.48 22.552 7.096 22.744C6.712 22.9147 6.47733 23 6.392 23C5.56 23.0213 4.80267 22.872 4.12 22.552C3.45867 22.2107 2.89333 21.8053 2.424 21.336C1.95467 20.8667 1.592 20.376 1.336 19.864C1.08 19.3307 0.941333 18.8827 0.92 18.52L0.888 5.912C0.888 5.57067 0.834667 5.272 0.728 5.016C0.642667 4.73867 0.44 4.49333 0.12 4.28C0.0346667 4.17333 0.0346667 4.056 0.12 3.928C0.461333 3.62933 0.738667 3.32 0.952 3C1.18667 2.65867 1.496 2.37067 1.88 2.136C2.37067 1.816 2.85067 1.816 3.32 2.136C3.512 2.24267 3.68267 2.41333 3.832 2.648C3.98133 2.86133 4.12 3.096 4.248 3.352C4.65333 2.92533 5.03733 2.57333 5.4 2.296C5.76267 2.01867 6.072 1.89067 6.328 1.912C6.776 1.912 7.256 1.99733 7.768 2.168C8.28 2.31733 8.792 2.488 9.304 2.68C9.83733 2.85067 10.36 3.01067 10.872 3.16C11.384 3.30933 11.864 3.384 12.312 3.384C12.5467 3.34133 12.696 3.34133 12.76 3.384C12.824 3.42667 12.856 3.56533 12.856 3.8V8.792ZM15.7733 14.52C15.9226 14.2853 16.1359 13.9547 16.4133 13.528C16.7119 13.08 17.0426 12.6 17.4053 12.088C17.7679 11.576 18.1519 11.0533 18.5573 10.52C18.9839 9.98667 19.3999 9.50667 19.8053 9.08C20.2106 8.632 20.5946 8.28 20.9573 8.024C21.3199 7.74667 21.6293 7.608 21.8853 7.608C22.6959 7.608 23.4533 7.75733 24.1573 8.056C24.8613 8.33333 25.4906 8.73867 26.0453 9.272C26.5999 9.784 27.0479 10.4027 27.3893 11.128C27.7519 11.832 27.9653 12.6107 28.0293 13.464V19.192C28.0293 19.2347 27.8693 19.3627 27.5493 19.576C27.2506 19.768 26.8559 20.0027 26.3653 20.28C25.8959 20.5573 25.3839 20.856 24.8293 21.176C24.2746 21.496 23.7413 21.7947 23.2292 22.072C22.7386 22.328 22.3013 22.552 21.9173 22.744C21.5546 22.9147 21.3306 23 21.2453 23C20.4133 23.0213 19.6559 22.872 18.9733 22.552C18.3119 22.2107 17.7466 21.8053 17.2773 21.336C16.8079 20.8667 16.4453 20.376 16.1893 19.864C15.9333 19.3307 15.7946 18.8827 15.7733 18.52V14.52ZM24.6373 14.648C24.6373 14.0293 24.5093 13.432 24.2533 12.856C23.9973 12.2587 23.6666 11.7573 23.2613 11.352C22.8773 10.9467 22.4399 10.68 21.9493 10.552C21.4799 10.4027 21.0213 10.4773 20.5733 10.776C20.4239 10.8827 20.2639 11.0427 20.0933 11.256C19.9226 11.448 19.7626 11.6507 19.6133 11.864C19.4639 12.0773 19.3466 12.2907 19.2613 12.504C19.1759 12.696 19.1333 12.8453 19.1333 12.952C19.1333 13.5493 19.1333 14.008 19.1333 14.328C19.1333 14.6267 19.1333 14.872 19.1333 15.064C19.1333 15.2347 19.1333 15.3733 19.1333 15.48C19.1546 15.5653 19.1653 15.704 19.1653 15.896C19.1653 16.0667 19.1653 16.312 19.1653 16.632C19.1653 16.952 19.1653 17.4107 19.1653 18.008C19.5279 18.7973 19.9333 19.3733 20.3813 19.736C20.8293 20.0987 21.2879 20.312 21.7573 20.376C22.2479 20.4187 22.7386 20.3333 23.2292 20.12C23.7199 19.9067 24.1893 19.608 24.6373 19.224V14.648ZM30.1795 14.52C30.3288 14.2853 30.5422 13.9547 30.8195 13.528C31.1182 13.08 31.4488 12.6 31.8115 12.088C32.1742 11.576 32.5582 11.0533 32.9635 10.52C33.3902 9.98667 33.8062 9.50667 34.2115 9.08C34.6168 8.632 35.0008 8.28 35.3635 8.024C35.7262 7.74667 36.0355 7.608 36.2915 7.608C37.1022 7.608 37.8595 7.75733 38.5635 8.056C39.2675 8.33333 39.8968 8.73867 40.4515 9.272C41.0062 9.784 41.4542 10.4027 41.7955 11.128C42.1582 11.832 42.3715 12.6107 42.4355 13.464V19.192C42.4355 19.2347 42.2755 19.3627 41.9555 19.576C41.6568 19.768 41.2622 20.0027 40.7715 20.28C40.3022 20.5573 39.7902 20.856 39.2355 21.176C38.6808 21.496 38.1475 21.7947 37.6355 22.072C37.1448 22.328 36.7075 22.552 36.3235 22.744C35.9608 22.9147 35.7368 23 35.6515 23C34.8195 23.0213 34.0622 22.872 33.3795 22.552C32.7182 22.2107 32.1528 21.8053 31.6835 21.336C31.2142 20.8667 30.8515 20.376 30.5955 19.864C30.3395 19.3307 30.2008 18.8827 30.1795 18.52V14.52ZM39.0435 14.648C39.0435 14.0293 38.9155 13.432 38.6595 12.856C38.4035 12.2587 38.0728 11.7573 37.6675 11.352C37.2835 10.9467 36.8462 10.68 36.3555 10.552C35.8862 10.4027 35.4275 10.4773 34.9795 10.776C34.8302 10.8827 34.6702 11.0427 34.4995 11.256C34.3288 11.448 34.1688 11.6507 34.0195 11.864C33.8702 12.0773 33.7528 12.2907 33.6675 12.504C33.5822 12.696 33.5395 12.8453 33.5395 12.952C33.5395 13.5493 33.5395 14.008 33.5395 14.328C33.5395 14.6267 33.5395 14.872 33.5395 15.064C33.5395 15.2347 33.5395 15.3733 33.5395 15.48C33.5608 15.5653 33.5715 15.704 33.5715 15.896C33.5715 16.0667 33.5715 16.312 33.5715 16.632C33.5715 16.952 33.5715 17.4107 33.5715 18.008C33.9342 18.7973 34.3395 19.3733 34.7875 19.736C35.2355 20.0987 35.6942 20.312 36.1635 20.376C36.6542 20.4187 37.1448 20.3333 37.6355 20.12C38.1262 19.9067 38.5955 19.608 39.0435 19.224V14.648ZM49.6098 4.92C49.2898 5.15467 49.0764 5.41067 48.9698 5.688C48.8844 5.944 48.8418 6.24267 48.8418 6.584V14.264C49.2898 14.072 49.7698 13.8587 50.2818 13.624C50.7938 13.368 51.2844 13.112 51.7538 12.856C52.2444 12.5787 52.6924 12.312 53.0978 12.056C53.5031 11.7787 53.8124 11.5333 54.0258 11.32V9.912C54.0258 9.76267 53.9618 9.624 53.8338 9.496C53.7271 9.34667 53.6204 9.208 53.5138 9.08C53.3431 8.888 53.3004 8.73867 53.3858 8.632C53.4924 8.504 53.6524 8.42933 53.8658 8.408C54.4204 8.408 54.9538 8.33333 55.4658 8.184C55.9778 8.03467 56.3511 7.90667 56.5858 7.8C56.8204 7.65067 57.0124 7.608 57.1618 7.672C57.3111 7.736 57.3858 7.88533 57.3858 8.12V12.76C57.1298 12.632 56.6711 12.6853 56.0098 12.92C55.3698 13.1333 54.6444 13.4427 53.8338 13.848C54.6018 14.296 55.2524 14.8827 55.7858 15.608C56.3404 16.312 56.6284 17.016 56.6498 17.72V19.16C56.7138 19.5653 56.9378 19.896 57.3218 20.152C57.4284 20.3013 57.4284 20.408 57.3218 20.472C57.1724 20.6213 57.0338 20.8027 56.9058 21.016C56.7778 21.2293 56.6498 21.4533 56.5218 21.688C56.3938 21.9227 56.2658 22.1467 56.1378 22.36C56.0098 22.552 55.8498 22.7013 55.6578 22.808C55.2098 23.1067 54.7511 23.1067 54.2818 22.808C53.9191 22.5733 53.6311 22.3067 53.4178 22.008C53.2044 21.688 52.9484 21.3787 52.6498 21.08C52.5431 20.9733 52.5431 20.8667 52.6498 20.76C52.9484 20.5467 53.1404 20.3227 53.2258 20.088C53.3324 19.832 53.3858 19.5333 53.3858 19.192V17.784C53.2578 17.5493 53.0871 17.3253 52.8738 17.112C52.6604 16.8773 52.4258 16.6747 52.1698 16.504C51.9351 16.312 51.6898 16.1627 51.4338 16.056C51.1991 15.9493 50.9858 15.8853 50.7938 15.864C50.5164 15.8427 50.2178 15.864 49.8978 15.928C49.7271 16.0347 49.5458 16.1307 49.3538 16.216C49.1831 16.3013 49.0124 16.3867 48.8418 16.472V18.328C48.8418 18.6693 48.8844 18.9787 48.9698 19.256C49.0764 19.512 49.2898 19.7467 49.6098 19.96C49.7378 20.0667 49.7378 20.184 49.6098 20.312C49.4604 20.4613 49.3218 20.6533 49.1938 20.888C49.0658 21.1227 48.9378 21.3573 48.8098 21.592C48.6818 21.8267 48.5431 22.0507 48.3938 22.264C48.2444 22.4773 48.0738 22.648 47.8818 22.776C47.4124 23.0747 46.9324 23.0747 46.4418 22.776C46.0578 22.5413 45.7484 22.264 45.5138 21.944C45.3004 21.6027 45.0231 21.2827 44.6818 20.984C44.6178 20.8347 44.6178 20.7173 44.6818 20.632C45.0018 20.4187 45.2044 20.184 45.2898 19.928C45.3964 19.6507 45.4498 19.3307 45.4498 18.968V5.912C45.4498 5.57067 45.3964 5.272 45.2898 5.016C45.2044 4.73867 45.0018 4.49333 44.6818 4.28C44.5964 4.17333 44.5964 4.056 44.6818 3.928C45.0231 3.62933 45.3004 3.32 45.5138 3C45.7484 2.65867 46.0578 2.37067 46.4418 2.136C46.9324 1.816 47.4124 1.816 47.8818 2.136C48.0738 2.264 48.2444 2.43467 48.3938 2.648C48.5431 2.86133 48.6818 3.08533 48.8098 3.32C48.9378 3.55467 49.0658 3.78933 49.1938 4.024C49.3218 4.25867 49.4604 4.45067 49.6098 4.6C49.7378 4.728 49.7378 4.83467 49.6098 4.92ZM74.6705 18.616C74.7772 18.872 75.0652 19.1707 75.5345 19.512C76.0038 19.8533 76.5158 20.1307 77.0705 20.344C77.6252 20.5573 78.1585 20.6533 78.6705 20.632C79.1825 20.5893 79.5452 20.3333 79.7585 19.864C79.7798 19.3733 79.7905 19.0427 79.7905 18.872C79.7905 18.68 79.7905 18.5307 79.7905 18.424C79.7905 18.296 79.7798 18.1467 79.7585 17.976C79.7585 17.784 79.7585 17.4533 79.7585 16.984C79.5878 16.856 79.3105 16.696 78.9265 16.504C78.5425 16.2907 78.1692 16.056 77.8065 15.8C77.4012 15.7147 77.0065 15.7467 76.6225 15.896C76.2598 16.024 75.9398 16.2053 75.6625 16.44C75.3852 16.6533 75.1612 16.888 74.9905 17.144C74.8198 17.4 74.7132 17.6027 74.6705 17.752V18.616ZM79.7585 15.384V11.896C79.4172 11.8533 79.1185 11.768 78.8625 11.64C78.6065 11.512 78.3612 11.3733 78.1265 11.224C77.8918 11.0747 77.6252 10.9253 77.3265 10.776C77.0492 10.6267 76.6865 10.488 76.2385 10.36C75.5772 10.168 75.0545 10.072 74.6705 10.072C74.2865 10.0507 74.0092 10.0933 73.8385 10.2C73.6892 10.3067 73.6358 10.4453 73.6785 10.616C73.7212 10.7867 73.8278 10.968 73.9985 11.16C74.1905 11.3307 74.4252 11.4907 74.7025 11.64C74.9798 11.7893 75.2785 11.8853 75.5985 11.928C75.6838 11.9493 75.7052 12.0027 75.6625 12.088C75.6198 12.1733 75.5558 12.28 75.4705 12.408C75.4065 12.5147 75.3212 12.6213 75.2145 12.728C75.1292 12.8133 75.0652 12.8773 75.0225 12.92C74.7665 13.1333 74.4465 13.2933 74.0625 13.4C73.6785 13.5067 73.2945 13.5173 72.9105 13.432C72.5265 13.3253 72.1745 13.112 71.8545 12.792C71.5345 12.472 71.3105 12.0027 71.1825 11.384C72.0785 9.99733 73.0278 9.016 74.0305 8.44C75.0545 7.864 76.0465 7.59733 77.0065 7.64C77.4545 7.64 77.9132 7.72533 78.3825 7.896C78.8518 8.04533 79.3212 8.216 79.7905 8.408C80.2812 8.6 80.7612 8.77067 81.2305 8.92C81.6998 9.06933 82.1585 9.13333 82.6065 9.112C82.8412 9.06933 82.9905 9.08 83.0545 9.144C83.1185 9.18667 83.1505 9.32533 83.1505 9.56V18.328C83.1505 18.6693 83.1932 18.9787 83.2785 19.256C83.3852 19.512 83.5985 19.7467 83.9185 19.96C84.0252 20.088 84.0252 20.2053 83.9185 20.312C83.7692 20.4613 83.6305 20.6533 83.5025 20.888C83.3745 21.1227 83.2465 21.3573 83.1185 21.592C82.9905 21.8267 82.8518 22.0507 82.7025 22.264C82.5532 22.4773 82.3825 22.648 82.1905 22.776C81.6998 23.0747 81.2092 23.0747 80.7185 22.776C80.4838 22.6267 80.2812 22.456 80.1105 22.264C79.9398 22.072 79.7692 21.8693 79.5985 21.656C79.0225 22.0613 78.4038 22.392 77.7425 22.648C77.1025 22.8827 76.4732 22.9893 75.8545 22.968C75.4705 22.968 75.0118 22.8827 74.4785 22.712C73.9665 22.52 73.4758 22.2853 73.0065 22.008C72.5372 21.7307 72.1318 21.432 71.7905 21.112C71.4705 20.792 71.3105 20.4933 71.3105 20.216V16.472C71.8225 15.8533 72.3452 15.3413 72.8785 14.936C73.4332 14.5307 73.9558 14.2 74.4465 13.944C74.9372 13.688 75.3852 13.5067 75.7905 13.4C76.2172 13.2933 76.5692 13.24 76.8465 13.24C77.4438 13.6027 77.9985 13.976 78.5105 14.36C79.0225 14.744 79.4385 15.0853 79.7585 15.384ZM109.91 3.128C109.995 3.23466 110.027 3.36267 110.006 3.512C110.006 3.64 109.974 3.72533 109.91 3.768C109.568 4.17333 109.238 4.536 108.918 4.856C108.598 5.176 108.278 5.53867 107.958 5.944C107.744 6.136 107.456 6.136 107.094 5.944C106.88 5.53867 106.507 5.22933 105.974 5.016H104.854V18.328C104.854 18.6693 104.896 18.9787 104.982 19.256C105.088 19.512 105.302 19.7467 105.622 19.96C105.728 20.088 105.728 20.2053 105.622 20.312C105.472 20.4613 105.334 20.6533 105.206 20.888C105.078 21.1227 104.95 21.3573 104.822 21.592C104.694 21.8267 104.555 22.0507 104.406 22.264C104.256 22.4773 104.086 22.648 103.894 22.776C103.403 23.0747 102.912 23.0747 102.422 22.776C102.038 22.5413 101.728 22.264 101.494 21.944C101.28 21.6027 101.014 21.2827 100.694 20.984C100.587 20.8773 100.587 20.76 100.694 20.632C101.014 20.4187 101.216 20.184 101.302 19.928C101.408 19.6507 101.462 19.3307 101.462 18.968V7.896C101.462 7.46933 101.536 7.10667 101.686 6.808C101.856 6.488 102.048 6.21067 102.262 5.976C102.496 5.74133 102.72 5.54933 102.934 5.4C103.168 5.25067 103.36 5.12267 103.51 5.016H98.6775C97.8668 4.78133 97.2055 4.408 96.6935 3.896C96.5868 3.78933 96.5335 3.672 96.5335 3.544C96.5548 3.39467 96.5975 3.29867 96.6615 3.256C97.0028 2.85067 97.3335 2.488 97.6535 2.168C97.9735 1.82667 98.3042 1.464 98.6455 1.08C98.8588 0.887999 99.1362 0.887999 99.4775 1.08C99.6908 1.48533 100.075 1.79467 100.63 2.008H107.926C108.758 2.264 109.419 2.63733 109.91 3.128ZM112.546 18.616C112.652 18.872 112.94 19.1707 113.41 19.512C113.879 19.8533 114.391 20.1307 114.946 20.344C115.5 20.5573 116.034 20.6533 116.546 20.632C117.058 20.5893 117.42 20.3333 117.634 19.864C117.655 19.3733 117.666 19.0427 117.666 18.872C117.666 18.68 117.666 18.5307 117.666 18.424C117.666 18.296 117.655 18.1467 117.634 17.976C117.634 17.784 117.634 17.4533 117.634 16.984C117.463 16.856 117.186 16.696 116.802 16.504C116.418 16.2907 116.044 16.056 115.682 15.8C115.276 15.7147 114.882 15.7467 114.498 15.896C114.135 16.024 113.815 16.2053 113.538 16.44C113.26 16.6533 113.036 16.888 112.866 17.144C112.695 17.4 112.588 17.6027 112.546 17.752V18.616ZM117.634 15.384V11.896C117.292 11.8533 116.994 11.768 116.738 11.64C116.482 11.512 116.236 11.3733 116.002 11.224C115.767 11.0747 115.5 10.9253 115.202 10.776C114.924 10.6267 114.562 10.488 114.114 10.36C113.452 10.168 112.93 10.072 112.546 10.072C112.162 10.0507 111.884 10.0933 111.714 10.2C111.564 10.3067 111.511 10.4453 111.554 10.616C111.596 10.7867 111.703 10.968 111.874 11.16C112.066 11.3307 112.3 11.4907 112.578 11.64C112.855 11.7893 113.154 11.8853 113.474 11.928C113.559 11.9493 113.58 12.0027 113.538 12.088C113.495 12.1733 113.431 12.28 113.346 12.408C113.282 12.5147 113.196 12.6213 113.09 12.728C113.004 12.8133 112.94 12.8773 112.898 12.92C112.642 13.1333 112.322 13.2933 111.938 13.4C111.554 13.5067 111.17 13.5173 110.786 13.432C110.402 13.3253 110.05 13.112 109.73 12.792C109.41 12.472 109.186 12.0027 109.058 11.384C109.954 9.99733 110.903 9.016 111.906 8.44C112.93 7.864 113.922 7.59733 114.882 7.64C115.33 7.64 115.788 7.72533 116.258 7.896C116.727 8.04533 117.196 8.216 117.666 8.408C118.156 8.6 118.636 8.77067 119.106 8.92C119.575 9.06933 120.034 9.13333 120.482 9.112C120.716 9.06933 120.866 9.08 120.93 9.144C120.994 9.18667 121.026 9.32533 121.026 9.56V18.328C121.026 18.6693 121.068 18.9787 121.154 19.256C121.26 19.512 121.474 19.7467 121.794 19.96C121.9 20.088 121.9 20.2053 121.794 20.312C121.644 20.4613 121.506 20.6533 121.378 20.888C121.25 21.1227 121.122 21.3573 120.994 21.592C120.866 21.8267 120.727 22.0507 120.578 22.264C120.428 22.4773 120.258 22.648 120.066 22.776C119.575 23.0747 119.084 23.0747 118.594 22.776C118.359 22.6267 118.156 22.456 117.986 22.264C117.815 22.072 117.644 21.8693 117.474 21.656C116.898 22.0613 116.279 22.392 115.618 22.648C114.978 22.8827 114.348 22.9893 113.73 22.968C113.346 22.968 112.887 22.8827 112.354 22.712C111.842 22.52 111.351 22.2853 110.882 22.008C110.412 21.7307 110.007 21.432 109.666 21.112C109.346 20.792 109.186 20.4933 109.186 20.216V16.472C109.698 15.8533 110.22 15.3413 110.754 14.936C111.308 14.5307 111.831 14.2 112.322 13.944C112.812 13.688 113.26 13.5067 113.666 13.4C114.092 13.2933 114.444 13.24 114.722 13.24C115.319 13.6027 115.874 13.976 116.385 14.36C116.898 14.744 117.314 15.0853 117.634 15.384ZM127.707 17.592C127.835 17.848 128.006 18.1253 128.219 18.424C128.454 18.7227 128.699 19 128.955 19.256C129.232 19.4907 129.51 19.6933 129.787 19.864C130.064 20.0133 130.299 20.0987 130.491 20.12C130.832 20.1413 131.142 20.0987 131.419 19.992C131.696 19.864 131.952 19.7147 132.187 19.544C132.422 19.3733 132.624 19.2027 132.795 19.032C132.966 18.84 133.104 18.7013 133.211 18.616V12.376C132.827 12.248 132.464 12.1093 132.123 11.96C131.782 11.8107 131.44 11.6613 131.099 11.512C130.779 11.3627 130.438 11.2133 130.075 11.064C129.734 10.9147 129.339 10.776 128.891 10.648C128.742 10.6053 128.582 10.648 128.411 10.776C128.24 10.904 128.07 11.0747 127.899 11.288C127.771 11.544 127.707 11.8427 127.707 12.184V17.592ZM128.475 4.92C128.155 5.15467 127.942 5.41067 127.835 5.688C127.75 5.944 127.707 6.24267 127.707 6.584V8.984C128.112 8.55733 128.486 8.216 128.827 7.96C129.19 7.704 129.499 7.58667 129.755 7.608C130.096 7.608 130.555 7.71467 131.131 7.928C131.728 8.12 132.358 8.35467 133.019 8.632C133.68 8.888 134.331 9.144 134.971 9.4C135.611 9.656 136.144 9.83733 136.571 9.944V19.192C136.571 19.2347 136.411 19.3627 136.091 19.576C135.792 19.768 135.408 20.0027 134.939 20.28C134.47 20.5573 133.947 20.856 133.371 21.176C132.816 21.496 132.283 21.7947 131.771 22.072C131.28 22.328 130.854 22.552 130.491 22.744C130.128 22.9147 129.904 23 129.819 23C128.987 23.0213 128.23 22.872 127.547 22.552C126.886 22.2107 126.32 21.8053 125.851 21.336C125.382 20.8667 125.008 20.376 124.731 19.864C124.475 19.3307 124.336 18.8827 124.315 18.52V5.912C124.315 5.57067 124.262 5.272 124.155 5.016C124.07 4.73867 123.867 4.49333 123.547 4.28C123.462 4.17333 123.462 4.056 123.547 3.928C123.888 3.62933 124.166 3.32 124.379 3C124.614 2.65867 124.923 2.37067 125.307 2.136C125.798 1.816 126.278 1.816 126.747 2.136C126.939 2.264 127.11 2.43467 127.259 2.648C127.408 2.86133 127.547 3.08533 127.675 3.32C127.803 3.55467 127.931 3.78933 128.059 4.024C128.187 4.25867 128.326 4.45067 128.475 4.6C128.603 4.728 128.603 4.83467 128.475 4.92ZM143.891 4.92C143.571 5.15467 143.358 5.41067 143.251 5.688C143.166 5.944 143.123 6.24267 143.123 6.584V18.296C143.123 18.6373 143.166 18.9467 143.251 19.224C143.358 19.48 143.571 19.7147 143.891 19.928C144.019 20.0347 144.019 20.152 143.891 20.28C143.742 20.4293 143.603 20.6213 143.475 20.856C143.347 21.0907 143.219 21.3253 143.091 21.56C142.963 21.7947 142.824 22.0187 142.675 22.232C142.526 22.4453 142.355 22.616 142.163 22.744C141.694 23.0427 141.214 23.0427 140.723 22.744C140.339 22.5093 140.03 22.232 139.795 21.912C139.582 21.5707 139.304 21.2507 138.963 20.952C138.878 20.824 138.878 20.7067 138.963 20.6C139.283 20.3867 139.486 20.152 139.571 19.896C139.678 19.6187 139.731 19.2987 139.731 18.936V5.912C139.731 5.57067 139.678 5.272 139.571 5.016C139.486 4.73867 139.283 4.49333 138.963 4.28C138.878 4.17333 138.878 4.056 138.963 3.928C139.304 3.62933 139.582 3.32 139.795 3C140.03 2.65867 140.339 2.37067 140.723 2.136C141.214 1.816 141.694 1.816 142.163 2.136C142.355 2.264 142.526 2.43467 142.675 2.648C142.824 2.86133 142.963 3.08533 143.091 3.32C143.219 3.55467 143.347 3.78933 143.475 4.024C143.603 4.25867 143.742 4.45067 143.891 4.6C144.019 4.728 144.019 4.83467 143.891 4.92ZM149.416 15.864C150.248 15.3307 151.101 14.8293 151.976 14.36C152.872 13.8693 153.832 13.4747 154.856 13.176C154.685 12.6427 154.451 12.1307 154.152 11.64C153.853 11.128 153.512 10.712 153.128 10.392C152.765 10.0507 152.381 9.82667 151.976 9.72C151.592 9.61333 151.219 9.67733 150.856 9.912C150.685 10.0187 150.515 10.168 150.344 10.36C150.173 10.552 150.013 10.7653 149.864 11C149.736 11.2133 149.629 11.416 149.544 11.608C149.459 11.8 149.416 11.9493 149.416 12.056V15.864ZM152.168 7.64C152.723 7.64 153.309 7.71467 153.928 7.864C154.568 7.992 155.176 8.25867 155.752 8.664C156.328 9.06933 156.84 9.64533 157.288 10.392C157.757 11.1387 158.099 12.12 158.312 13.336C156.712 13.8053 155.165 14.36 153.672 15C152.2 15.6187 150.792 16.312 149.448 17.08V18.008C150.109 18.8187 150.781 19.4373 151.464 19.864C152.147 20.2907 152.819 20.5467 153.48 20.632C154.163 20.696 154.824 20.6213 155.464 20.408C156.104 20.1947 156.723 19.8533 157.32 19.384C157.363 19.384 157.427 19.4373 157.512 19.544C157.597 19.6293 157.672 19.736 157.736 19.864C157.821 19.9707 157.885 20.0773 157.928 20.184C157.971 20.2693 157.992 20.3333 157.992 20.376C157.715 20.6747 157.32 20.984 156.808 21.304C156.296 21.6027 155.731 21.88 155.112 22.136C154.515 22.3707 153.907 22.5733 153.288 22.744C152.669 22.8933 152.136 22.968 151.688 22.968C150.856 22.9893 150.099 22.84 149.416 22.52C148.733 22.2 148.147 21.8053 147.656 21.336C147.165 20.8453 146.781 20.344 146.504 19.832C146.227 19.32 146.077 18.8827 146.056 18.52V13.656C146.205 13.4213 146.419 13.112 146.696 12.728C146.995 12.3227 147.325 11.896 147.688 11.448C148.051 11 148.435 10.552 148.84 10.104C149.267 9.63467 149.683 9.21867 150.088 8.856C150.493 8.49333 150.877 8.20533 151.24 7.992C151.603 7.75733 151.912 7.64 152.168 7.64Z" fill="#303030"/>
</svg>
