<svg width="85" height="24" viewBox="0 0 85 24" fill="none" xmlns="http://www.w3.org/2000/svg">
<g clip-path="url(#clip0_49_33)">
<path d="M11.5197 23.04L11.4158 23.0052C11.0494 22.8812 10.0851 22.5089 9.06646 21.7233C8.32523 21.1527 7.70616 20.4793 7.22578 19.7215C6.68934 18.874 6.32994 17.9203 6.15407 16.884C5.11895 16.7087 4.16645 16.3493 3.319 15.8129C2.56125 15.3336 1.8873 14.714 1.31603 13.9715C0.522872 12.9435 0.155799 11.9862 0.0342286 11.6233L0 11.5206L0.0342286 11.4185C0.155209 11.055 0.521692 10.0989 1.31603 9.06669C1.88907 8.32308 2.56302 7.704 3.319 7.22538C4.16645 6.68892 5.11954 6.32951 6.15407 6.15423C6.32935 5.11908 6.68934 4.16597 7.22519 3.31849C7.70616 2.55895 8.32582 1.88557 9.06646 1.31607C9.51202 0.97259 9.99358 0.671607 10.4964 0.421967C10.8877 0.226623 11.2116 0.103869 11.4152 0.0348197L11.5185 0L11.6218 0.0342295C11.9859 0.155213 12.9443 0.523475 13.973 1.31607C14.716 1.88852 15.3356 2.5619 15.8142 3.31849C16.3507 4.16538 16.7101 5.11908 16.8853 6.15423C17.921 6.32951 18.8741 6.68892 19.721 7.22538C20.477 7.704 21.1503 8.32308 21.7234 9.06669C22.0645 9.51049 22.3655 9.99089 22.6175 10.4949C22.8128 10.8868 22.9361 11.2119 23.0046 11.4155L23.0394 11.5188L23.0046 11.6221C22.8818 11.9886 22.51 12.95 21.7234 13.9721C21.1521 14.714 20.4788 15.3336 19.721 15.8129C18.8741 16.3493 17.9205 16.7087 16.8853 16.884C16.7101 17.9203 16.3507 18.874 15.8142 19.7215C15.3356 20.4763 14.7165 21.1497 13.9735 21.7233C13.5256 22.068 13.0441 22.369 12.543 22.618C12.1158 22.8293 11.7829 22.9515 11.6224 23.0052L11.5191 23.0394L11.5197 23.04ZM0.685163 11.5194C0.810864 11.8694 1.15433 12.6997 1.83005 13.5767C2.35469 14.259 2.97199 14.8267 3.666 15.2658C4.49988 15.7934 5.44707 16.1345 6.48338 16.2791L6.72534 16.3127L6.75956 16.5547C6.90533 17.5922 7.24644 18.5406 7.77344 19.3745C8.21251 20.0673 8.78141 20.6852 9.46186 21.2099C10.3188 21.8697 11.1278 22.2126 11.5197 22.3542C11.6838 22.2952 11.9399 22.1925 12.255 22.0367C12.7183 21.8071 13.1633 21.5286 13.5781 21.2099C14.2609 20.6823 14.8293 20.065 15.2666 19.3745C15.7947 18.5412 16.1358 17.5928 16.2804 16.5547L16.3141 16.3127L16.5566 16.2791C17.5935 16.1339 18.5419 15.7934 19.3746 15.2658C20.068 14.8267 20.6853 14.2584 21.2099 13.5773C21.8715 12.7192 22.2132 11.9113 22.3548 11.52C22.2882 11.3365 22.1861 11.0821 22.0379 10.7847C21.8042 10.3178 21.5257 9.87285 21.2099 9.4621C20.6841 8.77928 20.0668 8.21095 19.3746 7.77305C18.5413 7.24544 17.5935 6.90433 16.5566 6.75974L16.3141 6.7261L16.2804 6.48413C16.1353 5.4478 15.7942 4.49941 15.2666 3.6661C14.8293 2.97384 14.2609 2.35652 13.5781 1.83069C12.703 1.15672 11.8708 0.812656 11.5203 0.686361C11.3368 0.752459 11.0836 0.854557 10.7861 1.00328C10.3205 1.23462 9.87437 1.51259 9.46245 1.83069C8.78141 2.35416 8.21369 2.97148 7.77344 3.6661C7.24585 4.5 6.90474 5.4478 6.75956 6.48413L6.72534 6.7261L6.48338 6.75974C5.44707 6.90492 4.49929 7.24544 3.666 7.77305C2.97435 8.21095 2.35646 8.77869 1.83005 9.4621C1.15551 10.3385 0.811455 11.1694 0.685163 11.5194Z" fill="white"/>
</g>
<g clip-path="url(#clip1_49_33)">
<path d="M72.9596 24L72.8558 23.9652C72.4893 23.8412 71.525 23.4688 70.5064 22.6833C69.7652 22.1126 69.1461 21.4393 68.6657 20.6815C68.1293 19.834 67.7699 18.8803 67.594 17.844C66.5589 17.6687 65.6064 17.3093 64.7589 16.7728C64.0012 16.2936 63.3272 15.674 62.756 14.9315C61.9628 13.9035 61.5957 12.9462 61.4742 12.5833L61.4399 12.4806L61.4742 12.3785C61.5952 12.0149 61.9616 11.0589 62.756 10.0267C63.329 9.28307 64.003 8.66399 64.7589 8.18537C65.6064 7.64891 66.5595 7.2895 67.594 7.11422C67.7693 6.07907 68.1293 5.12596 68.6651 4.27848C69.1461 3.51894 69.7658 2.84557 70.5064 2.27606C70.952 1.93258 71.4335 1.6316 71.9363 1.38196C72.3276 1.18661 72.6516 1.06386 72.8552 0.994811L72.9585 0.959991L73.0617 0.994221C73.4259 1.1152 74.3843 1.48347 75.4129 2.27606C76.1559 2.84852 76.7755 3.52189 77.2542 4.27848C77.7906 5.12537 78.15 6.07907 78.3253 7.11422C79.361 7.2895 80.3141 7.64891 81.1609 8.18537C81.9169 8.66399 82.5903 9.28307 83.1633 10.0267C83.5044 10.4705 83.8054 10.9509 84.0574 11.4549C84.2527 11.8467 84.3761 12.1719 84.4445 12.3755L84.4794 12.4788L84.4445 12.5821C84.3218 12.9486 83.95 13.91 83.1633 14.9321C82.5921 15.674 81.9187 16.2936 81.1609 16.7728C80.3141 17.3093 79.3604 17.6687 78.3253 17.844C78.15 18.8803 77.7906 19.834 77.2542 20.6815C76.7755 21.4363 76.1565 22.1097 75.4135 22.6833C74.9656 23.028 74.484 23.329 73.983 23.578C73.5557 23.7893 73.2229 23.9115 73.0623 23.9652L72.9591 23.9994L72.9596 24ZM62.1251 12.4794C62.2508 12.8294 62.5943 13.6597 63.27 14.5367C63.7946 15.2189 64.4119 15.7867 65.1059 16.2258C65.9398 16.7534 66.887 17.0945 67.9233 17.2391L68.1653 17.2727L68.1995 17.5147C68.3453 18.5522 68.6864 19.5006 69.2134 20.3345C69.6525 21.0273 70.2214 21.6452 70.9018 22.1699C71.7587 22.8297 72.5678 23.1726 72.9596 23.3142C73.1237 23.2552 73.3798 23.1525 73.695 22.9967C74.1582 22.7671 74.6032 22.4886 75.0181 22.1699C75.7009 21.6423 76.2692 21.025 76.7065 20.3345C77.2347 19.5012 77.5758 18.5528 77.7204 17.5147L77.754 17.2727L77.9966 17.2391C79.0335 17.0939 79.9818 16.7534 80.8145 16.2258C81.508 15.7867 82.1252 15.2184 82.6499 14.5373C83.3114 13.6792 83.6531 12.8713 83.7948 12.48C83.7281 12.2965 83.626 12.0421 83.4779 11.7446C83.2442 11.2778 82.9656 10.8328 82.6499 10.4221C82.1241 9.73927 81.5068 9.17094 80.8145 8.73304C79.9812 8.20543 79.0335 7.86432 77.9966 7.71973L77.754 7.68609L77.7204 7.44412C77.5752 6.40779 77.2341 5.4594 76.7065 4.62609C76.2692 3.93383 75.7009 3.31652 75.0181 2.79068C74.1429 2.11671 73.3108 1.77265 72.9602 1.64635C72.7767 1.71245 72.5235 1.81455 72.2261 1.96327C71.7605 2.19461 71.3143 2.47258 70.9024 2.79068C70.2214 3.31416 69.6536 3.93147 69.2134 4.62609C68.6858 5.45999 68.3447 6.40779 68.1995 7.44412L68.1653 7.68609L67.9233 7.71973C66.887 7.86491 65.9392 8.20543 65.1059 8.73304C64.4143 9.17094 63.7964 9.73868 63.27 10.4221C62.5955 11.2985 62.2514 12.1294 62.1251 12.4794Z" fill="white"/>
</g>
<g clip-path="url(#clip2_49_33)">
<path d="M53.7602 11.52C53.6508 11.8639 53.2757 12.8174 52.4941 13.849C51.9314 14.5837 51.2593 15.1933 50.509 15.6622C49.6024 16.2249 48.5864 16.6001 47.4766 16.7564C47.3203 17.8662 46.9608 18.8978 46.3824 19.7888C45.9135 20.5391 45.3039 21.1956 44.5692 21.7739C44.0534 22.1647 43.5688 22.4617 43.1468 22.6649C42.7404 22.8681 42.4122 22.9931 42.2402 23.04C41.8963 22.9306 40.9428 22.5554 39.9112 21.7739C39.1766 21.2112 38.5669 20.5391 38.098 19.7888C37.5353 18.8822 37.1602 17.8662 37.0039 16.7564C35.8941 16.6001 34.8624 16.2405 33.9714 15.6622C33.2212 15.1933 32.5647 14.5837 31.9863 13.849C31.2048 12.833 30.8296 11.8639 30.7202 11.52C30.8296 11.1761 31.2048 10.2226 31.9863 9.19099C32.549 8.45634 33.2212 7.84673 33.9714 7.3778C34.878 6.81509 35.8941 6.43995 37.0039 6.28364C37.1602 5.17384 37.5197 4.1422 38.098 3.25123C38.5669 2.50095 39.1766 1.84445 39.9112 1.26611C40.427 0.875332 40.9116 0.578345 41.3336 0.375142C41.74 0.17194 42.0683 0.0468928 42.2402 0C42.5841 0.109417 43.5376 0.484559 44.5692 1.26611C45.3039 1.82882 45.9135 2.50095 46.3824 3.25123C46.9451 4.15783 47.3203 5.17384 47.4766 6.28364C48.5864 6.43995 49.618 6.79946 50.509 7.3778C51.2593 7.84673 51.9158 8.45634 52.4941 9.19099C52.8849 9.70681 53.1819 10.1914 53.3851 10.6134C53.5883 11.0198 53.7133 11.3481 53.7602 11.52Z" fill="white"/>
</g>
<defs>
<clipPath id="clip0_49_33">
<rect width="23.04" height="23.04" fill="white"/>
</clipPath>
<clipPath id="clip1_49_33">
<rect width="23.04" height="23.04" fill="white" transform="translate(61.4399 0.959991)"/>
</clipPath>
<clipPath id="clip2_49_33">
<rect width="23.04" height="23.04" fill="white" transform="translate(30.7202)"/>
</clipPath>
</defs>
</svg>
