<svg width="115" height="48" viewBox="0 0 115 48" fill="none" xmlns="http://www.w3.org/2000/svg">
<path d="M17.8723 12.9523C17.8394 12.6647 17.7887 12.5004 17.6976 12.4519C17.6141 12.4021 17.4306 12.4195 17.1382 12.5017C16.5789 12.5515 15.836 12.5266 14.9109 12.4195C13.9845 12.3211 13.0164 12.1979 12.0065 12.0659C10.9966 11.9265 10.0284 11.8032 9.1033 11.6887C8.17692 11.5742 7.43405 11.5406 6.87595 11.5904C5.66609 11.6476 4.45622 12.0746 3.25396 12.8876C2.0441 13.7005 0.959527 15.0052 0.000244141 16.8116C0.225511 17.5673 0.559615 18.1163 1.00129 18.4774C1.43537 18.8309 1.90236 19.0525 2.39465 19.126C2.88695 19.1994 3.36279 19.1584 3.83864 18.9953C4.30563 18.8397 4.69035 18.6093 4.99028 18.3218C5.03205 18.2645 5.11557 18.1661 5.22441 18.018C5.33325 17.8786 5.42437 17.7391 5.50789 17.5997C5.59142 17.4603 5.64963 17.3283 5.6914 17.2063C5.73316 17.083 5.70026 17.0096 5.59142 16.9934C5.19151 16.9772 4.79919 16.8951 4.43977 16.7394C4.07277 16.5838 3.76397 16.4108 3.52225 16.2054C3.27168 15.9999 3.11348 15.7945 3.03882 15.5891C2.96415 15.3837 3.02236 15.2119 3.21346 15.055C3.39696 14.9069 3.73866 14.8172 4.21451 14.7923C4.69794 14.76 5.36615 14.8247 6.2166 14.9891C6.79242 15.0961 7.42646 15.2355 8.13516 15.3912C8.83627 15.5555 9.53739 15.7111 10.2385 15.8593C10.9396 16.0149 11.6154 16.1468 12.2748 16.2776C12.9341 16.4008 13.4758 16.4743 13.9098 16.4905L15.1032 29.3856C14.6692 29.7142 14.1516 29.9433 13.5517 30.0753C12.943 30.2147 12.3254 30.2807 11.7078 30.2807C11.199 30.2969 10.6232 30.2483 9.97273 30.1163C9.32984 29.9931 8.72997 29.7802 8.16174 29.4839C7.59477 29.1889 7.09362 28.8278 6.6684 28.4083C6.23431 27.9813 5.96728 27.497 5.86731 26.9467C5.842 26.7089 5.89262 26.3143 6.01791 25.7566C6.1432 25.2063 6.31784 24.6735 6.56083 24.1643C6.79495 23.6476 7.06198 23.2368 7.35306 22.9168C7.6454 22.5969 7.96178 22.5558 8.31234 22.7936C8.54646 23.0065 8.60468 23.2941 8.48698 23.6476C8.37815 24.0087 8.12757 24.3448 7.75297 24.6735C7.61882 24.6822 7.53656 24.7394 7.51125 24.8291C7.47834 24.9274 7.4948 25.0345 7.56187 25.1652C7.65426 25.3134 7.8289 25.5101 8.07948 25.7566C8.33006 25.9943 8.59709 26.2247 8.87171 26.4375C9.1476 26.6504 9.43108 26.8397 9.73101 26.9953C10.0234 27.1596 10.2739 27.258 10.465 27.2903C10.9067 26.8222 11.199 26.379 11.3496 25.9607C11.5002 25.5337 11.5331 25.1154 11.4332 24.6971C11.3408 24.2863 11.1497 23.8842 10.8573 23.4982C10.5739 23.1123 10.2069 22.7264 9.76392 22.3404C9.49689 22.1027 9.21341 21.8562 8.90461 21.6022C8.60468 21.3557 8.29589 21.1179 7.99469 20.9125C7.69475 20.6996 7.38596 20.5191 7.07717 20.3784C6.76837 20.2303 6.49249 20.1568 6.25077 20.1481C5.6838 20.1481 5.13203 20.4519 4.59797 21.0756C4.05505 21.6918 3.58806 22.4139 3.17929 23.243C2.77052 24.0809 2.43642 24.9262 2.17825 25.779C1.92007 26.6405 1.78593 27.3227 1.78593 27.8232C1.75302 28.3809 1.8859 28.9635 2.1871 29.5798C2.42123 30.0317 2.75407 30.516 3.18815 31.0164C3.62223 31.5256 4.14743 31.9688 4.74857 32.3548C5.3497 32.732 6.0255 33.0357 6.76837 33.266C7.51884 33.4876 8.32879 33.5449 9.2134 33.4466C9.77278 33.3968 10.4815 33.2337 11.3496 32.9536C12.2178 32.6822 13.1024 32.3871 14.0199 32.0834C14.9299 31.7709 15.8221 31.492 16.6902 31.2293C17.5495 30.9666 18.2671 30.8023 18.8265 30.7538C19.1264 30.7861 19.3099 30.7699 19.3859 30.704C19.4605 30.6467 19.4858 30.4736 19.4605 30.1873L17.8748 12.9498L17.8723 12.9523Z" fill="white"/>
<path d="M17.6558 1.91227C17.2559 1.59232 16.8383 1.23875 16.3954 0.852822C15.9537 0.475604 15.469 0.286373 14.9273 0.295088C14.3097 0.303802 13.8339 0.573955 13.4922 1.1155C13.1505 1.64958 12.9999 2.23222 13.0417 2.87212L13.0923 3.66017C12.5494 3.19207 11.8989 2.79867 11.1396 2.48619C10.3802 2.18242 9.7715 2.03427 9.32097 2.06789C8.18578 2.08407 7.08475 2.4451 6.00018 3.1597C4.91561 3.88177 3.91456 5.07193 3.00464 6.73891C3.17928 7.46969 3.47162 8.00253 3.8728 8.35609C4.27398 8.70094 4.6992 8.91382 5.16619 9.0047C5.62558 9.09558 6.07611 9.07068 6.5102 8.92254C6.94428 8.77439 7.30243 8.5615 7.57832 8.28264C7.62894 8.22537 7.7036 8.13449 7.80358 8.01124C7.90356 7.88799 7.99594 7.75727 8.07947 7.61784C8.163 7.4784 8.22121 7.35516 8.25412 7.24809C8.28702 7.14103 8.27057 7.07629 8.18704 7.05886C7.69474 7.00906 7.26066 6.86963 6.86834 6.64056C6.47603 6.41024 6.19254 6.16499 6.01663 5.90231C5.83313 5.63091 5.80782 5.39313 5.92425 5.18771C6.04954 4.9823 6.40769 4.90013 7.00123 4.94993C7.89344 4.99972 8.72869 5.19643 9.49561 5.54874C10.2714 5.89359 10.9725 6.27953 11.6065 6.68911C12.2406 7.09994 12.8 7.47716 13.2922 7.82948C13.7845 8.18304 14.1845 8.38721 14.4857 8.45319C14.9197 8.56026 15.3956 8.37103 15.9208 7.88675C16.4384 7.40246 16.8965 6.68787 17.2977 5.73673C17.2888 5.68693 17.2977 5.64585 17.3066 5.6222C17.323 5.5973 17.323 5.55621 17.323 5.49895L17.223 3.92285C17.2066 3.66017 17.1901 3.44728 17.1813 3.29042C17.1724 3.12609 17.1813 2.99537 17.2142 2.8883C17.2471 2.78124 17.2977 2.68289 17.3559 2.60072C17.423 2.51855 17.523 2.4202 17.6812 2.30567C17.7811 2.14134 17.7735 2.01062 17.6558 1.91227Z" fill="white"/>
<path d="M45.8749 6.00808C45.8496 5.7205 45.8002 5.44164 45.7078 5.16277C45.6154 4.89137 45.4826 4.65359 45.3155 4.44817C45.1485 4.24276 44.932 4.14441 44.665 4.15312C44.4486 4.16183 44.1892 4.2191 43.8804 4.31745C43.5804 4.42452 43.2628 4.54777 42.9287 4.6872C42.5946 4.83535 42.2782 4.99097 41.977 5.16277C41.6771 5.3271 41.41 5.4989 41.1759 5.66324C41.1177 5.7454 41.1088 5.87612 41.1253 6.06535C41.1417 6.24587 41.2341 6.34422 41.4012 6.36912C41.777 6.35293 41.9264 6.48365 41.8606 6.74633C41.7682 7.17335 41.4847 7.61655 41.0177 8.08465C40.5507 8.55275 39.9825 8.97976 39.3156 9.37316C38.6486 9.76781 37.9222 10.1039 37.1376 10.3828C36.3529 10.6617 35.586 10.826 34.8431 10.8833C33.7839 10.6779 32.7575 10.4973 31.7552 10.3168C30.7542 10.145 29.9607 10.0629 29.3684 10.0865C28.1674 10.0778 26.9322 10.4475 25.6882 11.1858C24.4366 11.9328 23.2849 13.1802 22.2168 14.9368C22.4092 15.7 22.7091 16.2664 23.1267 16.6436C23.5444 17.0296 24.0025 17.2673 24.4872 17.3744C24.9706 17.4728 25.4553 17.4566 25.9312 17.3171C26.4146 17.1852 26.8069 16.981 27.1157 16.7009C27.1739 16.6511 27.2575 16.5527 27.3739 16.4133C27.4903 16.2826 27.5903 16.1419 27.6738 16.0112C27.7662 15.8718 27.832 15.7485 27.8826 15.6253C27.9333 15.502 27.9079 15.436 27.7991 15.4124C27.3903 15.3713 27.0145 15.2642 26.6563 15.0924C26.3058 14.9206 26.0058 14.7314 25.7717 14.5098C25.53 14.2969 25.3883 14.0828 25.3212 13.8774C25.263 13.6645 25.33 13.4914 25.5211 13.352C25.7211 13.2126 26.0641 13.1391 26.5475 13.1391C27.0309 13.1304 27.6903 13.2375 28.5255 13.4429C29.1014 13.5823 29.7265 13.7554 30.4201 13.9521C31.1123 14.1488 31.8058 14.3455 32.4981 14.5272C33.1903 14.7165 33.8585 14.8883 34.509 15.0526C35.1595 15.2169 35.7024 15.3153 36.1365 15.3476L36.3365 20.8889C35.8113 20.4619 35.1937 20.051 34.4761 19.6489C33.7674 19.2555 33.0663 18.9107 32.3652 18.6144C31.6729 18.3268 31.0212 18.1052 30.4289 17.9496C29.8366 17.8014 29.3608 17.7603 29.0191 17.8263C27.4587 18.5895 26.2071 19.6813 25.2731 21.0856C24.3303 22.4973 23.5962 24.1469 23.0786 26.0429C23.0457 26.699 23.1622 27.4136 23.4127 28.1693C23.6709 28.925 24.0303 29.606 24.4809 30.2135C24.9314 30.8123 25.4743 31.3053 26.1083 31.6751C26.7348 32.0523 27.427 32.1842 28.1699 32.0772C28.4369 32.0448 28.7293 31.9377 29.0292 31.7485C29.3292 31.568 29.6304 31.3464 29.9303 31.0837C30.2302 30.821 30.5226 30.5422 30.806 30.2384C31.0895 29.9433 31.349 29.672 31.5818 29.4255C32.35 28.5478 32.8081 27.6937 32.9499 26.8559C33.1005 26.018 32.6575 25.2063 31.64 24.4258C31.4477 24.4581 31.2224 24.5814 30.9642 24.7868C30.7061 24.9922 30.4466 25.2213 30.1885 25.4678C29.9214 25.7143 29.6873 25.977 29.4709 26.2471C29.2545 26.5185 29.1039 26.7314 29.0292 26.8957C28.9786 27.0028 28.9786 27.1086 29.0204 27.2157C29.0621 27.314 29.1532 27.3638 29.2874 27.3638C29.5873 27.4547 29.8303 27.6514 30.0138 27.9552C30.1973 28.2502 30.2897 28.5303 30.2897 28.793C30.2808 29.0557 30.1733 29.2275 29.9645 29.3022C29.7556 29.3757 29.3975 29.22 28.9052 28.8428C28.4876 28.5142 28.0712 27.9726 27.6536 27.2007C27.2359 26.4376 26.9196 25.6334 26.7196 24.7793C26.5108 23.934 26.4526 23.1211 26.545 22.3492C26.6373 21.5773 26.9626 21.0445 27.5131 20.732C27.7295 20.6996 28.0978 20.7731 28.6141 20.9449C29.1229 21.1254 29.7076 21.3794 30.3492 21.7006C30.9921 22.0205 31.6679 22.3978 32.369 22.8335C33.0701 23.2767 33.713 23.7448 34.3129 24.254C34.9051 24.7631 35.4063 25.2723 35.8151 25.7803C36.2238 26.2969 36.4656 26.8061 36.5415 27.2991C36.525 27.619 36.4491 27.9153 36.3327 28.1855C36.2074 28.4482 35.9821 28.6947 35.6733 28.9163C35.5404 29.0557 35.548 29.2039 35.6898 29.3508C36.1074 29.7118 36.458 30.0815 36.7579 30.4837C37.0502 30.8858 37.4502 31.2219 37.9424 31.4933C38.5436 31.8133 39.1612 31.7884 39.7952 31.4273C40.0293 31.2555 40.2293 31.0414 40.3963 30.7712C40.5545 30.4998 40.714 30.221 40.8633 29.9259C41.0139 29.6222 41.1633 29.3271 41.3139 29.0308C41.4645 28.7358 41.6391 28.4967 41.8479 28.3C41.9568 28.1357 41.9479 27.9963 41.8315 27.8655C41.4227 27.619 41.1468 27.3315 41.0215 27.004C40.8874 26.6754 40.8127 26.3069 40.7963 25.8799L40.2951 12.4668C40.2862 12.1793 40.2445 11.9987 40.1609 11.9415C40.0774 11.8755 39.8851 11.8755 39.594 11.9415C39.3016 11.9738 38.9764 11.9738 38.6258 11.9328C38.2753 11.8917 37.883 11.8419 37.4577 11.7771C37.3489 11.7859 37.2072 11.761 37.049 11.7112C37.7754 11.6377 38.6005 11.4809 39.5269 11.2518C40.4609 11.014 41.3632 10.7015 42.2301 10.2994C43.1059 9.89728 43.8741 9.40429 44.5499 8.81418C45.2257 8.21537 45.6762 7.52567 45.885 6.72144C45.9015 6.54092 45.9015 6.30314 45.8761 6.00684L45.8749 6.00808Z" fill="white"/>
<path d="M53.2846 27.2767C53.2011 27.2032 53.0923 27.1858 52.9594 27.2443C52.2418 27.4497 51.6331 27.3265 51.1484 26.8671C50.665 26.4077 50.4144 25.5288 50.3891 24.2328V15.4821C50.3891 15.0302 50.4473 14.653 50.5637 14.333C50.689 14.0205 50.9472 13.7168 51.3484 13.4217C51.5154 13.3147 51.5154 13.1839 51.3484 13.0271C51.1649 12.8378 50.9889 12.6088 50.8307 12.3125C50.6637 12.0249 50.5055 11.7298 50.3473 11.4261C50.1891 11.1223 50.0132 10.8347 49.8221 10.572C49.6386 10.3094 49.4222 10.1127 49.1792 9.97323C48.5869 9.57858 47.9858 9.57858 47.3682 9.97323C46.8848 10.2683 46.5001 10.6131 46.2166 11.024C45.9407 11.4348 45.5825 11.8282 45.1573 12.1979C45.0485 12.3536 45.0485 12.5017 45.1573 12.6324C45.5572 12.8951 45.8167 13.1902 45.942 13.5188C46.0584 13.8475 46.1166 14.2247 46.1166 14.6517V25.4952C46.1166 25.7666 46.1001 26.0118 46.0584 26.2509C46.0166 26.4886 45.942 26.6941 45.8167 26.8671C45.7002 27.0389 45.499 27.1385 45.232 27.1622C45.1814 27.2119 45.1485 27.2767 45.132 27.3589C45.1156 27.441 45.1573 27.507 45.232 27.5556C45.4737 27.7448 45.7331 28.056 46.0002 28.5079C46.2672 28.9598 46.5671 29.4105 46.9012 29.8711C47.2353 30.3392 47.6099 30.7488 48.0276 31.1024C48.4452 31.456 48.9122 31.6527 49.4209 31.6776C49.7968 31.7025 50.1549 31.5867 50.5055 31.324C50.8561 31.0526 51.1902 30.7165 51.5154 30.2894C51.8331 29.8711 52.1419 29.4118 52.4418 28.9262C52.7341 28.4332 53.0176 27.9826 53.2846 27.5556C53.3682 27.4485 53.3682 27.3589 53.2846 27.2767Z" fill="white"/>
<path d="M75.1128 28.5154C74.7204 28.2366 74.4623 27.9328 74.3534 27.5967C74.2446 27.268 74.2028 26.8908 74.2117 26.4638L74.6951 12.5341C74.704 12.2465 74.6698 12.0747 74.5863 12.0174C74.5116 11.9602 74.3193 11.9515 74.0269 12.0013C73.7852 11.9925 73.5093 11.9104 73.2094 11.7548C72.9094 11.5991 72.5829 11.4186 72.2412 11.2045C71.8995 10.9991 71.5566 10.7862 71.2149 10.5808C70.8732 10.3679 70.5391 10.2197 70.2214 10.1289C69.8291 9.98072 69.2875 10.1376 68.6193 10.5882C67.9434 11.0402 67.2512 11.8108 66.5412 12.8951C66.383 12.8379 66.1413 12.6412 65.8148 12.2963C65.4972 11.9602 65.1226 11.6066 64.7049 11.2294C64.2873 10.8596 63.8532 10.5322 63.3951 10.2359C62.9357 9.94835 62.4852 9.81763 62.0599 9.85871C61.5512 9.81763 60.9425 10.1127 60.2325 10.77C59.5238 11.4186 58.848 12.1905 58.1962 13.0769C57.5533 13.9633 56.9699 14.8497 56.4612 15.7361C55.9436 16.6138 55.6019 17.2798 55.426 17.723C55.1336 18.2895 55.0665 18.9219 55.2171 19.6103C55.3677 20.3075 55.6424 21.0383 56.0435 21.8189C56.4523 22.5982 56.9117 23.395 57.4369 24.2079C57.9545 25.0122 58.4215 25.8089 58.8214 26.5882C58.9467 26.8011 59.072 27.0476 59.1808 27.3352C59.2897 27.6141 59.3643 27.8855 59.4149 28.1556C59.5073 28.6075 59.4479 28.8864 59.2479 29.0009C59.0391 29.108 58.7974 29.1242 58.5139 29.0333C58.238 28.9424 57.9798 28.7706 57.7292 28.508C57.4875 28.254 57.3698 27.9664 57.3787 27.6465C57.4116 27.441 57.3622 27.2767 57.2281 27.1709C57.1028 27.0563 56.9104 27.146 56.6611 27.4248C56.4359 27.5805 56.1435 27.8432 55.7689 28.2291C55.3931 28.615 55.1349 29.0258 55.0007 29.469C54.859 29.9122 54.9261 30.3467 55.1931 30.7663C55.4601 31.1846 56.1195 31.5045 57.1534 31.7187C57.8621 31.563 58.5974 31.1933 59.3732 30.6107C60.1414 30.028 60.7919 29.4529 61.3259 28.8864C61.7929 28.4594 62.3852 27.9178 63.0863 27.2618C63.795 26.6131 64.4961 25.9571 65.1884 25.2923C65.8806 24.6362 66.4906 24.0037 67.0069 23.4124C67.5246 22.8211 67.8169 22.3866 67.8751 22.099C67.9675 21.8114 67.9422 21.5002 67.808 21.1628C67.6752 20.8267 67.4828 20.5142 67.2411 20.2104C66.9905 19.9154 66.7235 19.644 66.4235 19.39C66.1236 19.1435 65.8224 18.9792 65.5313 18.8895C65.2643 18.8808 64.972 18.9804 64.6556 19.1933C64.3379 19.4062 64.0468 19.6614 63.7874 19.9564C63.5204 20.2515 63.2863 20.5553 63.0863 20.8677C62.8863 21.1802 62.7611 21.4255 62.7028 21.606C62.6446 21.7367 62.694 21.86 62.8446 21.967C62.9787 22.0243 63.1534 22.0579 63.3698 22.0654C63.5533 22.0741 63.7203 22.1475 63.8621 22.2957C64.0038 22.4513 64.1291 22.6156 64.2291 22.8049C64.3291 22.9941 64.3961 23.1983 64.429 23.4037C64.4619 23.6166 64.4455 23.8058 64.3873 23.9614C64.3291 24.1668 64.1291 24.437 63.7785 24.7744C63.428 25.103 63.1192 25.3408 62.8446 25.4964C62.7864 24.8565 62.5775 24.0685 62.2017 23.1323C61.9017 22.4924 61.5841 21.86 61.2424 21.245C60.9007 20.6212 60.5755 20.0461 60.2578 19.5045C59.9402 18.963 59.6567 18.4625 59.4238 17.9944C59.1821 17.5188 59.0404 17.0993 58.9986 16.7308C58.9151 16.2552 58.8733 15.7622 58.8897 15.2618C58.9062 14.7613 59.0821 14.3019 59.4238 13.8911C59.7491 13.6371 60.1085 13.5375 60.4755 13.5873C60.8513 13.6446 61.2348 13.784 61.6347 14.0056C62.027 14.2272 62.4105 14.5061 62.7699 14.8347C63.1369 15.1634 63.4622 15.4746 63.7456 15.7784C64.1051 16.1892 64.405 16.4432 64.6303 16.5416C64.8467 16.6399 65.1555 16.4594 65.5478 16C65.7477 15.7622 65.9477 15.507 66.1565 15.2281C66.3729 14.9406 66.5817 14.6779 66.7905 14.4314C66.9994 14.1849 67.1829 13.9882 67.3335 13.84C67.4917 13.6844 67.5916 13.6184 67.6423 13.6508C68.0675 13.8475 68.5269 14.1102 69.028 14.4476C69.5292 14.7837 69.962 14.9817 70.3379 15.0464L69.9202 27.1124C69.9038 27.5643 69.8278 27.949 69.7038 28.2776C69.5697 28.5976 69.2951 28.8939 68.8863 29.1391C68.7699 29.2711 68.7699 29.4105 68.8698 29.5736C69.2622 29.9596 69.5874 30.353 69.8544 30.7725C70.1215 31.1908 70.4973 31.5605 70.9643 31.8643C71.573 32.2502 72.1906 32.2751 72.8171 31.9216C73.0676 31.7734 73.2765 31.568 73.46 31.314C73.6435 31.0514 73.827 30.78 73.994 30.4936C74.1687 30.2148 74.3357 29.9272 74.5116 29.6396C74.6787 29.3607 74.871 29.1304 75.0963 28.9499C75.2051 28.7943 75.2127 28.6461 75.1128 28.5154Z" fill="white"/>
<path d="M78.15 1.86368C78.1588 1.84749 78.15 1.8226 78.15 1.80641C78.1411 1.62589 78.1171 1.46156 78.0664 1.31341C78.0247 1.16527 77.9576 1.03455 77.8829 0.918768C77.7247 0.680984 77.4906 0.598817 77.1907 0.656085C77.0818 0.680984 76.8819 0.722067 76.582 0.795518C76.282 0.877684 75.9732 0.959851 75.6556 1.04202C75.6303 1.05073 75.6138 1.0582 75.5885 1.06692H75.5796C75.4544 1.09928 75.3379 1.1329 75.2202 1.17398H75.2114C75.0861 1.21506 74.9608 1.25615 74.8444 1.30594H74.8355C74.8102 1.31466 74.7937 1.32213 74.7684 1.33084C74.7178 1.34703 74.6685 1.37193 74.6267 1.38811C74.4343 1.46156 74.3015 1.53626 74.2344 1.59353C74.2091 1.63461 74.1838 1.65951 74.1762 1.69188L74.1673 1.70059C74.1584 1.70059 74.1584 1.70931 74.1584 1.70931C74.1331 1.7591 74.1078 1.80766 74.1078 1.85745C74.099 1.89854 74.099 1.93962 74.1167 1.97199V1.9807C74.142 2.03797 74.1913 2.07905 74.2673 2.12014C74.2926 2.13632 74.3255 2.15251 74.3597 2.16122C74.5179 2.19359 74.6014 2.4488 74.6178 2.92437C74.6178 3.0389 74.6178 3.16215 74.609 3.27793C74.609 3.35139 74.6001 3.42608 74.5925 3.49953V3.50825C74.5837 3.64768 74.5596 3.78712 74.5255 3.92655C74.5166 4.0249 74.4925 4.13196 74.4584 4.23031C74.4584 4.28011 74.4419 4.33738 74.4255 4.38593C74.2926 4.87893 74.0838 5.24743 73.8167 5.50265C73.5409 5.74914 73.208 5.66698 72.7992 5.23996C72.8322 5.19017 72.8992 5.06816 73.0081 4.87893C73.108 4.68223 73.2245 4.48553 73.3422 4.28011C73.4092 4.16558 73.4763 4.05851 73.5168 3.95145V3.94273C73.5586 3.86057 73.5915 3.78712 73.6168 3.70495C73.6332 3.65515 73.6497 3.61407 73.6585 3.5817C73.6915 3.47463 73.7003 3.4099 73.6839 3.39247C73.675 3.26922 73.6586 3.1385 73.6332 2.98164V2.97292C73.6244 2.95674 73.6244 2.94055 73.6168 2.91566V2.90694C73.6003 2.80859 73.575 2.70153 73.5497 2.58699C73.508 2.41519 73.4497 2.23343 73.3573 2.05291C73.3156 1.94585 73.2574 1.84002 73.1992 1.73296C73.1992 1.73296 73.1992 1.72425 73.1903 1.72425C73.1739 1.68316 73.1485 1.65079 73.1232 1.60971C73.0979 1.57734 73.0815 1.55244 73.0562 1.51883V1.51012C72.898 1.2798 72.7056 1.06692 72.4803 0.870215L72.4715 0.8615C72.4133 0.820417 72.3626 0.779334 72.3044 0.730781C71.9703 0.468098 71.5286 0.312481 70.9604 0.255213C70.9275 0.263928 70.8933 0.280112 70.844 0.312481C70.7693 0.344849 70.6769 0.410831 70.5516 0.492997L70.5428 0.501712C70.4428 0.567694 70.3175 0.65733 70.1834 0.764395C70.1669 0.773109 70.1581 0.789294 70.1416 0.796763C69.7822 1.08434 69.4747 1.42919 69.2241 1.84749C69.2152 1.84749 69.2152 1.85621 69.2152 1.85621C69.2064 1.84749 69.1988 1.84002 69.1899 1.83131C69.184 1.8255 69.1785 1.82011 69.1735 1.81513C69.0153 1.63461 68.8065 1.43791 68.5647 1.23996C68.3066 1.02708 68.0307 0.829132 67.7307 0.641145C67.4384 0.451914 67.1385 0.305011 66.8385 0.189231C66.5297 0.0821662 66.2627 0.0174292 66.021 0C65.7957 0.123249 65.5451 0.336134 65.2781 0.656085C65.0111 0.959851 64.7441 1.28852 64.5023 1.66573V1.67445C64.4935 1.68316 64.4935 1.69063 64.4859 1.69935C64.4694 1.72425 64.453 1.75661 64.4353 1.78151C64.2011 2.13508 63.9936 2.47868 63.8088 2.83224C63.6165 3.20199 63.4836 3.52941 63.4076 3.81699C63.3494 4.39963 63.4165 4.89262 63.6165 5.31964C63.8253 5.73794 64.0834 6.09897 64.4011 6.39527C64.7187 6.69032 65.0858 6.92064 65.4857 7.09244C65.8944 7.26424 66.2868 7.35512 66.6626 7.38002C66.9043 7.3713 67.1714 7.33894 67.4549 7.28914C67.7383 7.23934 68.0218 7.1497 68.2977 7.01774C68.5736 6.88702 68.8153 6.72269 69.0064 6.52474C69.2064 6.32804 69.3481 6.06536 69.424 5.75288C69.4405 5.4653 69.357 5.15406 69.1735 4.8254C68.99 4.49673 68.7647 4.30003 68.5065 4.23405C68.2142 4.1606 67.9396 4.21787 67.689 4.40585C67.4384 4.58637 67.2055 4.79178 67.0043 5.0221C66.9208 5.12045 66.9119 5.2437 66.979 5.39185C67.0537 5.54746 67.1537 5.60473 67.2967 5.58855C67.3384 5.80143 67.3131 5.98319 67.222 6.12263C67.1296 6.26206 67.022 6.28696 66.8967 6.20479C66.1463 5.67943 65.8286 5.10551 65.9539 4.48055C65.9957 4.14441 66.1045 3.82446 66.2716 3.52817C66.4386 3.23312 66.631 3.0028 66.8562 2.831C67.0651 2.94553 67.2979 3.10987 67.5574 3.324C67.8079 3.53688 68.0408 3.75848 68.242 3.98008C68.3167 4.06225 68.4167 4.06225 68.542 3.98008C68.6672 3.8892 68.809 3.7672 68.9672 3.60286C69.1254 3.44725 69.2848 3.26673 69.443 3.0775C69.5101 2.99533 69.5848 2.92188 69.6518 2.86461L69.6607 2.8559C69.686 2.831 69.7113 2.81481 69.7354 2.78992L69.7442 2.7812C69.8113 2.7314 69.8695 2.69032 69.9366 2.64924H69.9695C70.2871 2.59944 70.5289 2.74759 70.7124 3.09244C70.7288 3.11734 70.7453 3.14223 70.7541 3.1746V3.18332C70.9288 3.51198 71.0629 3.8892 71.1629 4.3075C70.9465 4.74199 70.7706 5.06318 70.62 5.25117C70.4782 5.4404 70.3365 5.6122 70.1859 5.76035C70.1112 5.72798 70.0353 5.76035 69.9606 5.86741C69.886 5.96576 69.8607 6.05665 69.886 6.13881C70.2783 6.68908 70.7124 7.08248 71.1794 7.32898C71.6552 7.56676 72.1551 7.71491 72.6891 7.77218C72.9562 7.81326 73.3485 7.64893 73.8661 7.28789C74.3837 6.91815 74.9013 6.49984 75.4177 6.02428C75.5518 5.90103 75.6758 5.78649 75.8011 5.66324C76.0264 5.45036 76.2516 5.23623 76.4516 5.02334C76.5769 4.90009 76.6933 4.78556 76.811 4.66231C76.9692 4.49051 77.111 4.34236 77.2198 4.21911C77.3033 4.13694 77.3704 4.06349 77.4197 4.00622C77.4868 3.94024 77.5286 3.89169 77.5526 3.85808C77.5615 3.85808 77.5615 3.84936 77.5615 3.84936C77.5944 3.81699 77.6197 3.77591 77.6539 3.73483C77.7209 3.65266 77.7703 3.55431 77.8285 3.44725C77.9032 3.2991 77.9703 3.11858 78.0209 2.93059C78.1044 2.60193 78.155 2.29069 78.155 1.98693V1.97074C78.155 1.93838 78.155 1.90476 78.1462 1.86368H78.15Z" fill="white"/>
<path d="M97.6597 13.8636C97.5851 13.8064 97.3927 13.7902 97.0928 13.8226C96.5334 13.7728 95.8082 13.6171 94.9148 13.3632C94.0226 13.1005 93.0873 12.8216 92.1192 12.5091C91.151 12.2054 90.2171 11.9178 89.3236 11.6476C88.4314 11.3688 87.705 11.2132 87.1456 11.1634C85.9446 11.0152 84.6752 11.2293 83.349 11.8194C82.0227 12.4108 80.7204 13.5188 79.4523 15.136C79.5447 15.9078 79.7776 16.5154 80.1446 16.9424C80.5116 17.3694 80.9292 17.6645 81.3962 17.8201C81.8721 17.9757 82.3555 18.0168 82.8478 17.9433C83.3312 17.8612 83.7489 17.7055 84.0994 17.4678C84.1576 17.418 84.25 17.3358 84.3829 17.2138C84.5082 17.0905 84.6335 16.9673 84.7335 16.844C84.8423 16.7208 84.9258 16.6063 84.9916 16.4905C85.0499 16.3759 85.0334 16.3012 84.9246 16.2689C84.5322 16.178 84.1652 16.0311 83.8311 15.817C83.497 15.6041 83.23 15.3738 83.0212 15.136C82.8124 14.8895 82.6959 14.6604 82.6542 14.4463C82.6213 14.2334 82.7124 14.0691 82.9212 13.9533C83.1376 13.8387 83.4806 13.8051 83.964 13.8624C84.4399 13.9122 85.0828 14.0927 85.8914 14.3965C86.4419 14.6019 87.0431 14.8484 87.71 15.1273C88.3694 15.4061 89.0363 15.6775 89.6957 15.9477C90.3626 16.2104 91.0055 16.4643 91.6319 16.7034C92.2584 16.9411 92.7836 17.1055 93.2088 17.1964L92.0989 30.0915C91.6155 30.3454 91.0637 30.4849 90.4474 30.5098C89.821 30.5421 89.2046 30.5011 88.5946 30.3952C88.0935 30.3293 87.5354 30.1824 86.9178 29.9433C86.3091 29.7055 85.7497 29.3931 85.2409 29.0071C84.7398 28.6212 84.307 28.178 83.964 27.685C83.6135 27.192 83.4388 26.6666 83.43 26.1089C83.4553 25.8786 83.5717 25.4927 83.7894 24.9685C84.0146 24.4432 84.2817 23.9502 84.6069 23.4908C84.9322 23.0227 85.2663 22.6617 85.608 22.399C85.9585 22.1363 86.2749 22.1525 86.5761 22.4401C86.7685 22.694 86.7761 22.9903 86.6014 23.3177C86.4268 23.6464 86.1256 23.9415 85.7003 24.1954C85.5675 24.1867 85.4751 24.2203 85.4245 24.31C85.3738 24.4008 85.3738 24.5154 85.4156 24.6461C85.4827 24.8104 85.6155 25.032 85.8244 25.3196C86.0243 25.5985 86.242 25.8699 86.4749 26.1238C86.709 26.3865 86.9583 26.6168 87.2253 26.821C87.4923 27.0339 87.7176 27.1659 87.9011 27.2393C88.4187 26.8534 88.7857 26.4674 89.011 26.0815C89.2274 25.6869 89.3286 25.2773 89.3109 24.8503C89.2945 24.4232 89.1768 23.9962 88.9604 23.5692C88.744 23.1422 88.4516 22.699 88.0846 22.2471C87.8682 21.9595 87.6252 21.6719 87.3759 21.3694C87.1177 21.0743 86.8583 20.7942 86.6001 20.5316C86.3331 20.2689 86.0661 20.0473 85.7902 19.8506C85.5067 19.6539 85.2473 19.5306 85.0056 19.4808C84.455 19.3825 83.8539 19.5954 83.2199 20.1133C82.577 20.6299 81.9847 21.2623 81.443 22.0093C80.8925 22.7563 80.4167 23.5356 80.0079 24.3324C79.5992 25.1366 79.3486 25.7852 79.2575 26.2782C79.1233 26.8285 79.1575 27.4186 79.341 28.0759C79.4916 28.5602 79.7333 29.0943 80.075 29.6682C80.4167 30.2346 80.8508 30.76 81.3772 31.2443C81.8949 31.7199 82.5124 32.1394 83.2047 32.4917C83.9058 32.8366 84.6904 33.0333 85.5751 33.0831C86.142 33.1329 86.8684 33.0918 87.7695 32.9685C88.6706 32.8453 89.5969 32.7058 90.5486 32.5664C91.5079 32.4183 92.4343 32.2875 93.3354 32.1805C94.2276 32.0659 94.9629 32.0323 95.521 32.0821C95.8133 32.1643 95.9968 32.1805 96.0803 32.1319C96.1639 32.0834 96.2221 31.919 96.2474 31.6315L97.7331 14.3853C97.7584 14.0977 97.7331 13.9259 97.6585 13.8599L97.6597 13.8636Z" fill="white"/>
<path d="M113.397 25.4541C113.239 25.1254 112.979 24.986 112.621 25.0519C112.488 25.0607 112.254 25.1017 111.936 25.1752C111.611 25.2574 111.277 25.347 110.926 25.4466C110.567 25.5449 110.234 25.652 109.925 25.7665C109.608 25.8898 109.408 25.9969 109.308 26.0865C109.215 26.2097 109.166 26.333 109.157 26.4637C109.148 26.6031 109.241 26.7015 109.415 26.7837C109.499 26.7924 109.566 27.014 109.632 27.4485C109.69 27.8829 109.665 28.3672 109.557 28.8926C109.441 29.4267 109.19 29.9271 108.798 30.3952C108.414 30.8633 107.822 31.1335 107.021 31.2157C106.67 31.248 106.262 31.2069 105.802 31.0762C105.352 30.953 104.918 30.7563 104.5 30.5011C104.091 30.2471 103.732 29.9184 103.441 29.5076C103.148 29.0893 102.981 28.6299 102.94 28.1207C103.014 27.7846 103.181 27.5132 103.457 27.3078C103.733 27.1024 103.933 26.9878 104.075 26.9542C104.217 26.9131 104.367 27.0451 104.534 27.3314C104.692 27.619 104.859 28.1606 105.018 28.9573C104.951 29.0482 104.934 29.1789 104.967 29.3271C105 29.4752 105.067 29.5574 105.176 29.5736C105.25 29.6147 105.426 29.5574 105.685 29.4254C105.952 29.286 106.219 29.1129 106.511 28.9088C106.794 28.7121 107.054 28.4979 107.303 28.2763C107.554 28.0547 107.696 27.8991 107.737 27.7921C107.621 27.2256 107.496 26.7575 107.336 26.4052C107.185 26.0516 107.002 25.7815 106.793 25.5923C106.593 25.403 106.384 25.2723 106.159 25.1901C105.943 25.108 105.7 25.0507 105.433 25.0183C104.848 24.9611 104.29 25.0594 103.772 25.2972C103.255 25.5275 102.771 25.8549 102.321 26.257C101.87 26.6679 101.453 27.1185 101.053 27.6277C100.66 28.1369 100.284 28.6287 99.9175 29.1129C100.01 29.8188 100.243 30.4513 100.61 31.009C100.986 31.5593 101.378 32.0099 101.787 32.3635C102.704 33.1764 103.756 33.586 104.949 33.6035C106.143 33.6122 107.26 33.2175 108.321 32.4295C108.621 32.1992 108.964 31.9614 109.356 31.7074C109.739 31.4534 110.132 31.182 110.54 30.9032C110.94 30.6243 111.342 30.3367 111.734 30.0417C112.126 29.7541 112.46 29.4503 112.751 29.1391C113.002 28.8851 113.211 28.5067 113.369 28.0224C113.527 27.5381 113.611 27.07 113.62 26.6193C113.628 26.1687 113.552 25.7827 113.394 25.4541H113.397ZM114.772 15.4074C114.614 15.0787 114.355 14.948 113.997 15.0053C113.863 15.014 113.63 15.0551 113.312 15.1285C112.987 15.2107 112.653 15.3003 112.302 15.3999C111.943 15.4983 111.61 15.6053 111.301 15.7286C110.983 15.8431 110.783 15.9502 110.683 16.0411C110.591 16.1643 110.533 16.2875 110.533 16.427C110.524 16.5577 110.616 16.6486 110.8 16.6984C110.875 16.7395 110.942 16.9698 111.009 17.4043C111.067 17.8387 111.042 18.323 110.934 18.8571C110.818 19.3825 110.567 19.8829 110.175 20.351C109.791 20.8191 109.199 21.098 108.398 21.1715C108.047 21.2038 107.639 21.1627 107.179 21.032C106.72 20.9088 106.295 20.7121 105.877 20.4407C105.468 20.178 105.118 19.8419 104.818 19.4397C104.525 19.0463 104.351 18.5857 104.317 18.0778C104.391 17.7416 104.558 17.4702 104.834 17.2648C105.101 17.0594 105.31 16.9449 105.452 16.9113C105.593 16.8789 105.744 17.0021 105.911 17.2885C106.069 17.5761 106.236 18.1176 106.395 18.9144C106.327 19.0127 106.311 19.136 106.344 19.2841C106.377 19.4397 106.444 19.5219 106.553 19.5306C106.627 19.5717 106.794 19.5219 107.061 19.3825C107.32 19.243 107.596 19.07 107.879 18.8733C108.171 18.6679 108.43 18.4463 108.68 18.2172C108.931 17.9869 109.072 17.8151 109.114 17.7167C109.005 17.1416 108.872 16.6822 108.714 16.3461C108.564 16.0012 108.38 15.7385 108.171 15.5493C107.971 15.3688 107.754 15.2293 107.537 15.1472C107.321 15.065 107.078 15.0077 106.811 14.9754C106.226 14.9181 105.668 15.0165 105.151 15.2542C104.633 15.492 104.141 15.812 103.699 16.2141C103.248 16.6249 102.831 17.0756 102.438 17.5686C102.046 18.0616 101.663 18.5621 101.296 19.0787C101.388 19.7522 101.63 20.3672 101.997 20.9262C102.364 21.4839 102.756 21.9446 103.165 22.3218C104.082 23.1347 105.134 23.5443 106.327 23.5368C107.521 23.5368 108.638 23.1509 109.699 22.3878C109.999 22.1575 110.342 21.9197 110.734 21.6657C111.118 21.4117 111.51 21.1403 111.919 20.8453C112.327 20.5502 112.72 20.2627 113.112 19.9676C113.504 19.6725 113.846 19.385 114.13 19.0974C114.38 18.8434 114.589 18.465 114.747 17.9807C114.905 17.4964 114.989 17.0283 114.998 16.5776C115.007 16.1257 114.931 15.7398 114.772 15.4124V15.4074Z" fill="white"/>
<path d="M37.8893 39.9241C37.821 39.8805 37.759 39.8904 37.7045 39.9539C37.6488 40.0174 37.6008 40.0983 37.5577 40.1992C37.5147 40.3 37.4831 40.4034 37.4628 40.5117C37.4426 40.62 37.435 40.6959 37.44 40.742C37.4628 40.8478 37.5172 40.9399 37.6033 41.0196C37.6893 41.0993 37.7868 41.1665 37.8982 41.22C38.0095 41.2736 38.1272 41.3109 38.2538 41.3321C38.3791 41.3532 38.4917 41.3607 38.5904 41.3545C38.7106 41.3508 38.8283 41.3333 38.946 41.3047C39.0637 41.2761 39.1612 41.2275 39.2422 41.1615L38.9372 38.6729C38.8536 38.6729 38.7473 38.6617 38.6195 38.6418C38.4917 38.6206 38.3588 38.5982 38.2221 38.5733C38.0855 38.5484 37.9488 38.5222 37.8121 38.4949C37.6754 38.4675 37.5501 38.4451 37.4388 38.4276C37.273 38.4015 37.1439 38.3915 37.0515 38.4002C36.9579 38.409 36.8933 38.4276 36.8579 38.4575C36.8224 38.4874 36.8123 38.5222 36.8275 38.5608C36.8427 38.6007 36.8743 38.6393 36.9237 38.6766C36.973 38.714 37.0325 38.7476 37.1047 38.775C37.1755 38.8024 37.2515 38.8173 37.3299 38.8173C37.3514 38.8198 37.3578 38.8335 37.3502 38.8571C37.3426 38.8808 37.3312 38.9069 37.3173 38.9343C37.3021 38.9617 37.2844 38.9891 37.2641 39.0177C37.2439 39.0464 37.23 39.065 37.2198 39.0762C37.1641 39.1348 37.0907 39.1808 37.0009 39.2144C36.911 39.248 36.8187 39.2593 36.7225 39.248C36.6263 39.2368 36.5352 39.197 36.4491 39.1298C36.3631 39.0625 36.2947 38.958 36.2454 38.8148C36.4213 38.4588 36.6238 38.1998 36.8528 38.0367C37.0819 37.8736 37.3122 37.7827 37.5451 37.7653C37.6539 37.7529 37.7969 37.7554 37.9779 37.7715C38.1589 37.7877 38.3462 37.8076 38.5423 37.8276C38.7385 37.8487 38.9258 37.8662 39.1055 37.8799C39.2852 37.8948 39.4295 37.896 39.537 37.8823C39.5927 37.8649 39.6282 37.8612 39.6446 37.8699C39.6611 37.8786 39.6737 37.911 39.68 37.9658L40.0876 41.291C40.0939 41.347 40.0901 41.3806 40.0762 41.3931C40.0622 41.4055 40.0255 41.4093 39.9673 41.4055C39.8598 41.418 39.7218 41.4528 39.556 41.5089C39.3902 41.5649 39.2194 41.6246 39.0447 41.6894C38.8688 41.7541 38.6992 41.8151 38.5335 41.8736C38.3677 41.9321 38.231 41.967 38.1222 41.9807C37.9526 42.0056 37.7944 41.9994 37.6488 41.9595C37.5033 41.9209 37.3704 41.8649 37.2515 41.794C37.1325 41.723 37.03 41.6396 36.9427 41.545C36.8554 41.4503 36.7883 41.3582 36.7402 41.2723C36.6794 41.1565 36.6491 41.0433 36.6516 40.9349C36.6503 40.8378 36.6718 40.7046 36.7161 40.5378C36.7604 40.371 36.8199 40.2054 36.8946 40.0423C36.9693 39.8792 37.0566 39.7361 37.1566 39.6141C37.2565 39.4921 37.3616 39.4286 37.4704 39.4261C37.5172 39.4261 37.5717 39.4385 37.6324 39.4647C37.6931 39.4908 37.7539 39.5232 37.8134 39.563C37.8728 39.6029 37.9336 39.6452 37.9943 39.6925C38.0551 39.7398 38.112 39.7859 38.1639 39.8307C38.2512 39.9029 38.3246 39.9751 38.3829 40.0485C38.4423 40.122 38.4816 40.1979 38.5018 40.2776C38.5221 40.3573 38.5195 40.4395 38.493 40.5216C38.4664 40.605 38.412 40.6922 38.3297 40.7843C38.2917 40.7781 38.2449 40.7607 38.1854 40.732C38.126 40.7034 38.0703 40.6685 38.0159 40.6287C37.9614 40.5888 37.9096 40.5465 37.8589 40.5005C37.8083 40.4556 37.7741 40.4183 37.7552 40.3897C37.7412 40.366 37.7374 40.3436 37.7438 40.3249C37.7488 40.3062 37.7653 40.295 37.7906 40.2926C37.8615 40.2278 37.907 40.1606 37.9273 40.0909C37.9475 40.0212 37.9336 39.9664 37.8868 39.9253L37.8893 39.9241Z" fill="white"/>
<path d="M41.3923 38.3728C41.4139 38.3765 41.4202 38.389 41.4113 38.4139C41.4025 38.4375 41.3911 38.4637 41.3759 38.4898C41.3607 38.5172 41.3417 38.5446 41.3215 38.572C41.3 38.5993 41.286 38.6193 41.2759 38.6305C41.219 38.6877 41.1443 38.7313 41.0532 38.7624C40.9621 38.7936 40.8697 38.8035 40.7748 38.7923C40.6798 38.7811 40.59 38.74 40.5052 38.6716C40.4204 38.6031 40.3559 38.496 40.3103 38.3504C40.4963 37.9993 40.7052 37.7441 40.9367 37.5835C41.1696 37.4229 41.4025 37.337 41.6353 37.3258C41.7442 37.3158 41.8505 37.3258 41.9555 37.3544C42.0606 37.383 42.1643 37.4142 42.2694 37.449C42.3744 37.4826 42.4782 37.5125 42.5832 37.5387C42.687 37.5648 42.7933 37.5735 42.9021 37.5623C42.9578 37.5474 42.9945 37.5436 43.011 37.5524C43.0274 37.5611 43.0388 37.5934 43.0439 37.6495L43.2995 40.3199C43.3071 40.4008 43.3261 40.473 43.3552 40.534C43.3843 40.595 43.44 40.6485 43.5223 40.6921C43.545 40.7158 43.5476 40.7431 43.5298 40.7755C43.4919 40.8153 43.4602 40.8639 43.4349 40.9224C43.4096 40.9809 43.3843 41.0407 43.3577 41.0992C43.3324 41.1577 43.3046 41.215 43.2755 41.2685C43.2464 41.322 43.2109 41.3669 43.1666 41.4017C43.0489 41.4789 42.93 41.4901 42.8098 41.4353C42.711 41.388 42.6313 41.327 42.5693 41.2536C42.5073 41.1801 42.4339 41.1104 42.3491 41.0469C42.32 41.0183 42.3175 40.9909 42.3415 40.9635C42.4149 40.905 42.4592 40.844 42.4769 40.778C42.4934 40.712 42.4984 40.6361 42.4908 40.5502L42.2744 38.2993C42.2162 38.2943 42.1529 38.2732 42.0846 38.2358C42.0163 38.1985 41.9365 38.1599 41.8467 38.1188C41.7568 38.079 41.6543 38.0404 41.5379 38.0055C41.4227 37.9707 41.2911 37.952 41.1456 37.9495C41.0152 37.9458 40.9367 37.9669 40.9089 38.0105C40.8811 38.0541 40.8861 38.1014 40.9228 38.1512C40.9583 38.2022 41.0203 38.2495 41.1089 38.2956C41.1974 38.3416 41.2898 38.3678 41.3911 38.3728H41.3923Z" fill="white"/>
<path d="M46.7001 39.8742C46.6431 40.0261 46.5773 40.1829 46.5014 40.3448C46.4254 40.5066 46.3432 40.6535 46.2508 40.788C46.1584 40.9224 46.0559 41.0345 45.942 41.1229C45.8281 41.2113 45.7041 41.2611 45.5699 41.271C45.3573 41.2897 45.165 41.2636 44.9903 41.1901C44.8157 41.1166 44.6676 41.0233 44.5448 40.9087C44.4221 40.7942 44.3284 40.6747 44.2626 40.5514C44.1968 40.4282 44.1639 40.3249 44.1639 40.2427C44.1715 40.1244 44.1993 40.0099 44.25 39.8991C44.2993 39.7883 44.3601 39.68 44.4309 39.5754C44.5018 39.4708 44.5739 39.3663 44.6473 39.2617C44.7207 39.1571 44.7853 39.0538 44.841 38.9529C44.9055 38.826 44.9296 38.6878 44.9144 38.5371C44.8992 38.3877 44.8638 38.2508 44.8081 38.1288C44.7524 38.0068 44.6866 37.9159 44.6094 37.8537C44.5322 37.7927 44.4638 37.7889 44.4056 37.8437C44.3715 37.8761 44.3613 37.9171 44.3753 37.9645C44.3892 38.0118 44.4107 38.0591 44.4398 38.1064C44.4689 38.1537 44.5031 38.1923 44.5423 38.2222C44.5803 38.2533 44.6081 38.2682 44.6233 38.267C44.6499 38.2707 44.6587 38.2856 44.6499 38.3118C44.6372 38.3491 44.6157 38.3952 44.5853 38.45C44.555 38.5048 44.5195 38.5583 44.479 38.6068C44.4373 38.6554 44.393 38.6915 44.3462 38.7152C44.2981 38.7388 44.25 38.7425 44.2019 38.7251C44.1753 38.7164 44.1462 38.6965 44.1158 38.6654C44.0854 38.6342 44.0551 38.6019 44.0272 38.567C43.9994 38.5334 43.9741 38.4998 43.9538 38.4687C43.9336 38.4363 43.9235 38.4176 43.9235 38.4126C43.9171 38.3977 43.9298 38.3541 43.9614 38.2832C43.9931 38.2122 44.0374 38.1263 44.0956 38.0242C44.1538 37.9234 44.2209 37.8163 44.2955 37.703C44.3702 37.5897 44.4487 37.4852 44.5284 37.388C44.6081 37.2909 44.6841 37.2088 44.7575 37.1428C44.8309 37.0768 44.8941 37.0444 44.946 37.0457C45.0599 37.0432 45.1662 37.0756 45.2649 37.144C45.3636 37.2113 45.4497 37.2959 45.5244 37.3955C45.599 37.4951 45.6547 37.6022 45.6902 37.7155C45.7269 37.8288 45.7395 37.9308 45.7307 38.0242C45.7307 38.1114 45.6927 38.2209 45.613 38.3541C45.5332 38.4873 45.4446 38.6268 45.3447 38.7712C45.2447 38.9156 45.1498 39.0613 45.0587 39.2057C44.9675 39.3501 44.9068 39.4796 44.8777 39.5941C44.8612 39.7236 44.8853 39.8481 44.9511 39.9701C45.0169 40.0908 45.1029 40.1966 45.2105 40.2875C45.3181 40.3772 45.4383 40.4431 45.5712 40.483C45.7041 40.5228 45.8319 40.529 45.9547 40.5004C46.0572 40.473 46.1192 40.4282 46.1407 40.3647C46.1622 40.3012 46.1622 40.224 46.1407 40.1307C46.1192 40.0373 46.0825 39.934 46.0331 39.8194C45.9838 39.7049 45.9407 39.5854 45.9028 39.4596C45.8648 39.3339 45.8395 39.2069 45.8256 39.0762C45.8116 38.9467 45.8281 38.8185 45.8775 38.6927C45.9547 38.4475 46.0331 38.2184 46.1154 38.008C46.1976 37.7976 46.2799 37.6159 46.3634 37.4615C46.447 37.3071 46.5292 37.1826 46.6115 37.088C46.6937 36.9934 46.7709 36.9374 46.8418 36.9224C47.0544 36.9038 47.2278 36.9075 47.3619 36.9336C47.4961 36.961 47.6113 36.9859 47.7074 37.0108C47.8024 37.0357 47.8909 37.0457 47.9719 37.0432C48.0517 37.0407 48.139 37.0021 48.2339 36.9299C48.2605 36.9336 48.2896 36.9498 48.3225 36.9785C48.3554 37.0071 48.3655 37.032 48.3516 37.0532C48.3288 37.1054 48.3035 37.1826 48.2744 37.2847C48.2453 37.3868 48.2048 37.4876 48.1542 37.5885C48.0998 37.6993 48.0415 37.7814 47.9795 37.835C47.9175 37.8873 47.853 37.9171 47.7834 37.9246C47.7138 37.9321 47.6366 37.9221 47.5543 37.8972C47.472 37.8723 47.3797 37.84 47.2784 37.8001C47.2088 37.774 47.1354 37.7478 47.0582 37.7229C46.981 37.6968 46.9076 37.6868 46.8367 37.6918C46.7671 37.6968 46.6988 37.7192 46.6343 37.759C46.5697 37.7989 46.5115 37.8723 46.4621 37.9781C46.4394 38.0205 46.4166 38.0728 46.3951 38.1325C46.3736 38.1923 46.3571 38.2545 46.3457 38.3168C46.3343 38.379 46.3305 38.4413 46.3343 38.5023C46.3381 38.5633 46.3558 38.6193 46.3849 38.6678C46.4811 38.5434 46.5773 38.4637 46.6735 38.4263C46.7697 38.389 46.8456 38.3641 46.9025 38.3491C46.9924 38.3691 47.0759 38.3964 47.1544 38.4326C47.2316 38.4687 47.3101 38.5023 47.3885 38.5359C47.4657 38.5695 47.5467 38.5956 47.6277 38.6156C47.71 38.6355 47.7973 38.6405 47.8897 38.6293C47.934 38.6006 47.9757 38.5844 48.0112 38.5795C48.0479 38.5745 48.0681 38.6156 48.0744 38.7015L48.1719 40.1319C48.1782 40.219 48.1947 40.2925 48.2225 40.3547C48.2504 40.417 48.3048 40.4705 48.3858 40.5166C48.4136 40.5452 48.4149 40.5739 48.3908 40.6012C48.3174 40.6784 48.2567 40.7569 48.2086 40.8403C48.1592 40.9224 48.0896 40.9959 48.001 41.0581C47.8859 41.1378 47.7669 41.1453 47.6429 41.0818C47.5948 41.0544 47.5518 41.0158 47.5138 40.9673C47.4758 40.9187 47.4404 40.8677 47.4062 40.8129C47.3708 40.7593 47.3366 40.7046 47.3012 40.651C47.2658 40.5975 47.2265 40.5539 47.1822 40.5203C47.1544 40.4967 47.1531 40.468 47.1759 40.4357C47.2506 40.3796 47.2961 40.3186 47.3164 40.2539C47.3354 40.1879 47.3417 40.1157 47.3366 40.0336C47.3303 39.9315 47.3252 39.8157 47.324 39.685C47.3227 39.5542 47.3189 39.4385 47.3113 39.3364C47.267 39.309 47.2126 39.2741 47.1481 39.2318C47.0835 39.1895 47.0139 39.1521 46.9418 39.1185C46.8684 39.0849 46.7962 39.06 46.7216 39.0451C46.6469 39.0301 46.5798 39.0289 46.5178 39.0438C46.5558 39.1384 46.59 39.2206 46.6203 39.2903C46.6507 39.36 46.6748 39.4235 46.6925 39.4808C46.7089 39.5393 46.7203 39.5978 46.7241 39.6588C46.7279 39.7198 46.7203 39.792 46.7001 39.8754V39.8742Z" fill="white"/>
<path d="M49.8007 37.789C49.8222 37.7927 49.8273 37.8064 49.8184 37.8301C49.8096 37.8537 49.7956 37.8786 49.7792 37.9048C49.7627 37.9309 49.7425 37.957 49.7197 37.9844C49.6982 38.0106 49.6817 38.0292 49.6716 38.0405C49.6121 38.094 49.5349 38.1338 49.4426 38.1612C49.3502 38.1886 49.2565 38.1936 49.1629 38.1761C49.068 38.16 48.9806 38.1139 48.8996 38.0417C48.8186 37.9682 48.7592 37.8587 48.7212 37.7118C48.9249 37.3707 49.1477 37.1267 49.3881 36.9785C49.6286 36.8304 49.8665 36.7569 50.0994 36.7569C50.2082 36.7519 50.3145 36.7669 50.417 36.8017C50.5195 36.8366 50.6233 36.8727 50.7258 36.9113C50.8283 36.9499 50.9321 36.986 51.0346 37.0171C51.1371 37.0482 51.2434 37.0619 51.3523 37.0582C51.4092 37.0457 51.4459 37.0445 51.4611 37.0532C51.4775 37.0632 51.4864 37.0955 51.4889 37.1516L51.6028 39.8319C51.6066 39.9141 51.6206 39.9863 51.6471 40.0485C51.6737 40.112 51.7256 40.1668 51.8066 40.2141C51.8281 40.239 51.8294 40.2664 51.8104 40.2988C51.7699 40.3361 51.7357 40.3834 51.7066 40.4407C51.6775 40.498 51.6497 40.5552 51.6206 40.6125C51.5914 40.6698 51.5611 40.7245 51.5307 40.7768C51.4991 40.8291 51.4598 40.8714 51.4155 40.9038C51.294 40.9748 51.1738 40.9798 51.0574 40.9188C50.9612 40.8665 50.8853 40.8017 50.8271 40.7245C50.7688 40.6474 50.6992 40.5752 50.6195 40.5067C50.5917 40.4768 50.5904 40.4494 50.6157 40.422C50.6916 40.3672 50.7397 40.3087 50.76 40.244C50.7802 40.1793 50.7891 40.1033 50.7853 40.0162L50.6891 37.7566C50.6309 37.7491 50.5702 37.7242 50.5031 37.6832C50.436 37.6421 50.3588 37.5997 50.2715 37.5549C50.1842 37.5101 50.0829 37.4665 49.969 37.4254C49.8551 37.3844 49.726 37.3595 49.5805 37.3495C49.4501 37.3395 49.3704 37.3557 49.3413 37.3981C49.3122 37.4404 49.3135 37.4877 49.3476 37.54C49.3805 37.5923 49.44 37.6433 49.5261 37.6944C49.6121 37.7442 49.7045 37.7753 49.8032 37.7865L49.8007 37.789Z" fill="white"/>
<path d="M54.0363 39.4497L54.0198 38.7065C53.8945 38.6629 53.7579 38.6168 53.6111 38.5658C53.4643 38.5147 53.3124 38.4662 53.1555 38.4189C52.9985 38.3716 52.8441 38.3292 52.6935 38.2944C52.5417 38.2595 52.3987 38.2409 52.2633 38.2384C52.2367 38.2334 52.2088 38.216 52.1797 38.1823C52.1506 38.15 52.1557 38.0902 52.1949 38.0018C52.2645 37.8425 52.3392 37.6806 52.4177 37.5175C52.4974 37.3545 52.591 37.2088 52.6999 37.0781C52.8087 36.9486 52.9365 36.8415 53.0821 36.7594C53.2289 36.6772 53.3997 36.6386 53.5984 36.6448C53.7072 36.6473 53.8047 36.6598 53.8882 36.6809C53.9717 36.7021 54.0502 36.727 54.1236 36.7569C54.197 36.7868 54.2729 36.8191 54.3514 36.8552C54.4299 36.8913 54.5172 36.9274 54.6108 36.9611C54.6475 36.971 54.6779 36.9698 54.7007 36.9586C54.7235 36.9474 54.7349 36.9299 54.7349 36.9038C54.7349 36.8789 54.7184 36.8503 54.6868 36.8204C54.6551 36.7905 54.602 36.7606 54.5286 36.732C54.5387 36.6909 54.5526 36.6448 54.5729 36.5926C54.5931 36.5415 54.6159 36.493 54.6437 36.4494C54.6716 36.4058 54.707 36.371 54.75 36.3473C54.7931 36.3236 54.8437 36.3187 54.9019 36.3324C55.0006 36.361 55.0664 36.4145 55.0968 36.493C55.1272 36.5714 55.1322 36.6598 55.1145 36.7569C55.0968 36.854 55.0588 36.9573 55.0044 37.0656C54.95 37.1739 54.8867 37.2723 54.8159 37.3607C54.745 37.4491 54.6703 37.5225 54.5906 37.5798C54.5109 37.6371 54.44 37.6645 54.378 37.6607C54.2527 37.6483 54.1198 37.6072 53.9781 37.5387C53.8363 37.4702 53.6984 37.4105 53.5655 37.3594C53.4314 37.3084 53.3048 37.2847 53.1858 37.2872C53.0669 37.2897 52.9644 37.3557 52.8783 37.4852C52.8581 37.5014 52.834 37.5387 52.8062 37.5972C52.7783 37.657 52.7606 37.6993 52.7505 37.7255C52.8239 37.7292 52.9213 37.7466 53.0441 37.7765C53.1669 37.8064 53.2985 37.8437 53.4402 37.8873C53.582 37.9309 53.7237 37.9757 53.868 38.0242C54.0122 38.0728 54.1413 38.1151 54.2565 38.1537C54.4387 38.1911 54.5881 38.2085 54.702 38.206C54.7589 38.1948 54.7956 38.1935 54.8108 38.2035C54.826 38.2135 54.8348 38.2471 54.8361 38.3031L54.8639 39.5368C54.8639 39.5779 54.8652 39.624 54.8665 39.675C54.8665 39.7261 54.8728 39.7746 54.8817 39.8207C54.8905 39.8668 54.907 39.9053 54.931 39.939C54.9551 39.9713 54.993 39.99 55.0449 39.9937C55.0601 40.0037 55.069 40.0161 55.069 40.0311C55.069 40.046 55.0614 40.0597 55.0462 40.0697C55.0006 40.1058 54.9525 40.1693 54.9019 40.2564C54.8526 40.3448 54.7956 40.4344 54.7323 40.5241C54.6691 40.615 54.5994 40.6959 54.5235 40.7656C54.4476 40.8366 54.3577 40.8752 54.254 40.8826C54.1806 40.8889 54.1109 40.8677 54.0426 40.8179C53.9743 40.7681 53.9072 40.7034 53.8439 40.6224C53.7794 40.5428 53.7186 40.4556 53.6592 40.3622C53.5997 40.2689 53.544 40.1817 53.4896 40.1008C53.4782 40.0809 53.4794 40.0622 53.4921 40.0473C53.5048 40.0323 53.5263 40.0286 53.5579 40.0386C53.6933 40.0771 53.8072 40.0498 53.8996 39.9589C53.9907 39.868 54.0363 39.6962 54.0363 39.446V39.4497Z" fill="white"/>
<path d="M57.5305 37.2462C57.4369 37.22 57.3546 37.1989 57.2812 37.1839C57.2091 37.1677 57.142 37.164 57.0825 37.1715C57.023 37.179 56.9661 37.1989 56.9142 37.2325C56.8623 37.2661 56.8079 37.3196 56.7497 37.3968C56.6813 37.4777 56.6257 37.5674 56.5814 37.6645C56.5371 37.7616 56.5244 37.8562 56.5447 37.9483C56.5548 38.0205 56.5839 38.1002 56.6333 38.1898C56.6826 38.2795 56.7383 38.3753 56.8028 38.4787C56.8674 38.5808 56.9345 38.6916 57.0041 38.8098C57.0737 38.9281 57.1395 39.0476 57.2015 39.1709C57.2116 39.1858 57.2179 39.2007 57.2205 39.2132C57.223 39.2256 57.2293 39.2406 57.2395 39.2555C57.266 39.1895 57.2989 39.1173 57.3382 39.0414C57.3774 38.9654 57.4192 38.892 57.4635 38.8235C57.5078 38.755 57.552 38.6953 57.5963 38.6442C57.6406 38.5932 57.6811 38.5608 57.7178 38.5447C57.7748 38.5247 57.8368 38.5285 57.9013 38.5571C57.9659 38.5857 58.0304 38.6256 58.095 38.6766C58.1595 38.7277 58.2177 38.7862 58.2696 38.8497C58.3215 38.9144 58.3595 38.9742 58.386 39.0302C58.3911 39.0862 58.3759 39.1435 58.3417 39.202C58.3076 39.2605 58.2658 39.3153 58.2165 39.3663C58.1671 39.4174 58.1139 39.4622 58.0595 39.4995C58.0051 39.5381 57.9583 39.5643 57.9229 39.5792C57.8963 39.5991 57.8735 39.5941 57.8532 39.563C57.8482 39.517 57.8317 39.4659 57.8039 39.4099C57.776 39.3539 57.7419 39.3078 57.7026 39.2717C57.6634 39.2356 57.6242 39.2182 57.5824 39.2169C57.5407 39.2169 57.5014 39.2468 57.4647 39.3078C57.4495 39.3389 57.4293 39.3925 57.4052 39.4684C57.3812 39.5443 57.3609 39.6165 57.3458 39.6825C57.3496 39.8668 57.2762 40.0473 57.1243 40.2253C57.0775 40.2813 57.0205 40.3423 56.9522 40.4083C56.8838 40.4743 56.813 40.5378 56.737 40.5988C56.6611 40.6598 56.5826 40.7146 56.5029 40.7619C56.4219 40.8105 56.3447 40.8416 56.2726 40.8565C56.0701 40.8204 55.9423 40.7619 55.8879 40.6822C55.8334 40.6025 55.8183 40.5204 55.8423 40.4332C55.8663 40.3461 55.9132 40.2652 55.984 40.1892C56.0549 40.1133 56.1106 40.0597 56.1524 40.0286C56.1992 39.9726 56.2359 39.9552 56.2612 39.9751C56.2865 39.9963 56.2966 40.0261 56.2916 40.0672C56.2916 40.1282 56.3156 40.1842 56.365 40.2328C56.4143 40.2814 56.4662 40.3137 56.5206 40.3299C56.575 40.3461 56.6219 40.3423 56.6611 40.3187C56.7003 40.2963 56.7092 40.2415 56.6889 40.1544C56.6788 40.1033 56.6624 40.051 56.6396 39.9975C56.6168 39.944 56.5928 39.8967 56.5662 39.8556C56.4839 39.7074 56.389 39.5555 56.284 39.4024C56.1789 39.2493 56.084 39.0974 56.0018 38.9493C55.9195 38.8011 55.8613 38.6604 55.8284 38.5272C55.7955 38.394 55.8043 38.272 55.8575 38.16C55.8942 38.0579 55.9499 37.9496 56.0233 37.835C56.0967 37.7205 56.1751 37.6109 56.2587 37.5064C56.3422 37.4018 56.4194 37.3109 56.4903 37.2312C56.5611 37.1528 56.6092 37.1005 56.6358 37.0744C56.813 36.8963 56.9939 36.7706 57.1787 36.6972C57.3635 36.6237 57.5445 36.5926 57.7204 36.6038C57.8292 36.6038 57.9545 36.6237 58.0937 36.6635C58.2329 36.7034 58.3746 36.7445 58.5177 36.788C58.6607 36.8316 58.7999 36.8727 58.9378 36.9088C59.0758 36.9449 59.1985 36.9636 59.3074 36.9648C59.3694 36.9549 59.4073 36.9549 59.42 36.9648C59.4326 36.9748 59.439 37.0084 59.439 37.0644L59.4251 39.7473C59.4251 39.8294 59.4364 39.9016 59.4592 39.9664C59.482 40.0311 59.5326 40.0884 59.6098 40.1394C59.6402 40.1656 59.6402 40.193 59.6098 40.2241C59.5731 40.2602 59.5389 40.305 59.5073 40.3623C59.4757 40.4183 59.444 40.4743 59.4124 40.5303C59.3808 40.5864 59.3466 40.6399 59.3099 40.6909C59.2732 40.742 59.2314 40.7831 59.1846 40.8129C59.0694 40.8839 58.953 40.8839 58.834 40.8117C58.7417 40.7557 58.667 40.6872 58.6126 40.6075C58.5582 40.5278 58.4898 40.4519 58.4076 40.3809C58.3924 40.3448 58.3924 40.3175 58.4076 40.2963C58.486 40.2452 58.5366 40.188 58.5607 40.1245C58.5847 40.061 58.5961 39.9851 58.5974 39.8979L58.6088 37.6744C58.5252 37.6645 58.4417 37.6408 58.3557 37.6047C58.2696 37.5686 58.1848 37.53 58.0988 37.4889C58.0127 37.4479 57.9241 37.4055 57.8305 37.3607C57.7368 37.3171 57.6368 37.2798 57.5267 37.2487L57.5305 37.2462Z" fill="white"/>
<path d="M63.9912 37.4342C63.9114 37.4889 63.8595 37.5462 63.8342 37.606C63.8089 37.6657 63.795 37.7404 63.7925 37.8276L63.7621 38.892C63.8444 38.9293 63.919 38.9804 63.9874 39.0439C64.0557 39.1074 64.1152 39.1709 64.1645 39.2368C64.2152 39.3028 64.2557 39.3676 64.2873 39.4323C64.3189 39.497 64.343 39.5506 64.3569 39.5916C64.324 39.6676 64.2708 39.7722 64.2 39.9054C64.1278 40.0386 64.0506 40.1718 63.9658 40.305C63.8811 40.4382 63.795 40.5615 63.7064 40.6735C63.6178 40.7855 63.5381 40.8615 63.4698 40.9013C63.4115 40.9362 63.3508 40.9524 63.2888 40.9499C63.2268 40.9474 63.1787 40.9362 63.1458 40.915C63.1129 40.8939 63.0838 40.8652 63.0585 40.8279C63.0331 40.7905 63.0104 40.7482 62.9876 40.6996C62.9648 40.6511 62.9319 40.6001 62.8863 40.5478L62.9205 39.3526C62.7319 39.3937 62.5725 39.4846 62.4409 39.6277C62.3092 39.7697 62.1991 39.9191 62.108 40.0747C62.0182 40.2303 61.9448 40.376 61.8891 40.5092C61.8334 40.6436 61.7866 40.7221 61.7499 40.747C61.6967 40.7818 61.6271 40.8179 61.5398 40.8565C61.4525 40.8951 61.3765 40.9063 61.3095 40.8889C61.1386 40.854 60.9931 40.7868 60.8703 40.6884C60.7488 40.5901 60.6476 40.4843 60.5679 40.3697C60.4881 40.2552 60.4312 40.1407 60.3983 40.0274C60.3654 39.9141 60.3527 39.822 60.359 39.7498C60.378 39.6327 60.4173 39.5219 60.478 39.4161C60.5388 39.3103 60.6084 39.2082 60.6894 39.1111C60.7703 39.014 60.8526 38.9156 60.9349 38.8185C61.0171 38.7214 61.0931 38.6243 61.1576 38.5297C61.2335 38.4089 61.2715 38.2733 61.2702 38.1226C61.2702 37.972 61.2475 37.8338 61.2044 37.7068C61.1614 37.5798 61.1045 37.4827 61.0336 37.4142C60.9627 37.3458 60.8956 37.3358 60.8324 37.3856C60.7944 37.4155 60.7805 37.4541 60.7893 37.5026C60.7982 37.5512 60.8146 37.601 60.84 37.6495C60.864 37.6993 60.8944 37.7404 60.9298 37.7753C60.9652 37.8101 60.9906 37.8263 61.0057 37.8276C61.031 37.8338 61.0386 37.8487 61.0273 37.8736C61.0108 37.9097 60.9842 37.9533 60.9501 38.0056C60.9159 38.0579 60.8741 38.1077 60.8298 38.1512C60.7843 38.1961 60.7362 38.2284 60.6868 38.2471C60.6375 38.2658 60.5894 38.2645 60.5425 38.2434C60.5172 38.2322 60.4907 38.2098 60.4628 38.1761C60.435 38.1425 60.4084 38.1064 60.3844 38.0703C60.3603 38.0342 60.3388 37.9994 60.3211 37.9645C60.3034 37.9309 60.2958 37.911 60.2958 37.906C60.2907 37.8911 60.3084 37.8487 60.3464 37.7815C60.3844 37.713 60.4375 37.6321 60.5058 37.5362C60.5742 37.4416 60.6501 37.3408 60.7362 37.2362C60.8222 37.1316 60.9096 37.0333 60.9981 36.9449C61.0867 36.8565 61.1703 36.7806 61.25 36.7221C61.3297 36.6623 61.3955 36.6362 61.4474 36.6424C61.5613 36.6511 61.6638 36.6934 61.7562 36.7694C61.8486 36.8453 61.9258 36.9374 61.9903 37.0445C62.0549 37.1516 62.0992 37.2624 62.1245 37.3781C62.1498 37.4939 62.1536 37.5972 62.1346 37.6894C62.127 37.7765 62.0777 37.8823 61.9853 38.0068C61.8929 38.1326 61.7916 38.262 61.6777 38.3977C61.5651 38.5322 61.455 38.6679 61.35 38.8024C61.2449 38.9381 61.1728 39.0613 61.1336 39.1721C61.1019 39.3651 61.1196 39.5431 61.1892 39.7062C61.2576 39.8693 61.3727 40.0037 61.536 40.1108L61.8372 39.6439C61.8802 39.5792 61.9384 39.5082 62.0106 39.4335C62.0827 39.3588 62.1662 39.2866 62.2624 39.2182C62.3586 39.1497 62.4624 39.085 62.5763 39.024C62.6902 38.9629 62.8091 38.9169 62.9344 38.8845L62.9699 37.6433C62.9724 37.5624 62.9623 37.4889 62.9408 37.4242C62.9192 37.3595 62.8699 37.301 62.794 37.2474C62.7686 37.2163 62.7699 37.1877 62.7965 37.1628C62.8762 37.093 62.9445 37.0196 63.0015 36.9424C63.0584 36.8652 63.1344 36.7992 63.2293 36.7457C63.3508 36.6723 63.4698 36.676 63.5874 36.7557C63.633 36.7831 63.6722 36.8216 63.7051 36.8739C63.738 36.9262 63.7684 36.9822 63.7975 37.0408C63.8266 37.1005 63.857 37.159 63.8861 37.2163C63.9152 37.2736 63.9507 37.3209 63.9912 37.357C64.0165 37.3831 64.0152 37.4093 63.9886 37.4342H63.9912ZM63.9772 39.5817C63.9633 39.5406 63.9329 39.4871 63.8886 39.4223C63.8444 39.3576 63.7963 39.3041 63.7456 39.2617L63.7216 40.112C63.738 40.0822 63.7583 40.0411 63.7836 39.9913C63.8089 39.9415 63.833 39.8892 63.8583 39.8357C63.8836 39.7834 63.9064 39.7323 63.9291 39.6838C63.9507 39.6365 63.9684 39.6016 63.9785 39.5817H63.9772Z" fill="white"/>
<path d="M66.2376 37.5388C66.1566 37.5911 66.1034 37.6471 66.0769 37.7081C66.0503 37.7678 66.0351 37.8413 66.0313 37.9284L65.949 39.6203C65.9414 39.8705 65.9832 40.0423 66.0718 40.137C66.1604 40.2303 66.2768 40.2602 66.4186 40.2266C66.4451 40.2179 66.4654 40.2216 66.4806 40.2378C66.4958 40.254 66.4945 40.2714 66.478 40.2913C66.4224 40.371 66.3629 40.4557 66.3021 40.5478C66.2401 40.6399 66.1768 40.7246 66.1098 40.803C66.044 40.8814 65.9756 40.9449 65.906 40.9922C65.8364 41.0408 65.7643 41.0595 65.6921 41.0507C65.5934 41.0408 65.5061 40.9997 65.4289 40.9275C65.3517 40.8553 65.2834 40.7719 65.2226 40.6798C65.1619 40.5876 65.1074 40.4967 65.0606 40.4071C65.0125 40.3175 64.967 40.254 64.9214 40.2166C64.9062 40.2054 64.9012 40.193 64.9037 40.178C64.9062 40.1631 64.9138 40.1507 64.9252 40.1407C64.9771 40.1382 65.0163 40.1208 65.0416 40.0884C65.067 40.056 65.0847 40.0174 65.0935 39.9714C65.1037 39.9253 65.11 39.878 65.1125 39.827C65.115 39.7759 65.1176 39.7299 65.1188 39.6888L65.215 37.7292C65.2188 37.6483 65.2112 37.5749 65.191 37.5089C65.1707 37.4441 65.1226 37.3844 65.048 37.3296C65.029 37.3035 65.0303 37.2748 65.0518 37.245C65.1378 37.1777 65.2112 37.1055 65.2694 37.0283C65.3277 36.9524 65.4049 36.8877 65.501 36.8354C65.6238 36.7644 65.7402 36.7694 65.8516 36.8516C65.8971 36.8789 65.9364 36.92 65.9706 36.9723C66.0047 37.0246 66.0351 37.0819 66.0642 37.1416C66.092 37.2014 66.1212 37.2611 66.149 37.3184C66.1768 37.3757 66.2085 37.423 66.2439 37.4616C66.273 37.4939 66.273 37.5188 66.2401 37.5375L66.2376 37.5388Z" fill="white"/>
<path d="M67.8638 38.3393C67.8765 38.089 67.8398 37.9172 67.755 37.8251C67.6702 37.733 67.5563 37.6994 67.4145 37.7255C67.3829 37.7392 67.3601 37.7367 67.3487 37.7205C67.3361 37.7044 67.3361 37.6869 67.3487 37.667C67.4057 37.5886 67.4677 37.5039 67.5348 37.4105C67.6006 37.3172 67.6676 37.2338 67.736 37.1591C67.8031 37.0844 67.8727 37.0234 67.9435 36.9773C68.0144 36.9312 68.0827 36.9126 68.1511 36.9225C68.2549 36.935 68.3435 36.9773 68.4194 37.052C68.4953 37.1267 68.5611 37.2089 68.6168 37.2997C68.6725 37.3906 68.7244 37.4815 68.7699 37.5711C68.8155 37.6608 68.8611 37.728 68.9041 37.7716C68.9446 37.7952 68.942 37.8201 68.899 37.8475C68.8522 37.85 68.8142 37.8662 68.7864 37.8973C68.7585 37.9284 68.7383 37.967 68.7282 38.0131C68.7168 38.0579 68.7105 38.1052 68.7067 38.1538C68.7029 38.2023 68.7003 38.2471 68.6978 38.2882L68.6383 39.1597C68.7396 39.197 68.8484 39.2481 68.9636 39.3116C69.0787 39.3763 69.1901 39.4473 69.2964 39.5257C69.4027 39.6041 69.4989 39.6875 69.5837 39.7747C69.6685 39.8618 69.7318 39.9465 69.7735 40.0262L69.914 37.9994C69.9191 37.9185 69.914 37.845 69.8937 37.779C69.8735 37.7131 69.8279 37.6533 69.7545 37.5973C69.7305 37.5649 69.733 37.5375 69.7596 37.5126C69.8419 37.4466 69.914 37.3757 69.9735 37.2997C70.0329 37.225 70.1114 37.1616 70.2089 37.1118C70.3329 37.0433 70.4493 37.0508 70.5581 37.1354C70.6024 37.164 70.6417 37.2051 70.6746 37.2587C70.7075 37.3122 70.7366 37.3695 70.7644 37.4305C70.791 37.4915 70.8189 37.55 70.8454 37.6085C70.872 37.667 70.9049 37.7156 70.9441 37.7529C70.9631 37.7853 70.9606 37.8102 70.9391 37.8288C70.8581 37.8799 70.8024 37.9347 70.7758 37.9944C70.748 38.0542 70.7315 38.1276 70.7252 38.2135L70.5759 40.3772C70.5695 40.4644 70.5759 40.5403 70.5949 40.6051C70.6138 40.671 70.6607 40.7308 70.7341 40.7868C70.753 40.8142 70.7505 40.8416 70.7277 40.8715C70.6404 40.9375 70.5556 41.0122 70.4746 41.0968C70.3936 41.1815 70.3038 41.2475 70.2076 41.2973C70.176 41.311 70.138 41.3147 70.0975 41.3097C70.057 41.3047 70.014 41.291 69.9709 41.2711C69.9279 41.2499 69.8861 41.2275 69.8469 41.2014C69.8064 41.1753 69.7748 41.1516 69.7507 41.1292C69.7014 41.0856 69.6571 41.0035 69.6153 40.8864C69.5736 40.7682 69.5166 40.6362 69.4432 40.4905C69.3698 40.3449 69.2686 40.1942 69.1382 40.0399C69.0079 39.8855 68.8307 39.7461 68.6041 39.6241L68.5219 40.8167C68.427 40.9126 68.3384 40.9972 68.2587 41.0719C68.1777 41.1454 68.0777 41.179 67.9587 41.1715C67.8967 41.1678 67.8385 41.1454 67.7841 41.1055C67.7195 41.0607 67.6385 40.9823 67.5424 40.8702C67.4462 40.7594 67.3513 40.6325 67.2601 40.4905C67.169 40.3486 67.0868 40.2042 67.0172 40.056C66.9463 39.9079 66.902 39.7772 66.8843 39.6626C66.902 39.6228 66.9425 39.573 67.0032 39.5133C67.064 39.4535 67.1374 39.3937 67.2222 39.3365C67.307 39.278 67.4019 39.2257 67.5057 39.1784C67.6107 39.1311 67.7132 39.1012 67.8132 39.0875L67.8651 38.338L67.8638 38.3393ZM67.7993 39.4958C67.7777 39.4996 67.7461 39.512 67.7031 39.5319C67.6601 39.5518 67.6158 39.5755 67.5689 39.6004C67.5234 39.6253 67.4816 39.6514 67.4462 39.6763C67.4107 39.7012 67.3867 39.7249 67.3753 39.7448C67.3892 39.7759 67.412 39.8232 67.4436 39.8842C67.4753 39.9452 67.5107 40.0075 67.5474 40.0722C67.5841 40.1357 67.6208 40.1992 67.655 40.2602C67.6892 40.3212 67.717 40.3685 67.7347 40.3997L67.7967 39.4971L67.7993 39.4958Z" fill="white"/>
<path d="M70.9605 36.1593C70.858 36.3311 70.7504 36.4544 70.6403 36.5291C70.5302 36.605 70.4341 36.6287 70.3531 36.6025C70.2974 36.5826 70.2278 36.5303 70.143 36.4469C70.0595 36.3635 69.9607 36.2739 69.8494 36.1768C69.738 36.0796 69.6127 35.99 69.4735 35.9041C69.3343 35.8182 69.1812 35.7585 69.0116 35.7248C68.899 35.6999 68.8281 35.7062 68.799 35.7423C68.7699 35.7784 68.7686 35.8244 68.7952 35.8805C68.8218 35.9365 68.8711 35.9913 68.942 36.046C69.0129 36.1008 69.0939 36.1394 69.1862 36.1618C69.2014 36.168 69.204 36.1817 69.1951 36.2004C69.1862 36.2203 69.171 36.2427 69.1508 36.2664C69.1305 36.29 69.1078 36.3125 69.0825 36.3336C69.0571 36.3548 69.042 36.3697 69.0356 36.3797C68.9749 36.4257 68.899 36.4569 68.8091 36.473C68.7192 36.4892 68.6307 36.4818 68.5446 36.4519C68.4585 36.422 68.3826 36.3685 68.3155 36.2913C68.2485 36.2141 68.2092 36.1033 68.1953 35.9589C68.3877 35.7087 68.5813 35.5256 68.7724 35.4136C68.9635 35.3016 69.1521 35.2393 69.3356 35.2281C69.347 35.1522 69.3799 35.0874 69.4343 35.0326C69.4887 34.9779 69.557 34.9542 69.6393 34.9604C69.7114 34.9716 69.7709 34.9916 69.8177 35.0214C69.8646 35.0513 69.9127 35.0887 69.9607 35.1335C69.9848 35.1659 69.9835 35.1945 69.9582 35.2181C69.9329 35.2418 69.919 35.2667 69.9164 35.2916L69.9089 35.375C69.9532 35.3987 70.005 35.436 70.0633 35.4833C70.1215 35.5319 70.1721 35.5779 70.2164 35.6228L70.2278 35.4933C70.2379 35.3663 70.2771 35.2555 70.3455 35.1609C70.4138 35.0663 70.5062 35.0264 70.6252 35.0414C70.7289 35.0551 70.8238 35.1061 70.9137 35.1957C71.0023 35.2854 71.0808 35.3626 71.1478 35.4298C71.1655 35.4622 71.163 35.4895 71.1402 35.5132C71.0808 35.5493 71.0428 35.5829 71.0301 35.6115C71.0175 35.6414 71.0061 35.7074 70.9985 35.8082L70.9732 36.1133C70.9719 36.1332 70.9681 36.1494 70.9618 36.1581L70.9605 36.1593Z" fill="white"/>
<path d="M72.9766 39.4858C72.9196 39.4286 72.8576 39.4261 72.7893 39.4759C72.7222 39.5257 72.6564 39.5954 72.5931 39.685C72.5298 39.7746 72.4754 39.8693 72.4324 39.9701C72.3881 40.0709 72.364 40.1444 72.3602 40.1905C72.3602 40.2988 72.3931 40.4009 72.459 40.4967C72.5248 40.5926 72.607 40.6785 72.7045 40.7544C72.8006 40.8304 72.9082 40.8914 73.0272 40.9387C73.1449 40.986 73.2524 41.0171 73.3512 41.0308C73.4689 41.052 73.5878 41.0607 73.708 41.0569C73.8283 41.0532 73.9358 41.0271 74.0295 40.9798L74.2737 38.4849C74.1915 38.4675 74.0915 38.4338 73.97 38.3865C73.8498 38.3392 73.7245 38.2894 73.5967 38.2359C73.4689 38.1824 73.341 38.1288 73.2132 38.0728C73.0854 38.0168 72.969 37.9695 72.8639 37.9284C72.7083 37.8674 72.583 37.8313 72.4906 37.8201C72.3982 37.8089 72.3311 37.8139 72.2894 37.8363C72.2476 37.8587 72.2299 37.8898 72.2375 37.9309C72.2438 37.9732 72.2666 38.0168 72.3071 38.0641C72.3463 38.1114 72.3982 38.1562 72.4628 38.1985C72.526 38.2409 72.5969 38.2708 72.6728 38.2882C72.6931 38.2957 72.6969 38.3093 72.6842 38.3318C72.6716 38.3542 72.6551 38.3766 72.6349 38.4002C72.6146 38.4239 72.5906 38.4475 72.5653 38.4712C72.5399 38.4948 72.521 38.511 72.5096 38.5197C72.4425 38.5646 72.3615 38.5944 72.2666 38.6081C72.1717 38.6218 72.078 38.6131 71.9869 38.582C71.8958 38.5509 71.8161 38.4924 71.7452 38.4089C71.6743 38.3255 71.6313 38.2085 71.6148 38.0579C71.8641 37.7479 72.1185 37.5375 72.3767 37.4254C72.6349 37.3134 72.8804 37.2736 73.112 37.3059C73.2208 37.3159 73.3613 37.3483 73.5334 37.403C73.7055 37.4578 73.8852 37.5163 74.0725 37.5773C74.2598 37.6383 74.4395 37.6956 74.6116 37.7479C74.7838 37.8002 74.9242 37.8313 75.0331 37.8413C75.0913 37.8363 75.1267 37.84 75.1419 37.8512C75.1571 37.8624 75.1609 37.8973 75.1558 37.9533L74.8293 41.2873C74.8243 41.3433 74.8129 41.3756 74.7964 41.3844C74.78 41.3931 74.7433 41.3893 74.6876 41.3744C74.5787 41.3644 74.4383 41.3682 74.2636 41.3881C74.089 41.408 73.9093 41.4304 73.7245 41.4566C73.5397 41.4827 73.3588 41.5064 73.1854 41.5288C73.0107 41.5512 72.869 41.5562 72.7614 41.5462C72.5906 41.535 72.4374 41.4952 72.3033 41.4254C72.1691 41.3557 72.0514 41.2748 71.9515 41.1802C71.8515 41.0856 71.768 40.9835 71.7034 40.8714C71.6389 40.7594 71.5921 40.6573 71.5655 40.5615C71.5313 40.4345 71.5262 40.3187 71.5528 40.2141C71.5718 40.1182 71.6224 39.9938 71.7022 39.8394C71.7819 39.685 71.8768 39.5369 71.9844 39.3925C72.0919 39.2493 72.2084 39.1273 72.3337 39.0289C72.4577 38.9306 72.5741 38.8907 72.6817 38.9119C72.7272 38.9219 72.7779 38.9455 72.831 38.9841C72.8842 39.0227 72.9361 39.0675 72.9867 39.1186C73.036 39.1696 73.0854 39.2244 73.1348 39.2829C73.1841 39.3414 73.2284 39.3987 73.2702 39.4535C73.3398 39.5418 73.3955 39.6277 73.436 39.7112C73.4765 39.7946 73.4992 39.878 73.5018 39.9601C73.5043 40.0423 73.484 40.1207 73.4397 40.1967C73.3955 40.2726 73.3233 40.3461 73.2221 40.4183C73.1866 40.4046 73.1436 40.3772 73.093 40.3374C73.0424 40.2963 72.9943 40.2515 72.95 40.2004C72.9057 40.1494 72.8627 40.0971 72.8247 40.0423C72.7855 39.9875 72.7602 39.944 72.7475 39.9116C72.7399 39.8854 72.7412 39.863 72.75 39.8469C72.7601 39.8294 72.7779 39.822 72.8032 39.8244C72.8867 39.7759 72.9449 39.7199 72.9804 39.6564C73.0145 39.5929 73.0145 39.5369 72.9778 39.4871L72.9766 39.4858Z" fill="white"/>
<path d="M78.1678 37.8536C78.2602 37.8698 78.3412 37.9022 78.4108 37.9482C78.4804 37.9956 78.5386 38.0466 78.5842 38.1001C78.6297 38.1549 78.6664 38.2047 78.6955 38.2483C78.7246 38.2931 78.7424 38.323 78.7512 38.3404L78.3298 41.703C78.3222 41.759 78.3108 41.7914 78.2944 41.7989C78.2779 41.8076 78.2412 41.8026 78.1868 41.7852C78.0742 41.7665 77.9691 41.7702 77.8717 41.7976C77.7742 41.825 77.6793 41.8524 77.5869 41.8823C77.4831 41.9209 77.387 41.9532 77.2996 41.9781C77.2123 42.0043 77.1123 42.0092 76.9984 41.9955C76.8187 41.9731 76.639 41.886 76.4619 41.7341C76.2847 41.581 76.1277 41.398 75.9936 41.1826C75.8582 40.9685 75.7557 40.7406 75.6861 40.5004C75.6165 40.2601 75.6013 40.0447 75.6418 39.8543C75.6658 39.7447 75.7228 39.6202 75.8101 39.4808C75.8987 39.3426 75.9885 39.2243 76.0822 39.1272C76.1758 39.0301 76.253 38.9741 76.3151 38.9591C76.3771 38.943 76.3897 39.0027 76.3517 39.1372C76.3113 39.2505 76.2948 39.3874 76.3049 39.548C76.3138 39.7086 76.3404 39.8767 76.3872 40.0522C76.4327 40.2277 76.4948 40.402 76.5732 40.5763C76.6504 40.7506 76.739 40.905 76.8365 41.0407C76.9339 41.1764 77.0427 41.2859 77.1604 41.3693C77.2781 41.4528 77.3996 41.4926 77.5262 41.4864L77.8691 38.7475C77.8755 38.6965 77.8717 38.6529 77.8577 38.6155C77.8438 38.5782 77.8261 38.5458 77.8033 38.5197C77.7805 38.4935 77.7565 38.4761 77.7312 38.4649C77.7059 38.4537 77.6856 38.45 77.6704 38.4537C77.6084 38.4462 77.5603 38.4612 77.5274 38.4985C77.4945 38.5359 77.4755 38.5819 77.4705 38.6379C77.4654 38.694 77.4781 38.7537 77.5072 38.816C77.5363 38.8782 77.5793 38.9342 77.635 38.9828C77.6654 38.9865 77.6742 39.0002 77.6616 39.0251C77.6464 39.065 77.6198 39.1085 77.5819 39.1583C77.5439 39.2081 77.5009 39.2529 77.4515 39.2928C77.4022 39.3326 77.3515 39.3625 77.2996 39.3824C77.2478 39.4023 77.1997 39.3986 77.1554 39.3725C77.1263 39.3588 77.0959 39.3314 77.0668 39.2928C77.0377 39.2529 77.0136 39.2131 76.9959 39.172C76.9769 39.1309 76.963 39.0936 76.9516 39.0587C76.9402 39.0239 76.9352 39.004 76.9364 38.999C76.9326 38.9828 76.9541 38.943 76.9984 38.8795C77.0427 38.816 77.1009 38.74 77.1718 38.6529C77.2427 38.5657 77.325 38.4736 77.4186 38.374C77.5123 38.2744 77.6059 38.186 77.6995 38.1064C77.7932 38.0279 77.8805 37.9619 77.9641 37.9109C78.0476 37.8599 78.1159 37.8387 78.1716 37.8511L78.1678 37.8536Z" fill="white"/>
<path d="M49.1957 46.0779C49.1463 46.0642 49.102 46.053 49.0628 46.0455C49.0236 46.0368 48.9894 46.0355 48.9578 46.0393C48.9261 46.043 48.897 46.0542 48.8692 46.0716C48.8413 46.0891 48.8122 46.1189 48.7819 46.1588C48.7464 46.2023 48.7161 46.2497 48.6933 46.3007C48.6692 46.3517 48.6642 46.4028 48.6743 46.4513C48.6794 46.4899 48.6958 46.5323 48.7224 46.5796C48.749 46.6269 48.7793 46.6779 48.8135 46.7327C48.8477 46.7875 48.8844 46.8447 48.9211 46.9082C48.9578 46.9717 48.9932 47.034 49.0261 47.0999C49.0312 47.1074 49.035 47.1161 49.0362 47.1224C49.0375 47.1298 49.0413 47.1373 49.0464 47.1448C49.0603 47.1099 49.0767 47.0713 49.0982 47.0302C49.1185 46.9892 49.1413 46.9506 49.1641 46.9145C49.1881 46.8784 49.2109 46.846 49.2349 46.8186C49.2577 46.7912 49.2792 46.7738 49.2995 46.7663C49.3298 46.7551 49.3615 46.7576 49.3969 46.7725C49.4311 46.7875 49.4653 46.8086 49.5007 46.836C49.5349 46.8634 49.5665 46.8933 49.5931 46.9282C49.6209 46.9618 49.6412 46.9941 49.6551 47.024C49.6576 47.0539 49.65 47.085 49.6323 47.1161C49.6146 47.1473 49.5918 47.1759 49.5665 47.2033C49.5399 47.2307 49.5133 47.2543 49.4842 47.2742C49.4551 47.2942 49.4311 47.3091 49.4121 47.3166C49.3982 47.3278 49.3855 47.3253 49.3754 47.3091C49.3729 47.2842 49.364 47.2581 49.3488 47.2282C49.3336 47.1983 49.3159 47.1734 49.2957 47.1547C49.2754 47.1361 49.2539 47.1261 49.2311 47.1261C49.2083 47.1261 49.1881 47.1423 49.1691 47.1746C49.1603 47.1908 49.1501 47.2195 49.1387 47.2605C49.1274 47.3016 49.116 47.339 49.1084 47.3751C49.1109 47.4734 49.0729 47.5693 48.9919 47.6639C48.9666 47.6938 48.9363 47.7262 48.9008 47.761C48.8654 47.7959 48.8262 47.8307 48.7869 47.8631C48.7477 47.8955 48.7059 47.9253 48.6629 47.9502C48.6199 47.9751 48.5794 47.9926 48.5414 48.0013C48.4338 47.9826 48.3655 47.9515 48.3364 47.9092C48.3073 47.8668 48.2984 47.8233 48.3111 47.7772C48.3237 47.7311 48.3478 47.6876 48.3857 47.6465C48.4237 47.6054 48.4528 47.5768 48.4743 47.5606C48.4996 47.5307 48.5186 47.5207 48.5325 47.5319C48.5465 47.5431 48.5515 47.5593 48.549 47.5805C48.549 47.6129 48.5617 47.6427 48.5882 47.6676C48.6148 47.6938 48.6414 47.71 48.6705 47.7187C48.6996 47.7262 48.7249 47.7249 48.7452 47.7125C48.7654 47.7 48.7705 47.6714 48.7591 47.6253C48.754 47.5979 48.7452 47.5705 48.7325 47.5419C48.7198 47.5133 48.7072 47.4884 48.6933 47.4672C48.649 47.3888 48.5984 47.3079 48.5427 47.2269C48.4857 47.146 48.4364 47.0651 48.3921 46.9867C48.3478 46.9082 48.3174 46.8335 48.2984 46.7626C48.2807 46.6916 48.2858 46.6269 48.3136 46.5671C48.3326 46.5123 48.3617 46.4551 48.4009 46.3941C48.4389 46.3331 48.4807 46.2746 48.525 46.2185C48.5692 46.1625 48.6097 46.114 48.6464 46.0716C48.6831 46.0293 48.7085 46.0019 48.7224 45.9882C48.816 45.8936 48.9122 45.8264 49.0097 45.7865C49.1071 45.7467 49.2033 45.7305 49.2969 45.7355C49.3552 45.7355 49.421 45.7455 49.4956 45.7654C49.5703 45.7853 49.645 45.8077 49.7209 45.8301C49.7968 45.8538 49.8715 45.8737 49.9436 45.8936C50.017 45.9123 50.0828 45.9222 50.1398 45.9222C50.1727 45.9173 50.1929 45.9173 50.1993 45.9222C50.2056 45.9272 50.2094 45.9459 50.2094 45.9758V47.4012C50.2094 47.4448 50.2157 47.4834 50.2284 47.517C50.241 47.5506 50.2676 47.5817 50.3094 47.6091C50.3258 47.6228 50.3258 47.6378 50.3094 47.654C50.2904 47.6726 50.2727 47.6975 50.255 47.7274C50.2385 47.7573 50.222 47.7872 50.2056 47.817C50.1891 47.8469 50.1714 47.8756 50.1512 47.9029C50.1322 47.9303 50.1094 47.9515 50.0854 47.9677C50.0246 48.005 49.9626 48.005 49.8993 47.9677C49.85 47.9378 49.8107 47.9017 49.7816 47.8594C49.7525 47.817 49.7158 47.7772 49.6715 47.7386C49.6627 47.7199 49.6627 47.705 49.6715 47.6938C49.7133 47.6664 49.7399 47.6365 49.7525 47.6017C49.7652 47.568 49.7715 47.5282 49.7715 47.4821V46.3007C49.7272 46.2957 49.6829 46.2833 49.6374 46.2646C49.5918 46.2459 49.5462 46.2248 49.5007 46.2036C49.4551 46.1824 49.407 46.16 49.3577 46.1364C49.3083 46.114 49.2539 46.094 49.1957 46.0779Z" fill="white"/>
<path d="M50.6434 47.6664C50.6826 47.6154 50.7219 47.5656 50.7611 47.5183C50.8016 47.471 50.8333 47.4399 50.8586 47.4262C50.8775 47.4175 50.9054 47.4237 50.9408 47.4448C50.9763 47.4648 51.0117 47.4909 51.0459 47.522C51.08 47.5532 51.1104 47.5855 51.137 47.6179C51.1636 47.6503 51.1762 47.6739 51.1762 47.6876C51.1762 47.7038 51.1699 47.7262 51.156 47.7524C51.142 47.7785 51.1256 47.8071 51.1041 47.8358C51.0838 47.8644 51.061 47.8918 51.0357 47.9167C51.0104 47.9416 50.9876 47.9615 50.9649 47.9752C50.9396 47.9939 50.913 48.0013 50.8839 47.9976C50.8548 47.9939 50.8269 47.9839 50.7991 47.9677C50.7712 47.9515 50.7447 47.9316 50.7181 47.9067C50.6915 47.8818 50.6687 47.8582 50.6497 47.8333C50.6194 47.7984 50.6029 47.771 50.6004 47.7536C50.5979 47.7362 50.6118 47.7063 50.6422 47.6664H50.6434Z" fill="white"/>
<path d="M52.3533 46.0778C52.3039 46.0641 52.2596 46.0529 52.2204 46.0454C52.1812 46.0367 52.147 46.0355 52.1154 46.0392C52.0837 46.0429 52.0533 46.0541 52.0268 46.0716C52.0002 46.089 51.9698 46.1189 51.9394 46.1587C51.904 46.2023 51.8736 46.2496 51.8509 46.3006C51.8281 46.3517 51.8217 46.4027 51.8319 46.4513C51.8369 46.4899 51.8534 46.5322 51.88 46.5795C51.9065 46.6268 51.9369 46.6779 51.9711 46.7326C52.0053 46.7874 52.0419 46.8447 52.0786 46.9082C52.1166 46.9704 52.1508 47.0339 52.1837 47.0999C52.1862 47.1074 52.1888 47.1161 52.1926 47.1223C52.1951 47.1298 52.1989 47.1372 52.2052 47.1447C52.2191 47.1099 52.2356 47.0713 52.2571 47.0302C52.2786 46.9891 52.3001 46.9505 52.3229 46.9144C52.3457 46.8783 52.3697 46.8459 52.3938 46.8185C52.4166 46.7912 52.4381 46.7737 52.4583 46.7663C52.4887 46.7551 52.5203 46.7575 52.5558 46.7725C52.5899 46.7874 52.6241 46.8086 52.6595 46.836C52.6937 46.8634 52.7253 46.8932 52.7532 46.9281C52.781 46.9617 52.8013 46.9941 52.8152 47.024C52.8177 47.0538 52.8101 47.085 52.7924 47.1161C52.7747 47.1472 52.7519 47.1758 52.7266 47.2032C52.7 47.2306 52.6722 47.2543 52.6431 47.2742C52.614 47.2941 52.5899 47.3091 52.5709 47.3165C52.557 47.3277 52.5444 47.3252 52.533 47.3091C52.5304 47.2842 52.5216 47.258 52.5064 47.2281C52.4912 47.1982 52.4735 47.1734 52.452 47.1547C52.4317 47.136 52.4102 47.126 52.3874 47.126C52.3647 47.126 52.3444 47.1422 52.3254 47.1746C52.3178 47.1908 52.3065 47.2194 52.2951 47.2605C52.2837 47.3016 52.2723 47.3389 52.2647 47.375C52.2672 47.4734 52.2293 47.5692 52.1483 47.6639C52.1229 47.6937 52.0926 47.7261 52.0571 47.761C52.0217 47.7958 51.9825 47.8307 51.9432 47.863C51.904 47.8954 51.8622 47.9253 51.8192 47.9502C51.7762 47.9763 51.7357 47.9925 51.6965 48.0012C51.5889 47.9826 51.5205 47.9514 51.4914 47.9091C51.4623 47.8668 51.4547 47.8232 51.4661 47.7771C51.4775 47.7311 51.5028 47.6875 51.5408 47.6464C51.5788 47.6053 51.6079 47.5767 51.6294 47.5605C51.6547 47.5307 51.6737 47.5207 51.6876 47.5319C51.7015 47.5431 51.7066 47.5593 51.704 47.5804C51.704 47.6128 51.7167 47.6427 51.7433 47.6676C51.7699 47.6925 51.7977 47.7099 51.8255 47.7186C51.8546 47.7261 51.88 47.7249 51.9002 47.7124C51.9205 47.7 51.9255 47.6713 51.9154 47.6253C51.9103 47.5979 51.9002 47.5705 51.8888 47.5419C51.8774 47.5132 51.8635 47.4883 51.8496 47.4672C51.8053 47.3887 51.7547 47.3078 51.699 47.2269C51.642 47.146 51.5927 47.065 51.5484 46.9866C51.5041 46.9082 51.4737 46.8335 51.456 46.7625C51.4383 46.6916 51.4421 46.6268 51.4712 46.5671C51.4902 46.5123 51.5193 46.455 51.5585 46.394C51.5977 46.333 51.6382 46.2745 51.6825 46.2185C51.7268 46.1625 51.7673 46.1139 51.804 46.0716C51.8407 46.0293 51.8673 46.0019 51.88 45.9882C51.9736 45.8936 52.0698 45.8263 52.1672 45.7865C52.2647 45.7466 52.3609 45.7305 52.4545 45.7354C52.5102 45.7354 52.5735 45.7454 52.6443 45.7641C52.7165 45.7828 52.7912 45.8039 52.8684 45.8251C52.943 45.8251 53.019 45.8126 53.0961 45.789C53.1733 45.7641 53.2442 45.7342 53.3088 45.6969C53.3733 45.6607 53.4277 45.6197 53.472 45.5748C53.5163 45.53 53.5442 45.4852 53.5555 45.4379C53.5606 45.4105 53.5441 45.3968 53.5062 45.3968C53.4923 45.3943 53.4847 45.3831 53.4809 45.3645C53.4783 45.3458 53.4809 45.3321 53.4847 45.3234C53.51 45.3072 53.5378 45.291 53.5695 45.2748C53.6011 45.2586 53.634 45.2437 53.6694 45.23C53.7036 45.2163 53.7365 45.2051 53.7694 45.1976C53.8011 45.1889 53.8276 45.1852 53.8504 45.1852C53.8783 45.1852 53.8998 45.1951 53.9162 45.2163C53.9327 45.2362 53.9453 45.2611 53.9529 45.2898C53.9618 45.3184 53.9656 45.347 53.9681 45.3769C53.9681 45.4068 53.9681 45.4317 53.9656 45.4504C53.9403 45.5288 53.8947 45.5973 53.8289 45.6545C53.7631 45.7118 53.6872 45.7591 53.6011 45.7964C53.515 45.8338 53.4252 45.8637 53.3315 45.8836C53.2379 45.9035 53.1531 45.9184 53.0797 45.9259C53.1189 45.9371 53.1569 45.9458 53.1961 45.9521C53.2354 45.9583 53.2695 45.962 53.2999 45.962C53.3328 45.957 53.3531 45.957 53.3594 45.962C53.3657 45.967 53.3695 45.9857 53.3695 46.0156V47.3999C53.3695 47.4435 53.3758 47.4821 53.3885 47.5157C53.4011 47.5493 53.4277 47.5804 53.4695 47.6078C53.4859 47.6215 53.4859 47.6365 53.4695 47.6527C53.4505 47.6713 53.4328 47.6962 53.4151 47.7261C53.3986 47.756 53.3822 47.7859 53.3657 47.8157C53.3493 47.8456 53.3315 47.8743 53.3113 47.9016C53.2923 47.929 53.2695 47.9502 53.2455 47.9664C53.1847 48.0037 53.1227 48.0037 53.0594 47.9664C53.0101 47.9365 52.9709 47.9004 52.9418 47.8581C52.9126 47.8157 52.8759 47.7759 52.8317 47.7373C52.8241 47.7186 52.8241 47.7037 52.8317 47.6925C52.8734 47.6651 52.9 47.6352 52.9126 47.6004C52.9253 47.5668 52.9316 47.5269 52.9316 47.4809V46.2994C52.8873 46.2944 52.843 46.282 52.7975 46.2633C52.7519 46.2446 52.7064 46.2235 52.6608 46.2023C52.6152 46.1811 52.5672 46.1587 52.5178 46.1351C52.4684 46.1127 52.414 46.0927 52.3558 46.0766L52.3533 46.0778Z" fill="white"/>
<path d="M53.7897 47.6664C53.8289 47.6154 53.8681 47.5656 53.9074 47.5183C53.9479 47.471 53.9795 47.4399 54.0048 47.4262C54.0238 47.4175 54.0516 47.4237 54.0871 47.4448C54.1225 47.4648 54.1579 47.4909 54.1921 47.522C54.2263 47.5532 54.2566 47.5855 54.2832 47.6179C54.3098 47.6503 54.3225 47.6739 54.3225 47.6876C54.3225 47.7038 54.3161 47.7262 54.3022 47.7524C54.2883 47.7785 54.2718 47.8071 54.2503 47.8358C54.2301 47.8644 54.2073 47.8918 54.182 47.9167C54.1567 47.9416 54.1339 47.9615 54.1111 47.9752C54.0858 47.9939 54.0592 48.0013 54.0301 47.9976C54.001 47.9939 53.9732 47.9839 53.9453 47.9677C53.9175 47.9515 53.8909 47.9316 53.8643 47.9067C53.8377 47.8818 53.815 47.8582 53.796 47.8333C53.7656 47.7984 53.7492 47.771 53.7466 47.7536C53.7441 47.7362 53.758 47.7063 53.7884 47.6664H53.7897Z" fill="white"/>
<path d="M56.6536 46.79C56.6941 46.836 56.7359 46.8808 56.7789 46.9207C56.8232 46.9618 56.8675 46.9941 56.9118 47.0178C56.9574 47.0414 57.0016 47.0539 57.0447 47.0551C57.089 47.0564 57.1269 47.0414 57.1598 47.0091C57.1852 46.9916 57.1965 46.9705 57.1953 46.9468C57.194 46.9232 57.1839 46.9008 57.1674 46.8796C57.151 46.8584 57.1307 46.8398 57.108 46.8236C57.0839 46.8074 57.0675 46.7999 57.0561 46.7999C57.0383 46.7962 57.0308 46.7887 57.0346 46.7788C57.0459 46.7576 57.0637 46.7327 57.089 46.7065C57.1143 46.6804 57.1434 46.6555 57.1763 46.6343C57.2092 46.6132 57.2434 46.5957 57.2801 46.5833C57.3168 46.5708 57.3484 46.5696 57.3775 46.5808C57.3952 46.5883 57.4155 46.602 57.4345 46.6206C57.4547 46.6406 57.4724 46.6617 57.4889 46.6854C57.5053 46.709 57.5193 46.7302 57.5294 46.7501C57.5408 46.77 57.5458 46.7812 57.5458 46.785C57.5534 46.7962 57.5281 46.8323 57.4699 46.8945C57.4117 46.9568 57.3396 47.0253 57.2548 47.0987C57.1687 47.1722 57.0814 47.2369 56.9928 47.2942C56.9042 47.3514 56.8295 47.3801 56.7726 47.3801C56.7144 47.3838 56.6536 47.3738 56.5903 47.3502C56.5271 47.3265 56.4651 47.2917 56.4056 47.2431C56.3461 47.1946 56.2904 47.1348 56.2398 47.0638C56.1892 46.9929 56.1474 46.912 56.1145 46.8223C56.1221 46.7153 56.1563 46.5995 56.2183 46.4762C56.2803 46.353 56.3613 46.2409 56.4613 46.1388C56.5612 46.0368 56.6739 45.9534 56.7992 45.8874C56.9245 45.8214 57.051 45.7903 57.1776 45.794C57.3041 45.794 57.4319 45.8114 57.5585 45.8475C57.685 45.8836 57.8015 45.9397 57.9078 46.0168C58.0128 46.094 58.1039 46.1924 58.1799 46.3119C58.2558 46.4314 58.309 46.5771 58.3381 46.7489C58.3596 46.8846 58.3482 47.0116 58.3026 47.1298C58.2571 47.2481 58.1913 47.3552 58.1039 47.451C58.0166 47.5469 57.9154 47.6328 57.7989 47.7087C57.6825 47.7847 57.5648 47.8469 57.4446 47.8967C57.3358 47.9428 57.2219 47.9739 57.1042 47.9876C56.9865 48.0013 56.87 48.0038 56.7549 47.9926C56.641 47.9814 56.5296 47.959 56.422 47.9253C56.3145 47.8917 56.2157 47.8482 56.1246 47.7946C56.1094 47.7548 56.1246 47.7237 56.1689 47.6988C56.2094 47.6739 56.2474 47.6403 56.2866 47.5967C56.3246 47.5544 56.36 47.5145 56.3929 47.4784C56.4182 47.4386 56.4499 47.4236 56.4853 47.4299C56.522 47.4373 56.5524 47.4498 56.5777 47.4672C56.6764 47.5382 56.7726 47.5917 56.8662 47.6278C56.9612 47.6639 57.075 47.6851 57.2092 47.6925C57.275 47.6888 57.3421 47.6788 57.4142 47.6602C57.4851 47.6427 57.5522 47.6141 57.6154 47.5743C57.6787 47.5344 57.7331 47.4846 57.7762 47.4211C57.8205 47.3589 57.8432 47.283 57.847 47.1933C57.8546 47.0539 57.8306 46.9169 57.7736 46.78C57.7167 46.6443 57.6433 46.5248 57.5522 46.4202C57.461 46.3169 57.3611 46.2322 57.2522 46.1687C57.1434 46.104 57.0383 46.0754 56.9358 46.0828C56.8738 46.0903 56.8181 46.109 56.7701 46.1388C56.7207 46.1687 56.6789 46.2098 56.6422 46.2596C56.5663 46.3629 56.5347 46.46 56.5473 46.5497C56.56 46.6393 56.5954 46.719 56.6536 46.7912V46.79Z" fill="white"/>
<path d="M60.3047 47.4435C60.2895 47.4074 60.2616 47.3439 60.2199 47.2506C60.1781 47.1572 60.1275 47.0539 60.0705 46.9393C60.0123 46.8248 59.9478 46.7127 59.8769 46.6019C59.806 46.4911 59.7339 46.4015 59.6592 46.3343C59.5846 46.2671 59.5124 46.2297 59.4441 46.2247C59.3745 46.2198 59.3137 46.2671 59.2593 46.3667C59.2049 46.4488 59.1644 46.5484 59.1391 46.6642C59.1138 46.78 59.11 46.8833 59.1277 46.9729C59.1568 47.1236 59.2163 47.2493 59.3049 47.3514C59.3935 47.4535 59.4745 47.5369 59.5479 47.6004C59.5884 47.6365 59.6276 47.6577 59.6681 47.6651C59.7086 47.6726 59.7428 47.6614 59.7719 47.6328C59.7972 47.6191 59.8073 47.5992 59.8022 47.5743C59.7972 47.5494 59.7845 47.5257 59.7668 47.502C59.7491 47.4784 59.7263 47.4585 59.701 47.441C59.6757 47.4236 59.6567 47.4137 59.6466 47.4137C59.6251 47.4137 59.6187 47.4062 59.6301 47.3925C59.6415 47.3751 59.658 47.3527 59.682 47.3253C59.7061 47.2979 59.7326 47.2742 59.7643 47.2531C59.7959 47.2319 59.8275 47.2145 59.863 47.202C59.8972 47.1896 59.9288 47.1883 59.9579 47.1995C59.9756 47.207 59.9971 47.2207 60.0199 47.2394C60.044 47.2593 60.0655 47.2804 60.0857 47.3041C60.106 47.3278 60.1199 47.3539 60.13 47.3825C60.1389 47.4112 60.1401 47.4361 60.1325 47.4572C60.1148 47.5033 60.0756 47.5593 60.0148 47.624C59.9554 47.6888 59.887 47.7485 59.8111 47.8033C59.7352 47.8593 59.658 47.9054 59.582 47.9428C59.5061 47.9801 59.4416 47.9975 59.3909 47.9938C59.3251 47.9901 59.2555 47.9664 59.1809 47.9241C59.1062 47.8818 59.0366 47.8257 58.9708 47.7585C58.905 47.6913 58.8493 47.6128 58.8025 47.5257C58.7556 47.4386 58.7265 47.3502 58.7151 47.2605C58.7113 47.2033 58.7215 47.1273 58.7455 47.0327C58.7696 46.9381 58.8025 46.836 58.8467 46.7264C58.8898 46.6169 58.9404 46.5073 58.9986 46.3965C59.0568 46.2857 59.1176 46.1861 59.1809 46.099C59.2441 46.0118 59.3061 45.9396 59.3656 45.8849C59.4251 45.8301 59.4808 45.8039 59.5314 45.8077C59.6871 45.794 59.8288 45.8288 59.9541 45.9147C60.0794 46.0006 60.1908 46.1114 60.2895 46.2471C60.3034 46.2397 60.33 46.2297 60.3679 46.2148C60.4059 46.2011 60.4464 46.1836 60.4882 46.1637C60.5299 46.1438 60.5666 46.1239 60.597 46.1015C60.6274 46.0803 60.6426 46.0567 60.6426 46.0318C60.621 45.9857 60.5945 45.9384 60.5641 45.8898C60.5337 45.8413 60.5046 45.7927 60.4768 45.7429C60.4489 45.6931 60.4261 45.6421 60.4059 45.5898C60.3857 45.5375 60.3755 45.4852 60.3755 45.4317C60.3755 45.3819 60.3819 45.3321 60.3945 45.2848C60.4072 45.2362 60.4261 45.1927 60.4515 45.1541C60.4768 45.1155 60.5059 45.0831 60.5388 45.0582C60.5717 45.0333 60.6097 45.0209 60.6527 45.0209C60.6995 45.0209 60.7438 45.0333 60.7843 45.0582C60.8248 45.0831 60.8615 45.1142 60.8957 45.1491C60.9298 45.1852 60.9627 45.2226 60.9944 45.2611C61.026 45.2997 61.0551 45.3346 61.0842 45.3632C61.1019 45.3807 61.1019 45.4006 61.0842 45.4217C61.0298 45.4578 60.9944 45.4977 60.9779 45.5425C60.9615 45.5873 60.9539 45.6384 60.9539 45.6956V45.9371C60.9501 46.0803 60.8969 46.1886 60.7957 46.2621C60.6932 46.3355 60.5654 46.3916 60.4084 46.4314C60.5097 46.5957 60.597 46.7638 60.6666 46.9356C60.7375 47.1074 60.797 47.2481 60.8438 47.3589C60.8615 47.4049 60.8881 47.4473 60.9197 47.4846C60.9526 47.522 61.0032 47.5556 61.0728 47.5842C61.0944 47.5954 61.102 47.6104 61.0944 47.6328C61.0766 47.6539 61.0627 47.6801 61.0539 47.71C61.045 47.7398 61.0361 47.7722 61.0285 47.8071C61.021 47.8407 61.0121 47.8718 60.9994 47.9004C60.9868 47.9291 60.9678 47.9527 60.9425 47.9701C60.8767 48.0125 60.7932 48.0125 60.6919 47.9701C60.6122 47.9378 60.5438 47.8992 60.4869 47.8519C60.4299 47.8046 60.3641 47.7622 60.2882 47.7236C60.2705 47.7062 60.2642 47.69 60.2718 47.6751C60.3123 47.6465 60.3325 47.6128 60.3338 47.5755C60.335 47.5381 60.3262 47.4958 60.3034 47.4498L60.3047 47.4435Z" fill="white"/>
<path d="M61.9613 47.2879C61.9866 47.324 62.0221 47.3639 62.0676 47.4087C62.1132 47.4535 62.1638 47.4946 62.2208 47.5319C62.2777 47.5693 62.3347 47.5992 62.3929 47.6203C62.4511 47.6415 62.5042 47.6477 62.5511 47.6365C62.5688 47.6291 62.589 47.6228 62.6105 47.6178C62.6321 47.6129 62.6548 47.6066 62.6764 47.5992C62.6359 47.5058 62.6169 47.3938 62.6169 47.2618C62.6574 47.1796 62.6991 47.1049 62.7422 47.0389C62.7865 46.973 62.8345 46.912 62.889 46.8572C62.9434 46.8024 63.0041 46.7501 63.0712 46.7016C63.1383 46.653 63.2155 46.6057 63.3028 46.5596C63.3471 46.5484 63.3927 46.5497 63.442 46.5621C63.4914 46.5746 63.5369 46.5945 63.5812 46.6207C63.6255 46.648 63.6635 46.6804 63.6964 46.7202C63.7293 46.7601 63.7508 46.8012 63.7622 46.8435C63.7736 46.8796 63.7559 46.9244 63.7103 46.9779C63.6647 47.0315 63.6116 47.0726 63.5496 47.1012C63.5382 47.1049 63.5243 47.1087 63.5053 47.1149C63.4863 47.1211 63.4686 47.1224 63.4509 47.1224C63.4331 47.1224 63.4154 47.1211 63.399 47.1174C63.3825 47.1136 63.3724 47.1049 63.3686 47.09C63.361 47.0726 63.361 47.0601 63.3661 47.0526C63.3711 47.0452 63.3686 47.0327 63.3585 47.0153C63.337 46.9755 63.318 46.9481 63.3015 46.9319C63.2851 46.9157 63.2686 46.9008 63.2496 46.8858C63.2167 46.8647 63.1876 46.8559 63.1598 46.8622C63.1319 46.8684 63.1079 46.8796 63.0864 46.8995C63.0649 46.9194 63.0446 46.9418 63.0269 46.9692C63.0092 46.9966 62.994 47.0215 62.9826 47.0464C63.0079 47.1398 63.0446 47.2244 63.0915 47.3016C63.1383 47.3788 63.1927 47.4411 63.2547 47.4896C63.3167 47.5382 63.3825 47.5681 63.4534 47.5805C63.5243 47.593 63.5926 47.583 63.6584 47.5506C63.6799 47.5357 63.7052 47.5357 63.7343 47.5506C63.7635 47.5656 63.7748 47.5867 63.7673 47.6154C63.7343 47.715 63.6787 47.7959 63.6015 47.8569C63.523 47.9179 63.4319 47.9639 63.3256 47.9963C63.2054 47.9888 63.1028 47.9677 63.018 47.9316C62.9333 47.8955 62.8624 47.8494 62.808 47.7921C62.7637 47.8133 62.7105 47.8357 62.6472 47.8594C62.584 47.883 62.5182 47.9054 62.4511 47.9266C62.384 47.9478 62.3182 47.9652 62.2549 47.9776C62.1916 47.9901 62.1398 47.9963 62.0993 47.9963C61.8373 47.9104 61.6538 47.8046 61.5462 47.6776C61.4386 47.5506 61.3855 47.4099 61.3855 47.2568C61.3855 47.1385 61.4108 47.0165 61.4614 46.8896C61.5121 46.7626 61.5791 46.6331 61.6627 46.5011C61.7753 46.3293 61.8942 46.1812 62.0195 46.0567C62.1448 45.9322 62.2625 45.8475 62.3714 45.8052H63.4015C63.3838 45.7766 63.361 45.7467 63.3357 45.7168C63.3104 45.6869 63.2851 45.6558 63.2623 45.6235C63.2395 45.5911 63.218 45.5587 63.2028 45.5263C63.1864 45.494 63.1775 45.4616 63.1775 45.4305C63.1775 45.3807 63.1838 45.3309 63.1965 45.2836C63.2091 45.235 63.2269 45.1915 63.2509 45.1529C63.275 45.1143 63.3041 45.0819 63.3382 45.057C63.3724 45.0321 63.4116 45.0197 63.4559 45.0197C63.5028 45.0197 63.5458 45.0321 63.5837 45.057C63.6217 45.0819 63.6584 45.113 63.6926 45.1479C63.7268 45.184 63.7597 45.2213 63.7913 45.2599C63.8217 45.2998 63.8533 45.3334 63.8862 45.362C63.9001 45.3832 63.9001 45.4031 63.8862 45.4205C63.8318 45.4566 63.7951 45.4965 63.7774 45.5413C63.7597 45.5861 63.7495 45.6371 63.7495 45.6944C63.7419 45.7554 63.7141 45.8226 63.6647 45.8961C63.6154 45.9695 63.561 46.0368 63.499 46.0965C63.4369 46.1575 63.3762 46.2086 63.3167 46.2521C63.2572 46.2957 63.2129 46.3169 63.1838 46.3169H62.1537C62.1069 46.3169 62.0562 46.3455 62.0044 46.4028C61.9525 46.4601 61.9018 46.5273 61.855 46.607C61.8297 46.6493 61.8145 46.7003 61.8095 46.7601C61.8044 46.8186 61.8069 46.8796 61.817 46.9418C61.8284 47.0041 61.8462 47.0663 61.8715 47.1273C61.8968 47.1883 61.9284 47.2431 61.9639 47.2929L61.9613 47.2879Z" fill="white"/>
<path d="M64.7797 47.2879C64.805 47.324 64.8404 47.3639 64.886 47.4087C64.9315 47.4535 64.9822 47.4946 65.0391 47.5319C65.0961 47.5693 65.153 47.5992 65.2112 47.6203C65.2694 47.6415 65.3226 47.6477 65.3694 47.6365C65.3871 47.6291 65.4074 47.6228 65.4289 47.6178C65.4504 47.6129 65.4732 47.6066 65.4947 47.5992C65.4542 47.5058 65.4352 47.3938 65.4352 47.2618C65.4757 47.1796 65.5175 47.1049 65.5605 47.0389C65.6048 46.973 65.6529 46.912 65.7073 46.8572C65.7617 46.8024 65.8225 46.7501 65.8896 46.7016C65.9566 46.653 66.0338 46.6057 66.1212 46.5596C66.1655 46.5484 66.211 46.5497 66.2604 46.5621C66.3097 46.5746 66.3553 46.5945 66.3996 46.6207C66.4439 46.648 66.4818 46.6804 66.5147 46.7202C66.5477 46.7601 66.5692 46.8012 66.5805 46.8435C66.5919 46.8796 66.5742 46.9244 66.5287 46.9779C66.4831 47.0315 66.43 47.0726 66.3679 47.1012C66.3565 47.1049 66.3426 47.1087 66.3236 47.1149C66.3047 47.1211 66.2869 47.1224 66.2692 47.1224C66.2515 47.1224 66.2338 47.1211 66.2173 47.1174C66.2009 47.1136 66.1908 47.1049 66.187 47.09C66.1794 47.0726 66.1794 47.0601 66.1844 47.0526C66.1895 47.0452 66.187 47.0327 66.1768 47.0153C66.1553 46.9755 66.1363 46.9481 66.1199 46.9319C66.1034 46.9157 66.087 46.9008 66.068 46.8858C66.0351 46.8647 66.006 46.8559 65.9781 46.8622C65.9503 46.8684 65.9263 46.8796 65.9048 46.8995C65.8832 46.9194 65.863 46.9418 65.8453 46.9692C65.8276 46.9966 65.8124 47.0215 65.801 47.0464C65.8263 47.1398 65.863 47.2244 65.9098 47.3016C65.9566 47.3788 66.0111 47.4411 66.0731 47.4896C66.1351 47.5382 66.2009 47.5681 66.2718 47.5805C66.3426 47.593 66.411 47.583 66.4768 47.5506C66.4983 47.5357 66.5236 47.5357 66.5527 47.5506C66.5818 47.5656 66.5932 47.5867 66.5856 47.6154C66.5527 47.715 66.497 47.7959 66.4198 47.8569C66.3414 47.9179 66.2502 47.9639 66.1439 47.9963C66.0237 47.9888 65.9212 47.9677 65.8364 47.9316C65.7516 47.8955 65.6808 47.8494 65.6263 47.7921C65.582 47.8133 65.5289 47.8357 65.4656 47.8594C65.4023 47.883 65.3365 47.9054 65.2694 47.9266C65.2024 47.9478 65.1366 47.9652 65.0733 47.9776C65.01 47.9901 64.9581 47.9963 64.9176 47.9963C64.6557 47.9104 64.4722 47.8046 64.3646 47.6776C64.257 47.5506 64.2039 47.4099 64.2039 47.2568C64.2039 47.1385 64.2292 47.0165 64.2798 46.8896C64.3304 46.7626 64.3975 46.6331 64.481 46.5011C64.5936 46.3293 64.7126 46.1812 64.8379 46.0567C64.9632 45.9322 65.0809 45.8475 65.1897 45.8052H66.2199C66.2022 45.7766 66.1794 45.7467 66.1541 45.7168C66.1288 45.6869 66.1034 45.6558 66.0807 45.6235C66.0579 45.5911 66.0364 45.5587 66.0212 45.5263C66.0047 45.494 65.9959 45.4616 65.9959 45.4305C65.9959 45.3807 66.0022 45.3309 66.0149 45.2836C66.0275 45.235 66.0452 45.1915 66.0693 45.1529C66.0933 45.1143 66.1224 45.0819 66.1566 45.057C66.1908 45.0321 66.23 45.0197 66.2743 45.0197C66.3211 45.0197 66.3641 45.0321 66.4021 45.057C66.4401 45.0819 66.4768 45.113 66.5109 45.1479C66.5451 45.184 66.578 45.2213 66.6097 45.2599C66.64 45.2998 66.6717 45.3334 66.7046 45.362C66.7185 45.3832 66.7185 45.4031 66.7046 45.4205C66.6502 45.4566 66.6135 45.4965 66.5957 45.5413C66.578 45.5861 66.5679 45.6371 66.5679 45.6944C66.5603 45.7554 66.5325 45.8226 66.4831 45.8961C66.4338 45.9695 66.3793 46.0368 66.3173 46.0965C66.2553 46.1575 66.1946 46.2086 66.1351 46.2521C66.0756 46.2957 66.0313 46.3169 66.0022 46.3169H64.972C64.9252 46.3169 64.8746 46.3455 64.8227 46.4028C64.7708 46.4601 64.7202 46.5273 64.6734 46.607C64.6481 46.6493 64.6329 46.7003 64.6278 46.7601C64.6228 46.8186 64.6253 46.8796 64.6354 46.9418C64.6468 47.0041 64.6645 47.0663 64.6898 47.1273C64.7151 47.1883 64.7468 47.2431 64.7822 47.2929L64.7797 47.2879Z" fill="white"/>
</svg>
