<svg width="142" height="25" viewBox="0 0 142 25" fill="none" xmlns="http://www.w3.org/2000/svg">
<path d="M137.238 22.2948C137.338 22.9981 136.906 23.3095 136.273 22.988L131.039 20.3557C130.406 20.0342 129.381 20.0342 128.748 20.3557L123.493 22.9478C122.86 23.2593 122.428 22.9478 122.539 22.2445L123.433 16.4574C123.543 15.7641 123.222 14.7795 122.73 14.2771L118.65 10.0573C118.158 9.55496 118.329 9.04255 119.022 8.93203L124.799 7.9876C125.493 7.87708 126.337 7.27425 126.658 6.64128L129.381 1.45694C129.712 0.834015 130.245 0.834015 130.566 1.45694L133.249 6.66137C133.57 7.2843 134.404 7.89718 135.098 8.01774L140.865 9.01241C141.558 9.13298 141.719 9.64538 141.226 10.1377L137.107 14.2972C136.615 14.7996 136.283 15.7742 136.384 16.4775L137.228 22.2747L137.238 22.2948Z" fill="url(#paint0_radial_520_138)"/>
<path style="mix-blend-mode:multiply" opacity="0.5" d="M129.974 1.29625C130.084 1.29625 130.205 1.41682 130.305 1.60771L132.988 6.81215C133.349 7.5255 134.254 8.18861 135.047 8.31922L140.814 9.31389C141.036 9.35408 141.186 9.43446 141.216 9.53493C141.247 9.6354 141.176 9.79615 141.015 9.94686L136.896 14.1064C136.333 14.6791 135.982 15.734 136.102 16.5278L136.946 22.325C136.976 22.5159 136.946 22.6766 136.886 22.757C136.876 22.767 136.836 22.8173 136.725 22.8173C136.635 22.8173 136.524 22.7871 136.404 22.7269L131.169 20.0945C130.818 19.9137 130.365 19.8232 129.883 19.8232C129.401 19.8232 128.959 19.9137 128.617 20.0845L123.363 22.6766C123.242 22.7369 123.131 22.767 123.041 22.767C122.931 22.767 122.89 22.7168 122.88 22.7068C122.81 22.6264 122.79 22.4757 122.82 22.2747L123.714 16.4876C123.835 15.6938 123.493 14.6288 122.941 14.0562L118.851 9.86649C118.701 9.70573 118.62 9.54498 118.66 9.4445C118.691 9.34403 118.841 9.25361 119.062 9.22347L124.839 8.27903C125.623 8.14842 126.537 7.49535 126.909 6.79205L129.632 1.60771C129.732 1.41682 129.863 1.29625 129.974 1.29625ZM129.974 1.00488C129.763 1.00488 129.542 1.16564 129.381 1.4771L126.658 6.66144C126.326 7.28436 125.493 7.88719 124.799 8.00776L119.022 8.95219C118.329 9.06271 118.158 9.57512 118.65 10.0775L122.74 14.2772C123.232 14.7796 123.543 15.7642 123.443 16.4574L122.549 22.2446C122.468 22.757 122.679 23.0685 123.051 23.0685C123.182 23.0685 123.332 23.0283 123.503 22.9479L128.758 20.3557C129.069 20.205 129.481 20.1246 129.893 20.1246C130.305 20.1246 130.737 20.205 131.049 20.3658L136.283 22.9981C136.454 23.0785 136.605 23.1187 136.735 23.1187C137.107 23.1187 137.318 22.8173 137.238 22.3049L136.394 16.5077C136.293 15.8144 136.615 14.8298 137.117 14.3274L141.236 10.1679C141.729 9.66554 141.568 9.16318 140.875 9.04262L135.108 8.04795C134.414 7.92738 133.581 7.3145 133.259 6.69158L130.576 1.48715C130.416 1.17568 130.205 1.01493 129.984 1.01493L129.974 1.00488Z" fill="url(#paint1_radial_520_138)"/>
<path d="M78.2941 22.2947C78.3946 22.988 77.9625 23.2994 77.3296 22.988L72.095 20.3556C71.462 20.0341 70.4372 20.0341 69.8042 20.3456L64.5496 22.9377C63.9166 23.2492 63.4846 22.9377 63.5951 22.2344L64.4893 16.4473C64.5998 15.754 64.2783 14.7694 63.786 14.257L59.7068 10.0573C59.2145 9.55492 59.3853 9.04252 60.0786 8.932L65.8557 7.98756C66.549 7.87704 67.3929 7.27421 67.7144 6.65129L70.4372 1.46695C70.7688 0.844025 71.3013 0.844025 71.6228 1.46695L74.3054 6.67138C74.6269 7.29431 75.4608 7.90719 76.154 8.02775L81.9211 9.02242C82.6144 9.14299 82.7751 9.64535 82.2828 10.1477L78.1635 14.3072C77.6712 14.8096 77.3396 15.7842 77.4401 16.4875L78.284 22.2847L78.2941 22.2947Z" fill="url(#paint2_radial_520_138)"/>
<path style="mix-blend-mode:multiply" opacity="0.5" d="M71.03 1.286C71.1405 1.286 71.2611 1.40656 71.3615 1.60751L74.0441 6.81194C74.4058 7.52529 75.3101 8.17836 76.1038 8.31902L81.8709 9.31369C82.0919 9.35388 82.2426 9.43425 82.2728 9.53472C82.3029 9.6352 82.2326 9.79595 82.0718 9.94666L77.9525 14.1062C77.3899 14.6688 77.0382 15.7338 77.1588 16.5276L78.0027 22.3248C78.0329 22.5157 78.0027 22.6764 77.9424 22.7468C77.9324 22.7568 77.8922 22.807 77.7817 22.807C77.6913 22.807 77.5807 22.7769 77.4602 22.7166L72.2256 20.0843C71.874 19.9135 71.4218 19.813 70.9396 19.813C70.4573 19.813 70.0152 19.9034 69.6736 20.0742L64.419 22.6664C64.2984 22.7267 64.1879 22.7568 64.0974 22.7568C63.9869 22.7568 63.9467 22.7166 63.9367 22.6965C63.8664 22.6161 63.8463 22.4554 63.8764 22.2645L64.7706 16.4773C64.8912 15.6936 64.5496 14.6186 63.997 14.056L59.9078 9.85623C59.7571 9.69548 59.6767 9.54477 59.7169 9.4443C59.747 9.34383 59.8977 9.2534 60.1188 9.22326L65.8959 8.27883C66.6796 8.14821 67.5939 7.49515 67.9656 6.79185L70.6884 1.60751C70.7889 1.40656 70.9195 1.29604 71.03 1.29604M71.03 1.00468C70.819 1.00468 70.598 1.15538 70.4372 1.46685L67.7144 6.65119C67.3829 7.27411 66.549 7.87694 65.8557 7.98746L60.0786 8.93189C59.3853 9.04241 59.2145 9.55482 59.7068 10.0572L63.796 14.2468C64.2883 14.7492 64.5998 15.7338 64.4993 16.4371L63.6051 22.2243C63.5248 22.7367 63.7357 23.0482 64.1075 23.0482C64.2381 23.0482 64.3888 23.008 64.5596 22.9276L69.8143 20.3354C70.1257 20.1847 70.5377 20.1043 70.9496 20.1043C71.3615 20.1043 71.7936 20.1847 72.105 20.3455L77.3396 22.9778C77.5104 23.0582 77.6611 23.0984 77.7917 23.0984C78.1635 23.0984 78.3745 22.797 78.2941 22.2846L77.4501 16.4874C77.3497 15.7941 77.6712 14.8095 78.1735 14.3071L82.2929 10.1476C82.7852 9.64524 82.6244 9.14288 81.9312 9.02232L76.1641 8.02765C75.4708 7.90708 74.6369 7.2942 74.3154 6.67128L71.6328 1.46685C71.4721 1.15538 71.2611 0.994629 71.04 0.994629L71.03 1.00468Z" fill="url(#paint3_radial_520_138)"/>
<g clip-path="url(#clip0_520_138)">
<path d="M107.766 22.2947C107.866 22.988 107.434 23.2994 106.801 22.988L101.567 20.3556C100.934 20.0341 99.9091 20.0341 99.2762 20.3456L94.0215 22.9377C93.3885 23.2492 92.9565 22.9377 93.067 22.2344L93.9612 16.4473C94.0717 15.754 93.7502 14.7694 93.2579 14.257L89.1788 10.0573C88.6864 9.55492 88.8572 9.04252 89.5505 8.932L95.3276 7.98756C96.0209 7.87704 96.8648 7.27421 97.1863 6.65129L99.9091 1.46695C100.241 0.844025 100.773 0.844025 101.095 1.46695L103.777 6.67138C104.099 7.29431 104.933 7.90719 105.626 8.02775L111.393 9.02242C112.086 9.14299 112.247 9.64535 111.755 10.1477L107.635 14.3072C107.143 14.8096 106.812 15.7842 106.912 16.4875L107.756 22.2847L107.766 22.2947Z" fill="url(#paint4_radial_520_138)"/>
<path style="mix-blend-mode:multiply" opacity="0.5" d="M100.502 1.286C100.612 1.286 100.733 1.40656 100.833 1.60751L103.516 6.81194C103.878 7.52529 104.782 8.17836 105.576 8.31902L111.343 9.31369C111.564 9.35388 111.715 9.43425 111.745 9.53472C111.775 9.6352 111.705 9.79595 111.544 9.94666L107.424 14.1062C106.862 14.6688 106.51 15.7338 106.631 16.5276L107.475 22.3248C107.505 22.5157 107.475 22.6764 107.414 22.7468C107.404 22.7568 107.364 22.807 107.254 22.807C107.163 22.807 107.053 22.7769 106.932 22.7166L101.698 20.0843C101.346 19.9135 100.894 19.813 100.411 19.813C99.9292 19.813 99.4872 19.9034 99.1455 20.0742L93.8909 22.6664C93.7703 22.7267 93.6598 22.7568 93.5694 22.7568C93.4589 22.7568 93.4187 22.7166 93.4086 22.6965C93.3383 22.6161 93.3182 22.4554 93.3483 22.2645L94.2425 16.4773C94.3631 15.6936 94.0215 14.6186 93.4689 14.056L89.3797 9.85623C89.229 9.69548 89.1486 9.54477 89.1888 9.4443C89.2189 9.34383 89.3697 9.2534 89.5907 9.22326L95.3678 8.27883C96.1515 8.14821 97.0658 7.49515 97.4375 6.79185L100.16 1.60751C100.261 1.40656 100.391 1.29604 100.502 1.29604M100.502 1.00468C100.291 1.00468 100.07 1.15538 99.9091 1.46685L97.1864 6.65119C96.8548 7.27411 96.0209 7.87694 95.3276 7.98746L89.5505 8.93189C88.8572 9.04241 88.6864 9.55482 89.1788 10.0572L93.268 14.2468C93.7603 14.7492 94.0717 15.7338 93.9713 16.4371L93.0771 22.2243C92.9967 22.7367 93.2077 23.0482 93.5794 23.0482C93.71 23.0482 93.8607 23.008 94.0315 22.9276L99.2862 20.3354C99.5977 20.1847 100.01 20.1043 100.422 20.1043C100.833 20.1043 101.266 20.1847 101.577 20.3455L106.812 22.9778C106.982 23.0582 107.133 23.0984 107.264 23.0984C107.635 23.0984 107.846 22.797 107.766 22.2846L106.922 16.4874C106.822 15.7941 107.143 14.8095 107.645 14.3071L111.765 10.1476C112.257 9.64524 112.096 9.14288 111.403 9.02232L105.636 8.02765C104.943 7.90708 104.109 7.2942 103.787 6.67128L101.105 1.46685C100.944 1.15538 100.733 0.994629 100.512 0.994629L100.502 1.00468Z" fill="url(#paint5_radial_520_138)"/>
</g>
<g clip-path="url(#clip1_520_138)">
<path d="M48.8224 22.2947C48.9229 22.988 48.4909 23.2994 47.8579 22.988L42.6233 20.3556C41.9903 20.0341 40.9655 20.0341 40.3326 20.3456L35.0779 22.9377C34.4449 23.2492 34.0129 22.9377 34.1234 22.2344L35.0176 16.4473C35.1281 15.754 34.8066 14.7694 34.3143 14.257L30.2352 10.0573C29.7428 9.55492 29.9136 9.04252 30.6069 8.932L36.384 7.98756C37.0773 7.87704 37.9212 7.27421 38.2427 6.65129L40.9655 1.46695C41.2971 0.844025 41.8296 0.844025 42.1511 1.46695L44.8337 6.67138C45.1552 7.29431 45.9891 7.90719 46.6824 8.02775L52.4494 9.02242C53.1427 9.14299 53.3034 9.64535 52.8111 10.1477L48.6918 14.3072C48.1995 14.8096 47.8679 15.7842 47.9684 16.4875L48.8124 22.2847L48.8224 22.2947Z" fill="url(#paint6_radial_520_138)"/>
<path style="mix-blend-mode:multiply" opacity="0.5" d="M41.5583 1.286C41.6688 1.286 41.7894 1.40656 41.8899 1.60751L44.5725 6.81194C44.9342 7.52529 45.8384 8.17836 46.6321 8.31902L52.3992 9.31369C52.6202 9.35388 52.771 9.43425 52.8011 9.53472C52.8312 9.6352 52.7609 9.79595 52.6002 9.94666L48.4808 14.1062C47.9182 14.6688 47.5665 15.7338 47.6871 16.5276L48.531 22.3248C48.5612 22.5157 48.531 22.6764 48.4708 22.7468C48.4607 22.7568 48.4205 22.807 48.31 22.807C48.2196 22.807 48.1091 22.7769 47.9885 22.7166L42.7539 20.0843C42.4023 19.9135 41.9502 19.813 41.4679 19.813C40.9856 19.813 40.5435 19.9034 40.2019 20.0742L34.9473 22.6664C34.8267 22.7267 34.7162 22.7568 34.6258 22.7568C34.5152 22.7568 34.4751 22.7166 34.465 22.6965C34.3947 22.6161 34.3746 22.4554 34.4047 22.2645L35.2989 16.4773C35.4195 15.6936 35.0779 14.6186 34.5253 14.056L30.4361 9.85623C30.2854 9.69548 30.205 9.54477 30.2452 9.4443C30.2753 9.34383 30.4261 9.2534 30.6471 9.22326L36.4242 8.27883C37.2079 8.14821 38.1222 7.49515 38.4939 6.79185L41.2167 1.60751C41.3172 1.40656 41.4478 1.29604 41.5583 1.29604M41.5583 1.00468C41.3473 1.00468 41.1263 1.15538 40.9655 1.46685L38.2427 6.65119C37.9112 7.27411 37.0773 7.87694 36.384 7.98746L30.6069 8.93189C29.9136 9.04241 29.7428 9.55482 30.2352 10.0572L34.3244 14.2468C34.8167 14.7492 35.1281 15.7338 35.0277 16.4371L34.1335 22.2243C34.0531 22.7367 34.2641 23.0482 34.6358 23.0482C34.7664 23.0482 34.9171 23.008 35.0879 22.9276L40.3426 20.3354C40.6541 20.1847 41.066 20.1043 41.4779 20.1043C41.8899 20.1043 42.3219 20.1847 42.6334 20.3455L47.8679 22.9778C48.0387 23.0582 48.1894 23.0984 48.3201 23.0984C48.6918 23.0984 48.9028 22.797 48.8224 22.2846L47.9785 16.4874C47.878 15.7941 48.1995 14.8095 48.7018 14.3071L52.8212 10.1476C53.3135 9.64524 53.1527 9.14288 52.4595 9.02232L46.6924 8.02765C45.9992 7.90708 45.1652 7.2942 44.8437 6.67128L42.1611 1.46685C42.0004 1.15538 41.7894 0.994629 41.5684 0.994629L41.5583 1.00468Z" fill="url(#paint7_radial_520_138)"/>
</g>
<path d="M19.3507 22.2947C19.4512 22.988 19.0192 23.2994 18.3862 22.988L13.1516 20.3556C12.5187 20.0341 11.4938 20.0341 10.8609 20.3456L5.60621 22.9377C4.97324 23.2492 4.54121 22.9377 4.65173 22.2344L5.54593 16.4473C5.65645 15.754 5.33494 14.7694 4.84262 14.257L0.763474 10.0573C0.271163 9.55492 0.441965 9.04252 1.13522 8.932L6.91234 7.98756C7.6056 7.87704 8.44956 7.27421 8.77107 6.65129L11.4938 1.46695C11.8254 0.844025 12.3579 0.844025 12.6794 1.46695L15.362 6.67138C15.6835 7.29431 16.5174 7.90719 17.2107 8.02775L22.9778 9.02242C23.671 9.14299 23.8318 9.64535 23.3395 10.1477L19.2201 14.3072C18.7278 14.8096 18.3963 15.7842 18.4967 16.4875L19.3407 22.2847L19.3507 22.2947Z" fill="url(#paint8_radial_520_138)"/>
<path style="mix-blend-mode:multiply" opacity="0.5" d="M12.0866 1.286C12.1972 1.286 12.3177 1.40656 12.4182 1.60751L15.1008 6.81194C15.4625 7.52529 16.3667 8.17836 17.1605 8.31902L22.9275 9.31369C23.1486 9.35388 23.2993 9.43425 23.3294 9.53472C23.3596 9.6352 23.2892 9.79595 23.1285 9.94666L19.0091 14.1062C18.4465 14.6688 18.0948 15.7338 18.2154 16.5276L19.0594 22.3248C19.0895 22.5157 19.0594 22.6764 18.9991 22.7468C18.989 22.7568 18.9489 22.807 18.8383 22.807C18.7479 22.807 18.6374 22.7769 18.5168 22.7166L13.2822 20.0843C12.9306 19.9135 12.4785 19.813 11.9962 19.813C11.5139 19.813 11.0719 19.9034 10.7303 20.0742L5.4756 22.6664C5.35503 22.7267 5.24451 22.7568 5.15409 22.7568C5.04357 22.7568 5.00338 22.7166 4.99333 22.6965C4.923 22.6161 4.90291 22.4554 4.93305 22.2645L5.82725 16.4773C5.94781 15.6936 5.60621 14.6186 5.05362 14.056L0.964418 9.85623C0.81371 9.69548 0.733333 9.54477 0.773521 9.4443C0.803663 9.34383 0.95437 9.2534 1.17541 9.22326L6.95253 8.27883C7.73621 8.14821 8.6505 7.49515 9.02225 6.79185L11.745 1.60751C11.8455 1.40656 11.9761 1.29604 12.0866 1.29604M12.0866 1.00468C11.8756 1.00468 11.6546 1.15538 11.4938 1.46685L8.77107 6.65119C8.43951 7.27411 7.6056 7.87694 6.91234 7.98746L1.13522 8.93189C0.441965 9.04241 0.271163 9.55482 0.763474 10.0572L4.85267 14.2468C5.34498 14.7492 5.65645 15.7338 5.55597 16.4371L4.66178 22.2243C4.5814 22.7367 4.79239 23.0482 5.16413 23.0482C5.29475 23.0482 5.44546 23.008 5.61626 22.9276L10.8709 20.3354C11.1824 20.1847 11.5943 20.1043 12.0063 20.1043C12.4182 20.1043 12.8502 20.1847 13.1617 20.3455L18.3963 22.9778C18.5671 23.0582 18.7178 23.0984 18.8484 23.0984C19.2201 23.0984 19.4311 22.797 19.3507 22.2846L18.5068 16.4874C18.4063 15.7941 18.7278 14.8095 19.2302 14.3071L23.3495 10.1476C23.8418 9.64524 23.6811 9.14288 22.9878 9.02232L17.2207 8.02765C16.5275 7.90708 15.6936 7.2942 15.3721 6.67128L12.6895 1.46685C12.5287 1.15538 12.3177 0.994629 12.0967 0.994629L12.0866 1.00468Z" fill="url(#paint9_radial_520_138)"/>
<defs>
<radialGradient id="paint0_radial_520_138" cx="0" cy="0" r="1" gradientUnits="userSpaceOnUse" gradientTransform="translate(122.288 23.3799) scale(24.2137 24.2137)">
<stop offset="0.35" stop-color="#DCDBDB"/>
<stop offset="0.55" stop-color="#D5D4D4"/>
<stop offset="0.82" stop-color="#C3C2C2"/>
<stop offset="0.99" stop-color="#B4B4B4"/>
</radialGradient>
<radialGradient id="paint1_radial_520_138" cx="0" cy="0" r="1" gradientUnits="userSpaceOnUse" gradientTransform="translate(120.449 29.3881) scale(35.0144 35.0144)">
<stop offset="0.35" stop-color="#DCDBDB"/>
<stop offset="0.55" stop-color="#D5D4D4"/>
<stop offset="0.82" stop-color="#C3C2C2"/>
<stop offset="0.99" stop-color="#B4B4B4"/>
</radialGradient>
<radialGradient id="paint2_radial_520_138" cx="0" cy="0" r="1" gradientUnits="userSpaceOnUse" gradientTransform="translate(63.3439 23.3798) scale(24.2237 24.2237)">
<stop offset="0.35" stop-color="#FDC20F"/>
<stop offset="0.53" stop-color="#FCBB15"/>
<stop offset="0.77" stop-color="#F9AA27"/>
<stop offset="1" stop-color="#F7943F"/>
</radialGradient>
<radialGradient id="paint3_radial_520_138" cx="0" cy="0" r="1" gradientUnits="userSpaceOnUse" gradientTransform="translate(61.5053 29.3779) scale(35.0144 35.0144)">
<stop offset="0.35" stop-color="#FDC20F"/>
<stop offset="0.53" stop-color="#FCBB15"/>
<stop offset="0.77" stop-color="#F9AA27"/>
<stop offset="1" stop-color="#F7943F"/>
</radialGradient>
<radialGradient id="paint4_radial_520_138" cx="0" cy="0" r="1" gradientUnits="userSpaceOnUse" gradientTransform="translate(92.8158 23.3798) scale(24.2237 24.2237)">
<stop offset="0.35" stop-color="#FDC20F"/>
<stop offset="0.53" stop-color="#FCBB15"/>
<stop offset="0.77" stop-color="#F9AA27"/>
<stop offset="1" stop-color="#F7943F"/>
</radialGradient>
<radialGradient id="paint5_radial_520_138" cx="0" cy="0" r="1" gradientUnits="userSpaceOnUse" gradientTransform="translate(90.9772 29.3779) scale(35.0144 35.0144)">
<stop offset="0.35" stop-color="#FDC20F"/>
<stop offset="0.53" stop-color="#FCBB15"/>
<stop offset="0.77" stop-color="#F9AA27"/>
<stop offset="1" stop-color="#F7943F"/>
</radialGradient>
<radialGradient id="paint6_radial_520_138" cx="0" cy="0" r="1" gradientUnits="userSpaceOnUse" gradientTransform="translate(33.8722 23.3798) scale(24.2237 24.2237)">
<stop offset="0.35" stop-color="#FDC20F"/>
<stop offset="0.53" stop-color="#FCBB15"/>
<stop offset="0.77" stop-color="#F9AA27"/>
<stop offset="1" stop-color="#F7943F"/>
</radialGradient>
<radialGradient id="paint7_radial_520_138" cx="0" cy="0" r="1" gradientUnits="userSpaceOnUse" gradientTransform="translate(32.0336 29.3779) scale(35.0144 35.0144)">
<stop offset="0.35" stop-color="#FDC20F"/>
<stop offset="0.53" stop-color="#FCBB15"/>
<stop offset="0.77" stop-color="#F9AA27"/>
<stop offset="1" stop-color="#F7943F"/>
</radialGradient>
<radialGradient id="paint8_radial_520_138" cx="0" cy="0" r="1" gradientUnits="userSpaceOnUse" gradientTransform="translate(4.40055 23.3798) scale(24.2237 24.2237)">
<stop offset="0.35" stop-color="#FDC20F"/>
<stop offset="0.53" stop-color="#FCBB15"/>
<stop offset="0.77" stop-color="#F9AA27"/>
<stop offset="1" stop-color="#F7943F"/>
</radialGradient>
<radialGradient id="paint9_radial_520_138" cx="0" cy="0" r="1" gradientUnits="userSpaceOnUse" gradientTransform="translate(2.56192 29.3779) scale(35.0144 35.0144)">
<stop offset="0.35" stop-color="#FDC20F"/>
<stop offset="0.53" stop-color="#FCBB15"/>
<stop offset="0.77" stop-color="#F9AA27"/>
<stop offset="1" stop-color="#F7943F"/>
</radialGradient>
<clipPath id="clip0_520_138">
<rect width="24.1132" height="24.1132" fill="white" transform="translate(88.4153)"/>
</clipPath>
<clipPath id="clip1_520_138">
<rect width="24.1132" height="24.1132" fill="white" transform="translate(29.4717)"/>
</clipPath>
</defs>
</svg>
