<svg width="50" height="50" viewBox="0 0 50 50" fill="none" xmlns="http://www.w3.org/2000/svg">
<circle cx="25" cy="25" r="24.5" stroke="white"/>
<path d="M31 13H19C15.64 13 13 15.64 13 19V31C13 34.36 15.64 37 19 37H31C34.36 37 37 34.36 37 31V19C37 15.64 34.36 13 31 13ZM34.6 31C34.6 33.04 33.04 34.6 31 34.6H19C16.96 34.6 15.4 33.04 15.4 31V19C15.4 16.96 16.96 15.4 19 15.4H31C33.04 15.4 34.6 16.96 34.6 19V31Z" fill="white"/>
<path d="M25 19C21.64 19 19 21.64 19 25C19 28.36 21.64 31 25 31C28.36 31 31 28.36 31 25C31 21.64 28.36 19 25 19ZM25 28.6C22.96 28.6 21.4 27.04 21.4 25C21.4 22.96 22.96 21.4 25 21.4C27.04 21.4 28.6 22.96 28.6 25C28.6 27.04 27.04 28.6 25 28.6Z" fill="white"/>
<path d="M30.9998 20.2C31.6625 20.2 32.1998 19.6628 32.1998 19C32.1998 18.3373 31.6625 17.8 30.9998 17.8C30.3371 17.8 29.7998 18.3373 29.7998 19C29.7998 19.6628 30.3371 20.2 30.9998 20.2Z" fill="white"/>
</svg>
