<svg width="50" height="50" viewBox="0 0 50 50" fill="none" xmlns="http://www.w3.org/2000/svg">
<circle cx="25" cy="25" r="24.5" stroke="white"/>
<path fill-rule="evenodd" clip-rule="evenodd" d="M25.0021 37.2039C22.7524 38.3446 23.5288 36.8595 23.5288 36.8595C24.6774 33.9754 22.5778 33.8166 22.5778 33.8166L22.5803 33.815C16.5576 32.8969 12 28.6179 12 23.4746C12 17.6616 17.8198 12.9495 24.9986 12.9495C32.1773 12.9495 37.9972 17.6616 37.9972 23.4746C37.9972 23.6922 37.9864 23.9076 37.9704 24.122L37.9972 24.1051C38.1891 31.7476 28.6233 35.8309 25.0021 37.2039ZM20.0459 25.3096H17.8768C17.7753 25.3096 17.6928 25.2268 17.6928 25.1252V20.695C17.6928 20.4327 17.4791 20.2194 17.2171 20.2194H16.6933C16.4308 20.2194 16.2179 20.4327 16.2179 20.695V26.254C16.2179 26.5163 16.4309 26.7296 16.6933 26.7296H20.046C20.3082 26.7296 20.5215 26.5163 20.5215 26.254V25.7852C20.5214 25.5231 20.3081 25.3096 20.0459 25.3096ZM27.9633 20.2194H28.4871C28.7494 20.2194 28.9625 20.4327 28.9626 20.695V26.254C28.9626 26.5163 28.7495 26.7296 28.4872 26.7296H28.0083C27.7792 26.7296 27.5014 26.5792 27.3766 26.3869L25.1663 22.9942V26.254C25.1663 26.5163 24.9528 26.7296 24.6905 26.7296H24.1665C23.9046 26.7296 23.6913 26.5163 23.6913 26.254V20.695C23.6913 20.4327 23.9046 20.2194 24.1665 20.2194H24.6423C24.8715 20.2194 25.1492 20.3701 25.274 20.5622L27.488 23.9669V20.695C27.488 20.4327 27.7011 20.2194 27.9633 20.2194ZM22.1706 20.2194H21.6553C21.393 20.2194 21.1799 20.4327 21.1799 20.695V26.254C21.1799 26.5163 21.393 26.7296 21.6553 26.7296H22.1706C22.4331 26.7296 22.646 26.5163 22.646 26.254V20.695C22.6461 20.4327 22.4331 20.2194 22.1706 20.2194ZM30.5719 20.2194H33.307C33.5689 20.2194 33.7826 20.4327 33.7826 20.695V21.1935C33.7826 21.4558 33.5689 21.6689 33.307 21.6689H31.747C31.6453 21.6689 31.5628 21.7517 31.5628 21.8533V22.3183C31.5628 22.4199 31.6453 22.5027 31.747 22.5027H33.307C33.5689 22.5027 33.7826 22.7158 33.7826 22.978V23.4554C33.7826 23.7177 33.5689 23.9308 33.307 23.9308H31.747C31.6453 23.9308 31.5628 24.0135 31.5628 24.1151V25.0916C31.5628 25.1932 31.6453 25.276 31.747 25.276H33.307C33.5689 25.276 33.7826 25.4893 33.7826 25.7516V26.254C33.7826 26.5163 33.5689 26.7296 33.307 26.7296H30.5719C30.3094 26.7296 30.0968 26.5163 30.0968 26.254V20.695C30.0968 20.4327 30.3094 20.2194 30.5719 20.2194Z" fill="white"/>
</svg>
