<svg width="115" height="48" viewBox="0 0 115 48" fill="none" xmlns="http://www.w3.org/2000/svg">
<g clip-path="url(#clip0_22_1271)">
<path d="M17.8732 12.9523C17.8403 12.6647 17.7897 12.5004 17.6986 12.4519C17.6151 12.4021 17.4316 12.4195 17.1392 12.5017C16.5798 12.5515 15.837 12.5266 14.9119 12.4195C13.9855 12.3211 13.0173 12.1979 12.0074 12.0659C10.9975 11.9265 10.0294 11.8032 9.10428 11.6887C8.1779 11.5742 7.43503 11.5406 6.87692 11.5904C5.66706 11.6476 4.4572 12.0746 3.25493 12.8876C2.04507 13.7005 0.960503 15.0052 0.0012207 16.8116C0.226488 17.5673 0.560591 18.1163 1.00227 18.4774C1.43635 18.8309 1.90333 19.0525 2.39563 19.126C2.88793 19.1994 3.36377 19.1584 3.83962 18.9953C4.3066 18.8397 4.69133 18.6093 4.99126 18.3218C5.03302 18.2645 5.11655 18.1661 5.22539 18.018C5.33422 17.8786 5.42534 17.7391 5.50887 17.5997C5.59239 17.4603 5.65061 17.3283 5.69237 17.2063C5.73414 17.083 5.70123 17.0096 5.59239 16.9934C5.19248 16.9772 4.80016 16.8951 4.44075 16.7394C4.07374 16.5838 3.76495 16.4108 3.52323 16.2054C3.27265 15.9999 3.11446 15.7945 3.03979 15.5891C2.96513 15.3837 3.02334 15.2119 3.21444 15.055C3.39794 14.9069 3.73964 14.8172 4.21548 14.7923C4.69892 14.76 5.36713 14.8247 6.21757 14.9891C6.7934 15.0961 7.42743 15.2355 8.13614 15.3912C8.83725 15.5555 9.53836 15.7111 10.2395 15.8593C10.9406 16.0149 11.6164 16.1468 12.2757 16.2776C12.9351 16.4008 13.4767 16.4743 13.9108 16.4905L15.1042 29.3856C14.6701 29.7142 14.1525 29.9433 13.5527 30.0753C12.9439 30.2147 12.3264 30.2807 11.7088 30.2807C11.2 30.2969 10.6242 30.2483 9.97371 30.1163C9.33081 29.9931 8.73094 29.7802 8.16271 29.4839C7.59575 29.1889 7.0946 28.8278 6.66937 28.4083C6.23529 27.9813 5.96826 27.497 5.86828 26.9467C5.84297 26.7089 5.89359 26.3143 6.01888 25.7566C6.14417 25.2063 6.31882 24.6735 6.5618 24.1643C6.79593 23.6476 7.06296 23.2368 7.35403 22.9168C7.64637 22.5969 7.96276 22.5558 8.31331 22.7936C8.54744 23.0065 8.60565 23.2941 8.48796 23.6476C8.37912 24.0087 8.12855 24.3448 7.75394 24.6735C7.6198 24.6822 7.53754 24.7394 7.51223 24.8291C7.47932 24.9274 7.49577 25.0345 7.56285 25.1652C7.65523 25.3134 7.82988 25.5101 8.08045 25.7566C8.33103 25.9943 8.59806 26.2247 8.87269 26.4375C9.14857 26.6504 9.43206 26.8397 9.73199 26.9953C10.0243 27.1596 10.2749 27.258 10.466 27.2903C10.9077 26.8222 11.2 26.379 11.3506 25.9607C11.5012 25.5337 11.5341 25.1154 11.4341 24.6971C11.3418 24.2863 11.1507 23.8842 10.8583 23.4982C10.5748 23.1123 10.2078 22.7264 9.76489 22.3404C9.49786 22.1027 9.21438 21.8562 8.90559 21.6022C8.60566 21.3557 8.29686 21.1179 7.99566 20.9125C7.69573 20.6996 7.38694 20.5191 7.07814 20.3784C6.76935 20.2303 6.49346 20.1568 6.25174 20.1481C5.68478 20.1481 5.133 20.4519 4.59894 21.0756C4.05602 21.6918 3.58904 22.4139 3.18027 23.243C2.7715 24.0809 2.43739 24.9262 2.17922 25.779C1.92105 26.6405 1.7869 27.3227 1.7869 27.8232C1.754 28.3809 1.88688 28.9635 2.18808 29.5798C2.42221 30.0317 2.75504 30.516 3.18913 31.0164C3.62321 31.5256 4.14841 31.9688 4.74954 32.3548C5.35068 32.732 6.02648 33.0357 6.76935 33.266C7.51982 33.4876 8.32977 33.5449 9.21438 33.4466C9.77375 33.3968 10.4825 33.2337 11.3506 32.9536C12.2188 32.6822 13.1034 32.3871 14.0209 32.0834C14.9308 31.7709 15.8231 31.492 16.6912 31.2293C17.5505 30.9666 18.2681 30.8023 18.8275 30.7538C19.1274 30.7861 19.3109 30.7699 19.3868 30.704C19.4615 30.6467 19.4868 30.4736 19.4615 30.1873L17.8758 12.9498L17.8732 12.9523Z" fill="white"/>
<path d="M17.6568 1.91227C17.2569 1.59232 16.8393 1.23875 16.3963 0.852822C15.9547 0.475604 15.47 0.286373 14.9283 0.295088C14.3107 0.303802 13.8349 0.573955 13.4932 1.1155C13.1515 1.64958 13.0009 2.23222 13.0426 2.87212L13.0933 3.66017C12.5503 3.19207 11.8999 2.79867 11.1405 2.48619C10.3812 2.18242 9.77248 2.03427 9.32195 2.06789C8.18675 2.08407 7.08573 2.4451 6.00116 3.1597C4.91659 3.88177 3.91554 5.07193 3.00562 6.73891C3.18026 7.46969 3.4726 8.00252 3.87378 8.35609C4.27496 8.70094 4.70018 8.91382 5.16716 9.0047C5.62656 9.09558 6.07709 9.07069 6.51117 8.92254C6.94525 8.77439 7.3034 8.5615 7.57929 8.28264C7.62991 8.22537 7.70458 8.13449 7.80456 8.01124C7.90454 7.88799 7.99692 7.75727 8.08045 7.61784C8.16397 7.4784 8.22219 7.35516 8.25509 7.24809C8.288 7.14103 8.27154 7.07629 8.18802 7.05886C7.69572 7.00906 7.26164 6.86963 6.86932 6.64056C6.477 6.41024 6.19352 6.16499 6.01761 5.90231C5.83411 5.63091 5.8088 5.39313 5.92523 5.18771C6.05051 4.9823 6.40866 4.90013 7.0022 4.94993C7.89441 4.99972 8.72967 5.19643 9.49659 5.54874C10.2724 5.89359 10.9735 6.27953 11.6075 6.68911C12.2416 7.09994 12.8009 7.47716 13.2932 7.82948C13.7855 8.18304 14.1854 8.38721 14.4866 8.45319C14.9207 8.56026 15.3966 8.37103 15.9218 7.88675C16.4394 7.40246 16.8975 6.68787 17.2987 5.73673C17.2898 5.68693 17.2987 5.64585 17.3075 5.6222C17.324 5.5973 17.324 5.55621 17.324 5.49895L17.224 3.92285C17.2076 3.66017 17.1911 3.44728 17.1822 3.29042C17.1734 3.12609 17.1822 2.99537 17.2151 2.8883C17.248 2.78124 17.2987 2.68289 17.3569 2.60072C17.424 2.51855 17.5239 2.4202 17.6821 2.30567C17.7821 2.14134 17.7745 2.01062 17.6568 1.91227Z" fill="white"/>
<path d="M45.8759 6.00808C45.8505 5.7205 45.8012 5.44164 45.7088 5.16277C45.6164 4.89137 45.4835 4.65359 45.3165 4.44817C45.1494 4.24276 44.933 4.14441 44.666 4.15312C44.4496 4.16183 44.1901 4.2191 43.8814 4.31745C43.5814 4.42452 43.2638 4.54777 42.9297 4.6872C42.5956 4.83535 42.2792 4.99097 41.978 5.16277C41.678 5.3271 41.411 5.4989 41.1769 5.66324C41.1187 5.7454 41.1098 5.87612 41.1263 6.06535C41.1427 6.24587 41.2351 6.34422 41.4022 6.36912C41.778 6.35293 41.9274 6.48365 41.8615 6.74633C41.7692 7.17335 41.4857 7.61655 41.0187 8.08465C40.5517 8.55275 39.9835 8.97976 39.3165 9.37316C38.6496 9.76781 37.9232 10.1039 37.1385 10.3828C36.3539 10.6617 35.587 10.826 34.8441 10.8833C33.7848 10.6779 32.7585 10.4973 31.7562 10.3168C30.7551 10.145 29.9616 10.0629 29.3694 10.0865C28.1684 10.0778 26.9332 10.4475 25.6892 11.1858C24.4375 11.9328 23.2859 13.1802 22.2178 14.9368C22.4101 15.7 22.7101 16.2664 23.1277 16.6436C23.5453 17.0296 24.0035 17.2673 24.4882 17.3744C24.9716 17.4728 25.4563 17.4566 25.9321 17.3171C26.4156 17.1852 26.8079 16.981 27.1167 16.7009C27.1749 16.6511 27.2584 16.5527 27.3749 16.4133C27.4913 16.2826 27.5913 16.1419 27.6748 16.0112C27.7672 15.8718 27.833 15.7485 27.8836 15.6253C27.9342 15.502 27.9089 15.436 27.8001 15.4124C27.3913 15.3713 27.0155 15.2642 26.6573 15.0924C26.3067 14.9206 26.0068 14.7314 25.7727 14.5098C25.531 14.2969 25.3892 14.0828 25.3222 13.8774C25.2639 13.6645 25.331 13.4914 25.5221 13.352C25.7221 13.2126 26.065 13.1391 26.5485 13.1391C27.0319 13.1304 27.6913 13.2375 28.5265 13.4429C29.1023 13.5823 29.7275 13.7554 30.421 13.9521C31.1133 14.1488 31.8068 14.3455 32.4991 14.5272C33.1913 14.7165 33.8595 14.8883 34.51 15.0526C35.1605 15.2169 35.7034 15.3153 36.1375 15.3476L36.3375 20.8889C35.8122 20.4619 35.1947 20.051 34.4771 19.6489C33.7684 19.2555 33.0673 18.9107 32.3662 18.6144C31.6739 18.3268 31.0222 18.1052 30.4299 17.9496C29.8376 17.8014 29.3618 17.7603 29.0201 17.8263C27.4597 18.5895 26.208 19.6813 25.2741 21.0856C24.3312 22.4973 23.5972 24.1469 23.0796 26.0429C23.0467 26.699 23.1631 27.4136 23.4137 28.1693C23.6719 28.925 24.0313 29.606 24.4818 30.2135C24.9324 30.8123 25.4753 31.3053 26.1093 31.6751C26.7358 32.0523 27.428 32.1842 28.1709 32.0772C28.4379 32.0448 28.7303 31.9377 29.0302 31.7485C29.3301 31.568 29.6313 31.3464 29.9313 31.0837C30.2312 30.821 30.5235 30.5422 30.807 30.2384C31.0905 29.9433 31.3499 29.672 31.5828 29.4255C32.351 28.5478 32.8091 27.6937 32.9509 26.8559C33.1015 26.018 32.6585 25.2063 31.641 24.4258C31.4487 24.4581 31.2234 24.5814 30.9652 24.7868C30.707 24.9922 30.4476 25.2213 30.1894 25.4678C29.9224 25.7143 29.6883 25.977 29.4719 26.2471C29.2555 26.5185 29.1049 26.7314 29.0302 26.8957C28.9796 27.0028 28.9796 27.1086 29.0213 27.2157C29.0631 27.314 29.1542 27.3638 29.2884 27.3638C29.5883 27.4547 29.8313 27.6514 30.0148 27.9552C30.1983 28.2502 30.2907 28.5303 30.2907 28.793C30.2818 29.0557 30.1742 29.2275 29.9654 29.3022C29.7566 29.3757 29.3985 29.22 28.9062 28.8428C28.4885 28.5142 28.0722 27.9726 27.6546 27.2007C27.2369 26.4376 26.9205 25.6334 26.7206 24.7793C26.5118 23.934 26.4535 23.1211 26.5459 22.3492C26.6383 21.5773 26.9636 21.0445 27.5141 20.732C27.7305 20.6996 28.0988 20.7731 28.6151 20.9449C29.1238 21.1254 29.7085 21.3794 30.3502 21.7006C30.9931 22.0205 31.6689 22.3978 32.37 22.8335C33.0711 23.2767 33.714 23.7448 34.3138 24.254C34.9061 24.7631 35.4073 25.2723 35.816 25.7803C36.2248 26.2969 36.4665 26.8061 36.5425 27.2991C36.526 27.619 36.4501 27.9153 36.3337 28.1855C36.2084 28.4482 35.9831 28.6947 35.6743 28.9163C35.5414 29.0557 35.549 29.2039 35.6908 29.3508C36.1084 29.7118 36.4589 30.0815 36.7589 30.4837C37.0512 30.8858 37.4511 31.2219 37.9434 31.4933C38.5446 31.8133 39.1621 31.7884 39.7962 31.4273C40.0303 31.2555 40.2303 31.0414 40.3973 30.7712C40.5555 30.4998 40.715 30.221 40.8643 29.9259C41.0149 29.6222 41.1642 29.3271 41.3148 29.0308C41.4654 28.7358 41.6401 28.4967 41.8489 28.3C41.9577 28.1357 41.9489 27.9963 41.8324 27.8655C41.4237 27.619 41.1478 27.3315 41.0225 27.004C40.8883 26.6754 40.8137 26.3069 40.7972 25.8799L40.2961 12.4668C40.2872 12.1793 40.2455 11.9987 40.1619 11.9415C40.0784 11.8755 39.886 11.8755 39.595 11.9415C39.3026 11.9738 38.9774 11.9738 38.6268 11.9328C38.2763 11.8917 37.8839 11.8419 37.4587 11.7771C37.3499 11.7859 37.2081 11.761 37.05 11.7112C37.7764 11.6377 38.6015 11.4809 39.5279 11.2518C40.4619 11.014 41.3642 10.7015 42.2311 10.2994C43.1068 9.89728 43.875 9.40429 44.5508 8.81418C45.2266 8.21537 45.6772 7.52567 45.886 6.72144C45.9024 6.54092 45.9024 6.30314 45.8771 6.00684L45.8759 6.00808Z" fill="white"/>
<path d="M53.2856 27.2767C53.2021 27.2032 53.0933 27.1858 52.9604 27.2443C52.2428 27.4497 51.6341 27.3265 51.1494 26.8671C50.6659 26.4077 50.4154 25.5288 50.39 24.2328V15.4821C50.39 15.0302 50.4483 14.653 50.5647 14.333C50.69 14.0205 50.9482 13.7168 51.3493 13.4217C51.5164 13.3147 51.5164 13.1839 51.3493 13.0271C51.1658 12.8378 50.9899 12.6088 50.8317 12.3125C50.6647 12.0249 50.5065 11.7298 50.3483 11.4261C50.1901 11.1223 50.0142 10.8347 49.8231 10.572C49.6396 10.3094 49.4232 10.1127 49.1802 9.97323C48.5879 9.57858 47.9868 9.57858 47.3692 9.97323C46.8858 10.2683 46.501 10.6131 46.2176 11.024C45.9417 11.4348 45.5835 11.8282 45.1583 12.1979C45.0495 12.3536 45.0495 12.5017 45.1583 12.6324C45.5582 12.8951 45.8176 13.1902 45.9429 13.5188C46.0594 13.8475 46.1176 14.2247 46.1176 14.6517V25.4952C46.1176 25.7666 46.1011 26.0118 46.0594 26.2509C46.0176 26.4886 45.9429 26.6941 45.8176 26.8671C45.7012 27.0389 45.5 27.1385 45.233 27.1621C45.1823 27.2119 45.1494 27.2767 45.133 27.3589C45.1165 27.441 45.1583 27.507 45.233 27.5556C45.4747 27.7448 45.7341 28.056 46.0011 28.5079C46.2682 28.9598 46.5681 29.4105 46.9022 29.8711C47.2363 30.3392 47.6109 30.7488 48.0285 31.1024C48.4462 31.456 48.9132 31.6527 49.4219 31.6776C49.7978 31.7025 50.1559 31.5867 50.5065 31.324C50.857 31.0526 51.1911 30.7165 51.5164 30.2894C51.834 29.8711 52.1428 29.4118 52.4428 28.9262C52.7351 28.4332 53.0186 27.9826 53.2856 27.5556C53.3691 27.4485 53.3691 27.3589 53.2856 27.2767Z" fill="white"/>
<path d="M75.1137 28.5154C74.7214 28.2366 74.4633 27.9328 74.3544 27.5967C74.2456 27.268 74.2038 26.8908 74.2127 26.4638L74.6961 12.5341C74.705 12.2465 74.6708 12.0747 74.5873 12.0174C74.5126 11.9602 74.3202 11.9515 74.0279 12.0013C73.7862 11.9925 73.5103 11.9104 73.2104 11.7548C72.9104 11.5991 72.5839 11.4186 72.2422 11.2045C71.9005 10.9991 71.5576 10.7862 71.2159 10.5808C70.8742 10.3679 70.5401 10.2197 70.2224 10.1289C69.8301 9.98072 69.2884 10.1376 68.6202 10.5882C67.9444 11.0402 67.2522 11.8108 66.5422 12.8951C66.384 12.8379 66.1423 12.6412 65.8158 12.2963C65.4981 11.9602 65.1235 11.6066 64.7059 11.2294C64.2883 10.8596 63.8542 10.5322 63.3961 10.2359C62.9367 9.94835 62.4861 9.81763 62.0609 9.85871C61.5522 9.81763 60.9434 10.1127 60.2335 10.77C59.5248 11.4186 58.849 12.1905 58.1972 13.0769C57.5543 13.9633 56.9709 14.8497 56.4621 15.7361C55.9445 16.6138 55.6028 17.2798 55.4269 17.723C55.1346 18.2895 55.0675 18.9219 55.2181 19.6103C55.3687 20.3075 55.6433 21.0383 56.0445 21.8189C56.4533 22.5982 56.9127 23.395 57.4379 24.2079C57.9555 25.0122 58.4225 25.8089 58.8224 26.5882C58.9477 26.8011 59.073 27.0476 59.1818 27.3352C59.2906 27.6141 59.3653 27.8855 59.4159 28.1556C59.5083 28.6075 59.4488 28.8864 59.2489 29.0009C59.0401 29.108 58.7983 29.1242 58.5149 29.0333C58.239 28.9424 57.9808 28.7706 57.7302 28.5079C57.4885 28.254 57.3708 27.9664 57.3797 27.6465C57.4126 27.441 57.3632 27.2767 57.2291 27.1709C57.1038 27.0563 56.9114 27.146 56.6621 27.4248C56.4368 27.5805 56.1445 27.8432 55.7699 28.2291C55.394 28.615 55.1359 29.0258 55.0017 29.469C54.86 29.9122 54.927 30.3467 55.1941 30.7663C55.4611 31.1846 56.1204 31.5045 57.1544 31.7187C57.8631 31.563 58.5984 31.1933 59.3742 30.6107C60.1424 30.028 60.7928 29.4529 61.3269 28.8864C61.7939 28.4594 62.3862 27.9178 63.0873 27.2618C63.796 26.6131 64.4971 25.9571 65.1893 25.2923C65.8816 24.6362 66.4916 24.0037 67.0079 23.4124C67.5255 22.8211 67.8179 22.3866 67.8761 22.099C67.9685 21.8114 67.9432 21.5002 67.809 21.1628C67.6761 20.8267 67.4838 20.5142 67.2421 20.2104C66.9915 19.9154 66.7244 19.644 66.4245 19.39C66.1246 19.1435 65.8234 18.9792 65.5323 18.8895C65.2653 18.8808 64.9729 18.9804 64.6565 19.1933C64.3389 19.4062 64.0478 19.6614 63.7884 19.9564C63.5214 20.2515 63.2872 20.5553 63.0873 20.8677C62.8873 21.1802 62.762 21.4255 62.7038 21.606C62.6456 21.7367 62.695 21.86 62.8456 21.967C62.9797 22.0243 63.1543 22.0579 63.3708 22.0654C63.5543 22.0741 63.7213 22.1475 63.8631 22.2957C64.0048 22.4513 64.1301 22.6156 64.2301 22.8049C64.33 22.9941 64.3971 23.1983 64.43 23.4037C64.4629 23.6166 64.4465 23.8058 64.3883 23.9614C64.33 24.1668 64.1301 24.437 63.7795 24.7744C63.429 25.103 63.1202 25.3408 62.8456 25.4964C62.7873 24.8565 62.5785 24.0685 62.2027 23.1323C61.9027 22.4924 61.5851 21.86 61.2434 21.245C60.9017 20.6212 60.5764 20.0461 60.2588 19.5045C59.9411 18.963 59.6576 18.4625 59.4248 17.9944C59.1831 17.5188 59.0413 17.0993 58.9996 16.7308C58.916 16.2552 58.8743 15.7622 58.8907 15.2618C58.9072 14.7613 59.0831 14.3019 59.4248 13.8911C59.75 13.6371 60.1094 13.5375 60.4765 13.5873C60.8523 13.6446 61.2358 13.784 61.6357 14.0056C62.028 14.2272 62.4115 14.5061 62.7709 14.8347C63.1379 15.1634 63.4631 15.4746 63.7466 15.7784C64.106 16.1892 64.406 16.4432 64.6312 16.5416C64.8476 16.6399 65.1564 16.4594 65.5488 16C65.7487 15.7622 65.9487 15.507 66.1575 15.2281C66.3739 14.9406 66.5827 14.6779 66.7915 14.4314C67.0003 14.1849 67.1838 13.9882 67.3344 13.84C67.4926 13.6844 67.5926 13.6184 67.6432 13.6508C68.0685 13.8475 68.5278 14.1102 69.029 14.4476C69.5302 14.7837 69.963 14.9817 70.3388 15.0464L69.9212 27.1124C69.9048 27.5643 69.8288 27.949 69.7048 28.2776C69.5707 28.5976 69.296 28.8939 68.8873 29.1391C68.7708 29.2711 68.7708 29.4105 68.8708 29.5736C69.2631 29.9596 69.5884 30.353 69.8554 30.7725C70.1224 31.1908 70.4983 31.5605 70.9653 31.8643C71.574 32.2502 72.1916 32.2751 72.818 31.9216C73.0686 31.7734 73.2774 31.568 73.4609 31.3141C73.6444 31.0514 73.8279 30.78 73.995 30.4936C74.1696 30.2148 74.3367 29.9272 74.5126 29.6396C74.6797 29.3607 74.872 29.1304 75.0973 28.9499C75.2061 28.7943 75.2137 28.6461 75.1137 28.5154Z" fill="white"/>
<path d="M78.1509 1.86368C78.1598 1.84749 78.1509 1.8226 78.1509 1.80641C78.1421 1.62589 78.118 1.46156 78.0674 1.31341C78.0257 1.16527 77.9586 1.03455 77.8839 0.918768C77.7257 0.680984 77.4916 0.598817 77.1917 0.656085C77.0828 0.680984 76.8829 0.722067 76.5829 0.795518C76.283 0.877684 75.9742 0.959851 75.6566 1.04202C75.6312 1.05073 75.6148 1.0582 75.5895 1.06692H75.5806C75.4553 1.09928 75.3389 1.1329 75.2212 1.17398H75.2123C75.0871 1.21506 74.9618 1.25615 74.8453 1.30594H74.8365C74.8112 1.31466 74.7947 1.32213 74.7694 1.33084C74.7188 1.34703 74.6694 1.37193 74.6277 1.38811C74.4353 1.46156 74.3024 1.53626 74.2354 1.59353C74.21 1.63461 74.1847 1.65951 74.1771 1.69188L74.1683 1.70059C74.1594 1.70059 74.1594 1.70931 74.1594 1.70931C74.1341 1.7591 74.1088 1.80766 74.1088 1.85745C74.0999 1.89854 74.0999 1.93962 74.1177 1.97199V1.9807C74.143 2.03797 74.1923 2.07905 74.2683 2.12014C74.2936 2.13632 74.3265 2.15251 74.3606 2.16122C74.5188 2.19359 74.6024 2.4488 74.6188 2.92437C74.6188 3.0389 74.6188 3.16215 74.6099 3.27793C74.6099 3.35139 74.6011 3.42608 74.5935 3.49953V3.50825C74.5846 3.64768 74.5606 3.78712 74.5264 3.92655C74.5176 4.0249 74.4935 4.13196 74.4593 4.23031C74.4593 4.28011 74.4429 4.33738 74.4264 4.38593C74.2936 4.87893 74.0847 5.24743 73.8177 5.50265C73.5418 5.74914 73.209 5.66698 72.8002 5.23996C72.8331 5.19017 72.9002 5.06816 73.009 4.87893C73.109 4.68223 73.2254 4.48553 73.3431 4.28011C73.4102 4.16558 73.4773 4.05851 73.5178 3.95145V3.94273C73.5595 3.86057 73.5925 3.78712 73.6178 3.70495C73.6342 3.65515 73.6507 3.61407 73.6595 3.5817C73.6924 3.47463 73.7013 3.4099 73.6848 3.39247C73.676 3.26922 73.6595 3.1385 73.6342 2.98164V2.97292C73.6254 2.95674 73.6254 2.94055 73.6178 2.91566V2.90694C73.6013 2.80859 73.576 2.70153 73.5507 2.58699C73.5089 2.41519 73.4507 2.23343 73.3583 2.05291C73.3166 1.94585 73.2583 1.84002 73.2001 1.73296C73.2001 1.73296 73.2001 1.72425 73.1913 1.72425C73.1748 1.68316 73.1495 1.65079 73.1242 1.60971C73.0989 1.57734 73.0824 1.55244 73.0571 1.51883V1.51012C72.8989 1.2798 72.7066 1.06692 72.4813 0.870215L72.4724 0.8615C72.4142 0.820417 72.3636 0.779334 72.3054 0.730781C71.9713 0.468098 71.5296 0.312481 70.9614 0.255213C70.9285 0.263928 70.8943 0.280112 70.845 0.312481C70.7703 0.344849 70.6779 0.410831 70.5526 0.492997L70.5438 0.501712C70.4438 0.567694 70.3185 0.65733 70.1843 0.764395C70.1679 0.773109 70.159 0.789294 70.1426 0.796763C69.7832 1.08434 69.4756 1.42919 69.2251 1.84749C69.2162 1.84749 69.2162 1.85621 69.2162 1.85621C69.2073 1.84749 69.1997 1.84002 69.1909 1.83131C69.185 1.8255 69.1795 1.82011 69.1744 1.81513C69.0162 1.63461 68.8074 1.43791 68.5657 1.23996C68.3075 1.02708 68.0317 0.829132 67.7317 0.641145C67.4394 0.451914 67.1394 0.305011 66.8395 0.189231C66.5307 0.0821662 66.2637 0.0174292 66.022 0C65.7967 0.123249 65.5461 0.336134 65.2791 0.656085C65.0121 0.959851 64.745 1.28852 64.5033 1.66573V1.67445C64.4945 1.68316 64.4945 1.69063 64.4869 1.69935C64.4704 1.72425 64.454 1.75661 64.4362 1.78151C64.2021 2.13508 63.9946 2.47868 63.8098 2.83224C63.6174 3.20199 63.4846 3.52941 63.4086 3.81699C63.3504 4.39963 63.4175 4.89262 63.6174 5.31964C63.8262 5.73794 64.0844 6.09897 64.4021 6.39527C64.7197 6.69032 65.0867 6.92064 65.4866 7.09244C65.8954 7.26424 66.2877 7.35512 66.6636 7.38002C66.9053 7.3713 67.1724 7.33894 67.4558 7.28914C67.7393 7.23934 68.0228 7.1497 68.2987 7.01774C68.5746 6.88702 68.8163 6.72269 69.0074 6.52474C69.2073 6.32804 69.3491 6.06536 69.425 5.75288C69.4415 5.4653 69.3579 5.15406 69.1744 4.8254C68.9909 4.49673 68.7657 4.30003 68.5075 4.23405C68.2152 4.1606 67.9405 4.21786 67.69 4.40585C67.4394 4.58637 67.2065 4.79178 67.0053 5.0221C66.9218 5.12045 66.9129 5.2437 66.98 5.39185C67.0547 5.54746 67.1546 5.60473 67.2976 5.58855C67.3394 5.80143 67.3141 5.98319 67.223 6.12263C67.1306 6.26206 67.023 6.28696 66.8977 6.20479C66.1473 5.67943 65.8296 5.10551 65.9549 4.48055C65.9967 4.14441 66.1055 3.82446 66.2725 3.52817C66.4396 3.23312 66.632 3.0028 66.8572 2.831C67.066 2.94553 67.2989 3.10987 67.5583 3.324C67.8089 3.53688 68.0418 3.75848 68.243 3.98008C68.3177 4.06225 68.4176 4.06225 68.5429 3.98008C68.6682 3.8892 68.81 3.7672 68.9682 3.60286C69.1263 3.44725 69.2858 3.26673 69.444 3.0775C69.5111 2.99533 69.5857 2.92188 69.6528 2.86461L69.6617 2.8559C69.687 2.831 69.7123 2.81481 69.7363 2.78992L69.7452 2.7812C69.8123 2.7314 69.8705 2.69032 69.9376 2.64924H69.9705C70.2881 2.59944 70.5298 2.74759 70.7133 3.09244C70.7298 3.11734 70.7462 3.14223 70.7551 3.1746V3.18332C70.9298 3.51198 71.0639 3.8892 71.1639 4.3075C70.9475 4.74199 70.7716 5.06318 70.621 5.25117C70.4792 5.4404 70.3375 5.6122 70.1869 5.76035C70.1122 5.72798 70.0363 5.76035 69.9616 5.86741C69.8869 5.96576 69.8616 6.05665 69.8869 6.13881C70.2793 6.68908 70.7133 7.08248 71.1803 7.32898C71.6562 7.56676 72.1561 7.71491 72.6901 7.77218C72.9572 7.81326 73.3495 7.64893 73.8671 7.28789C74.3847 6.91815 74.9023 6.49984 75.4186 6.02428C75.5528 5.90103 75.6768 5.78649 75.8021 5.66324C76.0274 5.45036 76.2526 5.23623 76.4526 5.02334C76.5779 4.90009 76.6943 4.78556 76.812 4.66231C76.9702 4.49051 77.1119 4.34236 77.2208 4.21911C77.3043 4.13694 77.3714 4.06349 77.4207 4.00623C77.4878 3.94024 77.5296 3.89169 77.5536 3.85808C77.5625 3.85808 77.5625 3.84936 77.5625 3.84936C77.5954 3.81699 77.6207 3.77591 77.6548 3.73483C77.7219 3.65266 77.7713 3.55431 77.8295 3.44725C77.9042 3.2991 77.9712 3.11858 78.0219 2.93059C78.1054 2.60193 78.156 2.29069 78.156 1.98693V1.97074C78.156 1.93838 78.156 1.90476 78.1471 1.86368H78.1509Z" fill="white"/>
<path d="M97.6607 13.8636C97.586 13.8064 97.3937 13.7902 97.0937 13.8226C96.5344 13.7728 95.8092 13.6171 94.9157 13.3632C94.0235 13.1005 93.0883 12.8216 92.1202 12.5091C91.152 12.2054 90.218 11.9178 89.3246 11.6476C88.4324 11.3688 87.7059 11.2132 87.1466 11.1634C85.9456 11.0152 84.6762 11.2293 83.3499 11.8194C82.0236 12.4108 80.7214 13.5188 79.4533 15.136C79.5457 15.9078 79.7786 16.5154 80.1456 16.9424C80.5126 17.3694 80.9302 17.6645 81.3972 17.8201C81.873 17.9757 82.3565 18.0168 82.8488 17.9433C83.3322 17.8612 83.7498 17.7055 84.1004 17.4678C84.1586 17.418 84.251 17.3358 84.3839 17.2138C84.5092 17.0905 84.6345 16.9673 84.7344 16.844C84.8433 16.7208 84.9268 16.6063 84.9926 16.4905C85.0508 16.3759 85.0344 16.3012 84.9255 16.2689C84.5332 16.178 84.1662 16.0311 83.8321 15.817C83.498 15.6041 83.231 15.3738 83.0222 15.136C82.8133 14.8895 82.6969 14.6604 82.6551 14.4463C82.6222 14.2334 82.7134 14.0691 82.9222 13.9533C83.1386 13.8387 83.4815 13.8051 83.965 13.8624C84.4408 13.9122 85.0837 14.0927 85.8924 14.3965C86.4429 14.6019 87.0441 14.8484 87.711 15.1273C88.3703 15.4061 89.0373 15.6775 89.6966 15.9477C90.3636 16.2104 91.0065 16.4643 91.6329 16.7034C92.2594 16.9411 92.7846 17.1055 93.2098 17.1964L92.0999 30.0915C91.6165 30.3454 91.0647 30.4849 90.4484 30.5098C89.8219 30.5421 89.2056 30.5011 88.5956 30.3952C88.0945 30.3293 87.5364 30.1824 86.9188 29.9433C86.31 29.7055 85.7507 29.3931 85.2419 29.0071C84.7408 28.6212 84.3079 28.178 83.965 27.685C83.6144 27.192 83.4398 26.6666 83.4309 26.1089C83.4562 25.8786 83.5727 25.4927 83.7903 24.9685C84.0156 24.4432 84.2826 23.9502 84.6079 23.4908C84.9331 23.0227 85.2672 22.6617 85.6089 22.399C85.9595 22.1363 86.2759 22.1525 86.5771 22.4401C86.7694 22.694 86.777 22.9903 86.6024 23.3177C86.4277 23.6464 86.1265 23.9415 85.7013 24.1954C85.5684 24.1867 85.476 24.2203 85.4254 24.31C85.3748 24.4008 85.3748 24.5154 85.4166 24.6461C85.4836 24.8104 85.6165 25.032 85.8253 25.3196C86.0253 25.5985 86.243 25.8699 86.4758 26.1238C86.71 26.3865 86.9593 26.6168 87.2263 26.821C87.4933 27.0339 87.7186 27.1659 87.9021 27.2393C88.4197 26.8534 88.7867 26.4674 89.012 26.0815C89.2284 25.6869 89.3296 25.2773 89.3119 24.8503C89.2955 24.4232 89.1778 23.9962 88.9614 23.5692C88.745 23.1422 88.4526 22.699 88.0856 22.2471C87.8692 21.9595 87.6262 21.6719 87.3769 21.3694C87.1187 21.0743 86.8593 20.7942 86.6011 20.5316C86.3341 20.2689 86.0671 20.0473 85.7912 19.8506C85.5077 19.6539 85.2483 19.5306 85.0065 19.4808C84.456 19.3825 83.8549 19.5954 83.2209 20.1133C82.578 20.6299 81.9857 21.2623 81.444 22.0093C80.8935 22.7563 80.4177 23.5356 80.0089 24.3324C79.6001 25.1366 79.3496 25.7852 79.2584 26.2782C79.1243 26.8285 79.1585 27.4186 79.342 28.0759C79.4926 28.5602 79.7343 29.0943 80.076 29.6682C80.4177 30.2346 80.8518 30.76 81.3782 31.2443C81.8958 31.7199 82.5134 32.1394 83.2057 32.4917C83.9068 32.8366 84.6914 33.0333 85.576 33.0831C86.143 33.1329 86.8694 33.0918 87.7705 32.9685C88.6715 32.8453 89.5979 32.7058 90.5496 32.5664C91.5089 32.4183 92.4353 32.2875 93.3363 32.1805C94.2286 32.0659 94.9638 32.0323 95.5219 32.0821C95.8143 32.1643 95.9978 32.1805 96.0813 32.1319C96.1648 32.0834 96.2231 31.919 96.2484 31.6315L97.7341 14.3853C97.7594 14.0977 97.7341 13.9259 97.6594 13.8599L97.6607 13.8636Z" fill="white"/>
<path d="M113.398 25.4541C113.24 25.1254 112.98 24.986 112.622 25.0519C112.489 25.0607 112.255 25.1017 111.937 25.1752C111.612 25.2574 111.278 25.347 110.927 25.4466C110.568 25.5449 110.235 25.652 109.926 25.7665C109.609 25.8898 109.409 25.9969 109.309 26.0865C109.216 26.2097 109.167 26.333 109.158 26.4637C109.149 26.6031 109.242 26.7015 109.416 26.7837C109.5 26.7924 109.567 27.014 109.633 27.4485C109.691 27.8829 109.666 28.3672 109.558 28.8926C109.442 29.4267 109.191 29.9271 108.799 30.3952C108.415 30.8633 107.823 31.1335 107.022 31.2157C106.671 31.248 106.263 31.2069 105.803 31.0762C105.353 30.953 104.919 30.7563 104.501 30.5011C104.092 30.2471 103.733 29.9184 103.442 29.5076C103.149 29.0893 102.982 28.6299 102.941 28.1207C103.015 27.7846 103.182 27.5132 103.458 27.3078C103.734 27.1024 103.934 26.9878 104.076 26.9542C104.218 26.9131 104.368 27.0451 104.535 27.3314C104.693 27.619 104.86 28.1606 105.019 28.9573C104.952 29.0482 104.935 29.1789 104.968 29.3271C105.001 29.4752 105.068 29.5574 105.177 29.5736C105.251 29.6147 105.427 29.5574 105.686 29.4254C105.953 29.286 106.22 29.1129 106.512 28.9088C106.795 28.7121 107.055 28.4979 107.304 28.2763C107.555 28.0547 107.696 27.8991 107.738 27.7921C107.622 27.2256 107.497 26.7575 107.337 26.4052C107.186 26.0516 107.003 25.7815 106.794 25.5922C106.594 25.403 106.385 25.2723 106.16 25.1901C105.944 25.108 105.701 25.0507 105.434 25.0183C104.849 24.9611 104.291 25.0594 103.773 25.2972C103.256 25.5275 102.772 25.8549 102.322 26.257C101.871 26.6679 101.454 27.1185 101.054 27.6277C100.661 28.1369 100.285 28.6287 99.9185 29.1129C100.011 29.8188 100.244 30.4513 100.611 31.009C100.987 31.5593 101.379 32.0099 101.788 32.3635C102.705 33.1764 103.757 33.586 104.95 33.6035C106.144 33.6122 107.261 33.2175 108.322 32.4295C108.622 32.1992 108.965 31.9614 109.357 31.7074C109.74 31.4534 110.133 31.182 110.541 30.9032C110.941 30.6243 111.343 30.3367 111.735 30.0417C112.127 29.7541 112.461 29.4503 112.752 29.1391C113.003 28.8851 113.212 28.5067 113.37 28.0224C113.528 27.5381 113.612 27.07 113.62 26.6193C113.629 26.1687 113.553 25.7827 113.395 25.4541H113.398ZM114.773 15.4074C114.615 15.0787 114.356 14.948 113.998 15.0053C113.863 15.014 113.631 15.0551 113.313 15.1285C112.988 15.2107 112.654 15.3003 112.303 15.3999C111.944 15.4983 111.611 15.6053 111.302 15.7286C110.984 15.8431 110.784 15.9502 110.684 16.0411C110.592 16.1643 110.534 16.2875 110.534 16.427C110.525 16.5577 110.617 16.6486 110.801 16.6984C110.876 16.7395 110.943 16.9698 111.01 17.4043C111.068 17.8387 111.043 18.323 110.935 18.8571C110.819 19.3825 110.568 19.8829 110.176 20.351C109.792 20.8191 109.2 21.098 108.399 21.1715C108.048 21.2038 107.64 21.1627 107.18 21.032C106.721 20.9088 106.296 20.7121 105.878 20.4407C105.469 20.178 105.119 19.8419 104.819 19.4397C104.526 19.0463 104.352 18.5857 104.317 18.0778C104.392 17.7416 104.559 17.4702 104.835 17.2648C105.102 17.0594 105.311 16.9449 105.453 16.9113C105.594 16.8789 105.745 17.0021 105.912 17.2885C106.07 17.5761 106.237 18.1176 106.396 18.9144C106.328 19.0127 106.312 19.136 106.345 19.2841C106.378 19.4397 106.445 19.5219 106.554 19.5306C106.628 19.5717 106.795 19.5219 107.062 19.3825C107.321 19.243 107.597 19.07 107.88 18.8733C108.172 18.6679 108.431 18.4463 108.681 18.2172C108.932 17.9869 109.073 17.8151 109.115 17.7167C109.006 17.1416 108.873 16.6822 108.715 16.3461C108.565 16.0012 108.381 15.7385 108.172 15.5493C107.972 15.3688 107.755 15.2293 107.538 15.1472C107.322 15.065 107.079 15.0077 106.812 14.9754C106.227 14.9181 105.669 15.0165 105.151 15.2542C104.634 15.492 104.142 15.812 103.7 16.2141C103.249 16.6249 102.832 17.0756 102.439 17.5686C102.047 18.0616 101.664 18.5621 101.297 19.0787C101.389 19.7522 101.631 20.3672 101.998 20.9262C102.365 21.4839 102.757 21.9446 103.166 22.3218C104.083 23.1347 105.135 23.5443 106.328 23.5368C107.522 23.5368 108.639 23.1509 109.7 22.3878C110 22.1575 110.343 21.9197 110.735 21.6657C111.119 21.4117 111.511 21.1403 111.92 20.8453C112.328 20.5502 112.721 20.2627 113.113 19.9676C113.505 19.6725 113.847 19.385 114.131 19.0974C114.381 18.8434 114.59 18.465 114.748 17.9807C114.906 17.4964 114.99 17.0283 114.999 16.5776C115.008 16.1257 114.932 15.7398 114.773 15.4124V15.4074Z" fill="white"/>
<path d="M37.8903 39.9241C37.8219 39.8805 37.7599 39.8904 37.7055 39.9539C37.6498 40.0174 37.6017 40.0983 37.5587 40.1992C37.5157 40.3 37.484 40.4034 37.4638 40.5117C37.4435 40.62 37.4359 40.6959 37.441 40.742C37.4638 40.8478 37.5182 40.9399 37.6043 41.0196C37.6903 41.0993 37.7878 41.1665 37.8991 41.22C38.0105 41.2736 38.1282 41.3109 38.2548 41.3321C38.38 41.3532 38.4927 41.3607 38.5914 41.3545C38.7116 41.3508 38.8293 41.3333 38.947 41.3047C39.0647 41.2761 39.1622 41.2275 39.2431 41.1615L38.9381 38.6729C38.8546 38.6729 38.7483 38.6617 38.6205 38.6418C38.4927 38.6206 38.3598 38.5982 38.2231 38.5733C38.0864 38.5484 37.9498 38.5222 37.8131 38.4949C37.6764 38.4675 37.5511 38.4451 37.4397 38.4276C37.274 38.4015 37.1449 38.3915 37.0525 38.4002C36.9588 38.409 36.8943 38.4276 36.8589 38.4575C36.8234 38.4874 36.8133 38.5222 36.8285 38.5608C36.8437 38.6007 36.8753 38.6393 36.9247 38.6766C36.974 38.714 37.0335 38.7476 37.1056 38.775C37.1765 38.8024 37.2524 38.8173 37.3309 38.8173C37.3524 38.8198 37.3588 38.8335 37.3512 38.8571C37.3436 38.8808 37.3322 38.9069 37.3183 38.9343C37.3031 38.9617 37.2853 38.9891 37.2651 39.0177C37.2449 39.0464 37.2309 39.065 37.2208 39.0762C37.1651 39.1348 37.0917 39.1808 37.0019 39.2144C36.912 39.248 36.8196 39.2593 36.7234 39.248C36.6273 39.2368 36.5361 39.197 36.4501 39.1298C36.364 39.0625 36.2957 38.958 36.2463 38.8148C36.4222 38.4588 36.6247 38.1998 36.8538 38.0367C37.0829 37.8736 37.3132 37.7827 37.5461 37.7653C37.6549 37.7529 37.7979 37.7554 37.9789 37.7715C38.1598 37.7877 38.3471 37.8076 38.5433 37.8276C38.7395 37.8487 38.9268 37.8662 39.1065 37.8799C39.2862 37.8948 39.4304 37.896 39.538 37.8823C39.5937 37.8649 39.6291 37.8612 39.6456 37.8699C39.662 37.8786 39.6747 37.911 39.681 37.9658L40.0885 41.291C40.0949 41.347 40.0911 41.3806 40.0771 41.3931C40.0632 41.4055 40.0265 41.4093 39.9683 41.4055C39.8607 41.418 39.7228 41.4528 39.557 41.5089C39.3912 41.5649 39.2204 41.6246 39.0457 41.6894C38.8698 41.7541 38.7002 41.8151 38.5344 41.8736C38.3687 41.9321 38.232 41.967 38.1231 41.9807C37.9536 42.0056 37.7954 41.9994 37.6498 41.9595C37.5043 41.9209 37.3714 41.8649 37.2524 41.794C37.1335 41.723 37.031 41.6396 36.9437 41.545C36.8563 41.4503 36.7893 41.3582 36.7412 41.2723C36.6804 41.1565 36.65 41.0433 36.6526 40.9349C36.6513 40.8378 36.6728 40.7046 36.7171 40.5378C36.7614 40.371 36.8209 40.2054 36.8956 40.0423C36.9702 39.8792 37.0575 39.7361 37.1575 39.6141C37.2575 39.4921 37.3625 39.4286 37.4714 39.4261C37.5182 39.4261 37.5726 39.4385 37.6334 39.4647C37.6941 39.4908 37.7549 39.5232 37.8143 39.563C37.8738 39.6029 37.9346 39.6452 37.9953 39.6925C38.0561 39.7398 38.113 39.7859 38.1649 39.8307C38.2522 39.9029 38.3256 39.9751 38.3838 40.0485C38.4433 40.122 38.4826 40.1979 38.5028 40.2776C38.5231 40.3573 38.5205 40.4395 38.4939 40.5216C38.4674 40.605 38.4129 40.6922 38.3307 40.7843C38.2927 40.7781 38.2459 40.7607 38.1864 40.732C38.1269 40.7034 38.0713 40.6685 38.0168 40.6287C37.9624 40.5889 37.9105 40.5465 37.8599 40.5005C37.8093 40.4556 37.7751 40.4183 37.7561 40.3897C37.7422 40.366 37.7384 40.3436 37.7447 40.3249C37.7498 40.3062 37.7663 40.295 37.7916 40.2926C37.8624 40.2278 37.908 40.1606 37.9282 40.0909C37.9485 40.0212 37.9346 39.9664 37.8877 39.9253L37.8903 39.9241Z" fill="white"/>
<path d="M41.3933 38.3728C41.4148 38.3765 41.4212 38.389 41.4123 38.4139C41.4034 38.4375 41.3921 38.4637 41.3769 38.4898C41.3617 38.5172 41.3427 38.5446 41.3224 38.572C41.3009 38.5993 41.287 38.6193 41.2769 38.6305C41.2199 38.6877 41.1453 38.7313 41.0542 38.7624C40.963 38.7936 40.8707 38.8035 40.7757 38.7923C40.6808 38.7811 40.591 38.74 40.5062 38.6716C40.4214 38.6031 40.3568 38.496 40.3113 38.3504C40.4973 37.9993 40.7061 37.7441 40.9377 37.5835C41.1706 37.4229 41.4034 37.337 41.6363 37.3258C41.7451 37.3158 41.8514 37.3258 41.9565 37.3544C42.0615 37.383 42.1653 37.4142 42.2703 37.449C42.3754 37.4826 42.4792 37.5125 42.5842 37.5387C42.688 37.5648 42.7943 37.5735 42.9031 37.5623C42.9588 37.5474 42.9955 37.5436 43.012 37.5524C43.0284 37.5611 43.0398 37.5934 43.0449 37.6495L43.3005 40.3199C43.3081 40.4008 43.3271 40.473 43.3562 40.534C43.3853 40.595 43.441 40.6485 43.5232 40.6921C43.546 40.7158 43.5485 40.7431 43.5308 40.7755C43.4929 40.8153 43.4612 40.8639 43.4359 40.9224C43.4106 40.9809 43.3853 41.0407 43.3587 41.0992C43.3334 41.1577 43.3056 41.215 43.2764 41.2685C43.2473 41.322 43.2119 41.3669 43.1676 41.4017C43.0499 41.4789 42.931 41.4901 42.8107 41.4353C42.712 41.388 42.6323 41.327 42.5703 41.2536C42.5083 41.1801 42.4349 41.1104 42.3501 41.0469C42.321 41.0183 42.3184 40.9909 42.3425 40.9635C42.4159 40.905 42.4602 40.844 42.4779 40.778C42.4943 40.712 42.4994 40.6361 42.4918 40.5502L42.2754 38.2993C42.2172 38.2943 42.1539 38.2732 42.0856 38.2358C42.0172 38.1985 41.9375 38.1599 41.8477 38.1188C41.7578 38.079 41.6553 38.0404 41.5389 38.0055C41.4237 37.9707 41.2921 37.952 41.1465 37.9495C41.0162 37.9458 40.9377 37.9669 40.9099 38.0105C40.882 38.0541 40.8871 38.1014 40.9238 38.1512C40.9592 38.2022 41.0212 38.2495 41.1098 38.2956C41.1984 38.3416 41.2908 38.3678 41.3921 38.3728H41.3933Z" fill="white"/>
<path d="M46.701 39.8742C46.6441 40.0261 46.5783 40.1829 46.5024 40.3448C46.4264 40.5066 46.3442 40.6535 46.2518 40.788C46.1594 40.9224 46.0569 41.0345 45.943 41.1229C45.8291 41.2113 45.7051 41.2611 45.5709 41.271C45.3583 41.2897 45.1659 41.2636 44.9913 41.1901C44.8166 41.1166 44.6686 41.0233 44.5458 40.9087C44.4231 40.7942 44.3294 40.6747 44.2636 40.5514C44.1978 40.4282 44.1649 40.3249 44.1649 40.2427C44.1725 40.1244 44.2003 40.0099 44.2509 39.8991C44.3003 39.7883 44.361 39.68 44.4319 39.5754C44.5028 39.4708 44.5749 39.3663 44.6483 39.2617C44.7217 39.1571 44.7863 39.0538 44.842 38.9529C44.9065 38.826 44.9305 38.6878 44.9154 38.5371C44.9002 38.3877 44.8647 38.2508 44.8091 38.1288C44.7534 38.0068 44.6876 37.9159 44.6104 37.8537C44.5332 37.7927 44.4648 37.7889 44.4066 37.8437C44.3724 37.8761 44.3623 37.9171 44.3762 37.9645C44.3902 38.0118 44.4117 38.0591 44.4408 38.1064C44.4699 38.1537 44.5041 38.1923 44.5433 38.2222C44.5813 38.2533 44.6091 38.2682 44.6243 38.267C44.6509 38.2707 44.6597 38.2856 44.6509 38.3118C44.6382 38.3491 44.6167 38.3952 44.5863 38.45C44.5559 38.5048 44.5205 38.5583 44.48 38.6068C44.4382 38.6554 44.394 38.6915 44.3471 38.7152C44.299 38.7388 44.2509 38.7425 44.2029 38.7251C44.1763 38.7164 44.1472 38.6965 44.1168 38.6654C44.0864 38.6342 44.0561 38.6019 44.0282 38.567C44.0004 38.5334 43.9751 38.4998 43.9548 38.4687C43.9346 38.4363 43.9244 38.4176 43.9244 38.4126C43.9181 38.3977 43.9308 38.3541 43.9624 38.2832C43.994 38.2122 44.0383 38.1263 44.0965 38.0242C44.1548 37.9234 44.2218 37.8163 44.2965 37.703C44.3712 37.5897 44.4496 37.4852 44.5294 37.388C44.6091 37.2909 44.685 37.2088 44.7584 37.1428C44.8318 37.0768 44.8951 37.0444 44.947 37.0457C45.0609 37.0432 45.1672 37.0756 45.2659 37.144C45.3646 37.2113 45.4507 37.2959 45.5253 37.3955C45.6 37.4951 45.6557 37.6022 45.6911 37.7155C45.7278 37.8288 45.7405 37.9308 45.7316 38.0242C45.7316 38.1114 45.6937 38.2209 45.6139 38.3541C45.5342 38.4873 45.4456 38.6268 45.3456 38.7712C45.2457 38.9156 45.1507 39.0613 45.0596 39.2057C44.9685 39.3501 44.9078 39.4796 44.8787 39.5941C44.8622 39.7236 44.8863 39.8481 44.9521 39.9701C45.0179 40.0908 45.1039 40.1966 45.2115 40.2875C45.3191 40.3772 45.4393 40.4431 45.5722 40.483C45.7051 40.5228 45.8329 40.529 45.9556 40.5004C46.0581 40.473 46.1202 40.4282 46.1417 40.3647C46.1632 40.3012 46.1632 40.224 46.1417 40.1307C46.1202 40.0373 46.0835 39.934 46.0341 39.8194C45.9847 39.7049 45.9417 39.5854 45.9037 39.4596C45.8658 39.3339 45.8405 39.2069 45.8265 39.0762C45.8126 38.9467 45.8291 38.8185 45.8784 38.6927C45.9556 38.4475 46.0341 38.2184 46.1164 38.008C46.1986 37.7976 46.2809 37.6159 46.3644 37.4615C46.4479 37.3071 46.5302 37.1826 46.6125 37.088C46.6947 36.9934 46.7719 36.9374 46.8428 36.9224C47.0554 36.9038 47.2288 36.9075 47.3629 36.9336C47.4971 36.961 47.6122 36.9859 47.7084 37.0108C47.8033 37.0357 47.8919 37.0457 47.9729 37.0432C48.0526 37.0407 48.14 37.0021 48.2349 36.9299C48.2615 36.9336 48.2906 36.9498 48.3235 36.9785C48.3564 37.0071 48.3665 37.032 48.3526 37.0532C48.3298 37.1054 48.3045 37.1826 48.2754 37.2847C48.2463 37.3868 48.2058 37.4876 48.1551 37.5885C48.1007 37.6993 48.0425 37.7814 47.9805 37.835C47.9185 37.8873 47.8539 37.9171 47.7843 37.9246C47.7147 37.9321 47.6375 37.9221 47.5553 37.8972C47.473 37.8723 47.3806 37.84 47.2794 37.8001C47.2098 37.774 47.1364 37.7478 47.0592 37.7229C46.982 37.6968 46.9086 37.6868 46.8377 37.6918C46.7681 37.6968 46.6998 37.7192 46.6352 37.759C46.5707 37.7989 46.5125 37.8723 46.4631 37.9781C46.4403 38.0205 46.4176 38.0728 46.396 38.1325C46.3745 38.1923 46.3581 38.2545 46.3467 38.3168C46.3353 38.379 46.3315 38.4413 46.3353 38.5023C46.3391 38.5633 46.3568 38.6193 46.3859 38.6678C46.4821 38.5434 46.5783 38.4637 46.6745 38.4263C46.7706 38.389 46.8466 38.3641 46.9035 38.3491C46.9934 38.3691 47.0769 38.3964 47.1554 38.4326C47.2326 38.4687 47.311 38.5023 47.3895 38.5359C47.4667 38.5695 47.5477 38.5956 47.6287 38.6156C47.7109 38.6355 47.7983 38.6405 47.8907 38.6293C47.9349 38.6006 47.9767 38.5844 48.0121 38.5795C48.0488 38.5745 48.0691 38.6156 48.0754 38.7015L48.1729 40.1319C48.1792 40.219 48.1956 40.2925 48.2235 40.3547C48.2513 40.417 48.3057 40.4705 48.3867 40.5166C48.4146 40.5452 48.4159 40.5739 48.3918 40.6012C48.3184 40.6784 48.2577 40.7569 48.2096 40.8403C48.1602 40.9224 48.0906 40.9959 48.002 41.0581C47.8869 41.1378 47.7679 41.1453 47.6439 41.0818C47.5958 41.0544 47.5528 41.0158 47.5148 40.9673C47.4768 40.9187 47.4414 40.8677 47.4072 40.8129C47.3718 40.7593 47.3376 40.7046 47.3022 40.651C47.2667 40.5975 47.2275 40.5539 47.1832 40.5203C47.1554 40.4967 47.1541 40.468 47.1769 40.4357C47.2516 40.3796 47.2971 40.3186 47.3174 40.2539C47.3363 40.1879 47.3427 40.1157 47.3376 40.0336C47.3313 39.9315 47.3262 39.8157 47.325 39.685C47.3237 39.5542 47.3199 39.4385 47.3123 39.3364C47.268 39.309 47.2136 39.2741 47.149 39.2318C47.0845 39.1895 47.0149 39.1521 46.9428 39.1185C46.8694 39.0849 46.7972 39.06 46.7226 39.0451C46.6479 39.0301 46.5808 39.0289 46.5188 39.0438C46.5568 39.1384 46.5909 39.2206 46.6213 39.2903C46.6517 39.36 46.6757 39.4235 46.6934 39.4808C46.7099 39.5393 46.7213 39.5978 46.7251 39.6588C46.7289 39.7198 46.7213 39.792 46.701 39.8754V39.8742Z" fill="white"/>
<path d="M49.8017 37.789C49.8232 37.7927 49.8283 37.8064 49.8194 37.8301C49.8105 37.8537 49.7966 37.8786 49.7802 37.9048C49.7637 37.9309 49.7435 37.957 49.7207 37.9844C49.6992 38.0106 49.6827 38.0292 49.6726 38.0405C49.6131 38.094 49.5359 38.1338 49.4435 38.1612C49.3511 38.1886 49.2575 38.1936 49.1638 38.1761C49.0689 38.16 48.9816 38.1139 48.9006 38.0417C48.8196 37.9682 48.7601 37.8587 48.7222 37.7118C48.9259 37.3707 49.1487 37.1267 49.3891 36.9785C49.6296 36.8304 49.8675 36.7569 50.1003 36.7569C50.2092 36.7519 50.3155 36.7669 50.418 36.8017C50.5205 36.8366 50.6243 36.8727 50.7268 36.9113C50.8293 36.9499 50.9331 36.986 51.0356 37.0171C51.1381 37.0482 51.2444 37.0619 51.3532 37.0582C51.4102 37.0457 51.4469 37.0445 51.4621 37.0532C51.4785 37.0632 51.4874 37.0955 51.4899 37.1516L51.6038 39.8319C51.6076 39.9141 51.6215 39.9863 51.6481 40.0485C51.6747 40.112 51.7266 40.1668 51.8076 40.2141C51.8291 40.239 51.8303 40.2664 51.8114 40.2988C51.7709 40.3361 51.7367 40.3834 51.7076 40.4407C51.6785 40.498 51.6506 40.5552 51.6215 40.6125C51.5924 40.6698 51.5621 40.7245 51.5317 40.7768C51.5 40.8291 51.4608 40.8714 51.4165 40.9038C51.295 40.9748 51.1748 40.9798 51.0584 40.9188C50.9622 40.8665 50.8863 40.8017 50.828 40.7245C50.7698 40.6474 50.7002 40.5752 50.6205 40.5067C50.5926 40.4768 50.5914 40.4494 50.6167 40.422C50.6926 40.3672 50.7407 40.3087 50.761 40.244C50.7812 40.1793 50.7901 40.1033 50.7863 40.0162L50.6901 37.7566C50.6319 37.7491 50.5711 37.7242 50.5041 37.6832C50.437 37.6421 50.3598 37.5997 50.2725 37.5549C50.1851 37.5101 50.0839 37.4665 49.97 37.4254C49.8561 37.3844 49.727 37.3595 49.5815 37.3495C49.4511 37.3395 49.3714 37.3557 49.3423 37.3981C49.3132 37.4404 49.3144 37.4877 49.3486 37.54C49.3815 37.5923 49.441 37.6433 49.5271 37.6944C49.6131 37.7442 49.7055 37.7753 49.8042 37.7865L49.8017 37.789Z" fill="white"/>
<path d="M54.0373 39.4497L54.0208 38.7065C53.8955 38.6629 53.7588 38.6168 53.612 38.5658C53.4652 38.5147 53.3134 38.4662 53.1564 38.4189C52.9995 38.3716 52.8451 38.3292 52.6945 38.2944C52.5427 38.2595 52.3996 38.2409 52.2642 38.2384C52.2377 38.2334 52.2098 38.216 52.1807 38.1823C52.1516 38.15 52.1567 38.0902 52.1959 38.0018C52.2655 37.8425 52.3402 37.6806 52.4186 37.5175C52.4984 37.3545 52.592 37.2088 52.7008 37.0781C52.8097 36.9486 52.9375 36.8415 53.083 36.7594C53.2298 36.6772 53.4007 36.6386 53.5994 36.6448C53.7082 36.6473 53.8057 36.6598 53.8892 36.6809C53.9727 36.7021 54.0512 36.727 54.1246 36.7569C54.198 36.7868 54.2739 36.8191 54.3524 36.8552C54.4308 36.8913 54.5182 36.9274 54.6118 36.9611C54.6485 36.971 54.6789 36.9698 54.7017 36.9586C54.7244 36.9474 54.7358 36.9299 54.7358 36.9038C54.7358 36.8789 54.7194 36.8503 54.6877 36.8204C54.6561 36.7905 54.603 36.7606 54.5296 36.732C54.5397 36.6909 54.5536 36.6448 54.5739 36.5926C54.5941 36.5415 54.6169 36.493 54.6447 36.4494C54.6726 36.4058 54.708 36.371 54.751 36.3473C54.7941 36.3236 54.8447 36.3187 54.9029 36.3324C55.0016 36.361 55.0674 36.4145 55.0978 36.493C55.1282 36.5714 55.1332 36.6598 55.1155 36.7569C55.0978 36.854 55.0598 36.9573 55.0054 37.0656C54.951 37.1739 54.8877 37.2723 54.8168 37.3607C54.746 37.4491 54.6713 37.5225 54.5916 37.5798C54.5118 37.6371 54.441 37.6645 54.379 37.6607C54.2537 37.6483 54.1208 37.6072 53.979 37.5387C53.8373 37.4702 53.6994 37.4105 53.5665 37.3594C53.4323 37.3084 53.3058 37.2847 53.1868 37.2872C53.0679 37.2897 52.9653 37.3557 52.8793 37.4852C52.859 37.5014 52.835 37.5387 52.8071 37.5972C52.7793 37.657 52.7616 37.6993 52.7515 37.7255C52.8249 37.7292 52.9223 37.7466 53.0451 37.7765C53.1678 37.8064 53.2994 37.8437 53.4412 37.8873C53.5829 37.9309 53.7247 37.9757 53.8689 38.0242C54.0132 38.0728 54.1423 38.1151 54.2575 38.1537C54.4397 38.1911 54.589 38.2085 54.7029 38.206C54.7599 38.1948 54.7966 38.1935 54.8118 38.2035C54.827 38.2135 54.8358 38.2471 54.8371 38.3031L54.8649 39.5368C54.8649 39.5779 54.8662 39.624 54.8675 39.675C54.8675 39.7261 54.8738 39.7746 54.8826 39.8207C54.8915 39.8668 54.908 39.9053 54.932 39.939C54.956 39.9713 54.994 39.99 55.0459 39.9937C55.0611 40.0037 55.0699 40.0161 55.0699 40.0311C55.0699 40.046 55.0623 40.0597 55.0472 40.0697C55.0016 40.1058 54.9535 40.1693 54.9029 40.2564C54.8535 40.3448 54.7966 40.4344 54.7333 40.5241C54.67 40.615 54.6004 40.6959 54.5245 40.7656C54.4486 40.8366 54.3587 40.8752 54.2549 40.8826C54.1815 40.8889 54.1119 40.8677 54.0436 40.8179C53.9752 40.7681 53.9082 40.7034 53.8449 40.6224C53.7804 40.5428 53.7196 40.4556 53.6601 40.3622C53.6006 40.2689 53.545 40.1817 53.4905 40.1008C53.4792 40.0809 53.4804 40.0622 53.4931 40.0473C53.5057 40.0323 53.5272 40.0286 53.5589 40.0386C53.6943 40.0771 53.8082 40.0498 53.9006 39.9589C53.9917 39.868 54.0373 39.6962 54.0373 39.446V39.4497Z" fill="white"/>
<path d="M57.5315 37.2462C57.4379 37.22 57.3556 37.1989 57.2822 37.1839C57.2101 37.1677 57.143 37.164 57.0835 37.1715C57.024 37.179 56.9671 37.1989 56.9152 37.2325C56.8633 37.2661 56.8089 37.3196 56.7507 37.3968C56.6823 37.4777 56.6266 37.5674 56.5823 37.6645C56.5381 37.7616 56.5254 37.8562 56.5456 37.9483C56.5558 38.0205 56.5849 38.1002 56.6342 38.1898C56.6836 38.2795 56.7393 38.3753 56.8038 38.4787C56.8684 38.5808 56.9354 38.6916 57.005 38.8098C57.0746 38.9281 57.1405 39.0476 57.2025 39.1709C57.2126 39.1858 57.2189 39.2007 57.2214 39.2132C57.224 39.2256 57.2303 39.2406 57.2404 39.2555C57.267 39.1895 57.2999 39.1173 57.3391 39.0414C57.3784 38.9654 57.4201 38.892 57.4644 38.8235C57.5087 38.755 57.553 38.6953 57.5973 38.6442C57.6416 38.5932 57.6821 38.5608 57.7188 38.5447C57.7758 38.5247 57.8378 38.5285 57.9023 38.5571C57.9669 38.5857 58.0314 38.6256 58.0959 38.6766C58.1605 38.7277 58.2187 38.7862 58.2706 38.8497C58.3225 38.9144 58.3604 38.9742 58.387 39.0302C58.3921 39.0862 58.3769 39.1435 58.3427 39.202C58.3086 39.2605 58.2668 39.3153 58.2174 39.3663C58.1681 39.4174 58.1149 39.4622 58.0605 39.4995C58.0061 39.5381 57.9593 39.5643 57.9238 39.5792C57.8973 39.5991 57.8745 39.5941 57.8542 39.563C57.8492 39.517 57.8327 39.4659 57.8049 39.4099C57.777 39.3539 57.7429 39.3078 57.7036 39.2717C57.6644 39.2356 57.6252 39.2182 57.5834 39.2169C57.5416 39.2169 57.5024 39.2468 57.4657 39.3078C57.4505 39.3389 57.4303 39.3925 57.4062 39.4684C57.3822 39.5443 57.3619 39.6165 57.3467 39.6825C57.3505 39.8668 57.2771 40.0473 57.1253 40.2253C57.0784 40.2813 57.0215 40.3423 56.9532 40.4083C56.8848 40.4743 56.8139 40.5378 56.738 40.5988C56.6621 40.6598 56.5836 40.7146 56.5039 40.7619C56.4229 40.8105 56.3457 40.8416 56.2736 40.8565C56.0711 40.8204 55.9432 40.7619 55.8888 40.6822C55.8344 40.6025 55.8192 40.5204 55.8433 40.4332C55.8673 40.3461 55.9141 40.2652 55.985 40.1892C56.0559 40.1133 56.1116 40.0597 56.1533 40.0286C56.2002 39.9726 56.2369 39.9552 56.2622 39.9751C56.2875 39.9963 56.2976 40.0261 56.2925 40.0672C56.2925 40.1282 56.3166 40.1842 56.3659 40.2328C56.4153 40.2814 56.4672 40.3137 56.5216 40.3299C56.576 40.3461 56.6228 40.3423 56.6621 40.3187C56.7013 40.2963 56.7102 40.2415 56.6899 40.1544C56.6798 40.1033 56.6633 40.051 56.6406 39.9975C56.6178 39.944 56.5937 39.8967 56.5672 39.8556C56.4849 39.7074 56.39 39.5555 56.2849 39.4024C56.1799 39.2493 56.085 39.0974 56.0027 38.9493C55.9205 38.8011 55.8623 38.6604 55.8293 38.5272C55.7964 38.394 55.8053 38.272 55.8585 38.16C55.8952 38.0579 55.9508 37.9496 56.0242 37.835C56.0976 37.7205 56.1761 37.6109 56.2596 37.5064C56.3432 37.4018 56.4204 37.3109 56.4912 37.2312C56.5621 37.1528 56.6102 37.1005 56.6368 37.0744C56.8139 36.8963 56.9949 36.7706 57.1797 36.6972C57.3645 36.6237 57.5454 36.5926 57.7213 36.6038C57.8302 36.6038 57.9555 36.6237 58.0947 36.6635C58.2339 36.7034 58.3756 36.7445 58.5186 36.788C58.6616 36.8316 58.8008 36.8727 58.9388 36.9088C59.0767 36.9449 59.1995 36.9636 59.3083 36.9648C59.3703 36.9549 59.4083 36.9549 59.421 36.9648C59.4336 36.9748 59.4399 37.0084 59.4399 37.0644L59.426 39.7473C59.426 39.8294 59.4374 39.9016 59.4602 39.9664C59.483 40.0311 59.5336 40.0884 59.6108 40.1394C59.6412 40.1656 59.6412 40.193 59.6108 40.2241C59.5741 40.2602 59.5399 40.305 59.5083 40.3623C59.4766 40.4183 59.445 40.4743 59.4134 40.5303C59.3817 40.5864 59.3476 40.6399 59.3109 40.6909C59.2742 40.742 59.2324 40.7831 59.1856 40.8129C59.0704 40.8839 58.954 40.8839 58.835 40.8117C58.7426 40.7557 58.668 40.6872 58.6135 40.6075C58.5591 40.5278 58.4908 40.4519 58.4085 40.3809C58.3933 40.3448 58.3933 40.3175 58.4085 40.2963C58.487 40.2452 58.5376 40.188 58.5617 40.1245C58.5857 40.061 58.5971 39.9851 58.5984 39.8979L58.6098 37.6744C58.5262 37.6645 58.4427 37.6408 58.3566 37.6047C58.2706 37.5686 58.1858 37.53 58.0997 37.4889C58.0137 37.4479 57.9251 37.4055 57.8314 37.3607C57.7378 37.3171 57.6378 37.2798 57.5277 37.2487L57.5315 37.2462Z" fill="white"/>
<path d="M63.9921 37.4342C63.9124 37.4889 63.8605 37.5462 63.8352 37.606C63.8099 37.6657 63.796 37.7404 63.7934 37.8276L63.7631 38.892C63.8453 38.9293 63.92 38.9804 63.9883 39.0439C64.0567 39.1074 64.1162 39.1709 64.1655 39.2368C64.2161 39.3028 64.2566 39.3676 64.2883 39.4323C64.3199 39.497 64.344 39.5506 64.3579 39.5916C64.325 39.6676 64.2718 39.7722 64.2009 39.9054C64.1288 40.0386 64.0516 40.1718 63.9668 40.305C63.882 40.4382 63.796 40.5615 63.7074 40.6735C63.6188 40.7855 63.5391 40.8615 63.4707 40.9013C63.4125 40.9362 63.3518 40.9524 63.2898 40.9499C63.2277 40.9474 63.1797 40.9362 63.1467 40.915C63.1138 40.8939 63.0847 40.8652 63.0594 40.8279C63.0341 40.7905 63.0113 40.7482 62.9886 40.6996C62.9658 40.6511 62.9329 40.6001 62.8873 40.5478L62.9215 39.3526C62.7329 39.3937 62.5735 39.4846 62.4418 39.6277C62.3102 39.7697 62.2001 39.9191 62.109 40.0747C62.0191 40.2303 61.9457 40.376 61.8901 40.5092C61.8344 40.6436 61.7876 40.7221 61.7509 40.747C61.6977 40.7818 61.6281 40.8179 61.5408 40.8565C61.4535 40.8951 61.3775 40.9063 61.3104 40.8889C61.1396 40.854 60.9941 40.7868 60.8713 40.6884C60.7498 40.5901 60.6486 40.4843 60.5688 40.3697C60.4891 40.2552 60.4322 40.1407 60.3993 40.0274C60.3664 39.9141 60.3537 39.822 60.36 39.7498C60.379 39.6327 60.4182 39.5219 60.479 39.4161C60.5397 39.3103 60.6093 39.2082 60.6903 39.1111C60.7713 39.014 60.8536 38.9156 60.9358 38.8185C61.0181 38.7214 61.094 38.6243 61.1586 38.5297C61.2345 38.4089 61.2725 38.2733 61.2712 38.1226C61.2712 37.972 61.2484 37.8338 61.2054 37.7068C61.1624 37.5798 61.1054 37.4827 61.0346 37.4142C60.9637 37.3458 60.8966 37.3358 60.8333 37.3856C60.7954 37.4155 60.7814 37.4541 60.7903 37.5026C60.7992 37.5512 60.8156 37.601 60.8409 37.6495C60.865 37.6993 60.8953 37.7404 60.9308 37.7753C60.9662 37.8101 60.9915 37.8263 61.0067 37.8276C61.032 37.8338 61.0396 37.8487 61.0282 37.8736C61.0118 37.9097 60.9852 37.9533 60.951 38.0056C60.9169 38.0579 60.8751 38.1077 60.8308 38.1512C60.7852 38.1961 60.7372 38.2284 60.6878 38.2471C60.6384 38.2658 60.5903 38.2645 60.5435 38.2434C60.5182 38.2322 60.4916 38.2098 60.4638 38.1761C60.436 38.1425 60.4094 38.1064 60.3853 38.0703C60.3613 38.0342 60.3398 37.9994 60.3221 37.9645C60.3043 37.9309 60.2967 37.911 60.2967 37.906C60.2917 37.8911 60.3094 37.8487 60.3474 37.7815C60.3853 37.713 60.4385 37.6321 60.5068 37.5362C60.5752 37.4416 60.6511 37.3408 60.7372 37.2362C60.8232 37.1316 60.9105 37.0333 60.9991 36.9449C61.0877 36.8565 61.1712 36.7806 61.251 36.7221C61.3307 36.6623 61.3965 36.6362 61.4484 36.6424C61.5623 36.6511 61.6648 36.6934 61.7572 36.7694C61.8496 36.8453 61.9268 36.9374 61.9913 37.0445C62.0559 37.1516 62.1001 37.2624 62.1255 37.3781C62.1508 37.4939 62.1546 37.5972 62.1356 37.6894C62.128 37.7765 62.0786 37.8823 61.9862 38.0068C61.8939 38.1326 61.7926 38.262 61.6787 38.3977C61.5661 38.5322 61.456 38.6679 61.3509 38.8024C61.2459 38.9381 61.1738 39.0613 61.1345 39.1721C61.1029 39.3651 61.1206 39.5431 61.1902 39.7062C61.2586 39.8693 61.3737 40.0037 61.537 40.1108L61.8382 39.6439C61.8812 39.5792 61.9394 39.5082 62.0116 39.4335C62.0837 39.3588 62.1672 39.2866 62.2634 39.2182C62.3596 39.1497 62.4634 39.085 62.5773 39.024C62.6912 38.9629 62.8101 38.9169 62.9354 38.8845L62.9708 37.6433C62.9734 37.5624 62.9632 37.4889 62.9417 37.4242C62.9202 37.3595 62.8709 37.301 62.7949 37.2474C62.7696 37.2163 62.7709 37.1877 62.7975 37.1628C62.8772 37.093 62.9455 37.0196 63.0025 36.9424C63.0594 36.8652 63.1354 36.7992 63.2303 36.7457C63.3518 36.6723 63.4707 36.676 63.5884 36.7557C63.634 36.7831 63.6732 36.8216 63.7061 36.8739C63.739 36.9262 63.7694 36.9822 63.7985 37.0408C63.8276 37.1005 63.858 37.159 63.8871 37.2163C63.9162 37.2736 63.9516 37.3209 63.9921 37.357C64.0174 37.3831 64.0162 37.4093 63.9896 37.4342H63.9921ZM63.9782 39.5817C63.9643 39.5406 63.9339 39.4871 63.8896 39.4223C63.8453 39.3576 63.7972 39.3041 63.7466 39.2617L63.7226 40.112C63.739 40.0822 63.7593 40.0411 63.7846 39.9913C63.8099 39.9415 63.8339 39.8892 63.8593 39.8357C63.8846 39.7834 63.9073 39.7323 63.9301 39.6838C63.9516 39.6365 63.9694 39.6016 63.9795 39.5817H63.9782Z" fill="white"/>
<path d="M66.2386 37.5388C66.1576 37.5911 66.1044 37.6471 66.0778 37.7081C66.0513 37.7678 66.0361 37.8413 66.0323 37.9284L65.95 39.6203C65.9424 39.8705 65.9842 40.0423 66.0728 40.137C66.1614 40.2303 66.2778 40.2602 66.4195 40.2266C66.4461 40.2179 66.4664 40.2216 66.4815 40.2378C66.4967 40.254 66.4955 40.2714 66.479 40.2913C66.4233 40.371 66.3638 40.4557 66.3031 40.5478C66.2411 40.6399 66.1778 40.7246 66.1107 40.803C66.0449 40.8814 65.9766 40.9449 65.907 40.9922C65.8374 41.0408 65.7652 41.0595 65.6931 41.0507C65.5944 41.0408 65.5071 40.9997 65.4299 40.9275C65.3527 40.8553 65.2843 40.7719 65.2236 40.6798C65.1628 40.5876 65.1084 40.4967 65.0616 40.4071C65.0135 40.3175 64.968 40.254 64.9224 40.2166C64.9072 40.2054 64.9021 40.193 64.9047 40.178C64.9072 40.1631 64.9148 40.1507 64.9262 40.1407C64.9781 40.1382 65.0173 40.1208 65.0426 40.0884C65.0679 40.056 65.0856 40.0174 65.0945 39.9714C65.1046 39.9253 65.111 39.878 65.1135 39.827C65.116 39.7759 65.1186 39.7299 65.1198 39.6888L65.216 37.7292C65.2198 37.6483 65.2122 37.5749 65.192 37.5089C65.1717 37.4441 65.1236 37.3844 65.0489 37.3296C65.03 37.3035 65.0312 37.2748 65.0527 37.245C65.1388 37.1777 65.2122 37.1055 65.2704 37.0283C65.3286 36.9524 65.4058 36.8877 65.502 36.8354C65.6248 36.7644 65.7412 36.7694 65.8526 36.8516C65.8981 36.8789 65.9374 36.92 65.9715 36.9723C66.0057 37.0246 66.0361 37.0819 66.0652 37.1416C66.093 37.2014 66.1221 37.2611 66.15 37.3184C66.1778 37.3757 66.2095 37.423 66.2449 37.4616C66.274 37.4939 66.274 37.5188 66.2411 37.5375L66.2386 37.5388Z" fill="white"/>
<path d="M67.8648 38.3393C67.8774 38.089 67.8407 37.9172 67.7559 37.8251C67.6712 37.733 67.5573 37.6994 67.4155 37.7255C67.3839 37.7392 67.3611 37.7367 67.3497 37.7205C67.3371 37.7044 67.3371 37.6869 67.3497 37.667C67.4067 37.5886 67.4687 37.5039 67.5357 37.4105C67.6016 37.3172 67.6686 37.2338 67.737 37.1591C67.804 37.0844 67.8736 37.0234 67.9445 36.9773C68.0154 36.9312 68.0837 36.9126 68.1521 36.9225C68.2558 36.935 68.3444 36.9773 68.4204 37.052C68.4963 37.1267 68.5621 37.2089 68.6178 37.2997C68.6735 37.3906 68.7254 37.4815 68.7709 37.5711C68.8165 37.6608 68.862 37.728 68.9051 37.7716C68.9456 37.7952 68.943 37.8201 68.9 37.8475C68.8532 37.85 68.8152 37.8662 68.7874 37.8973C68.7595 37.9284 68.7393 37.967 68.7292 38.0131C68.7178 38.0579 68.7114 38.1052 68.7076 38.1538C68.7038 38.2023 68.7013 38.2471 68.6988 38.2882L68.6393 39.1597C68.7405 39.197 68.8494 39.2481 68.9645 39.3116C69.0797 39.3763 69.1911 39.4473 69.2974 39.5257C69.4037 39.6041 69.4999 39.6875 69.5847 39.7747C69.6695 39.8618 69.7327 39.9465 69.7745 40.0262L69.915 37.9994C69.92 37.9185 69.915 37.845 69.8947 37.779C69.8745 37.7131 69.8289 37.6533 69.7555 37.5973C69.7315 37.5649 69.734 37.5375 69.7606 37.5126C69.8428 37.4466 69.915 37.3757 69.9744 37.2997C70.0339 37.225 70.1124 37.1616 70.2098 37.1118C70.3339 37.0433 70.4503 37.0508 70.5591 37.1354C70.6034 37.164 70.6427 37.2051 70.6756 37.2587C70.7085 37.3122 70.7376 37.3695 70.7654 37.4305C70.792 37.4915 70.8198 37.55 70.8464 37.6085C70.873 37.667 70.9059 37.7156 70.9451 37.7529C70.9641 37.7853 70.9616 37.8102 70.9401 37.8288C70.8591 37.8799 70.8034 37.9347 70.7768 37.9944C70.749 38.0542 70.7325 38.1276 70.7262 38.2135L70.5768 40.3772C70.5705 40.4644 70.5768 40.5403 70.5958 40.6051C70.6148 40.6711 70.6616 40.7308 70.735 40.7868C70.754 40.8142 70.7515 40.8416 70.7287 40.8715C70.6414 40.9375 70.5566 41.0122 70.4756 41.0968C70.3946 41.1815 70.3048 41.2475 70.2086 41.2973C70.1769 41.311 70.139 41.3147 70.0985 41.3097C70.058 41.3047 70.0149 41.291 69.9719 41.2711C69.9289 41.2499 69.8871 41.2275 69.8479 41.2014C69.8074 41.1753 69.7758 41.1516 69.7517 41.1292C69.7024 41.0856 69.6581 41.0035 69.6163 40.8864C69.5745 40.7682 69.5176 40.6362 69.4442 40.4905C69.3708 40.3449 69.2695 40.1942 69.1392 40.0399C69.0088 39.8855 68.8317 39.7461 68.6051 39.6241L68.5229 40.8167C68.428 40.9126 68.3394 40.9972 68.2596 41.0719C68.1786 41.1454 68.0787 41.179 67.9597 41.1715C67.8977 41.1678 67.8395 41.1454 67.7851 41.1055C67.7205 41.0607 67.6395 40.9823 67.5433 40.8702C67.4472 40.7594 67.3522 40.6325 67.2611 40.4905C67.17 40.3486 67.0877 40.2042 67.0181 40.056C66.9473 39.9079 66.903 39.7772 66.8853 39.6626C66.903 39.6228 66.9435 39.573 67.0042 39.5133C67.065 39.4535 67.1384 39.3937 67.2232 39.3365C67.3079 39.278 67.4029 39.2257 67.5066 39.1784C67.6117 39.1311 67.7142 39.1012 67.8142 39.0875L67.8661 38.338L67.8648 38.3393ZM67.8002 39.4958C67.7787 39.4996 67.7471 39.512 67.7041 39.5319C67.661 39.5518 67.6167 39.5755 67.5699 39.6004C67.5244 39.6253 67.4826 39.6514 67.4472 39.6763C67.4117 39.7012 67.3877 39.7249 67.3763 39.7448C67.3902 39.7759 67.413 39.8232 67.4446 39.8842C67.4763 39.9452 67.5117 40.0075 67.5484 40.0722C67.5851 40.1357 67.6218 40.1992 67.656 40.2602C67.6901 40.3212 67.718 40.3685 67.7357 40.3997L67.7977 39.4971L67.8002 39.4958Z" fill="white"/>
<path d="M70.9615 36.1593C70.859 36.3311 70.7514 36.4544 70.6413 36.5291C70.5312 36.605 70.435 36.6287 70.354 36.6025C70.2984 36.5826 70.2288 36.5303 70.144 36.4469C70.0604 36.3635 69.9617 36.2739 69.8504 36.1768C69.739 36.0796 69.6137 35.99 69.4745 35.9041C69.3353 35.8182 69.1821 35.7585 69.0126 35.7248C68.8999 35.6999 68.8291 35.7062 68.8 35.7423C68.7708 35.7784 68.7696 35.8244 68.7962 35.8805C68.8227 35.9365 68.8721 35.9913 68.943 36.046C69.0138 36.1008 69.0948 36.1394 69.1872 36.1618C69.2024 36.168 69.2049 36.1817 69.1961 36.2004C69.1872 36.2203 69.172 36.2427 69.1518 36.2664C69.1315 36.29 69.1087 36.3125 69.0834 36.3336C69.0581 36.3548 69.0429 36.3697 69.0366 36.3797C68.9759 36.4257 68.8999 36.4569 68.8101 36.473C68.7202 36.4892 68.6316 36.4818 68.5456 36.4519C68.4595 36.422 68.3836 36.3685 68.3165 36.2913C68.2494 36.2141 68.2102 36.1033 68.1963 35.9589C68.3887 35.7087 68.5823 35.5256 68.7734 35.4136C68.9645 35.3016 69.153 35.2393 69.3365 35.2281C69.3479 35.1522 69.3808 35.0874 69.4353 35.0326C69.4897 34.9779 69.558 34.9542 69.6403 34.9604C69.7124 34.9716 69.7719 34.9916 69.8187 35.0214C69.8655 35.0513 69.9136 35.0887 69.9617 35.1335C69.9858 35.1659 69.9845 35.1945 69.9592 35.2181C69.9339 35.2418 69.92 35.2667 69.9174 35.2916L69.9098 35.375C69.9541 35.3987 70.006 35.436 70.0642 35.4833C70.1224 35.5319 70.1731 35.5779 70.2174 35.6228L70.2288 35.4933C70.2389 35.3663 70.2781 35.2555 70.3464 35.1609C70.4148 35.0663 70.5072 35.0264 70.6261 35.0414C70.7299 35.0551 70.8248 35.1061 70.9147 35.1957C71.0033 35.2854 71.0817 35.3626 71.1488 35.4298C71.1665 35.4622 71.164 35.4895 71.1412 35.5132C71.0817 35.5493 71.0438 35.5829 71.0311 35.6115C71.0185 35.6414 71.0071 35.7074 70.9995 35.8082L70.9742 36.1133C70.9729 36.1332 70.9691 36.1494 70.9628 36.1581L70.9615 36.1593Z" fill="white"/>
<path d="M72.9775 39.4858C72.9206 39.4286 72.8586 39.4261 72.7902 39.4759C72.7232 39.5257 72.6574 39.5954 72.5941 39.685C72.5308 39.7746 72.4764 39.8693 72.4333 39.9701C72.3891 40.0709 72.365 40.1444 72.3612 40.1905C72.3612 40.2988 72.3941 40.4009 72.4599 40.4967C72.5257 40.5926 72.608 40.6785 72.7054 40.7544C72.8016 40.8304 72.9092 40.8914 73.0282 40.9387C73.1459 40.986 73.2534 41.0171 73.3521 41.0308C73.4698 41.052 73.5888 41.0607 73.709 41.0569C73.8292 41.0532 73.9368 41.0271 74.0305 40.9798L74.2747 38.4849C74.1925 38.4675 74.0925 38.4338 73.971 38.3865C73.8508 38.3392 73.7255 38.2894 73.5977 38.2359C73.4698 38.1824 73.342 38.1288 73.2142 38.0728C73.0864 38.0168 72.9699 37.9695 72.8649 37.9284C72.7092 37.8674 72.584 37.8313 72.4916 37.8201C72.3992 37.8089 72.3321 37.8139 72.2903 37.8363C72.2486 37.8587 72.2309 37.8898 72.2385 37.9309C72.2448 37.9732 72.2676 38.0168 72.3081 38.0641C72.3473 38.1114 72.3992 38.1562 72.4637 38.1985C72.527 38.2409 72.5979 38.2708 72.6738 38.2882C72.6941 38.2957 72.6979 38.3093 72.6852 38.3318C72.6725 38.3542 72.6561 38.3766 72.6358 38.4002C72.6156 38.4239 72.5915 38.4475 72.5662 38.4712C72.5409 38.4948 72.5219 38.511 72.5106 38.5197C72.4435 38.5646 72.3625 38.5944 72.2676 38.6081C72.1726 38.6218 72.079 38.6131 71.9879 38.582C71.8968 38.5509 71.817 38.4924 71.7462 38.4089C71.6753 38.3255 71.6323 38.2085 71.6158 38.0579C71.8651 37.7479 72.1195 37.5375 72.3777 37.4254C72.6358 37.3134 72.8814 37.2736 73.1129 37.3059C73.2218 37.3159 73.3623 37.3483 73.5344 37.403C73.7065 37.4578 73.8862 37.5163 74.0735 37.5773C74.2608 37.6383 74.4405 37.6956 74.6126 37.7479C74.7847 37.8002 74.9252 37.8313 75.034 37.8413C75.0923 37.8363 75.1277 37.84 75.1429 37.8512C75.1581 37.8624 75.1619 37.8973 75.1568 37.9533L74.8303 41.2873C74.8252 41.3433 74.8138 41.3756 74.7974 41.3844C74.7809 41.3931 74.7442 41.3893 74.6885 41.3744C74.5797 41.3644 74.4392 41.3682 74.2646 41.3881C74.09 41.408 73.9102 41.4304 73.7255 41.4566C73.5407 41.4827 73.3597 41.5064 73.1863 41.5288C73.0117 41.5512 72.87 41.5562 72.7624 41.5462C72.5915 41.535 72.4384 41.4952 72.3043 41.4254C72.1701 41.3557 72.0524 41.2748 71.9524 41.1802C71.8525 41.0856 71.7689 40.9835 71.7044 40.8714C71.6399 40.7594 71.593 40.6573 71.5665 40.5615C71.5323 40.4345 71.5272 40.3187 71.5538 40.2141C71.5728 40.1182 71.6234 39.9938 71.7031 39.8394C71.7829 39.685 71.8778 39.5369 71.9853 39.3925C72.0929 39.2493 72.2094 39.1273 72.3346 39.0289C72.4587 38.9306 72.5751 38.8907 72.6827 38.9119C72.7282 38.9219 72.7788 38.9455 72.832 38.9841C72.8852 39.0227 72.937 39.0675 72.9877 39.1186C73.037 39.1696 73.0864 39.2244 73.1357 39.2829C73.1851 39.3414 73.2294 39.3987 73.2711 39.4535C73.3407 39.5418 73.3964 39.6277 73.4369 39.7112C73.4774 39.7946 73.5002 39.878 73.5027 39.9601C73.5053 40.0423 73.485 40.1207 73.4407 40.1967C73.3964 40.2726 73.3243 40.3461 73.2231 40.4183C73.1876 40.4046 73.1446 40.3772 73.094 40.3374C73.0433 40.2963 72.9953 40.2515 72.951 40.2004C72.9067 40.1494 72.8636 40.0971 72.8257 40.0423C72.7864 39.9875 72.7611 39.944 72.7485 39.9116C72.7409 39.8854 72.7421 39.863 72.751 39.8469C72.7611 39.8294 72.7788 39.822 72.8042 39.8244C72.8877 39.7759 72.9459 39.7199 72.9813 39.6564C73.0155 39.5929 73.0155 39.5369 72.9788 39.4871L72.9775 39.4858Z" fill="white"/>
<path d="M78.1688 37.8536C78.2612 37.8698 78.3422 37.9022 78.4118 37.9482C78.4814 37.9956 78.5396 38.0466 78.5851 38.1001C78.6307 38.1549 78.6674 38.2047 78.6965 38.2483C78.7256 38.2931 78.7433 38.323 78.7522 38.3404L78.3308 41.703C78.3232 41.759 78.3118 41.7914 78.2953 41.7989C78.2789 41.8076 78.2422 41.8026 78.1878 41.7852C78.0751 41.7665 77.9701 41.7702 77.8726 41.7976C77.7752 41.825 77.6803 41.8524 77.5879 41.8823C77.4841 41.9209 77.3879 41.9532 77.3006 41.9781C77.2133 42.0043 77.1133 42.0092 76.9994 41.9955C76.8197 41.9731 76.64 41.886 76.4628 41.7341C76.2857 41.581 76.1287 41.398 75.9946 41.1826C75.8592 40.9685 75.7567 40.7406 75.687 40.5004C75.6174 40.2601 75.6023 40.0447 75.6428 39.8543C75.6668 39.7447 75.7237 39.6202 75.8111 39.4808C75.8997 39.3426 75.9895 39.2243 76.0832 39.1272C76.1768 39.0301 76.254 38.9741 76.316 38.9591C76.378 38.943 76.3907 39.0027 76.3527 39.1372C76.3122 39.2505 76.2958 39.3874 76.3059 39.548C76.3148 39.7086 76.3413 39.8767 76.3882 40.0522C76.4337 40.2277 76.4957 40.402 76.5742 40.5763C76.6514 40.7506 76.74 40.905 76.8374 41.0407C76.9349 41.1764 77.0437 41.2859 77.1614 41.3693C77.2791 41.4528 77.4006 41.4926 77.5271 41.4864L77.8701 38.7475C77.8764 38.6965 77.8726 38.6529 77.8587 38.6155C77.8448 38.5782 77.8271 38.5458 77.8043 38.5197C77.7815 38.4935 77.7575 38.4761 77.7322 38.4649C77.7069 38.4537 77.6866 38.45 77.6714 38.4537C77.6094 38.4462 77.5613 38.4612 77.5284 38.4985C77.4955 38.5359 77.4765 38.5819 77.4715 38.6379C77.4664 38.694 77.4791 38.7537 77.5082 38.816C77.5373 38.8782 77.5803 38.9342 77.636 38.9828C77.6664 38.9865 77.6752 39.0002 77.6626 39.0251C77.6474 39.065 77.6208 39.1085 77.5828 39.1583C77.5449 39.2081 77.5018 39.2529 77.4525 39.2928C77.4031 39.3326 77.3525 39.3625 77.3006 39.3824C77.2487 39.4023 77.2006 39.3986 77.1563 39.3725C77.1272 39.3588 77.0969 39.3314 77.0678 39.2928C77.0386 39.2529 77.0146 39.2131 76.9969 39.172C76.9779 39.1309 76.964 39.0936 76.9526 39.0587C76.9412 39.0239 76.9361 39.004 76.9374 38.999C76.9336 38.9828 76.9551 38.943 76.9994 38.8795C77.0437 38.816 77.1019 38.74 77.1728 38.6529C77.2437 38.5657 77.3259 38.4736 77.4196 38.374C77.5132 38.2744 77.6069 38.186 77.7005 38.1064C77.7942 38.0279 77.8815 37.9619 77.965 37.9109C78.0486 37.8599 78.1169 37.8387 78.1726 37.8511L78.1688 37.8536Z" fill="white"/>
<path d="M49.1967 46.0779C49.1473 46.0642 49.103 46.053 49.0638 46.0455C49.0246 46.0368 48.9904 46.0355 48.9587 46.0393C48.9271 46.043 48.898 46.0542 48.8702 46.0716C48.8423 46.0891 48.8132 46.1189 48.7828 46.1588C48.7474 46.2023 48.717 46.2497 48.6942 46.3007C48.6702 46.3517 48.6651 46.4028 48.6753 46.4513C48.6803 46.4899 48.6968 46.5323 48.7234 46.5796C48.7499 46.6269 48.7803 46.6779 48.8145 46.7327C48.8486 46.7875 48.8853 46.8447 48.922 46.9082C48.9587 46.9717 48.9942 47.034 49.0271 47.0999C49.0321 47.1074 49.0359 47.1161 49.0372 47.1224C49.0385 47.1298 49.0423 47.1373 49.0473 47.1448C49.0613 47.1099 49.0777 47.0713 49.0992 47.0302C49.1195 46.9892 49.1423 46.9506 49.165 46.9145C49.1891 46.8784 49.2119 46.846 49.2359 46.8186C49.2587 46.7912 49.2802 46.7738 49.3004 46.7663C49.3308 46.7551 49.3625 46.7576 49.3979 46.7725C49.4321 46.7875 49.4662 46.8086 49.5017 46.836C49.5358 46.8634 49.5675 46.8933 49.5941 46.9282C49.6219 46.9618 49.6421 46.9941 49.6561 47.024C49.6586 47.0539 49.651 47.085 49.6333 47.1161C49.6156 47.1473 49.5928 47.1759 49.5675 47.2033C49.5409 47.2307 49.5143 47.2543 49.4852 47.2742C49.4561 47.2942 49.4321 47.3091 49.4131 47.3166C49.3992 47.3278 49.3865 47.3253 49.3764 47.3091C49.3738 47.2842 49.365 47.2581 49.3498 47.2282C49.3346 47.1983 49.3169 47.1734 49.2966 47.1547C49.2764 47.1361 49.2549 47.1261 49.2321 47.1261C49.2093 47.1261 49.1891 47.1423 49.1701 47.1746C49.1612 47.1908 49.1511 47.2195 49.1397 47.2605C49.1283 47.3016 49.1169 47.339 49.1093 47.3751C49.1119 47.4734 49.0739 47.5693 48.9929 47.6639C48.9676 47.6938 48.9372 47.7262 48.9018 47.761C48.8664 47.7959 48.8271 47.8307 48.7879 47.8631C48.7487 47.8955 48.7069 47.9253 48.6639 47.9502C48.6208 47.9751 48.5804 47.9926 48.5424 48.0013C48.4348 47.9826 48.3665 47.9515 48.3374 47.9092C48.3083 47.8668 48.2994 47.8233 48.3121 47.7772C48.3247 47.7311 48.3488 47.6876 48.3867 47.6465C48.4247 47.6054 48.4538 47.5768 48.4753 47.5606C48.5006 47.5307 48.5196 47.5207 48.5335 47.5319C48.5474 47.5431 48.5525 47.5593 48.55 47.5805C48.55 47.6129 48.5626 47.6427 48.5892 47.6676C48.6158 47.6938 48.6424 47.71 48.6715 47.7187C48.7006 47.7262 48.7259 47.7249 48.7461 47.7125C48.7664 47.7 48.7714 47.6714 48.7601 47.6253C48.755 47.5979 48.7461 47.5705 48.7335 47.5419C48.7208 47.5133 48.7082 47.4884 48.6942 47.4672C48.65 47.3888 48.5993 47.3079 48.5436 47.2269C48.4867 47.146 48.4373 47.0651 48.3931 46.9867C48.3488 46.9082 48.3184 46.8335 48.2994 46.7626C48.2817 46.6916 48.2867 46.6269 48.3146 46.5671C48.3336 46.5123 48.3627 46.4551 48.4019 46.3941C48.4399 46.3331 48.4816 46.2746 48.5259 46.2185C48.5702 46.1625 48.6107 46.114 48.6474 46.0716C48.6841 46.0293 48.7094 46.0019 48.7234 45.9882C48.817 45.8936 48.9132 45.8264 49.0106 45.7865C49.1081 45.7467 49.2043 45.7305 49.2979 45.7355C49.3561 45.7355 49.4219 45.7455 49.4966 45.7654C49.5713 45.7853 49.6459 45.8077 49.7219 45.8301C49.7978 45.8538 49.8725 45.8737 49.9446 45.8936C50.018 45.9123 50.0838 45.9222 50.1408 45.9222C50.1737 45.9173 50.1939 45.9173 50.2002 45.9222C50.2066 45.9272 50.2104 45.9459 50.2104 45.9758V47.4012C50.2104 47.4448 50.2167 47.4834 50.2294 47.517C50.242 47.5506 50.2686 47.5817 50.3103 47.6091C50.3268 47.6228 50.3268 47.6378 50.3103 47.654C50.2914 47.6726 50.2736 47.6975 50.2559 47.7274C50.2395 47.7573 50.223 47.7872 50.2066 47.817C50.1901 47.8469 50.1724 47.8756 50.1522 47.9029C50.1332 47.9303 50.1104 47.9515 50.0863 47.9677C50.0256 48.005 49.9636 48.005 49.9003 47.9677C49.851 47.9378 49.8117 47.9017 49.7826 47.8594C49.7535 47.817 49.7168 47.7772 49.6725 47.7386C49.6637 47.7199 49.6637 47.705 49.6725 47.6938C49.7143 47.6664 49.7409 47.6365 49.7535 47.6017C49.7662 47.568 49.7725 47.5282 49.7725 47.4821V46.3007C49.7282 46.2957 49.6839 46.2833 49.6383 46.2646C49.5928 46.2459 49.5472 46.2248 49.5017 46.2036C49.4561 46.1824 49.408 46.16 49.3587 46.1364C49.3093 46.114 49.2549 46.094 49.1967 46.0779Z" fill="white"/>
<path d="M50.6444 47.6664C50.6836 47.6154 50.7229 47.5656 50.7621 47.5183C50.8026 47.471 50.8342 47.4399 50.8595 47.4262C50.8785 47.4175 50.9064 47.4237 50.9418 47.4448C50.9772 47.4648 51.0127 47.4909 51.0468 47.522C51.081 47.5532 51.1114 47.5855 51.138 47.6179C51.1645 47.6503 51.1772 47.6739 51.1772 47.6876C51.1772 47.7038 51.1709 47.7262 51.1569 47.7524C51.143 47.7785 51.1266 47.8071 51.1051 47.8358C51.0848 47.8644 51.062 47.8918 51.0367 47.9167C51.0114 47.9416 50.9886 47.9615 50.9658 47.9752C50.9405 47.9939 50.914 48.0013 50.8848 47.9976C50.8557 47.9939 50.8279 47.9839 50.8001 47.9677C50.7722 47.9515 50.7456 47.9316 50.7191 47.9067C50.6925 47.8818 50.6697 47.8582 50.6507 47.8333C50.6204 47.7984 50.6039 47.771 50.6014 47.7536C50.5988 47.7362 50.6128 47.7063 50.6431 47.6664H50.6444Z" fill="white"/>
<path d="M52.3543 46.0778C52.3049 46.0641 52.2606 46.0529 52.2214 46.0454C52.1821 46.0367 52.148 46.0355 52.1163 46.0392C52.0847 46.0429 52.0543 46.0541 52.0277 46.0716C52.0012 46.089 51.9708 46.1189 51.9404 46.1587C51.905 46.2023 51.8746 46.2496 51.8518 46.3006C51.8291 46.3517 51.8227 46.4027 51.8328 46.4513C51.8379 46.4899 51.8544 46.5322 51.8809 46.5795C51.9075 46.6268 51.9379 46.6779 51.9721 46.7326C52.0062 46.7874 52.0429 46.8447 52.0796 46.9082C52.1176 46.9704 52.1518 47.0339 52.1847 47.0999C52.1872 47.1074 52.1897 47.1161 52.1935 47.1223C52.1961 47.1298 52.1999 47.1372 52.2062 47.1447C52.2201 47.1099 52.2366 47.0713 52.2581 47.0302C52.2796 46.9891 52.3011 46.9505 52.3239 46.9144C52.3467 46.8783 52.3707 46.8459 52.3947 46.8185C52.4175 46.7912 52.439 46.7737 52.4593 46.7663C52.4897 46.7551 52.5213 46.7575 52.5567 46.7725C52.5909 46.7874 52.6251 46.8086 52.6605 46.836C52.6947 46.8634 52.7263 46.8932 52.7542 46.9281C52.782 46.9617 52.8023 46.9941 52.8162 47.024C52.8187 47.0538 52.8111 47.085 52.7934 47.1161C52.7757 47.1472 52.7529 47.1758 52.7276 47.2032C52.701 47.2306 52.6732 47.2543 52.6441 47.2742C52.615 47.2941 52.5909 47.3091 52.5719 47.3165C52.558 47.3277 52.5453 47.3252 52.534 47.3091C52.5314 47.2842 52.5226 47.258 52.5074 47.2281C52.4922 47.1982 52.4745 47.1734 52.453 47.1547C52.4327 47.136 52.4112 47.126 52.3884 47.126C52.3656 47.126 52.3454 47.1422 52.3264 47.1746C52.3188 47.1908 52.3074 47.2194 52.296 47.2605C52.2846 47.3016 52.2733 47.3389 52.2657 47.375C52.2682 47.4734 52.2302 47.5692 52.1492 47.6639C52.1239 47.6937 52.0935 47.7261 52.0581 47.761C52.0227 47.7958 51.9834 47.8307 51.9442 47.863C51.905 47.8954 51.8632 47.9253 51.8202 47.9502C51.7772 47.9763 51.7367 47.9925 51.6974 48.0012C51.5899 47.9826 51.5215 47.9514 51.4924 47.9091C51.4633 47.8668 51.4557 47.8232 51.4671 47.7771C51.4785 47.7311 51.5038 47.6875 51.5418 47.6464C51.5797 47.6053 51.6088 47.5767 51.6304 47.5605C51.6557 47.5307 51.6747 47.5207 51.6886 47.5319C51.7025 47.5431 51.7076 47.5593 51.705 47.5804C51.705 47.6128 51.7177 47.6427 51.7443 47.6676C51.7708 47.6925 51.7987 47.7099 51.8265 47.7186C51.8556 47.7261 51.8809 47.7249 51.9012 47.7124C51.9214 47.7 51.9265 47.6713 51.9164 47.6253C51.9113 47.5979 51.9012 47.5705 51.8898 47.5419C51.8784 47.5132 51.8645 47.4883 51.8506 47.4672C51.8063 47.3887 51.7556 47.3078 51.7 47.2269C51.643 47.146 51.5937 47.065 51.5494 46.9866C51.5051 46.9082 51.4747 46.8335 51.457 46.7625C51.4393 46.6916 51.4431 46.6268 51.4722 46.5671C51.4912 46.5123 51.5203 46.455 51.5595 46.394C51.5987 46.333 51.6392 46.2745 51.6835 46.2185C51.7278 46.1625 51.7683 46.1139 51.805 46.0716C51.8417 46.0293 51.8683 46.0019 51.8809 45.9882C51.9746 45.8936 52.0708 45.8263 52.1682 45.7865C52.2657 45.7466 52.3618 45.7305 52.4555 45.7354C52.5112 45.7354 52.5745 45.7454 52.6453 45.7641C52.7175 45.7828 52.7921 45.8039 52.8693 45.8251C52.944 45.8251 53.0199 45.8126 53.0971 45.789C53.1743 45.7641 53.2452 45.7342 53.3097 45.6969C53.3743 45.6607 53.4287 45.6197 53.473 45.5748C53.5173 45.53 53.5451 45.4852 53.5565 45.4379C53.5616 45.4105 53.5451 45.3968 53.5072 45.3968C53.4932 45.3943 53.4856 45.3831 53.4819 45.3645C53.4793 45.3458 53.4819 45.3321 53.4856 45.3234C53.511 45.3072 53.5388 45.291 53.5704 45.2748C53.6021 45.2586 53.635 45.2437 53.6704 45.23C53.7046 45.2163 53.7375 45.2051 53.7704 45.1976C53.802 45.1889 53.8286 45.1852 53.8514 45.1852C53.8792 45.1852 53.9007 45.1951 53.9172 45.2163C53.9337 45.2362 53.9463 45.2611 53.9539 45.2898C53.9628 45.3184 53.9666 45.347 53.9691 45.3769C53.9691 45.4068 53.9691 45.4317 53.9666 45.4504C53.9412 45.5288 53.8957 45.5973 53.8299 45.6545C53.7641 45.7118 53.6881 45.7591 53.6021 45.7964C53.516 45.8338 53.4262 45.8637 53.3325 45.8836C53.2389 45.9035 53.1541 45.9184 53.0807 45.9259C53.1199 45.9371 53.1579 45.9458 53.1971 45.9521C53.2363 45.9583 53.2705 45.962 53.3009 45.962C53.3338 45.957 53.354 45.957 53.3604 45.962C53.3667 45.967 53.3705 45.9857 53.3705 46.0156V47.3999C53.3705 47.4435 53.3768 47.4821 53.3895 47.5157C53.4021 47.5493 53.4287 47.5804 53.4705 47.6078C53.4869 47.6215 53.4869 47.6365 53.4705 47.6527C53.4515 47.6713 53.4338 47.6962 53.416 47.7261C53.3996 47.756 53.3831 47.7859 53.3667 47.8157C53.3502 47.8456 53.3325 47.8743 53.3123 47.9016C53.2933 47.929 53.2705 47.9502 53.2465 47.9664C53.1857 48.0037 53.1237 48.0037 53.0604 47.9664C53.0111 47.9365 52.9718 47.9004 52.9427 47.8581C52.9136 47.8157 52.8769 47.7759 52.8326 47.7373C52.825 47.7186 52.825 47.7037 52.8326 47.6925C52.8744 47.6651 52.901 47.6352 52.9136 47.6004C52.9263 47.5668 52.9326 47.5269 52.9326 47.4809V46.2994C52.8883 46.2944 52.844 46.282 52.7985 46.2633C52.7529 46.2446 52.7073 46.2235 52.6618 46.2023C52.6162 46.1811 52.5681 46.1587 52.5188 46.1351C52.4694 46.1127 52.415 46.0927 52.3568 46.0766L52.3543 46.0778Z" fill="white"/>
<path d="M53.7906 47.6664C53.8299 47.6154 53.8691 47.5656 53.9083 47.5183C53.9488 47.471 53.9805 47.4399 54.0058 47.4262C54.0248 47.4175 54.0526 47.4237 54.088 47.4448C54.1235 47.4648 54.1589 47.4909 54.1931 47.522C54.2272 47.5532 54.2576 47.5855 54.2842 47.6179C54.3108 47.6503 54.3234 47.6739 54.3234 47.6876C54.3234 47.7038 54.3171 47.7262 54.3032 47.7524C54.2893 47.7785 54.2728 47.8071 54.2513 47.8358C54.231 47.8644 54.2083 47.8918 54.183 47.9167C54.1576 47.9416 54.1349 47.9615 54.1121 47.9752C54.0868 47.9939 54.0602 48.0013 54.0311 47.9976C54.002 47.9939 53.9741 47.9839 53.9463 47.9677C53.9185 47.9515 53.8919 47.9316 53.8653 47.9067C53.8387 47.8818 53.8159 47.8582 53.797 47.8333C53.7666 47.7984 53.7501 47.771 53.7476 47.7536C53.7451 47.7362 53.759 47.7063 53.7894 47.6664H53.7906Z" fill="white"/>
<path d="M56.6546 46.79C56.6951 46.836 56.7369 46.8808 56.7799 46.9207C56.8242 46.9618 56.8685 46.9941 56.9128 47.0178C56.9583 47.0414 57.0026 47.0539 57.0457 47.0551C57.0899 47.0564 57.1279 47.0414 57.1608 47.0091C57.1861 46.9916 57.1975 46.9705 57.1963 46.9468C57.195 46.9232 57.1849 46.9008 57.1684 46.8796C57.152 46.8584 57.1317 46.8398 57.1089 46.8236C57.0849 46.8074 57.0684 46.7999 57.057 46.7999C57.0393 46.7962 57.0317 46.7887 57.0355 46.7788C57.0469 46.7576 57.0646 46.7327 57.0899 46.7065C57.1153 46.6804 57.1444 46.6555 57.1773 46.6343C57.2102 46.6132 57.2443 46.5957 57.281 46.5833C57.3177 46.5708 57.3494 46.5696 57.3785 46.5808C57.3962 46.5883 57.4165 46.602 57.4354 46.6206C57.4557 46.6406 57.4734 46.6617 57.4899 46.6854C57.5063 46.709 57.5202 46.7302 57.5304 46.7501C57.5417 46.77 57.5468 46.7812 57.5468 46.785C57.5544 46.7962 57.5291 46.8323 57.4709 46.8945C57.4127 46.9568 57.3405 47.0253 57.2557 47.0987C57.1697 47.1722 57.0824 47.2369 56.9938 47.2942C56.9052 47.3514 56.8305 47.3801 56.7736 47.3801C56.7153 47.3838 56.6546 47.3738 56.5913 47.3502C56.528 47.3265 56.466 47.2917 56.4066 47.2431C56.3471 47.1946 56.2914 47.1348 56.2408 47.0638C56.1901 46.9929 56.1484 46.912 56.1155 46.8223C56.1231 46.7153 56.1572 46.5995 56.2193 46.4762C56.2813 46.353 56.3623 46.2409 56.4622 46.1388C56.5622 46.0368 56.6748 45.9534 56.8001 45.8874C56.9254 45.8214 57.052 45.7903 57.1785 45.794C57.3051 45.794 57.4329 45.8114 57.5595 45.8475C57.686 45.8836 57.8024 45.9397 57.9088 46.0168C58.0138 46.094 58.1049 46.1924 58.1808 46.3119C58.2568 46.4314 58.3099 46.5771 58.339 46.7489C58.3606 46.8846 58.3492 47.0116 58.3036 47.1298C58.258 47.2481 58.1922 47.3552 58.1049 47.451C58.0176 47.5469 57.9163 47.6328 57.7999 47.7087C57.6835 47.7847 57.5658 47.8469 57.4456 47.8967C57.3367 47.9428 57.2228 47.9739 57.1051 47.9876C56.9874 48.0013 56.871 48.0038 56.7558 47.9926C56.6419 47.9814 56.5306 47.959 56.423 47.9253C56.3154 47.8917 56.2167 47.8482 56.1256 47.7946C56.1104 47.7548 56.1256 47.7237 56.1699 47.6988C56.2104 47.6739 56.2484 47.6403 56.2876 47.5967C56.3256 47.5544 56.361 47.5145 56.3939 47.4784C56.4192 47.4386 56.4508 47.4236 56.4863 47.4299C56.523 47.4373 56.5534 47.4498 56.5787 47.4672C56.6774 47.5382 56.7736 47.5917 56.8672 47.6278C56.9621 47.6639 57.076 47.6851 57.2102 47.6925C57.276 47.6888 57.3431 47.6788 57.4152 47.6602C57.4861 47.6427 57.5531 47.6141 57.6164 47.5743C57.6797 47.5344 57.7341 47.4846 57.7771 47.4211C57.8214 47.3589 57.8442 47.283 57.848 47.1933C57.8556 47.0539 57.8316 46.9169 57.7746 46.78C57.7177 46.6443 57.6443 46.5248 57.5531 46.4202C57.462 46.3169 57.362 46.2322 57.2532 46.1687C57.1444 46.104 57.0393 46.0754 56.9368 46.0828C56.8748 46.0903 56.8191 46.109 56.771 46.1388C56.7217 46.1687 56.6799 46.2098 56.6432 46.2596C56.5673 46.3629 56.5356 46.46 56.5483 46.5497C56.5609 46.6393 56.5964 46.719 56.6546 46.7912V46.79Z" fill="white"/>
<path d="M60.3056 47.4435C60.2904 47.4074 60.2626 47.3439 60.2208 47.2506C60.1791 47.1572 60.1285 47.0539 60.0715 46.9393C60.0133 46.8248 59.9488 46.7127 59.8779 46.6019C59.807 46.4911 59.7349 46.4015 59.6602 46.3343C59.5855 46.2671 59.5134 46.2297 59.4451 46.2247C59.3755 46.2198 59.3147 46.2671 59.2603 46.3667C59.2059 46.4488 59.1654 46.5484 59.1401 46.6642C59.1148 46.78 59.111 46.8833 59.1287 46.9729C59.1578 47.1236 59.2173 47.2493 59.3059 47.3514C59.3944 47.4535 59.4754 47.5369 59.5488 47.6004C59.5893 47.6365 59.6286 47.6577 59.6691 47.6651C59.7096 47.6726 59.7437 47.6614 59.7728 47.6328C59.7981 47.6191 59.8083 47.5992 59.8032 47.5743C59.7981 47.5494 59.7855 47.5257 59.7678 47.502C59.7501 47.4784 59.7273 47.4585 59.702 47.441C59.6767 47.4236 59.6577 47.4137 59.6476 47.4137C59.626 47.4137 59.6197 47.4062 59.6311 47.3925C59.6425 47.3751 59.6589 47.3527 59.683 47.3253C59.707 47.2979 59.7336 47.2742 59.7652 47.2531C59.7969 47.2319 59.8285 47.2145 59.864 47.202C59.8981 47.1896 59.9298 47.1883 59.9589 47.1995C59.9766 47.207 59.9981 47.2207 60.0209 47.2394C60.0449 47.2593 60.0664 47.2804 60.0867 47.3041C60.1069 47.3278 60.1209 47.3539 60.131 47.3825C60.1398 47.4112 60.1411 47.4361 60.1335 47.4572C60.1158 47.5033 60.0766 47.5593 60.0158 47.624C59.9563 47.6888 59.888 47.7485 59.8121 47.8033C59.7361 47.8593 59.6589 47.9054 59.583 47.9428C59.5071 47.9801 59.4425 47.9975 59.3919 47.9938C59.3261 47.9901 59.2565 47.9664 59.1818 47.9241C59.1072 47.8818 59.0376 47.8257 58.9718 47.7585C58.9059 47.6913 58.8503 47.6128 58.8034 47.5257C58.7566 47.4386 58.7275 47.3502 58.7161 47.2605C58.7123 47.2033 58.7224 47.1273 58.7465 47.0327C58.7705 46.9381 58.8034 46.836 58.8477 46.7264C58.8908 46.6169 58.9414 46.5073 58.9996 46.3965C59.0578 46.2857 59.1186 46.1861 59.1818 46.099C59.2451 46.0118 59.3071 45.9396 59.3666 45.8849C59.4261 45.8301 59.4818 45.8039 59.5324 45.8077C59.688 45.794 59.8298 45.8288 59.9551 45.9147C60.0804 46.0006 60.1917 46.1114 60.2904 46.2471C60.3044 46.2397 60.3309 46.2297 60.3689 46.2148C60.4069 46.2011 60.4474 46.1836 60.4891 46.1637C60.5309 46.1438 60.5676 46.1239 60.598 46.1015C60.6283 46.0803 60.6435 46.0567 60.6435 46.0318C60.622 45.9857 60.5954 45.9384 60.5651 45.8898C60.5347 45.8413 60.5056 45.7927 60.4777 45.7429C60.4499 45.6931 60.4271 45.6421 60.4069 45.5898C60.3866 45.5375 60.3765 45.4852 60.3765 45.4317C60.3765 45.3819 60.3828 45.3321 60.3955 45.2848C60.4081 45.2362 60.4271 45.1927 60.4524 45.1541C60.4777 45.1155 60.5069 45.0831 60.5398 45.0582C60.5727 45.0333 60.6106 45.0209 60.6537 45.0209C60.7005 45.0209 60.7448 45.0333 60.7853 45.0582C60.8258 45.0831 60.8625 45.1142 60.8966 45.1491C60.9308 45.1852 60.9637 45.2226 60.9954 45.2611C61.027 45.2997 61.0561 45.3346 61.0852 45.3632C61.1029 45.3807 61.1029 45.4006 61.0852 45.4217C61.0308 45.4578 60.9954 45.4977 60.9789 45.5425C60.9625 45.5873 60.9549 45.6384 60.9549 45.6956V45.9371C60.9511 46.0803 60.8979 46.1886 60.7967 46.2621C60.6942 46.3355 60.5663 46.3916 60.4094 46.4314C60.5107 46.5957 60.598 46.7638 60.6676 46.9356C60.7384 47.1074 60.7979 47.2481 60.8448 47.3589C60.8625 47.4049 60.889 47.4473 60.9207 47.4846C60.9536 47.522 61.0042 47.5556 61.0738 47.5842C61.0953 47.5954 61.1029 47.6104 61.0953 47.6328C61.0776 47.6539 61.0637 47.6801 61.0548 47.71C61.046 47.7398 61.0371 47.7722 61.0295 47.8071C61.0219 47.8407 61.0131 47.8718 61.0004 47.9004C60.9878 47.9291 60.9688 47.9527 60.9435 47.9701C60.8777 48.0125 60.7941 48.0125 60.6929 47.9701C60.6132 47.9378 60.5448 47.8992 60.4879 47.8519C60.4309 47.8046 60.3651 47.7622 60.2892 47.7236C60.2715 47.7062 60.2651 47.69 60.2727 47.6751C60.3132 47.6465 60.3335 47.6128 60.3347 47.5755C60.336 47.5381 60.3271 47.4958 60.3044 47.4498L60.3056 47.4435Z" fill="white"/>
<path d="M61.9623 47.2879C61.9876 47.324 62.023 47.3639 62.0686 47.4087C62.1142 47.4535 62.1648 47.4946 62.2217 47.5319C62.2787 47.5693 62.3356 47.5992 62.3938 47.6203C62.4521 47.6415 62.5052 47.6477 62.552 47.6365C62.5698 47.6291 62.59 47.6228 62.6115 47.6178C62.633 47.6129 62.6558 47.6066 62.6773 47.5992C62.6368 47.5058 62.6179 47.3938 62.6179 47.2618C62.6583 47.1796 62.7001 47.1049 62.7431 47.0389C62.7874 46.973 62.8355 46.912 62.8899 46.8572C62.9444 46.8024 63.0051 46.7501 63.0722 46.7016C63.1393 46.653 63.2165 46.6057 63.3038 46.5596C63.3481 46.5484 63.3936 46.5497 63.443 46.5621C63.4923 46.5746 63.5379 46.5945 63.5822 46.6207C63.6265 46.648 63.6645 46.6804 63.6974 46.7202C63.7303 46.7601 63.7518 46.8012 63.7632 46.8435C63.7746 46.8796 63.7568 46.9244 63.7113 46.9779C63.6657 47.0315 63.6126 47.0726 63.5506 47.1012C63.5392 47.1049 63.5252 47.1087 63.5063 47.1149C63.4873 47.1211 63.4696 47.1224 63.4518 47.1224C63.4341 47.1224 63.4164 47.1211 63.4 47.1174C63.3835 47.1136 63.3734 47.1049 63.3696 47.09C63.362 47.0726 63.362 47.0601 63.3671 47.0526C63.3721 47.0452 63.3696 47.0327 63.3595 47.0153C63.3379 46.9755 63.319 46.9481 63.3025 46.9319C63.2861 46.9157 63.2696 46.9008 63.2506 46.8858C63.2177 46.8647 63.1886 46.8559 63.1608 46.8622C63.1329 46.8684 63.1089 46.8796 63.0874 46.8995C63.0659 46.9194 63.0456 46.9418 63.0279 46.9692C63.0102 46.9966 62.995 47.0215 62.9836 47.0464C63.0089 47.1398 63.0456 47.2244 63.0924 47.3016C63.1393 47.3788 63.1937 47.4411 63.2557 47.4896C63.3177 47.5382 63.3835 47.5681 63.4544 47.5805C63.5252 47.593 63.5936 47.583 63.6594 47.5506C63.6809 47.5357 63.7062 47.5357 63.7353 47.5506C63.7644 47.5656 63.7758 47.5867 63.7682 47.6154C63.7353 47.715 63.6796 47.7959 63.6024 47.8569C63.524 47.9179 63.4329 47.9639 63.3266 47.9963C63.2063 47.9888 63.1038 47.9677 63.019 47.9316C62.9342 47.8955 62.8634 47.8494 62.8089 47.7921C62.7647 47.8133 62.7115 47.8357 62.6482 47.8594C62.5849 47.883 62.5191 47.9054 62.4521 47.9266C62.385 47.9478 62.3192 47.9652 62.2559 47.9776C62.1926 47.9901 62.1407 47.9963 62.1002 47.9963C61.8383 47.9104 61.6548 47.8046 61.5472 47.6776C61.4396 47.5506 61.3865 47.4099 61.3865 47.2568C61.3865 47.1385 61.4118 47.0165 61.4624 46.8896C61.513 46.7626 61.5801 46.6331 61.6636 46.5011C61.7763 46.3293 61.8952 46.1812 62.0205 46.0567C62.1458 45.9322 62.2635 45.8475 62.3723 45.8052H63.4025C63.3848 45.7766 63.362 45.7467 63.3367 45.7168C63.3114 45.6869 63.2861 45.6558 63.2633 45.6235C63.2405 45.5911 63.219 45.5587 63.2038 45.5263C63.1873 45.494 63.1785 45.4616 63.1785 45.4305C63.1785 45.3807 63.1848 45.3309 63.1975 45.2836C63.2101 45.235 63.2278 45.1915 63.2519 45.1529C63.2759 45.1143 63.305 45.0819 63.3392 45.057C63.3734 45.0321 63.4126 45.0197 63.4569 45.0197C63.5037 45.0197 63.5468 45.0321 63.5847 45.057C63.6227 45.0819 63.6594 45.113 63.6936 45.1479C63.7277 45.184 63.7606 45.2213 63.7923 45.2599C63.8226 45.2998 63.8543 45.3334 63.8872 45.362C63.9011 45.3832 63.9011 45.4031 63.8872 45.4205C63.8328 45.4566 63.7961 45.4965 63.7784 45.5413C63.7606 45.5861 63.7505 45.6371 63.7505 45.6944C63.7429 45.7554 63.7151 45.8226 63.6657 45.8961C63.6164 45.9695 63.5619 46.0368 63.4999 46.0965C63.4379 46.1575 63.3772 46.2086 63.3177 46.2521C63.2582 46.2957 63.2139 46.3169 63.1848 46.3169H62.1547C62.1078 46.3169 62.0572 46.3455 62.0053 46.4028C61.9534 46.4601 61.9028 46.5273 61.856 46.607C61.8307 46.6493 61.8155 46.7003 61.8104 46.7601C61.8054 46.8186 61.8079 46.8796 61.818 46.9418C61.8294 47.0041 61.8471 47.0663 61.8724 47.1273C61.8978 47.1883 61.9294 47.2431 61.9648 47.2929L61.9623 47.2879Z" fill="white"/>
<path d="M64.7807 47.2879C64.806 47.324 64.8414 47.3639 64.887 47.4087C64.9325 47.4535 64.9831 47.4946 65.0401 47.5319C65.097 47.5693 65.154 47.5992 65.2122 47.6203C65.2704 47.6415 65.3236 47.6477 65.3704 47.6365C65.3881 47.6291 65.4084 47.6228 65.4299 47.6178C65.4514 47.6129 65.4742 47.6066 65.4957 47.5992C65.4552 47.5058 65.4362 47.3938 65.4362 47.2618C65.4767 47.1796 65.5185 47.1049 65.5615 47.0389C65.6058 46.973 65.6539 46.912 65.7083 46.8572C65.7627 46.8024 65.8235 46.7501 65.8905 46.7016C65.9576 46.653 66.0348 46.6057 66.1221 46.5596C66.1664 46.5484 66.212 46.5497 66.2613 46.5621C66.3107 46.5746 66.3563 46.5945 66.4006 46.6207C66.4448 46.648 66.4828 46.6804 66.5157 46.7202C66.5486 46.7601 66.5701 46.8012 66.5815 46.8435C66.5929 46.8796 66.5752 46.9244 66.5296 46.9779C66.4841 47.0315 66.4309 47.0726 66.3689 47.1012C66.3575 47.1049 66.3436 47.1087 66.3246 47.1149C66.3056 47.1211 66.2879 47.1224 66.2702 47.1224C66.2525 47.1224 66.2348 47.1211 66.2183 47.1174C66.2019 47.1136 66.1917 47.1049 66.1879 47.09C66.1804 47.0726 66.1803 47.0601 66.1854 47.0526C66.1905 47.0452 66.1879 47.0327 66.1778 47.0153C66.1563 46.9755 66.1373 46.9481 66.1209 46.9319C66.1044 46.9157 66.088 46.9008 66.069 46.8858C66.0361 46.8647 66.007 46.8559 65.9791 46.8622C65.9513 46.8684 65.9272 46.8796 65.9057 46.8995C65.8842 46.9194 65.864 46.9418 65.8462 46.9692C65.8285 46.9966 65.8133 47.0215 65.802 47.0464C65.8273 47.1398 65.864 47.2244 65.9108 47.3016C65.9576 47.3788 66.012 47.4411 66.074 47.4896C66.1361 47.5382 66.2019 47.5681 66.2727 47.5805C66.3436 47.593 66.4119 47.583 66.4778 47.5506C66.4993 47.5357 66.5246 47.5357 66.5537 47.5506C66.5828 47.5656 66.5942 47.5867 66.5866 47.6154C66.5537 47.715 66.498 47.7959 66.4208 47.8569C66.3423 47.9179 66.2512 47.9639 66.1449 47.9963C66.0247 47.9888 65.9222 47.9677 65.8374 47.9316C65.7526 47.8955 65.6817 47.8494 65.6273 47.7921C65.583 47.8133 65.5299 47.8357 65.4666 47.8594C65.4033 47.883 65.3375 47.9054 65.2704 47.9266C65.2034 47.9478 65.1375 47.9652 65.0743 47.9776C65.011 47.9901 64.9591 47.9963 64.9186 47.9963C64.6566 47.9104 64.4731 47.8046 64.3656 47.6776C64.258 47.5506 64.2048 47.4099 64.2048 47.2568C64.2048 47.1385 64.2301 47.0165 64.2808 46.8896C64.3314 46.7626 64.3985 46.6331 64.482 46.5011C64.5946 46.3293 64.7136 46.1812 64.8389 46.0567C64.9642 45.9322 65.0819 45.8475 65.1907 45.8052H66.2208C66.2031 45.7766 66.1803 45.7467 66.155 45.7168C66.1297 45.6869 66.1044 45.6558 66.0816 45.6235C66.0589 45.5911 66.0373 45.5587 66.0222 45.5263C66.0057 45.494 65.9968 45.4616 65.9968 45.4305C65.9968 45.3807 66.0032 45.3309 66.0158 45.2836C66.0285 45.235 66.0462 45.1915 66.0702 45.1529C66.0943 45.1143 66.1234 45.0819 66.1576 45.057C66.1917 45.0321 66.231 45.0197 66.2753 45.0197C66.3221 45.0197 66.3651 45.0321 66.4031 45.057C66.4411 45.0819 66.4778 45.113 66.5119 45.1479C66.5461 45.184 66.579 45.2213 66.6106 45.2599C66.641 45.2998 66.6727 45.3334 66.7056 45.362C66.7195 45.3832 66.7195 45.4031 66.7056 45.4205C66.6511 45.4566 66.6144 45.4965 66.5967 45.5413C66.579 45.5861 66.5689 45.6371 66.5689 45.6944C66.5613 45.7554 66.5334 45.8226 66.4841 45.8961C66.4347 45.9695 66.3803 46.0368 66.3183 46.0965C66.2563 46.1575 66.1955 46.2086 66.1361 46.2521C66.0766 46.2957 66.0323 46.3169 66.0032 46.3169H64.973C64.9262 46.3169 64.8756 46.3455 64.8237 46.4028C64.7718 46.4601 64.7212 46.5273 64.6744 46.607C64.649 46.6493 64.6339 46.7003 64.6288 46.7601C64.6237 46.8186 64.6263 46.8796 64.6364 46.9418C64.6478 47.0041 64.6655 47.0663 64.6908 47.1273C64.7161 47.1883 64.7478 47.2431 64.7832 47.2929L64.7807 47.2879Z" fill="white"/>
</g>
<defs>
<clipPath id="clip0_22_1271">
<rect width="115" height="48" fill="white"/>
</clipPath>
</defs>
</svg>
