<svg width="115" height="48" viewBox="0 0 115 48" fill="none" xmlns="http://www.w3.org/2000/svg">
<g clip-path="url(#clip0_177_75)">
<path d="M17.8732 12.9527C17.8403 12.6651 17.7897 12.5008 17.6986 12.4522C17.6151 12.4024 17.4316 12.4199 17.1392 12.502C16.5798 12.5518 15.837 12.5269 14.9119 12.4199C13.9855 12.3215 13.0173 12.1983 12.0074 12.0663C10.9975 11.9269 10.0294 11.8036 9.10428 11.6891C8.1779 11.5745 7.43503 11.5409 6.87692 11.5907C5.66706 11.648 4.4572 12.075 3.25493 12.888C2.04507 13.7009 0.960503 15.0056 0.0012207 16.812C0.226488 17.5677 0.560591 18.1167 1.00227 18.4777C1.43635 18.8313 1.90333 19.0529 2.39563 19.1264C2.88793 19.1998 3.36377 19.1587 3.83962 18.9956C4.3066 18.84 4.69133 18.6097 4.99126 18.3221C5.03302 18.2649 5.11655 18.1665 5.22539 18.0184C5.33422 17.8789 5.42534 17.7395 5.50887 17.6001C5.59239 17.4606 5.65061 17.3287 5.69237 17.2067C5.73414 17.0834 5.70123 17.01 5.59239 16.9938C5.19248 16.9776 4.80016 16.8954 4.44075 16.7398C4.07374 16.5842 3.76495 16.4111 3.52323 16.2057C3.27265 16.0003 3.11446 15.7949 3.03979 15.5895C2.96513 15.3841 3.02334 15.2123 3.21444 15.0554C3.39794 14.9073 3.73964 14.8176 4.21548 14.7927C4.69892 14.7603 5.36713 14.8251 6.21757 14.9894C6.7934 15.0965 7.42743 15.2359 8.13614 15.3915C8.83725 15.5559 9.53836 15.7115 10.2395 15.8596C10.9406 16.0152 11.6164 16.1472 12.2757 16.2779C12.9351 16.4012 13.4767 16.4746 13.9108 16.4908L15.1042 29.3859C14.6701 29.7146 14.1525 29.9437 13.5527 30.0756C12.9439 30.2151 12.3264 30.281 11.7088 30.281C11.2 30.2972 10.6242 30.2487 9.97371 30.1167C9.33081 29.9935 8.73094 29.7806 8.16271 29.4843C7.59575 29.1892 7.0946 28.8282 6.66937 28.4087C6.23529 27.9816 5.96826 27.4974 5.86828 26.9471C5.84297 26.7093 5.89359 26.3147 6.01888 25.7569C6.14417 25.2067 6.31882 24.6738 6.5618 24.1646C6.79593 23.648 7.06296 23.2372 7.35403 22.9172C7.64637 22.5973 7.96276 22.5562 8.31331 22.794C8.54744 23.0068 8.60565 23.2944 8.48796 23.648C8.37912 24.009 8.12855 24.3452 7.75394 24.6738C7.6198 24.6825 7.53754 24.7398 7.51223 24.8294C7.47932 24.9278 7.49577 25.0349 7.56285 25.1656C7.65523 25.3137 7.82988 25.5104 8.08045 25.7569C8.33103 25.9947 8.59806 26.225 8.87269 26.4379C9.14857 26.6508 9.43206 26.84 9.73199 26.9956C10.0243 27.16 10.2749 27.2583 10.466 27.2907C10.9077 26.8226 11.2 26.3794 11.3506 25.9611C11.5012 25.5341 11.5341 25.1158 11.4341 24.6975C11.3418 24.2866 11.1507 23.8845 10.8583 23.4986C10.5748 23.1127 10.2078 22.7267 9.76489 22.3408C9.49786 22.103 9.21438 21.8565 8.90559 21.6026C8.60566 21.3561 8.29686 21.1183 7.99566 20.9129C7.69573 20.7 7.38694 20.5195 7.07814 20.3788C6.76935 20.2306 6.49346 20.1572 6.25174 20.1485C5.68478 20.1485 5.133 20.4522 4.59894 21.0759C4.05602 21.6922 3.58904 22.4143 3.18027 23.2434C2.7715 24.0812 2.43739 24.9265 2.17922 25.7793C1.92105 26.6408 1.7869 27.3231 1.7869 27.8235C1.754 28.3813 1.88688 28.9639 2.18808 29.5801C2.42221 30.0321 2.75504 30.5163 3.18913 31.0168C3.62321 31.526 4.14841 31.9692 4.74954 32.3551C5.35068 32.7323 6.02648 33.0361 6.76935 33.2664C7.51982 33.488 8.32977 33.5453 9.21438 33.4469C9.77375 33.3971 10.4825 33.234 11.3506 32.9539C12.2188 32.6825 13.1034 32.3875 14.0209 32.0837C14.9308 31.7712 15.8231 31.4924 16.6912 31.2297C17.5505 30.967 18.2681 30.8027 18.8275 30.7541C19.1274 30.7865 19.3109 30.7703 19.3868 30.7043C19.4615 30.6471 19.4868 30.474 19.4615 30.1877L17.8758 12.9502L17.8732 12.9527Z" fill="#C51F25"/>
<path d="M17.6568 1.91239C17.2569 1.59244 16.8393 1.23888 16.3963 0.852944C15.9547 0.475726 15.47 0.286495 14.9283 0.29521C14.3107 0.303924 13.8349 0.574077 13.4932 1.11563C13.1515 1.64971 13.0009 2.23234 13.0426 2.87224L13.0933 3.66029C12.5503 3.19219 11.8999 2.79879 11.1405 2.48631C10.3812 2.18254 9.77248 2.03439 9.32195 2.06801C8.18675 2.08419 7.08573 2.44523 6.00116 3.15982C4.91659 3.88189 3.91554 5.07205 3.00562 6.73903C3.18026 7.46981 3.4726 8.00265 3.87378 8.35621C4.27496 8.70106 4.70018 8.91395 5.16716 9.00483C5.62656 9.09571 6.07709 9.07081 6.51117 8.92266C6.94525 8.77451 7.3034 8.56163 7.57929 8.28276C7.62991 8.22549 7.70458 8.13461 7.80456 8.01136C7.90454 7.88811 7.99692 7.75739 8.08045 7.61796C8.16397 7.47853 8.22219 7.35528 8.25509 7.24821C8.288 7.14115 8.27154 7.07641 8.18802 7.05898C7.69572 7.00918 7.26164 6.86975 6.86932 6.64068C6.477 6.41037 6.19352 6.16511 6.01761 5.90243C5.83411 5.63103 5.8088 5.39325 5.92523 5.18783C6.05051 4.98242 6.40866 4.90025 7.0022 4.95005C7.89441 4.99985 8.72967 5.19655 9.49659 5.54887C10.2724 5.89371 10.9735 6.27965 11.6075 6.68923C12.2416 7.10006 12.8009 7.47728 13.2932 7.8296C13.7855 8.18316 14.1854 8.38733 14.4866 8.45332C14.9207 8.56038 15.3966 8.37115 15.9218 7.88687C16.4394 7.40259 16.8975 6.68799 17.2987 5.73685C17.2898 5.68706 17.2987 5.64597 17.3075 5.62232C17.324 5.59742 17.324 5.55634 17.324 5.49907L17.224 3.92297C17.2076 3.66029 17.1911 3.4474 17.1822 3.29054C17.1734 3.12621 17.1822 2.99549 17.2151 2.88842C17.248 2.78136 17.2987 2.68301 17.3569 2.60084C17.424 2.51868 17.5239 2.42033 17.6821 2.30579C17.7821 2.14146 17.7745 2.01074 17.6568 1.91239Z" fill="#C51F25"/>
<path d="M45.8759 6.00784C45.8505 5.72026 45.8012 5.44139 45.7088 5.16252C45.6164 4.89113 45.4835 4.65334 45.3165 4.44793C45.1494 4.24251 44.933 4.14416 44.666 4.15288C44.4496 4.16159 44.1901 4.21886 43.8814 4.31721C43.5814 4.42427 43.2638 4.54752 42.9297 4.68696C42.5956 4.8351 42.2792 4.99072 41.978 5.16252C41.678 5.32686 41.411 5.49866 41.1769 5.66299C41.1187 5.74516 41.1098 5.87588 41.1263 6.06511C41.1427 6.24562 41.2351 6.34397 41.4022 6.36887C41.778 6.35269 41.9274 6.48341 41.8615 6.74609C41.7692 7.17311 41.4857 7.61631 41.0187 8.0844C40.5517 8.5525 39.9835 8.97952 39.3165 9.37292C38.6496 9.76757 37.9232 10.1037 37.1385 10.3826C36.3539 10.6614 35.587 10.8258 34.8441 10.883C33.7848 10.6776 32.7585 10.4971 31.7562 10.3166C30.7551 10.1448 29.9616 10.0626 29.3694 10.0863C28.1684 10.0776 26.9332 10.4473 25.6892 11.1856C24.4375 11.9325 23.2859 13.18 22.2178 14.9366C22.4101 15.6997 22.7101 16.2662 23.1277 16.6434C23.5453 17.0293 24.0035 17.2671 24.4882 17.3742C24.9716 17.4725 25.4563 17.4563 25.9321 17.3169C26.4156 17.1849 26.8079 16.9808 27.1167 16.7007C27.1749 16.6509 27.2584 16.5525 27.3749 16.4131C27.4913 16.2823 27.5913 16.1417 27.6748 16.011C27.7672 15.8715 27.833 15.7483 27.8836 15.625C27.9342 15.5018 27.9089 15.4358 27.8001 15.4121C27.3913 15.3711 27.0155 15.264 26.6573 15.0922C26.3067 14.9204 26.0068 14.7312 25.7727 14.5096C25.531 14.2967 25.3892 14.0825 25.3222 13.8771C25.2639 13.6642 25.331 13.4912 25.5221 13.3518C25.7221 13.2123 26.065 13.1389 26.5485 13.1389C27.0319 13.1302 27.6913 13.2372 28.5265 13.4426C29.1023 13.5821 29.7275 13.7551 30.421 13.9518C31.1133 14.1485 31.8068 14.3452 32.4991 14.527C33.1913 14.7162 33.8595 14.888 34.51 15.0523C35.1605 15.2167 35.7034 15.315 36.1375 15.3474L36.3375 20.8886C35.8122 20.4616 35.1947 20.0508 34.4771 19.6487C33.7684 19.2553 33.0673 18.9104 32.3662 18.6141C31.6739 18.3265 31.0222 18.1049 30.4299 17.9493C29.8376 17.8012 29.3618 17.7601 29.0201 17.8261C27.4597 18.5892 26.208 19.681 25.2741 21.0853C24.3312 22.4971 23.5972 24.1467 23.0796 26.0427C23.0467 26.6988 23.1631 27.4134 23.4137 28.1691C23.6719 28.9247 24.0313 29.6057 24.4818 30.2133C24.9324 30.8121 25.4753 31.3051 26.1093 31.6748C26.7358 32.052 27.428 32.184 28.1709 32.0769C28.4379 32.0446 28.7303 31.9375 29.0302 31.7483C29.3301 31.5678 29.6313 31.3462 29.9313 31.0835C30.2312 30.8208 30.5235 30.5419 30.807 30.2382C31.0905 29.9431 31.3499 29.6717 31.5828 29.4252C32.351 28.5475 32.8091 27.6935 32.9509 26.8556C33.1015 26.0178 32.6585 25.2061 31.641 24.4255C31.4487 24.4579 31.2234 24.5811 30.9652 24.7866C30.707 24.992 30.4476 25.221 30.1894 25.4675C29.9224 25.714 29.6883 25.9767 29.4719 26.2469C29.2555 26.5183 29.1049 26.7312 29.0302 26.8955C28.9796 27.0025 28.9796 27.1084 29.0213 27.2154C29.0631 27.3138 29.1542 27.3636 29.2884 27.3636C29.5883 27.4545 29.8313 27.6512 30.0148 27.9549C30.1983 28.25 30.2907 28.5301 30.2907 28.7928C30.2818 29.0555 30.1742 29.2273 29.9654 29.302C29.7566 29.3754 29.3985 29.2198 28.9062 28.8426C28.4885 28.5139 28.0722 27.9724 27.6546 27.2005C27.2369 26.4373 26.9205 25.6331 26.7206 24.7791C26.5118 23.9338 26.4535 23.1208 26.5459 22.349C26.6383 21.5771 26.9636 21.0443 27.5141 20.7318C27.7305 20.6994 28.0988 20.7729 28.6151 20.9447C29.1238 21.1252 29.7085 21.3791 30.3502 21.7003C30.9931 22.0203 31.6689 22.3975 32.37 22.8332C33.0711 23.2764 33.714 23.7445 34.3138 24.2537C34.9061 24.7629 35.4073 25.2721 35.816 25.78C36.2248 26.2967 36.4665 26.8058 36.5425 27.2988C36.526 27.6188 36.4501 27.9151 36.3337 28.1852C36.2084 28.4479 35.9831 28.6944 35.6743 28.916C35.5414 29.0555 35.549 29.2036 35.6908 29.3505C36.1084 29.7115 36.4589 30.0813 36.7589 30.4834C37.0512 30.8855 37.4511 31.2217 37.9434 31.4931C38.5446 31.813 39.1621 31.7881 39.7962 31.4271C40.0303 31.2553 40.2303 31.0411 40.3973 30.771C40.5555 30.4996 40.715 30.2207 40.8643 29.9257C41.0149 29.6219 41.1642 29.3269 41.3148 29.0306C41.4654 28.7355 41.6401 28.4965 41.8489 28.2998C41.9577 28.1354 41.9489 27.996 41.8324 27.8653C41.4237 27.6188 41.1478 27.3312 41.0225 27.0038C40.8883 26.6751 40.8137 26.3066 40.7972 25.8796L40.2961 12.4666C40.2872 12.179 40.2455 11.9985 40.1619 11.9412C40.0784 11.8753 39.886 11.8753 39.595 11.9412C39.3026 11.9736 38.9774 11.9736 38.6268 11.9325C38.2763 11.8914 37.8839 11.8416 37.4587 11.7769C37.3499 11.7856 37.2081 11.7607 37.05 11.7109C37.7764 11.6375 38.6015 11.4806 39.5279 11.2515C40.4619 11.0138 41.3642 10.7013 42.2311 10.2992C43.1068 9.89704 43.875 9.40404 44.5508 8.81394C45.2266 8.21512 45.6772 7.52542 45.886 6.72119C45.9024 6.54068 45.9024 6.30289 45.8771 6.0066L45.8759 6.00784Z" fill="#C51F25"/>
<path d="M53.2856 27.2772C53.2021 27.2037 53.0933 27.1863 52.9604 27.2448C52.2428 27.4502 51.6341 27.327 51.1494 26.8676C50.6659 26.4082 50.4154 25.5293 50.39 24.2333V15.4826C50.39 15.0307 50.4483 14.6535 50.5647 14.3335C50.69 14.021 50.9482 13.7173 51.3493 13.4222C51.5164 13.3151 51.5164 13.1844 51.3493 13.0276C51.1658 12.8383 50.9899 12.6093 50.8317 12.313C50.6647 12.0254 50.5065 11.7303 50.3483 11.4266C50.1901 11.1228 50.0142 10.8352 49.8231 10.5725C49.6396 10.3099 49.4232 10.1132 49.1802 9.97372C48.5879 9.57907 47.9868 9.57907 47.3692 9.97372C46.8858 10.2688 46.501 10.6136 46.2176 11.0245C45.9417 11.4353 45.5835 11.8287 45.1583 12.1984C45.0495 12.354 45.0495 12.5022 45.1583 12.6329C45.5582 12.8956 45.8176 13.1906 45.9429 13.5193C46.0594 13.848 46.1176 14.2252 46.1176 14.6522V25.4957C46.1176 25.7671 46.1011 26.0123 46.0594 26.2513C46.0176 26.4891 45.9429 26.6945 45.8176 26.8676C45.7012 27.0394 45.5 27.139 45.233 27.1626C45.1823 27.2124 45.1494 27.2772 45.133 27.3593C45.1165 27.4415 45.1583 27.5075 45.233 27.556C45.4747 27.7453 45.7341 28.0565 46.0011 28.5084C46.2682 28.9603 46.5681 29.411 46.9022 29.8716C47.2363 30.3397 47.6109 30.7493 48.0285 31.1029C48.4462 31.4564 48.9132 31.6531 49.4219 31.678C49.7978 31.7029 50.1559 31.5872 50.5065 31.3245C50.857 31.0531 51.1911 30.7169 51.5164 30.2899C51.834 29.8716 52.1428 29.4123 52.4428 28.9267C52.7351 28.4337 53.0186 27.9831 53.2856 27.556C53.3691 27.449 53.3691 27.3593 53.2856 27.2772Z" fill="#C51F25"/>
<path d="M75.1137 28.5157C74.7214 28.2368 74.4633 27.933 74.3544 27.5969C74.2456 27.2682 74.2038 26.891 74.2127 26.464L74.6961 12.5343C74.705 12.2468 74.6708 12.075 74.5873 12.0177C74.5126 11.9604 74.3202 11.9517 74.0279 12.0015C73.7862 11.9928 73.5103 11.9106 73.2104 11.755C72.9104 11.5994 72.5839 11.4189 72.2422 11.2047C71.9005 10.9993 71.5576 10.7864 71.2159 10.581C70.8742 10.3681 70.5401 10.22 70.2224 10.1291C69.8301 9.98096 69.2884 10.1378 68.6202 10.5885C67.9444 11.0404 67.2522 11.811 66.5422 12.8954C66.384 12.8381 66.1423 12.6414 65.8158 12.2966C65.4981 11.9604 65.1235 11.6069 64.7059 11.2296C64.2883 10.8599 63.8542 10.5325 63.3961 10.2362C62.9367 9.94859 62.4861 9.81787 62.0609 9.85896C61.5522 9.81787 60.9434 10.1129 60.2335 10.7703C59.5248 11.4189 58.849 12.1907 58.1972 13.0771C57.5543 13.9635 56.9709 14.8499 56.4621 15.7363C55.9445 16.614 55.6028 17.2801 55.4269 17.7233C55.1346 18.2897 55.0675 18.9221 55.2181 19.6106C55.3687 20.3078 55.6433 21.0385 56.0445 21.8191C56.4533 22.5985 56.9127 23.3952 57.4379 24.2082C57.9555 25.0124 58.4225 25.8092 58.8224 26.5885C58.9477 26.8014 59.073 27.0479 59.1818 27.3355C59.2906 27.6143 59.3653 27.8857 59.4159 28.1559C59.5083 28.6078 59.4488 28.8867 59.2489 29.0012C59.0401 29.1083 58.7983 29.1244 58.5149 29.0336C58.239 28.9427 57.9808 28.7709 57.7302 28.5082C57.4885 28.2542 57.3708 27.9666 57.3797 27.6467C57.4126 27.4413 57.3632 27.2769 57.2291 27.1711C57.1038 27.0566 56.9114 27.1462 56.6621 27.4251C56.4368 27.5807 56.1445 27.8434 55.7699 28.2293C55.394 28.6153 55.1359 29.0261 55.0017 29.4693C54.86 29.9125 54.927 30.347 55.1941 30.7665C55.4611 31.1848 56.1204 31.5048 57.1544 31.7189C57.8631 31.5633 58.5984 31.1935 59.3742 30.6109C60.1424 30.0283 60.7928 29.4531 61.3269 28.8867C61.7939 28.4596 62.3862 27.9181 63.0873 27.262C63.796 26.6134 64.4971 25.9573 65.1893 25.2925C65.8816 24.6364 66.4916 24.004 67.0079 23.4126C67.5255 22.8213 67.8179 22.3868 67.8761 22.0992C67.9685 21.8116 67.9432 21.5004 67.809 21.163C67.6761 20.8269 67.4838 20.5144 67.2421 20.2107C66.9915 19.9156 66.7244 19.6442 66.4245 19.3902C66.1246 19.1437 65.8234 18.9794 65.5323 18.8898C65.2653 18.8811 64.9729 18.9806 64.6565 19.1935C64.3389 19.4064 64.0478 19.6616 63.7884 19.9567C63.5214 20.2517 63.2872 20.5555 63.0873 20.868C62.8873 21.1805 62.762 21.4257 62.7038 21.6062C62.6456 21.737 62.695 21.8602 62.8456 21.9673C62.9797 22.0245 63.1543 22.0581 63.3708 22.0656C63.5543 22.0743 63.7213 22.1478 63.8631 22.2959C64.0048 22.4515 64.1301 22.6159 64.2301 22.8051C64.33 22.9943 64.3971 23.1985 64.43 23.4039C64.4629 23.6168 64.4465 23.806 64.3883 23.9617C64.33 24.1671 64.1301 24.4372 63.7795 24.7746C63.429 25.1033 63.1202 25.3411 62.8456 25.4967C62.7873 24.8568 62.5785 24.0687 62.2027 23.1325C61.9027 22.4926 61.5851 21.8602 61.2434 21.2452C60.9017 20.6215 60.5764 20.0463 60.2588 19.5048C59.9411 18.9632 59.6576 18.4628 59.4248 17.9947C59.1831 17.5191 59.0413 17.0995 58.9996 16.731C58.916 16.2555 58.8743 15.7625 58.8907 15.262C58.9072 14.7615 59.0831 14.3022 59.4248 13.8913C59.75 13.6374 60.1094 13.5378 60.4765 13.5876C60.8523 13.6448 61.2358 13.7843 61.6357 14.0059C62.028 14.2275 62.4115 14.5063 62.7709 14.835C63.1379 15.1637 63.4631 15.4749 63.7466 15.7787C64.106 16.1895 64.406 16.4435 64.6312 16.5418C64.8476 16.6402 65.1564 16.4596 65.5488 16.0003C65.7487 15.7625 65.9487 15.5073 66.1575 15.2284C66.3739 14.9408 66.5827 14.6781 66.7915 14.4316C67.0003 14.1851 67.1838 13.9884 67.3344 13.8403C67.4926 13.6847 67.5926 13.6187 67.6432 13.6511C68.0685 13.8478 68.5278 14.1104 69.029 14.4478C69.5302 14.7839 69.963 14.9819 70.3388 15.0466L69.9212 27.1126C69.9048 27.5645 69.8288 27.9492 69.7048 28.2779C69.5707 28.5978 69.296 28.8941 68.8873 29.1394C68.7708 29.2713 68.7708 29.4108 68.8708 29.5739C69.2631 29.9598 69.5884 30.3532 69.8554 30.7727C70.1224 31.191 70.4983 31.5608 70.9653 31.8646C71.574 32.2505 72.1916 32.2754 72.818 31.9218C73.0686 31.7737 73.2774 31.5683 73.4609 31.3143C73.6444 31.0516 73.8279 30.7802 73.995 30.4939C74.1696 30.215 74.3367 29.9274 74.5126 29.6398C74.6797 29.361 74.872 29.1307 75.0973 28.9501C75.2061 28.7945 75.2137 28.6464 75.1137 28.5157Z" fill="#C51F25"/>
<path d="M78.1509 1.86368C78.1598 1.84749 78.1509 1.8226 78.1509 1.80641C78.1421 1.62589 78.118 1.46156 78.0674 1.31341C78.0257 1.16527 77.9586 1.03455 77.8839 0.918768C77.7257 0.680984 77.4916 0.598817 77.1917 0.656085C77.0828 0.680984 76.8829 0.722067 76.5829 0.795518C76.283 0.877684 75.9742 0.959851 75.6566 1.04202C75.6312 1.05073 75.6148 1.0582 75.5895 1.06692H75.5806C75.4553 1.09928 75.3389 1.1329 75.2212 1.17398H75.2123C75.0871 1.21506 74.9618 1.25615 74.8453 1.30594H74.8365C74.8112 1.31466 74.7947 1.32213 74.7694 1.33084C74.7188 1.34703 74.6694 1.37193 74.6277 1.38811C74.4353 1.46156 74.3024 1.53626 74.2354 1.59353C74.21 1.63461 74.1847 1.65951 74.1771 1.69188L74.1683 1.70059C74.1594 1.70059 74.1594 1.70931 74.1594 1.70931C74.1341 1.7591 74.1088 1.80766 74.1088 1.85745C74.0999 1.89854 74.0999 1.93962 74.1177 1.97199V1.9807C74.143 2.03797 74.1923 2.07905 74.2683 2.12014C74.2936 2.13632 74.3265 2.15251 74.3606 2.16122C74.5188 2.19359 74.6024 2.4488 74.6188 2.92437C74.6188 3.0389 74.6188 3.16215 74.6099 3.27793C74.6099 3.35139 74.6011 3.42608 74.5935 3.49953V3.50825C74.5846 3.64768 74.5606 3.78712 74.5264 3.92655C74.5176 4.0249 74.4935 4.13196 74.4593 4.23031C74.4593 4.28011 74.4429 4.33738 74.4264 4.38593C74.2936 4.87893 74.0847 5.24743 73.8177 5.50265C73.5418 5.74914 73.209 5.66698 72.8002 5.23996C72.8331 5.19017 72.9002 5.06816 73.009 4.87893C73.109 4.68223 73.2254 4.48553 73.3431 4.28011C73.4102 4.16558 73.4773 4.05851 73.5178 3.95145V3.94273C73.5595 3.86057 73.5925 3.78712 73.6178 3.70495C73.6342 3.65515 73.6507 3.61407 73.6595 3.5817C73.6924 3.47463 73.7013 3.4099 73.6848 3.39247C73.676 3.26922 73.6595 3.1385 73.6342 2.98164V2.97292C73.6254 2.95674 73.6254 2.94055 73.6178 2.91566V2.90694C73.6013 2.80859 73.576 2.70153 73.5507 2.58699C73.5089 2.41519 73.4507 2.23343 73.3583 2.05291C73.3166 1.94585 73.2583 1.84002 73.2001 1.73296C73.2001 1.73296 73.2001 1.72425 73.1913 1.72425C73.1748 1.68316 73.1495 1.65079 73.1242 1.60971C73.0989 1.57734 73.0824 1.55244 73.0571 1.51883V1.51012C72.8989 1.2798 72.7066 1.06692 72.4813 0.870215L72.4724 0.8615C72.4142 0.820417 72.3636 0.779334 72.3054 0.730781C71.9713 0.468098 71.5296 0.312481 70.9614 0.255213C70.9285 0.263928 70.8943 0.280112 70.845 0.312481C70.7703 0.344849 70.6779 0.410831 70.5526 0.492997L70.5438 0.501712C70.4438 0.567694 70.3185 0.65733 70.1843 0.764395C70.1679 0.773109 70.159 0.789294 70.1426 0.796763C69.7832 1.08434 69.4756 1.42919 69.2251 1.84749C69.2162 1.84749 69.2162 1.85621 69.2162 1.85621C69.2073 1.84749 69.1997 1.84002 69.1909 1.83131C69.185 1.8255 69.1795 1.82011 69.1744 1.81513C69.0162 1.63461 68.8074 1.43791 68.5657 1.23996C68.3075 1.02708 68.0317 0.829132 67.7317 0.641145C67.4394 0.451914 67.1394 0.305011 66.8395 0.189231C66.5307 0.0821662 66.2637 0.0174292 66.022 0C65.7967 0.123249 65.5461 0.336134 65.2791 0.656085C65.0121 0.959851 64.745 1.28852 64.5033 1.66573V1.67445C64.4945 1.68316 64.4945 1.69063 64.4869 1.69935C64.4704 1.72425 64.454 1.75661 64.4362 1.78151C64.2021 2.13508 63.9946 2.47868 63.8098 2.83224C63.6174 3.20199 63.4846 3.52941 63.4086 3.81699C63.3504 4.39963 63.4175 4.89262 63.6174 5.31964C63.8262 5.73794 64.0844 6.09897 64.4021 6.39527C64.7197 6.69032 65.0867 6.92064 65.4866 7.09244C65.8954 7.26424 66.2877 7.35512 66.6636 7.38002C66.9053 7.3713 67.1724 7.33894 67.4558 7.28914C67.7393 7.23934 68.0228 7.1497 68.2987 7.01774C68.5746 6.88702 68.8163 6.72269 69.0074 6.52474C69.2073 6.32804 69.3491 6.06536 69.425 5.75288C69.4415 5.4653 69.3579 5.15406 69.1744 4.8254C68.9909 4.49673 68.7657 4.30003 68.5075 4.23405C68.2152 4.1606 67.9405 4.21786 67.69 4.40585C67.4394 4.58637 67.2065 4.79178 67.0053 5.0221C66.9218 5.12045 66.9129 5.2437 66.98 5.39185C67.0547 5.54746 67.1546 5.60473 67.2976 5.58855C67.3394 5.80143 67.3141 5.98319 67.223 6.12263C67.1306 6.26206 67.023 6.28696 66.8977 6.20479C66.1473 5.67943 65.8296 5.10551 65.9549 4.48055C65.9967 4.14441 66.1055 3.82446 66.2725 3.52817C66.4396 3.23312 66.632 3.0028 66.8572 2.831C67.066 2.94553 67.2989 3.10987 67.5583 3.324C67.8089 3.53688 68.0418 3.75848 68.243 3.98008C68.3177 4.06225 68.4176 4.06225 68.5429 3.98008C68.6682 3.8892 68.81 3.7672 68.9682 3.60286C69.1263 3.44725 69.2858 3.26673 69.444 3.0775C69.5111 2.99533 69.5857 2.92188 69.6528 2.86461L69.6617 2.8559C69.687 2.831 69.7123 2.81481 69.7363 2.78992L69.7452 2.7812C69.8123 2.7314 69.8705 2.69032 69.9376 2.64924H69.9705C70.2881 2.59944 70.5298 2.74759 70.7133 3.09244C70.7298 3.11734 70.7462 3.14223 70.7551 3.1746V3.18332C70.9298 3.51198 71.0639 3.8892 71.1639 4.3075C70.9475 4.74199 70.7716 5.06318 70.621 5.25117C70.4792 5.4404 70.3375 5.6122 70.1869 5.76035C70.1122 5.72798 70.0363 5.76035 69.9616 5.86741C69.8869 5.96576 69.8616 6.05665 69.8869 6.13881C70.2793 6.68908 70.7133 7.08248 71.1803 7.32898C71.6562 7.56676 72.1561 7.71491 72.6901 7.77218C72.9572 7.81326 73.3495 7.64893 73.8671 7.28789C74.3847 6.91815 74.9023 6.49984 75.4186 6.02428C75.5528 5.90103 75.6768 5.78649 75.8021 5.66324C76.0274 5.45036 76.2526 5.23623 76.4526 5.02334C76.5779 4.90009 76.6943 4.78556 76.812 4.66231C76.9702 4.49051 77.1119 4.34236 77.2208 4.21911C77.3043 4.13694 77.3714 4.06349 77.4207 4.00623C77.4878 3.94024 77.5296 3.89169 77.5536 3.85808C77.5625 3.85808 77.5625 3.84936 77.5625 3.84936C77.5954 3.81699 77.6207 3.77591 77.6548 3.73483C77.7219 3.65266 77.7713 3.55431 77.8295 3.44725C77.9042 3.2991 77.9712 3.11858 78.0219 2.93059C78.1054 2.60193 78.156 2.29069 78.156 1.98693V1.97074C78.156 1.93838 78.156 1.90476 78.1471 1.86368H78.1509Z" fill="#C51F25"/>
<path d="M97.6607 13.8628C97.586 13.8055 97.3937 13.7893 97.0937 13.8217C96.5344 13.7719 95.8092 13.6163 94.9157 13.3623C94.0235 13.0996 93.0883 12.8208 92.1202 12.5083C91.152 12.2045 90.218 11.9169 89.3246 11.6468C88.4324 11.3679 87.7059 11.2123 87.1466 11.1625C85.9456 11.0144 84.6762 11.2285 83.3499 11.8186C82.0236 12.4099 80.7214 13.5179 79.4533 15.1351C79.5457 15.907 79.7786 16.5145 80.1456 16.9415C80.5126 17.3685 80.9302 17.6636 81.3972 17.8192C81.873 17.9748 82.3565 18.0159 82.8488 17.9425C83.3322 17.8603 83.7498 17.7047 84.1004 17.4669C84.1586 17.4171 84.251 17.3349 84.3839 17.2129C84.5092 17.0897 84.6345 16.9664 84.7344 16.8432C84.8433 16.7199 84.9268 16.6054 84.9926 16.4896C85.0508 16.3751 85.0344 16.3004 84.9255 16.268C84.5332 16.1771 84.1662 16.0302 83.8321 15.8161C83.498 15.6032 83.231 15.3729 83.0222 15.1351C82.8133 14.8886 82.6969 14.6596 82.6551 14.4454C82.6222 14.2325 82.7134 14.0682 82.9222 13.9524C83.1386 13.8379 83.4815 13.8043 83.965 13.8615C84.4408 13.9113 85.0837 14.0919 85.8924 14.3956C86.4429 14.601 87.0441 14.8475 87.711 15.1264C88.3703 15.4053 89.0373 15.6767 89.6966 15.9468C90.3636 16.2095 91.0065 16.4635 91.6329 16.7025C92.2594 16.9403 92.7846 17.1046 93.2098 17.1955L92.0999 30.0906C91.6165 30.3446 91.0647 30.484 90.4484 30.5089C89.8219 30.5413 89.2056 30.5002 88.5956 30.3944C88.0945 30.3284 87.5364 30.1815 86.9188 29.9425C86.31 29.7047 85.7507 29.3922 85.2419 29.0063C84.7408 28.6203 84.3079 28.1771 83.965 27.6841C83.6144 27.1911 83.4398 26.6658 83.4309 26.108C83.4562 25.8777 83.5727 25.4918 83.7903 24.9677C84.0156 24.4423 84.2826 23.9493 84.6079 23.4899C84.9331 23.0218 85.2672 22.6608 85.6089 22.3981C85.9595 22.1354 86.2759 22.1516 86.5771 22.4392C86.7694 22.6932 86.777 22.9895 86.6024 23.3169C86.4277 23.6455 86.1265 23.9406 85.7013 24.1946C85.5684 24.1859 85.476 24.2195 85.4254 24.3091C85.3748 24.4 85.3748 24.5145 85.4166 24.6452C85.4836 24.8096 85.6165 25.0312 85.8253 25.3187C86.0253 25.5976 86.243 25.869 86.4758 26.123C86.71 26.3857 86.9593 26.616 87.2263 26.8202C87.4933 27.033 87.7186 27.165 87.9021 27.2385C88.4197 26.8525 88.7867 26.4666 89.012 26.0807C89.2284 25.686 89.3296 25.2764 89.3119 24.8494C89.2955 24.4224 89.1778 23.9954 88.9614 23.5684C88.745 23.1413 88.4526 22.6981 88.0856 22.2462C87.8692 21.9586 87.6262 21.6711 87.3769 21.3685C87.1187 21.0735 86.8593 20.7934 86.6011 20.5307C86.3341 20.268 86.0671 20.0464 85.7912 19.8497C85.5077 19.653 85.2483 19.5298 85.0065 19.48C84.456 19.3816 83.8549 19.5945 83.2209 20.1124C82.578 20.6291 81.9857 21.2615 81.444 22.0084C80.8935 22.7554 80.4177 23.5347 80.0089 24.3315C79.6001 25.1357 79.3496 25.7844 79.2584 26.2774C79.1243 26.8276 79.1585 27.4177 79.342 28.0751C79.4926 28.5593 79.7343 29.0934 80.076 29.6673C80.4177 30.2338 80.8518 30.7591 81.3782 31.2434C81.8958 31.719 82.5134 32.1385 83.2057 32.4909C83.9068 32.8357 84.6914 33.0324 85.576 33.0822C86.143 33.132 86.8694 33.0909 87.7705 32.9677C88.6715 32.8444 89.5979 32.705 90.5496 32.5656C91.5089 32.4174 92.4353 32.2867 93.3363 32.1796C94.2286 32.0651 94.9638 32.0315 95.5219 32.0813C95.8143 32.1634 95.9978 32.1796 96.0813 32.1311C96.1648 32.0825 96.2231 31.9182 96.2484 31.6306L97.7341 14.3844C97.7594 14.0968 97.7341 13.925 97.6594 13.8591L97.6607 13.8628Z" fill="#C51F25"/>
<path d="M113.398 25.4536C113.24 25.1249 112.98 24.9855 112.622 25.0515C112.489 25.0602 112.255 25.1013 111.937 25.1747C111.612 25.2569 111.278 25.3465 110.927 25.4461C110.568 25.5445 110.235 25.6515 109.926 25.7661C109.609 25.8893 109.409 25.9964 109.309 26.086C109.216 26.2093 109.167 26.3325 109.158 26.4632C109.149 26.6027 109.242 26.701 109.416 26.7832C109.5 26.7919 109.567 27.0135 109.633 27.448C109.691 27.8825 109.666 28.3667 109.558 28.8921C109.442 29.4262 109.191 29.9266 108.799 30.3947C108.415 30.8628 107.823 31.133 107.022 31.2152C106.671 31.2475 106.263 31.2064 105.803 31.0757C105.353 30.9525 104.919 30.7558 104.501 30.5006C104.092 30.2466 103.733 29.9179 103.442 29.5071C103.149 29.0888 102.982 28.6294 102.941 28.1202C103.015 27.7841 103.182 27.5127 103.458 27.3073C103.734 27.1019 103.934 26.9873 104.076 26.9537C104.218 26.9126 104.368 27.0446 104.535 27.3309C104.693 27.6185 104.86 28.1601 105.019 28.9568C104.952 29.0477 104.935 29.1784 104.968 29.3266C105.001 29.4747 105.068 29.5569 105.177 29.5731C105.251 29.6142 105.427 29.5569 105.686 29.4249C105.953 29.2855 106.22 29.1125 106.512 28.9083C106.795 28.7116 107.055 28.4975 107.304 28.2759C107.555 28.0543 107.696 27.8986 107.738 27.7916C107.622 27.2251 107.497 26.757 107.337 26.4047C107.186 26.0511 107.003 25.781 106.794 25.5918C106.594 25.4025 106.385 25.2718 106.16 25.1896C105.944 25.1075 105.701 25.0502 105.434 25.0178C104.849 24.9606 104.291 25.0589 103.773 25.2967C103.256 25.527 102.772 25.8544 102.322 26.2566C101.871 26.6674 101.454 27.1181 101.054 27.6272C100.661 28.1364 100.285 28.6282 99.9185 29.1125C100.011 29.8183 100.244 30.4508 100.611 31.0085C100.987 31.5588 101.379 32.0094 101.788 32.363C102.705 33.1759 103.757 33.5855 104.95 33.603C106.144 33.6117 107.261 33.217 108.322 32.429C108.622 32.1987 108.965 31.9609 109.357 31.7069C109.74 31.4529 110.133 31.1816 110.541 30.9027C110.941 30.6238 111.343 30.3362 111.735 30.0412C112.127 29.7536 112.461 29.4498 112.752 29.1386C113.003 28.8846 113.212 28.5062 113.37 28.0219C113.528 27.5376 113.612 27.0695 113.62 26.6188C113.629 26.1682 113.553 25.7822 113.395 25.4536H113.398ZM114.773 15.4069C114.615 15.0782 114.356 14.9475 113.998 15.0048C113.863 15.0135 113.631 15.0546 113.313 15.128C112.988 15.2102 112.654 15.2998 112.303 15.3994C111.944 15.4978 111.611 15.6048 111.302 15.7281C110.984 15.8426 110.784 15.9497 110.684 16.0406C110.592 16.1638 110.534 16.2871 110.534 16.4265C110.525 16.5572 110.617 16.6481 110.801 16.6979C110.876 16.739 110.943 16.9693 111.01 17.4038C111.068 17.8383 111.043 18.3225 110.935 18.8566C110.819 19.382 110.568 19.8825 110.176 20.3506C109.792 20.8187 109.2 21.0975 108.399 21.171C108.048 21.2033 107.64 21.1623 107.18 21.0315C106.721 20.9083 106.296 20.7116 105.878 20.4402C105.469 20.1775 105.119 19.8414 104.819 19.4393C104.526 19.0459 104.352 18.5852 104.317 18.0773C104.392 17.7412 104.559 17.4698 104.835 17.2643C105.102 17.0589 105.311 16.9444 105.453 16.9108C105.594 16.8784 105.745 17.0017 105.912 17.288C106.07 17.5756 106.237 18.1171 106.396 18.9139C106.328 19.0122 106.312 19.1355 106.345 19.2836C106.378 19.4393 106.445 19.5214 106.554 19.5301C106.628 19.5712 106.795 19.5214 107.062 19.382C107.321 19.2426 107.597 19.0695 107.88 18.8728C108.172 18.6674 108.431 18.4458 108.681 18.2167C108.932 17.9864 109.073 17.8146 109.115 17.7163C109.006 17.1411 108.873 16.6817 108.715 16.3456C108.565 16.0007 108.381 15.738 108.172 15.5488C107.972 15.3683 107.755 15.2289 107.538 15.1467C107.322 15.0645 107.079 15.0073 106.812 14.9749C106.227 14.9176 105.669 15.016 105.151 15.2538C104.634 15.4915 104.142 15.8115 103.7 16.2136C103.249 16.6244 102.832 17.0751 102.439 17.5681C102.047 18.0611 101.664 18.5616 101.297 19.0782C101.389 19.7517 101.631 20.3667 101.998 20.9257C102.365 21.4835 102.757 21.9441 103.166 22.3213C104.083 23.1342 105.135 23.5438 106.328 23.5364C107.522 23.5364 108.639 23.1504 109.7 22.3873C110 22.157 110.343 21.9192 110.735 21.6652C111.119 21.4112 111.511 21.1398 111.92 20.8448C112.328 20.5497 112.721 20.2622 113.113 19.9671C113.505 19.6721 113.847 19.3845 114.131 19.0969C114.381 18.8429 114.59 18.4645 114.748 17.9802C114.906 17.4959 114.99 17.0278 114.999 16.5771C115.008 16.1252 114.932 15.7393 114.773 15.4119V15.4069Z" fill="#C51F25"/>
<path d="M37.8903 39.9244C37.8219 39.8808 37.7599 39.8908 37.7055 39.9543C37.6498 40.0178 37.6017 40.0987 37.5587 40.1995C37.5157 40.3004 37.484 40.4037 37.4638 40.512C37.4435 40.6203 37.4359 40.6963 37.441 40.7423C37.4638 40.8482 37.5182 40.9403 37.6043 41.02C37.6903 41.0996 37.7878 41.1669 37.8991 41.2204C38.0105 41.2739 38.1282 41.3113 38.2548 41.3324C38.38 41.3536 38.4927 41.3611 38.5914 41.3549C38.7116 41.3511 38.8293 41.3337 38.947 41.3051C39.0647 41.2764 39.1622 41.2279 39.2431 41.1619L38.9381 38.6733C38.8546 38.6733 38.7483 38.662 38.6205 38.6421C38.4927 38.621 38.3598 38.5986 38.2231 38.5737C38.0864 38.5488 37.9498 38.5226 37.8131 38.4952C37.6764 38.4678 37.5511 38.4454 37.4397 38.428C37.274 38.4019 37.1449 38.3919 37.0525 38.4006C36.9588 38.4093 36.8943 38.428 36.8589 38.4579C36.8234 38.4878 36.8133 38.5226 36.8285 38.5612C36.8437 38.601 36.8753 38.6396 36.9247 38.677C36.974 38.7143 37.0335 38.7479 37.1056 38.7753C37.1765 38.8027 37.2524 38.8177 37.3309 38.8177C37.3524 38.8202 37.3588 38.8338 37.3512 38.8575C37.3436 38.8812 37.3322 38.9073 37.3183 38.9347C37.3031 38.9621 37.2853 38.9895 37.2651 39.0181C37.2449 39.0467 37.2309 39.0654 37.2208 39.0766C37.1651 39.1351 37.0917 39.1812 37.0019 39.2148C36.912 39.2484 36.8196 39.2596 36.7234 39.2484C36.6273 39.2372 36.5361 39.1974 36.4501 39.1301C36.364 39.0629 36.2957 38.9583 36.2463 38.8152C36.4222 38.4591 36.6247 38.2002 36.8538 38.0371C37.0829 37.874 37.3132 37.7831 37.5461 37.7657C37.6549 37.7532 37.7979 37.7557 37.9789 37.7719C38.1598 37.7881 38.3471 37.808 38.5433 37.8279C38.7395 37.8491 38.9268 37.8665 39.1065 37.8802C39.2862 37.8952 39.4304 37.8964 39.538 37.8827C39.5937 37.8653 39.6291 37.8615 39.6456 37.8703C39.662 37.879 39.6747 37.9113 39.681 37.9661L40.0885 41.2914C40.0949 41.3474 40.0911 41.381 40.0771 41.3934C40.0632 41.4059 40.0265 41.4096 39.9683 41.4059C39.8607 41.4183 39.7228 41.4532 39.557 41.5092C39.3912 41.5653 39.2204 41.625 39.0457 41.6897C38.8698 41.7545 38.7002 41.8155 38.5344 41.874C38.3687 41.9325 38.232 41.9674 38.1231 41.9811C37.9536 42.006 37.7954 41.9997 37.6498 41.9599C37.5043 41.9213 37.3714 41.8653 37.2524 41.7943C37.1335 41.7234 37.031 41.6399 36.9437 41.5453C36.8563 41.4507 36.7893 41.3586 36.7412 41.2727C36.6804 41.1569 36.65 41.0436 36.6526 40.9353C36.6513 40.8382 36.6728 40.705 36.7171 40.5382C36.7614 40.3713 36.8209 40.2058 36.8956 40.0427C36.9702 39.8796 37.0575 39.7364 37.1575 39.6144C37.2575 39.4924 37.3625 39.4289 37.4714 39.4264C37.5182 39.4264 37.5726 39.4389 37.6334 39.465C37.6941 39.4912 37.7549 39.5235 37.8143 39.5634C37.8738 39.6032 37.9346 39.6455 37.9953 39.6929C38.0561 39.7402 38.113 39.7862 38.1649 39.831C38.2522 39.9033 38.3256 39.9755 38.3838 40.0489C38.4433 40.1224 38.4826 40.1983 38.5028 40.278C38.5231 40.3577 38.5205 40.4398 38.4939 40.522C38.4674 40.6054 38.4129 40.6925 38.3307 40.7847C38.2927 40.7784 38.2459 40.761 38.1864 40.7324C38.1269 40.7037 38.0713 40.6689 38.0168 40.6291C37.9624 40.5892 37.9105 40.5469 37.8599 40.5008C37.8093 40.456 37.7751 40.4187 37.7561 40.39C37.7422 40.3664 37.7384 40.344 37.7447 40.3253C37.7498 40.3066 37.7663 40.2954 37.7916 40.2929C37.8624 40.2282 37.908 40.161 37.9282 40.0912C37.9485 40.0215 37.9346 39.9667 37.8877 39.9257L37.8903 39.9244Z" fill="#C51F25"/>
<path d="M41.3933 38.373C41.4148 38.3768 41.4212 38.3892 41.4123 38.4141C41.4034 38.4378 41.3921 38.4639 41.3769 38.49C41.3617 38.5174 41.3427 38.5448 41.3224 38.5722C41.3009 38.5996 41.287 38.6195 41.2769 38.6307C41.2199 38.688 41.1453 38.7316 41.0542 38.7627C40.963 38.7938 40.8707 38.8038 40.7757 38.7926C40.6808 38.7814 40.591 38.7403 40.5062 38.6718C40.4214 38.6033 40.3568 38.4963 40.3113 38.3506C40.4973 37.9995 40.7061 37.7443 40.9377 37.5837C41.1706 37.4231 41.4034 37.3372 41.6363 37.326C41.7451 37.3161 41.8514 37.326 41.9565 37.3547C42.0615 37.3833 42.1653 37.4144 42.2703 37.4493C42.3754 37.4829 42.4792 37.5128 42.5842 37.5389C42.688 37.565 42.7943 37.5738 42.9031 37.5626C42.9588 37.5476 42.9955 37.5439 43.012 37.5526C43.0284 37.5613 43.0398 37.5937 43.0449 37.6497L43.3005 40.3201C43.3081 40.401 43.3271 40.4732 43.3562 40.5342C43.3853 40.5952 43.441 40.6488 43.5232 40.6923C43.546 40.716 43.5485 40.7434 43.5308 40.7758C43.4929 40.8156 43.4612 40.8641 43.4359 40.9227C43.4106 40.9812 43.3853 41.0409 43.3587 41.0994C43.3334 41.158 43.3056 41.2152 43.2764 41.2688C43.2473 41.3223 43.2119 41.3671 43.1676 41.402C43.0499 41.4791 42.931 41.4904 42.8107 41.4356C42.712 41.3883 42.6323 41.3273 42.5703 41.2538C42.5083 41.1804 42.4349 41.1106 42.3501 41.0472C42.321 41.0185 42.3184 40.9911 42.3425 40.9637C42.4159 40.9052 42.4602 40.8442 42.4779 40.7782C42.4943 40.7123 42.4994 40.6363 42.4918 40.5504L42.2754 38.2996C42.2172 38.2946 42.1539 38.2734 42.0856 38.2361C42.0172 38.1987 41.9375 38.1601 41.8477 38.119C41.7578 38.0792 41.6553 38.0406 41.5389 38.0058C41.4237 37.9709 41.2921 37.9522 41.1465 37.9497C41.0162 37.946 40.9377 37.9672 40.9099 38.0107C40.882 38.0543 40.8871 38.1016 40.9238 38.1514C40.9592 38.2025 41.0212 38.2498 41.1098 38.2958C41.1984 38.3419 41.2908 38.368 41.3921 38.373H41.3933Z" fill="#C51F25"/>
<path d="M46.701 39.8746C46.6441 40.0264 46.5783 40.1833 46.5024 40.3452C46.4264 40.507 46.3442 40.6539 46.2518 40.7884C46.1594 40.9228 46.0569 41.0349 45.943 41.1232C45.8291 41.2116 45.7051 41.2614 45.5709 41.2714C45.3583 41.2901 45.1659 41.2639 44.9913 41.1905C44.8166 41.117 44.6686 41.0236 44.5458 40.9091C44.4231 40.7946 44.3294 40.6751 44.2636 40.5518C44.1978 40.4286 44.1649 40.3252 44.1649 40.2431C44.1725 40.1248 44.2003 40.0103 44.2509 39.8995C44.3003 39.7887 44.361 39.6804 44.4319 39.5758C44.5028 39.4712 44.5749 39.3666 44.6483 39.2621C44.7217 39.1575 44.7863 39.0541 44.842 38.9533C44.9065 38.8263 44.9305 38.6881 44.9154 38.5375C44.9002 38.3881 44.8647 38.2512 44.8091 38.1292C44.7534 38.0071 44.6876 37.9163 44.6104 37.854C44.5332 37.793 44.4648 37.7893 44.4066 37.8441C44.3724 37.8764 44.3623 37.9175 44.3762 37.9648C44.3902 38.0121 44.4117 38.0594 44.4408 38.1067C44.4699 38.1541 44.5041 38.1926 44.5433 38.2225C44.5813 38.2536 44.6091 38.2686 44.6243 38.2673C44.6509 38.2711 44.6597 38.286 44.6509 38.3122C44.6382 38.3495 44.6167 38.3956 44.5863 38.4503C44.5559 38.5051 44.5205 38.5587 44.48 38.6072C44.4382 38.6558 44.394 38.6919 44.3471 38.7155C44.299 38.7392 44.2509 38.7429 44.2029 38.7255C44.1763 38.7168 44.1472 38.6968 44.1168 38.6657C44.0864 38.6346 44.0561 38.6022 44.0282 38.5674C44.0004 38.5338 43.9751 38.5001 43.9548 38.469C43.9346 38.4367 43.9244 38.418 43.9244 38.413C43.9181 38.3981 43.9308 38.3545 43.9624 38.2835C43.994 38.2126 44.0383 38.1267 44.0965 38.0246C44.1548 37.9237 44.2218 37.8167 44.2965 37.7034C44.3712 37.5901 44.4496 37.4855 44.5294 37.3884C44.6091 37.2913 44.685 37.2091 44.7584 37.1432C44.8318 37.0772 44.8951 37.0448 44.947 37.0461C45.0609 37.0436 45.1672 37.0759 45.2659 37.1444C45.3646 37.2116 45.4507 37.2963 45.5253 37.3959C45.6 37.4955 45.6557 37.6025 45.6911 37.7158C45.7278 37.8291 45.7405 37.9312 45.7316 38.0246C45.7316 38.1117 45.6937 38.2213 45.6139 38.3545C45.5342 38.4877 45.4456 38.6271 45.3456 38.7715C45.2457 38.916 45.1507 39.0616 45.0596 39.206C44.9685 39.3504 44.9078 39.4799 44.8787 39.5945C44.8622 39.7239 44.8863 39.8484 44.9521 39.9704C45.0179 40.0912 45.1039 40.197 45.2115 40.2879C45.3191 40.3775 45.4393 40.4435 45.5722 40.4833C45.7051 40.5232 45.8329 40.5294 45.9556 40.5008C46.0581 40.4734 46.1202 40.4286 46.1417 40.3651C46.1632 40.3016 46.1632 40.2244 46.1417 40.131C46.1202 40.0377 46.0835 39.9343 46.0341 39.8198C45.9847 39.7053 45.9417 39.5857 45.9037 39.46C45.8658 39.3343 45.8405 39.2073 45.8265 39.0766C45.8126 38.9471 45.8291 38.8189 45.8784 38.6931C45.9556 38.4479 46.0341 38.2188 46.1164 38.0084C46.1986 37.798 46.2809 37.6162 46.3644 37.4619C46.4479 37.3075 46.5302 37.183 46.6125 37.0884C46.6947 36.9938 46.7719 36.9377 46.8428 36.9228C47.0554 36.9041 47.2288 36.9079 47.3629 36.934C47.4971 36.9614 47.6122 36.9863 47.7084 37.0112C47.8033 37.0361 47.8919 37.0461 47.9729 37.0436C48.0526 37.0411 48.14 37.0025 48.2349 36.9303C48.2615 36.934 48.2906 36.9502 48.3235 36.9788C48.3564 37.0075 48.3665 37.0324 48.3526 37.0535C48.3298 37.1058 48.3045 37.183 48.2754 37.2851C48.2463 37.3872 48.2058 37.488 48.1551 37.5888C48.1007 37.6996 48.0425 37.7818 47.9805 37.8353C47.9185 37.8876 47.8539 37.9175 47.7843 37.925C47.7147 37.9325 47.6375 37.9225 47.5553 37.8976C47.473 37.8727 47.3806 37.8403 47.2794 37.8005C47.2098 37.7743 47.1364 37.7482 47.0592 37.7233C46.982 37.6972 46.9086 37.6872 46.8377 37.6922C46.7681 37.6972 46.6998 37.7196 46.6352 37.7594C46.5707 37.7992 46.5125 37.8727 46.4631 37.9785C46.4403 38.0208 46.4176 38.0731 46.396 38.1329C46.3745 38.1926 46.3581 38.2549 46.3467 38.3171C46.3353 38.3794 46.3315 38.4416 46.3353 38.5026C46.3391 38.5636 46.3568 38.6197 46.3859 38.6682C46.4821 38.5437 46.5783 38.464 46.6745 38.4267C46.7706 38.3893 46.8466 38.3644 46.9035 38.3495C46.9934 38.3694 47.0769 38.3968 47.1554 38.4329C47.2326 38.469 47.311 38.5026 47.3895 38.5363C47.4667 38.5699 47.5477 38.596 47.6287 38.6159C47.7109 38.6358 47.7983 38.6408 47.8907 38.6296C47.9349 38.601 47.9767 38.5848 48.0121 38.5798C48.0488 38.5748 48.0691 38.6159 48.0754 38.7018L48.1729 40.1323C48.1792 40.2194 48.1956 40.2929 48.2235 40.3551C48.2513 40.4174 48.3057 40.4709 48.3867 40.517C48.4146 40.5456 48.4159 40.5742 48.3918 40.6016C48.3184 40.6788 48.2577 40.7572 48.2096 40.8406C48.1602 40.9228 48.0906 40.9963 48.002 41.0585C47.8869 41.1382 47.7679 41.1456 47.6439 41.0822C47.5958 41.0548 47.5528 41.0162 47.5148 40.9676C47.4768 40.9191 47.4414 40.868 47.4072 40.8132C47.3718 40.7597 47.3376 40.7049 47.3022 40.6514C47.2667 40.5979 47.2275 40.5543 47.1832 40.5207C47.1554 40.497 47.1541 40.4684 47.1769 40.436C47.2516 40.38 47.2971 40.319 47.3174 40.2543C47.3363 40.1883 47.3427 40.1161 47.3376 40.0339C47.3313 39.9318 47.3262 39.816 47.325 39.6853C47.3237 39.5546 47.3199 39.4388 47.3123 39.3367C47.268 39.3094 47.2136 39.2745 47.149 39.2322C47.0845 39.1898 47.0149 39.1525 46.9428 39.1189C46.8694 39.0853 46.7972 39.0604 46.7226 39.0454C46.6479 39.0305 46.5808 39.0292 46.5188 39.0442C46.5568 39.1388 46.5909 39.221 46.6213 39.2907C46.6517 39.3604 46.6757 39.4239 46.6934 39.4812C46.7099 39.5397 46.7213 39.5982 46.7251 39.6592C46.7289 39.7202 46.7213 39.7924 46.701 39.8758V39.8746Z" fill="#C51F25"/>
<path d="M49.8017 37.7898C49.8232 37.7936 49.8283 37.8073 49.8194 37.8309C49.8105 37.8546 49.7966 37.8795 49.7802 37.9056C49.7637 37.9318 49.7435 37.9579 49.7207 37.9853C49.6992 38.0114 49.6827 38.0301 49.6726 38.0413C49.6131 38.0948 49.5359 38.1347 49.4435 38.1621C49.3511 38.1895 49.2575 38.1944 49.1638 38.177C49.0689 38.1608 48.9816 38.1148 48.9006 38.0426C48.8196 37.9691 48.7601 37.8595 48.7222 37.7126C48.9259 37.3715 49.1487 37.1275 49.3891 36.9794C49.6296 36.8312 49.8675 36.7578 50.1003 36.7578C50.2092 36.7528 50.3155 36.7677 50.418 36.8026C50.5205 36.8374 50.6243 36.8735 50.7268 36.9121C50.8293 36.9507 50.9331 36.9868 51.0356 37.018C51.1381 37.0491 51.2444 37.0628 51.3532 37.059C51.4102 37.0466 51.4469 37.0454 51.4621 37.0541C51.4785 37.064 51.4874 37.0964 51.4899 37.1524L51.6038 39.8328C51.6076 39.9149 51.6215 39.9872 51.6481 40.0494C51.6747 40.1129 51.7266 40.1677 51.8076 40.215C51.8291 40.2399 51.8303 40.2673 51.8114 40.2996C51.7709 40.337 51.7367 40.3843 51.7076 40.4416C51.6785 40.4988 51.6506 40.5561 51.6215 40.6134C51.5924 40.6706 51.5621 40.7254 51.5317 40.7777C51.5 40.83 51.4608 40.8723 51.4165 40.9047C51.295 40.9756 51.1748 40.9806 51.0584 40.9196C50.9622 40.8673 50.8863 40.8026 50.828 40.7254C50.7698 40.6482 50.7002 40.576 50.6205 40.5075C50.5926 40.4777 50.5914 40.4503 50.6167 40.4229C50.6926 40.3681 50.7407 40.3096 50.761 40.2449C50.7812 40.1801 50.7901 40.1042 50.7863 40.017L50.6901 37.7575C50.6319 37.75 50.5711 37.7251 50.5041 37.684C50.437 37.6429 50.3598 37.6006 50.2725 37.5558C50.1851 37.511 50.0839 37.4674 49.97 37.4263C49.8561 37.3852 49.727 37.3603 49.5815 37.3504C49.4511 37.3404 49.3714 37.3566 49.3423 37.3989C49.3132 37.4412 49.3144 37.4886 49.3486 37.5408C49.3815 37.5931 49.441 37.6442 49.5271 37.6952C49.6131 37.745 49.7055 37.7761 49.8042 37.7873L49.8017 37.7898Z" fill="#C51F25"/>
<path d="M54.0373 39.4501L54.0208 38.7068C53.8955 38.6633 53.7588 38.6172 53.612 38.5662C53.4652 38.5151 53.3134 38.4666 53.1564 38.4193C52.9995 38.3719 52.8451 38.3296 52.6945 38.2948C52.5427 38.2599 52.3996 38.2412 52.2642 38.2387C52.2377 38.2338 52.2098 38.2163 52.1807 38.1827C52.1516 38.1503 52.1567 38.0906 52.1959 38.0022C52.2655 37.8428 52.3402 37.681 52.4186 37.5179C52.4984 37.3548 52.592 37.2092 52.7008 37.0784C52.8097 36.949 52.9375 36.8419 53.083 36.7597C53.2298 36.6776 53.4007 36.639 53.5994 36.6452C53.7082 36.6477 53.8057 36.6601 53.8892 36.6813C53.9727 36.7025 54.0512 36.7274 54.1246 36.7573C54.198 36.7871 54.2739 36.8195 54.3524 36.8556C54.4308 36.8917 54.5182 36.9278 54.6118 36.9614C54.6485 36.9714 54.6789 36.9701 54.7017 36.9589C54.7244 36.9477 54.7358 36.9303 54.7358 36.9042C54.7358 36.8793 54.7194 36.8506 54.6877 36.8207C54.6561 36.7909 54.603 36.761 54.5296 36.7324C54.5397 36.6913 54.5536 36.6452 54.5739 36.5929C54.5941 36.5419 54.6169 36.4933 54.6447 36.4498C54.6726 36.4062 54.708 36.3713 54.751 36.3477C54.7941 36.324 54.8447 36.319 54.9029 36.3327C55.0016 36.3614 55.0674 36.4149 55.0978 36.4933C55.1282 36.5718 55.1332 36.6601 55.1155 36.7573C55.0978 36.8544 55.0598 36.9577 55.0054 37.066C54.951 37.1743 54.8877 37.2727 54.8168 37.3611C54.746 37.4494 54.6713 37.5229 54.5916 37.5802C54.5118 37.6374 54.441 37.6648 54.379 37.6611C54.2537 37.6486 54.1208 37.6075 53.979 37.5391C53.8373 37.4706 53.6994 37.4108 53.5665 37.3598C53.4323 37.3088 53.3058 37.2851 53.1868 37.2876C53.0679 37.2901 52.9653 37.3561 52.8793 37.4855C52.859 37.5017 52.835 37.5391 52.8071 37.5976C52.7793 37.6573 52.7616 37.6997 52.7515 37.7258C52.8249 37.7296 52.9223 37.747 53.0451 37.7769C53.1678 37.8067 53.2994 37.8441 53.4412 37.8877C53.5829 37.9312 53.7247 37.9761 53.8689 38.0246C54.0132 38.0732 54.1423 38.1155 54.2575 38.1541C54.4397 38.1914 54.589 38.2089 54.7029 38.2064C54.7599 38.1952 54.7966 38.1939 54.8118 38.2039C54.827 38.2138 54.8358 38.2475 54.8371 38.3035L54.8649 39.5372C54.8649 39.5783 54.8662 39.6244 54.8675 39.6754C54.8675 39.7264 54.8738 39.775 54.8826 39.8211C54.8915 39.8671 54.908 39.9057 54.932 39.9393C54.956 39.9717 54.994 39.9904 55.0459 39.9941C55.0611 40.0041 55.0699 40.0165 55.0699 40.0315C55.0699 40.0464 55.0623 40.0601 55.0472 40.07C55.0016 40.1061 54.9535 40.1696 54.9029 40.2568C54.8535 40.3452 54.7966 40.4348 54.7333 40.5245C54.67 40.6153 54.6004 40.6963 54.5245 40.766C54.4486 40.8369 54.3587 40.8755 54.2549 40.883C54.1815 40.8892 54.1119 40.8681 54.0436 40.8183C53.9752 40.7685 53.9082 40.7037 53.8449 40.6228C53.7804 40.5431 53.7196 40.456 53.6601 40.3626C53.6006 40.2692 53.545 40.1821 53.4905 40.1012C53.4792 40.0812 53.4804 40.0626 53.4931 40.0476C53.5057 40.0327 53.5272 40.029 53.5589 40.0389C53.6943 40.0775 53.8082 40.0501 53.9006 39.9592C53.9917 39.8684 54.0373 39.6966 54.0373 39.4463V39.4501Z" fill="#C51F25"/>
<path d="M57.5315 37.2462C57.4379 37.22 57.3556 37.1989 57.2822 37.1839C57.2101 37.1677 57.143 37.164 57.0835 37.1715C57.024 37.179 56.9671 37.1989 56.9152 37.2325C56.8633 37.2661 56.8089 37.3196 56.7507 37.3968C56.6823 37.4777 56.6266 37.5674 56.5823 37.6645C56.5381 37.7616 56.5254 37.8562 56.5456 37.9483C56.5558 38.0205 56.5849 38.1002 56.6342 38.1898C56.6836 38.2795 56.7393 38.3753 56.8038 38.4787C56.8684 38.5808 56.9354 38.6916 57.005 38.8098C57.0746 38.9281 57.1405 39.0476 57.2025 39.1709C57.2126 39.1858 57.2189 39.2007 57.2214 39.2132C57.224 39.2256 57.2303 39.2406 57.2404 39.2555C57.267 39.1895 57.2999 39.1173 57.3391 39.0414C57.3784 38.9654 57.4201 38.892 57.4644 38.8235C57.5087 38.755 57.553 38.6953 57.5973 38.6442C57.6416 38.5932 57.6821 38.5608 57.7188 38.5447C57.7758 38.5247 57.8378 38.5285 57.9023 38.5571C57.9669 38.5857 58.0314 38.6256 58.0959 38.6766C58.1605 38.7277 58.2187 38.7862 58.2706 38.8497C58.3225 38.9144 58.3604 38.9742 58.387 39.0302C58.3921 39.0862 58.3769 39.1435 58.3427 39.202C58.3086 39.2605 58.2668 39.3153 58.2174 39.3663C58.1681 39.4174 58.1149 39.4622 58.0605 39.4995C58.0061 39.5381 57.9593 39.5643 57.9238 39.5792C57.8973 39.5991 57.8745 39.5941 57.8542 39.563C57.8492 39.517 57.8327 39.4659 57.8049 39.4099C57.777 39.3539 57.7429 39.3078 57.7036 39.2717C57.6644 39.2356 57.6252 39.2182 57.5834 39.2169C57.5416 39.2169 57.5024 39.2468 57.4657 39.3078C57.4505 39.3389 57.4303 39.3925 57.4062 39.4684C57.3822 39.5443 57.3619 39.6165 57.3467 39.6825C57.3505 39.8668 57.2771 40.0473 57.1253 40.2253C57.0784 40.2813 57.0215 40.3423 56.9532 40.4083C56.8848 40.4743 56.8139 40.5378 56.738 40.5988C56.6621 40.6598 56.5836 40.7146 56.5039 40.7619C56.4229 40.8105 56.3457 40.8416 56.2736 40.8565C56.0711 40.8204 55.9432 40.7619 55.8888 40.6822C55.8344 40.6025 55.8192 40.5204 55.8433 40.4332C55.8673 40.3461 55.9141 40.2652 55.985 40.1892C56.0559 40.1133 56.1116 40.0597 56.1533 40.0286C56.2002 39.9726 56.2369 39.9552 56.2622 39.9751C56.2875 39.9963 56.2976 40.0261 56.2925 40.0672C56.2925 40.1282 56.3166 40.1842 56.3659 40.2328C56.4153 40.2814 56.4672 40.3137 56.5216 40.3299C56.576 40.3461 56.6228 40.3423 56.6621 40.3187C56.7013 40.2963 56.7102 40.2415 56.6899 40.1544C56.6798 40.1033 56.6633 40.051 56.6406 39.9975C56.6178 39.944 56.5937 39.8967 56.5672 39.8556C56.4849 39.7074 56.39 39.5555 56.2849 39.4024C56.1799 39.2493 56.085 39.0974 56.0027 38.9493C55.9205 38.8011 55.8623 38.6604 55.8293 38.5272C55.7964 38.394 55.8053 38.272 55.8585 38.16C55.8952 38.0579 55.9508 37.9496 56.0242 37.835C56.0976 37.7205 56.1761 37.6109 56.2596 37.5064C56.3432 37.4018 56.4204 37.3109 56.4912 37.2312C56.5621 37.1528 56.6102 37.1005 56.6368 37.0744C56.8139 36.8963 56.9949 36.7706 57.1797 36.6972C57.3645 36.6237 57.5454 36.5926 57.7213 36.6038C57.8302 36.6038 57.9555 36.6237 58.0947 36.6635C58.2339 36.7034 58.3756 36.7445 58.5186 36.788C58.6616 36.8316 58.8008 36.8727 58.9388 36.9088C59.0767 36.9449 59.1995 36.9636 59.3083 36.9648C59.3703 36.9549 59.4083 36.9549 59.421 36.9648C59.4336 36.9748 59.4399 37.0084 59.4399 37.0644L59.426 39.7473C59.426 39.8294 59.4374 39.9016 59.4602 39.9664C59.483 40.0311 59.5336 40.0884 59.6108 40.1394C59.6412 40.1656 59.6412 40.193 59.6108 40.2241C59.5741 40.2602 59.5399 40.305 59.5083 40.3623C59.4766 40.4183 59.445 40.4743 59.4134 40.5303C59.3817 40.5864 59.3476 40.6399 59.3109 40.6909C59.2742 40.742 59.2324 40.7831 59.1856 40.8129C59.0704 40.8839 58.954 40.8839 58.835 40.8117C58.7426 40.7557 58.668 40.6872 58.6135 40.6075C58.5591 40.5278 58.4908 40.4519 58.4085 40.3809C58.3933 40.3448 58.3933 40.3175 58.4085 40.2963C58.487 40.2452 58.5376 40.188 58.5617 40.1245C58.5857 40.061 58.5971 39.9851 58.5984 39.8979L58.6098 37.6744C58.5262 37.6645 58.4427 37.6408 58.3566 37.6047C58.2706 37.5686 58.1858 37.53 58.0997 37.4889C58.0137 37.4479 57.9251 37.4055 57.8314 37.3607C57.7378 37.3171 57.6378 37.2798 57.5277 37.2487L57.5315 37.2462Z" fill="#C51F25"/>
<path d="M63.9921 37.4343C63.9124 37.4891 63.8605 37.5463 63.8352 37.6061C63.8099 37.6658 63.796 37.7405 63.7934 37.8277L63.7631 38.8921C63.8453 38.9295 63.92 38.9805 63.9883 39.044C64.0567 39.1075 64.1162 39.171 64.1655 39.237C64.2161 39.3029 64.2566 39.3677 64.2883 39.4324C64.3199 39.4972 64.344 39.5507 64.3579 39.5918C64.325 39.6677 64.2718 39.7723 64.2009 39.9055C64.1288 40.0387 64.0516 40.1719 63.9668 40.3051C63.882 40.4383 63.796 40.5616 63.7074 40.6736C63.6188 40.7857 63.5391 40.8616 63.4707 40.9014C63.4125 40.9363 63.3518 40.9525 63.2898 40.95C63.2277 40.9475 63.1797 40.9363 63.1467 40.9151C63.1138 40.894 63.0847 40.8653 63.0594 40.828C63.0341 40.7906 63.0113 40.7483 62.9886 40.6998C62.9658 40.6512 62.9329 40.6002 62.8873 40.5479L62.9215 39.3527C62.7329 39.3938 62.5735 39.4847 62.4418 39.6279C62.3102 39.7698 62.2001 39.9192 62.109 40.0748C62.0191 40.2304 61.9457 40.3761 61.8901 40.5093C61.8344 40.6437 61.7876 40.7222 61.7509 40.7471C61.6977 40.7819 61.6281 40.818 61.5408 40.8566C61.4535 40.8952 61.3775 40.9064 61.3104 40.889C61.1396 40.8541 60.9941 40.7869 60.8713 40.6886C60.7498 40.5902 60.6486 40.4844 60.5688 40.3699C60.4891 40.2553 60.4322 40.1408 60.3993 40.0275C60.3664 39.9142 60.3537 39.8221 60.36 39.7499C60.379 39.6329 60.4182 39.522 60.479 39.4162C60.5397 39.3104 60.6093 39.2083 60.6903 39.1112C60.7713 39.0141 60.8536 38.9158 60.9358 38.8187C61.0181 38.7216 61.094 38.6244 61.1586 38.5298C61.2345 38.4091 61.2725 38.2734 61.2712 38.1227C61.2712 37.9721 61.2484 37.8339 61.2054 37.7069C61.1624 37.5799 61.1054 37.4828 61.0346 37.4144C60.9637 37.3459 60.8966 37.3359 60.8333 37.3857C60.7954 37.4156 60.7814 37.4542 60.7903 37.5028C60.7992 37.5513 60.8156 37.6011 60.8409 37.6497C60.865 37.6995 60.8953 37.7405 60.9308 37.7754C60.9662 37.8103 60.9915 37.8264 61.0067 37.8277C61.032 37.8339 61.0396 37.8488 61.0282 37.8737C61.0118 37.9099 60.9852 37.9534 60.951 38.0057C60.9169 38.058 60.8751 38.1078 60.8308 38.1514C60.7852 38.1962 60.7372 38.2286 60.6878 38.2472C60.6384 38.2659 60.5903 38.2647 60.5435 38.2435C60.5182 38.2323 60.4916 38.2099 60.4638 38.1763C60.436 38.1427 60.4094 38.1066 60.3853 38.0704C60.3613 38.0343 60.3398 37.9995 60.3221 37.9646C60.3043 37.931 60.2967 37.9111 60.2967 37.9061C60.2917 37.8912 60.3094 37.8489 60.3474 37.7816C60.3853 37.7132 60.4385 37.6322 60.5068 37.5364C60.5752 37.4418 60.6511 37.3409 60.7372 37.2363C60.8232 37.1318 60.9105 37.0334 60.9991 36.945C61.0877 36.8566 61.1712 36.7807 61.251 36.7222C61.3307 36.6624 61.3965 36.6363 61.4484 36.6425C61.5623 36.6512 61.6648 36.6935 61.7572 36.7695C61.8496 36.8454 61.9268 36.9376 61.9913 37.0446C62.0559 37.1517 62.1001 37.2625 62.1255 37.3783C62.1508 37.494 62.1546 37.5974 62.1356 37.6895C62.128 37.7766 62.0786 37.8825 61.9862 38.007C61.8939 38.1327 61.7926 38.2622 61.6787 38.3979C61.5661 38.5323 61.456 38.668 61.3509 38.8025C61.2459 38.9382 61.1738 39.0614 61.1345 39.1722C61.1029 39.3652 61.1206 39.5432 61.1902 39.7063C61.2586 39.8694 61.3737 40.0038 61.537 40.1109L61.8382 39.6441C61.8812 39.5793 61.9394 39.5084 62.0116 39.4337C62.0837 39.359 62.1672 39.2868 62.2634 39.2183C62.3596 39.1498 62.4634 39.0851 62.5773 39.0241C62.6912 38.9631 62.8101 38.917 62.9354 38.8846L62.9708 37.6434C62.9734 37.5625 62.9632 37.4891 62.9417 37.4243C62.9202 37.3596 62.8709 37.3011 62.7949 37.2475C62.7696 37.2164 62.7709 37.1878 62.7975 37.1629C62.8772 37.0932 62.9455 37.0197 63.0025 36.9425C63.0594 36.8653 63.1354 36.7994 63.2303 36.7458C63.3518 36.6724 63.4707 36.6761 63.5884 36.7558C63.634 36.7832 63.6732 36.8218 63.7061 36.8741C63.739 36.9263 63.7694 36.9824 63.7985 37.0409C63.8276 37.1006 63.858 37.1592 63.8871 37.2164C63.9162 37.2737 63.9516 37.321 63.9921 37.3571C64.0174 37.3832 64.0162 37.4094 63.9896 37.4343H63.9921ZM63.9782 39.5818C63.9643 39.5407 63.9339 39.4872 63.8896 39.4225C63.8453 39.3577 63.7972 39.3042 63.7466 39.2619L63.7226 40.1122C63.739 40.0823 63.7593 40.0412 63.7846 39.9914C63.8099 39.9416 63.8339 39.8893 63.8593 39.8358C63.8846 39.7835 63.9073 39.7324 63.9301 39.6839C63.9516 39.6366 63.9694 39.6017 63.9795 39.5818H63.9782Z" fill="#C51F25"/>
<path d="M66.2386 37.5391C66.1576 37.5914 66.1044 37.6474 66.0778 37.7084C66.0513 37.7682 66.0361 37.8417 66.0323 37.9288L65.95 39.6207C65.9424 39.8709 65.9842 40.0427 66.0728 40.1373C66.1614 40.2307 66.2778 40.2606 66.4195 40.227C66.4461 40.2182 66.4664 40.222 66.4815 40.2382C66.4967 40.2543 66.4955 40.2718 66.479 40.2917C66.4233 40.3714 66.3638 40.456 66.3031 40.5482C66.2411 40.6403 66.1778 40.7249 66.1107 40.8034C66.0449 40.8818 65.9766 40.9453 65.907 40.9926C65.8374 41.0412 65.7652 41.0598 65.6931 41.0511C65.5944 41.0412 65.5071 41.0001 65.4299 40.9279C65.3527 40.8557 65.2843 40.7722 65.2236 40.6801C65.1628 40.588 65.1084 40.4971 65.0616 40.4075C65.0135 40.3178 64.968 40.2543 64.9224 40.217C64.9072 40.2058 64.9021 40.1933 64.9047 40.1784C64.9072 40.1635 64.9148 40.151 64.9262 40.1411C64.9781 40.1386 65.0173 40.1211 65.0426 40.0888C65.0679 40.0564 65.0856 40.0178 65.0945 39.9717C65.1046 39.9257 65.111 39.8784 65.1135 39.8273C65.116 39.7763 65.1186 39.7302 65.1198 39.6891L65.216 37.7296C65.2198 37.6487 65.2122 37.5752 65.192 37.5093C65.1717 37.4445 65.1236 37.3848 65.0489 37.33C65.03 37.3038 65.0312 37.2752 65.0527 37.2453C65.1388 37.1781 65.2122 37.1059 65.2704 37.0287C65.3286 36.9528 65.4058 36.888 65.502 36.8357C65.6248 36.7648 65.7412 36.7698 65.8526 36.8519C65.8981 36.8793 65.9374 36.9204 65.9715 36.9727C66.0057 37.025 66.0361 37.0822 66.0652 37.142C66.093 37.2017 66.1221 37.2615 66.15 37.3188C66.1778 37.376 66.2095 37.4234 66.2449 37.4619C66.274 37.4943 66.274 37.5192 66.2411 37.5379L66.2386 37.5391Z" fill="#C51F25"/>
<path d="M67.8648 38.3393C67.8774 38.089 67.8407 37.9172 67.7559 37.8251C67.6712 37.733 67.5573 37.6994 67.4155 37.7255C67.3839 37.7392 67.3611 37.7367 67.3497 37.7205C67.3371 37.7044 67.3371 37.6869 67.3497 37.667C67.4067 37.5886 67.4687 37.5039 67.5357 37.4105C67.6016 37.3172 67.6686 37.2338 67.737 37.1591C67.804 37.0844 67.8736 37.0234 67.9445 36.9773C68.0154 36.9312 68.0837 36.9126 68.1521 36.9225C68.2558 36.935 68.3444 36.9773 68.4204 37.052C68.4963 37.1267 68.5621 37.2089 68.6178 37.2997C68.6735 37.3906 68.7254 37.4815 68.7709 37.5711C68.8165 37.6608 68.862 37.728 68.9051 37.7716C68.9456 37.7952 68.943 37.8201 68.9 37.8475C68.8532 37.85 68.8152 37.8662 68.7874 37.8973C68.7595 37.9284 68.7393 37.967 68.7292 38.0131C68.7178 38.0579 68.7114 38.1052 68.7076 38.1538C68.7038 38.2023 68.7013 38.2471 68.6988 38.2882L68.6393 39.1597C68.7405 39.197 68.8494 39.2481 68.9645 39.3116C69.0797 39.3763 69.1911 39.4473 69.2974 39.5257C69.4037 39.6041 69.4999 39.6875 69.5847 39.7747C69.6695 39.8618 69.7327 39.9465 69.7745 40.0262L69.915 37.9994C69.92 37.9185 69.915 37.845 69.8947 37.779C69.8745 37.7131 69.8289 37.6533 69.7555 37.5973C69.7315 37.5649 69.734 37.5375 69.7606 37.5126C69.8428 37.4466 69.915 37.3757 69.9744 37.2997C70.0339 37.225 70.1124 37.1616 70.2098 37.1118C70.3339 37.0433 70.4503 37.0508 70.5591 37.1354C70.6034 37.164 70.6427 37.2051 70.6756 37.2587C70.7085 37.3122 70.7376 37.3695 70.7654 37.4305C70.792 37.4915 70.8198 37.55 70.8464 37.6085C70.873 37.667 70.9059 37.7156 70.9451 37.7529C70.9641 37.7853 70.9616 37.8102 70.9401 37.8288C70.8591 37.8799 70.8034 37.9347 70.7768 37.9944C70.749 38.0542 70.7325 38.1276 70.7262 38.2135L70.5768 40.3772C70.5705 40.4644 70.5768 40.5403 70.5958 40.6051C70.6148 40.6711 70.6616 40.7308 70.735 40.7868C70.754 40.8142 70.7515 40.8416 70.7287 40.8715C70.6414 40.9375 70.5566 41.0122 70.4756 41.0968C70.3946 41.1815 70.3048 41.2475 70.2086 41.2973C70.1769 41.311 70.139 41.3147 70.0985 41.3097C70.058 41.3047 70.0149 41.291 69.9719 41.2711C69.9289 41.2499 69.8871 41.2275 69.8479 41.2014C69.8074 41.1753 69.7758 41.1516 69.7517 41.1292C69.7024 41.0856 69.6581 41.0035 69.6163 40.8864C69.5745 40.7682 69.5176 40.6362 69.4442 40.4905C69.3708 40.3449 69.2695 40.1942 69.1392 40.0399C69.0088 39.8855 68.8317 39.7461 68.6051 39.6241L68.5229 40.8167C68.428 40.9126 68.3394 40.9972 68.2596 41.0719C68.1786 41.1454 68.0787 41.179 67.9597 41.1715C67.8977 41.1678 67.8395 41.1454 67.7851 41.1055C67.7205 41.0607 67.6395 40.9823 67.5433 40.8702C67.4472 40.7594 67.3522 40.6325 67.2611 40.4905C67.17 40.3486 67.0877 40.2042 67.0181 40.056C66.9473 39.9079 66.903 39.7772 66.8853 39.6626C66.903 39.6228 66.9435 39.573 67.0042 39.5133C67.065 39.4535 67.1384 39.3937 67.2232 39.3365C67.3079 39.278 67.4029 39.2257 67.5066 39.1784C67.6117 39.1311 67.7142 39.1012 67.8142 39.0875L67.8661 38.338L67.8648 38.3393ZM67.8002 39.4958C67.7787 39.4996 67.7471 39.512 67.7041 39.5319C67.661 39.5518 67.6167 39.5755 67.5699 39.6004C67.5244 39.6253 67.4826 39.6514 67.4472 39.6763C67.4117 39.7012 67.3877 39.7249 67.3763 39.7448C67.3902 39.7759 67.413 39.8232 67.4446 39.8842C67.4763 39.9452 67.5117 40.0075 67.5484 40.0722C67.5851 40.1357 67.6218 40.1992 67.656 40.2602C67.6901 40.3212 67.718 40.3685 67.7357 40.3997L67.7977 39.4971L67.8002 39.4958Z" fill="#C51F25"/>
<path d="M70.9615 36.1598C70.859 36.3316 70.7514 36.4549 70.6413 36.5296C70.5312 36.6055 70.435 36.6292 70.354 36.603C70.2984 36.5831 70.2288 36.5308 70.144 36.4474C70.0604 36.364 69.9617 36.2743 69.8504 36.1772C69.739 36.0801 69.6137 35.9905 69.4745 35.9046C69.3353 35.8187 69.1821 35.7589 69.0126 35.7253C68.8999 35.7004 68.8291 35.7067 68.8 35.7428C68.7708 35.7789 68.7696 35.8249 68.7962 35.8809C68.8227 35.937 68.8721 35.9917 68.943 36.0465C69.0138 36.1013 69.0948 36.1399 69.1872 36.1623C69.2024 36.1685 69.2049 36.1822 69.1961 36.2009C69.1872 36.2208 69.172 36.2432 69.1518 36.2669C69.1315 36.2905 69.1087 36.3129 69.0834 36.3341C69.0581 36.3553 69.0429 36.3702 69.0366 36.3802C68.9759 36.4262 68.8999 36.4574 68.8101 36.4735C68.7202 36.4897 68.6316 36.4822 68.5456 36.4524C68.4595 36.4225 68.3836 36.369 68.3165 36.2918C68.2494 36.2146 68.2102 36.1038 68.1963 35.9594C68.3887 35.7091 68.5823 35.5261 68.7734 35.4141C68.9645 35.302 69.153 35.2398 69.3365 35.2286C69.3479 35.1527 69.3808 35.0879 69.4353 35.0331C69.4897 34.9784 69.558 34.9547 69.6403 34.9609C69.7124 34.9721 69.7719 34.9921 69.8187 35.0219C69.8655 35.0518 69.9136 35.0892 69.9617 35.134C69.9858 35.1663 69.9845 35.195 69.9592 35.2186C69.9339 35.2423 69.92 35.2672 69.9174 35.2921L69.9098 35.3755C69.9541 35.3992 70.006 35.4365 70.0642 35.4838C70.1224 35.5324 70.1731 35.5784 70.2174 35.6232L70.2288 35.4938C70.2389 35.3668 70.2781 35.256 70.3464 35.1614C70.4148 35.0668 70.5072 35.0269 70.6261 35.0419C70.7299 35.0555 70.8248 35.1066 70.9147 35.1962C71.0033 35.2859 71.0817 35.363 71.1488 35.4303C71.1665 35.4626 71.164 35.49 71.1412 35.5137C71.0817 35.5498 71.0438 35.5834 71.0311 35.612C71.0185 35.6419 71.0071 35.7079 70.9995 35.8087L70.9742 36.1137C70.9729 36.1337 70.9691 36.1499 70.9628 36.1586L70.9615 36.1598Z" fill="#C51F25"/>
<path d="M72.9775 39.4867C72.9206 39.4294 72.8586 39.4269 72.7902 39.4767C72.7232 39.5265 72.6574 39.5962 72.5941 39.6859C72.5308 39.7755 72.4764 39.8701 72.4333 39.971C72.3891 40.0718 72.365 40.1452 72.3612 40.1913C72.3612 40.2996 72.3941 40.4017 72.4599 40.4976C72.5257 40.5934 72.608 40.6793 72.7054 40.7553C72.8016 40.8312 72.9092 40.8922 73.0282 40.9395C73.1459 40.9868 73.2534 41.018 73.3521 41.0316C73.4698 41.0528 73.5888 41.0615 73.709 41.0578C73.8292 41.0541 73.9368 41.0279 74.0305 40.9806L74.2747 38.4857C74.1925 38.4683 74.0925 38.4347 73.971 38.3874C73.8508 38.3401 73.7255 38.2903 73.5977 38.2368C73.4698 38.1832 73.342 38.1297 73.2142 38.0737C73.0864 38.0176 72.9699 37.9703 72.8649 37.9293C72.7092 37.8683 72.584 37.8321 72.4916 37.8209C72.3992 37.8097 72.3321 37.8147 72.2903 37.8371C72.2486 37.8595 72.2309 37.8907 72.2385 37.9317C72.2448 37.9741 72.2676 38.0176 72.3081 38.065C72.3473 38.1123 72.3992 38.1571 72.4637 38.1994C72.527 38.2417 72.5979 38.2716 72.6738 38.289C72.6941 38.2965 72.6979 38.3102 72.6852 38.3326C72.6725 38.355 72.6561 38.3774 72.6358 38.4011C72.6156 38.4247 72.5915 38.4484 72.5662 38.472C72.5409 38.4957 72.5219 38.5119 72.5106 38.5206C72.4435 38.5654 72.3625 38.5953 72.2676 38.609C72.1726 38.6227 72.079 38.614 71.9879 38.5828C71.8968 38.5517 71.817 38.4932 71.7462 38.4098C71.6753 38.3264 71.6323 38.2094 71.6158 38.0587C71.8651 37.7487 72.1195 37.5383 72.3777 37.4263C72.6358 37.3142 72.8814 37.2744 73.1129 37.3068C73.2218 37.3167 73.3623 37.3491 73.5344 37.4039C73.7065 37.4587 73.8862 37.5172 74.0735 37.5782C74.2608 37.6392 74.4405 37.6964 74.6126 37.7487C74.7847 37.801 74.9252 37.8321 75.034 37.8421C75.0923 37.8371 75.1277 37.8409 75.1429 37.8521C75.1581 37.8633 75.1619 37.8981 75.1568 37.9541L74.8303 41.2881C74.8252 41.3441 74.8138 41.3765 74.7974 41.3852C74.7809 41.3939 74.7442 41.3902 74.6885 41.3753C74.5797 41.3653 74.4392 41.369 74.2646 41.3889C74.09 41.4089 73.9102 41.4313 73.7255 41.4574C73.5407 41.4836 73.3597 41.5072 73.1863 41.5296C73.0117 41.552 72.87 41.557 72.7624 41.5471C72.5915 41.5359 72.4384 41.496 72.3043 41.4263C72.1701 41.3566 72.0524 41.2757 71.9524 41.181C71.8525 41.0864 71.7689 40.9843 71.7044 40.8723C71.6399 40.7602 71.593 40.6582 71.5665 40.5623C71.5323 40.4353 71.5272 40.3195 71.5538 40.215C71.5728 40.1191 71.6234 39.9946 71.7031 39.8402C71.7829 39.6859 71.8778 39.5377 71.9853 39.3933C72.0929 39.2501 72.2094 39.1281 72.3346 39.0298C72.4587 38.9314 72.5751 38.8916 72.6827 38.9128C72.7282 38.9227 72.7788 38.9464 72.832 38.985C72.8852 39.0236 72.937 39.0684 72.9877 39.1194C73.037 39.1705 73.0864 39.2252 73.1357 39.2838C73.1851 39.3423 73.2294 39.3995 73.2711 39.4543C73.3407 39.5427 73.3964 39.6286 73.4369 39.712C73.4774 39.7954 73.5002 39.8788 73.5027 39.961C73.5053 40.0432 73.485 40.1216 73.4407 40.1975C73.3964 40.2735 73.3243 40.3469 73.2231 40.4191C73.1876 40.4054 73.1446 40.3781 73.094 40.3382C73.0433 40.2971 72.9953 40.2523 72.951 40.2013C72.9067 40.1502 72.8636 40.0979 72.8257 40.0432C72.7864 39.9884 72.7611 39.9448 72.7485 39.9124C72.7409 39.8863 72.7421 39.8639 72.751 39.8477C72.7611 39.8303 72.7788 39.8228 72.8042 39.8253C72.8877 39.7767 72.9459 39.7207 72.9813 39.6572C73.0155 39.5937 73.0155 39.5377 72.9788 39.4879L72.9775 39.4867Z" fill="#C51F25"/>
<path d="M78.1688 37.8546C78.2612 37.8708 78.3422 37.9032 78.4118 37.9492C78.4814 37.9965 78.5396 38.0476 78.5851 38.1011C78.6307 38.1559 78.6674 38.2057 78.6965 38.2493C78.7256 38.2941 78.7433 38.3239 78.7522 38.3414L78.3308 41.704C78.3232 41.76 78.3118 41.7924 78.2953 41.7998C78.2789 41.8085 78.2422 41.8036 78.1878 41.7861C78.0751 41.7675 77.9701 41.7712 77.8726 41.7986C77.7752 41.826 77.6803 41.8534 77.5879 41.8832C77.4841 41.9218 77.3879 41.9542 77.3006 41.9791C77.2133 42.0052 77.1133 42.0102 76.9994 41.9965C76.8197 41.9741 76.64 41.887 76.4628 41.7351C76.2857 41.582 76.1287 41.399 75.9946 41.1836C75.8592 40.9694 75.7567 40.7416 75.687 40.5014C75.6174 40.2611 75.6023 40.0457 75.6428 39.8552C75.6668 39.7457 75.7237 39.6212 75.8111 39.4817C75.8997 39.3436 75.9895 39.2253 76.0832 39.1282C76.1768 39.0311 76.254 38.9751 76.316 38.9601C76.378 38.9439 76.3907 39.0037 76.3527 39.1381C76.3122 39.2514 76.2958 39.3884 76.3059 39.549C76.3148 39.7096 76.3413 39.8776 76.3882 40.0532C76.4337 40.2287 76.4957 40.403 76.5742 40.5773C76.6514 40.7516 76.74 40.906 76.8374 41.0417C76.9349 41.1774 77.0437 41.2869 77.1614 41.3703C77.2791 41.4537 77.4006 41.4936 77.5271 41.4873L77.8701 38.7485C77.8764 38.6974 77.8726 38.6539 77.8587 38.6165C77.8448 38.5792 77.8271 38.5468 77.8043 38.5206C77.7815 38.4945 77.7575 38.4771 77.7322 38.4659C77.7069 38.4547 77.6866 38.4509 77.6714 38.4547C77.6094 38.4472 77.5613 38.4621 77.5284 38.4995C77.4955 38.5368 77.4765 38.5829 77.4715 38.6389C77.4664 38.6949 77.4791 38.7547 77.5082 38.8169C77.5373 38.8792 77.5803 38.9352 77.636 38.9838C77.6664 38.9875 77.6752 39.0012 77.6626 39.0261C77.6474 39.0659 77.6208 39.1095 77.5828 39.1593C77.5449 39.2091 77.5018 39.2539 77.4525 39.2938C77.4031 39.3336 77.3525 39.3635 77.3006 39.3834C77.2487 39.4033 77.2006 39.3996 77.1563 39.3734C77.1272 39.3597 77.0969 39.3324 77.0678 39.2938C77.0386 39.2539 77.0146 39.2141 76.9969 39.173C76.9779 39.1319 76.964 39.0946 76.9526 39.0597C76.9412 39.0248 76.9361 39.0049 76.9374 39C76.9336 38.9838 76.9551 38.9439 76.9994 38.8804C77.0437 38.8169 77.1019 38.741 77.1728 38.6539C77.2437 38.5667 77.3259 38.4746 77.4196 38.375C77.5132 38.2754 77.6069 38.187 77.7005 38.1073C77.7942 38.0289 77.8815 37.9629 77.965 37.9119C78.0486 37.8608 78.1169 37.8397 78.1726 37.8521L78.1688 37.8546Z" fill="#C51F25"/>
<path d="M49.1967 46.0776C49.1473 46.0639 49.103 46.0527 49.0638 46.0452C49.0246 46.0365 48.9904 46.0353 48.9587 46.039C48.9271 46.0428 48.898 46.054 48.8702 46.0714C48.8423 46.0888 48.8132 46.1187 48.7828 46.1585C48.7474 46.2021 48.717 46.2494 48.6942 46.3005C48.6702 46.3515 48.6651 46.4025 48.6753 46.4511C48.6803 46.4897 48.6968 46.532 48.7234 46.5793C48.7499 46.6266 48.7803 46.6777 48.8145 46.7324C48.8486 46.7872 48.8853 46.8445 48.922 46.908C48.9587 46.9715 48.9942 47.0337 49.0271 47.0997C49.0321 47.1072 49.0359 47.1159 49.0372 47.1221C49.0385 47.1296 49.0423 47.1371 49.0473 47.1445C49.0613 47.1097 49.0777 47.0711 49.0992 47.03C49.1195 46.9889 49.1423 46.9503 49.165 46.9142C49.1891 46.8781 49.2119 46.8457 49.2359 46.8184C49.2587 46.791 49.2802 46.7735 49.3004 46.7661C49.3308 46.7549 49.3625 46.7573 49.3979 46.7723C49.4321 46.7872 49.4662 46.8084 49.5017 46.8358C49.5358 46.8632 49.5675 46.893 49.5941 46.9279C49.6219 46.9615 49.6421 46.9939 49.6561 47.0238C49.6586 47.0536 49.651 47.0848 49.6333 47.1159C49.6156 47.147 49.5928 47.1756 49.5675 47.203C49.5409 47.2304 49.5143 47.2541 49.4852 47.274C49.4561 47.2939 49.4321 47.3089 49.4131 47.3163C49.3992 47.3275 49.3865 47.325 49.3764 47.3089C49.3738 47.284 49.365 47.2578 49.3498 47.2279C49.3346 47.1981 49.3169 47.1732 49.2966 47.1545C49.2764 47.1358 49.2549 47.1259 49.2321 47.1259C49.2093 47.1259 49.1891 47.142 49.1701 47.1744C49.1612 47.1906 49.1511 47.2192 49.1397 47.2603C49.1283 47.3014 49.1169 47.3387 49.1093 47.3748C49.1119 47.4732 49.0739 47.569 48.9929 47.6637C48.9676 47.6935 48.9372 47.7259 48.9018 47.7608C48.8664 47.7956 48.8271 47.8305 48.7879 47.8629C48.7487 47.8952 48.7069 47.9251 48.6639 47.95C48.6208 47.9749 48.5804 47.9923 48.5424 48.001C48.4348 47.9824 48.3665 47.9512 48.3374 47.9089C48.3083 47.8666 48.2994 47.823 48.3121 47.777C48.3247 47.7309 48.3488 47.6873 48.3867 47.6462C48.4247 47.6052 48.4538 47.5765 48.4753 47.5603C48.5006 47.5305 48.5196 47.5205 48.5335 47.5317C48.5474 47.5429 48.5525 47.5591 48.55 47.5803C48.55 47.6126 48.5626 47.6425 48.5892 47.6674C48.6158 47.6935 48.6424 47.7097 48.6715 47.7184C48.7006 47.7259 48.7259 47.7247 48.7461 47.7122C48.7664 47.6998 48.7714 47.6711 48.7601 47.6251C48.755 47.5977 48.7461 47.5703 48.7335 47.5417C48.7208 47.513 48.7082 47.4881 48.6942 47.467C48.65 47.3885 48.5993 47.3076 48.5436 47.2267C48.4867 47.1458 48.4373 47.0649 48.3931 46.9864C48.3488 46.908 48.3184 46.8333 48.2994 46.7623C48.2817 46.6914 48.2867 46.6266 48.3146 46.5669C48.3336 46.5121 48.3627 46.4548 48.4019 46.3938C48.4399 46.3328 48.4816 46.2743 48.5259 46.2183C48.5702 46.1623 48.6107 46.1137 48.6474 46.0714C48.6841 46.0291 48.7094 46.0017 48.7234 45.988C48.817 45.8934 48.9132 45.8261 49.0106 45.7863C49.1081 45.7465 49.2043 45.7303 49.2979 45.7352C49.3561 45.7352 49.4219 45.7452 49.4966 45.7651C49.5713 45.785 49.6459 45.8075 49.7219 45.8299C49.7978 45.8535 49.8725 45.8734 49.9446 45.8934C50.018 45.912 50.0838 45.922 50.1408 45.922C50.1737 45.917 50.1939 45.917 50.2002 45.922C50.2066 45.927 50.2104 45.9456 50.2104 45.9755V47.401C50.2104 47.4446 50.2167 47.4831 50.2294 47.5168C50.242 47.5504 50.2686 47.5815 50.3103 47.6089C50.3268 47.6226 50.3268 47.6375 50.3103 47.6537C50.2914 47.6724 50.2736 47.6973 50.2559 47.7272C50.2395 47.757 50.223 47.7869 50.2066 47.8168C50.1901 47.8467 50.1724 47.8753 50.1522 47.9027C50.1332 47.9301 50.1104 47.9512 50.0863 47.9674C50.0256 48.0048 49.9636 48.0048 49.9003 47.9674C49.851 47.9376 49.8117 47.9014 49.7826 47.8591C49.7535 47.8168 49.7168 47.777 49.6725 47.7384C49.6637 47.7197 49.6637 47.7048 49.6725 47.6935C49.7143 47.6662 49.7409 47.6363 49.7535 47.6014C49.7662 47.5678 49.7725 47.528 49.7725 47.4819V46.3005C49.7282 46.2955 49.6839 46.283 49.6383 46.2644C49.5928 46.2457 49.5472 46.2245 49.5017 46.2033C49.4561 46.1822 49.408 46.1598 49.3587 46.1361C49.3093 46.1137 49.2549 46.0938 49.1967 46.0776Z" fill="#C51F25"/>
<path d="M50.6444 47.666C50.6836 47.6149 50.7229 47.5651 50.7621 47.5178C50.8026 47.4705 50.8342 47.4394 50.8595 47.4257C50.8785 47.417 50.9064 47.4232 50.9418 47.4444C50.9772 47.4643 51.0127 47.4904 51.0468 47.5215C51.081 47.5527 51.1114 47.585 51.138 47.6174C51.1645 47.6498 51.1772 47.6734 51.1772 47.6871C51.1772 47.7033 51.1709 47.7257 51.1569 47.7519C51.143 47.778 51.1266 47.8066 51.1051 47.8353C51.0848 47.8639 51.062 47.8913 51.0367 47.9162C51.0114 47.9411 50.9886 47.961 50.9658 47.9747C50.9405 47.9934 50.914 48.0009 50.8848 47.9971C50.8557 47.9934 50.8279 47.9834 50.8001 47.9672C50.7722 47.9511 50.7456 47.9311 50.7191 47.9062C50.6925 47.8813 50.6697 47.8577 50.6507 47.8328C50.6204 47.7979 50.6039 47.7705 50.6014 47.7531C50.5988 47.7357 50.6128 47.7058 50.6431 47.666H50.6444Z" fill="#C51F25"/>
<path d="M52.3543 46.0782C52.3049 46.0645 52.2606 46.0533 52.2214 46.0458C52.1821 46.0371 52.148 46.0358 52.1163 46.0396C52.0847 46.0433 52.0543 46.0545 52.0277 46.0719C52.0012 46.0894 51.9708 46.1193 51.9404 46.1591C51.905 46.2027 51.8746 46.25 51.8518 46.301C51.8291 46.3521 51.8227 46.4031 51.8328 46.4517C51.8379 46.4902 51.8544 46.5326 51.8809 46.5799C51.9075 46.6272 51.9379 46.6782 51.9721 46.733C52.0062 46.7878 52.0429 46.8451 52.0796 46.9085C52.1176 46.9708 52.1518 47.0343 52.1847 47.1003C52.1872 47.1077 52.1897 47.1165 52.1935 47.1227C52.1961 47.1301 52.1999 47.1376 52.2062 47.1451C52.2201 47.1102 52.2366 47.0716 52.2581 47.0305C52.2796 46.9895 52.3011 46.9509 52.3239 46.9148C52.3467 46.8787 52.3707 46.8463 52.3947 46.8189C52.4175 46.7915 52.439 46.7741 52.4593 46.7666C52.4897 46.7554 52.5213 46.7579 52.5567 46.7728C52.5909 46.7878 52.6251 46.8089 52.6605 46.8363C52.6947 46.8637 52.7263 46.8936 52.7542 46.9285C52.782 46.9621 52.8023 46.9944 52.8162 47.0243C52.8187 47.0542 52.8111 47.0853 52.7934 47.1164C52.7757 47.1476 52.7529 47.1762 52.7276 47.2036C52.701 47.231 52.6732 47.2546 52.6441 47.2746C52.615 47.2945 52.5909 47.3094 52.5719 47.3169C52.558 47.3281 52.5453 47.3256 52.534 47.3094C52.5314 47.2845 52.5226 47.2584 52.5074 47.2285C52.4922 47.1986 52.4745 47.1737 52.453 47.155C52.4327 47.1364 52.4112 47.1264 52.3884 47.1264C52.3656 47.1264 52.3454 47.1426 52.3264 47.175C52.3188 47.1911 52.3074 47.2198 52.296 47.2609C52.2846 47.3019 52.2733 47.3393 52.2657 47.3754C52.2682 47.4738 52.2302 47.5696 52.1492 47.6642C52.1239 47.6941 52.0935 47.7265 52.0581 47.7613C52.0227 47.7962 51.9834 47.831 51.9442 47.8634C51.905 47.8958 51.8632 47.9257 51.8202 47.9506C51.7772 47.9767 51.7367 47.9929 51.6974 48.0016C51.5899 47.9829 51.5215 47.9518 51.4924 47.9095C51.4633 47.8671 51.4557 47.8236 51.4671 47.7775C51.4785 47.7315 51.5038 47.6879 51.5418 47.6468C51.5797 47.6057 51.6088 47.5771 51.6304 47.5609C51.6557 47.531 51.6747 47.5211 51.6886 47.5323C51.7025 47.5435 51.7076 47.5597 51.705 47.5808C51.705 47.6132 51.7177 47.6431 51.7443 47.668C51.7708 47.6929 51.7987 47.7103 51.8265 47.719C51.8556 47.7265 51.8809 47.7252 51.9012 47.7128C51.9214 47.7003 51.9265 47.6717 51.9164 47.6256C51.9113 47.5982 51.9012 47.5709 51.8898 47.5422C51.8784 47.5136 51.8645 47.4887 51.8506 47.4675C51.8063 47.3891 51.7556 47.3082 51.7 47.2273C51.643 47.1463 51.5937 47.0654 51.5494 46.987C51.5051 46.9085 51.4747 46.8338 51.457 46.7629C51.4393 46.6919 51.4431 46.6272 51.4722 46.5674C51.4912 46.5127 51.5203 46.4554 51.5595 46.3944C51.5987 46.3334 51.6392 46.2749 51.6835 46.2188C51.7278 46.1628 51.7683 46.1143 51.805 46.0719C51.8417 46.0296 51.8683 46.0022 51.8809 45.9885C51.9746 45.8939 52.0708 45.8267 52.1682 45.7869C52.2657 45.747 52.3618 45.7308 52.4555 45.7358C52.5112 45.7358 52.5745 45.7458 52.6453 45.7644C52.7175 45.7831 52.7921 45.8043 52.8693 45.8254C52.944 45.8254 53.0199 45.813 53.0971 45.7893C53.1743 45.7644 53.2452 45.7346 53.3097 45.6972C53.3743 45.6611 53.4287 45.62 53.473 45.5752C53.5173 45.5304 53.5451 45.4856 53.5565 45.4383C53.5616 45.4109 53.5451 45.3972 53.5072 45.3972C53.4932 45.3947 53.4856 45.3835 53.4819 45.3648C53.4793 45.3461 53.4819 45.3324 53.4856 45.3237C53.511 45.3075 53.5388 45.2914 53.5704 45.2752C53.6021 45.259 53.635 45.2441 53.6704 45.2304C53.7046 45.2167 53.7375 45.2055 53.7704 45.198C53.802 45.1893 53.8286 45.1855 53.8514 45.1855C53.8792 45.1855 53.9007 45.1955 53.9172 45.2167C53.9337 45.2366 53.9463 45.2615 53.9539 45.2901C53.9628 45.3188 53.9666 45.3474 53.9691 45.3773C53.9691 45.4071 53.9691 45.432 53.9666 45.4507C53.9412 45.5291 53.8957 45.5976 53.8299 45.6549C53.7641 45.7122 53.6881 45.7595 53.6021 45.7968C53.516 45.8342 53.4262 45.864 53.3325 45.884C53.2389 45.9039 53.1541 45.9188 53.0807 45.9263C53.1199 45.9375 53.1579 45.9462 53.1971 45.9524C53.2363 45.9587 53.2705 45.9624 53.3009 45.9624C53.3338 45.9574 53.354 45.9574 53.3604 45.9624C53.3667 45.9674 53.3705 45.986 53.3705 46.0159V47.4003C53.3705 47.4439 53.3768 47.4825 53.3895 47.5161C53.4021 47.5497 53.4287 47.5808 53.4705 47.6082C53.4869 47.6219 53.4869 47.6368 53.4705 47.653C53.4515 47.6717 53.4338 47.6966 53.416 47.7265C53.3996 47.7563 53.3831 47.7862 53.3667 47.8161C53.3502 47.846 53.3325 47.8746 53.3123 47.902C53.2933 47.9294 53.2705 47.9506 53.2465 47.9667C53.1857 48.0041 53.1237 48.0041 53.0604 47.9667C53.0111 47.9369 52.9718 47.9008 52.9427 47.8584C52.9136 47.8161 52.8769 47.7763 52.8326 47.7377C52.825 47.719 52.825 47.7041 52.8326 47.6929C52.8744 47.6655 52.901 47.6356 52.9136 47.6007C52.9263 47.5671 52.9326 47.5273 52.9326 47.4812V46.2998C52.8883 46.2948 52.844 46.2823 52.7985 46.2637C52.7529 46.245 52.7073 46.2238 52.6618 46.2027C52.6162 46.1815 52.5681 46.1591 52.5188 46.1354C52.4694 46.113 52.415 46.0931 52.3568 46.0769L52.3543 46.0782Z" fill="#C51F25"/>
<path d="M53.7906 47.666C53.8299 47.6149 53.8691 47.5651 53.9083 47.5178C53.9488 47.4705 53.9805 47.4394 54.0058 47.4257C54.0248 47.417 54.0526 47.4232 54.088 47.4444C54.1235 47.4643 54.1589 47.4904 54.1931 47.5215C54.2272 47.5527 54.2576 47.585 54.2842 47.6174C54.3108 47.6498 54.3234 47.6734 54.3234 47.6871C54.3234 47.7033 54.3171 47.7257 54.3032 47.7519C54.2893 47.778 54.2728 47.8066 54.2513 47.8353C54.231 47.8639 54.2083 47.8913 54.183 47.9162C54.1576 47.9411 54.1349 47.961 54.1121 47.9747C54.0868 47.9934 54.0602 48.0009 54.0311 47.9971C54.002 47.9934 53.9741 47.9834 53.9463 47.9672C53.9185 47.9511 53.8919 47.9311 53.8653 47.9062C53.8387 47.8813 53.8159 47.8577 53.797 47.8328C53.7666 47.7979 53.7501 47.7705 53.7476 47.7531C53.7451 47.7357 53.759 47.7058 53.7894 47.666H53.7906Z" fill="#C51F25"/>
<path d="M56.6546 46.7902C56.6951 46.8363 56.7369 46.8811 56.7799 46.9209C56.8242 46.962 56.8685 46.9944 56.9128 47.018C56.9583 47.0417 57.0026 47.0541 57.0457 47.0554C57.0899 47.0566 57.1279 47.0417 57.1608 47.0093C57.1861 46.9919 57.1975 46.9707 57.1963 46.9471C57.195 46.9234 57.1849 46.901 57.1684 46.8798C57.152 46.8587 57.1317 46.84 57.1089 46.8238C57.0849 46.8076 57.0684 46.8002 57.057 46.8002C57.0393 46.7964 57.0317 46.789 57.0355 46.779C57.0469 46.7578 57.0646 46.7329 57.0899 46.7068C57.1153 46.6806 57.1444 46.6557 57.1773 46.6346C57.2102 46.6134 57.2443 46.596 57.281 46.5835C57.3177 46.5711 57.3494 46.5698 57.3785 46.581C57.3962 46.5885 57.4165 46.6022 57.4354 46.6209C57.4557 46.6408 57.4734 46.662 57.4899 46.6856C57.5063 46.7093 57.5202 46.7304 57.5304 46.7504C57.5417 46.7703 57.5468 46.7815 57.5468 46.7852C57.5544 46.7964 57.5291 46.8325 57.4709 46.8948C57.4127 46.957 57.3405 47.0255 57.2557 47.0989C57.1697 47.1724 57.0824 47.2371 56.9938 47.2944C56.9052 47.3517 56.8305 47.3803 56.7736 47.3803C56.7153 47.384 56.6546 47.3741 56.5913 47.3504C56.528 47.3268 56.466 47.2919 56.4066 47.2434C56.3471 47.1948 56.2914 47.1351 56.2408 47.0641C56.1901 46.9931 56.1484 46.9122 56.1155 46.8226C56.1231 46.7155 56.1572 46.5997 56.2193 46.4765C56.2813 46.3532 56.3623 46.2412 56.4622 46.1391C56.5622 46.037 56.6748 45.9536 56.8001 45.8876C56.9254 45.8216 57.052 45.7905 57.1785 45.7942C57.3051 45.7942 57.4329 45.8117 57.5595 45.8478C57.686 45.8839 57.8024 45.9399 57.9088 46.0171C58.0138 46.0943 58.1049 46.1926 58.1808 46.3121C58.2568 46.4317 58.3099 46.5773 58.339 46.7491C58.3606 46.8848 58.3492 47.0118 58.3036 47.1301C58.258 47.2483 58.1922 47.3554 58.1049 47.4513C58.0176 47.5471 57.9163 47.633 57.7999 47.709C57.6835 47.7849 57.5658 47.8472 57.4456 47.897C57.3367 47.943 57.2228 47.9741 57.1051 47.9878C56.9874 48.0015 56.871 48.004 56.7558 47.9928C56.6419 47.9816 56.5306 47.9592 56.423 47.9256C56.3154 47.892 56.2167 47.8484 56.1256 47.7949C56.1104 47.755 56.1256 47.7239 56.1699 47.699C56.2104 47.6741 56.2484 47.6405 56.2876 47.5969C56.3256 47.5546 56.361 47.5148 56.3939 47.4787C56.4192 47.4388 56.4508 47.4239 56.4863 47.4301C56.523 47.4376 56.5534 47.45 56.5787 47.4674C56.6774 47.5384 56.7736 47.5919 56.8672 47.628C56.9621 47.6642 57.076 47.6853 57.2102 47.6928C57.276 47.689 57.3431 47.6791 57.4152 47.6604C57.4861 47.643 57.5531 47.6144 57.6164 47.5745C57.6797 47.5347 57.7341 47.4849 57.7771 47.4214C57.8214 47.3591 57.8442 47.2832 57.848 47.1936C57.8556 47.0541 57.8316 46.9172 57.7746 46.7802C57.7177 46.6445 57.6443 46.525 57.5531 46.4205C57.462 46.3171 57.362 46.2325 57.2532 46.169C57.1444 46.1042 57.0393 46.0756 56.9368 46.0831C56.8748 46.0905 56.8191 46.1092 56.771 46.1391C56.7217 46.169 56.6799 46.2101 56.6432 46.2599C56.5673 46.3632 56.5356 46.4603 56.5483 46.5499C56.5609 46.6396 56.5964 46.7192 56.6546 46.7914V46.7902Z" fill="#C51F25"/>
<path d="M60.3056 47.4432C60.2904 47.4071 60.2626 47.3436 60.2208 47.2502C60.1791 47.1568 60.1285 47.0535 60.0715 46.939C60.0133 46.8244 59.9488 46.7124 59.8779 46.6016C59.807 46.4908 59.7349 46.4011 59.6602 46.3339C59.5855 46.2667 59.5134 46.2293 59.4451 46.2244C59.3755 46.2194 59.3147 46.2667 59.2603 46.3663C59.2059 46.4485 59.1654 46.548 59.1401 46.6638C59.1148 46.7796 59.111 46.8829 59.1287 46.9726C59.1578 47.1232 59.2173 47.249 59.3059 47.351C59.3944 47.4531 59.4754 47.5365 59.5488 47.6C59.5893 47.6361 59.6286 47.6573 59.6691 47.6648C59.7096 47.6722 59.7437 47.661 59.7728 47.6324C59.7981 47.6187 59.8083 47.5988 59.8032 47.5739C59.7981 47.549 59.7855 47.5253 59.7678 47.5017C59.7501 47.478 59.7273 47.4581 59.702 47.4407C59.6767 47.4232 59.6577 47.4133 59.6476 47.4133C59.626 47.4133 59.6197 47.4058 59.6311 47.3921C59.6425 47.3747 59.6589 47.3523 59.683 47.3249C59.707 47.2975 59.7336 47.2739 59.7652 47.2527C59.7969 47.2315 59.8285 47.2141 59.864 47.2016C59.8981 47.1892 59.9298 47.188 59.9589 47.1992C59.9766 47.2066 59.9981 47.2203 60.0209 47.239C60.0449 47.2589 60.0664 47.2801 60.0867 47.3037C60.1069 47.3274 60.1209 47.3535 60.131 47.3822C60.1398 47.4108 60.1411 47.4357 60.1335 47.4569C60.1158 47.5029 60.0766 47.5589 60.0158 47.6237C59.9563 47.6884 59.888 47.7482 59.8121 47.803C59.7361 47.859 59.6589 47.905 59.583 47.9424C59.5071 47.9797 59.4425 47.9972 59.3919 47.9934C59.3261 47.9897 59.2565 47.966 59.1818 47.9237C59.1072 47.8814 59.0376 47.8254 58.9718 47.7581C58.9059 47.6909 58.8503 47.6125 58.8034 47.5253C58.7566 47.4382 58.7275 47.3498 58.7161 47.2602C58.7123 47.2029 58.7224 47.127 58.7465 47.0323C58.7705 46.9377 58.8034 46.8356 58.8477 46.7261C58.8908 46.6165 58.9414 46.507 58.9996 46.3962C59.0578 46.2854 59.1186 46.1858 59.1818 46.0986C59.2451 46.0115 59.3071 45.9393 59.3666 45.8845C59.4261 45.8297 59.4818 45.8036 59.5324 45.8073C59.688 45.7936 59.8298 45.8285 59.9551 45.9144C60.0804 46.0003 60.1917 46.1111 60.2904 46.2468C60.3044 46.2393 60.3309 46.2293 60.3689 46.2144C60.4069 46.2007 60.4474 46.1833 60.4891 46.1634C60.5309 46.1434 60.5676 46.1235 60.598 46.1011C60.6283 46.08 60.6435 46.0563 60.6435 46.0314C60.622 45.9853 60.5954 45.938 60.5651 45.8895C60.5347 45.8409 60.5056 45.7924 60.4777 45.7426C60.4499 45.6928 60.4271 45.6417 60.4069 45.5894C60.3866 45.5372 60.3765 45.4849 60.3765 45.4313C60.3765 45.3815 60.3828 45.3317 60.3955 45.2844C60.4081 45.2359 60.4271 45.1923 60.4524 45.1537C60.4777 45.1151 60.5069 45.0828 60.5398 45.0579C60.5727 45.033 60.6106 45.0205 60.6537 45.0205C60.7005 45.0205 60.7448 45.033 60.7853 45.0579C60.8258 45.0828 60.8625 45.1139 60.8966 45.1487C60.9308 45.1848 60.9637 45.2222 60.9954 45.2608C61.027 45.2994 61.0561 45.3342 61.0852 45.3629C61.1029 45.3803 61.1029 45.4002 61.0852 45.4214C61.0308 45.4575 60.9954 45.4973 60.9789 45.5421C60.9625 45.587 60.9549 45.638 60.9549 45.6953V45.9368C60.9511 46.08 60.8979 46.1883 60.7967 46.2617C60.6942 46.3352 60.5663 46.3912 60.4094 46.431C60.5107 46.5954 60.598 46.7634 60.6676 46.9352C60.7384 47.107 60.7979 47.2477 60.8448 47.3585C60.8625 47.4046 60.889 47.4469 60.9207 47.4842C60.9536 47.5216 61.0042 47.5552 61.0738 47.5838C61.0953 47.595 61.1029 47.61 61.0953 47.6324C61.0776 47.6536 61.0637 47.6797 61.0548 47.7096C61.046 47.7395 61.0371 47.7718 61.0295 47.8067C61.0219 47.8403 61.0131 47.8714 61.0004 47.9001C60.9878 47.9287 60.9688 47.9523 60.9435 47.9698C60.8777 48.0121 60.7941 48.0121 60.6929 47.9698C60.6132 47.9374 60.5448 47.8988 60.4879 47.8515C60.4309 47.8042 60.3651 47.7619 60.2892 47.7233C60.2715 47.7058 60.2651 47.6897 60.2727 47.6747C60.3132 47.6461 60.3335 47.6125 60.3347 47.5751C60.336 47.5378 60.3271 47.4955 60.3044 47.4494L60.3056 47.4432Z" fill="#C51F25"/>
<path d="M61.9623 47.2878C61.9876 47.3239 62.023 47.3638 62.0686 47.4086C62.1142 47.4534 62.1648 47.4945 62.2217 47.5318C62.2787 47.5692 62.3356 47.5991 62.3938 47.6202C62.4521 47.6414 62.5052 47.6476 62.552 47.6364C62.5698 47.6289 62.59 47.6227 62.6115 47.6177C62.633 47.6127 62.6558 47.6065 62.6773 47.5991C62.6368 47.5057 62.6179 47.3936 62.6179 47.2617C62.6583 47.1795 62.7001 47.1048 62.7431 47.0388C62.7874 46.9728 62.8355 46.9118 62.8899 46.8571C62.9444 46.8023 63.0051 46.75 63.0722 46.7014C63.1393 46.6529 63.2165 46.6056 63.3038 46.5595C63.3481 46.5483 63.3936 46.5496 63.443 46.562C63.4923 46.5745 63.5379 46.5944 63.5822 46.6205C63.6265 46.6479 63.6645 46.6803 63.6974 46.7201C63.7303 46.76 63.7518 46.801 63.7632 46.8434C63.7746 46.8795 63.7568 46.9243 63.7113 46.9778C63.6657 47.0314 63.6126 47.0724 63.5506 47.1011C63.5392 47.1048 63.5252 47.1085 63.5063 47.1148C63.4873 47.121 63.4696 47.1222 63.4518 47.1222C63.4341 47.1222 63.4164 47.121 63.4 47.1173C63.3835 47.1135 63.3734 47.1048 63.3696 47.0899C63.362 47.0724 63.362 47.06 63.3671 47.0525C63.3721 47.0451 63.3696 47.0326 63.3595 47.0152C63.3379 46.9753 63.319 46.9479 63.3025 46.9318C63.2861 46.9156 63.2696 46.9006 63.2506 46.8857C63.2177 46.8645 63.1886 46.8558 63.1608 46.862C63.1329 46.8683 63.1089 46.8795 63.0874 46.8994C63.0659 46.9193 63.0456 46.9417 63.0279 46.9691C63.0102 46.9965 62.995 47.0214 62.9836 47.0463C63.0089 47.1397 63.0456 47.2243 63.0924 47.3015C63.1393 47.3787 63.1937 47.4409 63.2557 47.4895C63.3177 47.538 63.3835 47.5679 63.4544 47.5804C63.5252 47.5928 63.5936 47.5829 63.6594 47.5505C63.6809 47.5356 63.7062 47.5356 63.7353 47.5505C63.7644 47.5654 63.7758 47.5866 63.7682 47.6152C63.7353 47.7148 63.6796 47.7958 63.6024 47.8568C63.524 47.9178 63.4329 47.9638 63.3266 47.9962C63.2063 47.9887 63.1038 47.9676 63.019 47.9315C62.9342 47.8953 62.8634 47.8493 62.8089 47.792C62.7647 47.8132 62.7115 47.8356 62.6482 47.8592C62.5849 47.8829 62.5191 47.9053 62.4521 47.9265C62.385 47.9476 62.3192 47.9651 62.2559 47.9775C62.1926 47.99 62.1407 47.9962 62.1002 47.9962C61.8383 47.9103 61.6548 47.8045 61.5472 47.6775C61.4396 47.5505 61.3865 47.4098 61.3865 47.2567C61.3865 47.1384 61.4118 47.0164 61.4624 46.8894C61.513 46.7625 61.5801 46.633 61.6636 46.501C61.7763 46.3292 61.8952 46.1811 62.0205 46.0566C62.1458 45.9321 62.2635 45.8474 62.3723 45.8051H63.4025C63.3848 45.7765 63.362 45.7466 63.3367 45.7167C63.3114 45.6868 63.2861 45.6557 63.2633 45.6233C63.2405 45.591 63.219 45.5586 63.2038 45.5262C63.1873 45.4939 63.1785 45.4615 63.1785 45.4304C63.1785 45.3806 63.1848 45.3308 63.1975 45.2835C63.2101 45.2349 63.2278 45.1913 63.2519 45.1527C63.2759 45.1141 63.305 45.0818 63.3392 45.0569C63.3734 45.032 63.4126 45.0195 63.4569 45.0195C63.5037 45.0195 63.5468 45.032 63.5847 45.0569C63.6227 45.0818 63.6594 45.1129 63.6936 45.1478C63.7277 45.1839 63.7606 45.2212 63.7923 45.2598C63.8226 45.2996 63.8543 45.3333 63.8872 45.3619C63.9011 45.3831 63.9011 45.403 63.8872 45.4204C63.8328 45.4565 63.7961 45.4963 63.7784 45.5412C63.7606 45.586 63.7505 45.637 63.7505 45.6943C63.7429 45.7553 63.7151 45.8225 63.6657 45.896C63.6164 45.9694 63.5619 46.0366 63.4999 46.0964C63.4379 46.1574 63.3772 46.2085 63.3177 46.252C63.2582 46.2956 63.2139 46.3168 63.1848 46.3168H62.1547C62.1078 46.3168 62.0572 46.3454 62.0053 46.4027C61.9534 46.4599 61.9028 46.5272 61.856 46.6068C61.8307 46.6492 61.8155 46.7002 61.8104 46.76C61.8054 46.8185 61.8079 46.8795 61.818 46.9417C61.8294 47.004 61.8471 47.0662 61.8724 47.1272C61.8978 47.1882 61.9294 47.243 61.9648 47.2928L61.9623 47.2878Z" fill="#C51F25"/>
<path d="M64.7807 47.2878C64.806 47.3239 64.8414 47.3638 64.887 47.4086C64.9325 47.4534 64.9831 47.4945 65.0401 47.5318C65.097 47.5692 65.154 47.5991 65.2122 47.6202C65.2704 47.6414 65.3236 47.6476 65.3704 47.6364C65.3881 47.6289 65.4084 47.6227 65.4299 47.6177C65.4514 47.6127 65.4742 47.6065 65.4957 47.5991C65.4552 47.5057 65.4362 47.3936 65.4362 47.2617C65.4767 47.1795 65.5185 47.1048 65.5615 47.0388C65.6058 46.9728 65.6539 46.9118 65.7083 46.8571C65.7627 46.8023 65.8235 46.75 65.8905 46.7014C65.9576 46.6529 66.0348 46.6056 66.1221 46.5595C66.1664 46.5483 66.212 46.5496 66.2613 46.562C66.3107 46.5745 66.3563 46.5944 66.4006 46.6205C66.4448 46.6479 66.4828 46.6803 66.5157 46.7201C66.5486 46.76 66.5701 46.801 66.5815 46.8434C66.5929 46.8795 66.5752 46.9243 66.5296 46.9778C66.4841 47.0314 66.4309 47.0724 66.3689 47.1011C66.3575 47.1048 66.3436 47.1085 66.3246 47.1148C66.3056 47.121 66.2879 47.1222 66.2702 47.1222C66.2525 47.1222 66.2348 47.121 66.2183 47.1173C66.2019 47.1135 66.1917 47.1048 66.1879 47.0899C66.1804 47.0724 66.1803 47.06 66.1854 47.0525C66.1905 47.0451 66.1879 47.0326 66.1778 47.0152C66.1563 46.9753 66.1373 46.9479 66.1209 46.9318C66.1044 46.9156 66.088 46.9006 66.069 46.8857C66.0361 46.8645 66.007 46.8558 65.9791 46.862C65.9513 46.8683 65.9272 46.8795 65.9057 46.8994C65.8842 46.9193 65.864 46.9417 65.8462 46.9691C65.8285 46.9965 65.8133 47.0214 65.802 47.0463C65.8273 47.1397 65.864 47.2243 65.9108 47.3015C65.9576 47.3787 66.012 47.4409 66.074 47.4895C66.1361 47.538 66.2019 47.5679 66.2727 47.5804C66.3436 47.5928 66.4119 47.5829 66.4778 47.5505C66.4993 47.5356 66.5246 47.5356 66.5537 47.5505C66.5828 47.5654 66.5942 47.5866 66.5866 47.6152C66.5537 47.7148 66.498 47.7958 66.4208 47.8568C66.3423 47.9178 66.2512 47.9638 66.1449 47.9962C66.0247 47.9887 65.9222 47.9676 65.8374 47.9315C65.7526 47.8953 65.6817 47.8493 65.6273 47.792C65.583 47.8132 65.5299 47.8356 65.4666 47.8592C65.4033 47.8829 65.3375 47.9053 65.2704 47.9265C65.2034 47.9476 65.1375 47.9651 65.0743 47.9775C65.011 47.99 64.9591 47.9962 64.9186 47.9962C64.6566 47.9103 64.4731 47.8045 64.3656 47.6775C64.258 47.5505 64.2048 47.4098 64.2048 47.2567C64.2048 47.1384 64.2301 47.0164 64.2808 46.8894C64.3314 46.7625 64.3985 46.633 64.482 46.501C64.5946 46.3292 64.7136 46.1811 64.8389 46.0566C64.9642 45.9321 65.0819 45.8474 65.1907 45.8051H66.2208C66.2031 45.7765 66.1803 45.7466 66.155 45.7167C66.1297 45.6868 66.1044 45.6557 66.0816 45.6233C66.0589 45.591 66.0373 45.5586 66.0222 45.5262C66.0057 45.4939 65.9968 45.4615 65.9968 45.4304C65.9968 45.3806 66.0032 45.3308 66.0158 45.2835C66.0285 45.2349 66.0462 45.1913 66.0702 45.1527C66.0943 45.1141 66.1234 45.0818 66.1576 45.0569C66.1917 45.032 66.231 45.0195 66.2753 45.0195C66.3221 45.0195 66.3651 45.032 66.4031 45.0569C66.4411 45.0818 66.4778 45.1129 66.5119 45.1478C66.5461 45.1839 66.579 45.2212 66.6106 45.2598C66.641 45.2996 66.6727 45.3333 66.7056 45.3619C66.7195 45.3831 66.7195 45.403 66.7056 45.4204C66.6511 45.4565 66.6144 45.4963 66.5967 45.5412C66.579 45.586 66.5689 45.637 66.5689 45.6943C66.5613 45.7553 66.5334 45.8225 66.4841 45.896C66.4347 45.9694 66.3803 46.0366 66.3183 46.0964C66.2563 46.1574 66.1955 46.2085 66.1361 46.252C66.0766 46.2956 66.0323 46.3168 66.0032 46.3168H64.973C64.9262 46.3168 64.8756 46.3454 64.8237 46.4027C64.7718 46.4599 64.7212 46.5272 64.6744 46.6068C64.649 46.6492 64.6339 46.7002 64.6288 46.76C64.6237 46.8185 64.6263 46.8795 64.6364 46.9417C64.6478 47.004 64.6655 47.0662 64.6908 47.1272C64.7161 47.1882 64.7478 47.243 64.7832 47.2928L64.7807 47.2878Z" fill="#C51F25"/>
</g>
<defs>
<clipPath id="clip0_177_75">
<rect width="115" height="48" fill="white"/>
</clipPath>
</defs>
</svg>
