<svg width="140" height="140" viewBox="0 0 140 140" fill="none" xmlns="http://www.w3.org/2000/svg">
<g clip-path="url(#clip0_22_1379)">
<path d="M84.1417 127.515C82.9873 127.803 81.8103 128.058 80.642 128.273C77.588 128.841 75.5689 131.778 76.1338 134.835C76.4128 136.339 77.2669 137.592 78.4264 138.409C79.6215 139.25 81.1424 139.63 82.6923 139.342C84.0836 139.084 85.4857 138.78 86.8616 138.437C89.8774 137.686 91.7147 134.631 90.9623 131.617C90.2118 128.6 87.1593 126.764 84.1417 127.515Z" fill="#C72026"/>
<path d="M125.761 52.0777C126.156 53.2659 126.908 54.2358 127.859 54.906C129.269 55.8989 131.113 56.2329 132.873 55.6509C135.824 54.671 137.423 51.4888 136.447 48.5392C136.002 47.1946 135.509 45.8458 134.983 44.5324C133.828 41.6464 130.555 40.2412 127.667 41.3957C124.783 42.5495 123.377 45.8241 124.532 48.7111C124.974 49.8149 125.388 50.948 125.761 52.0777Z" fill="#C72026"/>
<path d="M102.43 119.479C101.437 120.135 100.412 120.769 99.3799 121.364C96.6868 122.917 95.7644 126.36 97.3172 129.052C97.7389 129.784 98.3004 130.382 98.9472 130.84C100.683 132.061 103.041 132.244 105.004 131.113C106.232 130.406 107.452 129.653 108.634 128.871C111.227 127.158 111.94 123.666 110.227 121.073C108.513 118.478 105.023 117.766 102.43 119.479Z" fill="#C72026"/>
<path d="M139.946 67.7968C139.824 64.6904 137.207 62.2726 134.1 62.3939C130.997 62.5164 128.577 65.1337 128.699 68.2389C128.746 69.4261 128.758 70.6311 128.73 71.8171C128.687 73.7651 129.639 75.5016 131.12 76.5453C132.002 77.1664 133.073 77.5423 134.233 77.5688C137.34 77.6377 139.914 75.1739 139.983 72.066C140.014 70.6488 140.002 69.213 139.946 67.7968Z" fill="#C72026"/>
<path d="M124.843 104.674C122.352 102.805 118.828 103.312 116.962 105.799C116.248 106.751 115.495 107.691 114.725 108.597C112.712 110.962 112.996 114.515 115.361 116.53C115.496 116.644 115.633 116.75 115.774 116.848C118.126 118.506 121.394 118.125 123.295 115.894C124.215 114.814 125.112 113.69 125.966 112.553C127.832 110.066 127.327 106.54 124.843 104.674Z" fill="#C72026"/>
<path d="M133.116 84.3289C130.15 83.399 126.991 85.05 126.062 88.0158C125.706 89.1489 125.312 90.2874 124.887 91.4024C123.952 93.8569 124.847 96.5576 126.9 98.0048C127.276 98.2693 127.691 98.4936 128.142 98.6639C131.045 99.772 134.297 98.3151 135.404 95.4101C135.909 94.0844 136.378 92.7298 136.802 91.3828C137.731 88.4164 136.081 85.2589 133.116 84.3289Z" fill="#C72026"/>
<path d="M59.5869 128.324C54.555 127.42 49.7282 125.882 45.1511 123.736C45.0969 123.708 45.0485 123.676 44.9916 123.65C43.913 123.142 42.8362 122.598 41.7925 122.03C41.7889 122.026 41.7823 122.023 41.7766 122.021C39.8617 120.966 37.9928 119.8 36.1772 118.521C9.70238 99.8719 3.33677 63.1601 21.9876 36.6856C26.0431 30.9309 30.951 26.1299 36.4225 22.3247C36.4899 22.2778 36.5573 22.2311 36.6241 22.1839C55.9048 8.89895 82.085 8.00363 102.558 21.6551L98.1609 28.0084C96.9384 29.7768 97.6905 31.0654 99.8305 30.8728L118.931 29.1628C121.073 28.9702 122.355 27.1167 121.779 25.0474L116.649 6.56752C116.075 4.49581 114.605 4.24783 113.382 6.01589L108.974 12.3842C93.9498 2.2986 75.9294 -1.54718 58.0433 1.55436C56.2418 1.86614 54.4657 2.24774 52.7139 2.69194C52.7003 2.69435 52.6895 2.69585 52.6786 2.69826C52.6109 2.71481 52.5423 2.73678 52.4764 2.75514C37.0529 6.71589 23.5961 15.7115 13.9939 28.5462C13.9129 28.6422 13.8296 28.7361 13.7531 28.8405C13.4338 29.2706 13.1169 29.7106 12.8066 30.1505C12.2992 30.8716 11.7991 31.6107 11.3206 32.3499C11.2607 32.4389 11.2149 32.5295 11.1626 32.6195C3.23866 44.8984 -0.583347 59.094 0.0721129 73.546C0.0736176 73.5936 0.0709091 73.6414 0.0721129 73.6902C0.135612 75.1019 0.247564 76.5332 0.399542 77.9422C0.407667 78.0331 0.427831 78.1192 0.443179 78.2101C0.600273 79.6269 0.797392 81.0471 1.04447 82.467C3.55556 96.9539 10.3894 109.99 20.6297 120.133C20.6535 120.157 20.6782 120.183 20.7022 120.208C20.7107 120.217 20.72 120.222 20.7281 120.231C23.4794 122.944 26.472 125.454 29.6942 127.724C38.1267 133.665 47.5165 137.593 57.6006 139.403C60.6603 139.952 63.5831 137.916 64.132 134.857C64.6807 131.797 62.6457 128.872 59.5869 128.324Z" fill="#C72026"/>
<path d="M66.5461 25.0381C64.0293 25.0381 61.9907 27.0785 61.9907 29.5917V74.9584L103.482 96.4071C104.15 96.7529 104.865 96.9157 105.569 96.9157C107.217 96.9157 108.808 96.0183 109.618 94.4524C110.772 92.2176 109.898 89.4721 107.663 88.318L71.0964 69.4131V29.5917C71.0961 27.0785 69.0599 25.0381 66.5461 25.0381Z" fill="#C72026"/>
</g>
<defs>
<clipPath id="clip0_22_1379">
<rect width="140" height="140" fill="white"/>
</clipPath>
</defs>
</svg>
