<svg width="259" height="80" viewBox="0 0 259 80" fill="none" xmlns="http://www.w3.org/2000/svg">
<path d="M40.584 34.744C39.624 35.448 38.984 36.184 38.664 36.952C38.408 37.72 38.28 38.648 38.28 39.736V73.336C38.28 74.04 38.184 74.456 37.992 74.584C37.8 74.712 37.352 74.712 36.648 74.584C35.304 74.584 33.832 74.808 32.232 75.256C30.696 75.704 29.128 76.216 27.528 76.792C25.928 77.304 24.328 77.816 22.728 78.328C21.192 78.776 19.752 79 18.408 79C15.784 79.064 13.416 78.584 11.304 77.56C9.256 76.472 7.528 75.16 6.12 73.624C4.712 72.088 3.656 70.52 2.952 68.92C2.248 67.32 1.928 66.008 1.992 64.984C2.184 63.512 2.632 62.104 3.336 60.76C4.04 59.416 4.872 58.136 5.832 56.92C6.792 55.64 7.752 54.392 8.712 53.176C9.736 51.896 10.632 50.648 11.4 49.432C12.296 47.896 12.712 46.2 12.648 44.344C12.584 42.424 12.264 40.696 11.688 39.16C11.112 37.56 10.376 36.344 9.48 35.512C8.584 34.68 7.752 34.584 6.984 35.224C6.536 35.608 6.376 36.12 6.504 36.76C6.632 37.336 6.856 37.944 7.176 38.584C7.496 39.16 7.88 39.672 8.328 40.12C8.776 40.504 9.096 40.696 9.288 40.696C9.608 40.76 9.704 40.952 9.576 41.272C9.384 41.72 9.064 42.296 8.616 43C8.232 43.64 7.752 44.248 7.176 44.824C6.664 45.4 6.088 45.816 5.448 46.072C4.872 46.328 4.296 46.328 3.72 46.072C3.4 45.944 3.048 45.688 2.664 45.304C2.344 44.856 2.024 44.408 1.704 43.96C1.384 43.512 1.096 43.096 0.84 42.712C0.648 42.264 0.552 42.008 0.552 41.944C0.488 41.752 0.68 41.24 1.128 40.408C1.576 39.512 2.184 38.456 2.952 37.24C3.784 36.024 4.712 34.744 5.736 33.4C6.76 32.056 7.784 30.808 8.808 29.656C9.896 28.504 10.92 27.544 11.88 26.776C12.84 26.008 13.64 25.656 14.28 25.72C15.688 25.784 16.968 26.296 18.12 27.256C19.272 28.152 20.264 29.272 21.096 30.616C21.928 31.896 22.504 33.272 22.824 34.744C23.208 36.152 23.304 37.432 23.112 38.584C23.048 39.672 22.472 41.016 21.384 42.616C20.296 44.216 19.08 45.88 17.736 47.608C16.392 49.336 15.08 51.064 13.8 52.792C12.584 54.52 11.752 56.088 11.304 57.496C10.792 61.656 11.912 65.048 14.664 67.672C15.624 68.504 16.616 69.272 17.64 69.976C18.728 70.68 19.816 71.192 20.904 71.512C22.056 71.832 23.24 71.928 24.456 71.8C25.672 71.672 26.888 71.224 28.104 70.456V37.72C28.104 36.696 27.944 35.8 27.624 35.032C27.368 34.2 26.76 33.464 25.8 32.824C25.48 32.44 25.48 32.088 25.8 31.768C26.76 30.872 27.56 29.944 28.2 28.984C28.904 27.96 29.832 27.096 30.984 26.392C32.456 25.432 33.928 25.432 35.4 26.392C35.976 26.712 36.456 27.192 36.84 27.832C37.288 28.472 37.704 29.176 38.088 29.944C38.472 30.648 38.856 31.352 39.24 32.056C39.624 32.76 40.072 33.336 40.584 33.784C40.904 34.104 40.904 34.424 40.584 34.744ZM94.2525 61.624C94.0605 61.112 93.6765 60.472 93.1005 59.704C92.5245 58.872 91.9165 58.2 91.2765 57.688V68.344C91.4685 67.96 91.6925 67.448 91.9485 66.808C92.2685 66.168 92.5565 65.528 92.8125 64.888C93.1325 64.184 93.4205 63.544 93.6765 62.968C93.9325 62.328 94.1245 61.88 94.2525 61.624ZM93.6765 34.744C92.7165 35.448 92.0765 36.184 91.7565 36.952C91.5005 37.72 91.3725 38.648 91.3725 39.736V53.08C92.3965 53.528 93.3245 54.136 94.1565 54.904C95.0525 55.672 95.8205 56.472 96.4605 57.304C97.1005 58.072 97.6125 58.872 97.9965 59.704C98.4445 60.472 98.7645 61.112 98.9565 61.624C98.5725 62.584 97.9645 63.928 97.1325 65.656C96.3005 67.32 95.3725 69.016 94.3485 70.744C93.3885 72.408 92.3645 73.976 91.2765 75.448C90.2525 76.856 89.3245 77.816 88.4925 78.328C87.7885 78.776 87.0525 79 86.2845 79C85.5165 79 84.9085 78.872 84.4605 78.616C84.0765 78.36 83.7245 78.008 83.4045 77.56C83.0845 77.112 82.7645 76.6 82.4445 76.024C82.1885 75.384 81.7725 74.744 81.1965 74.104V59.128C78.8925 59.704 76.9405 60.92 75.3405 62.776C73.8045 64.568 72.4925 66.456 71.4045 68.44C70.3805 70.424 69.5485 72.28 68.9085 74.008C68.2685 75.672 67.7245 76.664 67.2765 76.984C66.6365 77.432 65.7725 77.912 64.6845 78.424C63.6605 78.936 62.7325 79.096 61.9005 78.904C59.7885 78.52 57.9645 77.752 56.4285 76.6C54.8925 75.384 53.6125 74.072 52.5885 72.664C51.5645 71.256 50.8285 69.848 50.3805 68.44C49.9325 67.032 49.7405 65.88 49.8045 64.984C49.9965 63.512 50.4445 62.104 51.1485 60.76C51.8525 59.416 52.6845 58.136 53.6445 56.92C54.6045 55.64 55.5645 54.392 56.5245 53.176C57.5485 51.896 58.4445 50.648 59.2125 49.432C60.1085 47.896 60.5245 46.2 60.4605 44.344C60.3965 42.424 60.0765 40.696 59.5005 39.16C58.9245 37.56 58.1885 36.344 57.2925 35.512C56.3965 34.68 55.5645 34.584 54.7965 35.224C54.3485 35.608 54.1885 36.12 54.3165 36.76C54.4445 37.336 54.6685 37.944 54.9885 38.584C55.3085 39.16 55.6925 39.672 56.1405 40.12C56.5885 40.504 56.9085 40.696 57.1005 40.696C57.4205 40.76 57.5165 40.952 57.3885 41.272C57.1965 41.72 56.8765 42.296 56.4285 43C56.0445 43.64 55.5645 44.248 54.9885 44.824C54.4765 45.4 53.9005 45.816 53.2605 46.072C52.6845 46.328 52.1085 46.328 51.5325 46.072C51.2125 45.944 50.8605 45.688 50.4765 45.304C50.1565 44.856 49.8365 44.408 49.5165 43.96C49.1965 43.512 48.9085 43.096 48.6525 42.712C48.4605 42.264 48.3645 42.008 48.3645 41.944C48.3005 41.752 48.4925 41.24 48.9405 40.408C49.3885 39.512 49.9965 38.456 50.7645 37.24C51.5965 36.024 52.5245 34.744 53.5485 33.4C54.5725 32.056 55.5965 30.808 56.6205 29.656C57.7085 28.504 58.7325 27.544 59.6925 26.776C60.6525 26.008 61.4525 25.656 62.0925 25.72C63.5005 25.784 64.7805 26.296 65.9325 27.256C67.0845 28.152 68.0765 29.272 68.9085 30.616C69.7405 31.896 70.3165 33.272 70.6365 34.744C71.0205 36.152 71.1165 37.432 70.9245 38.584C70.8605 39.672 70.2845 41.016 69.1965 42.616C68.1085 44.216 66.8925 45.88 65.5485 47.608C64.2045 49.336 62.8925 51.064 61.6125 52.792C60.3965 54.52 59.5645 56.088 59.1165 57.496C58.7965 59.928 59.0845 62.168 59.9805 64.216C60.8765 66.2 62.3485 67.832 64.3965 69.112L67.9485 63.16C68.4605 62.328 69.1325 61.432 69.9645 60.472C70.8605 59.512 71.8845 58.584 73.0365 57.688C74.1885 56.792 75.4365 55.96 76.7805 55.192C78.1885 54.36 79.6605 53.72 81.1965 53.272V37.72C81.1965 36.696 81.0365 35.8 80.7165 35.032C80.4605 34.2 79.8525 33.464 78.8925 32.824C78.5725 32.44 78.5725 32.088 78.8925 31.768C79.8525 30.872 80.6525 29.944 81.2925 28.984C81.9965 27.96 82.9245 27.096 84.0765 26.392C85.5485 25.432 87.0205 25.432 88.4925 26.392C89.0685 26.712 89.5485 27.192 89.9325 27.832C90.3805 28.472 90.7965 29.176 91.1805 29.944C91.5645 30.648 91.9485 31.352 92.3325 32.056C92.7165 32.76 93.1645 33.336 93.6765 33.784C93.9965 34.104 93.9965 34.424 93.6765 34.744ZM115.733 43.672C115.669 40.536 115.061 38.424 113.909 37.336C112.821 36.248 111.413 35.928 109.685 36.376C109.301 36.568 109.013 36.568 108.821 36.376C108.693 36.184 108.693 35.96 108.821 35.704C109.461 34.68 110.133 33.56 110.837 32.344C111.605 31.128 112.373 30.04 113.141 29.08C113.909 28.056 114.709 27.224 115.541 26.584C116.373 25.944 117.205 25.656 118.037 25.72C119.317 25.784 120.437 26.264 121.397 27.16C122.421 27.992 123.317 28.952 124.085 30.04C124.853 31.128 125.557 32.216 126.197 33.304C126.837 34.392 127.444 35.192 128.021 35.704C128.533 35.96 128.533 36.28 128.021 36.664C127.444 36.728 126.997 36.984 126.677 37.432C126.357 37.816 126.133 38.296 126.005 38.872C125.941 39.448 125.909 40.056 125.909 40.696C125.909 41.272 125.909 41.816 125.909 42.328V53.272C127.189 53.656 128.565 54.2 130.036 54.904C131.509 55.608 132.917 56.408 134.261 57.304C135.669 58.2 136.917 59.16 138.005 60.184C139.157 61.208 140.021 62.2 140.597 63.16V37.72C140.597 36.696 140.437 35.8 140.117 35.032C139.861 34.2 139.253 33.464 138.293 32.824C137.973 32.44 137.973 32.088 138.293 31.768C139.253 30.872 140.053 29.944 140.693 28.984C141.397 27.96 142.325 27.096 143.477 26.392C144.949 25.432 146.389 25.432 147.797 26.392C148.373 26.712 148.885 27.192 149.333 27.832C149.781 28.472 150.197 29.176 150.581 29.944C150.965 30.648 151.349 31.352 151.733 32.056C152.117 32.76 152.565 33.336 153.077 33.784C153.333 34.168 153.333 34.488 153.077 34.744C152.117 35.448 151.477 36.184 151.156 36.952C150.901 37.72 150.773 38.648 150.773 39.736V66.904C150.773 67.992 150.901 68.952 151.156 69.784C151.477 70.552 152.117 71.256 153.077 71.896C153.333 72.216 153.333 72.568 153.077 72.952C152.053 73.848 151.061 74.872 150.101 76.024C149.205 77.112 148.181 78.008 147.029 78.712C146.645 78.904 146.197 79 145.685 79C145.173 78.936 144.629 78.808 144.053 78.616C143.541 78.36 143.029 78.104 142.517 77.848C142.005 77.528 141.589 77.24 141.269 76.984C140.629 76.472 139.989 75.512 139.349 74.104C138.773 72.632 137.973 71.032 136.949 69.304C135.925 67.512 134.549 65.72 132.821 63.928C131.093 62.072 128.789 60.472 125.909 59.128V74.104C124.821 75.384 123.797 76.536 122.837 77.56C121.941 78.52 120.757 79 119.285 79C118.517 79 117.781 78.776 117.077 78.328C116.245 77.816 115.189 76.92 113.909 75.64C112.629 74.296 111.349 72.792 110.069 71.128C108.853 69.4 107.733 67.64 106.709 65.848C105.749 64.056 105.109 62.456 104.789 61.048C104.981 60.536 105.429 59.896 106.133 59.128C106.837 58.296 107.669 57.496 108.629 56.728C109.653 55.896 110.773 55.16 111.989 54.52C113.269 53.816 114.517 53.336 115.733 53.08V43.672ZM115.924 58.168C115.669 58.232 115.285 58.424 114.773 58.744C114.261 59 113.717 59.32 113.141 59.704C112.629 60.024 112.149 60.376 111.701 60.76C111.317 61.08 111.061 61.368 110.933 61.624C111.125 62.008 111.445 62.584 111.893 63.352C112.341 64.056 112.821 64.792 113.333 65.56C113.845 66.328 114.325 67.096 114.773 67.864C115.285 68.568 115.669 69.112 115.924 69.496V58.168ZM173.633 38.488C173.889 38.552 173.953 38.744 173.825 39.064C173.697 39.32 173.505 39.608 173.249 39.928C173.057 40.248 172.801 40.568 172.481 40.888C172.225 41.208 172.033 41.432 171.905 41.56C171.137 42.2 170.177 42.68 169.025 43C167.873 43.256 166.721 43.256 165.569 43C164.417 42.68 163.361 42.04 162.401 41.08C161.441 40.12 160.769 38.712 160.385 36.856C163.073 32.696 165.921 29.784 168.929 28.12C172.001 26.392 174.977 25.592 177.857 25.72C179.201 25.72 180.769 25.976 182.561 26.488C184.353 26.936 186.177 27.448 188.033 28.024C189.889 28.536 191.713 29.016 193.505 29.464C195.297 29.912 196.865 30.136 198.209 30.136C198.913 30.008 199.361 30.008 199.553 30.136C199.745 30.264 199.841 30.68 199.841 31.384V73.336C199.841 74.04 199.745 74.456 199.553 74.584C199.361 74.712 198.913 74.712 198.209 74.584C196.865 74.584 195.489 74.808 194.081 75.256C192.737 75.704 191.361 76.216 189.953 76.792C188.609 77.304 187.233 77.816 185.825 78.328C184.481 78.776 183.137 79 181.793 79C179.553 79.128 177.569 78.936 175.841 78.424C174.177 77.848 172.705 77.144 171.424 76.312C170.209 75.416 169.185 74.424 168.353 73.336C167.521 72.184 166.849 71.096 166.337 70.072C166.209 69.688 166.273 69.4 166.529 69.208C166.785 69.016 167.073 69.016 167.393 69.208C167.841 69.144 168.513 68.792 169.409 68.152C170.305 67.448 171.201 66.616 172.097 65.656C172.993 64.632 173.761 63.512 174.401 62.296C175.041 61.08 175.265 59.896 175.073 58.744C174.945 57.784 174.657 56.856 174.209 55.96C173.761 55.064 173.249 54.328 172.673 53.752C172.097 53.112 171.521 52.696 170.945 52.504C170.369 52.248 169.857 52.312 169.409 52.696C169.025 52.952 168.865 53.336 168.929 53.848C168.993 54.36 169.153 54.84 169.409 55.288C169.729 55.736 170.049 56.152 170.369 56.536C170.753 56.856 171.041 57.016 171.233 57.016C171.553 57.08 171.649 57.24 171.521 57.496C171.393 57.88 171.137 58.36 170.753 58.936C170.433 59.448 170.017 59.928 169.505 60.376C169.057 60.824 168.577 61.176 168.065 61.432C167.553 61.624 167.073 61.624 166.625 61.432C166.369 61.304 166.081 61.08 165.761 60.76C165.441 60.376 165.153 60.024 164.897 59.704C164.641 59.32 164.417 58.968 164.225 58.648C164.033 58.328 163.937 58.136 163.937 58.072C163.873 57.944 164.033 57.528 164.417 56.824C164.801 56.12 165.313 55.288 165.953 54.328C166.657 53.304 167.425 52.248 168.257 51.16C169.153 50.008 170.049 48.984 170.945 48.088C171.841 47.128 172.673 46.36 173.441 45.784C174.273 45.144 174.977 44.856 175.553 44.92C176.705 44.984 177.761 45.4 178.721 46.168C179.745 46.936 180.577 47.864 181.217 48.952C181.921 49.976 182.433 51.064 182.753 52.216C183.073 53.368 183.137 54.424 182.945 55.384C182.881 56.152 182.529 57.048 181.889 58.072C181.249 59.032 180.513 59.992 179.681 60.952C178.913 61.912 178.113 62.808 177.281 63.64C176.449 64.472 175.841 65.112 175.457 65.56C175.713 66.712 176.417 67.768 177.569 68.728C178.721 69.624 180.033 70.328 181.505 70.84C183.041 71.288 184.545 71.512 186.017 71.512C187.489 71.512 188.705 71.16 189.665 70.456V39.064C188.641 38.936 187.553 38.648 186.401 38.2C185.313 37.752 184.161 37.272 182.945 36.76C181.793 36.248 180.609 35.736 179.393 35.224C178.177 34.648 176.897 34.168 175.553 33.784C173.569 33.208 172.001 32.92 170.849 32.92C169.697 32.856 168.865 32.984 168.353 33.304C167.905 33.624 167.745 34.04 167.873 34.552C168.001 35.064 168.321 35.608 168.833 36.184C169.409 36.696 170.113 37.176 170.945 37.624C171.777 38.072 172.673 38.36 173.633 38.488ZM198.608 13.624C197.52 15.864 196.336 17.528 195.056 18.616C193.712 19.704 192.528 20.088 191.504 19.768C190.8 19.576 189.904 19.032 188.816 18.136C187.664 17.176 186.384 16.152 184.976 15.064C183.504 13.976 181.872 12.952 180.08 11.992C178.288 11.032 176.336 10.424 174.224 10.168C172.816 9.976 171.952 10.136 171.632 10.648C171.312 11.096 171.344 11.672 171.728 12.376C172.112 13.016 172.752 13.656 173.648 14.296C174.544 14.872 175.568 15.256 176.72 15.448C176.912 15.512 176.976 15.672 176.912 15.928C176.784 16.184 176.624 16.472 176.432 16.792C176.176 17.112 175.92 17.432 175.664 17.752C175.408 18.008 175.216 18.2 175.088 18.328C174.384 18.968 173.52 19.448 172.496 19.768C171.408 20.024 170.32 20.024 169.232 19.768C168.144 19.448 167.152 18.84 166.256 17.944C165.36 17.048 164.752 15.704 164.432 13.912C166.864 10.008 169.424 7.288 172.112 5.752C174.8 4.152 177.488 3.416 180.176 3.544C181.264 3.544 182.704 3.992 184.496 4.888C186.224 5.72 187.696 6.744 188.912 7.96V6.04C188.912 4.504 189.36 3.128 190.256 1.912C191.152 0.631998 192.336 0.0239983 193.808 0.0879974C195.088 0.151997 196.24 0.695995 197.264 1.71999C198.224 2.68 199.152 3.576 200.048 4.408C200.304 4.664 200.304 4.984 200.048 5.368C199.664 5.624 199.408 5.848 199.28 6.04C199.088 6.232 198.96 6.456 198.896 6.712C198.768 6.968 198.704 7.288 198.704 7.672C198.704 8.056 198.704 8.568 198.704 9.20799V13.048C198.704 13.176 198.704 13.272 198.704 13.336C198.64 13.4 198.608 13.496 198.608 13.624ZM254.096 61.624C253.904 61.112 253.52 60.472 252.944 59.704C252.368 58.872 251.76 58.2 251.12 57.688V68.344C251.312 67.96 251.536 67.448 251.792 66.808C252.112 66.168 252.4 65.528 252.656 64.888C252.976 64.184 253.264 63.544 253.52 62.968C253.776 62.328 253.968 61.88 254.096 61.624ZM253.52 34.744C252.56 35.448 251.92 36.184 251.6 36.952C251.344 37.72 251.216 38.648 251.216 39.736V53.08C252.24 53.528 253.168 54.136 254 54.904C254.896 55.672 255.664 56.472 256.304 57.304C256.944 58.072 257.456 58.872 257.84 59.704C258.288 60.472 258.608 61.112 258.8 61.624C258.416 62.584 257.808 63.928 256.976 65.656C256.144 67.32 255.216 69.016 254.192 70.744C253.232 72.408 252.208 73.976 251.12 75.448C250.096 76.856 249.168 77.816 248.336 78.328C247.632 78.776 246.896 79 246.128 79C245.36 79 244.752 78.872 244.304 78.616C243.92 78.36 243.568 78.008 243.248 77.56C242.928 77.112 242.608 76.6 242.288 76.024C242.032 75.384 241.616 74.744 241.04 74.104V59.128C238.736 59.704 236.784 60.92 235.184 62.776C233.648 64.568 232.336 66.456 231.248 68.44C230.224 70.424 229.392 72.28 228.752 74.008C228.112 75.672 227.568 76.664 227.12 76.984C226.48 77.432 225.616 77.912 224.528 78.424C223.504 78.936 222.576 79.096 221.744 78.904C219.632 78.52 217.808 77.752 216.272 76.6C214.736 75.384 213.456 74.072 212.432 72.664C211.408 71.256 210.672 69.848 210.224 68.44C209.776 67.032 209.584 65.88 209.648 64.984C209.84 63.512 210.288 62.104 210.992 60.76C211.696 59.416 212.528 58.136 213.488 56.92C214.448 55.64 215.408 54.392 216.368 53.176C217.392 51.896 218.288 50.648 219.056 49.432C219.952 47.896 220.368 46.2 220.304 44.344C220.24 42.424 219.92 40.696 219.344 39.16C218.768 37.56 218.032 36.344 217.136 35.512C216.24 34.68 215.408 34.584 214.64 35.224C214.192 35.608 214.032 36.12 214.16 36.76C214.288 37.336 214.512 37.944 214.832 38.584C215.152 39.16 215.536 39.672 215.984 40.12C216.432 40.504 216.752 40.696 216.944 40.696C217.264 40.76 217.36 40.952 217.232 41.272C217.04 41.72 216.72 42.296 216.272 43C215.888 43.64 215.408 44.248 214.832 44.824C214.32 45.4 213.744 45.816 213.104 46.072C212.528 46.328 211.952 46.328 211.376 46.072C211.056 45.944 210.704 45.688 210.32 45.304C210 44.856 209.68 44.408 209.36 43.96C209.04 43.512 208.752 43.096 208.496 42.712C208.304 42.264 208.208 42.008 208.208 41.944C208.144 41.752 208.336 41.24 208.784 40.408C209.232 39.512 209.84 38.456 210.608 37.24C211.44 36.024 212.368 34.744 213.392 33.4C214.416 32.056 215.44 30.808 216.464 29.656C217.552 28.504 218.576 27.544 219.536 26.776C220.496 26.008 221.296 25.656 221.936 25.72C223.344 25.784 224.624 26.296 225.776 27.256C226.928 28.152 227.92 29.272 228.752 30.616C229.584 31.896 230.16 33.272 230.48 34.744C230.864 36.152 230.96 37.432 230.768 38.584C230.704 39.672 230.128 41.016 229.04 42.616C227.952 44.216 226.736 45.88 225.392 47.608C224.048 49.336 222.736 51.064 221.456 52.792C220.24 54.52 219.408 56.088 218.96 57.496C218.64 59.928 218.928 62.168 219.824 64.216C220.72 66.2 222.192 67.832 224.24 69.112L227.792 63.16C228.304 62.328 228.976 61.432 229.808 60.472C230.704 59.512 231.728 58.584 232.88 57.688C234.032 56.792 235.28 55.96 236.624 55.192C238.032 54.36 239.504 53.72 241.04 53.272V37.72C241.04 36.696 240.88 35.8 240.56 35.032C240.304 34.2 239.696 33.464 238.736 32.824C238.416 32.44 238.416 32.088 238.736 31.768C239.696 30.872 240.496 29.944 241.136 28.984C241.84 27.96 242.768 27.096 243.92 26.392C245.392 25.432 246.864 25.432 248.336 26.392C248.912 26.712 249.392 27.192 249.776 27.832C250.224 28.472 250.64 29.176 251.024 29.944C251.408 30.648 251.792 31.352 252.176 32.056C252.56 32.76 253.008 33.336 253.52 33.784C253.84 34.104 253.84 34.424 253.52 34.744Z" fill="white"/>
</svg>
