<svg width="295" height="47" viewBox="0 0 295 47" fill="none" xmlns="http://www.w3.org/2000/svg">
<g filter="url(#filter0_d_22_1485)">
<path d="M11.288 12.928C10.904 12.8213 10.5627 12.736 10.264 12.672C9.96533 12.608 9.688 12.5973 9.432 12.64C9.19733 12.6613 8.97333 12.7467 8.76 12.896C8.54667 13.024 8.32267 13.248 8.088 13.568C7.81067 13.9093 7.576 14.2827 7.384 14.688C7.21333 15.0933 7.17067 15.488 7.256 15.872C7.29867 16.1707 7.416 16.512 7.608 16.896C7.82133 17.2587 8.056 17.6533 8.312 18.08C8.58933 18.5067 8.86667 18.9653 9.144 19.456C9.44267 19.9467 9.72 20.448 9.976 20.96C10.0187 21.024 10.04 21.088 10.04 21.152C10.0613 21.1947 10.0933 21.248 10.136 21.312C10.2427 21.0347 10.3707 20.736 10.52 20.416C10.6907 20.096 10.8613 19.7973 11.032 19.52C11.224 19.2213 11.4053 18.9653 11.576 18.752C11.768 18.5387 11.9387 18.4 12.088 18.336C12.3227 18.2507 12.568 18.272 12.824 18.4C13.1013 18.5067 13.368 18.6667 13.624 18.88C13.9013 19.0933 14.1467 19.3387 14.36 19.616C14.5733 19.872 14.7333 20.1173 14.84 20.352C14.8613 20.5867 14.7973 20.832 14.648 21.088C14.52 21.3227 14.3493 21.5467 14.136 21.76C13.944 21.9733 13.7307 22.1653 13.496 22.336C13.2827 22.4853 13.1013 22.592 12.952 22.656C12.8453 22.7413 12.7493 22.72 12.664 22.592C12.6427 22.4 12.568 22.1867 12.44 21.952C12.3333 21.7173 12.1947 21.5253 12.024 21.376C11.8747 21.2267 11.7147 21.152 11.544 21.152C11.3733 21.152 11.2133 21.28 11.064 21.536C11 21.664 10.9147 21.888 10.808 22.208C10.7227 22.528 10.648 22.8267 10.584 23.104C10.6053 23.872 10.3067 24.6293 9.688 25.376C9.496 25.6107 9.26133 25.8667 8.984 26.144C8.70667 26.4213 8.408 26.688 8.088 26.944C7.78933 27.2 7.46933 27.4347 7.128 27.648C6.808 27.84 6.49867 27.968 6.2 28.032C5.368 27.8827 4.83467 27.648 4.6 27.328C4.38667 26.9867 4.32267 26.6347 4.408 26.272C4.51467 25.9093 4.70667 25.568 4.984 25.248C5.28267 24.928 5.51733 24.704 5.688 24.576C5.88 24.3413 6.02933 24.2667 6.136 24.352C6.24267 24.4373 6.28533 24.5653 6.264 24.736C6.264 24.992 6.36 25.2267 6.552 25.44C6.76533 25.632 6.97867 25.76 7.192 25.824C7.42667 25.888 7.61867 25.8773 7.768 25.792C7.93867 25.6853 7.98133 25.4507 7.896 25.088C7.85333 24.8747 7.77867 24.6613 7.672 24.448C7.58667 24.2133 7.49067 24.0107 7.384 23.84C7.04267 23.2213 6.648 22.592 6.2 21.952C5.77333 21.312 5.38933 20.6827 5.048 20.064C4.70667 19.4453 4.46133 18.8587 4.312 18.304C4.184 17.7493 4.22667 17.2373 4.44 16.768C4.58933 16.3413 4.81333 15.8933 5.112 15.424C5.41067 14.9333 5.73067 14.4747 6.072 14.048C6.41333 13.6 6.72267 13.216 7 12.896C7.29867 12.5547 7.50133 12.3307 7.608 12.224C8.33333 11.4773 9.06933 10.9547 9.816 10.656C10.584 10.336 11.3307 10.1973 12.056 10.24C12.504 10.24 13.016 10.3253 13.592 10.496C14.168 10.6453 14.744 10.816 15.32 11.008C15.9173 11.1787 16.4933 11.3387 17.048 11.488C17.624 11.6373 18.136 11.712 18.584 11.712C18.84 11.6693 18.9893 11.6693 19.032 11.712C19.096 11.7547 19.128 11.8933 19.128 12.128V23.328C19.128 23.6693 19.1707 23.9787 19.256 24.256C19.3627 24.512 19.576 24.7467 19.896 24.96C20.024 25.0667 20.024 25.184 19.896 25.312C19.7467 25.4613 19.608 25.6533 19.48 25.888C19.352 26.1227 19.224 26.3573 19.096 26.592C18.968 26.8267 18.8293 27.0507 18.68 27.264C18.5307 27.4773 18.36 27.648 18.168 27.776C17.6987 28.0747 17.2187 28.0747 16.728 27.776C16.344 27.5413 16.0347 27.264 15.8 26.944C15.5867 26.6027 15.3093 26.2827 14.968 25.984C14.904 25.8347 14.904 25.7173 14.968 25.632C15.288 25.4187 15.4907 25.184 15.576 24.928C15.6827 24.6507 15.736 24.3307 15.736 23.968V14.688C15.3947 14.6453 15.0427 14.5493 14.68 14.4C14.3387 14.2507 13.9867 14.0907 13.624 13.92C13.2827 13.7493 12.92 13.5787 12.536 13.408C12.152 13.216 11.736 13.056 11.288 12.928ZM26.2725 14.496C26.3578 14.5173 26.3792 14.5813 26.3365 14.688C26.2938 14.7733 26.2298 14.8693 26.1445 14.976C26.0805 15.0827 25.9952 15.1893 25.8885 15.296C25.8032 15.4027 25.7392 15.4773 25.6965 15.52C25.4405 15.7333 25.1205 15.8933 24.7365 16C24.3525 16.0853 23.9685 16.0853 23.5845 16C23.2005 15.8933 22.8485 15.68 22.5285 15.36C22.2085 15.04 21.9845 14.5707 21.8565 13.952C22.7525 12.5653 23.7018 11.5947 24.7045 11.04C25.7285 10.464 26.7205 10.1973 27.6805 10.24C28.1285 10.24 28.6192 10.3253 29.1525 10.496C29.6858 10.6453 30.2192 10.816 30.7525 11.008C31.3072 11.1787 31.8512 11.3387 32.3845 11.488C32.9178 11.6373 33.4085 11.712 33.8565 11.712C34.0912 11.6693 34.2298 11.6693 34.2725 11.712C34.3365 11.7547 34.3685 11.8933 34.3685 12.128V15.584V23.136C34.3898 23.4347 34.4432 23.7013 34.5285 23.936C34.6138 24.1707 34.7952 24.3093 35.0725 24.352C35.1365 24.3947 35.1685 24.448 35.1685 24.512C35.1685 24.576 35.1365 24.6293 35.0725 24.672C34.8165 24.8853 34.5392 25.2587 34.2405 25.792C33.9632 26.304 33.6218 26.7733 33.2165 27.2C32.9605 27.4773 32.6618 27.68 32.3205 27.808C31.9792 27.936 31.6272 28 31.2645 28C30.9018 28 30.5392 27.9467 30.1765 27.84C29.8138 27.7333 29.4832 27.584 29.1845 27.392C28.3525 26.816 27.7018 26.1973 27.2325 25.536C26.7845 24.8533 26.5818 24.288 26.6245 23.84C26.6245 23.7973 26.6778 23.6907 26.7845 23.52C26.8912 23.3493 27.0192 23.168 27.1685 22.976C27.3392 22.784 27.5098 22.6027 27.6805 22.432C27.8725 22.2613 28.0432 22.1547 28.1925 22.112C28.3845 22.0267 28.5765 22.0267 28.7685 22.112C28.9818 22.1973 29.1738 22.336 29.3445 22.528C29.5365 22.6987 29.6965 22.8907 29.8245 23.104C29.9738 23.296 30.0698 23.4773 30.1125 23.648C30.1552 23.7547 30.1125 23.8187 29.9845 23.84C29.4725 24.1387 29.1845 24.4373 29.1205 24.736C29.0778 25.0347 29.1525 25.2587 29.3445 25.408C29.5365 25.536 29.7925 25.5467 30.1125 25.44C30.4538 25.3333 30.7418 25.024 30.9765 24.512V14.688C30.6352 14.6453 30.3045 14.5493 29.9845 14.4C29.6858 14.2507 29.3765 14.0907 29.0565 13.92C28.7578 13.7493 28.4378 13.5787 28.0965 13.408C27.7552 13.216 27.3605 13.056 26.9125 12.928C26.2512 12.736 25.7285 12.64 25.3445 12.64C24.9605 12.6187 24.6832 12.6613 24.5125 12.768C24.3632 12.8747 24.3098 13.0133 24.3525 13.184C24.3952 13.3547 24.5018 13.536 24.6725 13.728C24.8645 13.8987 25.0992 14.0587 25.3765 14.208C25.6538 14.3573 25.9525 14.4533 26.2725 14.496ZM41.46 14.496C41.5453 14.5173 41.5667 14.5813 41.524 14.688C41.4813 14.7733 41.4173 14.8693 41.332 14.976C41.268 15.0827 41.1827 15.1893 41.076 15.296C40.9907 15.4027 40.9267 15.4773 40.884 15.52C40.628 15.7333 40.308 15.8933 39.924 16C39.54 16.0853 39.156 16.0853 38.772 16C38.388 15.9147 38.036 15.712 37.716 15.392C37.396 15.072 37.172 14.6027 37.044 13.984C37.94 12.5973 38.8893 11.616 39.892 11.04C40.916 10.464 41.908 10.1973 42.868 10.24C43.316 10.24 43.7427 10.3253 44.148 10.496C44.5747 10.6453 44.9907 10.816 45.396 11.008C45.8227 11.1787 46.2387 11.3387 46.644 11.488C47.0707 11.6373 47.508 11.712 47.956 11.712C48.1907 11.6693 48.34 11.6693 48.404 11.712C48.468 11.7547 48.5 11.8933 48.5 12.128V23.328C48.5 23.6693 48.5427 23.9787 48.628 24.256C48.7347 24.512 48.948 24.7467 49.268 24.96C49.3533 25.0667 49.3533 25.184 49.268 25.312C49.0973 25.4613 48.948 25.6533 48.82 25.888C48.692 26.1227 48.564 26.3573 48.436 26.592C48.308 26.8267 48.1693 27.0507 48.02 27.264C47.892 27.4773 47.732 27.648 47.54 27.776C47.028 28.0533 46.5373 28.0533 46.068 27.776C45.684 27.5413 45.3747 27.264 45.14 26.944C44.9267 26.6027 44.66 26.2827 44.34 25.984C44.2333 25.856 44.2333 25.7387 44.34 25.632C44.66 25.4187 44.8627 25.184 44.948 24.928C45.0547 24.6507 45.108 24.3307 45.108 23.968V14.528C44.8733 14.4853 44.6173 14.3787 44.34 14.208C44.084 14.016 43.7747 13.824 43.412 13.632C43.0707 13.4187 42.6653 13.216 42.196 13.024C41.748 12.832 41.2253 12.704 40.628 12.64C40.0947 12.576 39.764 12.6293 39.636 12.8C39.508 12.9707 39.508 13.1733 39.636 13.408C39.764 13.6213 39.9987 13.8453 40.34 14.08C40.6813 14.2933 41.0547 14.432 41.46 14.496ZM55.015 16.224C54.9937 15.1787 54.791 14.4747 54.407 14.112C54.0443 13.7493 53.575 13.6427 52.999 13.792C52.871 13.856 52.775 13.856 52.711 13.792C52.6683 13.728 52.6683 13.6533 52.711 13.568C52.9243 13.2267 53.1483 12.8533 53.383 12.448C53.639 12.0427 53.895 11.68 54.151 11.36C54.407 11.0187 54.6737 10.7413 54.951 10.528C55.2283 10.3147 55.5057 10.2187 55.783 10.24C56.2097 10.2613 56.583 10.4213 56.903 10.72C57.2443 10.9973 57.543 11.3173 57.799 11.68C58.055 12.0427 58.2897 12.4053 58.503 12.768C58.7163 13.1307 58.919 13.3973 59.111 13.568C59.2817 13.6533 59.2817 13.76 59.111 13.888C58.919 13.9093 58.7697 13.9947 58.663 14.144C58.5563 14.272 58.4817 14.432 58.439 14.624C58.4177 14.816 58.407 15.0187 58.407 15.232C58.407 15.424 58.407 15.6053 58.407 15.776V19.424C58.8337 19.552 59.2923 19.7333 59.783 19.968C60.2737 20.2027 60.743 20.4693 61.191 20.768C61.6603 21.0667 62.0763 21.3867 62.439 21.728C62.823 22.0693 63.111 22.4 63.303 22.72V14.24C63.303 13.8987 63.2497 13.6 63.143 13.344C63.0577 13.0667 62.855 12.8213 62.535 12.608C62.4283 12.48 62.4283 12.3627 62.535 12.256C62.855 11.9573 63.1217 11.648 63.335 11.328C63.5697 10.9867 63.879 10.6987 64.263 10.464C64.7537 10.144 65.2337 10.144 65.703 10.464C65.895 10.5707 66.0657 10.7307 66.215 10.944C66.3643 11.1573 66.503 11.392 66.631 11.648C66.759 11.8827 66.887 12.1173 67.015 12.352C67.143 12.5867 67.2923 12.7787 67.463 12.928C67.5483 13.056 67.5483 13.1627 67.463 13.248C67.143 13.4827 66.9297 13.728 66.823 13.984C66.7377 14.24 66.695 14.5493 66.695 14.912V23.968C66.695 24.3307 66.7377 24.6507 66.823 24.928C66.9297 25.184 67.143 25.4187 67.463 25.632C67.5483 25.7387 67.5483 25.856 67.463 25.984C67.1217 26.2827 66.791 26.624 66.471 27.008C66.1723 27.3707 65.831 27.6693 65.447 27.904C65.319 27.968 65.1697 28 64.999 28C64.8283 27.9787 64.647 27.936 64.455 27.872C64.2843 27.7867 64.1137 27.7013 63.943 27.616C63.7723 27.5093 63.6337 27.4133 63.527 27.328C63.3137 27.1573 63.1003 26.8373 62.887 26.368C62.695 25.8773 62.4283 25.344 62.087 24.768C61.7457 24.1707 61.287 23.5733 60.711 22.976C60.135 22.3573 59.367 21.824 58.407 21.376V26.368C58.0443 26.7947 57.703 27.1787 57.383 27.52C57.0843 27.84 56.6897 28 56.199 28C55.943 28 55.6977 27.9253 55.463 27.776C55.1857 27.6053 54.8337 27.3067 54.407 26.88C53.9803 26.432 53.5537 25.9307 53.127 25.376C52.7217 24.8 52.3483 24.2133 52.007 23.616C51.687 23.0187 51.4737 22.4853 51.367 22.016C51.431 21.8453 51.5803 21.632 51.815 21.376C52.0497 21.0987 52.327 20.832 52.647 20.576C52.9883 20.2987 53.3617 20.0533 53.767 19.84C54.1937 19.6053 54.6097 19.4453 55.015 19.36V16.224ZM55.079 21.056C54.9937 21.0773 54.8657 21.1413 54.695 21.248C54.5243 21.3333 54.343 21.44 54.151 21.568C53.9803 21.6747 53.8203 21.792 53.671 21.92C53.543 22.0267 53.4577 22.1227 53.415 22.208C53.479 22.336 53.5857 22.528 53.735 22.784C53.8843 23.0187 54.0443 23.264 54.215 23.52C54.3857 23.776 54.5457 24.032 54.695 24.288C54.8657 24.5227 54.9937 24.704 55.079 24.832V21.056ZM85.835 7.264C85.515 7.49867 85.3017 7.744 85.195 8C85.1097 8.256 85.067 8.56533 85.067 8.928V26.112C85.067 26.3467 85.035 26.4853 84.971 26.528C84.907 26.5707 84.7577 26.5707 84.523 26.528C84.075 26.528 83.5203 26.6027 82.859 26.752C82.1977 26.9013 81.5043 27.072 80.779 27.264C80.075 27.4347 79.3923 27.6053 78.731 27.776C78.0697 27.9253 77.515 28 77.067 28C76.1923 28.0213 75.3497 27.8613 74.539 27.52C73.7283 27.1573 73.0137 26.72 72.395 26.208C71.7763 25.696 71.2857 25.1733 70.923 24.64C70.5817 24.1067 70.4217 23.6693 70.443 23.328C70.507 22.8373 70.6563 22.368 70.891 21.92C71.1257 21.472 71.403 21.0453 71.723 20.64C72.043 20.2133 72.363 19.7973 72.683 19.392C73.0243 18.9653 73.323 18.5493 73.579 18.144C73.8777 17.632 74.0163 17.0667 73.995 16.448C73.9737 15.808 73.867 15.232 73.675 14.72C73.483 14.1867 73.2377 13.7813 72.939 13.504C72.6403 13.2267 72.363 13.1947 72.107 13.408C71.9577 13.536 71.9043 13.7067 71.947 13.92C71.9897 14.112 72.0643 14.3147 72.171 14.528C72.2777 14.72 72.4057 14.8907 72.555 15.04C72.7043 15.168 72.811 15.232 72.875 15.232C72.9817 15.2533 73.0137 15.3173 72.971 15.424C72.907 15.5733 72.8003 15.7653 72.651 16C72.523 16.2133 72.363 16.416 72.171 16.608C72.0003 16.7787 71.8083 16.9173 71.595 17.024C71.403 17.1093 71.211 17.1093 71.019 17.024C70.9123 16.9813 70.795 16.896 70.667 16.768C70.5603 16.6187 70.4537 16.4693 70.347 16.32C70.2403 16.1707 70.1443 16.032 70.059 15.904C69.995 15.7547 69.963 15.6693 69.963 15.648C69.9417 15.584 70.0057 15.4133 70.155 15.136C70.3043 14.8373 70.507 14.4853 70.763 14.08C71.0403 13.6747 71.3497 13.248 71.691 12.8C72.0323 12.352 72.3737 11.936 72.715 11.552C73.0777 11.168 73.419 10.848 73.739 10.592C74.059 10.336 74.3257 10.2187 74.539 10.24C75.0083 10.2613 75.435 10.432 75.819 10.752C76.203 11.0507 76.5337 11.424 76.811 11.872C77.0883 12.2987 77.2803 12.7573 77.387 13.248C77.515 13.7173 77.547 14.144 77.483 14.528C77.4617 14.8907 77.2697 15.3387 76.907 15.872C76.5443 16.4053 76.139 16.96 75.691 17.536C75.243 18.112 74.8057 18.688 74.379 19.264C73.9737 19.84 73.6963 20.3627 73.547 20.832C73.483 21.344 73.5897 21.856 73.867 22.368C74.1443 22.8587 74.5177 23.3173 74.987 23.744C75.4777 24.1707 76.0323 24.544 76.651 24.864C77.2697 25.184 77.8883 25.4187 78.507 25.568C79.147 25.7173 79.7443 25.7707 80.299 25.728C80.8537 25.664 81.3123 25.472 81.675 25.152V8.256C81.675 7.91467 81.6217 7.616 81.515 7.36C81.4297 7.08267 81.227 6.83733 80.907 6.624C80.8003 6.496 80.8003 6.37867 80.907 6.272C81.227 5.97333 81.4937 5.664 81.707 5.344C81.9417 5.00267 82.251 4.71467 82.635 4.48C83.1257 4.16 83.6163 4.16 84.107 4.48C84.299 4.58667 84.4697 4.74667 84.619 4.96C84.7683 5.17333 84.907 5.408 85.035 5.664C85.163 5.89867 85.291 6.13333 85.419 6.368C85.547 6.60267 85.6857 6.79467 85.835 6.944C85.9417 7.05066 85.9417 7.15733 85.835 7.264ZM95.4725 21.984V18.88C94.9605 18.688 94.4058 18.4853 93.8085 18.272C93.2112 18.0373 92.5925 17.8133 91.9525 17.6C91.3125 17.3867 90.6832 17.2053 90.0645 17.056C89.4458 16.8853 88.8592 16.7893 88.3045 16.768C88.1978 16.7467 88.0805 16.672 87.9525 16.544C87.8458 16.3947 87.8778 16.1387 88.0485 15.776C88.3472 15.1147 88.6672 14.4533 89.0085 13.792C89.3498 13.1093 89.7445 12.5013 90.1925 11.968C90.6618 11.4347 91.1952 11.008 91.7925 10.688C92.4112 10.3467 93.1258 10.1973 93.9365 10.24C94.3845 10.2613 94.7792 10.3253 95.1205 10.432C95.4618 10.5173 95.7818 10.624 96.0805 10.752C96.3792 10.88 96.6885 11.0293 97.0085 11.2C97.3285 11.3493 97.6805 11.4987 98.0645 11.648C98.2138 11.6907 98.3312 11.6907 98.4165 11.648C98.5232 11.6053 98.5765 11.5307 98.5765 11.424C98.5765 11.3173 98.5125 11.2 98.3845 11.072C98.2565 10.944 98.0432 10.816 97.7445 10.688C97.7872 10.5173 97.8512 10.3253 97.9365 10.112C98.0218 9.89867 98.1178 9.70667 98.2245 9.536C98.3525 9.344 98.5018 9.20533 98.6725 9.12C98.8645 9.01333 99.0778 8.992 99.3125 9.056C99.7178 9.184 99.9738 9.41867 100.081 9.76C100.209 10.08 100.23 10.4427 100.145 10.848C100.059 11.2533 99.8992 11.68 99.6645 12.128C99.4298 12.576 99.1632 12.9813 98.8645 13.344C98.5658 13.7067 98.2458 14.0053 97.9045 14.24C97.5845 14.4747 97.2965 14.5813 97.0405 14.56C96.5285 14.496 95.9845 14.3147 95.4085 14.016C94.8325 13.7173 94.2672 13.4613 93.7125 13.248C93.1792 13.0133 92.6672 12.896 92.1765 12.896C91.6858 12.896 91.2592 13.1627 90.8965 13.696C90.8112 13.76 90.7045 13.92 90.5765 14.176C90.4698 14.4107 90.3952 14.5813 90.3525 14.688C90.6512 14.7093 91.0458 14.7947 91.5365 14.944C92.0485 15.072 92.5925 15.232 93.1685 15.424C93.7445 15.616 94.3205 15.8187 94.8965 16.032C95.4938 16.2453 96.0272 16.4373 96.4965 16.608C97.2432 16.7787 97.8512 16.864 98.3205 16.864C98.5552 16.8213 98.7045 16.8213 98.7685 16.864C98.8325 16.9067 98.8645 17.0453 98.8645 17.28V22.432C98.8645 22.6027 98.8645 22.7947 98.8645 23.008C98.8645 23.2213 98.8752 23.424 98.8965 23.616C98.9392 23.808 99.0032 23.9787 99.0885 24.128C99.1952 24.256 99.3552 24.3307 99.5685 24.352C99.6325 24.3947 99.6645 24.448 99.6645 24.512C99.6645 24.576 99.6325 24.6293 99.5685 24.672C99.3765 24.8213 99.1738 25.0773 98.9605 25.44C98.7472 25.8027 98.5018 26.176 98.2245 26.56C97.9685 26.9227 97.6805 27.2533 97.3605 27.552C97.0405 27.8293 96.6672 27.9787 96.2405 28C95.9418 28.0213 95.6538 27.9253 95.3765 27.712C95.0992 27.4987 94.8325 27.2213 94.5765 26.88C94.3205 26.5387 94.0752 26.176 93.8405 25.792C93.6058 25.3867 93.3818 25.0133 93.1685 24.672C93.1258 24.5867 93.1258 24.512 93.1685 24.448C93.2325 24.384 93.3285 24.3733 93.4565 24.416C94.0112 24.5867 94.4805 24.4907 94.8645 24.128C95.2485 23.744 95.4512 23.0293 95.4725 21.984ZM112.158 10.944C112.435 10.8587 112.648 10.944 112.798 11.2C112.968 11.4347 113.075 11.7333 113.118 12.096C113.16 12.4587 113.139 12.8427 113.054 13.248C112.99 13.6533 112.872 13.9733 112.702 14.208C112.51 14.464 112.275 14.7307 111.998 15.008C111.72 15.2853 111.432 15.5627 111.134 15.84C110.856 16.1173 110.579 16.384 110.302 16.64C110.024 16.8747 109.779 17.0987 109.566 17.312C108.819 18.0373 107.976 18.464 107.038 18.592C106.099 18.72 105.224 18.5067 104.414 17.952C104.051 17.696 103.688 17.3653 103.326 16.96C102.984 16.5547 102.739 16.0853 102.59 15.552C102.824 15.104 103.07 14.6667 103.326 14.24C103.582 13.792 103.859 13.3867 104.158 13.024C104.478 12.64 104.83 12.3307 105.214 12.096C105.598 11.84 106.024 11.7013 106.494 11.68C106.707 11.68 106.899 11.7013 107.07 11.744C107.262 11.7867 107.443 11.872 107.614 12C107.806 12.128 107.976 12.32 108.126 12.576C108.296 12.832 108.456 13.184 108.606 13.632C108.584 13.7173 108.488 13.8667 108.318 14.08C108.147 14.2933 107.955 14.496 107.742 14.688C107.55 14.88 107.358 15.0507 107.166 15.2C106.974 15.328 106.846 15.3813 106.782 15.36C106.696 15.36 106.632 15.3067 106.59 15.2C106.547 15.072 106.547 14.9653 106.59 14.88C106.376 14.2613 106.184 13.8453 106.014 13.632C105.864 13.4187 105.736 13.3333 105.63 13.376C105.523 13.4187 105.374 13.536 105.182 13.728C104.99 13.92 104.883 14.1547 104.862 14.432C104.947 14.8373 105.128 15.1893 105.406 15.488C105.683 15.7653 105.992 15.9893 106.334 16.16C106.696 16.3307 107.059 16.448 107.422 16.512C107.806 16.5547 108.136 16.544 108.414 16.48C109.032 16.3307 109.47 16.0533 109.726 15.648C109.982 15.2213 110.12 14.7947 110.142 14.368C110.184 13.92 110.152 13.5253 110.046 13.184C109.96 12.8427 109.886 12.6613 109.822 12.64C109.672 12.6187 109.587 12.5547 109.566 12.448C109.566 12.3413 109.598 12.2347 109.661 12.128C109.726 12.0427 109.875 11.936 110.11 11.808C110.344 11.68 110.59 11.5627 110.845 11.456C111.123 11.328 111.379 11.2213 111.614 11.136C111.87 11.0293 112.051 10.9653 112.158 10.944ZM112.702 22.4C112.51 22.6773 112.275 22.9547 111.998 23.232C111.72 23.5093 111.432 23.7867 111.134 24.064C110.856 24.32 110.579 24.576 110.302 24.832C110.024 25.0667 109.779 25.2907 109.566 25.504C108.819 26.2507 107.976 26.688 107.038 26.816C106.099 26.9227 105.224 26.6987 104.414 26.144C104.051 25.9093 103.688 25.5893 103.326 25.184C102.984 24.7787 102.739 24.2987 102.59 23.744C102.824 23.3173 103.07 22.88 103.326 22.432C103.582 21.984 103.859 21.5787 104.158 21.216C104.478 20.832 104.83 20.5227 105.214 20.288C105.598 20.032 106.024 19.8933 106.494 19.872C106.707 19.872 106.899 19.8933 107.07 19.936C107.262 19.9787 107.443 20.064 107.614 20.192C107.806 20.32 107.976 20.5227 108.126 20.8C108.296 21.056 108.456 21.408 108.606 21.856C108.584 21.9413 108.488 22.0907 108.318 22.304C108.147 22.496 107.955 22.688 107.742 22.88C107.55 23.072 107.358 23.2427 107.166 23.392C106.974 23.52 106.846 23.5733 106.782 23.552C106.696 23.552 106.632 23.4987 106.59 23.392C106.547 23.264 106.547 23.1573 106.59 23.072C106.376 22.4533 106.184 22.0373 106.014 21.824C105.864 21.6107 105.736 21.5253 105.63 21.568C105.523 21.6107 105.374 21.728 105.182 21.92C104.99 22.112 104.883 22.3467 104.862 22.624C104.947 23.0293 105.128 23.3813 105.406 23.68C105.683 23.9787 105.992 24.2133 106.334 24.384C106.696 24.5333 107.059 24.64 107.422 24.704C107.806 24.7467 108.136 24.736 108.414 24.672C109.032 24.5227 109.47 24.2453 109.726 23.84C109.982 23.4133 110.12 22.9867 110.142 22.56C110.184 22.112 110.152 21.7173 110.046 21.376C109.96 21.0347 109.886 20.864 109.822 20.864C109.672 20.8213 109.587 20.7467 109.566 20.64C109.566 20.5333 109.598 20.4267 109.661 20.32C109.726 20.2347 109.875 20.128 110.11 20C110.344 19.872 110.59 19.7547 110.845 19.648C111.123 19.52 111.379 19.4133 111.614 19.328C111.87 19.2213 112.051 19.1573 112.158 19.136C112.435 19.0507 112.648 19.136 112.798 19.392C112.968 19.6267 113.075 19.9253 113.118 20.288C113.16 20.6507 113.139 21.0347 113.054 21.44C112.99 21.8453 112.872 22.1653 112.702 22.4ZM127.4 20.16C127.208 20.7147 126.93 21.44 126.568 22.336C126.205 23.2107 125.768 24.0747 125.256 24.928C124.765 25.76 124.2 26.4853 123.56 27.104C122.92 27.7013 122.226 28 121.48 28C120.605 28.0213 119.816 27.8613 119.112 27.52C118.429 27.1573 117.853 26.72 117.384 26.208C116.914 25.696 116.562 25.1733 116.328 24.64C116.093 24.1067 115.986 23.6693 116.008 23.328C116.072 22.8373 116.221 22.368 116.456 21.92C116.69 21.472 116.968 21.0453 117.288 20.64C117.608 20.2133 117.928 19.7973 118.248 19.392C118.589 18.9653 118.888 18.5493 119.144 18.144C119.442 17.632 119.581 17.0667 119.56 16.448C119.538 15.808 119.432 15.232 119.24 14.72C119.048 14.1867 118.802 13.7813 118.504 13.504C118.205 13.2267 117.928 13.1947 117.672 13.408C117.522 13.536 117.469 13.7067 117.512 13.92C117.554 14.112 117.629 14.3147 117.736 14.528C117.842 14.72 117.97 14.8907 118.12 15.04C118.269 15.168 118.376 15.232 118.44 15.232C118.546 15.2533 118.578 15.3173 118.536 15.424C118.472 15.5733 118.365 15.7653 118.216 16C118.088 16.2133 117.928 16.416 117.736 16.608C117.565 16.8 117.373 16.9387 117.16 17.024C116.968 17.1093 116.776 17.1093 116.584 17.024C116.477 16.9813 116.36 16.896 116.232 16.768C116.125 16.6187 116.018 16.4693 115.912 16.32C115.805 16.1707 115.709 16.032 115.624 15.904C115.56 15.7547 115.528 15.6693 115.528 15.648C115.506 15.584 115.57 15.4133 115.72 15.136C115.869 14.8373 116.072 14.4853 116.328 14.08C116.605 13.6747 116.914 13.248 117.256 12.8C117.597 12.352 117.938 11.936 118.28 11.552C118.642 11.168 118.984 10.848 119.304 10.592C119.624 10.336 119.89 10.2187 120.104 10.24C120.573 10.2613 121 10.432 121.384 10.752C121.768 11.0507 122.098 11.424 122.376 11.872C122.653 12.2987 122.845 12.7573 122.952 13.248C123.08 13.7173 123.112 14.144 123.048 14.528C123.026 14.8907 122.834 15.3387 122.472 15.872C122.109 16.4053 121.704 16.96 121.256 17.536C120.808 18.112 120.37 18.688 119.944 19.264C119.538 19.84 119.261 20.3627 119.112 20.832C119.005 21.3653 119.069 21.8987 119.304 22.432C119.538 22.944 119.858 23.4027 120.264 23.808C120.69 24.2133 121.17 24.5227 121.704 24.736C122.237 24.928 122.76 24.9813 123.272 24.896C123.698 24.8107 123.965 24.64 124.072 24.384C124.178 24.128 124.2 23.808 124.136 23.424C124.072 23.0187 123.954 22.5707 123.784 22.08C123.613 21.5893 123.464 21.0773 123.336 20.544C123.229 20.0107 123.165 19.4773 123.144 18.944C123.122 18.3893 123.229 17.856 123.464 17.344C123.848 16.3413 124.221 15.4133 124.584 14.56C124.968 13.6853 125.341 12.928 125.704 12.288C126.066 11.648 126.418 11.1467 126.76 10.784C127.101 10.4 127.421 10.1867 127.72 10.144C128.424 10.1867 129 10.3467 129.448 10.624C129.917 10.88 130.333 11.168 130.696 11.488C131.058 11.808 131.389 12.128 131.688 12.448C132.008 12.7467 132.37 12.9707 132.776 13.12C132.882 13.1413 132.946 13.2053 132.968 13.312C132.989 13.4187 132.968 13.5147 132.904 13.6C132.605 13.7707 132.456 14.0373 132.456 14.4V23.968C132.456 24.3307 132.498 24.6507 132.584 24.928C132.69 25.184 132.904 25.4187 133.224 25.632C133.33 25.76 133.33 25.8773 133.224 25.984C132.904 26.2827 132.626 26.6027 132.392 26.944C132.178 27.264 131.88 27.5413 131.496 27.776C131.005 28.0747 130.514 28.0747 130.024 27.776C129.832 27.648 129.661 27.4773 129.512 27.264C129.384 27.0507 129.256 26.8267 129.128 26.592C129 26.3573 128.872 26.1227 128.744 25.888C128.616 25.6533 128.466 25.4613 128.296 25.312C128.189 25.2053 128.189 25.088 128.296 24.96C128.616 24.7467 128.818 24.512 128.904 24.256C129.01 23.9787 129.064 23.6693 129.064 23.328V15.04C128.829 14.912 128.584 14.7413 128.328 14.528C128.093 14.3147 127.858 14.1333 127.624 13.984C127.41 13.8347 127.208 13.76 127.016 13.76C126.824 13.76 126.664 13.8987 126.536 14.176C126.28 14.5173 126.184 14.9227 126.248 15.392C126.312 15.8613 126.429 16.3627 126.6 16.896C126.77 17.4293 126.941 17.9733 127.112 18.528C127.304 19.0827 127.4 19.6267 127.4 20.16ZM133.857 4.64C133.452 5.06667 132.94 5.51467 132.321 5.984C131.702 6.432 131.18 6.82667 130.753 7.168C129.985 7.78667 129.132 8.14933 128.193 8.256C127.254 8.34133 126.38 8.16 125.569 7.712C125.206 7.49867 124.854 7.232 124.513 6.912C124.15 6.57067 123.894 6.176 123.745 5.728C123.958 5.36533 124.204 5.00267 124.481 4.64C124.737 4.27733 125.025 3.94667 125.345 3.648C125.644 3.328 125.985 3.072 126.369 2.88C126.753 2.66667 127.18 2.54933 127.649 2.528C127.862 2.54933 128.065 2.58133 128.257 2.624C128.428 2.64533 128.609 2.70933 128.801 2.816C128.972 2.92266 129.142 3.08267 129.313 3.296C129.462 3.50933 129.612 3.79733 129.761 4.16C129.74 4.224 129.654 4.34133 129.505 4.512C129.334 4.68267 129.142 4.85333 128.929 5.024C128.716 5.19467 128.513 5.33333 128.321 5.44C128.129 5.54667 128.001 5.58933 127.937 5.568C127.852 5.568 127.788 5.52533 127.745 5.44C127.702 5.33333 127.702 5.248 127.745 5.184C127.553 4.69333 127.372 4.352 127.201 4.16C127.03 3.968 126.892 3.89333 126.785 3.936C126.678 3.97867 126.529 4.07467 126.337 4.224C126.145 4.37333 126.038 4.56533 126.017 4.8C126.102 5.14133 126.284 5.44 126.561 5.696C126.838 5.93067 127.158 6.12267 127.521 6.272C127.884 6.4 128.257 6.48533 128.641 6.528C129.004 6.57067 129.313 6.56 129.569 6.496C129.889 6.432 130.22 6.304 130.561 6.112C130.902 5.92 131.158 5.68533 131.329 5.408C131.628 4.93867 131.809 4.49067 131.873 4.064C131.916 3.616 131.862 3.38133 131.713 3.36C131.457 3.296 131.404 3.14666 131.553 2.912C131.617 2.848 131.734 2.76266 131.905 2.656C132.054 2.54933 132.214 2.45333 132.385 2.368C132.556 2.26133 132.737 2.16533 132.929 2.08C133.1 1.99467 133.238 1.94133 133.345 1.92C133.622 1.856 133.846 1.93067 134.017 2.144C134.166 2.336 134.262 2.592 134.305 2.912C134.326 3.21067 134.305 3.53067 134.241 3.872C134.156 4.192 134.028 4.448 133.857 4.64ZM150.881 13.248C150.561 13.4827 150.348 13.728 150.241 13.984C150.156 14.24 150.113 14.5493 150.113 14.912V26.112C150.113 26.3467 150.081 26.4853 150.017 26.528C149.974 26.5707 149.825 26.5707 149.569 26.528C149.121 26.528 148.545 26.6027 147.841 26.752C147.158 26.9013 146.433 27.072 145.665 27.264C144.918 27.4347 144.193 27.6053 143.489 27.776C142.785 27.9253 142.209 28 141.761 28C140.886 28.0213 140.097 27.8613 139.393 27.52C138.71 27.1573 138.134 26.72 137.665 26.208C137.196 25.696 136.844 25.1733 136.609 24.64C136.374 24.1067 136.268 23.6693 136.289 23.328C136.353 22.8373 136.502 22.368 136.737 21.92C136.972 21.472 137.249 21.0453 137.569 20.64C137.889 20.2133 138.209 19.7973 138.529 19.392C138.87 18.9653 139.169 18.5493 139.425 18.144C139.724 17.632 139.862 17.0667 139.841 16.448C139.82 15.808 139.713 15.232 139.521 14.72C139.329 14.1867 139.084 13.7813 138.785 13.504C138.486 13.2267 138.209 13.1947 137.953 13.408C137.804 13.536 137.75 13.7067 137.793 13.92C137.836 14.112 137.91 14.3147 138.017 14.528C138.124 14.72 138.252 14.8907 138.401 15.04C138.55 15.168 138.657 15.232 138.721 15.232C138.828 15.2533 138.86 15.3173 138.817 15.424C138.753 15.5733 138.646 15.7653 138.497 16C138.369 16.2133 138.209 16.416 138.017 16.608C137.846 16.8 137.654 16.9387 137.441 17.024C137.249 17.1093 137.057 17.1093 136.865 17.024C136.758 16.9813 136.641 16.896 136.513 16.768C136.406 16.6187 136.3 16.4693 136.193 16.32C136.086 16.1707 135.99 16.032 135.905 15.904C135.841 15.7547 135.809 15.6693 135.809 15.648C135.788 15.584 135.852 15.4133 136.001 15.136C136.15 14.8373 136.353 14.4853 136.609 14.08C136.886 13.6747 137.196 13.248 137.537 12.8C137.878 12.352 138.22 11.936 138.561 11.552C138.924 11.168 139.265 10.848 139.585 10.592C139.905 10.336 140.172 10.2187 140.385 10.24C140.854 10.2613 141.281 10.432 141.665 10.752C142.049 11.0507 142.38 11.424 142.657 11.872C142.934 12.2987 143.126 12.7573 143.233 13.248C143.361 13.7173 143.393 14.144 143.329 14.528C143.308 14.8907 143.116 15.3387 142.753 15.872C142.39 16.4053 141.985 16.96 141.537 17.536C141.089 18.112 140.652 18.688 140.225 19.264C139.82 19.84 139.542 20.3627 139.393 20.832C139.222 22.2187 139.596 23.3493 140.513 24.224C140.833 24.5013 141.249 24.768 141.761 25.024C142.294 25.2587 142.86 25.4293 143.457 25.536C144.054 25.6427 144.641 25.6747 145.217 25.632C145.793 25.5893 146.294 25.4293 146.721 25.152V14.24C146.721 13.8987 146.668 13.6 146.561 13.344C146.476 13.0667 146.273 12.8213 145.953 12.608C145.868 12.5013 145.868 12.384 145.953 12.256C146.294 11.9573 146.572 11.648 146.785 11.328C147.02 10.9867 147.329 10.6987 147.713 10.464C148.204 10.144 148.684 10.144 149.153 10.464C149.345 10.5707 149.516 10.7307 149.665 10.944C149.814 11.1573 149.953 11.392 150.081 11.648C150.209 11.8827 150.337 12.1173 150.465 12.352C150.593 12.5867 150.732 12.7787 150.881 12.928C151.009 13.056 151.009 13.1627 150.881 13.248ZM156.601 7.136C157.092 6.96533 157.572 6.656 158.041 6.208C158.532 5.73867 159.033 5.312 159.545 4.928C159.076 4.096 158.628 3.47733 158.201 3.072C157.775 2.66667 157.337 2.37867 156.889 2.208C156.463 2.05867 156.057 2.048 155.673 2.176C155.311 2.28267 155.023 2.464 154.809 2.72C154.596 2.976 154.489 3.25333 154.489 3.552C154.511 3.85066 154.692 4.10667 155.033 4.32C155.161 4.384 155.3 4.40533 155.449 4.384C155.62 4.34133 155.727 4.33067 155.769 4.352C155.833 4.352 155.929 4.416 156.057 4.544C156.057 4.56533 156.015 4.69333 155.929 4.928C155.844 5.14133 155.727 5.376 155.577 5.632C155.428 5.888 155.257 6.12267 155.065 6.336C154.873 6.528 154.671 6.61333 154.457 6.592C154.351 6.592 154.169 6.528 153.913 6.4C153.679 6.25067 153.433 6.08 153.177 5.888C152.943 5.696 152.74 5.48267 152.569 5.248C152.399 4.992 152.345 4.74667 152.409 4.512C152.516 4.192 152.687 3.86133 152.921 3.52C153.177 3.17867 153.465 2.83733 153.785 2.496C154.127 2.15467 154.479 1.84533 154.841 1.568C155.204 1.26933 155.545 1.024 155.865 0.831999C156.527 0.426666 157.22 0.202665 157.945 0.159998C158.585 0.159998 159.161 0.298665 159.673 0.575998C160.207 0.853332 160.676 1.216 161.081 1.664C161.508 2.112 161.881 2.60267 162.201 3.136C162.521 3.66933 162.788 4.18133 163.001 4.672C163.172 5.03467 163.193 5.29067 163.065 5.44C162.959 5.568 162.852 5.64267 162.745 5.664C162.511 5.74933 162.244 5.92 161.945 6.176C161.647 6.41067 161.348 6.66667 161.049 6.944C160.751 7.22133 160.463 7.49867 160.185 7.776C159.908 8.032 159.663 8.224 159.449 8.352V21.984C159.471 23.0293 159.673 23.744 160.057 24.128C160.441 24.4907 160.921 24.5867 161.497 24.416C161.604 24.3733 161.689 24.384 161.753 24.448C161.817 24.512 161.817 24.5867 161.753 24.672C161.54 25.0133 161.316 25.3867 161.081 25.792C160.847 26.176 160.601 26.5387 160.345 26.88C160.089 27.2213 159.823 27.4987 159.545 27.712C159.268 27.9253 158.98 28.0213 158.681 28C158.276 27.9787 157.903 27.8293 157.561 27.552C157.241 27.2533 156.943 26.9227 156.665 26.56C156.409 26.176 156.175 25.8027 155.961 25.44C155.748 25.0773 155.545 24.8213 155.353 24.672C155.289 24.6293 155.257 24.576 155.257 24.512C155.279 24.448 155.311 24.3947 155.353 24.352C155.567 24.3307 155.716 24.256 155.801 24.128C155.908 23.9787 155.972 23.808 155.993 23.616C156.036 23.424 156.057 23.2213 156.057 23.008C156.057 22.7947 156.057 22.6027 156.057 22.432V7.872C156.057 7.63733 156.089 7.44533 156.153 7.296C156.217 7.14667 156.367 7.09333 156.601 7.136ZM166.503 14.496C166.588 14.5173 166.609 14.5813 166.567 14.688C166.524 14.7733 166.46 14.8693 166.375 14.976C166.311 15.0827 166.225 15.1893 166.119 15.296C166.033 15.4027 165.969 15.4773 165.927 15.52C165.671 15.7333 165.351 15.8933 164.967 16C164.583 16.0853 164.199 16.0853 163.815 16C163.431 15.8933 163.079 15.68 162.759 15.36C162.439 15.04 162.215 14.5707 162.087 13.952C162.983 12.5653 163.932 11.5947 164.935 11.04C165.959 10.464 166.951 10.1973 167.911 10.24C168.359 10.24 168.881 10.3253 169.479 10.496C170.076 10.6453 170.684 10.816 171.303 11.008C171.921 11.1787 172.529 11.3387 173.127 11.488C173.724 11.6373 174.247 11.712 174.695 11.712C174.929 11.6693 175.079 11.6693 175.143 11.712C175.207 11.7547 175.239 11.8933 175.239 12.128V26.112C175.239 26.3467 175.207 26.4853 175.143 26.528C175.079 26.5707 174.929 26.5707 174.695 26.528C174.247 26.528 173.788 26.6027 173.319 26.752C172.871 26.9013 172.412 27.072 171.943 27.264C171.495 27.4347 171.036 27.6053 170.567 27.776C170.119 27.9253 169.671 28 169.223 28C168.476 28.0427 167.815 27.9787 167.239 27.808C166.684 27.616 166.193 27.3813 165.766 27.104C165.361 26.8053 165.02 26.4747 164.743 26.112C164.465 25.728 164.241 25.3653 164.071 25.024C164.028 24.896 164.049 24.8 164.135 24.736C164.22 24.672 164.316 24.672 164.423 24.736C164.572 24.7147 164.796 24.5973 165.095 24.384C165.393 24.1493 165.692 23.872 165.991 23.552C166.289 23.2107 166.545 22.8373 166.759 22.432C166.972 22.0267 167.047 21.632 166.983 21.248C166.94 20.928 166.844 20.6187 166.695 20.32C166.545 20.0213 166.375 19.776 166.183 19.584C165.991 19.3707 165.799 19.232 165.607 19.168C165.415 19.0827 165.244 19.104 165.095 19.232C164.967 19.3173 164.913 19.4453 164.935 19.616C164.956 19.7867 165.009 19.9467 165.095 20.096C165.201 20.2453 165.308 20.384 165.415 20.512C165.543 20.6187 165.639 20.672 165.703 20.672C165.809 20.6933 165.841 20.7467 165.799 20.832C165.756 20.96 165.671 21.12 165.543 21.312C165.436 21.4827 165.297 21.6427 165.127 21.792C164.977 21.9413 164.817 22.0587 164.647 22.144C164.476 22.208 164.316 22.208 164.167 22.144C164.081 22.1013 163.985 22.0267 163.879 21.92C163.772 21.792 163.676 21.6747 163.591 21.568C163.505 21.44 163.431 21.3227 163.367 21.216C163.303 21.1093 163.271 21.0453 163.271 21.024C163.249 20.9813 163.303 20.8427 163.431 20.608C163.559 20.3733 163.729 20.096 163.943 19.776C164.177 19.4347 164.433 19.0827 164.711 18.72C165.009 18.336 165.308 17.9947 165.607 17.696C165.905 17.376 166.183 17.12 166.439 16.928C166.716 16.7147 166.951 16.6187 167.143 16.64C167.527 16.6613 167.879 16.8 168.199 17.056C168.54 17.312 168.817 17.6213 169.031 17.984C169.265 18.3253 169.436 18.688 169.543 19.072C169.649 19.456 169.671 19.808 169.607 20.128C169.585 20.384 169.468 20.6827 169.255 21.024C169.041 21.344 168.796 21.664 168.519 21.984C168.263 22.304 167.996 22.6027 167.719 22.88C167.441 23.1573 167.239 23.3707 167.111 23.52C167.196 23.904 167.431 24.256 167.815 24.576C168.199 24.8747 168.636 25.1093 169.127 25.28C169.639 25.4293 170.14 25.504 170.631 25.504C171.121 25.504 171.527 25.3867 171.847 25.152V14.688C171.505 14.6453 171.143 14.5493 170.759 14.4C170.396 14.2507 170.012 14.0907 169.607 13.92C169.223 13.7493 168.828 13.5787 168.423 13.408C168.017 13.216 167.591 13.056 167.143 12.928C166.481 12.736 165.959 12.64 165.575 12.64C165.191 12.6187 164.913 12.6613 164.743 12.768C164.593 12.8747 164.54 13.0133 164.583 13.184C164.625 13.3547 164.732 13.536 164.903 13.728C165.095 13.8987 165.329 14.0587 165.607 14.208C165.884 14.3573 166.183 14.4533 166.503 14.496ZM182.284 14.496C182.369 14.5173 182.39 14.5813 182.348 14.688C182.305 14.7733 182.241 14.8693 182.156 14.976C182.092 15.0827 182.006 15.1893 181.9 15.296C181.814 15.4027 181.75 15.4773 181.708 15.52C181.452 15.7333 181.132 15.8933 180.748 16C180.364 16.0853 179.98 16.0853 179.596 16C179.212 15.8933 178.86 15.68 178.54 15.36C178.22 15.04 177.996 14.5707 177.868 13.952C178.764 12.5653 179.713 11.5947 180.716 11.04C181.74 10.464 182.732 10.1973 183.692 10.24C184.14 10.24 184.662 10.3253 185.26 10.496C185.857 10.6453 186.465 10.816 187.084 11.008C187.702 11.1787 188.31 11.3387 188.908 11.488C189.505 11.6373 190.028 11.712 190.476 11.712C190.71 11.6693 190.86 11.6693 190.924 11.712C190.988 11.7547 191.02 11.8933 191.02 12.128V26.112C191.02 26.3467 190.988 26.4853 190.924 26.528C190.86 26.5707 190.71 26.5707 190.476 26.528C190.028 26.528 189.569 26.6027 189.1 26.752C188.652 26.9013 188.193 27.072 187.724 27.264C187.276 27.4347 186.817 27.6053 186.348 27.776C185.9 27.9253 185.452 28 185.004 28C184.257 28.0427 183.596 27.9787 183.02 27.808C182.465 27.616 181.974 27.3813 181.548 27.104C181.142 26.8053 180.801 26.4747 180.524 26.112C180.246 25.728 180.022 25.3653 179.852 25.024C179.809 24.896 179.83 24.8 179.916 24.736C180.001 24.672 180.097 24.672 180.204 24.736C180.353 24.7147 180.577 24.5973 180.876 24.384C181.174 24.1493 181.473 23.872 181.772 23.552C182.07 23.2107 182.326 22.8373 182.54 22.432C182.753 22.0267 182.828 21.632 182.764 21.248C182.721 20.928 182.625 20.6187 182.476 20.32C182.326 20.0213 182.156 19.776 181.964 19.584C181.772 19.3707 181.58 19.232 181.388 19.168C181.196 19.0827 181.025 19.104 180.876 19.232C180.748 19.3173 180.694 19.4453 180.716 19.616C180.737 19.7867 180.79 19.9467 180.876 20.096C180.982 20.2453 181.089 20.384 181.196 20.512C181.324 20.6187 181.42 20.672 181.484 20.672C181.59 20.6933 181.622 20.7467 181.58 20.832C181.537 20.96 181.452 21.12 181.324 21.312C181.217 21.4827 181.078 21.6427 180.908 21.792C180.758 21.9413 180.598 22.0587 180.428 22.144C180.257 22.208 180.097 22.208 179.948 22.144C179.862 22.1013 179.766 22.0267 179.66 21.92C179.553 21.792 179.457 21.6747 179.372 21.568C179.286 21.44 179.212 21.3227 179.148 21.216C179.084 21.1093 179.052 21.0453 179.052 21.024C179.03 20.9813 179.084 20.8427 179.212 20.608C179.34 20.3733 179.51 20.096 179.724 19.776C179.958 19.4347 180.214 19.0827 180.492 18.72C180.79 18.336 181.089 17.9947 181.388 17.696C181.686 17.376 181.964 17.12 182.22 16.928C182.497 16.7147 182.732 16.6187 182.924 16.64C183.308 16.6613 183.66 16.8 183.98 17.056C184.321 17.312 184.598 17.6213 184.812 17.984C185.046 18.3253 185.217 18.688 185.324 19.072C185.43 19.456 185.452 19.808 185.388 20.128C185.366 20.384 185.249 20.6827 185.036 21.024C184.822 21.344 184.577 21.664 184.3 21.984C184.044 22.304 183.777 22.6027 183.5 22.88C183.222 23.1573 183.02 23.3707 182.892 23.52C182.977 23.904 183.212 24.256 183.596 24.576C183.98 24.8747 184.417 25.1093 184.908 25.28C185.42 25.4293 185.921 25.504 186.412 25.504C186.902 25.504 187.308 25.3867 187.628 25.152V14.688C187.286 14.6453 186.924 14.5493 186.54 14.4C186.177 14.2507 185.793 14.0907 185.388 13.92C185.004 13.7493 184.609 13.5787 184.204 13.408C183.798 13.216 183.372 13.056 182.924 12.928C182.262 12.736 181.74 12.64 181.356 12.64C180.972 12.6187 180.694 12.6613 180.524 12.768C180.374 12.8747 180.321 13.0133 180.364 13.184C180.406 13.3547 180.513 13.536 180.684 13.728C180.876 13.8987 181.11 14.0587 181.388 14.208C181.665 14.3573 181.964 14.4533 182.284 14.496ZM197.585 14.496C197.67 14.5173 197.692 14.5813 197.649 14.688C197.606 14.7733 197.542 14.8693 197.457 14.976C197.393 15.0827 197.308 15.1893 197.201 15.296C197.116 15.4027 197.052 15.4773 197.009 15.52C196.753 15.7333 196.433 15.8933 196.049 16C195.665 16.0853 195.281 16.0853 194.897 16C194.513 15.9147 194.161 15.712 193.841 15.392C193.521 15.072 193.297 14.6027 193.169 13.984C194.065 12.5973 195.014 11.616 196.017 11.04C197.041 10.464 198.033 10.1973 198.993 10.24C199.441 10.24 199.868 10.3253 200.273 10.496C200.7 10.6453 201.116 10.816 201.521 11.008C201.948 11.1787 202.364 11.3387 202.769 11.488C203.196 11.6373 203.633 11.712 204.081 11.712C204.316 11.6693 204.465 11.6693 204.529 11.712C204.593 11.7547 204.625 11.8933 204.625 12.128V23.328C204.625 23.6693 204.668 23.9787 204.753 24.256C204.86 24.512 205.073 24.7467 205.393 24.96C205.478 25.0667 205.478 25.184 205.393 25.312C205.222 25.4613 205.073 25.6533 204.945 25.888C204.817 26.1227 204.689 26.3573 204.561 26.592C204.433 26.8267 204.294 27.0507 204.145 27.264C204.017 27.4773 203.857 27.648 203.665 27.776C203.153 28.0533 202.662 28.0533 202.193 27.776C201.809 27.5413 201.5 27.264 201.265 26.944C201.052 26.6027 200.785 26.2827 200.465 25.984C200.358 25.856 200.358 25.7387 200.465 25.632C200.785 25.4187 200.988 25.184 201.073 24.928C201.18 24.6507 201.233 24.3307 201.233 23.968V14.528C200.998 14.4853 200.742 14.3787 200.465 14.208C200.209 14.016 199.9 13.824 199.537 13.632C199.196 13.4187 198.79 13.216 198.321 13.024C197.873 12.832 197.35 12.704 196.753 12.64C196.22 12.576 195.889 12.6293 195.761 12.8C195.633 12.9707 195.633 13.1733 195.761 13.408C195.889 13.6213 196.124 13.8453 196.465 14.08C196.806 14.2933 197.18 14.432 197.585 14.496ZM211.812 18.016C211.641 17.888 211.364 17.7387 210.98 17.568C210.596 17.376 210.191 17.2053 209.764 17.056C209.337 16.8853 208.921 16.736 208.516 16.608C208.111 16.48 207.801 16.3947 207.588 16.352C207.716 16.0747 207.855 15.7547 208.004 15.392C208.175 15.0293 208.345 14.6667 208.516 14.304C208.687 13.92 208.857 13.5573 209.028 13.216C209.22 12.8747 209.401 12.5973 209.572 12.384C210.084 11.7013 210.671 11.168 211.332 10.784C212.015 10.3787 212.847 10.1973 213.828 10.24C214.276 10.24 214.82 10.3253 215.46 10.496C216.1 10.6453 216.761 10.816 217.444 11.008C218.127 11.1787 218.788 11.3387 219.428 11.488C220.068 11.6373 220.612 11.712 221.06 11.712C221.295 11.6693 221.444 11.6693 221.508 11.712C221.572 11.7547 221.604 11.8933 221.604 12.128V23.328C221.604 23.6693 221.647 23.9787 221.732 24.256C221.839 24.512 222.052 24.7467 222.372 24.96C222.479 25.088 222.479 25.2053 222.372 25.312C222.223 25.4613 222.084 25.6533 221.956 25.888C221.828 26.1227 221.7 26.3573 221.572 26.592C221.444 26.8267 221.305 27.0507 221.156 27.264C221.007 27.4773 220.836 27.648 220.644 27.776C220.153 28.0747 219.663 28.0747 219.172 27.776C218.788 27.5413 218.479 27.264 218.244 26.944C218.031 26.6027 217.764 26.2827 217.444 25.984C217.359 25.856 217.359 25.7387 217.444 25.632C217.764 25.4187 217.967 25.184 218.052 24.928C218.159 24.6507 218.212 24.3307 218.212 23.968V14.688C217.871 14.6453 217.487 14.5493 217.06 14.4C216.655 14.2507 216.228 14.0907 215.78 13.92C215.332 13.7493 214.873 13.5787 214.404 13.408C213.956 13.216 213.508 13.056 213.06 12.928C212.655 12.8 212.324 12.736 212.068 12.736C211.812 12.7147 211.588 12.768 211.396 12.896C211.204 13.0027 211.023 13.1627 210.852 13.376C210.703 13.5893 210.543 13.856 210.372 14.176C210.735 14.2613 211.119 14.4 211.524 14.592C211.951 14.7627 212.356 14.944 212.74 15.136C213.124 15.3067 213.455 15.4773 213.732 15.648C214.031 15.8187 214.233 15.9573 214.34 16.064C214.468 16.192 214.457 16.3307 214.308 16.48C213.86 16.9067 213.476 17.2907 213.156 17.632C212.857 17.952 212.665 18.4213 212.58 19.04V20.672V23.328C212.58 23.6693 212.623 23.9787 212.708 24.256C212.815 24.512 213.028 24.7467 213.348 24.96C213.455 25.0667 213.465 25.184 213.38 25.312C213.209 25.4613 213.06 25.6533 212.932 25.888C212.804 26.1227 212.676 26.3573 212.548 26.592C212.42 26.8267 212.281 27.0507 212.132 27.264C211.983 27.4773 211.812 27.648 211.62 27.776C211.151 28.0747 210.671 28.0747 210.18 27.776C209.796 27.5413 209.487 27.264 209.252 26.944C209.039 26.6027 208.761 26.2827 208.42 25.984C208.356 25.8347 208.356 25.7173 208.42 25.632C208.74 25.4187 208.953 25.184 209.06 24.928C209.167 24.6507 209.22 24.3307 209.22 23.968V21.28C209.22 20.8533 209.295 20.48 209.444 20.16C209.593 19.84 209.785 19.552 210.02 19.296C210.276 19.04 210.553 18.8053 210.852 18.592C211.172 18.3787 211.492 18.1867 211.812 18.016ZM229.413 14.496C229.499 14.5173 229.52 14.5813 229.477 14.688C229.435 14.7733 229.371 14.8693 229.285 14.976C229.221 15.0827 229.136 15.1893 229.029 15.296C228.944 15.4027 228.88 15.4773 228.837 15.52C228.581 15.7333 228.261 15.8933 227.877 16C227.493 16.0853 227.109 16.0853 226.725 16C226.341 15.8933 225.989 15.68 225.669 15.36C225.349 15.04 225.125 14.5707 224.997 13.952C225.893 12.5653 226.843 11.5947 227.845 11.04C228.869 10.464 229.861 10.1973 230.821 10.24C231.269 10.24 231.856 10.3253 232.581 10.496C233.307 10.6453 234.064 10.816 234.853 11.008C235.643 11.1787 236.4 11.3387 237.125 11.488C237.851 11.6373 238.437 11.712 238.885 11.712C239.12 11.6693 239.269 11.6693 239.333 11.712C239.397 11.7547 239.429 11.8933 239.429 12.128V23.328C239.429 23.6693 239.472 23.9787 239.557 24.256C239.664 24.512 239.877 24.7467 240.197 24.96C240.283 25.0667 240.283 25.184 240.197 25.312C240.027 25.4613 239.877 25.6533 239.749 25.888C239.621 26.1227 239.493 26.3573 239.365 26.592C239.237 26.8267 239.099 27.0507 238.949 27.264C238.821 27.4773 238.661 27.648 238.469 27.776C237.957 28.0533 237.467 28.0533 236.997 27.776C236.613 27.5413 236.304 27.264 236.069 26.944C235.856 26.6027 235.589 26.2827 235.269 25.984C235.163 25.856 235.163 25.7387 235.269 25.632C235.525 25.4613 235.707 25.2693 235.813 25.056C235.92 24.8427 235.984 24.608 236.005 24.352C235.963 23.9467 235.781 23.5307 235.461 23.104C235.163 22.6773 234.779 22.2507 234.309 21.824C233.861 21.3973 233.36 21.0027 232.805 20.64C232.272 20.256 231.749 19.9253 231.237 19.648C230.747 19.3707 230.299 19.1573 229.893 19.008C229.488 18.8373 229.2 18.7627 229.029 18.784C228.581 19.0187 228.304 19.4453 228.197 20.064C228.112 20.6827 228.133 21.344 228.261 22.048C228.411 22.7307 228.635 23.392 228.933 24.032C229.253 24.6507 229.573 25.0987 229.893 25.376C230.277 25.696 230.555 25.8347 230.725 25.792C230.896 25.728 230.981 25.5893 230.981 25.376C231.003 25.1627 230.939 24.9387 230.789 24.704C230.661 24.448 230.48 24.2773 230.245 24.192C230.139 24.192 230.064 24.1493 230.021 24.064C230 23.9787 230.011 23.8933 230.053 23.808C230.117 23.68 230.235 23.5093 230.405 23.296C230.597 23.0827 230.8 22.88 231.013 22.688C231.227 22.496 231.44 22.3253 231.653 22.176C231.867 22.0053 232.048 21.9093 232.197 21.888C232.987 22.5493 233.307 23.2213 233.157 23.904C233.029 24.5653 232.645 25.2373 232.005 25.92C231.813 26.112 231.6 26.3253 231.365 26.56C231.131 26.7947 230.885 27.0187 230.629 27.232C230.395 27.424 230.149 27.5947 229.893 27.744C229.659 27.872 229.435 27.9467 229.221 27.968C228.624 28.032 228.08 27.904 227.589 27.584C227.099 27.264 226.683 26.8587 226.341 26.368C226 25.856 225.733 25.2907 225.541 24.672C225.371 24.0533 225.307 23.4773 225.349 22.944C225.819 21.4293 226.448 20.1173 227.237 19.008C228.027 17.8987 229.051 17.056 230.309 16.48C230.587 16.4373 230.96 16.4907 231.429 16.64C231.899 16.768 232.4 16.96 232.933 17.216C233.488 17.472 234.043 17.7707 234.597 18.112C235.152 18.4533 235.632 18.8053 236.037 19.168V14.688C235.696 14.6453 235.269 14.5493 234.757 14.4C234.245 14.2507 233.712 14.0907 233.157 13.92C232.624 13.7493 232.08 13.5787 231.525 13.408C230.992 13.216 230.501 13.056 230.053 12.928C229.392 12.736 228.869 12.64 228.485 12.64C228.101 12.6187 227.824 12.6613 227.653 12.768C227.504 12.8747 227.451 13.0133 227.493 13.184C227.536 13.3547 227.643 13.536 227.813 13.728C228.005 13.8987 228.24 14.0587 228.517 14.208C228.795 14.3573 229.093 14.4533 229.413 14.496ZM236.634 36.256V32.96C236.634 32.6613 236.591 32.3947 236.506 32.16C236.42 31.9253 236.239 31.7227 235.962 31.552C235.855 31.4667 235.855 31.3707 235.962 31.264C236.26 31.008 236.506 30.7307 236.698 30.432C236.868 30.1547 237.124 29.9093 237.466 29.696C237.871 29.44 238.287 29.44 238.714 29.696C238.863 29.8027 239.002 29.9413 239.13 30.112C239.258 30.304 239.375 30.5067 239.482 30.72C239.588 30.9333 239.706 31.136 239.834 31.328C239.94 31.52 240.058 31.68 240.186 31.808C240.271 31.9147 240.271 32.0107 240.186 32.096C239.908 32.288 239.727 32.5013 239.642 32.736C239.556 32.9707 239.514 33.2373 239.514 33.536V37.408C239.514 37.6213 239.492 37.7387 239.45 37.76C239.407 37.8027 239.279 37.8027 239.066 37.76C238.639 37.76 238.255 37.8347 237.914 37.984C237.572 38.1547 237.231 38.3253 236.89 38.496C236.335 38.7947 235.759 38.9227 235.162 38.88C234.543 38.8587 233.978 38.7307 233.466 38.496C232.932 38.2613 232.484 37.9307 232.122 37.504C231.738 37.0987 231.482 36.64 231.354 36.128C231.738 35.744 232.132 35.3493 232.538 34.944C232.922 34.5387 233.263 34.0693 233.562 33.536C233.519 33.2587 233.402 33.0133 233.21 32.8C233.018 32.5867 232.804 32.4267 232.57 32.32C232.335 32.2133 232.111 32.1493 231.898 32.128C231.663 32.1067 231.482 32.1493 231.354 32.256C231.226 32.3627 231.172 32.5013 231.194 32.672C231.215 32.864 231.279 33.0453 231.386 33.216C231.471 33.3867 231.578 33.5253 231.706 33.632C231.834 33.76 231.93 33.824 231.994 33.824C232.1 33.824 232.132 33.8773 232.09 33.984C232.047 34.112 231.962 34.272 231.834 34.464C231.706 34.656 231.567 34.8267 231.418 34.976C231.247 35.1467 231.076 35.2747 230.906 35.36C230.735 35.4453 230.575 35.4453 230.426 35.36C230.34 35.3173 230.244 35.232 230.138 35.104C230.031 34.976 229.935 34.848 229.85 34.72C229.743 34.592 229.658 34.4747 229.594 34.368C229.53 34.2613 229.498 34.1973 229.498 34.176C229.476 34.1333 229.519 33.984 229.626 33.728C229.732 33.4933 229.892 33.1947 230.106 32.832C230.298 32.4907 230.522 32.1173 230.778 31.712C231.012 31.328 231.268 30.9653 231.546 30.624C231.802 30.304 232.058 30.0267 232.314 29.792C232.548 29.5787 232.762 29.4827 232.954 29.504C233.338 29.5253 233.7 29.664 234.042 29.92C234.362 30.176 234.639 30.4747 234.874 30.816C235.108 31.1787 235.279 31.5627 235.386 31.968C235.492 32.3733 235.535 32.7467 235.514 33.088C235.45 33.1307 235.343 33.2267 235.194 33.376C235.023 33.5253 234.852 33.6747 234.682 33.824C234.511 33.9947 234.351 34.1547 234.202 34.304C234.052 34.4533 233.967 34.56 233.946 34.624C233.818 34.9013 233.85 35.1467 234.042 35.36C234.212 35.5733 234.458 35.744 234.778 35.872C235.098 36.0213 235.439 36.128 235.802 36.192C236.164 36.256 236.442 36.2773 236.634 36.256ZM246.906 18.016C246.735 17.888 246.458 17.7387 246.074 17.568C245.69 17.376 245.284 17.2053 244.858 17.056C244.431 16.8853 244.015 16.736 243.61 16.608C243.204 16.48 242.895 16.3947 242.682 16.352C242.81 16.0747 242.948 15.7547 243.098 15.392C243.268 15.0293 243.439 14.6667 243.61 14.304C243.78 13.92 243.951 13.5573 244.122 13.216C244.314 12.8747 244.495 12.5973 244.666 12.384C245.178 11.7013 245.764 11.168 246.426 10.784C247.108 10.3787 247.94 10.1973 248.922 10.24C249.37 10.24 249.914 10.3253 250.554 10.496C251.194 10.6453 251.855 10.816 252.538 11.008C253.22 11.1787 253.882 11.3387 254.522 11.488C255.162 11.6373 255.706 11.712 256.154 11.712C256.388 11.6693 256.538 11.6693 256.602 11.712C256.666 11.7547 256.698 11.8933 256.698 12.128V23.328C256.698 23.6693 256.74 23.9787 256.826 24.256C256.932 24.512 257.146 24.7467 257.466 24.96C257.572 25.088 257.572 25.2053 257.466 25.312C257.316 25.4613 257.178 25.6533 257.05 25.888C256.922 26.1227 256.794 26.3573 256.666 26.592C256.538 26.8267 256.399 27.0507 256.25 27.264C256.1 27.4773 255.93 27.648 255.738 27.776C255.247 28.0747 254.756 28.0747 254.266 27.776C253.882 27.5413 253.572 27.264 253.338 26.944C253.124 26.6027 252.858 26.2827 252.538 25.984C252.452 25.856 252.452 25.7387 252.538 25.632C252.858 25.4187 253.06 25.184 253.146 24.928C253.252 24.6507 253.306 24.3307 253.306 23.968V14.688C252.964 14.6453 252.58 14.5493 252.154 14.4C251.748 14.2507 251.322 14.0907 250.874 13.92C250.426 13.7493 249.967 13.5787 249.498 13.408C249.05 13.216 248.602 13.056 248.154 12.928C247.748 12.8 247.418 12.736 247.162 12.736C246.906 12.7147 246.682 12.768 246.49 12.896C246.298 13.0027 246.116 13.1627 245.946 13.376C245.796 13.5893 245.636 13.856 245.466 14.176C245.828 14.2613 246.212 14.4 246.618 14.592C247.044 14.7627 247.45 14.944 247.834 15.136C248.218 15.3067 248.548 15.4773 248.826 15.648C249.124 15.8187 249.327 15.9573 249.434 16.064C249.562 16.192 249.551 16.3307 249.402 16.48C248.954 16.9067 248.57 17.2907 248.25 17.632C247.951 17.952 247.759 18.4213 247.674 19.04V20.672V23.328C247.674 23.6693 247.716 23.9787 247.802 24.256C247.908 24.512 248.122 24.7467 248.442 24.96C248.548 25.0667 248.559 25.184 248.474 25.312C248.303 25.4613 248.154 25.6533 248.026 25.888C247.898 26.1227 247.77 26.3573 247.642 26.592C247.514 26.8267 247.375 27.0507 247.226 27.264C247.076 27.4773 246.906 27.648 246.714 27.776C246.244 28.0747 245.764 28.0747 245.274 27.776C244.89 27.5413 244.58 27.264 244.346 26.944C244.132 26.6027 243.855 26.2827 243.514 25.984C243.45 25.8347 243.45 25.7173 243.514 25.632C243.834 25.4187 244.047 25.184 244.154 24.928C244.26 24.6507 244.314 24.3307 244.314 23.968V21.28C244.314 20.8533 244.388 20.48 244.538 20.16C244.687 19.84 244.879 19.552 245.114 19.296C245.37 19.04 245.647 18.8053 245.946 18.592C246.266 18.3787 246.586 18.1867 246.906 18.016ZM267.163 12.928C266.779 12.8213 266.438 12.736 266.139 12.672C265.84 12.608 265.563 12.5973 265.307 12.64C265.072 12.6613 264.848 12.7467 264.635 12.896C264.422 13.024 264.198 13.248 263.963 13.568C263.686 13.9093 263.451 14.2827 263.259 14.688C263.088 15.0933 263.046 15.488 263.131 15.872C263.174 16.1707 263.291 16.512 263.483 16.896C263.696 17.2587 263.931 17.6533 264.187 18.08C264.464 18.5067 264.742 18.9653 265.019 19.456C265.318 19.9467 265.595 20.448 265.851 20.96C265.894 21.024 265.915 21.088 265.915 21.152C265.936 21.1947 265.968 21.248 266.011 21.312C266.118 21.0347 266.246 20.736 266.395 20.416C266.566 20.096 266.736 19.7973 266.907 19.52C267.099 19.2213 267.28 18.9653 267.451 18.752C267.643 18.5387 267.814 18.4 267.963 18.336C268.198 18.2507 268.443 18.272 268.699 18.4C268.976 18.5067 269.243 18.6667 269.499 18.88C269.776 19.0933 270.022 19.3387 270.235 19.616C270.448 19.872 270.608 20.1173 270.715 20.352C270.736 20.5867 270.672 20.832 270.523 21.088C270.395 21.3227 270.224 21.5467 270.011 21.76C269.819 21.9733 269.606 22.1653 269.371 22.336C269.158 22.4853 268.976 22.592 268.827 22.656C268.72 22.7413 268.624 22.72 268.539 22.592C268.518 22.4 268.443 22.1867 268.315 21.952C268.208 21.7173 268.07 21.5253 267.899 21.376C267.75 21.2267 267.59 21.152 267.419 21.152C267.248 21.152 267.088 21.28 266.939 21.536C266.875 21.664 266.79 21.888 266.683 22.208C266.598 22.528 266.523 22.8267 266.459 23.104C266.48 23.872 266.182 24.6293 265.563 25.376C265.371 25.6107 265.136 25.8667 264.859 26.144C264.582 26.4213 264.283 26.688 263.963 26.944C263.664 27.2 263.344 27.4347 263.003 27.648C262.683 27.84 262.374 27.968 262.075 28.032C261.243 27.8827 260.71 27.648 260.475 27.328C260.262 26.9867 260.198 26.6347 260.283 26.272C260.39 25.9093 260.582 25.568 260.859 25.248C261.158 24.928 261.392 24.704 261.563 24.576C261.755 24.3413 261.904 24.2667 262.011 24.352C262.118 24.4373 262.16 24.5653 262.139 24.736C262.139 24.992 262.235 25.2267 262.427 25.44C262.64 25.632 262.854 25.76 263.067 25.824C263.302 25.888 263.494 25.8773 263.643 25.792C263.814 25.6853 263.856 25.4507 263.771 25.088C263.728 24.8747 263.654 24.6613 263.547 24.448C263.462 24.2133 263.366 24.0107 263.259 23.84C262.918 23.2213 262.523 22.592 262.075 21.952C261.648 21.312 261.264 20.6827 260.923 20.064C260.582 19.4453 260.336 18.8587 260.187 18.304C260.059 17.7493 260.102 17.2373 260.315 16.768C260.464 16.3413 260.688 15.8933 260.987 15.424C261.286 14.9333 261.606 14.4747 261.947 14.048C262.288 13.6 262.598 13.216 262.875 12.896C263.174 12.5547 263.376 12.3307 263.483 12.224C264.208 11.4773 264.944 10.9547 265.691 10.656C266.459 10.336 267.206 10.1973 267.931 10.24C268.379 10.24 268.891 10.3253 269.467 10.496C270.043 10.6453 270.619 10.816 271.195 11.008C271.792 11.1787 272.368 11.3387 272.923 11.488C273.499 11.6373 274.011 11.712 274.459 11.712C274.715 11.6693 274.864 11.6693 274.907 11.712C274.971 11.7547 275.003 11.8933 275.003 12.128V23.328C275.003 23.6693 275.046 23.9787 275.131 24.256C275.238 24.512 275.451 24.7467 275.771 24.96C275.899 25.0667 275.899 25.184 275.771 25.312C275.622 25.4613 275.483 25.6533 275.355 25.888C275.227 26.1227 275.099 26.3573 274.971 26.592C274.843 26.8267 274.704 27.0507 274.555 27.264C274.406 27.4773 274.235 27.648 274.043 27.776C273.574 28.0747 273.094 28.0747 272.603 27.776C272.219 27.5413 271.91 27.264 271.675 26.944C271.462 26.6027 271.184 26.2827 270.843 25.984C270.779 25.8347 270.779 25.7173 270.843 25.632C271.163 25.4187 271.366 25.184 271.451 24.928C271.558 24.6507 271.611 24.3307 271.611 23.968V14.688C271.27 14.6453 270.918 14.5493 270.555 14.4C270.214 14.2507 269.862 14.0907 269.499 13.92C269.158 13.7493 268.795 13.5787 268.411 13.408C268.027 13.216 267.611 13.056 267.163 12.928ZM276.579 4.864C276.153 5.312 275.705 5.73867 275.235 6.144C274.745 6.54933 274.243 6.912 273.731 7.232C273.198 7.552 272.654 7.808 272.099 8C271.545 8.17067 271.001 8.256 270.467 8.256C269.913 8.27733 269.39 8.192 268.899 8C268.387 7.808 267.95 7.49867 267.587 7.072C267.545 7.008 267.555 6.93333 267.619 6.848C267.683 6.76267 267.769 6.73067 267.875 6.752C268.131 6.60267 268.398 6.44267 268.675 6.272C268.953 6.10133 269.166 5.824 269.315 5.44C269.443 5.16267 269.443 4.84267 269.315 4.48C269.187 4.096 269.027 3.89333 268.835 3.872C268.857 3.85067 268.825 3.872 268.74 3.936C268.633 4 268.547 4.08533 268.483 4.192C268.419 4.29867 268.409 4.416 268.451 4.544C268.473 4.672 268.622 4.78933 268.899 4.896C268.921 5.28 268.814 5.568 268.579 5.76C268.345 5.93067 268.078 6.016 267.78 6.016C267.481 5.99467 267.203 5.888 266.947 5.696C266.691 5.504 266.553 5.23733 266.531 4.896C266.51 4.576 266.638 4.27733 266.915 4C267.171 3.70133 267.481 3.456 267.843 3.264C268.185 3.05066 268.515 2.89067 268.835 2.784C269.134 2.656 269.326 2.60267 269.411 2.624C270.073 2.73067 270.606 3.01867 271.011 3.488C271.417 3.936 271.545 4.46933 271.395 5.088C271.353 5.28 271.278 5.48267 271.171 5.696C271.043 5.888 270.926 6.05867 270.819 6.208C271.011 6.37867 271.225 6.50667 271.459 6.592C271.694 6.656 271.971 6.656 272.291 6.592C272.633 6.528 272.921 6.34667 273.155 6.048C273.39 5.74933 273.571 5.42933 273.699 5.088C273.806 4.72533 273.859 4.40533 273.859 4.128C273.859 3.82933 273.785 3.66933 273.635 3.648C273.379 3.584 273.326 3.43467 273.475 3.2C273.539 3.136 273.699 3.06133 273.955 2.976C274.19 2.86933 274.446 2.77333 274.723 2.688C274.979 2.60267 275.235 2.528 275.491 2.464C275.747 2.37867 275.929 2.32533 276.035 2.304C276.313 2.24 276.537 2.304 276.707 2.496C276.857 2.66667 276.953 2.90133 276.995 3.2C277.038 3.47733 277.027 3.776 276.963 4.096C276.878 4.416 276.75 4.672 276.579 4.864ZM282.148 14.496C282.233 14.5173 282.254 14.5813 282.212 14.688C282.169 14.7733 282.105 14.8693 282.02 14.976C281.956 15.0827 281.87 15.1893 281.764 15.296C281.678 15.4027 281.614 15.4773 281.572 15.52C281.316 15.7333 280.996 15.8933 280.612 16C280.228 16.0853 279.844 16.0853 279.46 16C279.076 15.9147 278.724 15.712 278.404 15.392C278.084 15.072 277.86 14.6027 277.732 13.984C278.628 12.5973 279.577 11.616 280.58 11.04C281.604 10.464 282.596 10.1973 283.556 10.24C284.004 10.24 284.43 10.3253 284.836 10.496C285.262 10.6453 285.678 10.816 286.084 11.008C286.51 11.1787 286.926 11.3387 287.332 11.488C287.758 11.6373 288.196 11.712 288.644 11.712C288.878 11.6693 289.028 11.6693 289.092 11.712C289.156 11.7547 289.188 11.8933 289.188 12.128V23.328C289.188 23.6693 289.23 23.9787 289.316 24.256C289.422 24.512 289.636 24.7467 289.956 24.96C290.041 25.0667 290.041 25.184 289.956 25.312C289.785 25.4613 289.636 25.6533 289.508 25.888C289.38 26.1227 289.252 26.3573 289.124 26.592C288.996 26.8267 288.857 27.0507 288.708 27.264C288.58 27.4773 288.42 27.648 288.228 27.776C287.716 28.0533 287.225 28.0533 286.756 27.776C286.372 27.5413 286.062 27.264 285.828 26.944C285.614 26.6027 285.348 26.2827 285.028 25.984C284.921 25.856 284.921 25.7387 285.028 25.632C285.348 25.4187 285.55 25.184 285.635 24.928C285.742 24.6507 285.796 24.3307 285.796 23.968V14.528C285.561 14.4853 285.305 14.3787 285.028 14.208C284.772 14.016 284.462 13.824 284.1 13.632C283.758 13.4187 283.353 13.216 282.884 13.024C282.436 12.832 281.913 12.704 281.316 12.64C280.782 12.576 280.452 12.6293 280.324 12.8C280.196 12.9707 280.196 13.1733 280.324 13.408C280.452 13.6213 280.686 13.8453 281.028 14.08C281.369 14.2933 281.742 14.432 282.148 14.496Z" fill="#303030"/>
</g>
<defs>
<filter id="filter0_d_22_1485" x="0.120117" y="0.159912" width="293.963" height="46.7842" filterUnits="userSpaceOnUse" color-interpolation-filters="sRGB">
<feFlood flood-opacity="0" result="BackgroundImageFix"/>
<feColorMatrix in="SourceAlpha" type="matrix" values="0 0 0 0 0 0 0 0 0 0 0 0 0 0 0 0 0 0 127 0" result="hardAlpha"/>
<feOffset dy="4"/>
<feGaussianBlur stdDeviation="2"/>
<feComposite in2="hardAlpha" operator="out"/>
<feColorMatrix type="matrix" values="0 0 0 0 0 0 0 0 0 0 0 0 0 0 0 0 0 0 0.25 0"/>
<feBlend mode="normal" in2="BackgroundImageFix" result="effect1_dropShadow_22_1485"/>
<feBlend mode="normal" in="SourceGraphic" in2="effect1_dropShadow_22_1485" result="shape"/>
</filter>
</defs>
</svg>
