<svg width="161" height="21" viewBox="0 0 161 21" fill="none" xmlns="http://www.w3.org/2000/svg">
<path d="M11.304 12.872C11.128 13 11.032 13.16 11.016 13.352C11.016 13.528 11.016 13.712 11.016 13.904V18.56C11.016 18.736 10.992 18.84 10.944 18.872C10.896 18.904 10.784 18.904 10.608 18.872C10.272 18.872 9.864 18.928 9.384 19.04C8.904 19.152 8.408 19.28 7.896 19.424C7.4 19.568 6.912 19.704 6.432 19.832C5.952 19.944 5.544 20 5.208 20C4.536 20.016 3.936 19.888 3.408 19.616C2.88 19.344 2.432 19.016 2.064 18.632C1.712 18.248 1.44 17.848 1.248 17.432C1.072 17.016 0.992 16.68 1.008 16.424C1.056 16.056 1.168 15.704 1.344 15.368C1.536 15.016 1.752 14.68 1.992 14.36C2.232 14.04 2.48 13.728 2.736 13.424C2.992 13.104 3.216 12.784 3.408 12.464C3.632 12.08 3.736 11.648 3.72 11.168C3.72 10.672 3.648 10.232 3.504 9.848C3.36 9.448 3.168 9.144 2.928 8.936C2.704 8.712 2.496 8.688 2.304 8.864C2.192 8.96 2.144 9.088 2.16 9.248C2.192 9.392 2.248 9.544 2.328 9.704C2.408 9.848 2.504 9.976 2.616 10.088C2.728 10.2 2.816 10.256 2.88 10.256C2.96 10.256 2.984 10.304 2.952 10.4C2.904 10.512 2.824 10.656 2.712 10.832C2.616 10.992 2.496 11.144 2.352 11.288C2.208 11.432 2.056 11.544 1.896 11.624C1.752 11.688 1.608 11.688 1.464 11.624C1.384 11.576 1.296 11.504 1.2 11.408C1.104 11.296 1.016 11.184 0.936 11.072C0.856 10.96 0.784 10.856 0.72 10.76C0.672 10.648 0.648 10.584 0.648 10.568C0.632 10.52 0.68 10.392 0.792 10.184C0.904 9.96 1.064 9.696 1.272 9.392C1.48 9.072 1.712 8.736 1.968 8.384C2.224 8.032 2.488 7.712 2.76 7.424C3.032 7.12 3.288 6.88 3.528 6.704C3.768 6.512 3.976 6.416 4.152 6.416C4.504 6.448 4.824 6.584 5.112 6.824C5.416 7.048 5.672 7.328 5.88 7.664C6.088 8 6.232 8.352 6.312 8.72C6.408 9.088 6.432 9.416 6.384 9.704C6.368 9.992 6.216 10.336 5.928 10.736C5.656 11.136 5.352 11.56 5.016 12.008C4.68 12.44 4.352 12.88 4.032 13.328C3.712 13.76 3.496 14.152 3.384 14.504C3.304 15.064 3.344 15.576 3.504 16.04C3.68 16.488 3.952 16.864 4.32 17.168C4.592 17.392 4.896 17.592 5.232 17.768C5.584 17.928 5.944 18.048 6.312 18.128C6.696 18.192 7.064 18.208 7.416 18.176C7.784 18.128 8.12 18.016 8.424 17.84V14.192C8.424 13.92 8.416 13.656 8.4 13.4C8.384 13.144 8.328 12.912 8.232 12.704C8.136 12.496 7.984 12.336 7.776 12.224C7.568 12.112 7.272 12.072 6.888 12.104C6.792 12.136 6.712 12.064 6.648 11.888C6.584 11.712 6.592 11.592 6.672 11.528C6.704 11.496 6.736 11.48 6.768 11.48C6.816 11.464 6.856 11.44 6.888 11.408C7.16 11.216 7.424 10.992 7.68 10.736C7.952 10.48 8.192 10.208 8.4 9.92C8.608 9.632 8.776 9.344 8.904 9.056C9.048 8.752 9.144 8.472 9.192 8.216C9.24 7.976 9.152 7.864 8.928 7.88C8.832 7.848 8.776 7.752 8.76 7.592C8.76 7.432 8.776 7.312 8.808 7.232C8.952 7.104 9.12 6.976 9.312 6.848C9.504 6.704 9.696 6.576 9.888 6.464C10.096 6.352 10.288 6.264 10.464 6.2C10.656 6.12 10.816 6.08 10.944 6.08C11.12 6.08 11.256 6.168 11.352 6.344C11.448 6.504 11.52 6.704 11.568 6.944C11.616 7.184 11.64 7.432 11.64 7.688C11.656 7.928 11.656 8.136 11.64 8.312C11.544 8.744 11.376 9.128 11.136 9.464C10.912 9.8 10.648 10.104 10.344 10.376C10.04 10.632 9.712 10.856 9.36 11.048C9.008 11.24 8.656 11.4 8.304 11.528C8.816 11.56 9.312 11.64 9.792 11.768C10.288 11.896 10.768 12.136 11.232 12.488C11.296 12.536 11.344 12.6 11.376 12.68C11.408 12.744 11.384 12.808 11.304 12.872ZM7.86581 2.072C7.80181 2.008 7.80181 1.928 7.86581 1.832C8.08981 1.624 8.34581 1.4 8.63381 1.16C8.92181 0.903999 9.22581 0.767999 9.54581 0.751999C9.91381 0.735999 10.2098 0.887999 10.4338 1.208C10.6578 1.512 10.7698 1.856 10.7698 2.24V2.912V3.056V3.728C10.7698 4.112 10.6578 4.464 10.4338 4.784C10.2098 5.088 9.91381 5.232 9.54581 5.216C9.22581 5.2 8.92181 5.064 8.63381 4.808C8.34581 4.552 8.08981 4.328 7.86581 4.136C7.80181 4.04 7.80181 3.952 7.86581 3.872C8.08981 3.728 8.20981 3.592 8.22581 3.464C8.22581 3.32 8.22581 3.128 8.22581 2.888C8.22581 2.648 8.20981 2.488 8.17781 2.408C8.14581 2.312 8.04181 2.2 7.86581 2.072ZM17.7538 13.52C17.5618 13.36 17.3698 13.368 17.1778 13.544C16.9858 13.72 16.8018 13.96 16.6258 14.264C16.4658 14.552 16.3298 14.864 16.2178 15.2C16.1218 15.52 16.0738 15.752 16.0738 15.896C16.1058 16.232 16.2338 16.544 16.4578 16.832C16.6978 17.104 16.9778 17.344 17.2978 17.552C17.6178 17.76 17.9618 17.92 18.3298 18.032C18.7138 18.144 19.0578 18.208 19.3618 18.224C19.7298 18.256 20.0978 18.248 20.4658 18.2C20.8338 18.152 21.1538 18.04 21.4258 17.864V10.016C21.1698 9.984 20.8498 9.912 20.4658 9.8C20.0818 9.688 19.6818 9.568 19.2658 9.44C18.8658 9.312 18.4578 9.184 18.0418 9.056C17.6418 8.912 17.2738 8.792 16.9378 8.696C16.4418 8.552 16.0498 8.48 15.7618 8.48C15.4738 8.464 15.2658 8.496 15.1378 8.576C15.0258 8.656 14.9858 8.76 15.0178 8.888C15.0498 9.016 15.1298 9.152 15.2578 9.296C15.4018 9.424 15.5778 9.544 15.7858 9.656C15.9938 9.768 16.2178 9.84 16.4578 9.872C16.5218 9.888 16.5378 9.936 16.5058 10.016C16.4738 10.08 16.4258 10.152 16.3618 10.232C16.3138 10.312 16.2498 10.392 16.1698 10.472C16.1058 10.552 16.0578 10.608 16.0258 10.64C15.8338 10.8 15.5938 10.92 15.3058 11C15.0178 11.064 14.7298 11.064 14.4418 11C14.1538 10.92 13.8898 10.76 13.6498 10.52C13.4098 10.28 13.2418 9.928 13.1458 9.464C13.8178 8.424 14.5298 7.696 15.2818 7.28C16.0498 6.848 16.7938 6.648 17.5138 6.68C17.8498 6.68 18.2898 6.744 18.8338 6.872C19.3778 6.984 19.9458 7.112 20.5378 7.256C21.1298 7.384 21.6978 7.504 22.2418 7.616C22.7858 7.728 23.2258 7.784 23.5618 7.784C23.7378 7.752 23.8498 7.752 23.8978 7.784C23.9458 7.816 23.9698 7.92 23.9698 8.096V18.584C23.9698 18.76 23.9458 18.864 23.8978 18.896C23.8498 18.928 23.7378 18.928 23.5618 18.896C23.2258 18.896 22.7938 18.952 22.2658 19.064C21.7378 19.176 21.1938 19.304 20.6338 19.448C20.0738 19.576 19.5298 19.704 19.0018 19.832C18.4738 19.944 18.0418 20 17.7058 20C17.1778 20.016 16.6978 19.936 16.2658 19.76C15.8338 19.584 15.4498 19.368 15.1138 19.112C14.7778 18.84 14.4898 18.544 14.2498 18.224C14.0258 17.888 13.8578 17.576 13.7458 17.288C13.6018 16.904 13.5538 16.544 13.6018 16.208C13.6338 15.904 13.7458 15.504 13.9378 15.008C14.1458 14.496 14.3938 14 14.6818 13.52C14.9698 13.04 15.2898 12.632 15.6418 12.296C15.9938 11.944 16.3378 11.784 16.6738 11.816C16.8178 11.832 16.9778 11.896 17.1538 12.008C17.3298 12.104 17.4978 12.224 17.6578 12.368C17.8338 12.512 18.0018 12.672 18.1618 12.848C18.3378 13.008 18.4978 13.168 18.6418 13.328C18.8818 13.584 19.0738 13.84 19.2178 14.096C19.3778 14.336 19.4738 14.584 19.5058 14.84C19.5378 15.096 19.4978 15.352 19.3858 15.608C19.2738 15.848 19.0738 16.096 18.7858 16.352C18.6738 16.32 18.5298 16.248 18.3538 16.136C18.1938 16.024 18.0338 15.896 17.8738 15.752C17.7298 15.608 17.5858 15.456 17.4418 15.296C17.3138 15.136 17.2258 15.008 17.1778 14.912C17.1458 14.832 17.1378 14.768 17.1538 14.72C17.1858 14.656 17.2418 14.624 17.3218 14.624C17.5618 14.448 17.7218 14.256 17.8018 14.048C17.8978 13.84 17.8818 13.664 17.7538 13.52ZM32.9239 6.68C33.2119 6.696 33.4679 6.768 33.6919 6.896C33.9319 7.008 34.1319 7.144 34.2919 7.304C34.4519 7.448 34.5799 7.584 34.6759 7.712C34.7879 7.84 34.8599 7.928 34.8919 7.976V18.584C34.8919 18.76 34.8679 18.864 34.8199 18.896C34.7719 18.928 34.6599 18.928 34.4839 18.896C34.1319 18.88 33.8119 18.936 33.5239 19.064C33.2359 19.176 32.9559 19.296 32.6839 19.424C32.3799 19.584 32.0999 19.72 31.8439 19.832C31.5879 19.944 31.2839 20 30.9319 20C30.3719 20 29.7879 19.8 29.1799 19.4C28.5879 18.984 28.0439 18.472 27.5479 17.864C27.0519 17.24 26.6519 16.568 26.3479 15.848C26.0439 15.128 25.9159 14.464 25.9639 13.856C25.9959 13.504 26.1159 13.096 26.3239 12.632C26.5479 12.168 26.7799 11.768 27.0199 11.432C27.2759 11.096 27.4919 10.896 27.6679 10.832C27.8599 10.752 27.9239 10.928 27.8599 11.36C27.7799 11.728 27.7799 12.16 27.8599 12.656C27.9559 13.152 28.1079 13.664 28.3159 14.192C28.5239 14.72 28.7799 15.24 29.0839 15.752C29.3879 16.264 29.7159 16.712 30.0679 17.096C30.4199 17.48 30.7879 17.784 31.1719 18.008C31.5719 18.216 31.9639 18.288 32.3479 18.224V9.584C32.3479 9.424 32.3159 9.288 32.2519 9.176C32.2039 9.064 32.1399 8.976 32.0599 8.912C31.9799 8.832 31.8999 8.784 31.8199 8.768C31.7399 8.736 31.6759 8.728 31.6279 8.744C31.4359 8.744 31.2919 8.808 31.1959 8.936C31.1159 9.064 31.0759 9.216 31.0759 9.392C31.0919 9.568 31.1559 9.752 31.2679 9.944C31.3799 10.12 31.5319 10.272 31.7239 10.4C31.8199 10.4 31.8519 10.44 31.8199 10.52C31.7879 10.648 31.7239 10.8 31.6279 10.976C31.5319 11.136 31.4119 11.288 31.2679 11.432C31.1399 11.576 30.9959 11.688 30.8359 11.768C30.6919 11.848 30.5479 11.856 30.4039 11.792C30.3079 11.76 30.2039 11.688 30.0919 11.576C29.9959 11.464 29.9079 11.352 29.8279 11.24C29.7639 11.112 29.7079 11 29.6599 10.904C29.6119 10.792 29.5879 10.728 29.5879 10.712C29.5719 10.664 29.6199 10.536 29.7319 10.328C29.8439 10.104 29.9879 9.848 30.1639 9.56C30.3559 9.256 30.5719 8.936 30.8119 8.6C31.0679 8.248 31.3239 7.936 31.5799 7.664C31.8359 7.376 32.0759 7.136 32.2999 6.944C32.5399 6.752 32.7479 6.664 32.9239 6.68ZM45.8858 14.12C45.7418 14.536 45.5338 15.08 45.2618 15.752C44.9898 16.408 44.6618 17.056 44.2778 17.696C43.9098 18.32 43.4858 18.864 43.0058 19.328C42.5258 19.776 42.0058 20 41.4458 20C40.7898 20.016 40.1978 19.896 39.6698 19.64C39.1578 19.368 38.7258 19.04 38.3738 18.656C38.0218 18.272 37.7578 17.88 37.5818 17.48C37.4058 17.08 37.3258 16.752 37.3418 16.496C37.3898 16.128 37.5018 15.776 37.6777 15.44C37.8538 15.104 38.0618 14.784 38.3018 14.48C38.5418 14.16 38.7818 13.848 39.0218 13.544C39.2778 13.224 39.5018 12.912 39.6938 12.608C39.9178 12.224 40.0218 11.8 40.0058 11.336C39.9898 10.856 39.9098 10.424 39.7658 10.04C39.6218 9.64 39.4378 9.336 39.2138 9.128C38.9898 8.92 38.7818 8.896 38.5898 9.056C38.4778 9.152 38.4378 9.28 38.4698 9.44C38.5018 9.584 38.5578 9.736 38.6378 9.896C38.7178 10.04 38.8138 10.168 38.9258 10.28C39.0378 10.376 39.1178 10.424 39.1658 10.424C39.2458 10.44 39.2698 10.488 39.2378 10.568C39.1898 10.68 39.1098 10.824 38.9978 11C38.9018 11.16 38.7818 11.312 38.6378 11.456C38.5098 11.6 38.3658 11.704 38.2058 11.768C38.0618 11.832 37.9178 11.832 37.7738 11.768C37.6938 11.736 37.6058 11.672 37.5098 11.576C37.4298 11.464 37.3498 11.352 37.2698 11.24C37.1898 11.128 37.1178 11.024 37.0538 10.928C37.0058 10.816 36.9818 10.752 36.9818 10.736C36.9658 10.688 37.0138 10.56 37.1258 10.352C37.2378 10.128 37.3898 9.864 37.5818 9.56C37.7898 9.256 38.0218 8.936 38.2778 8.6C38.5338 8.264 38.7898 7.952 39.0458 7.664C39.3178 7.376 39.5738 7.136 39.8138 6.944C40.0538 6.752 40.2538 6.664 40.4138 6.68C40.7658 6.696 41.0858 6.824 41.3738 7.064C41.6618 7.288 41.9098 7.568 42.1178 7.904C42.3258 8.224 42.4698 8.568 42.5498 8.936C42.6458 9.288 42.6698 9.608 42.6218 9.896C42.6058 10.168 42.4618 10.504 42.1898 10.904C41.9178 11.304 41.6138 11.72 41.2778 12.152C40.9418 12.584 40.6138 13.016 40.2938 13.448C39.9898 13.88 39.7818 14.272 39.6698 14.624C39.5898 15.024 39.6378 15.424 39.8138 15.824C39.9898 16.208 40.2298 16.552 40.5338 16.856C40.8538 17.16 41.2138 17.392 41.6138 17.552C42.0138 17.696 42.4058 17.736 42.7898 17.672C43.1098 17.608 43.3098 17.48 43.3898 17.288C43.4698 17.096 43.4858 16.856 43.4378 16.568C43.3898 16.264 43.3018 15.928 43.1738 15.56C43.0458 15.192 42.9338 14.808 42.8378 14.408C42.7578 14.008 42.7098 13.608 42.6938 13.208C42.6778 12.792 42.7578 12.392 42.9338 12.008C43.2218 11.256 43.5018 10.56 43.7738 9.92C44.0618 9.264 44.3418 8.696 44.6138 8.216C44.8858 7.736 45.1498 7.36 45.4058 7.088C45.6618 6.8 45.9018 6.64 46.1258 6.608C46.6538 6.64 47.0858 6.76 47.4218 6.968C47.7738 7.16 48.0858 7.376 48.3578 7.616C48.6298 7.856 48.8778 8.096 49.1018 8.336C49.3418 8.56 49.6138 8.728 49.9178 8.84C49.9978 8.856 50.0458 8.904 50.0618 8.984C50.0778 9.064 50.0618 9.136 50.0138 9.2C49.7898 9.328 49.6778 9.528 49.6778 9.8V16.976C49.6778 17.248 49.7098 17.488 49.7738 17.696C49.8538 17.888 50.0138 18.064 50.2538 18.224C50.3338 18.32 50.3338 18.408 50.2538 18.488C50.0138 18.712 49.8058 18.952 49.6298 19.208C49.4698 19.448 49.2458 19.656 48.9578 19.832C48.5898 20.056 48.2218 20.056 47.8538 19.832C47.7098 19.736 47.5818 19.608 47.4698 19.448C47.3738 19.288 47.2778 19.12 47.1818 18.944C47.0858 18.768 46.9898 18.592 46.8938 18.416C46.7978 18.24 46.6858 18.096 46.5578 17.984C46.4778 17.904 46.4778 17.816 46.5578 17.72C46.7978 17.56 46.9498 17.384 47.0138 17.192C47.0938 16.984 47.1338 16.752 47.1338 16.496V10.28C46.9578 10.184 46.7738 10.056 46.5818 9.896C46.4058 9.736 46.2298 9.6 46.0538 9.488C45.8938 9.376 45.7418 9.32 45.5978 9.32C45.4538 9.32 45.3338 9.424 45.2378 9.632C45.0458 9.888 44.9738 10.192 45.0218 10.544C45.0698 10.896 45.1578 11.272 45.2858 11.672C45.4138 12.072 45.5418 12.48 45.6698 12.896C45.8138 13.312 45.8858 13.72 45.8858 14.12ZM55.0247 9.872C55.0887 9.888 55.1047 9.936 55.0727 10.016C55.0407 10.08 54.9927 10.152 54.9287 10.232C54.8807 10.312 54.8167 10.392 54.7367 10.472C54.6727 10.552 54.6247 10.608 54.5927 10.64C54.4007 10.8 54.1607 10.92 53.8727 11C53.5847 11.064 53.2967 11.064 53.0087 11C52.7207 10.936 52.4567 10.784 52.2167 10.544C51.9767 10.304 51.8087 9.952 51.7127 9.488C52.3847 8.448 53.0967 7.712 53.8487 7.28C54.6167 6.848 55.3607 6.648 56.0807 6.68C56.4167 6.68 56.7367 6.744 57.0407 6.872C57.3607 6.984 57.6727 7.112 57.9767 7.256C58.2967 7.384 58.6087 7.504 58.9127 7.616C59.2327 7.728 59.5607 7.784 59.8967 7.784C60.0727 7.752 60.1847 7.752 60.2327 7.784C60.2807 7.816 60.3047 7.92 60.3047 8.096V16.496C60.3047 16.752 60.3367 16.984 60.4007 17.192C60.4807 17.384 60.6407 17.56 60.8807 17.72C60.9447 17.8 60.9447 17.888 60.8807 17.984C60.7527 18.096 60.6407 18.24 60.5447 18.416C60.4487 18.592 60.3527 18.768 60.2567 18.944C60.1607 19.12 60.0567 19.288 59.9447 19.448C59.8487 19.608 59.7287 19.736 59.5847 19.832C59.2007 20.04 58.8327 20.04 58.4807 19.832C58.1927 19.656 57.9607 19.448 57.7847 19.208C57.6247 18.952 57.4247 18.712 57.1847 18.488C57.1047 18.392 57.1047 18.304 57.1847 18.224C57.4247 18.064 57.5767 17.888 57.6407 17.696C57.7207 17.488 57.7607 17.248 57.7607 16.976V9.896C57.5847 9.864 57.3927 9.784 57.1847 9.656C56.9927 9.512 56.7607 9.368 56.4887 9.224C56.2327 9.064 55.9287 8.912 55.5767 8.768C55.2407 8.624 54.8487 8.528 54.4007 8.48C54.0007 8.432 53.7527 8.472 53.6567 8.6C53.5607 8.728 53.5607 8.88 53.6567 9.056C53.7527 9.216 53.9287 9.384 54.1847 9.56C54.4407 9.72 54.7207 9.824 55.0247 9.872ZM69.4629 6.68C69.7509 6.696 70.0069 6.768 70.2309 6.896C70.4709 7.008 70.6709 7.144 70.8309 7.304C70.9909 7.448 71.1189 7.584 71.2149 7.712C71.3269 7.84 71.3989 7.928 71.4309 7.976V18.584C71.4309 18.76 71.4069 18.864 71.3589 18.896C71.3109 18.928 71.1989 18.928 71.0229 18.896C70.6709 18.88 70.3509 18.936 70.0629 19.064C69.7749 19.176 69.4949 19.296 69.2229 19.424C68.9189 19.584 68.6389 19.72 68.3829 19.832C68.1269 19.944 67.8229 20 67.4709 20C66.9109 20 66.3269 19.8 65.7189 19.4C65.1269 18.984 64.5829 18.472 64.0869 17.864C63.5909 17.24 63.1909 16.568 62.8869 15.848C62.5829 15.128 62.4549 14.464 62.5029 13.856C62.5349 13.504 62.6549 13.096 62.8629 12.632C63.0869 12.168 63.3189 11.768 63.5589 11.432C63.8149 11.096 64.0309 10.896 64.2069 10.832C64.3989 10.752 64.4629 10.928 64.3989 11.36C64.3189 11.728 64.3189 12.16 64.3989 12.656C64.4949 13.152 64.6469 13.664 64.8549 14.192C65.0629 14.72 65.3189 15.24 65.6229 15.752C65.9269 16.264 66.2549 16.712 66.6069 17.096C66.9589 17.48 67.3269 17.784 67.7109 18.008C68.1109 18.216 68.5029 18.288 68.8869 18.224V9.584C68.8869 9.424 68.8549 9.288 68.7909 9.176C68.7429 9.064 68.6789 8.976 68.5989 8.912C68.5189 8.832 68.4389 8.784 68.3589 8.768C68.2789 8.736 68.2149 8.728 68.1669 8.744C67.9749 8.744 67.8309 8.808 67.7349 8.936C67.6549 9.064 67.6149 9.216 67.6149 9.392C67.6309 9.568 67.6949 9.752 67.8069 9.944C67.9189 10.12 68.0709 10.272 68.2629 10.4C68.3589 10.4 68.3909 10.44 68.3589 10.52C68.3269 10.648 68.2629 10.8 68.1669 10.976C68.0709 11.136 67.9509 11.288 67.8069 11.432C67.6789 11.576 67.5349 11.688 67.3749 11.768C67.2309 11.848 67.0869 11.856 66.9429 11.792C66.8469 11.76 66.7429 11.688 66.6309 11.576C66.5349 11.464 66.4469 11.352 66.3669 11.24C66.3029 11.112 66.2469 11 66.1989 10.904C66.1509 10.792 66.1269 10.728 66.1269 10.712C66.1109 10.664 66.1589 10.536 66.2709 10.328C66.3829 10.104 66.5269 9.848 66.7029 9.56C66.8949 9.256 67.1109 8.936 67.3509 8.6C67.6069 8.248 67.8629 7.936 68.1189 7.664C68.3749 7.376 68.6149 7.136 68.8389 6.944C69.0789 6.752 69.2869 6.664 69.4629 6.68ZM76.6168 12.512C76.4888 12.416 76.2808 12.304 75.9928 12.176C75.7048 12.032 75.4008 11.904 75.0808 11.792C74.7608 11.664 74.4488 11.552 74.1448 11.456C73.8408 11.36 73.6088 11.296 73.4488 11.264C73.5448 11.056 73.6488 10.816 73.7608 10.544C73.8888 10.272 74.0168 10 74.1448 9.728C74.2728 9.44 74.4008 9.168 74.5288 8.912C74.6728 8.656 74.8088 8.448 74.9368 8.288C75.3208 7.776 75.7608 7.376 76.2568 7.088C76.7688 6.784 77.3928 6.648 78.1288 6.68C78.4648 6.68 78.8728 6.744 79.3528 6.872C79.8328 6.984 80.3288 7.112 80.8408 7.256C81.3528 7.384 81.8488 7.504 82.3288 7.616C82.8088 7.728 83.2168 7.784 83.5528 7.784C83.7288 7.752 83.8408 7.752 83.8888 7.784C83.9368 7.816 83.9608 7.92 83.9608 8.096V16.496C83.9608 16.752 83.9928 16.984 84.0568 17.192C84.1368 17.384 84.2968 17.56 84.5368 17.72C84.6168 17.816 84.6168 17.904 84.5368 17.984C84.4248 18.096 84.3208 18.24 84.2248 18.416C84.1288 18.592 84.0328 18.768 83.9368 18.944C83.8408 19.12 83.7368 19.288 83.6248 19.448C83.5128 19.608 83.3848 19.736 83.2408 19.832C82.8728 20.056 82.5048 20.056 82.1368 19.832C81.8488 19.656 81.6168 19.448 81.4408 19.208C81.2808 18.952 81.0808 18.712 80.8408 18.488C80.7768 18.392 80.7768 18.304 80.8408 18.224C81.0808 18.064 81.2328 17.888 81.2968 17.696C81.3768 17.488 81.4168 17.248 81.4168 16.976V10.016C81.1608 9.984 80.8728 9.912 80.5528 9.8C80.2488 9.688 79.9288 9.568 79.5928 9.44C79.2568 9.312 78.9128 9.184 78.5608 9.056C78.2248 8.912 77.8888 8.792 77.5528 8.696C77.2488 8.6 77.0008 8.552 76.8088 8.552C76.6168 8.536 76.4488 8.576 76.3048 8.672C76.1608 8.752 76.0248 8.872 75.8968 9.032C75.7848 9.192 75.6648 9.392 75.5368 9.632C75.8088 9.696 76.0968 9.8 76.4008 9.944C76.7208 10.072 77.0248 10.208 77.3128 10.352C77.6008 10.48 77.8488 10.608 78.0568 10.736C78.2808 10.864 78.4328 10.968 78.5128 11.048C78.6088 11.144 78.6008 11.248 78.4888 11.36C78.1528 11.68 77.8648 11.968 77.6248 12.224C77.4008 12.464 77.2568 12.816 77.1928 13.28V14.504V16.496C77.1928 16.752 77.2248 16.984 77.2888 17.192C77.3688 17.384 77.5288 17.56 77.7688 17.72C77.8488 17.8 77.8568 17.888 77.7928 17.984C77.6648 18.096 77.5528 18.24 77.4568 18.416C77.3608 18.592 77.2648 18.768 77.1688 18.944C77.0728 19.12 76.9688 19.288 76.8568 19.448C76.7448 19.608 76.6168 19.736 76.4728 19.832C76.1208 20.056 75.7608 20.056 75.3928 19.832C75.1048 19.656 74.8728 19.448 74.6968 19.208C74.5368 18.952 74.3288 18.712 74.0728 18.488C74.0248 18.376 74.0248 18.288 74.0728 18.224C74.3128 18.064 74.4728 17.888 74.5528 17.696C74.6328 17.488 74.6728 17.248 74.6728 16.976V14.96C74.6728 14.64 74.7288 14.36 74.8408 14.12C74.9528 13.88 75.0968 13.664 75.2728 13.472C75.4648 13.28 75.6728 13.104 75.8968 12.944C76.1368 12.784 76.3768 12.64 76.6168 12.512ZM89.3138 9.872C89.3778 9.888 89.3938 9.936 89.3618 10.016C89.3298 10.08 89.2818 10.152 89.2178 10.232C89.1698 10.312 89.1058 10.392 89.0258 10.472C88.9618 10.552 88.9138 10.608 88.8818 10.64C88.6898 10.8 88.4498 10.92 88.1618 11C87.8738 11.064 87.5858 11.064 87.2978 11C87.0098 10.936 86.7458 10.784 86.5058 10.544C86.2658 10.304 86.0978 9.952 86.0018 9.488C86.6738 8.448 87.3858 7.712 88.1378 7.28C88.9058 6.848 89.6498 6.648 90.3698 6.68C90.7058 6.68 91.0258 6.744 91.3298 6.872C91.6498 6.984 91.9618 7.112 92.2658 7.256C92.5858 7.384 92.8978 7.504 93.2018 7.616C93.5218 7.728 93.8498 7.784 94.1858 7.784C94.3618 7.752 94.4738 7.752 94.5218 7.784C94.5698 7.816 94.5938 7.92 94.5938 8.096V16.496C94.5938 16.752 94.6258 16.984 94.6898 17.192C94.7698 17.384 94.9298 17.56 95.1698 17.72C95.2338 17.8 95.2338 17.888 95.1698 17.984C95.0418 18.096 94.9298 18.24 94.8338 18.416C94.7378 18.592 94.6418 18.768 94.5458 18.944C94.4498 19.12 94.3458 19.288 94.2338 19.448C94.1378 19.608 94.0178 19.736 93.8738 19.832C93.4898 20.04 93.1218 20.04 92.7698 19.832C92.4818 19.656 92.2498 19.448 92.0738 19.208C91.9138 18.952 91.7138 18.712 91.4738 18.488C91.3938 18.392 91.3938 18.304 91.4738 18.224C91.7138 18.064 91.8658 17.888 91.9297 17.696C92.0098 17.488 92.0498 17.248 92.0498 16.976V9.896C91.8738 9.864 91.6818 9.784 91.4738 9.656C91.2818 9.512 91.0498 9.368 90.7778 9.224C90.5218 9.064 90.2178 8.912 89.8658 8.768C89.5298 8.624 89.1378 8.528 88.6898 8.48C88.2898 8.432 88.0418 8.472 87.9458 8.6C87.8498 8.728 87.8498 8.88 87.9458 9.056C88.0418 9.216 88.2178 9.384 88.4738 9.56C88.7298 9.72 89.0098 9.824 89.3138 9.872ZM102.12 15.488V13.16C101.736 13.016 101.32 12.864 100.872 12.704C100.424 12.528 99.96 12.36 99.48 12.2C99 12.04 98.528 11.904 98.064 11.792C97.6 11.664 97.16 11.592 96.744 11.576C96.664 11.56 96.576 11.504 96.48 11.408C96.4 11.296 96.424 11.104 96.552 10.832C96.776 10.336 97.016 9.84 97.272 9.344C97.528 8.832 97.824 8.376 98.16 7.976C98.512 7.576 98.912 7.256 99.36 7.016C99.824 6.76 100.36 6.648 100.968 6.68C101.304 6.696 101.6 6.744 101.856 6.824C102.112 6.888 102.352 6.968 102.576 7.064C102.8 7.16 103.032 7.272 103.272 7.4C103.512 7.512 103.776 7.624 104.064 7.736C104.176 7.768 104.264 7.768 104.328 7.736C104.408 7.704 104.448 7.648 104.448 7.568C104.448 7.488 104.4 7.4 104.304 7.304C104.208 7.208 104.048 7.112 103.824 7.016C103.856 6.888 103.904 6.744 103.968 6.584C104.032 6.424 104.104 6.28 104.184 6.152C104.28 6.008 104.392 5.904 104.52 5.84C104.664 5.76 104.824 5.744 105 5.792C105.304 5.888 105.496 6.064 105.576 6.32C105.672 6.56 105.688 6.832 105.624 7.136C105.56 7.44 105.44 7.76 105.264 8.096C105.088 8.432 104.888 8.736 104.664 9.008C104.44 9.28 104.2 9.504 103.944 9.68C103.704 9.856 103.488 9.936 103.296 9.92C102.912 9.872 102.504 9.736 102.072 9.512C101.64 9.288 101.216 9.096 100.8 8.936C100.4 8.76 100.016 8.672 99.648 8.672C99.28 8.672 98.96 8.872 98.688 9.272C98.624 9.32 98.544 9.44 98.448 9.632C98.368 9.808 98.312 9.936 98.28 10.016C98.504 10.032 98.8 10.096 99.168 10.208C99.552 10.304 99.96 10.424 100.392 10.568C100.824 10.712 101.256 10.864 101.688 11.024C102.136 11.184 102.536 11.328 102.888 11.456C103.448 11.584 103.904 11.648 104.256 11.648C104.432 11.616 104.544 11.616 104.592 11.648C104.64 11.68 104.664 11.784 104.664 11.96V15.824C104.664 15.952 104.664 16.096 104.664 16.256C104.664 16.416 104.672 16.568 104.688 16.712C104.72 16.856 104.768 16.984 104.832 17.096C104.912 17.192 105.032 17.248 105.192 17.264C105.24 17.296 105.264 17.336 105.264 17.384C105.264 17.432 105.24 17.472 105.192 17.504C105.048 17.616 104.896 17.808 104.736 18.08C104.576 18.352 104.392 18.632 104.184 18.92C103.992 19.192 103.776 19.44 103.536 19.664C103.296 19.872 103.016 19.984 102.696 20C102.472 20.016 102.256 19.944 102.048 19.784C101.84 19.624 101.64 19.416 101.448 19.16C101.256 18.904 101.072 18.632 100.896 18.344C100.72 18.04 100.552 17.76 100.392 17.504C100.36 17.44 100.36 17.384 100.392 17.336C100.44 17.288 100.512 17.28 100.608 17.312C101.024 17.44 101.376 17.368 101.664 17.096C101.952 16.808 102.104 16.272 102.12 15.488ZM113.674 10.328C113.45 10.616 113.266 10.736 113.122 10.688C112.994 10.624 112.818 10.472 112.594 10.232C112.418 10.056 112.218 9.872 111.994 9.68C111.77 9.488 111.538 9.328 111.298 9.2C111.058 9.072 110.826 9 110.602 8.984C110.378 8.952 110.17 9.016 109.978 9.176C109.786 9.432 109.69 9.712 109.69 10.016C109.69 10.32 109.722 10.616 109.786 10.904C109.818 11.128 109.906 11.384 110.05 11.672C110.21 11.944 110.386 12.24 110.578 12.56C110.786 12.88 110.994 13.224 111.202 13.592C111.426 13.96 111.634 14.336 111.826 14.72C112.066 15.28 112.21 15.752 112.258 16.136C112.418 16.04 112.594 15.888 112.786 15.68C112.994 15.472 113.114 15.304 113.146 15.176C113.178 15.08 113.178 14.968 113.146 14.84C113.13 14.712 113.09 14.592 113.026 14.48C112.962 14.368 112.882 14.272 112.786 14.192C112.706 14.096 112.61 14.048 112.498 14.048C112.37 14.048 112.266 14.032 112.186 14C112.09 13.936 112.058 13.864 112.09 13.784C112.122 13.672 112.194 13.52 112.306 13.328C112.418 13.136 112.546 12.952 112.69 12.776C112.85 12.584 113.018 12.424 113.194 12.296C113.386 12.152 113.562 12.08 113.722 12.08C113.898 12.128 114.074 12.224 114.25 12.368C114.442 12.512 114.61 12.672 114.754 12.848C114.914 13.024 115.034 13.216 115.114 13.424C115.21 13.616 115.234 13.8 115.186 13.976C115.154 14.152 114.986 14.424 114.682 14.792C114.394 15.16 114.05 15.552 113.65 15.968C113.25 16.384 112.842 16.8 112.426 17.216C112.026 17.616 111.69 17.952 111.418 18.224C111.114 18.576 110.738 18.936 110.29 19.304C109.842 19.672 109.41 19.912 108.994 20.024C108.37 19.912 107.97 19.736 107.794 19.496C107.634 19.24 107.586 18.976 107.65 18.704C107.73 18.432 107.874 18.176 108.082 17.936C108.306 17.696 108.482 17.528 108.61 17.432C108.754 17.256 108.866 17.2 108.946 17.264C109.026 17.328 109.058 17.424 109.042 17.552C109.042 17.744 109.114 17.92 109.258 18.08C109.418 18.224 109.578 18.32 109.738 18.368C109.914 18.416 110.058 18.408 110.17 18.344C110.298 18.264 110.33 18.088 110.266 17.816C110.234 17.656 110.178 17.496 110.098 17.336C110.034 17.16 109.962 17.008 109.882 16.88C109.626 16.416 109.33 15.944 108.994 15.464C108.674 14.984 108.386 14.512 108.13 14.048C107.874 13.584 107.69 13.144 107.578 12.728C107.482 12.312 107.514 11.928 107.674 11.576C107.77 11.304 107.962 10.896 108.25 10.352C108.538 9.808 108.866 9.264 109.234 8.72C109.602 8.16 109.986 7.68 110.386 7.28C110.802 6.864 111.162 6.664 111.466 6.68C111.722 6.648 111.986 6.72 112.258 6.896C112.546 7.056 112.818 7.248 113.074 7.472C113.33 7.68 113.554 7.888 113.746 8.096C113.954 8.288 114.106 8.4 114.202 8.432C114.602 7.76 114.994 7.28 115.378 6.992C115.778 6.704 116.098 6.6 116.338 6.68C116.53 6.728 116.73 6.816 116.938 6.944C117.146 7.056 117.354 7.176 117.562 7.304C117.77 7.416 117.962 7.52 118.138 7.616C118.33 7.696 118.498 7.736 118.642 7.736C118.818 7.704 118.93 7.704 118.978 7.736C119.026 7.768 119.05 7.872 119.05 8.048V16.496C119.05 16.752 119.082 16.984 119.146 17.192C119.226 17.384 119.386 17.56 119.626 17.72C119.69 17.8 119.69 17.888 119.626 17.984C119.498 18.096 119.386 18.24 119.29 18.416C119.194 18.592 119.098 18.768 119.002 18.944C118.906 19.12 118.802 19.288 118.69 19.448C118.594 19.608 118.474 19.736 118.33 19.832C117.962 20.056 117.594 20.056 117.226 19.832C116.938 19.656 116.706 19.448 116.53 19.208C116.37 18.952 116.17 18.712 115.93 18.488C115.866 18.392 115.866 18.304 115.93 18.224C116.17 18.064 116.322 17.888 116.386 17.696C116.466 17.488 116.506 17.248 116.506 16.976V9.656C116.282 9.624 116.018 9.512 115.714 9.32C115.41 9.128 115.13 8.976 114.874 8.864C114.842 8.848 114.778 8.888 114.682 8.984C114.602 9.08 114.498 9.208 114.37 9.368C114.258 9.512 114.138 9.672 114.01 9.848C113.898 10.024 113.786 10.184 113.674 10.328ZM119.168 3.68C118.896 4.24 118.6 4.656 118.28 4.928C117.944 5.184 117.648 5.28 117.392 5.216C117.216 5.168 116.992 5.024 116.72 4.784C116.432 4.544 116.112 4.288 115.76 4.016C115.392 3.744 114.984 3.496 114.536 3.272C114.088 3.032 113.6 2.88 113.072 2.816C112.72 2.768 112.504 2.808 112.424 2.936C112.344 3.048 112.352 3.192 112.448 3.368C112.544 3.528 112.704 3.688 112.928 3.848C113.152 3.992 113.408 4.088 113.696 4.136C113.744 4.152 113.76 4.192 113.744 4.256C113.712 4.32 113.672 4.392 113.624 4.472C113.56 4.552 113.496 4.632 113.432 4.712C113.368 4.776 113.32 4.824 113.288 4.856C113.112 5.016 112.896 5.136 112.64 5.216C112.368 5.28 112.096 5.28 111.824 5.216C111.552 5.136 111.304 4.984 111.08 4.76C110.856 4.536 110.704 4.2 110.624 3.752C111.232 2.76 111.872 2.072 112.544 1.688C113.216 1.304 113.888 1.128 114.56 1.16C114.864 1.16 115.24 1.264 115.688 1.472C116.12 1.68 116.552 1.912 116.984 2.168C117.4 2.424 117.784 2.664 118.136 2.888C118.488 3.112 118.736 3.248 118.88 3.296C119.136 3.296 119.232 3.424 119.168 3.68ZM133.352 17.72C133.448 17.784 133.448 17.864 133.352 17.96C133.24 18.072 133.136 18.216 133.04 18.392C132.944 18.568 132.848 18.752 132.752 18.944C132.656 19.12 132.552 19.288 132.44 19.448C132.328 19.608 132.2 19.728 132.056 19.808C131.704 20.048 131.344 20.048 130.976 19.808C130.688 19.632 130.456 19.424 130.28 19.184C130.12 18.928 129.912 18.688 129.656 18.464C129.592 18.368 129.592 18.28 129.656 18.2C129.896 18.04 130.048 17.864 130.112 17.672C130.192 17.464 130.232 17.232 130.232 16.976V9.992C129.976 9.96 129.712 9.896 129.44 9.8C129.184 9.688 128.92 9.568 128.648 9.44C128.392 9.296 128.12 9.16 127.832 9.032C127.544 8.904 127.232 8.792 126.896 8.696C126.608 8.616 126.352 8.552 126.128 8.504C125.904 8.44 125.696 8.424 125.504 8.456C125.328 8.472 125.16 8.536 125 8.648C124.84 8.744 124.672 8.912 124.496 9.152C124.288 9.408 124.112 9.696 123.968 10.016C123.84 10.32 123.808 10.608 123.872 10.88C123.904 11.104 123.992 11.36 124.136 11.648C124.296 11.92 124.472 12.216 124.664 12.536C124.872 12.856 125.08 13.2 125.288 13.568C125.512 13.936 125.72 14.32 125.912 14.72C125.928 14.752 125.952 14.824 125.984 14.936C126.032 15.032 126.08 15.136 126.128 15.248C126.176 15.36 126.216 15.464 126.248 15.56C126.28 15.656 126.304 15.72 126.32 15.752C126.384 15.912 126.424 16.032 126.44 16.112C126.6 16 126.776 15.848 126.968 15.656C127.16 15.448 127.272 15.28 127.304 15.152C127.336 15.056 127.336 14.944 127.304 14.816C127.288 14.688 127.248 14.568 127.184 14.456C127.136 14.344 127.064 14.248 126.968 14.168C126.888 14.072 126.784 14.024 126.656 14.024C126.528 14.024 126.424 14.016 126.344 14C126.248 13.936 126.216 13.856 126.248 13.76C126.28 13.648 126.352 13.496 126.464 13.304C126.576 13.112 126.704 12.928 126.848 12.752C127.008 12.576 127.176 12.424 127.352 12.296C127.544 12.152 127.72 12.08 127.88 12.08C128.056 12.128 128.232 12.224 128.408 12.368C128.6 12.496 128.768 12.648 128.912 12.824C129.072 13 129.192 13.192 129.272 13.4C129.368 13.608 129.392 13.8 129.344 13.976C129.312 14.152 129.136 14.432 128.816 14.816C128.496 15.2 128.128 15.616 127.712 16.064C127.312 16.496 126.896 16.92 126.464 17.336C126.048 17.752 125.72 18.08 125.48 18.32C125.16 18.656 124.776 19 124.328 19.352C123.896 19.688 123.48 19.904 123.08 20C122.456 19.888 122.056 19.712 121.88 19.472C121.72 19.216 121.672 18.952 121.736 18.68C121.816 18.408 121.96 18.152 122.168 17.912C122.392 17.672 122.568 17.504 122.696 17.408C122.84 17.248 122.952 17.2 123.032 17.264C123.112 17.312 123.144 17.4 123.128 17.528C123.128 17.72 123.2 17.896 123.344 18.056C123.504 18.2 123.664 18.304 123.824 18.368C124 18.416 124.144 18.4 124.256 18.32C124.384 18.24 124.416 18.064 124.352 17.792C124.32 17.632 124.264 17.472 124.184 17.312C124.12 17.136 124.048 16.984 123.968 16.856C123.712 16.392 123.416 15.92 123.08 15.44C122.76 14.96 122.472 14.496 122.216 14.048C121.96 13.584 121.776 13.144 121.664 12.728C121.568 12.296 121.6 11.904 121.76 11.552C121.872 11.232 122.04 10.896 122.264 10.544C122.488 10.176 122.728 9.832 122.984 9.512C123.24 9.176 123.472 8.888 123.68 8.648C123.904 8.392 124.056 8.224 124.136 8.144C124.68 7.584 125.232 7.192 125.792 6.968C126.368 6.728 126.928 6.624 127.472 6.656C127.808 6.656 128.192 6.72 128.624 6.848C129.056 6.96 129.488 7.088 129.92 7.232C130.368 7.36 130.8 7.48 131.216 7.592C131.648 7.704 132.032 7.76 132.368 7.76C132.56 7.728 132.672 7.728 132.704 7.76C132.752 7.792 132.776 7.896 132.776 8.072V16.472C132.776 16.728 132.808 16.96 132.872 17.168C132.952 17.36 133.112 17.544 133.352 17.72ZM141.494 10.328C141.27 10.616 141.086 10.736 140.942 10.688C140.814 10.624 140.638 10.472 140.414 10.232C140.238 10.056 140.038 9.872 139.814 9.68C139.59 9.488 139.358 9.328 139.118 9.2C138.878 9.072 138.646 9 138.422 8.984C138.198 8.952 137.99 9.016 137.798 9.176C137.606 9.432 137.51 9.712 137.51 10.016C137.51 10.32 137.542 10.616 137.606 10.904C137.638 11.128 137.726 11.384 137.87 11.672C138.03 11.944 138.206 12.24 138.398 12.56C138.606 12.88 138.814 13.224 139.022 13.592C139.246 13.96 139.454 14.336 139.646 14.72C139.886 15.28 140.03 15.752 140.078 16.136C140.238 16.04 140.414 15.888 140.606 15.68C140.814 15.472 140.934 15.304 140.966 15.176C140.998 15.08 140.998 14.968 140.966 14.84C140.95 14.712 140.91 14.592 140.846 14.48C140.782 14.368 140.702 14.272 140.606 14.192C140.526 14.096 140.43 14.048 140.318 14.048C140.19 14.048 140.086 14.032 140.006 14C139.91 13.936 139.878 13.864 139.91 13.784C139.942 13.672 140.014 13.52 140.126 13.328C140.238 13.136 140.366 12.952 140.51 12.776C140.67 12.584 140.838 12.424 141.014 12.296C141.206 12.152 141.382 12.08 141.542 12.08C141.718 12.128 141.894 12.224 142.07 12.368C142.262 12.512 142.43 12.672 142.574 12.848C142.734 13.024 142.854 13.216 142.934 13.424C143.03 13.616 143.054 13.8 143.006 13.976C142.974 14.152 142.806 14.424 142.502 14.792C142.214 15.16 141.87 15.552 141.47 15.968C141.07 16.384 140.662 16.8 140.246 17.216C139.846 17.616 139.51 17.952 139.238 18.224C138.934 18.576 138.558 18.936 138.11 19.304C137.662 19.672 137.23 19.912 136.814 20.024C136.19 19.912 135.79 19.736 135.614 19.496C135.454 19.24 135.406 18.976 135.47 18.704C135.55 18.432 135.694 18.176 135.902 17.936C136.126 17.696 136.302 17.528 136.43 17.432C136.574 17.256 136.686 17.2 136.766 17.264C136.846 17.328 136.878 17.424 136.862 17.552C136.862 17.744 136.934 17.92 137.078 18.08C137.238 18.224 137.398 18.32 137.558 18.368C137.734 18.416 137.878 18.408 137.99 18.344C138.118 18.264 138.15 18.088 138.086 17.816C138.054 17.656 137.998 17.496 137.918 17.336C137.854 17.16 137.782 17.008 137.702 16.88C137.446 16.416 137.15 15.944 136.814 15.464C136.494 14.984 136.206 14.512 135.95 14.048C135.694 13.584 135.51 13.144 135.398 12.728C135.302 12.312 135.334 11.928 135.494 11.576C135.59 11.304 135.782 10.896 136.07 10.352C136.358 9.808 136.686 9.264 137.054 8.72C137.422 8.16 137.806 7.68 138.206 7.28C138.622 6.864 138.982 6.664 139.286 6.68C139.542 6.648 139.806 6.72 140.078 6.896C140.366 7.056 140.638 7.248 140.894 7.472C141.15 7.68 141.374 7.888 141.566 8.096C141.774 8.288 141.926 8.4 142.022 8.432C142.422 7.76 142.814 7.28 143.198 6.992C143.598 6.704 143.918 6.6 144.158 6.68C144.35 6.728 144.55 6.816 144.758 6.944C144.966 7.056 145.174 7.176 145.382 7.304C145.59 7.416 145.782 7.52 145.958 7.616C146.15 7.696 146.318 7.736 146.462 7.736C146.638 7.704 146.75 7.704 146.798 7.736C146.846 7.768 146.87 7.872 146.87 8.048V16.496C146.87 16.752 146.902 16.984 146.966 17.192C147.046 17.384 147.206 17.56 147.446 17.72C147.51 17.8 147.51 17.888 147.446 17.984C147.318 18.096 147.206 18.24 147.11 18.416C147.014 18.592 146.918 18.768 146.822 18.944C146.726 19.12 146.622 19.288 146.51 19.448C146.414 19.608 146.294 19.736 146.15 19.832C145.782 20.056 145.414 20.056 145.046 19.832C144.758 19.656 144.526 19.448 144.35 19.208C144.19 18.952 143.99 18.712 143.75 18.488C143.686 18.392 143.686 18.304 143.75 18.224C143.99 18.064 144.142 17.888 144.206 17.696C144.286 17.488 144.326 17.248 144.326 16.976V9.656C144.102 9.624 143.838 9.512 143.534 9.32C143.23 9.128 142.95 8.976 142.694 8.864C142.662 8.848 142.598 8.888 142.502 8.984C142.422 9.08 142.318 9.208 142.19 9.368C142.078 9.512 141.958 9.672 141.83 9.848C141.718 10.024 141.606 10.184 141.494 10.328ZM144.108 2.072C144.044 2.008 144.044 1.928 144.108 1.832C144.332 1.624 144.588 1.4 144.876 1.16C145.164 0.903999 145.468 0.767999 145.788 0.751999C146.156 0.735999 146.452 0.887999 146.676 1.208C146.9 1.512 147.012 1.856 147.012 2.24V2.912V3.056V3.728C147.012 4.112 146.9 4.464 146.676 4.784C146.452 5.088 146.156 5.232 145.788 5.216C145.468 5.2 145.164 5.064 144.876 4.808C144.588 4.552 144.332 4.328 144.108 4.136C144.044 4.04 144.044 3.952 144.108 3.872C144.332 3.728 144.452 3.592 144.468 3.464C144.468 3.32 144.468 3.128 144.468 2.888C144.468 2.648 144.452 2.488 144.42 2.408C144.388 2.312 144.284 2.2 144.108 2.072ZM153.996 13.52C153.804 13.36 153.612 13.368 153.42 13.544C153.228 13.72 153.044 13.96 152.868 14.264C152.708 14.552 152.572 14.864 152.46 15.2C152.364 15.52 152.316 15.752 152.316 15.896C152.348 16.232 152.476 16.544 152.7 16.832C152.94 17.104 153.22 17.344 153.54 17.552C153.86 17.76 154.204 17.92 154.572 18.032C154.956 18.144 155.3 18.208 155.604 18.224C155.972 18.256 156.34 18.248 156.708 18.2C157.076 18.152 157.396 18.04 157.668 17.864V10.016C157.412 9.984 157.092 9.912 156.708 9.8C156.324 9.688 155.924 9.568 155.508 9.44C155.108 9.312 154.7 9.184 154.284 9.056C153.884 8.912 153.516 8.792 153.18 8.696C152.684 8.552 152.292 8.48 152.004 8.48C151.716 8.464 151.508 8.496 151.38 8.576C151.268 8.656 151.228 8.76 151.26 8.888C151.292 9.016 151.372 9.152 151.5 9.296C151.644 9.424 151.82 9.544 152.028 9.656C152.236 9.768 152.46 9.84 152.7 9.872C152.764 9.888 152.78 9.936 152.748 10.016C152.716 10.08 152.668 10.152 152.604 10.232C152.556 10.312 152.492 10.392 152.412 10.472C152.348 10.552 152.3 10.608 152.268 10.64C152.076 10.8 151.836 10.92 151.548 11C151.26 11.064 150.972 11.064 150.684 11C150.396 10.92 150.132 10.76 149.892 10.52C149.652 10.28 149.484 9.928 149.388 9.464C150.06 8.424 150.772 7.696 151.524 7.28C152.292 6.848 153.036 6.648 153.756 6.68C154.092 6.68 154.532 6.744 155.076 6.872C155.62 6.984 156.188 7.112 156.78 7.256C157.372 7.384 157.94 7.504 158.484 7.616C159.028 7.728 159.468 7.784 159.804 7.784C159.98 7.752 160.092 7.752 160.14 7.784C160.188 7.816 160.212 7.92 160.212 8.096V18.584C160.212 18.76 160.188 18.864 160.14 18.896C160.092 18.928 159.98 18.928 159.804 18.896C159.468 18.896 159.036 18.952 158.508 19.064C157.98 19.176 157.436 19.304 156.876 19.448C156.316 19.576 155.772 19.704 155.244 19.832C154.716 19.944 154.284 20 153.948 20C153.42 20.016 152.94 19.936 152.508 19.76C152.076 19.584 151.692 19.368 151.356 19.112C151.02 18.84 150.732 18.544 150.492 18.224C150.268 17.888 150.1 17.576 149.988 17.288C149.844 16.904 149.796 16.544 149.844 16.208C149.876 15.904 149.988 15.504 150.18 15.008C150.388 14.496 150.636 14 150.924 13.52C151.212 13.04 151.532 12.632 151.884 12.296C152.236 11.944 152.58 11.784 152.916 11.816C153.06 11.832 153.22 11.896 153.396 12.008C153.572 12.104 153.74 12.224 153.9 12.368C154.076 12.512 154.244 12.672 154.404 12.848C154.58 13.008 154.74 13.168 154.884 13.328C155.124 13.584 155.316 13.84 155.46 14.096C155.62 14.336 155.716 14.584 155.748 14.84C155.78 15.096 155.74 15.352 155.628 15.608C155.516 15.848 155.316 16.096 155.028 16.352C154.916 16.32 154.772 16.248 154.596 16.136C154.436 16.024 154.276 15.896 154.116 15.752C153.972 15.608 153.828 15.456 153.684 15.296C153.556 15.136 153.468 15.008 153.42 14.912C153.388 14.832 153.38 14.768 153.396 14.72C153.428 14.656 153.484 14.624 153.564 14.624C153.804 14.448 153.964 14.256 154.044 14.048C154.14 13.84 154.124 13.664 153.996 13.52Z" fill="white"/>
</svg>
