<svg width="40" height="35" viewBox="0 0 40 35" fill="none" xmlns="http://www.w3.org/2000/svg">
<path d="M9.792 20.12C9.648 20.536 9.44 21.08 9.168 21.752C8.896 22.408 8.568 23.056 8.184 23.696C7.816 24.32 7.392 24.864 6.912 25.328C6.432 25.776 5.912 26 5.352 26C4.696 26.016 4.104 25.896 3.576 25.64C3.064 25.368 2.632 25.04 2.28 24.656C1.928 24.272 1.664 23.88 1.488 23.48C1.312 23.08 1.232 22.752 1.248 22.496C1.296 22.128 1.408 21.776 1.584 21.44C1.76 21.104 1.968 20.784 2.208 20.48C2.448 20.16 2.688 19.848 2.928 19.544C3.184 19.224 3.408 18.912 3.6 18.608C3.824 18.224 3.928 17.8 3.912 17.336C3.896 16.856 3.816 16.424 3.672 16.04C3.528 15.64 3.344 15.336 3.12 15.128C2.896 14.92 2.688 14.896 2.496 15.056C2.384 15.152 2.344 15.28 2.376 15.44C2.408 15.584 2.464 15.736 2.544 15.896C2.624 16.04 2.72 16.168 2.832 16.28C2.944 16.376 3.024 16.424 3.072 16.424C3.152 16.44 3.176 16.488 3.144 16.568C3.096 16.68 3.016 16.824 2.904 17C2.808 17.16 2.688 17.312 2.544 17.456C2.416 17.6 2.272 17.704 2.112 17.768C1.968 17.832 1.824 17.832 1.68 17.768C1.6 17.736 1.512 17.672 1.416 17.576C1.336 17.464 1.256 17.352 1.176 17.24C1.096 17.128 1.024 17.024 0.96 16.928C0.912 16.816 0.888 16.752 0.888 16.736C0.872 16.688 0.92 16.56 1.032 16.352C1.144 16.128 1.296 15.864 1.488 15.56C1.696 15.256 1.928 14.936 2.184 14.6C2.44 14.264 2.696 13.952 2.952 13.664C3.224 13.376 3.48 13.136 3.72 12.944C3.96 12.752 4.16 12.664 4.32 12.68C4.672 12.696 4.992 12.824 5.28 13.064C5.568 13.288 5.816 13.568 6.024 13.904C6.232 14.224 6.376 14.568 6.456 14.936C6.552 15.288 6.576 15.608 6.528 15.896C6.512 16.168 6.368 16.504 6.096 16.904C5.824 17.304 5.52 17.72 5.184 18.152C4.848 18.584 4.52 19.016 4.2 19.448C3.896 19.88 3.688 20.272 3.576 20.624C3.496 21.024 3.544 21.424 3.72 21.824C3.896 22.208 4.136 22.552 4.44 22.856C4.76 23.16 5.12 23.392 5.52 23.552C5.92 23.696 6.312 23.736 6.696 23.672C7.016 23.608 7.216 23.48 7.296 23.288C7.376 23.096 7.392 22.856 7.344 22.568C7.296 22.264 7.208 21.928 7.08 21.56C6.952 21.192 6.84 20.808 6.744 20.408C6.664 20.008 6.616 19.608 6.6 19.208C6.584 18.792 6.664 18.392 6.84 18.008C7.128 17.256 7.408 16.56 7.68 15.92C7.968 15.264 8.248 14.696 8.52 14.216C8.792 13.736 9.056 13.36 9.312 13.088C9.568 12.8 9.808 12.64 10.032 12.608C10.56 12.64 10.992 12.76 11.328 12.968C11.68 13.16 11.992 13.376 12.264 13.616C12.536 13.856 12.784 14.096 13.008 14.336C13.248 14.56 13.52 14.728 13.824 14.84C13.904 14.856 13.952 14.904 13.968 14.984C13.984 15.064 13.968 15.136 13.92 15.2C13.696 15.328 13.584 15.528 13.584 15.8V22.976C13.584 23.248 13.616 23.488 13.68 23.696C13.76 23.888 13.92 24.064 14.16 24.224C14.24 24.32 14.24 24.408 14.16 24.488C13.92 24.712 13.712 24.952 13.536 25.208C13.376 25.448 13.152 25.656 12.864 25.832C12.496 26.056 12.128 26.056 11.76 25.832C11.616 25.736 11.488 25.608 11.376 25.448C11.28 25.288 11.184 25.12 11.088 24.944C10.992 24.768 10.896 24.592 10.8 24.416C10.704 24.24 10.592 24.096 10.464 23.984C10.384 23.904 10.384 23.816 10.464 23.72C10.704 23.56 10.856 23.384 10.92 23.192C11 22.984 11.04 22.752 11.04 22.496V16.28C10.864 16.184 10.68 16.056 10.488 15.896C10.312 15.736 10.136 15.6 9.96 15.488C9.8 15.376 9.648 15.32 9.504 15.32C9.36 15.32 9.24 15.424 9.144 15.632C8.952 15.888 8.88 16.192 8.928 16.544C8.976 16.896 9.064 17.272 9.192 17.672C9.32 18.072 9.448 18.48 9.576 18.896C9.72 19.312 9.792 19.72 9.792 20.12ZM13.6989 9.656C13.4269 10.216 13.1309 10.632 12.8109 10.904C12.4749 11.176 12.1789 11.272 11.9229 11.192C11.7469 11.144 11.5229 11.008 11.2509 10.784C10.9629 10.544 10.6429 10.288 10.2909 10.016C9.92294 9.744 9.51494 9.488 9.06694 9.248C8.61894 9.008 8.13094 8.856 7.60294 8.792C7.25094 8.744 7.03494 8.784 6.95494 8.912C6.87494 9.024 6.88294 9.168 6.97894 9.344C7.07494 9.504 7.23494 9.664 7.45894 9.824C7.68294 9.968 7.93894 10.064 8.22694 10.112C8.27494 10.128 8.29094 10.168 8.27494 10.232C8.24294 10.296 8.20294 10.368 8.15494 10.448C8.09094 10.528 8.02694 10.608 7.96294 10.688C7.89894 10.752 7.85094 10.8 7.81894 10.832C7.64294 10.992 7.42694 11.112 7.17094 11.192C6.89894 11.256 6.62694 11.256 6.35494 11.192C6.08294 11.112 5.83494 10.96 5.61094 10.736C5.38694 10.512 5.23494 10.176 5.15494 9.728C5.76294 8.752 6.40294 8.072 7.07494 7.688C7.74694 7.288 8.41894 7.104 9.09094 7.136C9.36294 7.136 9.72294 7.248 10.1709 7.472C10.6029 7.68 10.9709 7.936 11.2749 8.24V7.76C11.2749 7.376 11.3869 7.032 11.6109 6.728C11.8349 6.408 12.1309 6.256 12.4989 6.272C12.8189 6.288 13.1069 6.424 13.3629 6.68C13.6029 6.92 13.8349 7.144 14.0589 7.352C14.1229 7.416 14.1229 7.496 14.0589 7.592C13.9629 7.656 13.8989 7.712 13.8669 7.76C13.8189 7.808 13.7869 7.864 13.7709 7.928C13.7389 7.992 13.7229 8.072 13.7229 8.168C13.7229 8.264 13.7229 8.392 13.7229 8.552V9.512C13.7229 9.544 13.7229 9.568 13.7229 9.584C13.7069 9.6 13.6989 9.624 13.6989 9.656ZM10.8189 1.856C10.7709 1.792 10.7709 1.704 10.8189 1.592C11.0429 1.4 11.2989 1.184 11.5869 0.943999C11.8749 0.687999 12.1789 0.551998 12.4989 0.535997C12.8669 0.519999 13.1629 0.671999 13.3869 0.991999C13.6109 1.296 13.7229 1.64 13.7229 2.024V2.696V2.816V3.488C13.7229 3.872 13.6109 4.224 13.3869 4.544C13.1469 4.848 12.8509 4.992 12.4989 4.976C12.1789 4.96 11.8749 4.832 11.5869 4.592C11.2989 4.336 11.0429 4.112 10.8189 3.92C10.7549 3.824 10.7549 3.736 10.8189 3.656C11.0429 3.512 11.1629 3.376 11.1789 3.248C11.1789 3.104 11.1789 2.912 11.1789 2.672C11.1789 2.432 11.1629 2.272 11.1309 2.192C11.0989 2.096 10.9949 1.984 10.8189 1.856ZM20.7069 19.52C20.5149 19.36 20.3229 19.368 20.1309 19.544C19.9389 19.72 19.7549 19.96 19.5789 20.264C19.4189 20.552 19.2829 20.864 19.1709 21.2C19.0749 21.52 19.0269 21.752 19.0269 21.896C19.0589 22.232 19.1869 22.544 19.4109 22.832C19.6509 23.104 19.9309 23.344 20.2509 23.552C20.5709 23.76 20.9149 23.92 21.2829 24.032C21.6669 24.144 22.0109 24.208 22.3149 24.224C22.6829 24.256 23.0509 24.248 23.4189 24.2C23.7869 24.152 24.1069 24.04 24.3789 23.864V16.016C24.1229 15.984 23.8029 15.912 23.4189 15.8C23.0349 15.688 22.6349 15.568 22.2189 15.44C21.8189 15.312 21.4109 15.184 20.9949 15.056C20.5949 14.912 20.2269 14.792 19.8909 14.696C19.3949 14.552 19.0029 14.48 18.7149 14.48C18.4269 14.464 18.2189 14.496 18.0909 14.576C17.9789 14.656 17.9389 14.76 17.9709 14.888C18.0029 15.016 18.0829 15.152 18.2109 15.296C18.3549 15.424 18.5309 15.544 18.7389 15.656C18.9469 15.768 19.1709 15.84 19.4109 15.872C19.4749 15.888 19.4909 15.936 19.4589 16.016C19.4269 16.08 19.3789 16.152 19.3149 16.232C19.2669 16.312 19.2029 16.392 19.1229 16.472C19.0589 16.552 19.0109 16.608 18.9789 16.64C18.7869 16.8 18.5469 16.92 18.2589 17C17.9709 17.064 17.6829 17.064 17.3949 17C17.1069 16.92 16.8429 16.76 16.6029 16.52C16.3629 16.28 16.1949 15.928 16.0989 15.464C16.7709 14.424 17.4829 13.696 18.2349 13.28C19.0029 12.848 19.7469 12.648 20.4669 12.68C20.8029 12.68 21.2429 12.744 21.7869 12.872C22.3309 12.984 22.8989 13.112 23.4909 13.256C24.0829 13.384 24.6509 13.504 25.1949 13.616C25.7389 13.728 26.1789 13.784 26.5149 13.784C26.6909 13.752 26.8029 13.752 26.8509 13.784C26.8989 13.816 26.9229 13.92 26.9229 14.096V24.584C26.9229 24.76 26.8989 24.864 26.8509 24.896C26.8029 24.928 26.6909 24.928 26.5149 24.896C26.1789 24.896 25.7469 24.952 25.2189 25.064C24.6909 25.176 24.1469 25.304 23.5869 25.448C23.0269 25.576 22.4829 25.704 21.9549 25.832C21.4269 25.944 20.9949 26 20.6589 26C20.1309 26.016 19.6509 25.936 19.2189 25.76C18.7869 25.584 18.4029 25.368 18.0669 25.112C17.7309 24.84 17.4429 24.544 17.2029 24.224C16.9789 23.888 16.8109 23.576 16.6989 23.288C16.5549 22.904 16.5069 22.544 16.5549 22.208C16.5869 21.904 16.6989 21.504 16.8909 21.008C17.0989 20.496 17.3469 20 17.6349 19.52C17.9229 19.04 18.2429 18.632 18.5949 18.296C18.9469 17.944 19.2909 17.784 19.6269 17.816C19.7709 17.832 19.9309 17.896 20.1069 18.008C20.2829 18.104 20.4509 18.224 20.6109 18.368C20.7869 18.512 20.9549 18.672 21.1149 18.848C21.2909 19.008 21.4509 19.168 21.5949 19.328C21.8349 19.584 22.0269 19.84 22.1709 20.096C22.3309 20.336 22.4269 20.584 22.4589 20.84C22.4909 21.096 22.4509 21.352 22.3389 21.608C22.2269 21.848 22.0269 22.096 21.7389 22.352C21.6269 22.32 21.4829 22.248 21.3069 22.136C21.1469 22.024 20.9869 21.896 20.8269 21.752C20.6829 21.608 20.5389 21.456 20.3949 21.296C20.2669 21.136 20.1789 21.008 20.1309 20.912C20.0989 20.832 20.0909 20.768 20.1069 20.72C20.1389 20.656 20.1949 20.624 20.2749 20.624C20.5149 20.448 20.6749 20.256 20.7549 20.048C20.8509 19.84 20.8349 19.664 20.7069 19.52ZM29.061 18.056C29.061 17.688 29.101 17.296 29.181 16.88C29.261 16.448 29.373 16.024 29.517 15.608C29.661 15.192 29.837 14.792 30.045 14.408C30.269 14.024 30.509 13.696 30.765 13.424C30.973 13.2 31.189 13.024 31.413 12.896C31.653 12.768 31.893 12.696 32.133 12.68C32.309 12.664 32.509 12.752 32.733 12.944C32.973 13.136 33.221 13.376 33.477 13.664C33.733 13.936 33.981 14.248 34.221 14.6C34.477 14.936 34.701 15.256 34.893 15.56C35.085 15.848 35.237 16.104 35.349 16.328C35.461 16.552 35.501 16.68 35.469 16.712C35.469 16.728 35.445 16.792 35.397 16.904C35.349 17 35.285 17.112 35.205 17.24C35.141 17.352 35.061 17.464 34.965 17.576C34.869 17.688 34.765 17.76 34.653 17.792C34.509 17.856 34.349 17.848 34.173 17.768C34.013 17.672 33.853 17.544 33.693 17.384C33.533 17.224 33.389 17.048 33.261 16.856C33.133 16.664 33.053 16.512 33.021 16.4C32.989 16.32 33.021 16.272 33.117 16.256C33.421 16.08 33.613 15.864 33.693 15.608C33.789 15.352 33.773 15.136 33.645 14.96C33.485 14.752 33.325 14.656 33.165 14.672C33.021 14.688 32.885 14.752 32.757 14.864C32.613 15.008 32.461 15.256 32.301 15.608C32.141 15.944 31.997 16.304 31.869 16.688C31.741 17.072 31.637 17.432 31.557 17.768C31.493 18.104 31.461 18.328 31.461 18.44C31.493 18.744 31.549 18.96 31.629 19.088C31.725 19.216 31.845 19.288 31.989 19.304C32.133 19.32 32.293 19.304 32.469 19.256C32.645 19.208 32.829 19.176 33.021 19.16C33.101 19.16 33.157 19.216 33.189 19.328C33.221 19.44 33.213 19.512 33.165 19.544C33.085 19.704 32.981 19.888 32.853 20.096C32.725 20.288 32.597 20.488 32.469 20.696C32.357 20.888 32.261 21.08 32.181 21.272C32.101 21.464 32.069 21.632 32.085 21.776C32.117 22.112 32.229 22.424 32.421 22.712C32.629 23 32.885 23.256 33.189 23.48C33.493 23.688 33.829 23.864 34.197 24.008C34.581 24.136 34.957 24.2 35.325 24.2C35.869 24.232 36.349 24.104 36.765 23.816V15.68C36.765 15.424 36.725 15.2 36.645 15.008C36.581 14.8 36.429 14.616 36.189 14.456C36.109 14.36 36.109 14.272 36.189 14.192C36.429 13.968 36.629 13.736 36.789 13.496C36.965 13.24 37.197 13.024 37.485 12.848C37.853 12.608 38.221 12.608 38.589 12.848C38.733 12.928 38.853 13.048 38.949 13.208C39.061 13.368 39.165 13.544 39.261 13.736C39.357 13.912 39.453 14.088 39.549 14.264C39.645 14.44 39.757 14.584 39.885 14.696C39.949 14.792 39.949 14.872 39.885 14.936C39.645 15.112 39.485 15.296 39.405 15.488C39.341 15.68 39.309 15.912 39.309 16.184V24.584C39.309 24.76 39.285 24.864 39.237 24.896C39.189 24.928 39.077 24.928 38.901 24.896C38.565 24.896 38.157 24.952 37.677 25.064C37.197 25.176 36.701 25.304 36.189 25.448C35.677 25.576 35.181 25.704 34.701 25.832C34.221 25.944 33.813 26 33.477 26C33.125 26.016 32.741 25.984 32.325 25.904C31.909 25.808 31.517 25.648 31.149 25.424C30.797 25.2 30.485 24.904 30.213 24.536C29.957 24.168 29.789 23.72 29.709 23.192C29.773 22.824 29.981 22.352 30.333 21.776C30.685 21.184 31.093 20.632 31.557 20.12C31.301 20.168 31.021 20.144 30.717 20.048C30.413 19.936 30.133 19.784 29.877 19.592C29.637 19.4 29.437 19.168 29.277 18.896C29.117 18.624 29.045 18.344 29.061 18.056ZM37.2253 32.192V29.72C37.2253 29.496 37.1933 29.296 37.1293 29.12C37.0653 28.944 36.9293 28.792 36.7213 28.664C36.6413 28.6 36.6413 28.528 36.7213 28.448C36.9453 28.256 37.1293 28.048 37.2733 27.824C37.4013 27.616 37.5933 27.432 37.8493 27.272C38.1533 27.08 38.4653 27.08 38.7853 27.272C38.8973 27.352 39.0013 27.456 39.0973 27.584C39.1933 27.728 39.2813 27.88 39.3613 28.04C39.4413 28.2 39.5293 28.352 39.6253 28.496C39.7053 28.64 39.7933 28.76 39.8893 28.856C39.9533 28.936 39.9533 29.008 39.8893 29.072C39.6813 29.216 39.5453 29.376 39.4813 29.552C39.4173 29.728 39.3853 29.928 39.3853 30.152V33.056C39.3853 33.216 39.3693 33.304 39.3373 33.32C39.3053 33.352 39.2093 33.352 39.0493 33.32C38.7293 33.32 38.4413 33.376 38.1853 33.488C37.9293 33.616 37.6733 33.744 37.4173 33.872C37.0013 34.096 36.5693 34.192 36.1213 34.16C35.6573 34.144 35.2333 34.048 34.8493 33.872C34.4493 33.696 34.1133 33.448 33.8413 33.128C33.5533 32.824 33.3613 32.48 33.2653 32.096C33.5533 31.808 33.8493 31.512 34.1533 31.208C34.4413 30.904 34.6973 30.552 34.9213 30.152C34.8893 29.944 34.8013 29.76 34.6573 29.6C34.5133 29.44 34.3533 29.32 34.1773 29.24C34.0013 29.16 33.8333 29.112 33.6733 29.096C33.4973 29.08 33.3613 29.112 33.2653 29.192C33.1693 29.272 33.1293 29.376 33.1453 29.504C33.1613 29.648 33.2093 29.784 33.2893 29.912C33.3533 30.04 33.4333 30.144 33.5293 30.224C33.6253 30.32 33.6973 30.368 33.7453 30.368C33.8253 30.368 33.8493 30.408 33.8173 30.488C33.7853 30.584 33.7213 30.704 33.6253 30.848C33.5293 30.992 33.4253 31.12 33.3133 31.232C33.1853 31.36 33.0573 31.456 32.9293 31.52C32.8013 31.584 32.6813 31.584 32.5693 31.52C32.5053 31.488 32.4333 31.424 32.3533 31.328C32.2733 31.232 32.2013 31.136 32.1373 31.04C32.0573 30.944 31.9933 30.856 31.9453 30.776C31.8973 30.696 31.8733 30.648 31.8733 30.632C31.8573 30.6 31.8893 30.488 31.9693 30.296C32.0493 30.12 32.1693 29.896 32.3293 29.624C32.4733 29.368 32.6413 29.088 32.8333 28.784C33.0093 28.496 33.2013 28.224 33.4093 27.968C33.6013 27.728 33.7933 27.52 33.9853 27.344C34.1613 27.184 34.3213 27.112 34.4653 27.128C34.7533 27.144 35.0253 27.248 35.2813 27.44C35.5213 27.632 35.7293 27.856 35.9053 28.112C36.0813 28.384 36.2093 28.672 36.2893 28.976C36.3693 29.28 36.4013 29.56 36.3853 29.816C36.3373 29.848 36.2573 29.92 36.1453 30.032C36.0173 30.144 35.8893 30.256 35.7613 30.368C35.6333 30.496 35.5133 30.616 35.4013 30.728C35.2893 30.84 35.2253 30.92 35.2093 30.968C35.1133 31.176 35.1373 31.36 35.2813 31.52C35.4093 31.68 35.5933 31.808 35.8333 31.904C36.0733 32.016 36.3293 32.096 36.6013 32.144C36.8733 32.192 37.0813 32.208 37.2253 32.192ZM36.5533 8.072C36.4893 8.008 36.4893 7.928 36.5533 7.832C36.7773 7.624 37.0333 7.4 37.3213 7.16C37.6093 6.904 37.9133 6.768 38.2333 6.752C38.6013 6.736 38.8973 6.888 39.1213 7.208C39.3453 7.512 39.4573 7.856 39.4573 8.24V8.912V9.056V9.728C39.4573 10.112 39.3453 10.464 39.1213 10.784C38.8973 11.088 38.6013 11.232 38.2333 11.216C37.9133 11.2 37.6093 11.064 37.3213 10.808C37.0333 10.552 36.7773 10.328 36.5533 10.136C36.4893 10.04 36.4893 9.952 36.5533 9.872C36.7773 9.728 36.8973 9.592 36.9133 9.464C36.9133 9.32 36.9133 9.128 36.9133 8.888C36.9133 8.648 36.8973 8.488 36.8653 8.408C36.8333 8.312 36.7293 8.2 36.5533 8.072Z" fill="white"/>
</svg>
