<svg width="144" height="30" viewBox="0 0 144 30" fill="none" xmlns="http://www.w3.org/2000/svg">
<g filter="url(#filter0_d_22_1312)">
<path d="M16.72 5.448C16.48 5.624 16.32 5.808 16.24 6C16.176 6.192 16.144 6.424 16.144 6.696V19.584C16.144 19.76 16.12 19.864 16.072 19.896C16.024 19.928 15.912 19.928 15.736 19.896C15.4 19.896 14.984 19.952 14.488 20.064C13.992 20.176 13.472 20.304 12.928 20.448C12.4 20.576 11.888 20.704 11.392 20.832C10.896 20.944 10.48 21 10.144 21C9.488 21.016 8.856 20.896 8.248 20.64C7.64 20.368 7.104 20.04 6.64 19.656C6.176 19.272 5.808 18.88 5.536 18.48C5.28 18.08 5.16 17.752 5.176 17.496C5.224 17.128 5.336 16.776 5.512 16.44C5.688 16.104 5.896 15.784 6.136 15.48C6.376 15.16 6.616 14.848 6.856 14.544C7.112 14.224 7.336 13.912 7.528 13.608C7.752 13.224 7.856 12.8 7.84 12.336C7.824 11.856 7.744 11.424 7.6 11.04C7.456 10.64 7.272 10.336 7.048 10.128C6.824 9.92 6.616 9.896 6.424 10.056C6.312 10.152 6.272 10.28 6.304 10.44C6.336 10.584 6.392 10.736 6.472 10.896C6.552 11.04 6.648 11.168 6.76 11.28C6.872 11.376 6.952 11.424 7 11.424C7.08 11.44 7.104 11.488 7.072 11.568C7.024 11.68 6.944 11.824 6.832 12C6.736 12.16 6.616 12.312 6.472 12.456C6.344 12.584 6.2 12.688 6.04 12.768C5.896 12.832 5.752 12.832 5.608 12.768C5.528 12.736 5.44 12.672 5.344 12.576C5.264 12.464 5.184 12.352 5.104 12.24C5.024 12.128 4.952 12.024 4.888 11.928C4.84 11.816 4.816 11.752 4.816 11.736C4.8 11.688 4.848 11.56 4.96 11.352C5.072 11.128 5.224 10.864 5.416 10.56C5.624 10.256 5.856 9.936 6.112 9.6C6.368 9.264 6.624 8.952 6.88 8.664C7.152 8.376 7.408 8.136 7.648 7.944C7.888 7.752 8.088 7.664 8.248 7.68C8.6 7.696 8.92 7.824 9.208 8.064C9.496 8.288 9.744 8.568 9.952 8.904C10.16 9.224 10.304 9.568 10.384 9.936C10.48 10.288 10.504 10.608 10.456 10.896C10.44 11.168 10.296 11.504 10.024 11.904C9.752 12.304 9.448 12.72 9.112 13.152C8.776 13.584 8.448 14.016 8.128 14.448C7.824 14.88 7.616 15.272 7.504 15.624C7.456 16.008 7.536 16.392 7.744 16.776C7.952 17.144 8.232 17.488 8.584 17.808C8.952 18.128 9.368 18.408 9.832 18.648C10.296 18.888 10.76 19.064 11.224 19.176C11.704 19.288 12.152 19.328 12.568 19.296C12.984 19.248 13.328 19.104 13.6 18.864V6.192C13.6 5.936 13.56 5.712 13.48 5.52C13.416 5.312 13.264 5.128 13.024 4.968C12.944 4.872 12.944 4.784 13.024 4.704C13.264 4.48 13.464 4.248 13.624 4.008C13.8 3.752 14.032 3.536 14.32 3.36C14.688 3.12 15.056 3.12 15.424 3.36C15.568 3.44 15.696 3.56 15.808 3.72C15.92 3.88 16.024 4.056 16.12 4.248C16.216 4.424 16.312 4.6 16.408 4.776C16.504 4.952 16.608 5.096 16.72 5.208C16.8 5.288 16.8 5.368 16.72 5.448ZM21.5481 10.872C21.6121 10.888 21.6281 10.936 21.5961 11.016C21.5641 11.08 21.5161 11.152 21.4521 11.232C21.4041 11.312 21.3401 11.392 21.2601 11.472C21.1961 11.552 21.1481 11.608 21.1161 11.64C20.9241 11.8 20.6841 11.92 20.3961 12C20.1081 12.064 19.8201 12.064 19.5321 12C19.2441 11.936 18.9801 11.784 18.7401 11.544C18.5001 11.304 18.3321 10.952 18.2361 10.488C18.9081 9.448 19.6201 8.712 20.3721 8.28C21.1401 7.848 21.8841 7.648 22.6041 7.68C22.9401 7.68 23.2601 7.744 23.5641 7.872C23.8841 7.984 24.1961 8.112 24.5001 8.256C24.8201 8.384 25.1321 8.504 25.4361 8.616C25.7561 8.728 26.0841 8.784 26.4201 8.784C26.5961 8.752 26.7081 8.752 26.7561 8.784C26.8041 8.816 26.8281 8.92 26.8281 9.096V17.496C26.8281 17.752 26.8601 17.984 26.9241 18.192C27.0041 18.384 27.1641 18.56 27.4041 18.72C27.4681 18.8 27.4681 18.888 27.4041 18.984C27.2761 19.096 27.1641 19.24 27.0681 19.416C26.9721 19.592 26.8761 19.768 26.7801 19.944C26.6841 20.12 26.5801 20.288 26.4681 20.448C26.3721 20.608 26.2521 20.736 26.1081 20.832C25.7241 21.04 25.3561 21.04 25.0041 20.832C24.7161 20.656 24.4841 20.448 24.3081 20.208C24.1481 19.952 23.9481 19.712 23.7081 19.488C23.6281 19.392 23.6281 19.304 23.7081 19.224C23.9481 19.064 24.1001 18.888 24.1641 18.696C24.2441 18.488 24.2841 18.248 24.2841 17.976V10.896C24.1081 10.864 23.9161 10.784 23.7081 10.656C23.5161 10.512 23.2841 10.368 23.0121 10.224C22.7561 10.064 22.4521 9.912 22.1001 9.768C21.7641 9.624 21.3721 9.528 20.9241 9.48C20.5241 9.432 20.2761 9.472 20.1801 9.6C20.0841 9.728 20.0841 9.88 20.1801 10.056C20.2761 10.216 20.4521 10.384 20.7081 10.56C20.9641 10.72 21.2441 10.824 21.5481 10.872ZM32.4344 10.872C32.4984 10.888 32.5144 10.936 32.4824 11.016C32.4504 11.08 32.4024 11.152 32.3384 11.232C32.2904 11.312 32.2264 11.392 32.1464 11.472C32.0824 11.552 32.0344 11.608 32.0024 11.64C31.8104 11.8 31.5704 11.92 31.2824 12C30.9944 12.064 30.7064 12.064 30.4184 12C30.1304 11.92 29.8664 11.76 29.6264 11.52C29.3864 11.28 29.2184 10.928 29.1224 10.464C29.7944 9.424 30.5064 8.696 31.2584 8.28C32.0264 7.848 32.7704 7.648 33.4904 7.68C33.8424 7.68 34.3144 7.744 34.9064 7.872C35.4984 8 36.1064 8.136 36.7304 8.28C37.1784 8.264 37.6344 8.184 38.0984 8.04C38.5784 7.88 39.0184 7.688 39.4184 7.464C39.8344 7.24 40.1864 6.992 40.4744 6.72C40.7624 6.448 40.9384 6.184 41.0024 5.928C41.0504 5.768 40.9624 5.688 40.7384 5.688C40.6424 5.672 40.5864 5.608 40.5704 5.496C40.5704 5.384 40.5864 5.304 40.6184 5.256C40.7624 5.16 40.9224 5.064 41.0984 4.968C41.2904 4.872 41.4824 4.784 41.6744 4.704C41.8824 4.624 42.0744 4.56 42.2504 4.512C42.4424 4.448 42.6024 4.416 42.7304 4.416C42.8904 4.416 43.0184 4.48 43.1144 4.608C43.2104 4.736 43.2824 4.888 43.3304 5.064C43.3784 5.224 43.4024 5.392 43.4024 5.568C43.4184 5.744 43.4184 5.888 43.4024 6C43.2584 6.48 42.9784 6.896 42.5624 7.248C42.1464 7.584 41.6744 7.864 41.1464 8.088C40.6184 8.312 40.0744 8.488 39.5144 8.616C38.9544 8.728 38.4584 8.8 38.0264 8.832C38.1224 8.864 38.2024 8.88 38.2664 8.88C38.5224 8.928 38.7544 8.968 38.9624 9C39.1704 9.032 39.3624 9.04 39.5384 9.024C39.7144 8.992 39.8264 9 39.8744 9.048C39.9224 9.08 39.9464 9.184 39.9464 9.36V17.496C39.9464 17.752 39.9784 17.984 40.0424 18.192C40.1224 18.384 40.2824 18.56 40.5224 18.72C40.5864 18.8 40.5864 18.888 40.5224 18.984C40.3944 19.096 40.2824 19.24 40.1864 19.416C40.0904 19.592 39.9944 19.768 39.8984 19.944C39.8024 20.12 39.6984 20.288 39.5864 20.448C39.4904 20.608 39.3704 20.736 39.2264 20.832C38.8424 21.04 38.4744 21.04 38.1224 20.832C37.8344 20.656 37.6024 20.448 37.4264 20.208C37.2664 19.952 37.0664 19.712 36.8264 19.488C36.7464 19.392 36.7464 19.304 36.8264 19.224C37.0184 19.096 37.1544 18.952 37.2344 18.792C37.3144 18.632 37.3624 18.456 37.3784 18.264C37.3464 17.96 37.2104 17.648 36.9704 17.328C36.7464 17.008 36.4584 16.688 36.1064 16.368C35.7704 16.048 35.3944 15.752 34.9784 15.48C34.5784 15.192 34.1864 14.944 33.8024 14.736C33.4344 14.528 33.0984 14.368 32.7944 14.256C32.4904 14.128 32.2744 14.072 32.1464 14.088C31.8104 14.264 31.6024 14.584 31.5224 15.048C31.4584 15.512 31.4744 16.008 31.5704 16.536C31.6824 17.048 31.8504 17.544 32.0744 18.024C32.3144 18.488 32.5544 18.824 32.7944 19.032C33.0824 19.272 33.2904 19.376 33.4184 19.344C33.5464 19.296 33.6104 19.192 33.6104 19.032C33.6264 18.872 33.5784 18.704 33.4664 18.528C33.3704 18.336 33.2344 18.208 33.0584 18.144C32.9784 18.144 32.9224 18.112 32.8904 18.048C32.8744 17.984 32.8824 17.92 32.9144 17.856C32.9624 17.76 33.0504 17.632 33.1784 17.472C33.3224 17.312 33.4744 17.16 33.6344 17.016C33.7944 16.872 33.9544 16.744 34.1144 16.632C34.2744 16.504 34.4104 16.432 34.5224 16.416C35.1144 16.912 35.3544 17.416 35.2424 17.928C35.1464 18.424 34.8584 18.928 34.3784 19.44C34.2344 19.584 34.0744 19.744 33.8984 19.92C33.7224 20.096 33.5384 20.264 33.3464 20.424C33.1704 20.568 32.9864 20.696 32.7944 20.808C32.6184 20.904 32.4504 20.96 32.2904 20.976C31.8424 21.024 31.4344 20.928 31.0664 20.688C30.6984 20.448 30.3864 20.144 30.1304 19.776C29.8744 19.392 29.6744 18.968 29.5304 18.504C29.4024 18.04 29.3544 17.608 29.3864 17.208C29.7384 16.072 30.2104 15.088 30.8024 14.256C31.3944 13.424 32.1624 12.792 33.1064 12.36C33.3144 12.328 33.5944 12.368 33.9464 12.48C34.2984 12.576 34.6744 12.72 35.0744 12.912C35.4904 13.104 35.9064 13.328 36.3224 13.584C36.7384 13.84 37.0984 14.104 37.4024 14.376V11.016C37.1464 10.984 36.8264 10.912 36.4424 10.8C36.0584 10.688 35.6584 10.568 35.2424 10.44C34.8424 10.312 34.4344 10.184 34.0184 10.056C33.6184 9.912 33.2504 9.792 32.9144 9.696C32.4184 9.552 32.0264 9.48 31.7384 9.48C31.4504 9.464 31.2424 9.496 31.1144 9.576C31.0024 9.656 30.9624 9.76 30.9944 9.888C31.0264 10.016 31.1064 10.152 31.2344 10.296C31.3784 10.424 31.5544 10.544 31.7624 10.656C31.9704 10.768 32.1944 10.84 32.4344 10.872ZM47.716 9.696C47.428 9.616 47.172 9.552 46.948 9.504C46.724 9.456 46.516 9.448 46.324 9.48C46.148 9.496 45.98 9.56 45.82 9.672C45.66 9.768 45.492 9.936 45.316 10.176C45.108 10.432 44.932 10.712 44.788 11.016C44.66 11.32 44.628 11.616 44.692 11.904C44.724 12.128 44.812 12.384 44.956 12.672C45.116 12.944 45.292 13.24 45.484 13.56C45.692 13.88 45.9 14.224 46.108 14.592C46.332 14.96 46.54 15.336 46.732 15.72C46.764 15.768 46.78 15.816 46.78 15.864C46.796 15.896 46.82 15.936 46.852 15.984C46.932 15.776 47.028 15.552 47.14 15.312C47.268 15.072 47.396 14.848 47.524 14.64C47.668 14.416 47.804 14.224 47.932 14.064C48.076 13.904 48.204 13.8 48.316 13.752C48.492 13.688 48.676 13.704 48.868 13.8C49.076 13.88 49.276 14 49.468 14.16C49.676 14.32 49.86 14.504 50.02 14.712C50.18 14.904 50.3 15.088 50.38 15.264C50.396 15.44 50.348 15.624 50.236 15.816C50.14 15.992 50.012 16.16 49.852 16.32C49.708 16.48 49.548 16.624 49.372 16.752C49.212 16.864 49.076 16.944 48.964 16.992C48.884 17.056 48.812 17.04 48.748 16.944C48.732 16.8 48.676 16.64 48.58 16.464C48.5 16.288 48.396 16.144 48.268 16.032C48.156 15.92 48.036 15.864 47.908 15.864C47.78 15.864 47.66 15.96 47.548 16.152C47.5 16.248 47.436 16.416 47.356 16.656C47.292 16.896 47.236 17.12 47.188 17.328C47.204 17.904 46.98 18.472 46.516 19.032C46.372 19.208 46.196 19.4 45.988 19.608C45.78 19.816 45.556 20.016 45.316 20.208C45.092 20.4 44.852 20.576 44.596 20.736C44.356 20.88 44.124 20.976 43.9 21.024C43.276 20.912 42.876 20.736 42.7 20.496C42.54 20.24 42.492 19.976 42.556 19.704C42.636 19.432 42.78 19.176 42.988 18.936C43.212 18.696 43.388 18.528 43.516 18.432C43.66 18.256 43.772 18.2 43.852 18.264C43.932 18.328 43.964 18.424 43.948 18.552C43.948 18.744 44.02 18.92 44.164 19.08C44.324 19.224 44.484 19.32 44.644 19.368C44.82 19.416 44.964 19.408 45.076 19.344C45.204 19.264 45.236 19.088 45.172 18.816C45.14 18.656 45.084 18.496 45.004 18.336C44.94 18.16 44.868 18.008 44.788 17.88C44.532 17.416 44.236 16.944 43.9 16.464C43.58 15.984 43.292 15.512 43.036 15.048C42.78 14.584 42.596 14.144 42.484 13.728C42.388 13.312 42.42 12.928 42.58 12.576C42.692 12.256 42.86 11.92 43.084 11.568C43.308 11.2 43.548 10.856 43.804 10.536C44.06 10.2 44.292 9.912 44.5 9.672C44.724 9.416 44.876 9.248 44.956 9.168C45.5 8.608 46.052 8.216 46.612 7.992C47.188 7.752 47.748 7.648 48.292 7.68C48.628 7.68 49.012 7.744 49.444 7.872C49.876 7.984 50.308 8.112 50.74 8.256C51.188 8.384 51.62 8.504 52.036 8.616C52.468 8.728 52.852 8.784 53.188 8.784C53.38 8.752 53.492 8.752 53.524 8.784C53.572 8.816 53.596 8.92 53.596 9.096V17.496C53.596 17.752 53.628 17.984 53.692 18.192C53.772 18.384 53.932 18.56 54.172 18.72C54.268 18.8 54.268 18.888 54.172 18.984C54.06 19.096 53.956 19.24 53.86 19.416C53.764 19.592 53.668 19.768 53.572 19.944C53.476 20.12 53.372 20.288 53.26 20.448C53.148 20.608 53.02 20.736 52.876 20.832C52.524 21.056 52.164 21.056 51.796 20.832C51.508 20.656 51.276 20.448 51.1 20.208C50.94 19.952 50.732 19.712 50.476 19.488C50.428 19.376 50.428 19.288 50.476 19.224C50.716 19.064 50.868 18.888 50.932 18.696C51.012 18.488 51.052 18.248 51.052 17.976V11.016C50.796 10.984 50.532 10.912 50.26 10.8C50.004 10.688 49.74 10.568 49.468 10.44C49.212 10.312 48.94 10.184 48.652 10.056C48.364 9.912 48.052 9.792 47.716 9.696ZM58.9544 10.872C59.0184 10.888 59.0344 10.936 59.0024 11.016C58.9704 11.08 58.9224 11.152 58.8584 11.232C58.8104 11.312 58.7464 11.392 58.6664 11.472C58.6024 11.552 58.5544 11.608 58.5224 11.64C58.3304 11.8 58.0904 11.92 57.8024 12C57.5144 12.064 57.2264 12.064 56.9384 12C56.6504 11.936 56.3864 11.784 56.1464 11.544C55.9064 11.304 55.7384 10.952 55.6424 10.488C56.3144 9.448 57.0264 8.712 57.7784 8.28C58.5464 7.848 59.2904 7.648 60.0104 7.68C60.3464 7.68 60.6664 7.744 60.9704 7.872C61.2904 7.984 61.6024 8.112 61.9064 8.256C62.2264 8.384 62.5384 8.504 62.8424 8.616C63.1624 8.728 63.4904 8.784 63.8264 8.784C64.0024 8.752 64.1144 8.752 64.1624 8.784C64.2104 8.816 64.2344 8.92 64.2344 9.096V17.496C64.2344 17.752 64.2664 17.984 64.3304 18.192C64.4104 18.384 64.5704 18.56 64.8104 18.72C64.8744 18.8 64.8744 18.888 64.8104 18.984C64.6824 19.096 64.5704 19.24 64.4744 19.416C64.3784 19.592 64.2824 19.768 64.1864 19.944C64.0904 20.12 63.9864 20.288 63.8744 20.448C63.7784 20.608 63.6584 20.736 63.5144 20.832C63.1304 21.04 62.7624 21.04 62.4104 20.832C62.1224 20.656 61.8904 20.448 61.7144 20.208C61.5544 19.952 61.3544 19.712 61.1144 19.488C61.0344 19.392 61.0344 19.304 61.1144 19.224C61.3544 19.064 61.5064 18.888 61.5704 18.696C61.6504 18.488 61.6904 18.248 61.6904 17.976V10.896C61.5144 10.864 61.3224 10.784 61.1144 10.656C60.9224 10.512 60.6904 10.368 60.4184 10.224C60.1624 10.064 59.8584 9.912 59.5064 9.768C59.1704 9.624 58.7784 9.528 58.3304 9.48C57.9304 9.432 57.6824 9.472 57.5864 9.6C57.4904 9.728 57.4904 9.88 57.5864 10.056C57.6824 10.216 57.8584 10.384 58.1144 10.56C58.3704 10.72 58.6504 10.824 58.9544 10.872ZM69.8646 10.872C69.9286 10.888 69.9446 10.936 69.9126 11.016C69.8806 11.08 69.8326 11.152 69.7686 11.232C69.7206 11.312 69.6566 11.392 69.5766 11.472C69.5126 11.552 69.4646 11.608 69.4326 11.64C69.2406 11.8 69.0006 11.92 68.7126 12C68.4246 12.064 68.1366 12.064 67.8486 12C67.5606 11.92 67.2966 11.76 67.0566 11.52C66.8166 11.28 66.6486 10.928 66.5526 10.464C67.2246 9.424 67.9366 8.696 68.6886 8.28C69.4566 7.848 70.2006 7.648 70.9206 7.68C71.2566 7.68 71.6966 7.744 72.2406 7.872C72.7846 7.984 73.3526 8.112 73.9446 8.256C74.5366 8.384 75.1046 8.504 75.6486 8.616C76.1926 8.728 76.6326 8.784 76.9686 8.784C77.1446 8.752 77.2566 8.752 77.3046 8.784C77.3526 8.816 77.3766 8.92 77.3766 9.096V17.496C77.3766 17.752 77.4086 17.984 77.4726 18.192C77.5526 18.384 77.7126 18.56 77.9526 18.72C78.0166 18.8 78.0166 18.888 77.9526 18.984C77.8246 19.096 77.7126 19.24 77.6166 19.416C77.5206 19.592 77.4246 19.768 77.3286 19.944C77.2326 20.12 77.1286 20.288 77.0166 20.448C76.9206 20.608 76.8006 20.736 76.6566 20.832C76.2726 21.04 75.9046 21.04 75.5526 20.832C75.2646 20.656 75.0326 20.448 74.8566 20.208C74.6966 19.952 74.4966 19.712 74.2566 19.488C74.1766 19.392 74.1766 19.304 74.2566 19.224C74.4486 19.096 74.5846 18.952 74.6646 18.792C74.7446 18.632 74.7926 18.456 74.8086 18.264C74.7766 17.96 74.6406 17.648 74.4006 17.328C74.1766 17.008 73.8886 16.688 73.5366 16.368C73.2006 16.048 72.8246 15.752 72.4086 15.48C72.0086 15.192 71.6166 14.944 71.2326 14.736C70.8646 14.528 70.5286 14.368 70.2246 14.256C69.9206 14.128 69.7046 14.072 69.5766 14.088C69.2406 14.264 69.0326 14.584 68.9526 15.048C68.8886 15.512 68.9046 16.008 69.0006 16.536C69.1126 17.048 69.2806 17.544 69.5046 18.024C69.7446 18.488 69.9846 18.824 70.2246 19.032C70.5126 19.272 70.7206 19.376 70.8486 19.344C70.9766 19.296 71.0406 19.192 71.0406 19.032C71.0566 18.872 71.0086 18.704 70.8966 18.528C70.8006 18.336 70.6646 18.208 70.4886 18.144C70.4086 18.144 70.3526 18.112 70.3206 18.048C70.3046 17.984 70.3126 17.92 70.3446 17.856C70.3926 17.76 70.4806 17.632 70.6086 17.472C70.7526 17.312 70.9046 17.16 71.0646 17.016C71.2246 16.872 71.3846 16.744 71.5446 16.632C71.7046 16.504 71.8406 16.432 71.9526 16.416C72.5446 16.912 72.7846 17.416 72.6726 17.928C72.5766 18.424 72.2886 18.928 71.8086 19.44C71.6646 19.584 71.5046 19.744 71.3286 19.92C71.1526 20.096 70.9686 20.264 70.7766 20.424C70.6006 20.568 70.4166 20.696 70.2246 20.808C70.0486 20.904 69.8806 20.96 69.7206 20.976C69.2726 21.024 68.8646 20.928 68.4966 20.688C68.1286 20.448 67.8166 20.144 67.5606 19.776C67.3046 19.392 67.1046 18.968 66.9606 18.504C66.8326 18.04 66.7846 17.608 66.8166 17.208C67.1686 16.072 67.6406 15.088 68.2326 14.256C68.8246 13.424 69.5926 12.792 70.5366 12.36C70.7446 12.328 71.0246 12.368 71.3766 12.48C71.7286 12.576 72.1046 12.72 72.5046 12.912C72.9206 13.104 73.3366 13.328 73.7526 13.584C74.1686 13.84 74.5286 14.104 74.8326 14.376V11.016C74.5766 10.984 74.2566 10.912 73.8726 10.8C73.4886 10.688 73.0886 10.568 72.6726 10.44C72.2726 10.312 71.8646 10.184 71.4486 10.056C71.0486 9.912 70.6806 9.792 70.3446 9.696C69.8486 9.552 69.4566 9.48 69.1686 9.48C68.8806 9.464 68.6726 9.496 68.5446 9.576C68.4326 9.656 68.3926 9.76 68.4246 9.888C68.4566 10.016 68.5366 10.152 68.6646 10.296C68.8086 10.424 68.9846 10.544 69.1926 10.656C69.4006 10.768 69.6246 10.84 69.8646 10.872ZM85.216 9.696C84.928 9.616 84.672 9.552 84.448 9.504C84.224 9.456 84.016 9.448 83.824 9.48C83.648 9.496 83.48 9.56 83.32 9.672C83.16 9.768 82.992 9.936 82.816 10.176C82.608 10.432 82.432 10.712 82.288 11.016C82.16 11.32 82.128 11.616 82.192 11.904C82.224 12.128 82.312 12.384 82.456 12.672C82.616 12.944 82.792 13.24 82.984 13.56C83.192 13.88 83.4 14.224 83.608 14.592C83.832 14.96 84.04 15.336 84.232 15.72C84.264 15.768 84.28 15.816 84.28 15.864C84.296 15.896 84.32 15.936 84.352 15.984C84.432 15.776 84.528 15.552 84.64 15.312C84.768 15.072 84.896 14.848 85.024 14.64C85.168 14.416 85.304 14.224 85.432 14.064C85.576 13.904 85.704 13.8 85.816 13.752C85.992 13.688 86.176 13.704 86.368 13.8C86.576 13.88 86.776 14 86.968 14.16C87.176 14.32 87.36 14.504 87.52 14.712C87.68 14.904 87.8 15.088 87.88 15.264C87.896 15.44 87.848 15.624 87.736 15.816C87.64 15.992 87.512 16.16 87.352 16.32C87.208 16.48 87.048 16.624 86.872 16.752C86.712 16.864 86.576 16.944 86.464 16.992C86.384 17.056 86.312 17.04 86.248 16.944C86.232 16.8 86.176 16.64 86.08 16.464C86 16.288 85.896 16.144 85.768 16.032C85.656 15.92 85.536 15.864 85.408 15.864C85.28 15.864 85.16 15.96 85.048 16.152C85 16.248 84.936 16.416 84.856 16.656C84.792 16.896 84.736 17.12 84.688 17.328C84.704 17.904 84.48 18.472 84.016 19.032C83.872 19.208 83.696 19.4 83.488 19.608C83.28 19.816 83.056 20.016 82.816 20.208C82.592 20.4 82.352 20.576 82.096 20.736C81.856 20.88 81.624 20.976 81.4 21.024C80.776 20.912 80.376 20.736 80.2 20.496C80.04 20.24 79.992 19.976 80.056 19.704C80.136 19.432 80.28 19.176 80.488 18.936C80.712 18.696 80.888 18.528 81.016 18.432C81.16 18.256 81.272 18.2 81.352 18.264C81.432 18.328 81.464 18.424 81.448 18.552C81.448 18.744 81.52 18.92 81.664 19.08C81.824 19.224 81.984 19.32 82.144 19.368C82.32 19.416 82.464 19.408 82.576 19.344C82.704 19.264 82.736 19.088 82.672 18.816C82.64 18.656 82.584 18.496 82.504 18.336C82.44 18.16 82.368 18.008 82.288 17.88C82.032 17.416 81.736 16.944 81.4 16.464C81.08 15.984 80.792 15.512 80.536 15.048C80.28 14.584 80.096 14.144 79.984 13.728C79.888 13.312 79.92 12.928 80.08 12.576C80.192 12.256 80.36 11.92 80.584 11.568C80.808 11.2 81.048 10.856 81.304 10.536C81.56 10.2 81.792 9.912 82 9.672C82.224 9.416 82.376 9.248 82.456 9.168C83 8.608 83.552 8.216 84.112 7.992C84.688 7.752 85.248 7.648 85.792 7.68C86.128 7.68 86.512 7.744 86.944 7.872C87.376 7.984 87.808 8.112 88.24 8.256C88.688 8.384 89.12 8.504 89.536 8.616C89.968 8.728 90.352 8.784 90.688 8.784C90.88 8.752 90.992 8.752 91.024 8.784C91.072 8.816 91.096 8.92 91.096 9.096V17.496C91.096 17.752 91.128 17.984 91.192 18.192C91.272 18.384 91.432 18.56 91.672 18.72C91.768 18.8 91.768 18.888 91.672 18.984C91.56 19.096 91.456 19.24 91.36 19.416C91.264 19.592 91.168 19.768 91.072 19.944C90.976 20.12 90.872 20.288 90.76 20.448C90.648 20.608 90.52 20.736 90.376 20.832C90.024 21.056 89.664 21.056 89.296 20.832C89.008 20.656 88.776 20.448 88.6 20.208C88.44 19.952 88.232 19.712 87.976 19.488C87.928 19.376 87.928 19.288 87.976 19.224C88.216 19.064 88.368 18.888 88.432 18.696C88.512 18.488 88.552 18.248 88.552 17.976V11.016C88.296 10.984 88.032 10.912 87.76 10.8C87.504 10.688 87.24 10.568 86.968 10.44C86.712 10.312 86.44 10.184 86.152 10.056C85.864 9.912 85.552 9.792 85.216 9.696ZM98.2304 14.52C98.0384 14.36 97.8464 14.368 97.6544 14.544C97.4624 14.72 97.2784 14.96 97.1024 15.264C96.9424 15.552 96.8064 15.864 96.6944 16.2C96.5984 16.52 96.5504 16.752 96.5504 16.896C96.5824 17.232 96.7104 17.544 96.9344 17.832C97.1744 18.104 97.4544 18.344 97.7744 18.552C98.0944 18.76 98.4384 18.92 98.8064 19.032C99.1904 19.144 99.5344 19.208 99.8384 19.224C100.206 19.256 100.574 19.248 100.942 19.2C101.31 19.152 101.63 19.04 101.902 18.864V11.016C101.646 10.984 101.326 10.912 100.942 10.8C100.558 10.688 100.158 10.568 99.7424 10.44C99.3424 10.312 98.9344 10.184 98.5184 10.056C98.1184 9.912 97.7504 9.792 97.4144 9.696C96.9184 9.552 96.5264 9.48 96.2384 9.48C95.9504 9.464 95.7424 9.496 95.6144 9.576C95.5024 9.656 95.4624 9.76 95.4944 9.888C95.5264 10.016 95.6064 10.152 95.7344 10.296C95.8784 10.424 96.0544 10.544 96.2624 10.656C96.4704 10.768 96.6944 10.84 96.9344 10.872C96.9984 10.888 97.0144 10.936 96.9824 11.016C96.9504 11.08 96.9024 11.152 96.8384 11.232C96.7904 11.312 96.7264 11.392 96.6464 11.472C96.5824 11.552 96.5344 11.608 96.5024 11.64C96.3104 11.8 96.0704 11.92 95.7824 12C95.4944 12.064 95.2064 12.064 94.9184 12C94.6304 11.92 94.3664 11.76 94.1264 11.52C93.8864 11.28 93.7184 10.928 93.6224 10.464C94.2944 9.424 95.0064 8.696 95.7584 8.28C96.5264 7.848 97.2704 7.648 97.9904 7.68C98.3264 7.68 98.7664 7.744 99.3104 7.872C99.8544 7.984 100.422 8.112 101.014 8.256C101.606 8.384 102.174 8.504 102.718 8.616C103.262 8.728 103.702 8.784 104.038 8.784C104.214 8.752 104.326 8.752 104.374 8.784C104.422 8.816 104.446 8.92 104.446 9.096V19.584C104.446 19.76 104.422 19.864 104.374 19.896C104.326 19.928 104.214 19.928 104.038 19.896C103.702 19.896 103.27 19.952 102.742 20.064C102.214 20.176 101.67 20.304 101.11 20.448C100.55 20.576 100.006 20.704 99.4784 20.832C98.9504 20.944 98.5184 21 98.1824 21C97.6544 21.016 97.1744 20.936 96.7424 20.76C96.3104 20.584 95.9264 20.368 95.5904 20.112C95.2544 19.84 94.9664 19.544 94.7264 19.224C94.5024 18.888 94.3344 18.576 94.2224 18.288C94.0784 17.904 94.0304 17.544 94.0784 17.208C94.1104 16.904 94.2224 16.504 94.4144 16.008C94.6224 15.496 94.8704 15 95.1584 14.52C95.4464 14.04 95.7664 13.632 96.1184 13.296C96.4704 12.944 96.8144 12.784 97.1504 12.816C97.2944 12.832 97.4544 12.896 97.6304 13.008C97.8064 13.104 97.9744 13.224 98.1344 13.368C98.3104 13.512 98.4784 13.672 98.6384 13.848C98.8144 14.008 98.9744 14.168 99.1184 14.328C99.3584 14.584 99.5504 14.84 99.6944 15.096C99.8544 15.336 99.9504 15.584 99.9824 15.84C100.014 16.096 99.9744 16.352 99.8624 16.608C99.7504 16.848 99.5504 17.096 99.2624 17.352C99.1504 17.32 99.0064 17.248 98.8304 17.136C98.6704 17.024 98.5104 16.896 98.3504 16.752C98.2064 16.608 98.0624 16.456 97.9184 16.296C97.7904 16.136 97.7024 16.008 97.6544 15.912C97.6224 15.832 97.6144 15.768 97.6304 15.72C97.6624 15.656 97.7184 15.624 97.7984 15.624C98.0384 15.448 98.1984 15.256 98.2784 15.048C98.3744 14.84 98.3584 14.664 98.2304 14.52ZM118.008 16.656C117.96 16.528 117.864 16.368 117.72 16.176C117.576 15.968 117.424 15.8 117.264 15.672V18.336C117.312 18.24 117.368 18.112 117.432 17.952C117.512 17.792 117.584 17.632 117.648 17.472C117.728 17.296 117.8 17.136 117.864 16.992C117.928 16.832 117.976 16.72 118.008 16.656ZM117.864 9.936C117.624 10.112 117.464 10.296 117.384 10.488C117.32 10.68 117.288 10.912 117.288 11.184V14.52C117.544 14.632 117.776 14.784 117.984 14.976C118.208 15.168 118.4 15.368 118.56 15.576C118.72 15.768 118.848 15.968 118.944 16.176C119.056 16.368 119.136 16.528 119.184 16.656C119.088 16.896 118.936 17.232 118.728 17.664C118.52 18.08 118.288 18.504 118.032 18.936C117.792 19.352 117.536 19.744 117.264 20.112C117.008 20.464 116.776 20.704 116.568 20.832C116.392 20.944 116.208 21 116.016 21C115.824 21 115.672 20.968 115.56 20.904C115.464 20.84 115.376 20.752 115.296 20.64C115.216 20.528 115.136 20.4 115.056 20.256C114.992 20.096 114.888 19.936 114.744 19.776V16.032C114.168 16.176 113.68 16.48 113.28 16.944C112.896 17.392 112.568 17.864 112.296 18.36C112.04 18.856 111.832 19.32 111.672 19.752C111.512 20.168 111.376 20.416 111.264 20.496C111.104 20.608 110.888 20.728 110.616 20.856C110.36 20.984 110.128 21.024 109.92 20.976C109.392 20.88 108.936 20.688 108.552 20.4C108.168 20.096 107.848 19.768 107.592 19.416C107.336 19.064 107.152 18.712 107.04 18.36C106.928 18.008 106.88 17.72 106.896 17.496C106.944 17.128 107.056 16.776 107.232 16.44C107.408 16.104 107.616 15.784 107.856 15.48C108.096 15.16 108.336 14.848 108.576 14.544C108.832 14.224 109.056 13.912 109.248 13.608C109.472 13.224 109.576 12.8 109.56 12.336C109.544 11.856 109.464 11.424 109.32 11.04C109.176 10.64 108.992 10.336 108.768 10.128C108.544 9.92 108.336 9.896 108.144 10.056C108.032 10.152 107.992 10.28 108.024 10.44C108.056 10.584 108.112 10.736 108.192 10.896C108.272 11.04 108.368 11.168 108.48 11.28C108.592 11.376 108.672 11.424 108.72 11.424C108.8 11.44 108.824 11.488 108.792 11.568C108.744 11.68 108.664 11.824 108.552 12C108.456 12.16 108.336 12.312 108.192 12.456C108.064 12.6 107.92 12.704 107.76 12.768C107.616 12.832 107.472 12.832 107.328 12.768C107.248 12.736 107.16 12.672 107.064 12.576C106.984 12.464 106.904 12.352 106.824 12.24C106.744 12.128 106.672 12.024 106.608 11.928C106.56 11.816 106.536 11.752 106.536 11.736C106.52 11.688 106.568 11.56 106.68 11.352C106.792 11.128 106.944 10.864 107.136 10.56C107.344 10.256 107.576 9.936 107.832 9.6C108.088 9.264 108.344 8.952 108.6 8.664C108.872 8.376 109.128 8.136 109.368 7.944C109.608 7.752 109.808 7.664 109.968 7.68C110.32 7.696 110.64 7.824 110.928 8.064C111.216 8.288 111.464 8.568 111.672 8.904C111.88 9.224 112.024 9.568 112.104 9.936C112.2 10.288 112.224 10.608 112.176 10.896C112.16 11.168 112.016 11.504 111.744 11.904C111.472 12.304 111.168 12.72 110.832 13.152C110.496 13.584 110.168 14.016 109.848 14.448C109.544 14.88 109.336 15.272 109.224 15.624C109.144 16.232 109.216 16.792 109.44 17.304C109.664 17.8 110.032 18.208 110.544 18.528L111.432 17.04C111.56 16.832 111.728 16.608 111.936 16.368C112.16 16.128 112.416 15.896 112.704 15.672C112.992 15.448 113.304 15.24 113.64 15.048C113.992 14.84 114.36 14.68 114.744 14.568V10.68C114.744 10.424 114.704 10.2 114.624 10.008C114.56 9.8 114.408 9.616 114.168 9.456C114.088 9.36 114.088 9.272 114.168 9.192C114.408 8.968 114.608 8.736 114.768 8.496C114.944 8.24 115.176 8.024 115.464 7.848C115.832 7.608 116.2 7.608 116.568 7.848C116.712 7.928 116.832 8.048 116.928 8.208C117.04 8.368 117.144 8.544 117.24 8.736C117.336 8.912 117.432 9.088 117.528 9.264C117.624 9.44 117.736 9.584 117.864 9.696C117.944 9.776 117.944 9.856 117.864 9.936ZM125.106 5.712V16.488C125.122 17.272 125.266 17.808 125.538 18.096C125.826 18.368 126.186 18.44 126.618 18.312C126.714 18.28 126.778 18.288 126.81 18.336C126.858 18.384 126.866 18.44 126.834 18.504C126.674 18.76 126.506 19.04 126.33 19.344C126.154 19.632 125.97 19.904 125.778 20.16C125.586 20.416 125.386 20.624 125.178 20.784C124.97 20.944 124.754 21.016 124.53 21C124.21 20.984 123.922 20.872 123.666 20.664C123.426 20.44 123.21 20.192 123.018 19.92C122.826 19.632 122.65 19.352 122.49 19.08C122.33 18.808 122.178 18.616 122.034 18.504C121.986 18.472 121.962 18.432 121.962 18.384C121.962 18.336 121.986 18.296 122.034 18.264C122.178 18.248 122.29 18.192 122.37 18.096C122.45 17.984 122.498 17.856 122.514 17.712C122.546 17.568 122.562 17.416 122.562 17.256C122.562 17.096 122.562 16.952 122.562 16.824V6.912C122.45 6.848 122.298 6.752 122.106 6.624C121.93 6.48 121.73 6.344 121.506 6.216C121.298 6.072 121.082 5.952 120.858 5.856C120.634 5.744 120.418 5.688 120.21 5.688C120.13 5.672 120.042 5.616 119.946 5.52C119.866 5.408 119.89 5.216 120.018 4.944C120.242 4.448 120.474 3.952 120.714 3.456C120.97 2.944 121.266 2.488 121.602 2.088C121.954 1.672 122.354 1.344 122.802 1.104C123.25 0.863999 123.778 0.759999 124.386 0.791998C124.802 0.775999 125.29 0.871999 125.85 1.08C126.426 1.272 126.978 1.464 127.506 1.656C128.034 1.848 128.498 1.992 128.898 2.088C129.298 2.184 129.53 2.128 129.594 1.92C129.626 1.84 129.594 1.744 129.498 1.632C129.418 1.52 129.25 1.416 128.994 1.32C129.026 1.192 129.074 1.048 129.138 0.887999C129.202 0.727999 129.274 0.583999 129.354 0.455998C129.45 0.311998 129.562 0.207999 129.69 0.144C129.834 0.0639997 129.994 0.0399995 130.17 0.0719991C130.426 0.151999 130.602 0.295999 130.698 0.503999C130.794 0.695999 130.826 0.919999 130.794 1.176C130.778 1.432 130.714 1.712 130.602 2.016C130.49 2.304 130.346 2.584 130.17 2.856C129.85 3.368 129.53 3.728 129.21 3.936C128.89 4.144 128.554 4.264 128.202 4.296C127.946 4.312 127.642 4.264 127.29 4.152C126.938 4.04 126.562 3.904 126.162 3.744C125.778 3.584 125.386 3.424 124.986 3.264C124.602 3.104 124.226 2.992 123.858 2.928C123.506 2.848 123.178 2.832 122.874 2.88C122.57 2.928 122.33 3.088 122.154 3.36C122.09 3.424 122.01 3.552 121.914 3.744C121.834 3.92 121.778 4.048 121.746 4.128C121.874 4.128 122.042 4.192 122.25 4.32C122.458 4.448 122.698 4.592 122.97 4.752C123.242 4.896 123.522 5.04 123.81 5.184C124.114 5.312 124.41 5.384 124.698 5.4C124.874 5.368 124.986 5.368 125.034 5.4C125.082 5.432 125.106 5.536 125.106 5.712ZM139.672 18.72C139.768 18.784 139.768 18.864 139.672 18.96C139.56 19.072 139.456 19.216 139.36 19.392C139.264 19.568 139.168 19.752 139.072 19.944C138.976 20.12 138.872 20.288 138.76 20.448C138.648 20.608 138.52 20.728 138.376 20.808C138.024 21.048 137.664 21.048 137.296 20.808C137.008 20.632 136.776 20.424 136.6 20.184C136.44 19.928 136.232 19.688 135.976 19.464C135.912 19.368 135.912 19.28 135.976 19.2C136.216 19.04 136.368 18.864 136.432 18.672C136.512 18.464 136.552 18.232 136.552 17.976V10.992C136.296 10.96 136.032 10.896 135.76 10.8C135.504 10.688 135.24 10.568 134.968 10.44C134.712 10.296 134.44 10.16 134.152 10.032C133.864 9.904 133.552 9.792 133.216 9.696C132.928 9.616 132.672 9.552 132.448 9.504C132.224 9.44 132.016 9.424 131.824 9.456C131.648 9.472 131.48 9.536 131.32 9.648C131.16 9.744 130.992 9.912 130.816 10.152C130.608 10.408 130.432 10.696 130.288 11.016C130.16 11.32 130.128 11.608 130.192 11.88C130.224 12.104 130.312 12.36 130.456 12.648C130.616 12.92 130.792 13.216 130.984 13.536C131.192 13.856 131.4 14.2 131.608 14.568C131.832 14.936 132.04 15.32 132.232 15.72C132.248 15.752 132.272 15.824 132.304 15.936C132.352 16.032 132.4 16.136 132.448 16.248C132.496 16.36 132.536 16.464 132.568 16.56C132.6 16.656 132.624 16.72 132.64 16.752C132.704 16.912 132.744 17.032 132.76 17.112C132.92 17 133.096 16.848 133.288 16.656C133.48 16.448 133.592 16.28 133.624 16.152C133.656 16.056 133.656 15.944 133.624 15.816C133.608 15.688 133.568 15.568 133.504 15.456C133.456 15.344 133.384 15.248 133.288 15.168C133.208 15.072 133.104 15.024 132.976 15.024C132.848 15.024 132.744 15.016 132.664 15C132.568 14.936 132.536 14.856 132.568 14.76C132.6 14.648 132.672 14.496 132.784 14.304C132.896 14.112 133.024 13.928 133.168 13.752C133.328 13.576 133.496 13.424 133.672 13.296C133.864 13.152 134.04 13.08 134.2 13.08C134.376 13.128 134.552 13.224 134.728 13.368C134.92 13.496 135.088 13.648 135.232 13.824C135.392 14 135.512 14.192 135.592 14.4C135.688 14.608 135.712 14.8 135.664 14.976C135.632 15.152 135.456 15.432 135.136 15.816C134.816 16.2 134.448 16.616 134.032 17.064C133.632 17.496 133.216 17.92 132.784 18.336C132.368 18.752 132.04 19.08 131.8 19.32C131.48 19.656 131.096 20 130.648 20.352C130.216 20.688 129.8 20.904 129.4 21C128.776 20.888 128.376 20.712 128.2 20.472C128.04 20.216 127.992 19.952 128.056 19.68C128.136 19.408 128.28 19.152 128.488 18.912C128.712 18.672 128.888 18.504 129.016 18.408C129.16 18.248 129.272 18.2 129.352 18.264C129.432 18.312 129.464 18.4 129.448 18.528C129.448 18.72 129.52 18.896 129.664 19.056C129.824 19.2 129.984 19.304 130.144 19.368C130.32 19.416 130.464 19.4 130.576 19.32C130.704 19.24 130.736 19.064 130.672 18.792C130.64 18.632 130.584 18.472 130.504 18.312C130.44 18.136 130.368 17.984 130.288 17.856C130.032 17.392 129.736 16.92 129.4 16.44C129.08 15.96 128.792 15.496 128.536 15.048C128.28 14.584 128.096 14.144 127.984 13.728C127.888 13.296 127.92 12.904 128.08 12.552C128.192 12.232 128.36 11.896 128.584 11.544C128.808 11.176 129.048 10.832 129.304 10.512C129.56 10.176 129.792 9.888 130 9.648C130.224 9.392 130.376 9.224 130.456 9.144C131 8.584 131.552 8.192 132.112 7.968C132.688 7.728 133.248 7.624 133.792 7.656C134.128 7.656 134.512 7.72 134.944 7.848C135.376 7.96 135.808 8.088 136.24 8.232C136.688 8.36 137.12 8.48 137.536 8.592C137.968 8.704 138.352 8.76 138.688 8.76C138.88 8.728 138.992 8.728 139.024 8.76C139.072 8.792 139.096 8.896 139.096 9.072V17.472C139.096 17.728 139.128 17.96 139.192 18.168C139.272 18.36 139.432 18.544 139.672 18.72Z" fill="#303030"/>
</g>
<defs>
<filter id="filter0_d_22_1312" x="0.791992" y="0.0239868" width="143.024" height="29.144" filterUnits="userSpaceOnUse" color-interpolation-filters="sRGB">
<feFlood flood-opacity="0" result="BackgroundImageFix"/>
<feColorMatrix in="SourceAlpha" type="matrix" values="0 0 0 0 0 0 0 0 0 0 0 0 0 0 0 0 0 0 127 0" result="hardAlpha"/>
<feOffset dy="4"/>
<feGaussianBlur stdDeviation="2"/>
<feComposite in2="hardAlpha" operator="out"/>
<feColorMatrix type="matrix" values="0 0 0 0 0 0 0 0 0 0 0 0 0 0 0 0 0 0 0.25 0"/>
<feBlend mode="normal" in2="BackgroundImageFix" result="effect1_dropShadow_22_1312"/>
<feBlend mode="normal" in="SourceGraphic" in2="effect1_dropShadow_22_1312" result="shape"/>
</filter>
</defs>
</svg>
