<svg width="264" height="22" viewBox="0 0 264 22" fill="none" xmlns="http://www.w3.org/2000/svg">
<path d="M13.72 5.448C13.48 5.624 13.32 5.808 13.24 6C13.176 6.192 13.144 6.424 13.144 6.696V19.584C13.144 19.76 13.12 19.864 13.072 19.896C13.024 19.928 12.912 19.928 12.736 19.896C12.4 19.896 11.984 19.952 11.488 20.064C10.992 20.176 10.472 20.304 9.928 20.448C9.4 20.576 8.888 20.704 8.392 20.832C7.896 20.944 7.48 21 7.144 21C6.488 21.016 5.856 20.896 5.248 20.64C4.64 20.368 4.104 20.04 3.64 19.656C3.176 19.272 2.808 18.88 2.536 18.48C2.28 18.08 2.16 17.752 2.176 17.496C2.224 17.128 2.336 16.776 2.512 16.44C2.688 16.104 2.896 15.784 3.136 15.48C3.376 15.16 3.616 14.848 3.856 14.544C4.112 14.224 4.336 13.912 4.528 13.608C4.752 13.224 4.856 12.8 4.84 12.336C4.824 11.856 4.744 11.424 4.6 11.04C4.456 10.64 4.272 10.336 4.048 10.128C3.824 9.92 3.616 9.896 3.424 10.056C3.312 10.152 3.272 10.28 3.304 10.44C3.336 10.584 3.392 10.736 3.472 10.896C3.552 11.04 3.648 11.168 3.76 11.28C3.872 11.376 3.952 11.424 4 11.424C4.08 11.44 4.104 11.488 4.072 11.568C4.024 11.68 3.944 11.824 3.832 12C3.736 12.16 3.616 12.312 3.472 12.456C3.344 12.584 3.2 12.688 3.04 12.768C2.896 12.832 2.752 12.832 2.608 12.768C2.528 12.736 2.44 12.672 2.344 12.576C2.264 12.464 2.184 12.352 2.104 12.24C2.024 12.128 1.952 12.024 1.888 11.928C1.84 11.816 1.816 11.752 1.816 11.736C1.8 11.688 1.848 11.56 1.96 11.352C2.072 11.128 2.224 10.864 2.416 10.56C2.624 10.256 2.856 9.936 3.112 9.6C3.368 9.264 3.624 8.952 3.88 8.664C4.152 8.376 4.408 8.136 4.648 7.944C4.888 7.752 5.088 7.664 5.248 7.68C5.6 7.696 5.92 7.824 6.208 8.064C6.496 8.288 6.744 8.568 6.952 8.904C7.16 9.224 7.304 9.568 7.384 9.936C7.48 10.288 7.504 10.608 7.456 10.896C7.44 11.168 7.296 11.504 7.024 11.904C6.752 12.304 6.448 12.72 6.112 13.152C5.776 13.584 5.448 14.016 5.128 14.448C4.824 14.88 4.616 15.272 4.504 15.624C4.456 16.008 4.536 16.392 4.744 16.776C4.952 17.144 5.232 17.488 5.584 17.808C5.952 18.128 6.368 18.408 6.832 18.648C7.296 18.888 7.76 19.064 8.224 19.176C8.704 19.288 9.152 19.328 9.568 19.296C9.984 19.248 10.328 19.104 10.6 18.864V6.192C10.6 5.936 10.56 5.712 10.48 5.52C10.416 5.312 10.264 5.128 10.024 4.968C9.944 4.872 9.944 4.784 10.024 4.704C10.264 4.48 10.464 4.248 10.624 4.008C10.8 3.752 11.032 3.536 11.32 3.36C11.688 3.12 12.056 3.12 12.424 3.36C12.568 3.44 12.696 3.56 12.808 3.72C12.92 3.88 13.024 4.056 13.12 4.248C13.216 4.424 13.312 4.6 13.408 4.776C13.504 4.952 13.608 5.096 13.72 5.208C13.8 5.288 13.8 5.368 13.72 5.448ZM9.30812 4.68C9.03612 5.24 8.74012 5.656 8.42012 5.928C8.08412 6.184 7.78812 6.28 7.53212 6.216C7.35612 6.168 7.13212 6.024 6.86012 5.784C6.57212 5.544 6.25212 5.288 5.90012 5.016C5.53212 4.744 5.12412 4.496 4.67612 4.272C4.22812 4.032 3.74012 3.88 3.21212 3.816C2.86012 3.768 2.64412 3.808 2.56412 3.936C2.48412 4.048 2.49212 4.192 2.58812 4.368C2.68412 4.528 2.84412 4.688 3.06812 4.848C3.29212 4.992 3.54812 5.088 3.83612 5.136C3.88412 5.152 3.90012 5.192 3.88412 5.256C3.85212 5.32 3.81212 5.392 3.76412 5.472C3.70012 5.552 3.63612 5.632 3.57212 5.712C3.50812 5.776 3.46012 5.824 3.42812 5.856C3.25212 6.016 3.03612 6.136 2.78012 6.216C2.50812 6.28 2.23612 6.28 1.96412 6.216C1.69212 6.136 1.44412 5.984 1.22012 5.76C0.996124 5.536 0.844124 5.2 0.764124 4.752C1.37212 3.76 2.01212 3.072 2.68412 2.688C3.35612 2.304 4.02812 2.128 4.70012 2.16C5.00412 2.16 5.37212 2.264 5.80412 2.472C6.23612 2.68 6.66812 2.912 7.10012 3.168C7.53212 3.424 7.92412 3.664 8.27612 3.888C8.61212 4.112 8.85212 4.248 8.99612 4.296C9.26812 4.296 9.37212 4.424 9.30812 4.68ZM20.0361 5.712V16.488C20.0521 17.272 20.1961 17.808 20.4681 18.096C20.7561 18.368 21.1161 18.44 21.5481 18.312C21.6441 18.28 21.7081 18.288 21.7401 18.336C21.7881 18.384 21.7961 18.44 21.7641 18.504C21.6041 18.76 21.4361 19.04 21.2601 19.344C21.0841 19.632 20.9001 19.904 20.7081 20.16C20.5161 20.416 20.3161 20.624 20.1081 20.784C19.9001 20.944 19.6841 21.016 19.4601 21C19.1401 20.984 18.8521 20.872 18.5961 20.664C18.3561 20.44 18.1401 20.192 17.9481 19.92C17.7561 19.632 17.5801 19.352 17.4201 19.08C17.2601 18.808 17.1081 18.616 16.9641 18.504C16.9161 18.472 16.8921 18.432 16.8921 18.384C16.8921 18.336 16.9161 18.296 16.9641 18.264C17.1081 18.248 17.2201 18.192 17.3001 18.096C17.3801 17.984 17.4281 17.856 17.4441 17.712C17.4761 17.568 17.4921 17.416 17.4921 17.256C17.4921 17.096 17.4921 16.952 17.4921 16.824V6.912C17.3801 6.848 17.2281 6.752 17.0361 6.624C16.8601 6.48 16.6601 6.344 16.4361 6.216C16.2281 6.072 16.0121 5.952 15.7881 5.856C15.5641 5.744 15.3481 5.688 15.1401 5.688C15.0601 5.672 14.9721 5.616 14.8761 5.52C14.7961 5.408 14.8201 5.216 14.9481 4.944C15.1721 4.448 15.4041 3.952 15.6441 3.456C15.9001 2.944 16.1961 2.488 16.5321 2.088C16.8841 1.672 17.2841 1.344 17.7321 1.104C18.1801 0.863999 18.7081 0.759999 19.3161 0.791998C19.7321 0.775999 20.2201 0.871999 20.7801 1.08C21.3561 1.272 21.9081 1.464 22.4361 1.656C22.9641 1.848 23.4281 1.992 23.8281 2.088C24.2281 2.184 24.4601 2.128 24.5241 1.92C24.5561 1.84 24.5241 1.744 24.4281 1.632C24.3481 1.52 24.1801 1.416 23.9241 1.32C23.9561 1.192 24.0041 1.048 24.0681 0.887999C24.1321 0.727999 24.2041 0.583999 24.2841 0.455998C24.3801 0.311998 24.4921 0.207999 24.6201 0.144C24.7641 0.0639997 24.9241 0.0399995 25.1001 0.0719991C25.3561 0.151999 25.5321 0.295999 25.6281 0.503999C25.7241 0.695999 25.7561 0.919999 25.7241 1.176C25.7081 1.432 25.6441 1.712 25.5321 2.016C25.4201 2.304 25.2761 2.584 25.1001 2.856C24.7801 3.368 24.4601 3.728 24.1401 3.936C23.8201 4.144 23.4841 4.264 23.1321 4.296C22.8761 4.312 22.5721 4.264 22.2201 4.152C21.8681 4.04 21.4921 3.904 21.0921 3.744C20.7081 3.584 20.3161 3.424 19.9161 3.264C19.5321 3.104 19.1561 2.992 18.7881 2.928C18.4361 2.848 18.1081 2.832 17.8041 2.88C17.5001 2.928 17.2601 3.088 17.0841 3.36C17.0201 3.424 16.9401 3.552 16.8441 3.744C16.7641 3.92 16.7081 4.048 16.6761 4.128C16.8041 4.128 16.9721 4.192 17.1801 4.32C17.3881 4.448 17.6281 4.592 17.9001 4.752C18.1721 4.896 18.4521 5.04 18.7401 5.184C19.0441 5.312 19.3401 5.384 19.6281 5.4C19.8041 5.368 19.9161 5.368 19.9641 5.4C20.0121 5.432 20.0361 5.536 20.0361 5.712ZM29.0097 11.328C28.7857 11.616 28.6017 11.736 28.4577 11.688C28.3297 11.624 28.1537 11.472 27.9297 11.232C27.7537 11.056 27.5537 10.872 27.3297 10.68C27.1057 10.488 26.8737 10.328 26.6337 10.2C26.3937 10.072 26.1617 10 25.9377 9.984C25.7137 9.952 25.5057 10.016 25.3137 10.176C25.1217 10.432 25.0257 10.712 25.0257 11.016C25.0257 11.32 25.0577 11.616 25.1217 11.904C25.1537 12.128 25.2417 12.384 25.3857 12.672C25.5457 12.944 25.7217 13.24 25.9137 13.56C26.1217 13.88 26.3297 14.224 26.5377 14.592C26.7617 14.96 26.9697 15.336 27.1617 15.72C27.4017 16.28 27.5457 16.752 27.5937 17.136C27.7537 17.04 27.9297 16.888 28.1217 16.68C28.3297 16.472 28.4497 16.304 28.4817 16.176C28.5137 16.08 28.5137 15.968 28.4817 15.84C28.4657 15.712 28.4257 15.592 28.3617 15.48C28.2977 15.368 28.2177 15.272 28.1217 15.192C28.0417 15.096 27.9457 15.048 27.8337 15.048C27.7057 15.048 27.6017 15.032 27.5217 15C27.4257 14.936 27.3937 14.864 27.4257 14.784C27.4577 14.672 27.5297 14.52 27.6417 14.328C27.7537 14.136 27.8817 13.952 28.0257 13.776C28.1857 13.584 28.3537 13.424 28.5297 13.296C28.7217 13.152 28.8977 13.08 29.0577 13.08C29.2337 13.128 29.4097 13.224 29.5857 13.368C29.7777 13.512 29.9457 13.672 30.0897 13.848C30.2497 14.024 30.3697 14.216 30.4497 14.424C30.5457 14.616 30.5697 14.8 30.5217 14.976C30.4897 15.152 30.3217 15.424 30.0177 15.792C29.7297 16.16 29.3857 16.552 28.9857 16.968C28.5857 17.384 28.1777 17.8 27.7617 18.216C27.3617 18.616 27.0257 18.952 26.7537 19.224C26.4497 19.576 26.0737 19.936 25.6257 20.304C25.1777 20.672 24.7457 20.912 24.3297 21.024C23.7057 20.912 23.3057 20.736 23.1297 20.496C22.9697 20.24 22.9217 19.976 22.9857 19.704C23.0657 19.432 23.2097 19.176 23.4177 18.936C23.6417 18.696 23.8177 18.528 23.9457 18.432C24.0897 18.256 24.2017 18.2 24.2817 18.264C24.3617 18.328 24.3937 18.424 24.3777 18.552C24.3777 18.744 24.4497 18.92 24.5937 19.08C24.7537 19.224 24.9137 19.32 25.0737 19.368C25.2497 19.416 25.3937 19.408 25.5057 19.344C25.6337 19.264 25.6657 19.088 25.6017 18.816C25.5697 18.656 25.5137 18.496 25.4337 18.336C25.3697 18.16 25.2977 18.008 25.2177 17.88C24.9617 17.416 24.6657 16.944 24.3297 16.464C24.0097 15.984 23.7217 15.512 23.4657 15.048C23.2097 14.584 23.0257 14.144 22.9137 13.728C22.8177 13.312 22.8497 12.928 23.0097 12.576C23.1057 12.304 23.2977 11.896 23.5857 11.352C23.8737 10.808 24.2017 10.264 24.5697 9.72C24.9377 9.16 25.3217 8.68 25.7217 8.28C26.1377 7.864 26.4977 7.664 26.8017 7.68C27.0577 7.648 27.3217 7.72 27.5937 7.896C27.8817 8.056 28.1537 8.248 28.4097 8.472C28.6657 8.68 28.8897 8.888 29.0817 9.096C29.2897 9.288 29.4417 9.4 29.5377 9.432C29.9377 8.76 30.3297 8.28 30.7137 7.992C31.1137 7.704 31.4337 7.6 31.6737 7.68C31.8657 7.728 32.0657 7.816 32.2737 7.944C32.4817 8.056 32.6897 8.176 32.8977 8.304C33.1057 8.416 33.2977 8.52 33.4737 8.616C33.6657 8.696 33.8337 8.736 33.9777 8.736C34.1537 8.704 34.2657 8.704 34.3137 8.736C34.3617 8.768 34.3857 8.872 34.3857 9.048V17.496C34.3857 17.752 34.4177 17.984 34.4817 18.192C34.5617 18.384 34.7217 18.56 34.9617 18.72C35.0257 18.8 35.0257 18.888 34.9617 18.984C34.8337 19.096 34.7217 19.24 34.6257 19.416C34.5297 19.592 34.4337 19.768 34.3377 19.944C34.2417 20.12 34.1377 20.288 34.0257 20.448C33.9297 20.608 33.8097 20.736 33.6657 20.832C33.2977 21.056 32.9297 21.056 32.5617 20.832C32.2737 20.656 32.0417 20.448 31.8657 20.208C31.7057 19.952 31.5057 19.712 31.2657 19.488C31.2017 19.392 31.2017 19.304 31.2657 19.224C31.5057 19.064 31.6577 18.888 31.7217 18.696C31.8017 18.488 31.8417 18.248 31.8417 17.976V10.656C31.6177 10.624 31.3537 10.512 31.0497 10.32C30.7457 10.128 30.4657 9.976 30.2097 9.864C30.1777 9.848 30.1137 9.888 30.0177 9.984C29.9377 10.08 29.8337 10.208 29.7057 10.368C29.5937 10.512 29.4737 10.672 29.3457 10.848C29.2337 11.024 29.1217 11.184 29.0097 11.328ZM42.1356 16.488V14.16C41.7516 14.016 41.3356 13.864 40.8876 13.704C40.4396 13.528 39.9756 13.36 39.4956 13.2C39.0156 13.04 38.5436 12.904 38.0796 12.792C37.6156 12.664 37.1756 12.592 36.7596 12.576C36.6796 12.56 36.5916 12.504 36.4956 12.408C36.4156 12.296 36.4396 12.104 36.5676 11.832C36.7916 11.336 37.0316 10.84 37.2876 10.344C37.5436 9.832 37.8396 9.376 38.1756 8.976C38.5276 8.576 38.9276 8.256 39.3756 8.016C39.8396 7.76 40.3756 7.648 40.9836 7.68C41.3196 7.696 41.6156 7.744 41.8716 7.824C42.1276 7.888 42.3676 7.968 42.5916 8.064C42.8156 8.16 43.0476 8.272 43.2876 8.4C43.5276 8.512 43.7916 8.624 44.0796 8.736C44.1916 8.768 44.2796 8.768 44.3436 8.736C44.4236 8.704 44.4636 8.648 44.4636 8.568C44.4636 8.488 44.4156 8.4 44.3196 8.304C44.2236 8.208 44.0636 8.112 43.8396 8.016C43.8716 7.888 43.9196 7.744 43.9836 7.584C44.0476 7.424 44.1196 7.28 44.1996 7.152C44.2956 7.008 44.4076 6.904 44.5356 6.84C44.6796 6.76 44.8396 6.744 45.0156 6.792C45.3196 6.888 45.5116 7.064 45.5916 7.32C45.6876 7.56 45.7036 7.832 45.6396 8.136C45.5756 8.44 45.4556 8.76 45.2796 9.096C45.1036 9.432 44.9036 9.736 44.6796 10.008C44.4556 10.28 44.2156 10.504 43.9596 10.68C43.7196 10.856 43.5036 10.936 43.3116 10.92C42.9276 10.872 42.5196 10.736 42.0876 10.512C41.6556 10.288 41.2316 10.096 40.8156 9.936C40.4156 9.76 40.0316 9.672 39.6636 9.672C39.2956 9.672 38.9756 9.872 38.7036 10.272C38.6396 10.32 38.5596 10.44 38.4636 10.632C38.3836 10.808 38.3276 10.936 38.2956 11.016C38.5196 11.032 38.8156 11.096 39.1836 11.208C39.5676 11.304 39.9756 11.424 40.4076 11.568C40.8396 11.712 41.2716 11.864 41.7036 12.024C42.1516 12.184 42.5516 12.328 42.9036 12.456C43.4636 12.584 43.9196 12.648 44.2716 12.648C44.4476 12.616 44.5596 12.616 44.6076 12.648C44.6556 12.68 44.6796 12.784 44.6796 12.96V16.824C44.6796 16.952 44.6796 17.096 44.6796 17.256C44.6796 17.416 44.6876 17.568 44.7036 17.712C44.7356 17.856 44.7836 17.984 44.8476 18.096C44.9276 18.192 45.0476 18.248 45.2076 18.264C45.2556 18.296 45.2796 18.336 45.2796 18.384C45.2796 18.432 45.2556 18.472 45.2076 18.504C45.0636 18.616 44.9116 18.808 44.7516 19.08C44.5916 19.352 44.4076 19.632 44.1996 19.92C44.0076 20.192 43.7916 20.44 43.5516 20.664C43.3116 20.872 43.0316 20.984 42.7116 21C42.4876 21.016 42.2716 20.944 42.0636 20.784C41.8556 20.624 41.6556 20.416 41.4636 20.16C41.2716 19.904 41.0876 19.632 40.9116 19.344C40.7356 19.04 40.5676 18.76 40.4076 18.504C40.3756 18.44 40.3756 18.384 40.4076 18.336C40.4556 18.288 40.5276 18.28 40.6236 18.312C41.0396 18.44 41.3916 18.368 41.6796 18.096C41.9676 17.808 42.1196 17.272 42.1356 16.488ZM51.3374 9.936C51.0974 10.112 50.9374 10.296 50.8574 10.488C50.7934 10.68 50.7614 10.912 50.7614 11.184V16.488C50.7774 17.272 50.9294 17.808 51.2174 18.096C51.5054 18.368 51.8654 18.44 52.2974 18.312C52.3774 18.28 52.4414 18.288 52.4894 18.336C52.5374 18.384 52.5374 18.44 52.4894 18.504C52.3294 18.76 52.1614 19.04 51.9854 19.344C51.8094 19.632 51.6254 19.904 51.4334 20.16C51.2414 20.416 51.0414 20.624 50.8334 20.784C50.6254 20.944 50.4094 21.016 50.1854 21C49.8814 20.984 49.6014 20.872 49.3454 20.664C49.1054 20.44 48.8814 20.192 48.6734 19.92C48.4814 19.632 48.3054 19.352 48.1454 19.08C47.9854 18.808 47.8334 18.616 47.6894 18.504C47.6414 18.472 47.6174 18.432 47.6174 18.384C47.6334 18.336 47.6574 18.296 47.6894 18.264C47.8494 18.248 47.9614 18.192 48.0254 18.096C48.1054 17.984 48.1534 17.856 48.1694 17.712C48.2014 17.568 48.2174 17.416 48.2174 17.256C48.2174 17.096 48.2174 16.952 48.2174 16.824V10.68C48.2174 10.424 48.1774 10.2 48.0974 10.008C48.0334 9.8 47.8814 9.616 47.6414 9.456C47.5774 9.376 47.5774 9.288 47.6414 9.192C47.8974 8.968 48.1054 8.736 48.2654 8.496C48.4414 8.24 48.6734 8.024 48.9614 7.848C49.3294 7.608 49.6894 7.608 50.0414 7.848C50.1854 7.928 50.3134 8.048 50.4254 8.208C50.5374 8.368 50.6414 8.544 50.7374 8.736C50.8334 8.912 50.9294 9.088 51.0254 9.264C51.1214 9.44 51.2254 9.584 51.3374 9.696C51.4334 9.792 51.4334 9.872 51.3374 9.936ZM59.1066 9.696C58.8186 9.616 58.5626 9.552 58.3386 9.504C58.1146 9.456 57.9066 9.448 57.7146 9.48C57.5386 9.496 57.3706 9.56 57.2106 9.672C57.0506 9.768 56.8826 9.936 56.7066 10.176C56.4986 10.432 56.3226 10.712 56.1786 11.016C56.0506 11.32 56.0186 11.616 56.0826 11.904C56.1146 12.128 56.2026 12.384 56.3466 12.672C56.5066 12.944 56.6826 13.24 56.8746 13.56C57.0826 13.88 57.2906 14.224 57.4986 14.592C57.7226 14.96 57.9306 15.336 58.1226 15.72C58.1546 15.768 58.1706 15.816 58.1706 15.864C58.1866 15.896 58.2106 15.936 58.2426 15.984C58.3226 15.776 58.4186 15.552 58.5306 15.312C58.6586 15.072 58.7866 14.848 58.9146 14.64C59.0586 14.416 59.1946 14.224 59.3226 14.064C59.4666 13.904 59.5946 13.8 59.7066 13.752C59.8826 13.688 60.0666 13.704 60.2586 13.8C60.4666 13.88 60.6666 14 60.8586 14.16C61.0666 14.32 61.2506 14.504 61.4106 14.712C61.5706 14.904 61.6906 15.088 61.7706 15.264C61.7866 15.44 61.7386 15.624 61.6266 15.816C61.5306 15.992 61.4026 16.16 61.2426 16.32C61.0986 16.48 60.9386 16.624 60.7626 16.752C60.6026 16.864 60.4666 16.944 60.3546 16.992C60.2746 17.056 60.2026 17.04 60.1386 16.944C60.1226 16.8 60.0666 16.64 59.9706 16.464C59.8906 16.288 59.7866 16.144 59.6586 16.032C59.5466 15.92 59.4266 15.864 59.2986 15.864C59.1706 15.864 59.0506 15.96 58.9386 16.152C58.8906 16.248 58.8266 16.416 58.7466 16.656C58.6826 16.896 58.6266 17.12 58.5786 17.328C58.5946 17.904 58.3706 18.472 57.9066 19.032C57.7626 19.208 57.5866 19.4 57.3786 19.608C57.1706 19.816 56.9466 20.016 56.7066 20.208C56.4826 20.4 56.2426 20.576 55.9866 20.736C55.7466 20.88 55.5146 20.976 55.2906 21.024C54.6666 20.912 54.2666 20.736 54.0906 20.496C53.9306 20.24 53.8826 19.976 53.9466 19.704C54.0266 19.432 54.1706 19.176 54.3786 18.936C54.6026 18.696 54.7786 18.528 54.9066 18.432C55.0506 18.256 55.1626 18.2 55.2426 18.264C55.3226 18.328 55.3546 18.424 55.3386 18.552C55.3386 18.744 55.4106 18.92 55.5546 19.08C55.7146 19.224 55.8746 19.32 56.0346 19.368C56.2106 19.416 56.3546 19.408 56.4666 19.344C56.5946 19.264 56.6266 19.088 56.5626 18.816C56.5306 18.656 56.4746 18.496 56.3946 18.336C56.3306 18.16 56.2586 18.008 56.1786 17.88C55.9226 17.416 55.6266 16.944 55.2906 16.464C54.9706 15.984 54.6826 15.512 54.4266 15.048C54.1706 14.584 53.9866 14.144 53.8746 13.728C53.7786 13.312 53.8106 12.928 53.9706 12.576C54.0826 12.256 54.2506 11.92 54.4746 11.568C54.6986 11.2 54.9386 10.856 55.1946 10.536C55.4506 10.2 55.6826 9.912 55.8906 9.672C56.1146 9.416 56.2666 9.248 56.3466 9.168C56.8906 8.608 57.4426 8.216 58.0026 7.992C58.5786 7.752 59.1386 7.648 59.6826 7.68C60.0186 7.68 60.4026 7.744 60.8346 7.872C61.2666 7.984 61.6986 8.112 62.1306 8.256C62.5786 8.384 63.0106 8.504 63.4266 8.616C63.8586 8.728 64.2426 8.784 64.5786 8.784C64.7706 8.752 64.8826 8.752 64.9146 8.784C64.9626 8.816 64.9866 8.92 64.9866 9.096V17.496C64.9866 17.752 65.0186 17.984 65.0826 18.192C65.1626 18.384 65.3226 18.56 65.5626 18.72C65.6586 18.8 65.6586 18.888 65.5626 18.984C65.4506 19.096 65.3466 19.24 65.2506 19.416C65.1546 19.592 65.0586 19.768 64.9626 19.944C64.8666 20.12 64.7626 20.288 64.6506 20.448C64.5386 20.608 64.4106 20.736 64.2666 20.832C63.9146 21.056 63.5546 21.056 63.1866 20.832C62.8986 20.656 62.6666 20.448 62.4906 20.208C62.3306 19.952 62.1226 19.712 61.8666 19.488C61.8186 19.376 61.8186 19.288 61.8666 19.224C62.1066 19.064 62.2586 18.888 62.3226 18.696C62.4026 18.488 62.4426 18.248 62.4426 17.976V11.016C62.1866 10.984 61.9226 10.912 61.6506 10.8C61.3946 10.688 61.1306 10.568 60.8586 10.44C60.6026 10.312 60.3306 10.184 60.0426 10.056C59.7546 9.912 59.4426 9.792 59.1066 9.696ZM70.105 12.168C70.089 11.384 69.937 10.856 69.649 10.584C69.377 10.312 69.025 10.232 68.593 10.344C68.497 10.392 68.425 10.392 68.377 10.344C68.345 10.296 68.345 10.24 68.377 10.176C68.537 9.92 68.705 9.64 68.881 9.336C69.073 9.032 69.265 8.76 69.457 8.52C69.649 8.264 69.849 8.056 70.057 7.896C70.265 7.736 70.473 7.664 70.681 7.68C71.001 7.696 71.281 7.816 71.521 8.04C71.777 8.248 72.001 8.488 72.193 8.76C72.385 9.032 72.561 9.304 72.721 9.576C72.881 9.848 73.033 10.048 73.177 10.176C73.305 10.24 73.305 10.32 73.177 10.416C73.033 10.432 72.921 10.496 72.841 10.608C72.761 10.704 72.705 10.824 72.673 10.968C72.657 11.112 72.649 11.264 72.649 11.424C72.649 11.568 72.649 11.704 72.649 11.832V14.568C72.969 14.664 73.313 14.8 73.681 14.976C74.049 15.152 74.401 15.352 74.737 15.576C75.089 15.8 75.401 16.04 75.673 16.296C75.961 16.552 76.177 16.8 76.321 17.04V10.68C76.321 10.424 76.281 10.2 76.201 10.008C76.137 9.8 75.985 9.616 75.745 9.456C75.665 9.36 75.665 9.272 75.745 9.192C75.985 8.968 76.185 8.736 76.345 8.496C76.521 8.24 76.753 8.024 77.041 7.848C77.409 7.608 77.769 7.608 78.121 7.848C78.265 7.928 78.393 8.048 78.505 8.208C78.617 8.368 78.721 8.544 78.817 8.736C78.913 8.912 79.009 9.088 79.105 9.264C79.201 9.44 79.313 9.584 79.441 9.696C79.505 9.792 79.505 9.872 79.441 9.936C79.201 10.112 79.041 10.296 78.961 10.488C78.897 10.68 78.865 10.912 78.865 11.184V17.976C78.865 18.248 78.897 18.488 78.961 18.696C79.041 18.888 79.201 19.064 79.441 19.224C79.505 19.304 79.505 19.392 79.441 19.488C79.185 19.712 78.937 19.968 78.697 20.256C78.473 20.528 78.217 20.752 77.929 20.928C77.833 20.976 77.721 21 77.593 21C77.465 20.984 77.329 20.952 77.185 20.904C77.057 20.84 76.929 20.776 76.801 20.712C76.673 20.632 76.569 20.56 76.489 20.496C76.329 20.368 76.169 20.128 76.009 19.776C75.865 19.408 75.665 19.008 75.409 18.576C75.153 18.128 74.809 17.68 74.377 17.232C73.945 16.768 73.369 16.368 72.649 16.032V19.776C72.377 20.096 72.121 20.384 71.881 20.64C71.657 20.88 71.361 21 70.993 21C70.801 21 70.617 20.944 70.441 20.832C70.233 20.704 69.969 20.48 69.649 20.16C69.329 19.824 69.009 19.448 68.689 19.032C68.385 18.6 68.105 18.16 67.849 17.712C67.609 17.264 67.449 16.864 67.369 16.512C67.417 16.384 67.529 16.224 67.705 16.032C67.881 15.824 68.089 15.624 68.329 15.432C68.585 15.224 68.865 15.04 69.169 14.88C69.489 14.704 69.801 14.584 70.105 14.52V12.168ZM70.153 15.792C70.089 15.808 69.993 15.856 69.865 15.936C69.737 16 69.601 16.08 69.457 16.176C69.329 16.256 69.209 16.344 69.097 16.44C69.001 16.52 68.937 16.592 68.905 16.656C68.953 16.752 69.033 16.896 69.145 17.088C69.257 17.264 69.377 17.448 69.505 17.64C69.633 17.832 69.753 18.024 69.865 18.216C69.993 18.392 70.089 18.528 70.153 18.624V15.792ZM78.988 4.656C78.716 5.216 78.42 5.632 78.1 5.904C77.764 6.176 77.468 6.272 77.212 6.192C77.036 6.144 76.812 6.008 76.54 5.784C76.252 5.544 75.932 5.288 75.58 5.016C75.212 4.744 74.804 4.488 74.356 4.248C73.908 4.008 73.42 3.856 72.892 3.792C72.54 3.744 72.324 3.784 72.244 3.912C72.164 4.024 72.172 4.168 72.268 4.344C72.364 4.504 72.524 4.664 72.748 4.824C72.972 4.968 73.228 5.064 73.516 5.112C73.564 5.128 73.58 5.168 73.564 5.232C73.532 5.296 73.492 5.368 73.444 5.448C73.38 5.528 73.316 5.608 73.252 5.688C73.188 5.752 73.14 5.8 73.108 5.832C72.932 5.992 72.716 6.112 72.46 6.192C72.188 6.256 71.916 6.256 71.644 6.192C71.372 6.112 71.124 5.96 70.9 5.736C70.676 5.512 70.524 5.176 70.444 4.728C71.052 3.752 71.692 3.072 72.364 2.688C73.036 2.288 73.708 2.104 74.38 2.136C74.652 2.136 75.012 2.248 75.46 2.472C75.892 2.68 76.26 2.936 76.564 3.24V2.76C76.564 2.376 76.676 2.032 76.9 1.728C77.124 1.408 77.42 1.256 77.788 1.272C78.108 1.288 78.396 1.424 78.652 1.68C78.892 1.92 79.124 2.144 79.348 2.352C79.412 2.416 79.412 2.496 79.348 2.592C79.252 2.656 79.188 2.712 79.156 2.76C79.108 2.808 79.076 2.864 79.06 2.928C79.028 2.992 79.012 3.072 79.012 3.168C79.012 3.264 79.012 3.392 79.012 3.552V4.512C79.012 4.544 79.012 4.568 79.012 4.584C78.996 4.6 78.988 4.624 78.988 4.656ZM86.716 9.696C86.428 9.616 86.172 9.552 85.948 9.504C85.724 9.456 85.516 9.448 85.324 9.48C85.148 9.496 84.98 9.56 84.82 9.672C84.66 9.768 84.492 9.936 84.316 10.176C84.108 10.432 83.932 10.712 83.788 11.016C83.66 11.32 83.628 11.616 83.692 11.904C83.724 12.128 83.812 12.384 83.956 12.672C84.116 12.944 84.292 13.24 84.484 13.56C84.692 13.88 84.9 14.224 85.108 14.592C85.332 14.96 85.54 15.336 85.732 15.72C85.764 15.768 85.78 15.816 85.78 15.864C85.796 15.896 85.82 15.936 85.852 15.984C85.932 15.776 86.028 15.552 86.14 15.312C86.268 15.072 86.396 14.848 86.524 14.64C86.668 14.416 86.804 14.224 86.932 14.064C87.076 13.904 87.204 13.8 87.316 13.752C87.492 13.688 87.676 13.704 87.868 13.8C88.076 13.88 88.276 14 88.468 14.16C88.676 14.32 88.86 14.504 89.02 14.712C89.18 14.904 89.3 15.088 89.38 15.264C89.396 15.44 89.348 15.624 89.236 15.816C89.14 15.992 89.012 16.16 88.852 16.32C88.708 16.48 88.548 16.624 88.372 16.752C88.212 16.864 88.076 16.944 87.964 16.992C87.884 17.056 87.812 17.04 87.748 16.944C87.732 16.8 87.676 16.64 87.58 16.464C87.5 16.288 87.396 16.144 87.268 16.032C87.156 15.92 87.036 15.864 86.908 15.864C86.78 15.864 86.66 15.96 86.548 16.152C86.5 16.248 86.436 16.416 86.356 16.656C86.292 16.896 86.236 17.12 86.188 17.328C86.204 17.904 85.98 18.472 85.516 19.032C85.372 19.208 85.196 19.4 84.988 19.608C84.78 19.816 84.556 20.016 84.316 20.208C84.092 20.4 83.852 20.576 83.596 20.736C83.356 20.88 83.124 20.976 82.9 21.024C82.276 20.912 81.876 20.736 81.7 20.496C81.54 20.24 81.492 19.976 81.556 19.704C81.636 19.432 81.78 19.176 81.988 18.936C82.212 18.696 82.388 18.528 82.516 18.432C82.66 18.256 82.772 18.2 82.852 18.264C82.932 18.328 82.964 18.424 82.948 18.552C82.948 18.744 83.02 18.92 83.164 19.08C83.324 19.224 83.484 19.32 83.644 19.368C83.82 19.416 83.964 19.408 84.076 19.344C84.204 19.264 84.236 19.088 84.172 18.816C84.14 18.656 84.084 18.496 84.004 18.336C83.94 18.16 83.868 18.008 83.788 17.88C83.532 17.416 83.236 16.944 82.9 16.464C82.58 15.984 82.292 15.512 82.036 15.048C81.78 14.584 81.596 14.144 81.484 13.728C81.388 13.312 81.42 12.928 81.58 12.576C81.692 12.256 81.86 11.92 82.084 11.568C82.308 11.2 82.548 10.856 82.804 10.536C83.06 10.2 83.292 9.912 83.5 9.672C83.724 9.416 83.876 9.248 83.956 9.168C84.5 8.608 85.052 8.216 85.612 7.992C86.188 7.752 86.748 7.648 87.292 7.68C87.628 7.68 88.012 7.744 88.444 7.872C88.876 7.984 89.308 8.112 89.74 8.256C90.188 8.384 90.62 8.504 91.036 8.616C91.468 8.728 91.852 8.784 92.188 8.784C92.38 8.752 92.492 8.752 92.524 8.784C92.572 8.816 92.596 8.92 92.596 9.096V17.496C92.596 17.752 92.628 17.984 92.692 18.192C92.772 18.384 92.932 18.56 93.172 18.72C93.268 18.8 93.268 18.888 93.172 18.984C93.06 19.096 92.956 19.24 92.86 19.416C92.764 19.592 92.668 19.768 92.572 19.944C92.476 20.12 92.372 20.288 92.26 20.448C92.148 20.608 92.02 20.736 91.876 20.832C91.524 21.056 91.164 21.056 90.796 20.832C90.508 20.656 90.276 20.448 90.1 20.208C89.94 19.952 89.732 19.712 89.476 19.488C89.428 19.376 89.428 19.288 89.476 19.224C89.716 19.064 89.868 18.888 89.932 18.696C90.012 18.488 90.052 18.248 90.052 17.976V11.016C89.796 10.984 89.532 10.912 89.26 10.8C89.004 10.688 88.74 10.568 88.468 10.44C88.212 10.312 87.94 10.184 87.652 10.056C87.364 9.912 87.052 9.792 86.716 9.696ZM97.9544 10.872C98.0184 10.888 98.0344 10.936 98.0024 11.016C97.9704 11.08 97.9224 11.152 97.8584 11.232C97.8104 11.312 97.7464 11.392 97.6664 11.472C97.6024 11.552 97.5544 11.608 97.5224 11.64C97.3304 11.8 97.0904 11.92 96.8024 12C96.5144 12.064 96.2264 12.064 95.9384 12C95.6504 11.936 95.3864 11.784 95.1464 11.544C94.9064 11.304 94.7384 10.952 94.6424 10.488C95.3144 9.448 96.0264 8.712 96.7784 8.28C97.5464 7.848 98.2904 7.648 99.0104 7.68C99.3464 7.68 99.6664 7.744 99.9704 7.872C100.29 7.984 100.602 8.112 100.906 8.256C101.226 8.384 101.538 8.504 101.842 8.616C102.162 8.728 102.49 8.784 102.826 8.784C103.002 8.752 103.114 8.752 103.162 8.784C103.21 8.816 103.234 8.92 103.234 9.096V17.496C103.234 17.752 103.266 17.984 103.33 18.192C103.41 18.384 103.57 18.56 103.81 18.72C103.874 18.8 103.874 18.888 103.81 18.984C103.682 19.096 103.57 19.24 103.474 19.416C103.378 19.592 103.282 19.768 103.186 19.944C103.09 20.12 102.986 20.288 102.874 20.448C102.778 20.608 102.658 20.736 102.514 20.832C102.13 21.04 101.762 21.04 101.41 20.832C101.122 20.656 100.89 20.448 100.714 20.208C100.554 19.952 100.354 19.712 100.114 19.488C100.034 19.392 100.034 19.304 100.114 19.224C100.354 19.064 100.506 18.888 100.57 18.696C100.65 18.488 100.69 18.248 100.69 17.976V10.896C100.514 10.864 100.322 10.784 100.114 10.656C99.9224 10.512 99.6904 10.368 99.4184 10.224C99.1624 10.064 98.8584 9.912 98.5064 9.768C98.1704 9.624 97.7784 9.528 97.3304 9.48C96.9304 9.432 96.6824 9.472 96.5864 9.6C96.4904 9.728 96.4904 9.88 96.5864 10.056C96.6824 10.216 96.8584 10.384 97.1144 10.56C97.3704 10.72 97.6504 10.824 97.9544 10.872ZM108.793 16.488C108.809 17.272 108.961 17.808 109.249 18.096C109.537 18.368 109.897 18.44 110.329 18.312C110.409 18.28 110.473 18.288 110.521 18.336C110.569 18.384 110.569 18.44 110.521 18.504C110.361 18.76 110.193 19.04 110.017 19.344C109.841 19.632 109.657 19.904 109.465 20.16C109.273 20.416 109.073 20.624 108.865 20.784C108.657 20.944 108.441 21.016 108.217 21C107.913 20.984 107.633 20.872 107.377 20.664C107.137 20.44 106.913 20.192 106.705 19.92C106.513 19.632 106.337 19.352 106.177 19.08C106.017 18.808 105.865 18.616 105.721 18.504C105.673 18.472 105.649 18.432 105.649 18.384C105.665 18.336 105.689 18.296 105.721 18.264C105.881 18.248 105.993 18.192 106.057 18.096C106.137 17.984 106.185 17.856 106.201 17.712C106.233 17.568 106.249 17.416 106.249 17.256C106.249 17.096 106.249 16.952 106.249 16.824V10.68C106.249 10.424 106.209 10.2 106.129 10.008C106.065 9.8 105.913 9.616 105.673 9.456C105.609 9.376 105.609 9.288 105.673 9.192C105.929 8.968 106.137 8.736 106.297 8.496C106.473 8.24 106.705 8.024 106.993 7.848C107.361 7.608 107.721 7.608 108.073 7.848C108.217 7.928 108.345 8.048 108.457 8.208C108.569 8.368 108.673 8.544 108.769 8.736C108.865 8.912 108.961 9.088 109.057 9.264C109.153 9.44 109.257 9.584 109.369 9.696C109.465 9.792 109.465 9.872 109.369 9.936C109.129 10.112 108.969 10.296 108.889 10.488C108.825 10.68 108.793 10.912 108.793 11.184V16.488ZM115.753 9.936C115.513 10.112 115.353 10.296 115.273 10.488C115.209 10.68 115.177 10.912 115.177 11.184V16.488C115.193 17.272 115.337 17.808 115.609 18.096C115.897 18.368 116.257 18.44 116.689 18.312C116.785 18.28 116.849 18.288 116.881 18.336C116.929 18.384 116.937 18.44 116.905 18.504C116.745 18.76 116.569 19.04 116.377 19.344C116.201 19.632 116.017 19.904 115.825 20.16C115.633 20.416 115.433 20.624 115.225 20.784C115.033 20.944 114.825 21.016 114.601 21C114.281 20.984 113.993 20.872 113.737 20.664C113.497 20.44 113.281 20.192 113.089 19.92C112.897 19.632 112.721 19.352 112.561 19.08C112.401 18.808 112.249 18.616 112.105 18.504C112.057 18.472 112.033 18.432 112.033 18.384C112.033 18.336 112.057 18.296 112.105 18.264C112.249 18.248 112.361 18.192 112.441 18.096C112.521 17.984 112.569 17.856 112.585 17.712C112.617 17.568 112.633 17.416 112.633 17.256C112.633 17.096 112.633 16.952 112.633 16.824V10.68C112.633 10.424 112.593 10.2 112.513 10.008C112.449 9.8 112.297 9.616 112.057 9.456C111.977 9.36 111.977 9.272 112.057 9.192C112.297 8.968 112.497 8.736 112.657 8.496C112.833 8.24 113.065 8.024 113.353 7.848C113.705 7.608 114.073 7.608 114.457 7.848C114.601 7.928 114.721 8.048 114.817 8.208C114.929 8.368 115.033 8.544 115.129 8.736C115.225 8.912 115.321 9.088 115.417 9.264C115.513 9.44 115.625 9.584 115.753 9.696C115.817 9.792 115.817 9.872 115.753 9.936ZM122.831 16.488V14.16C122.447 14.016 122.031 13.864 121.583 13.704C121.135 13.528 120.671 13.36 120.191 13.2C119.711 13.04 119.239 12.904 118.775 12.792C118.311 12.664 117.871 12.592 117.455 12.576C117.375 12.56 117.287 12.504 117.191 12.408C117.111 12.296 117.135 12.104 117.263 11.832C117.487 11.336 117.727 10.84 117.983 10.344C118.239 9.832 118.535 9.376 118.871 8.976C119.223 8.576 119.623 8.256 120.071 8.016C120.535 7.76 121.071 7.648 121.679 7.68C122.015 7.696 122.311 7.744 122.567 7.824C122.823 7.888 123.063 7.968 123.287 8.064C123.511 8.16 123.743 8.272 123.983 8.4C124.223 8.512 124.487 8.624 124.775 8.736C124.887 8.768 124.975 8.768 125.039 8.736C125.119 8.704 125.159 8.648 125.159 8.568C125.159 8.488 125.111 8.4 125.015 8.304C124.919 8.208 124.759 8.112 124.535 8.016C124.567 7.888 124.615 7.744 124.679 7.584C124.743 7.424 124.815 7.28 124.895 7.152C124.991 7.008 125.103 6.904 125.231 6.84C125.375 6.76 125.535 6.744 125.711 6.792C126.015 6.888 126.207 7.064 126.287 7.32C126.383 7.56 126.399 7.832 126.335 8.136C126.271 8.44 126.151 8.76 125.975 9.096C125.799 9.432 125.599 9.736 125.375 10.008C125.151 10.28 124.911 10.504 124.655 10.68C124.415 10.856 124.199 10.936 124.007 10.92C123.623 10.872 123.215 10.736 122.783 10.512C122.351 10.288 121.927 10.096 121.511 9.936C121.111 9.76 120.727 9.672 120.359 9.672C119.991 9.672 119.671 9.872 119.399 10.272C119.335 10.32 119.255 10.44 119.159 10.632C119.079 10.808 119.023 10.936 118.991 11.016C119.215 11.032 119.511 11.096 119.879 11.208C120.263 11.304 120.671 11.424 121.103 11.568C121.535 11.712 121.967 11.864 122.399 12.024C122.847 12.184 123.247 12.328 123.599 12.456C124.159 12.584 124.615 12.648 124.967 12.648C125.143 12.616 125.255 12.616 125.303 12.648C125.351 12.68 125.375 12.784 125.375 12.96V16.824C125.375 16.952 125.375 17.096 125.375 17.256C125.375 17.416 125.383 17.568 125.399 17.712C125.431 17.856 125.479 17.984 125.543 18.096C125.623 18.192 125.743 18.248 125.903 18.264C125.951 18.296 125.975 18.336 125.975 18.384C125.975 18.432 125.951 18.472 125.903 18.504C125.759 18.616 125.607 18.808 125.447 19.08C125.287 19.352 125.103 19.632 124.895 19.92C124.703 20.192 124.487 20.44 124.247 20.664C124.007 20.872 123.727 20.984 123.407 21C123.183 21.016 122.967 20.944 122.759 20.784C122.551 20.624 122.351 20.416 122.159 20.16C121.967 19.904 121.783 19.632 121.607 19.344C121.431 19.04 121.263 18.76 121.103 18.504C121.071 18.44 121.071 18.384 121.103 18.336C121.151 18.288 121.223 18.28 121.319 18.312C121.735 18.44 122.087 18.368 122.375 18.096C122.663 17.808 122.815 17.272 122.831 16.488ZM133.521 9.696C133.233 9.616 132.977 9.552 132.753 9.504C132.529 9.456 132.321 9.448 132.129 9.48C131.953 9.496 131.785 9.56 131.625 9.672C131.465 9.768 131.297 9.936 131.121 10.176C130.913 10.432 130.737 10.712 130.593 11.016C130.465 11.32 130.433 11.616 130.497 11.904C130.529 12.128 130.617 12.384 130.761 12.672C130.921 12.944 131.097 13.24 131.289 13.56C131.497 13.88 131.705 14.224 131.913 14.592C132.137 14.96 132.345 15.336 132.537 15.72C132.569 15.768 132.585 15.816 132.585 15.864C132.601 15.896 132.625 15.936 132.657 15.984C132.737 15.776 132.833 15.552 132.945 15.312C133.073 15.072 133.201 14.848 133.329 14.64C133.473 14.416 133.609 14.224 133.737 14.064C133.881 13.904 134.009 13.8 134.121 13.752C134.297 13.688 134.481 13.704 134.673 13.8C134.881 13.88 135.081 14 135.273 14.16C135.481 14.32 135.665 14.504 135.825 14.712C135.985 14.904 136.105 15.088 136.185 15.264C136.201 15.44 136.153 15.624 136.041 15.816C135.945 15.992 135.817 16.16 135.657 16.32C135.513 16.48 135.353 16.624 135.177 16.752C135.017 16.864 134.881 16.944 134.769 16.992C134.689 17.056 134.617 17.04 134.553 16.944C134.537 16.8 134.481 16.64 134.385 16.464C134.305 16.288 134.201 16.144 134.073 16.032C133.961 15.92 133.841 15.864 133.713 15.864C133.585 15.864 133.465 15.96 133.353 16.152C133.305 16.248 133.241 16.416 133.161 16.656C133.097 16.896 133.041 17.12 132.993 17.328C133.009 17.904 132.785 18.472 132.321 19.032C132.177 19.208 132.001 19.4 131.793 19.608C131.585 19.816 131.361 20.016 131.121 20.208C130.897 20.4 130.657 20.576 130.401 20.736C130.161 20.88 129.929 20.976 129.705 21.024C129.081 20.912 128.681 20.736 128.505 20.496C128.345 20.24 128.297 19.976 128.361 19.704C128.441 19.432 128.585 19.176 128.793 18.936C129.017 18.696 129.193 18.528 129.321 18.432C129.465 18.256 129.577 18.2 129.657 18.264C129.737 18.328 129.769 18.424 129.753 18.552C129.753 18.744 129.825 18.92 129.969 19.08C130.129 19.224 130.289 19.32 130.449 19.368C130.625 19.416 130.769 19.408 130.881 19.344C131.009 19.264 131.041 19.088 130.977 18.816C130.945 18.656 130.889 18.496 130.809 18.336C130.745 18.16 130.673 18.008 130.593 17.88C130.337 17.416 130.041 16.944 129.705 16.464C129.385 15.984 129.097 15.512 128.841 15.048C128.585 14.584 128.401 14.144 128.289 13.728C128.193 13.312 128.225 12.928 128.385 12.576C128.497 12.256 128.665 11.92 128.889 11.568C129.113 11.2 129.353 10.856 129.609 10.536C129.865 10.2 130.097 9.912 130.305 9.672C130.529 9.416 130.681 9.248 130.761 9.168C131.305 8.608 131.857 8.216 132.417 7.992C132.993 7.752 133.553 7.648 134.097 7.68C134.433 7.68 134.817 7.744 135.249 7.872C135.681 7.984 136.113 8.112 136.545 8.256C136.993 8.384 137.425 8.504 137.841 8.616C138.273 8.728 138.657 8.784 138.993 8.784C139.185 8.752 139.297 8.752 139.329 8.784C139.377 8.816 139.401 8.92 139.401 9.096V17.496C139.401 17.752 139.433 17.984 139.497 18.192C139.577 18.384 139.737 18.56 139.977 18.72C140.073 18.8 140.073 18.888 139.977 18.984C139.865 19.096 139.761 19.24 139.665 19.416C139.569 19.592 139.473 19.768 139.377 19.944C139.281 20.12 139.177 20.288 139.065 20.448C138.953 20.608 138.825 20.736 138.681 20.832C138.329 21.056 137.969 21.056 137.601 20.832C137.313 20.656 137.081 20.448 136.905 20.208C136.745 19.952 136.537 19.712 136.281 19.488C136.233 19.376 136.233 19.288 136.281 19.224C136.521 19.064 136.673 18.888 136.737 18.696C136.817 18.488 136.857 18.248 136.857 17.976V11.016C136.601 10.984 136.337 10.912 136.065 10.8C135.809 10.688 135.545 10.568 135.273 10.44C135.017 10.312 134.745 10.184 134.457 10.056C134.169 9.912 133.857 9.792 133.521 9.696ZM145.767 9.936C145.527 10.112 145.367 10.296 145.287 10.488C145.223 10.68 145.191 10.912 145.191 11.184V16.488C145.207 17.272 145.359 17.808 145.647 18.096C145.935 18.368 146.295 18.44 146.727 18.312C146.807 18.28 146.871 18.288 146.919 18.336C146.967 18.384 146.967 18.44 146.919 18.504C146.759 18.76 146.591 19.04 146.415 19.344C146.239 19.632 146.055 19.904 145.863 20.16C145.671 20.416 145.471 20.624 145.263 20.784C145.055 20.944 144.839 21.016 144.615 21C144.311 20.984 144.031 20.872 143.775 20.664C143.535 20.44 143.311 20.192 143.103 19.92C142.911 19.632 142.735 19.352 142.575 19.08C142.415 18.808 142.263 18.616 142.119 18.504C142.071 18.472 142.047 18.432 142.047 18.384C142.063 18.336 142.087 18.296 142.119 18.264C142.279 18.248 142.391 18.192 142.455 18.096C142.535 17.984 142.583 17.856 142.599 17.712C142.631 17.568 142.647 17.416 142.647 17.256C142.647 17.096 142.647 16.952 142.647 16.824V10.68C142.647 10.424 142.607 10.2 142.527 10.008C142.463 9.8 142.311 9.616 142.071 9.456C142.007 9.376 142.007 9.288 142.071 9.192C142.327 8.968 142.535 8.736 142.695 8.496C142.871 8.24 143.103 8.024 143.391 7.848C143.759 7.608 144.119 7.608 144.471 7.848C144.615 7.928 144.743 8.048 144.855 8.208C144.967 8.368 145.071 8.544 145.167 8.736C145.263 8.912 145.359 9.088 145.455 9.264C145.551 9.44 145.655 9.584 145.767 9.696C145.863 9.792 145.863 9.872 145.767 9.936ZM154.025 11.328C153.801 11.616 153.617 11.736 153.473 11.688C153.345 11.624 153.169 11.472 152.945 11.232C152.769 11.056 152.569 10.872 152.345 10.68C152.121 10.488 151.889 10.328 151.649 10.2C151.409 10.072 151.177 10 150.953 9.984C150.729 9.952 150.521 10.016 150.329 10.176C150.137 10.432 150.041 10.712 150.041 11.016C150.041 11.32 150.073 11.616 150.137 11.904C150.169 12.128 150.257 12.384 150.401 12.672C150.561 12.944 150.737 13.24 150.929 13.56C151.137 13.88 151.345 14.224 151.553 14.592C151.777 14.96 151.985 15.336 152.177 15.72C152.417 16.28 152.561 16.752 152.609 17.136C152.769 17.04 152.945 16.888 153.137 16.68C153.345 16.472 153.465 16.304 153.497 16.176C153.529 16.08 153.529 15.968 153.497 15.84C153.481 15.712 153.441 15.592 153.377 15.48C153.313 15.368 153.233 15.272 153.137 15.192C153.057 15.096 152.961 15.048 152.849 15.048C152.721 15.048 152.617 15.032 152.537 15C152.441 14.936 152.409 14.864 152.441 14.784C152.473 14.672 152.545 14.52 152.657 14.328C152.769 14.136 152.897 13.952 153.041 13.776C153.201 13.584 153.369 13.424 153.545 13.296C153.737 13.152 153.913 13.08 154.073 13.08C154.249 13.128 154.425 13.224 154.601 13.368C154.793 13.512 154.961 13.672 155.105 13.848C155.265 14.024 155.385 14.216 155.465 14.424C155.561 14.616 155.585 14.8 155.537 14.976C155.505 15.152 155.337 15.424 155.033 15.792C154.745 16.16 154.401 16.552 154.001 16.968C153.601 17.384 153.193 17.8 152.777 18.216C152.377 18.616 152.041 18.952 151.769 19.224C151.465 19.576 151.089 19.936 150.641 20.304C150.193 20.672 149.761 20.912 149.345 21.024C148.721 20.912 148.321 20.736 148.145 20.496C147.985 20.24 147.937 19.976 148.001 19.704C148.081 19.432 148.225 19.176 148.433 18.936C148.657 18.696 148.833 18.528 148.961 18.432C149.105 18.256 149.217 18.2 149.297 18.264C149.377 18.328 149.409 18.424 149.393 18.552C149.393 18.744 149.465 18.92 149.609 19.08C149.769 19.224 149.929 19.32 150.089 19.368C150.265 19.416 150.409 19.408 150.521 19.344C150.649 19.264 150.681 19.088 150.617 18.816C150.585 18.656 150.529 18.496 150.449 18.336C150.385 18.16 150.313 18.008 150.233 17.88C149.977 17.416 149.681 16.944 149.345 16.464C149.025 15.984 148.737 15.512 148.481 15.048C148.225 14.584 148.041 14.144 147.929 13.728C147.833 13.312 147.865 12.928 148.025 12.576C148.121 12.304 148.313 11.896 148.601 11.352C148.889 10.808 149.217 10.264 149.585 9.72C149.953 9.16 150.337 8.68 150.737 8.28C151.153 7.864 151.513 7.664 151.817 7.68C152.073 7.648 152.337 7.72 152.609 7.896C152.897 8.056 153.169 8.248 153.425 8.472C153.681 8.68 153.905 8.888 154.097 9.096C154.305 9.288 154.457 9.4 154.553 9.432C154.953 8.76 155.345 8.28 155.729 7.992C156.129 7.704 156.449 7.6 156.689 7.68C156.881 7.728 157.081 7.816 157.289 7.944C157.497 8.056 157.705 8.176 157.913 8.304C158.121 8.416 158.313 8.52 158.489 8.616C158.681 8.696 158.849 8.736 158.993 8.736C159.169 8.704 159.281 8.704 159.329 8.736C159.377 8.768 159.401 8.872 159.401 9.048V17.496C159.401 17.752 159.433 17.984 159.497 18.192C159.577 18.384 159.737 18.56 159.977 18.72C160.041 18.8 160.041 18.888 159.977 18.984C159.849 19.096 159.737 19.24 159.641 19.416C159.545 19.592 159.449 19.768 159.353 19.944C159.257 20.12 159.153 20.288 159.041 20.448C158.945 20.608 158.825 20.736 158.681 20.832C158.313 21.056 157.945 21.056 157.577 20.832C157.289 20.656 157.057 20.448 156.881 20.208C156.721 19.952 156.521 19.712 156.281 19.488C156.217 19.392 156.217 19.304 156.281 19.224C156.521 19.064 156.673 18.888 156.737 18.696C156.817 18.488 156.857 18.248 156.857 17.976V10.656C156.633 10.624 156.369 10.512 156.065 10.32C155.761 10.128 155.481 9.976 155.225 9.864C155.193 9.848 155.129 9.888 155.033 9.984C154.953 10.08 154.849 10.208 154.721 10.368C154.609 10.512 154.489 10.672 154.361 10.848C154.249 11.024 154.137 11.184 154.025 11.328ZM166.527 14.52C166.335 14.36 166.143 14.368 165.951 14.544C165.759 14.72 165.575 14.96 165.399 15.264C165.239 15.552 165.103 15.864 164.991 16.2C164.895 16.52 164.847 16.752 164.847 16.896C164.879 17.232 165.007 17.544 165.231 17.832C165.471 18.104 165.751 18.344 166.071 18.552C166.391 18.76 166.735 18.92 167.103 19.032C167.487 19.144 167.831 19.208 168.135 19.224C168.503 19.256 168.871 19.248 169.239 19.2C169.607 19.152 169.927 19.04 170.199 18.864V11.016C169.943 10.984 169.623 10.912 169.239 10.8C168.855 10.688 168.455 10.568 168.039 10.44C167.639 10.312 167.231 10.184 166.815 10.056C166.415 9.912 166.047 9.792 165.711 9.696C165.215 9.552 164.823 9.48 164.535 9.48C164.247 9.464 164.039 9.496 163.911 9.576C163.799 9.656 163.759 9.76 163.791 9.888C163.823 10.016 163.903 10.152 164.031 10.296C164.175 10.424 164.351 10.544 164.559 10.656C164.767 10.768 164.991 10.84 165.231 10.872C165.295 10.888 165.311 10.936 165.279 11.016C165.247 11.08 165.199 11.152 165.135 11.232C165.087 11.312 165.023 11.392 164.943 11.472C164.879 11.552 164.831 11.608 164.799 11.64C164.607 11.8 164.367 11.92 164.079 12C163.791 12.064 163.503 12.064 163.215 12C162.927 11.92 162.663 11.76 162.423 11.52C162.183 11.28 162.015 10.928 161.919 10.464C162.591 9.424 163.303 8.696 164.055 8.28C164.823 7.848 165.567 7.648 166.287 7.68C166.623 7.68 167.063 7.744 167.607 7.872C168.151 7.984 168.719 8.112 169.311 8.256C169.903 8.384 170.471 8.504 171.015 8.616C171.559 8.728 171.999 8.784 172.335 8.784C172.511 8.752 172.623 8.752 172.671 8.784C172.719 8.816 172.743 8.92 172.743 9.096V19.584C172.743 19.76 172.719 19.864 172.671 19.896C172.623 19.928 172.511 19.928 172.335 19.896C171.999 19.896 171.567 19.952 171.039 20.064C170.511 20.176 169.967 20.304 169.407 20.448C168.847 20.576 168.303 20.704 167.775 20.832C167.247 20.944 166.815 21 166.479 21C165.951 21.016 165.471 20.936 165.039 20.76C164.607 20.584 164.223 20.368 163.887 20.112C163.551 19.84 163.263 19.544 163.023 19.224C162.799 18.888 162.631 18.576 162.519 18.288C162.375 17.904 162.327 17.544 162.375 17.208C162.407 16.904 162.519 16.504 162.711 16.008C162.919 15.496 163.167 15 163.455 14.52C163.743 14.04 164.063 13.632 164.415 13.296C164.767 12.944 165.111 12.784 165.447 12.816C165.591 12.832 165.751 12.896 165.927 13.008C166.103 13.104 166.271 13.224 166.431 13.368C166.607 13.512 166.775 13.672 166.935 13.848C167.111 14.008 167.271 14.168 167.415 14.328C167.655 14.584 167.847 14.84 167.991 15.096C168.151 15.336 168.247 15.584 168.279 15.84C168.311 16.096 168.271 16.352 168.159 16.608C168.047 16.848 167.847 17.096 167.559 17.352C167.447 17.32 167.303 17.248 167.127 17.136C166.967 17.024 166.807 16.896 166.647 16.752C166.503 16.608 166.359 16.456 166.215 16.296C166.087 16.136 165.999 16.008 165.951 15.912C165.919 15.832 165.911 15.768 165.927 15.72C165.959 15.656 166.015 15.624 166.095 15.624C166.335 15.448 166.495 15.256 166.575 15.048C166.671 14.84 166.655 14.664 166.527 14.52ZM180.065 16.488V14.16C179.681 14.016 179.265 13.864 178.817 13.704C178.369 13.528 177.905 13.36 177.425 13.2C176.945 13.04 176.473 12.904 176.009 12.792C175.545 12.664 175.105 12.592 174.689 12.576C174.609 12.56 174.521 12.504 174.425 12.408C174.345 12.296 174.369 12.104 174.497 11.832C174.721 11.336 174.961 10.84 175.217 10.344C175.473 9.832 175.769 9.376 176.105 8.976C176.457 8.576 176.857 8.256 177.305 8.016C177.769 7.76 178.305 7.648 178.913 7.68C179.249 7.696 179.545 7.744 179.801 7.824C180.057 7.888 180.297 7.968 180.521 8.064C180.745 8.16 180.977 8.272 181.217 8.4C181.457 8.512 181.721 8.624 182.009 8.736C182.121 8.768 182.209 8.768 182.273 8.736C182.353 8.704 182.393 8.648 182.393 8.568C182.393 8.488 182.345 8.4 182.249 8.304C182.153 8.208 181.993 8.112 181.769 8.016C181.801 7.888 181.849 7.744 181.913 7.584C181.977 7.424 182.049 7.28 182.129 7.152C182.225 7.008 182.337 6.904 182.465 6.84C182.609 6.76 182.769 6.744 182.945 6.792C183.249 6.888 183.441 7.064 183.521 7.32C183.617 7.56 183.633 7.832 183.569 8.136C183.505 8.44 183.385 8.76 183.209 9.096C183.033 9.432 182.833 9.736 182.609 10.008C182.385 10.28 182.145 10.504 181.889 10.68C181.649 10.856 181.433 10.936 181.241 10.92C180.857 10.872 180.449 10.736 180.017 10.512C179.585 10.288 179.161 10.096 178.745 9.936C178.345 9.76 177.961 9.672 177.593 9.672C177.225 9.672 176.905 9.872 176.633 10.272C176.569 10.32 176.489 10.44 176.393 10.632C176.313 10.808 176.257 10.936 176.225 11.016C176.449 11.032 176.745 11.096 177.113 11.208C177.497 11.304 177.905 11.424 178.337 11.568C178.769 11.712 179.201 11.864 179.633 12.024C180.081 12.184 180.481 12.328 180.833 12.456C181.393 12.584 181.849 12.648 182.201 12.648C182.377 12.616 182.489 12.616 182.537 12.648C182.585 12.68 182.609 12.784 182.609 12.96V16.824C182.609 16.952 182.609 17.096 182.609 17.256C182.609 17.416 182.617 17.568 182.633 17.712C182.665 17.856 182.713 17.984 182.777 18.096C182.857 18.192 182.977 18.248 183.137 18.264C183.185 18.296 183.209 18.336 183.209 18.384C183.209 18.432 183.185 18.472 183.137 18.504C182.993 18.616 182.841 18.808 182.681 19.08C182.521 19.352 182.337 19.632 182.129 19.92C181.937 20.192 181.721 20.44 181.481 20.664C181.241 20.872 180.961 20.984 180.641 21C180.417 21.016 180.201 20.944 179.993 20.784C179.785 20.624 179.585 20.416 179.393 20.16C179.201 19.904 179.017 19.632 178.841 19.344C178.665 19.04 178.497 18.76 178.337 18.504C178.305 18.44 178.305 18.384 178.337 18.336C178.385 18.288 178.457 18.28 178.553 18.312C178.969 18.44 179.321 18.368 179.609 18.096C179.897 17.808 180.049 17.272 180.065 16.488ZM180.555 4.728C180.443 4.744 180.363 4.712 180.315 4.632C180.267 4.536 180.267 4.464 180.315 4.416C180.459 4.272 180.619 4.136 180.795 4.008C180.955 3.88 181.131 3.832 181.323 3.864C181.499 3.896 181.659 4.008 181.803 4.2C181.947 4.392 182.019 4.576 182.019 4.752C181.987 4.944 181.907 5.128 181.779 5.304C181.635 5.464 181.475 5.608 181.299 5.736C181.123 5.864 180.939 5.968 180.747 6.048C180.539 6.128 180.355 6.176 180.195 6.192C179.939 6.192 179.667 6.152 179.379 6.072C179.091 5.976 178.819 5.848 178.563 5.688C178.307 5.512 178.099 5.304 177.939 5.064C177.779 4.808 177.707 4.504 177.723 4.152C177.819 3.736 178.019 3.432 178.323 3.24C178.627 3.032 178.947 2.88 179.283 2.784C179.619 2.672 179.931 2.592 180.219 2.544C180.507 2.48 180.675 2.392 180.723 2.28C180.739 2.232 180.747 2.176 180.747 2.112C180.731 2.032 180.715 1.96 180.699 1.896C180.667 1.816 180.627 1.752 180.579 1.704C180.531 1.656 180.483 1.64 180.435 1.656C180.291 1.672 180.195 1.648 180.147 1.584C180.083 1.52 180.067 1.448 180.099 1.368C180.131 1.304 180.219 1.216 180.363 1.104C180.507 0.975999 180.675 0.855999 180.867 0.743999C181.043 0.615999 181.227 0.511999 181.419 0.431999C181.595 0.335999 181.747 0.295999 181.875 0.311999C182.083 0.407999 182.267 0.575999 182.427 0.816C182.571 1.056 182.635 1.28 182.619 1.488C182.619 1.696 182.579 1.88 182.499 2.04C182.403 2.2 182.283 2.336 182.139 2.448C181.995 2.56 181.835 2.664 181.659 2.76C181.483 2.84 181.299 2.92 181.107 3C180.803 3.128 180.507 3.312 180.219 3.552C179.915 3.776 179.739 4.024 179.691 4.296C179.643 4.52 179.699 4.736 179.859 4.944C180.003 5.136 180.147 5.232 180.291 5.232C180.403 5.232 180.483 5.184 180.531 5.088C180.579 4.976 180.587 4.856 180.555 4.728ZM188.691 16.488C188.707 17.272 188.859 17.808 189.147 18.096C189.435 18.368 189.795 18.44 190.227 18.312C190.307 18.28 190.371 18.288 190.419 18.336C190.467 18.384 190.467 18.44 190.419 18.504C190.259 18.76 190.091 19.04 189.915 19.344C189.739 19.632 189.555 19.904 189.363 20.16C189.171 20.416 188.971 20.624 188.763 20.784C188.555 20.944 188.339 21.016 188.115 21C187.811 20.984 187.531 20.872 187.275 20.664C187.035 20.44 186.811 20.192 186.603 19.92C186.411 19.632 186.235 19.352 186.075 19.08C185.915 18.808 185.763 18.616 185.619 18.504C185.571 18.472 185.547 18.432 185.547 18.384C185.563 18.336 185.587 18.296 185.619 18.264C185.779 18.248 185.891 18.192 185.955 18.096C186.035 17.984 186.083 17.856 186.099 17.712C186.131 17.568 186.147 17.416 186.147 17.256C186.147 17.096 186.147 16.952 186.147 16.824V10.68C186.147 10.424 186.107 10.2 186.027 10.008C185.963 9.8 185.811 9.616 185.571 9.456C185.507 9.376 185.507 9.288 185.571 9.192C185.827 8.968 186.035 8.736 186.195 8.496C186.371 8.24 186.603 8.024 186.891 7.848C187.259 7.608 187.619 7.608 187.971 7.848C188.115 7.928 188.243 8.048 188.355 8.208C188.467 8.368 188.571 8.544 188.667 8.736C188.763 8.912 188.859 9.088 188.955 9.264C189.051 9.44 189.155 9.584 189.267 9.696C189.363 9.792 189.363 9.872 189.267 9.936C189.027 10.112 188.867 10.296 188.787 10.488C188.723 10.68 188.691 10.912 188.691 11.184V16.488ZM195.651 9.936C195.411 10.112 195.251 10.296 195.171 10.488C195.107 10.68 195.075 10.912 195.075 11.184V16.488C195.091 17.272 195.235 17.808 195.507 18.096C195.795 18.368 196.155 18.44 196.587 18.312C196.683 18.28 196.747 18.288 196.779 18.336C196.827 18.384 196.835 18.44 196.803 18.504C196.643 18.76 196.467 19.04 196.275 19.344C196.099 19.632 195.915 19.904 195.723 20.16C195.531 20.416 195.331 20.624 195.123 20.784C194.931 20.944 194.723 21.016 194.499 21C194.179 20.984 193.891 20.872 193.635 20.664C193.395 20.44 193.179 20.192 192.987 19.92C192.795 19.632 192.619 19.352 192.459 19.08C192.299 18.808 192.147 18.616 192.003 18.504C191.955 18.472 191.931 18.432 191.931 18.384C191.931 18.336 191.955 18.296 192.003 18.264C192.147 18.248 192.259 18.192 192.339 18.096C192.419 17.984 192.467 17.856 192.483 17.712C192.515 17.568 192.531 17.416 192.531 17.256C192.531 17.096 192.531 16.952 192.531 16.824V10.68C192.531 10.424 192.491 10.2 192.411 10.008C192.347 9.8 192.195 9.616 191.955 9.456C191.875 9.36 191.875 9.272 191.955 9.192C192.195 8.968 192.395 8.736 192.555 8.496C192.731 8.24 192.963 8.024 193.251 7.848C193.603 7.608 193.971 7.608 194.355 7.848C194.499 7.928 194.619 8.048 194.715 8.208C194.827 8.368 194.931 8.544 195.027 8.736C195.123 8.912 195.219 9.088 195.315 9.264C195.411 9.44 195.523 9.584 195.651 9.696C195.715 9.792 195.715 9.872 195.651 9.936ZM205.845 12.504C206.373 12.536 206.885 12.624 207.381 12.768C207.877 12.896 208.349 13.136 208.797 13.488C208.861 13.536 208.909 13.6 208.941 13.68C208.973 13.744 208.957 13.808 208.893 13.872C208.717 14 208.621 14.16 208.605 14.352C208.589 14.528 208.581 14.712 208.581 14.904V19.56C208.581 19.736 208.557 19.84 208.509 19.872C208.477 19.904 208.365 19.904 208.173 19.872C207.837 19.872 207.429 19.928 206.949 20.04C206.469 20.152 205.973 20.28 205.461 20.424C204.965 20.568 204.477 20.704 203.997 20.832C203.517 20.944 203.109 21 202.773 21C202.101 21.016 201.501 20.888 200.973 20.616C200.445 20.344 199.997 20.016 199.629 19.632C199.277 19.248 199.013 18.848 198.837 18.432C198.661 18.016 198.581 17.68 198.597 17.424C198.629 17.12 198.709 16.832 198.837 16.56C198.981 16.272 199.141 15.992 199.317 15.72C199.509 15.448 199.709 15.184 199.917 14.928C200.125 14.672 200.325 14.416 200.517 14.16C200.597 14.032 200.677 13.92 200.757 13.824C200.837 13.712 200.917 13.592 200.997 13.464C201.221 13.096 201.381 12.68 201.477 12.216C201.573 11.752 201.621 11.328 201.621 10.944C201.621 10.56 201.573 10.248 201.477 10.008C201.397 9.768 201.269 9.696 201.093 9.792C201.045 9.808 200.981 9.864 200.901 9.96C200.821 10.04 200.733 10.128 200.637 10.224C200.557 10.32 200.477 10.4 200.397 10.464C200.333 10.528 200.285 10.552 200.253 10.536C200.173 10.408 200.077 10.28 199.965 10.152C199.853 10.008 199.725 9.88 199.581 9.768C199.261 9.528 199.029 9.48 198.885 9.624C198.741 9.768 198.733 10.04 198.861 10.44C198.941 10.632 199.077 10.816 199.269 10.992C199.477 11.152 199.621 11.232 199.701 11.232C199.797 11.248 199.821 11.296 199.773 11.376C199.725 11.504 199.645 11.656 199.533 11.832C199.437 11.992 199.317 12.144 199.173 12.288C199.029 12.432 198.877 12.544 198.717 12.624C198.573 12.688 198.429 12.688 198.285 12.624C198.205 12.576 198.109 12.504 197.997 12.408C197.885 12.296 197.773 12.184 197.661 12.072C197.565 11.944 197.477 11.832 197.397 11.736C197.333 11.64 197.301 11.576 197.301 11.544C197.285 11.512 197.317 11.384 197.397 11.16C197.477 10.936 197.589 10.672 197.733 10.368C197.893 10.064 198.069 9.736 198.261 9.384C198.453 9.032 198.653 8.712 198.861 8.424C199.085 8.12 199.301 7.872 199.509 7.68C199.717 7.488 199.901 7.4 200.061 7.416C200.317 7.448 200.533 7.528 200.709 7.656C200.885 7.784 201.045 7.96 201.189 8.184C201.365 7.96 201.549 7.776 201.741 7.632C201.933 7.472 202.125 7.4 202.317 7.416C202.685 7.448 202.981 7.584 203.205 7.824C203.445 8.048 203.629 8.328 203.757 8.664C203.901 9 203.981 9.352 203.997 9.72C204.029 10.088 204.021 10.416 203.973 10.704C203.957 10.864 203.893 11.056 203.781 11.28C203.669 11.504 203.525 11.744 203.349 12C203.189 12.24 203.005 12.496 202.797 12.768C202.589 13.024 202.381 13.288 202.173 13.56C201.949 13.832 201.717 14.144 201.477 14.496C201.237 14.848 201.069 15.184 200.973 15.504C200.893 16.064 200.933 16.576 201.093 17.04C201.269 17.488 201.541 17.864 201.909 18.168C202.165 18.392 202.469 18.592 202.821 18.768C203.173 18.928 203.533 19.048 203.901 19.128C204.269 19.192 204.637 19.208 205.005 19.176C205.373 19.128 205.709 19.016 206.013 18.84V15.192C206.013 14.92 205.997 14.656 205.965 14.4C205.949 14.144 205.893 13.912 205.797 13.704C205.701 13.496 205.549 13.336 205.341 13.224C205.133 13.112 204.837 13.072 204.453 13.104C204.373 13.136 204.293 13.072 204.213 12.912C204.149 12.752 204.149 12.632 204.213 12.552V12.528C204.517 12.352 204.813 12.136 205.101 11.88C205.389 11.608 205.645 11.32 205.869 11.016C206.093 10.712 206.285 10.408 206.445 10.104C206.605 9.784 206.709 9.488 206.757 9.216C206.789 8.976 206.693 8.864 206.469 8.88C206.389 8.848 206.341 8.752 206.325 8.592C206.309 8.432 206.317 8.312 206.349 8.232C206.493 8.104 206.661 7.976 206.853 7.848C207.045 7.704 207.237 7.576 207.429 7.464C207.637 7.352 207.837 7.264 208.029 7.2C208.221 7.12 208.381 7.08 208.509 7.08C208.669 7.08 208.797 7.168 208.893 7.344C208.989 7.504 209.061 7.704 209.109 7.944C209.157 8.184 209.181 8.432 209.181 8.688C209.197 8.928 209.197 9.136 209.181 9.312C209.085 9.744 208.925 10.128 208.701 10.464C208.477 10.8 208.205 11.104 207.885 11.376C207.581 11.632 207.253 11.856 206.901 12.048C206.549 12.224 206.197 12.376 205.845 12.504ZM214.029 10.872C214.093 10.888 214.109 10.936 214.077 11.016C214.045 11.08 213.997 11.152 213.933 11.232C213.885 11.312 213.821 11.392 213.741 11.472C213.677 11.552 213.629 11.608 213.597 11.64C213.405 11.8 213.165 11.92 212.877 12C212.589 12.064 212.301 12.064 212.013 12C211.725 11.92 211.461 11.76 211.221 11.52C210.981 11.28 210.813 10.928 210.717 10.464C211.389 9.424 212.101 8.696 212.853 8.28C213.621 7.848 214.365 7.648 215.085 7.68C215.421 7.68 215.861 7.744 216.405 7.872C216.949 7.984 217.517 8.112 218.109 8.256C218.701 8.384 219.269 8.504 219.813 8.616C220.357 8.728 220.797 8.784 221.133 8.784C221.309 8.752 221.421 8.752 221.469 8.784C221.517 8.816 221.541 8.92 221.541 9.096V17.496C221.541 17.752 221.573 17.984 221.637 18.192C221.717 18.384 221.877 18.56 222.117 18.72C222.181 18.8 222.181 18.888 222.117 18.984C221.989 19.096 221.877 19.24 221.781 19.416C221.685 19.592 221.589 19.768 221.493 19.944C221.397 20.12 221.293 20.288 221.181 20.448C221.085 20.608 220.965 20.736 220.821 20.832C220.437 21.04 220.069 21.04 219.717 20.832C219.429 20.656 219.197 20.448 219.021 20.208C218.861 19.952 218.661 19.712 218.421 19.488C218.341 19.392 218.341 19.304 218.421 19.224C218.613 19.096 218.749 18.952 218.829 18.792C218.909 18.632 218.957 18.456 218.973 18.264C218.941 17.96 218.805 17.648 218.565 17.328C218.341 17.008 218.053 16.688 217.701 16.368C217.365 16.048 216.989 15.752 216.573 15.48C216.173 15.192 215.781 14.944 215.397 14.736C215.029 14.528 214.693 14.368 214.389 14.256C214.085 14.128 213.869 14.072 213.741 14.088C213.405 14.264 213.197 14.584 213.117 15.048C213.053 15.512 213.069 16.008 213.165 16.536C213.277 17.048 213.445 17.544 213.669 18.024C213.909 18.488 214.149 18.824 214.389 19.032C214.677 19.272 214.885 19.376 215.013 19.344C215.141 19.296 215.205 19.192 215.205 19.032C215.221 18.872 215.173 18.704 215.061 18.528C214.965 18.336 214.829 18.208 214.653 18.144C214.573 18.144 214.517 18.112 214.485 18.048C214.469 17.984 214.477 17.92 214.509 17.856C214.557 17.76 214.645 17.632 214.773 17.472C214.917 17.312 215.069 17.16 215.229 17.016C215.389 16.872 215.549 16.744 215.709 16.632C215.869 16.504 216.005 16.432 216.117 16.416C216.709 16.912 216.949 17.416 216.837 17.928C216.741 18.424 216.453 18.928 215.973 19.44C215.829 19.584 215.669 19.744 215.493 19.92C215.317 20.096 215.133 20.264 214.941 20.424C214.765 20.568 214.581 20.696 214.389 20.808C214.213 20.904 214.045 20.96 213.885 20.976C213.437 21.024 213.029 20.928 212.661 20.688C212.293 20.448 211.981 20.144 211.725 19.776C211.469 19.392 211.269 18.968 211.125 18.504C210.997 18.04 210.949 17.608 210.981 17.208C211.333 16.072 211.805 15.088 212.397 14.256C212.989 13.424 213.757 12.792 214.701 12.36C214.909 12.328 215.189 12.368 215.541 12.48C215.893 12.576 216.269 12.72 216.669 12.912C217.085 13.104 217.501 13.328 217.917 13.584C218.333 13.84 218.693 14.104 218.997 14.376V11.016C218.741 10.984 218.421 10.912 218.037 10.8C217.653 10.688 217.253 10.568 216.837 10.44C216.437 10.312 216.029 10.184 215.613 10.056C215.213 9.912 214.845 9.792 214.509 9.696C214.013 9.552 213.621 9.48 213.333 9.48C213.045 9.464 212.837 9.496 212.709 9.576C212.597 9.656 212.557 9.76 212.589 9.888C212.621 10.016 212.701 10.152 212.829 10.296C212.973 10.424 213.149 10.544 213.357 10.656C213.565 10.768 213.789 10.84 214.029 10.872ZM226.644 12.168C226.628 11.384 226.476 10.856 226.188 10.584C225.916 10.312 225.564 10.232 225.132 10.344C225.036 10.392 224.964 10.392 224.916 10.344C224.884 10.296 224.884 10.24 224.916 10.176C225.076 9.92 225.244 9.64 225.42 9.336C225.612 9.032 225.804 8.76 225.996 8.52C226.188 8.264 226.388 8.056 226.596 7.896C226.804 7.736 227.012 7.664 227.22 7.68C227.54 7.696 227.82 7.816 228.06 8.04C228.316 8.248 228.54 8.488 228.732 8.76C228.924 9.032 229.1 9.304 229.26 9.576C229.42 9.848 229.572 10.048 229.716 10.176C229.844 10.24 229.844 10.32 229.716 10.416C229.572 10.432 229.46 10.496 229.38 10.608C229.3 10.704 229.244 10.824 229.212 10.968C229.196 11.112 229.188 11.264 229.188 11.424C229.188 11.568 229.188 11.704 229.188 11.832V14.568C229.508 14.664 229.852 14.8 230.22 14.976C230.588 15.152 230.94 15.352 231.276 15.576C231.628 15.8 231.94 16.04 232.212 16.296C232.5 16.552 232.716 16.8 232.86 17.04V10.68C232.86 10.424 232.82 10.2 232.74 10.008C232.676 9.8 232.524 9.616 232.284 9.456C232.204 9.36 232.204 9.272 232.284 9.192C232.524 8.968 232.724 8.736 232.884 8.496C233.06 8.24 233.292 8.024 233.58 7.848C233.948 7.608 234.308 7.608 234.66 7.848C234.804 7.928 234.932 8.048 235.044 8.208C235.156 8.368 235.26 8.544 235.356 8.736C235.452 8.912 235.548 9.088 235.644 9.264C235.74 9.44 235.852 9.584 235.98 9.696C236.044 9.792 236.044 9.872 235.98 9.936C235.74 10.112 235.58 10.296 235.5 10.488C235.436 10.68 235.404 10.912 235.404 11.184V17.976C235.404 18.248 235.436 18.488 235.5 18.696C235.58 18.888 235.74 19.064 235.98 19.224C236.044 19.304 236.044 19.392 235.98 19.488C235.724 19.712 235.476 19.968 235.236 20.256C235.012 20.528 234.756 20.752 234.468 20.928C234.372 20.976 234.26 21 234.132 21C234.004 20.984 233.868 20.952 233.724 20.904C233.596 20.84 233.468 20.776 233.34 20.712C233.212 20.632 233.108 20.56 233.028 20.496C232.868 20.368 232.708 20.128 232.548 19.776C232.404 19.408 232.204 19.008 231.948 18.576C231.692 18.128 231.348 17.68 230.916 17.232C230.484 16.768 229.908 16.368 229.188 16.032V19.776C228.916 20.096 228.66 20.384 228.42 20.64C228.196 20.88 227.9 21 227.532 21C227.34 21 227.156 20.944 226.98 20.832C226.772 20.704 226.508 20.48 226.188 20.16C225.868 19.824 225.548 19.448 225.228 19.032C224.924 18.6 224.644 18.16 224.388 17.712C224.148 17.264 223.988 16.864 223.908 16.512C223.956 16.384 224.068 16.224 224.244 16.032C224.42 15.824 224.628 15.624 224.868 15.432C225.124 15.224 225.404 15.04 225.708 14.88C226.028 14.704 226.34 14.584 226.644 14.52V12.168ZM226.692 15.792C226.628 15.808 226.532 15.856 226.404 15.936C226.276 16 226.14 16.08 225.996 16.176C225.868 16.256 225.748 16.344 225.636 16.44C225.54 16.52 225.476 16.592 225.444 16.656C225.492 16.752 225.572 16.896 225.684 17.088C225.796 17.264 225.916 17.448 226.044 17.64C226.172 17.832 226.292 18.024 226.404 18.216C226.532 18.392 226.628 18.528 226.692 18.624V15.792ZM242.535 14.52C242.343 14.36 242.151 14.368 241.959 14.544C241.767 14.72 241.583 14.96 241.407 15.264C241.247 15.552 241.111 15.864 240.999 16.2C240.903 16.52 240.855 16.752 240.855 16.896C240.887 17.232 241.015 17.544 241.239 17.832C241.479 18.104 241.759 18.344 242.079 18.552C242.399 18.76 242.743 18.92 243.111 19.032C243.495 19.144 243.839 19.208 244.143 19.224C244.511 19.256 244.879 19.248 245.247 19.2C245.615 19.152 245.935 19.04 246.207 18.864V11.016C245.951 10.984 245.631 10.912 245.247 10.8C244.863 10.688 244.463 10.568 244.047 10.44C243.647 10.312 243.239 10.184 242.823 10.056C242.423 9.912 242.055 9.792 241.719 9.696C241.223 9.552 240.831 9.48 240.543 9.48C240.255 9.464 240.047 9.496 239.919 9.576C239.807 9.656 239.767 9.76 239.799 9.888C239.831 10.016 239.911 10.152 240.039 10.296C240.183 10.424 240.359 10.544 240.567 10.656C240.775 10.768 240.999 10.84 241.239 10.872C241.303 10.888 241.319 10.936 241.287 11.016C241.255 11.08 241.207 11.152 241.143 11.232C241.095 11.312 241.031 11.392 240.951 11.472C240.887 11.552 240.839 11.608 240.807 11.64C240.615 11.8 240.375 11.92 240.087 12C239.799 12.064 239.511 12.064 239.223 12C238.935 11.92 238.671 11.76 238.431 11.52C238.191 11.28 238.023 10.928 237.927 10.464C238.599 9.424 239.311 8.696 240.063 8.28C240.831 7.848 241.575 7.648 242.295 7.68C242.631 7.68 243.071 7.744 243.615 7.872C244.159 7.984 244.727 8.112 245.319 8.256C245.911 8.384 246.479 8.504 247.023 8.616C247.567 8.728 248.007 8.784 248.343 8.784C248.519 8.752 248.631 8.752 248.679 8.784C248.727 8.816 248.751 8.92 248.751 9.096V19.584C248.751 19.76 248.727 19.864 248.679 19.896C248.631 19.928 248.519 19.928 248.343 19.896C248.007 19.896 247.575 19.952 247.047 20.064C246.519 20.176 245.975 20.304 245.415 20.448C244.855 20.576 244.311 20.704 243.783 20.832C243.255 20.944 242.823 21 242.487 21C241.959 21.016 241.479 20.936 241.047 20.76C240.615 20.584 240.231 20.368 239.895 20.112C239.559 19.84 239.271 19.544 239.031 19.224C238.807 18.888 238.639 18.576 238.527 18.288C238.383 17.904 238.335 17.544 238.383 17.208C238.415 16.904 238.527 16.504 238.719 16.008C238.927 15.496 239.175 15 239.463 14.52C239.751 14.04 240.071 13.632 240.423 13.296C240.775 12.944 241.119 12.784 241.455 12.816C241.599 12.832 241.759 12.896 241.935 13.008C242.111 13.104 242.279 13.224 242.439 13.368C242.615 13.512 242.783 13.672 242.943 13.848C243.119 14.008 243.279 14.168 243.423 14.328C243.663 14.584 243.855 14.84 243.999 15.096C244.159 15.336 244.255 15.584 244.287 15.84C244.319 16.096 244.279 16.352 244.167 16.608C244.055 16.848 243.855 17.096 243.567 17.352C243.455 17.32 243.311 17.248 243.135 17.136C242.975 17.024 242.815 16.896 242.655 16.752C242.511 16.608 242.367 16.456 242.223 16.296C242.095 16.136 242.007 16.008 241.959 15.912C241.927 15.832 241.919 15.768 241.935 15.72C241.967 15.656 242.023 15.624 242.103 15.624C242.343 15.448 242.503 15.256 242.583 15.048C242.679 14.84 242.663 14.664 242.535 14.52ZM262.313 16.656C262.265 16.528 262.169 16.368 262.025 16.176C261.881 15.968 261.729 15.8 261.569 15.672V18.336C261.617 18.24 261.673 18.112 261.737 17.952C261.817 17.792 261.889 17.632 261.953 17.472C262.033 17.296 262.105 17.136 262.169 16.992C262.233 16.832 262.281 16.72 262.313 16.656ZM262.169 9.936C261.929 10.112 261.769 10.296 261.689 10.488C261.625 10.68 261.593 10.912 261.593 11.184V14.52C261.849 14.632 262.081 14.784 262.289 14.976C262.513 15.168 262.705 15.368 262.865 15.576C263.025 15.768 263.153 15.968 263.249 16.176C263.361 16.368 263.441 16.528 263.489 16.656C263.393 16.896 263.241 17.232 263.033 17.664C262.825 18.08 262.593 18.504 262.337 18.936C262.097 19.352 261.841 19.744 261.569 20.112C261.313 20.464 261.081 20.704 260.873 20.832C260.697 20.944 260.513 21 260.321 21C260.129 21 259.977 20.968 259.865 20.904C259.769 20.84 259.681 20.752 259.601 20.64C259.521 20.528 259.441 20.4 259.361 20.256C259.297 20.096 259.193 19.936 259.049 19.776V16.032C258.473 16.176 257.985 16.48 257.585 16.944C257.201 17.392 256.873 17.864 256.601 18.36C256.345 18.856 256.137 19.32 255.977 19.752C255.817 20.168 255.681 20.416 255.569 20.496C255.409 20.608 255.193 20.728 254.921 20.856C254.665 20.984 254.433 21.024 254.225 20.976C253.697 20.88 253.241 20.688 252.857 20.4C252.473 20.096 252.153 19.768 251.897 19.416C251.641 19.064 251.457 18.712 251.345 18.36C251.233 18.008 251.185 17.72 251.201 17.496C251.249 17.128 251.361 16.776 251.537 16.44C251.713 16.104 251.921 15.784 252.161 15.48C252.401 15.16 252.641 14.848 252.881 14.544C253.137 14.224 253.361 13.912 253.553 13.608C253.777 13.224 253.881 12.8 253.865 12.336C253.849 11.856 253.769 11.424 253.625 11.04C253.481 10.64 253.297 10.336 253.073 10.128C252.849 9.92 252.641 9.896 252.449 10.056C252.337 10.152 252.297 10.28 252.329 10.44C252.361 10.584 252.417 10.736 252.497 10.896C252.577 11.04 252.673 11.168 252.785 11.28C252.897 11.376 252.977 11.424 253.025 11.424C253.105 11.44 253.129 11.488 253.097 11.568C253.049 11.68 252.969 11.824 252.857 12C252.761 12.16 252.641 12.312 252.497 12.456C252.369 12.6 252.225 12.704 252.065 12.768C251.921 12.832 251.777 12.832 251.633 12.768C251.553 12.736 251.465 12.672 251.369 12.576C251.289 12.464 251.209 12.352 251.129 12.24C251.049 12.128 250.977 12.024 250.913 11.928C250.865 11.816 250.841 11.752 250.841 11.736C250.825 11.688 250.873 11.56 250.985 11.352C251.097 11.128 251.249 10.864 251.441 10.56C251.649 10.256 251.881 9.936 252.137 9.6C252.393 9.264 252.649 8.952 252.905 8.664C253.177 8.376 253.433 8.136 253.673 7.944C253.913 7.752 254.113 7.664 254.273 7.68C254.625 7.696 254.945 7.824 255.233 8.064C255.521 8.288 255.769 8.568 255.977 8.904C256.185 9.224 256.329 9.568 256.409 9.936C256.505 10.288 256.529 10.608 256.481 10.896C256.465 11.168 256.321 11.504 256.049 11.904C255.777 12.304 255.473 12.72 255.137 13.152C254.801 13.584 254.473 14.016 254.153 14.448C253.849 14.88 253.641 15.272 253.529 15.624C253.449 16.232 253.521 16.792 253.745 17.304C253.969 17.8 254.337 18.208 254.849 18.528L255.737 17.04C255.865 16.832 256.033 16.608 256.241 16.368C256.465 16.128 256.721 15.896 257.009 15.672C257.297 15.448 257.609 15.24 257.945 15.048C258.297 14.84 258.665 14.68 259.049 14.568V10.68C259.049 10.424 259.009 10.2 258.929 10.008C258.865 9.8 258.713 9.616 258.473 9.456C258.393 9.36 258.393 9.272 258.473 9.192C258.713 8.968 258.913 8.736 259.073 8.496C259.249 8.24 259.481 8.024 259.769 7.848C260.137 7.608 260.505 7.608 260.873 7.848C261.017 7.928 261.137 8.048 261.233 8.208C261.345 8.368 261.449 8.544 261.545 8.736C261.641 8.912 261.737 9.088 261.833 9.264C261.929 9.44 262.041 9.584 262.169 9.696C262.249 9.776 262.249 9.856 262.169 9.936Z" fill="#303030"/>
</svg>
