<svg width="314" height="45" viewBox="0 0 314 45" fill="none" xmlns="http://www.w3.org/2000/svg">
<path d="M5.304 19.248C4.984 19.4827 4.77067 19.728 4.664 19.984C4.57867 20.24 4.536 20.5493 4.536 20.912V27.984C4.55733 29.0293 4.76 29.744 5.144 30.128C5.528 30.4907 6.008 30.5867 6.584 30.416C6.69067 30.3733 6.776 30.384 6.84 30.448C6.904 30.512 6.904 30.5867 6.84 30.672C6.62667 31.0133 6.40267 31.3867 6.168 31.792C5.93333 32.176 5.688 32.5387 5.432 32.88C5.176 33.2213 4.90933 33.4987 4.632 33.712C4.35467 33.9253 4.06667 34.0213 3.768 34C3.36267 33.9787 2.98933 33.8293 2.648 33.552C2.328 33.2533 2.02933 32.9227 1.752 32.56C1.496 32.176 1.26133 31.8027 1.048 31.44C0.834667 31.0773 0.632 30.8213 0.44 30.672C0.376 30.6293 0.344 30.576 0.344 30.512C0.365333 30.448 0.397333 30.3947 0.44 30.352C0.653333 30.3307 0.802667 30.256 0.888 30.128C0.994667 29.9787 1.05867 29.808 1.08 29.616C1.12267 29.424 1.144 29.2213 1.144 29.008C1.144 28.7947 1.144 28.6027 1.144 28.432V20.24C1.144 19.8987 1.09067 19.6 0.984 19.344C0.898667 19.0667 0.696 18.8213 0.376 18.608C0.290667 18.5013 0.290667 18.384 0.376 18.256C0.717333 17.9573 0.994667 17.648 1.208 17.328C1.44267 16.9867 1.752 16.6987 2.136 16.464C2.62667 16.144 3.10667 16.144 3.576 16.464C3.768 16.5707 3.93867 16.7307 4.088 16.944C4.23733 17.1573 4.376 17.392 4.504 17.648C4.632 17.8827 4.76 18.1173 4.888 18.352C5.016 18.5867 5.15467 18.7787 5.304 18.928C5.432 19.056 5.432 19.1627 5.304 19.248ZM12.015 22.224C11.9937 21.1787 11.791 20.4747 11.407 20.112C11.0443 19.7493 10.575 19.6427 9.999 19.792C9.871 19.856 9.775 19.856 9.711 19.792C9.66833 19.728 9.66833 19.6533 9.711 19.568C9.92433 19.2267 10.1483 18.8533 10.383 18.448C10.639 18.0427 10.895 17.68 11.151 17.36C11.407 17.0187 11.6737 16.7413 11.951 16.528C12.2283 16.3147 12.5057 16.2187 12.783 16.24C13.2097 16.2613 13.583 16.4213 13.903 16.72C14.2443 16.9973 14.543 17.3173 14.799 17.68C15.055 18.0427 15.2897 18.4053 15.503 18.768C15.7163 19.1307 15.919 19.3973 16.111 19.568C16.2817 19.6533 16.2817 19.76 16.111 19.888C15.919 19.9093 15.7697 19.9947 15.663 20.144C15.5563 20.272 15.4817 20.432 15.439 20.624C15.4177 20.816 15.407 21.0187 15.407 21.232C15.407 21.424 15.407 21.6053 15.407 21.776V25.424C15.8337 25.552 16.2923 25.7333 16.783 25.968C17.2737 26.2027 17.743 26.4693 18.191 26.768C18.6603 27.0667 19.0763 27.3867 19.439 27.728C19.823 28.0693 20.111 28.4 20.303 28.72V20.24C20.303 19.8987 20.2497 19.6 20.143 19.344C20.0577 19.0667 19.855 18.8213 19.535 18.608C19.4283 18.48 19.4283 18.3627 19.535 18.256C19.855 17.9573 20.1217 17.648 20.335 17.328C20.5697 16.9867 20.879 16.6987 21.263 16.464C21.7537 16.144 22.2337 16.144 22.703 16.464C22.895 16.5707 23.0657 16.7307 23.215 16.944C23.3643 17.1573 23.503 17.392 23.631 17.648C23.759 17.8827 23.887 18.1173 24.015 18.352C24.143 18.5867 24.2923 18.7787 24.463 18.928C24.5483 19.056 24.5483 19.1627 24.463 19.248C24.143 19.4827 23.9297 19.728 23.823 19.984C23.7377 20.24 23.695 20.5493 23.695 20.912V29.968C23.695 30.3307 23.7377 30.6507 23.823 30.928C23.9297 31.184 24.143 31.4187 24.463 31.632C24.5483 31.7387 24.5483 31.856 24.463 31.984C24.1217 32.2827 23.791 32.624 23.471 33.008C23.1723 33.3707 22.831 33.6693 22.447 33.904C22.319 33.968 22.1697 34 21.999 34C21.8283 33.9787 21.647 33.936 21.455 33.872C21.2843 33.7867 21.1137 33.7013 20.943 33.616C20.7723 33.5093 20.6337 33.4133 20.527 33.328C20.3137 33.1573 20.1003 32.8373 19.887 32.368C19.695 31.8773 19.4283 31.344 19.087 30.768C18.7457 30.1707 18.287 29.5733 17.711 28.976C17.135 28.3573 16.367 27.824 15.407 27.376V32.368C15.0443 32.7947 14.703 33.1787 14.383 33.52C14.0843 33.84 13.6897 34 13.199 34C12.943 34 12.6977 33.9253 12.463 33.776C12.1857 33.6053 11.8337 33.3067 11.407 32.88C10.9803 32.432 10.5537 31.9307 10.127 31.376C9.72167 30.8 9.34833 30.2133 9.007 29.616C8.687 29.0187 8.47367 28.4853 8.367 28.016C8.431 27.8453 8.58033 27.632 8.815 27.376C9.04967 27.0987 9.327 26.832 9.647 26.576C9.98833 26.2987 10.3617 26.0533 10.767 25.84C11.1937 25.6053 11.6097 25.4453 12.015 25.36V22.224ZM12.079 27.056C11.9937 27.0773 11.8657 27.1413 11.695 27.248C11.5243 27.3333 11.343 27.44 11.151 27.568C10.9803 27.6747 10.8203 27.792 10.671 27.92C10.543 28.0267 10.4577 28.1227 10.415 28.208C10.479 28.336 10.5857 28.528 10.735 28.784C10.8843 29.0187 11.0443 29.264 11.215 29.52C11.3857 29.776 11.5457 30.032 11.695 30.288C11.8657 30.5227 11.9937 30.704 12.079 30.832V27.056ZM42.355 28.208C42.291 28.0373 42.163 27.824 41.971 27.568C41.779 27.2907 41.5763 27.0667 41.363 26.896V30.448C41.427 30.32 41.5017 30.1493 41.587 29.936C41.6937 29.7227 41.7897 29.5093 41.875 29.296C41.9817 29.0613 42.0777 28.848 42.163 28.656C42.2483 28.4427 42.3123 28.2933 42.355 28.208ZM42.163 19.248C41.843 19.4827 41.6297 19.728 41.523 19.984C41.4377 20.24 41.395 20.5493 41.395 20.912V25.36C41.7363 25.5093 42.0457 25.712 42.323 25.968C42.6217 26.224 42.8777 26.4907 43.091 26.768C43.3043 27.024 43.475 27.2907 43.603 27.568C43.7523 27.824 43.859 28.0373 43.923 28.208C43.795 28.528 43.5923 28.976 43.315 29.552C43.0377 30.1067 42.7283 30.672 42.387 31.248C42.067 31.8027 41.7257 32.3253 41.363 32.816C41.0217 33.2853 40.7123 33.6053 40.435 33.776C40.2003 33.9253 39.955 34 39.699 34C39.443 34 39.2403 33.9573 39.091 33.872C38.963 33.7867 38.8457 33.6693 38.739 33.52C38.6323 33.3707 38.5257 33.2 38.419 33.008C38.3337 32.7947 38.195 32.5813 38.003 32.368V27.376C37.235 27.568 36.5843 27.9733 36.051 28.592C35.539 29.1893 35.1017 29.8187 34.739 30.48C34.3977 31.1413 34.1203 31.76 33.907 32.336C33.6937 32.8907 33.5123 33.2213 33.363 33.328C33.1497 33.4773 32.8617 33.6373 32.499 33.808C32.1577 33.9787 31.8483 34.032 31.571 33.968C30.867 33.84 30.259 33.584 29.747 33.2C29.235 32.7947 28.8083 32.3573 28.467 31.888C28.1257 31.4187 27.8803 30.9493 27.731 30.48C27.5817 30.0107 27.5177 29.6267 27.539 29.328C27.603 28.8373 27.7523 28.368 27.987 27.92C28.2217 27.472 28.499 27.0453 28.819 26.64C29.139 26.2133 29.459 25.7973 29.779 25.392C30.1203 24.9653 30.419 24.5493 30.675 24.144C30.9737 23.632 31.1123 23.0667 31.091 22.448C31.0697 21.808 30.963 21.232 30.771 20.72C30.579 20.1867 30.3337 19.7813 30.035 19.504C29.7363 19.2267 29.459 19.1947 29.203 19.408C29.0537 19.536 29.0003 19.7067 29.043 19.92C29.0857 20.112 29.1603 20.3147 29.267 20.528C29.3737 20.72 29.5017 20.8907 29.651 21.04C29.8003 21.168 29.907 21.232 29.971 21.232C30.0777 21.2533 30.1097 21.3173 30.067 21.424C30.003 21.5733 29.8963 21.7653 29.747 22C29.619 22.2133 29.459 22.416 29.267 22.608C29.0963 22.8 28.9043 22.9387 28.691 23.024C28.499 23.1093 28.307 23.1093 28.115 23.024C28.0083 22.9813 27.891 22.896 27.763 22.768C27.6563 22.6187 27.5497 22.4693 27.443 22.32C27.3363 22.1707 27.2403 22.032 27.155 21.904C27.091 21.7547 27.059 21.6693 27.059 21.648C27.0377 21.584 27.1017 21.4133 27.251 21.136C27.4003 20.8373 27.603 20.4853 27.859 20.08C28.1363 19.6747 28.4457 19.248 28.787 18.8C29.1283 18.352 29.4697 17.936 29.811 17.552C30.1737 17.168 30.515 16.848 30.835 16.592C31.155 16.336 31.4217 16.2187 31.635 16.24C32.1043 16.2613 32.531 16.432 32.915 16.752C33.299 17.0507 33.6297 17.424 33.907 17.872C34.1843 18.2987 34.3763 18.7573 34.483 19.248C34.611 19.7173 34.643 20.144 34.579 20.528C34.5577 20.8907 34.3657 21.3387 34.003 21.872C33.6403 22.4053 33.235 22.96 32.787 23.536C32.339 24.112 31.9017 24.688 31.475 25.264C31.0697 25.84 30.7923 26.3627 30.643 26.832C30.5363 27.6427 30.6323 28.3893 30.931 29.072C31.2297 29.7333 31.7203 30.2773 32.403 30.704L33.587 28.72C33.7577 28.4427 33.9817 28.144 34.259 27.824C34.5577 27.504 34.899 27.1947 35.283 26.896C35.667 26.5973 36.083 26.32 36.531 26.064C37.0003 25.7867 37.491 25.5733 38.003 25.424V20.24C38.003 19.8987 37.9497 19.6 37.843 19.344C37.7577 19.0667 37.555 18.8213 37.235 18.608C37.1283 18.48 37.1283 18.3627 37.235 18.256C37.555 17.9573 37.8217 17.648 38.035 17.328C38.2697 16.9867 38.579 16.6987 38.963 16.464C39.4537 16.144 39.9443 16.144 40.435 16.464C40.627 16.5707 40.787 16.7307 40.915 16.944C41.0643 17.1573 41.203 17.392 41.331 17.648C41.459 17.8827 41.587 18.1173 41.715 18.352C41.843 18.5867 41.9923 18.7787 42.163 18.928C42.2697 19.0347 42.2697 19.1413 42.163 19.248ZM39.915 42.256V38.96C39.915 38.6613 39.8723 38.3947 39.787 38.16C39.7017 37.9253 39.5203 37.7227 39.243 37.552C39.1363 37.4667 39.1363 37.3707 39.243 37.264C39.5417 37.008 39.787 36.7307 39.979 36.432C40.1497 36.1547 40.4057 35.9093 40.747 35.696C41.1523 35.44 41.5683 35.44 41.995 35.696C42.1443 35.8027 42.283 35.9413 42.411 36.112C42.539 36.304 42.6563 36.5067 42.763 36.72C42.8697 36.9333 42.987 37.136 43.115 37.328C43.2217 37.52 43.339 37.68 43.467 37.808C43.5523 37.9147 43.5523 38.0107 43.467 38.096C43.1897 38.288 43.0083 38.5013 42.923 38.736C42.8377 38.9707 42.795 39.2373 42.795 39.536V43.408C42.795 43.6213 42.7737 43.7387 42.731 43.76C42.6883 43.8027 42.5603 43.8027 42.347 43.76C41.9203 43.76 41.5363 43.8347 41.195 43.984C40.8537 44.1547 40.5123 44.3253 40.171 44.496C39.6163 44.7947 39.0403 44.9227 38.443 44.88C37.8243 44.8587 37.259 44.7307 36.747 44.496C36.2137 44.2613 35.7657 43.9307 35.403 43.504C35.019 43.0987 34.763 42.64 34.635 42.128C35.019 41.744 35.4137 41.3493 35.819 40.944C36.203 40.5387 36.5443 40.0693 36.843 39.536C36.8003 39.2587 36.683 39.0133 36.491 38.8C36.299 38.5867 36.0857 38.4267 35.851 38.32C35.6163 38.2133 35.3923 38.1493 35.179 38.128C34.9443 38.1067 34.763 38.1493 34.635 38.256C34.507 38.3627 34.4537 38.5013 34.475 38.672C34.4963 38.864 34.5603 39.0453 34.667 39.216C34.7523 39.3867 34.859 39.5253 34.987 39.632C35.115 39.76 35.211 39.824 35.275 39.824C35.3817 39.824 35.4137 39.8773 35.371 39.984C35.3283 40.112 35.243 40.272 35.115 40.464C34.987 40.656 34.8483 40.8267 34.699 40.976C34.5283 41.1467 34.3577 41.2747 34.187 41.36C34.0163 41.4453 33.8563 41.4453 33.707 41.36C33.6217 41.3173 33.5257 41.232 33.419 41.104C33.3123 40.976 33.2163 40.848 33.131 40.72C33.0243 40.592 32.939 40.4747 32.875 40.368C32.811 40.2613 32.779 40.1973 32.779 40.176C32.7577 40.1333 32.8003 39.984 32.907 39.728C33.0137 39.4933 33.1737 39.1947 33.387 38.832C33.579 38.4907 33.803 38.1173 34.059 37.712C34.2937 37.328 34.5497 36.9653 34.827 36.624C35.083 36.304 35.339 36.0267 35.595 35.792C35.8297 35.5787 36.043 35.4827 36.235 35.504C36.619 35.5253 36.9817 35.664 37.323 35.92C37.643 36.176 37.9203 36.4747 38.155 36.816C38.3897 37.1787 38.5603 37.5627 38.667 37.968C38.7737 38.3733 38.8163 38.7467 38.795 39.088C38.731 39.1307 38.6243 39.2267 38.475 39.376C38.3043 39.5253 38.1337 39.6747 37.963 39.824C37.7923 39.9947 37.6323 40.1547 37.483 40.304C37.3337 40.4533 37.2483 40.56 37.227 40.624C37.099 40.9013 37.131 41.1467 37.323 41.36C37.4937 41.5733 37.739 41.744 38.059 41.872C38.379 42.0213 38.7203 42.128 39.083 42.192C39.4457 42.256 39.723 42.2773 39.915 42.256ZM51.179 19.248C50.859 19.4827 50.6457 19.728 50.539 19.984C50.4537 20.24 50.411 20.5493 50.411 20.912V27.984C50.4323 29.0293 50.635 29.744 51.019 30.128C51.403 30.4907 51.883 30.5867 52.459 30.416C52.5657 30.3733 52.651 30.384 52.715 30.448C52.779 30.512 52.779 30.5867 52.715 30.672C52.5017 31.0133 52.2777 31.3867 52.043 31.792C51.8083 32.176 51.563 32.5387 51.307 32.88C51.051 33.2213 50.7843 33.4987 50.507 33.712C50.2297 33.9253 49.9417 34.0213 49.643 34C49.2377 33.9787 48.8643 33.8293 48.523 33.552C48.203 33.2533 47.9043 32.9227 47.627 32.56C47.371 32.176 47.1363 31.8027 46.923 31.44C46.7097 31.0773 46.507 30.8213 46.315 30.672C46.251 30.6293 46.219 30.576 46.219 30.512C46.2403 30.448 46.2723 30.3947 46.315 30.352C46.5283 30.3307 46.6777 30.256 46.763 30.128C46.8697 29.9787 46.9337 29.808 46.955 29.616C46.9977 29.424 47.019 29.2213 47.019 29.008C47.019 28.7947 47.019 28.6027 47.019 28.432V20.24C47.019 19.8987 46.9657 19.6 46.859 19.344C46.7737 19.0667 46.571 18.8213 46.251 18.608C46.1657 18.5013 46.1657 18.384 46.251 18.256C46.5923 17.9573 46.8697 17.648 47.083 17.328C47.3177 16.9867 47.627 16.6987 48.011 16.464C48.5017 16.144 48.9817 16.144 49.451 16.464C49.643 16.5707 49.8137 16.7307 49.963 16.944C50.1123 17.1573 50.251 17.392 50.379 17.648C50.507 17.8827 50.635 18.1173 50.763 18.352C50.891 18.5867 51.0297 18.7787 51.179 18.928C51.307 19.056 51.307 19.1627 51.179 19.248ZM59.022 18.928C58.3607 18.736 57.838 18.64 57.454 18.64C57.07 18.6187 56.7927 18.6613 56.622 18.768C56.4727 18.8747 56.4193 19.0133 56.462 19.184C56.5047 19.3547 56.6113 19.536 56.782 19.728C56.974 19.8987 57.2087 20.0587 57.486 20.208C57.7633 20.3573 58.062 20.4533 58.382 20.496C58.4673 20.5173 58.4887 20.5813 58.446 20.688C58.4033 20.7733 58.3393 20.8693 58.254 20.976C58.19 21.0827 58.1047 21.1893 57.998 21.296C57.9127 21.4027 57.8487 21.4773 57.806 21.52C57.55 21.7333 57.23 21.8933 56.846 22C56.462 22.0853 56.078 22.0853 55.694 22C55.31 21.8933 54.958 21.68 54.638 21.36C54.318 21.04 54.094 20.5707 53.966 19.952C54.862 18.5653 55.8113 17.5947 56.814 17.04C57.838 16.464 58.83 16.1973 59.79 16.24C60.238 16.24 60.8247 16.3253 61.55 16.496C62.2967 16.6453 63.0647 16.816 63.854 17.008C64.6647 17.1787 65.4327 17.3387 66.158 17.488C66.9047 17.6373 67.502 17.712 67.95 17.712C68.1847 17.6693 68.334 17.6693 68.398 17.712C68.462 17.7547 68.494 17.8933 68.494 18.128V25.36C68.8353 25.5093 69.1447 25.712 69.422 25.968C69.7207 26.224 69.9767 26.4907 70.19 26.768C70.4033 27.024 70.574 27.2907 70.702 27.568C70.8513 27.824 70.958 28.0373 71.022 28.208C70.894 28.528 70.6913 28.976 70.414 29.552C70.1367 30.1067 69.8273 30.672 69.486 31.248C69.166 31.8027 68.8247 32.3253 68.462 32.816C68.1207 33.2853 67.8113 33.6053 67.534 33.776C67.2993 33.9253 67.054 34 66.798 34C66.542 34 66.3393 33.9573 66.19 33.872C66.062 33.7867 65.9447 33.6693 65.838 33.52C65.7313 33.3707 65.6247 33.2 65.518 33.008C65.4327 32.7947 65.294 32.5813 65.102 32.368V27.376C64.334 27.568 63.6833 27.9733 63.15 28.592C62.638 29.1893 62.2007 29.8187 61.838 30.48C61.4967 31.1413 61.2193 31.76 61.006 32.336C60.7927 32.8907 60.6113 33.2213 60.462 33.328C60.2487 33.4773 59.9607 33.6373 59.598 33.808C59.2567 33.9787 58.9473 34.032 58.67 33.968C57.8593 33.7973 57.1233 33.456 56.462 32.944C55.8007 32.4107 55.2887 31.7707 54.926 31.024C54.8833 30.896 54.9047 30.8 54.99 30.736C55.0753 30.672 55.1713 30.672 55.278 30.736C55.4273 30.7147 55.6513 30.5973 55.95 30.384C56.2487 30.1493 56.5473 29.872 56.846 29.552C57.1447 29.2107 57.4007 28.8373 57.614 28.432C57.8273 28.0267 57.902 27.632 57.838 27.248C57.7953 26.928 57.6993 26.6187 57.55 26.32C57.4007 26.0213 57.23 25.776 57.038 25.584C56.846 25.3707 56.6433 25.232 56.43 25.168C56.238 25.0827 56.0673 25.104 55.918 25.232C55.79 25.3173 55.7367 25.4453 55.758 25.616C55.8007 25.7867 55.8647 25.9467 55.95 26.096C56.0567 26.2453 56.1633 26.384 56.27 26.512C56.398 26.6187 56.494 26.672 56.558 26.672C56.6647 26.7147 56.6967 26.768 56.654 26.832C56.6113 26.96 56.526 27.12 56.398 27.312C56.27 27.4827 56.1313 27.6427 55.982 27.792C55.8327 27.9413 55.6727 28.0587 55.502 28.144C55.3313 28.208 55.1713 28.208 55.022 28.144C54.9367 28.1013 54.83 28.0267 54.702 27.92C54.5953 27.792 54.4993 27.6747 54.414 27.568C54.3287 27.44 54.254 27.3227 54.19 27.216C54.126 27.1093 54.094 27.0453 54.094 27.024C54.0727 26.96 54.2007 26.6933 54.478 26.224C54.7767 25.7547 55.1393 25.2533 55.566 24.72C55.9927 24.1867 56.43 23.7067 56.878 23.28C57.326 22.832 57.6887 22.6187 57.966 22.64C58.3713 22.6613 58.734 22.8 59.054 23.056C59.3953 23.312 59.6727 23.6213 59.886 23.984C60.1207 24.3253 60.2913 24.688 60.398 25.072C60.5047 25.456 60.526 25.808 60.462 26.128C60.4407 26.384 60.3233 26.6827 60.11 27.024C59.8967 27.344 59.6513 27.664 59.374 27.984C59.118 28.304 58.8513 28.6027 58.574 28.88C58.2967 29.1573 58.094 29.3707 57.966 29.52C58.03 29.8613 58.2007 30.1493 58.478 30.384C58.7553 30.6187 59.0753 30.8213 59.438 30.992L60.686 28.72C60.8567 28.4427 61.0807 28.144 61.358 27.824C61.6567 27.504 61.998 27.1947 62.382 26.896C62.766 26.5973 63.182 26.32 63.63 26.064C64.0993 25.7867 64.59 25.5733 65.102 25.424V20.688C64.7607 20.6453 64.3233 20.5493 63.79 20.4C63.278 20.2507 62.7447 20.0907 62.19 19.92C61.6353 19.7493 61.0807 19.5787 60.526 19.408C59.9713 19.216 59.47 19.056 59.022 18.928ZM69.518 28.112C69.262 27.7493 68.91 27.3867 68.462 27.024V30.256C68.59 30 68.7607 29.648 68.974 29.2C69.1873 28.7307 69.3687 28.368 69.518 28.112ZM85.0888 26.544V29.84C85.1528 29.968 85.3021 30.1387 85.5368 30.352C85.7928 30.544 86.0701 30.7253 86.3688 30.896C86.6674 31.0453 86.9768 31.1627 87.2968 31.248C87.6381 31.312 87.9368 31.28 88.1928 31.152V20.24C88.1928 19.8987 88.1394 19.6 88.0328 19.344C87.9474 19.0667 87.7448 18.8213 87.4248 18.608C87.3394 18.5013 87.3394 18.384 87.4248 18.256C87.7661 17.9573 88.0434 17.648 88.2568 17.328C88.4914 16.9867 88.8008 16.6987 89.1848 16.464C89.6754 16.144 90.1554 16.144 90.6248 16.464C90.8168 16.5707 90.9874 16.7307 91.1368 16.944C91.2861 17.1573 91.4248 17.392 91.5528 17.648C91.6808 17.8827 91.8088 18.1173 91.9368 18.352C92.0648 18.5867 92.2034 18.7787 92.3528 18.928C92.4808 19.056 92.4808 19.1627 92.3528 19.248C92.0328 19.4827 91.8194 19.728 91.7128 19.984C91.6274 20.24 91.5848 20.5493 91.5848 20.912V32.112C91.5848 32.3467 91.5528 32.4853 91.4888 32.528C91.4461 32.5707 91.2968 32.5707 91.0408 32.528C90.5928 32.528 90.1981 32.6027 89.8568 32.752C89.5154 32.9013 89.1741 33.072 88.8328 33.264C88.5128 33.4347 88.1714 33.6053 87.8088 33.776C87.4674 33.9253 87.0728 34 86.6248 34C85.8781 34.0213 85.1528 33.8933 84.4488 33.616C83.7448 33.3173 83.1794 32.8907 82.7528 32.336C82.4114 32.464 82.0808 32.624 81.7608 32.816C81.4408 33.008 81.1208 33.1893 80.8008 33.36C80.4808 33.5307 80.1608 33.68 79.8408 33.808C79.5208 33.936 79.1794 34 78.8168 34C77.9208 34.0213 77.1421 33.8613 76.4808 33.52C75.8194 33.1573 75.2754 32.72 74.8488 32.208C74.4221 31.696 74.1021 31.1733 73.8888 30.64C73.6968 30.1067 73.6114 29.6693 73.6328 29.328C73.6968 28.8373 73.8461 28.368 74.0807 27.92C74.3154 27.472 74.5928 27.0453 74.9128 26.64C75.2328 26.2133 75.5528 25.7973 75.8728 25.392C76.2141 24.9653 76.5128 24.5493 76.7688 24.144C77.0674 23.632 77.2061 23.0667 77.1848 22.448C77.1634 21.808 77.0568 21.232 76.8648 20.72C76.6728 20.1867 76.4274 19.7813 76.1288 19.504C75.8301 19.2267 75.5528 19.1947 75.2968 19.408C75.1474 19.536 75.0941 19.7067 75.1368 19.92C75.1794 20.112 75.2541 20.3147 75.3608 20.528C75.4674 20.72 75.5954 20.8907 75.7448 21.04C75.8941 21.168 76.0008 21.232 76.0648 21.232C76.1714 21.2533 76.2034 21.3173 76.1608 21.424C76.0968 21.5733 75.9901 21.7653 75.8408 22C75.7128 22.2133 75.5528 22.416 75.3608 22.608C75.1901 22.8 74.9981 22.9387 74.7848 23.024C74.5928 23.1093 74.4008 23.1093 74.2088 23.024C74.1021 22.9813 73.9848 22.896 73.8568 22.768C73.7501 22.6187 73.6434 22.4693 73.5368 22.32C73.4301 22.1707 73.3341 22.032 73.2488 21.904C73.1848 21.7547 73.1528 21.6693 73.1528 21.648C73.1314 21.584 73.1954 21.4133 73.3448 21.136C73.4941 20.8373 73.6968 20.4853 73.9528 20.08C74.2301 19.6747 74.5394 19.248 74.8808 18.8C75.2221 18.352 75.5634 17.936 75.9048 17.552C76.2674 17.168 76.6088 16.848 76.9288 16.592C77.2488 16.336 77.5154 16.2187 77.7288 16.24C78.1981 16.2613 78.6248 16.432 79.0088 16.752C79.3928 17.0507 79.7234 17.424 80.0008 17.872C80.2781 18.2987 80.4701 18.7573 80.5768 19.248C80.7048 19.7173 80.7368 20.144 80.6728 20.528C80.6514 20.8907 80.4594 21.3387 80.0968 21.872C79.7341 22.4053 79.3288 22.96 78.8808 23.536C78.4328 24.112 77.9954 24.688 77.5688 25.264C77.1634 25.84 76.8861 26.3627 76.7368 26.832C76.6514 27.472 76.7581 28.112 77.0568 28.752C77.3768 29.392 77.7928 29.936 78.3048 30.384C78.8168 30.832 79.3821 31.152 80.0008 31.344C80.6194 31.5147 81.1954 31.4507 81.7288 31.152V25.904C81.7288 25.5413 81.6754 25.232 81.5688 24.976C81.4621 24.72 81.2488 24.4747 80.9288 24.24C80.8434 24.1547 80.8434 24.048 80.9288 23.92C81.2701 23.6213 81.5474 23.3013 81.7608 22.96C81.9954 22.6187 82.3048 22.3307 82.6888 22.096C83.1794 21.7973 83.6594 21.7973 84.1288 22.096C84.3208 22.224 84.4914 22.3947 84.6408 22.608C84.7901 22.8213 84.9288 23.056 85.0568 23.312C85.1848 23.5467 85.3128 23.7813 85.4408 24.016C85.5688 24.2293 85.7181 24.4107 85.8888 24.56C85.9741 24.688 85.9741 24.8053 85.8888 24.912C85.5688 25.1253 85.3554 25.3707 85.2488 25.648C85.1421 25.904 85.0888 26.2027 85.0888 26.544ZM98.71 20.496C98.7953 20.5173 98.8167 20.5813 98.774 20.688C98.7313 20.7733 98.6673 20.8693 98.582 20.976C98.518 21.0827 98.4327 21.1893 98.326 21.296C98.2407 21.4027 98.1767 21.4773 98.134 21.52C97.878 21.7333 97.558 21.8933 97.174 22C96.79 22.0853 96.406 22.0853 96.022 22C95.638 21.9147 95.286 21.712 94.966 21.392C94.646 21.072 94.422 20.6027 94.294 19.984C95.19 18.5973 96.1393 17.616 97.142 17.04C98.166 16.464 99.158 16.1973 100.118 16.24C100.566 16.24 100.993 16.3253 101.398 16.496C101.825 16.6453 102.241 16.816 102.646 17.008C103.073 17.1787 103.489 17.3387 103.894 17.488C104.321 17.6373 104.758 17.712 105.206 17.712C105.441 17.6693 105.59 17.6693 105.654 17.712C105.718 17.7547 105.75 17.8933 105.75 18.128V29.328C105.75 29.6693 105.793 29.9787 105.878 30.256C105.985 30.512 106.198 30.7467 106.518 30.96C106.603 31.0667 106.603 31.184 106.518 31.312C106.347 31.4613 106.198 31.6533 106.07 31.888C105.942 32.1227 105.814 32.3573 105.686 32.592C105.558 32.8267 105.419 33.0507 105.27 33.264C105.142 33.4773 104.982 33.648 104.79 33.776C104.278 34.0533 103.787 34.0533 103.318 33.776C102.934 33.5413 102.625 33.264 102.39 32.944C102.177 32.6027 101.91 32.2827 101.59 31.984C101.483 31.856 101.483 31.7387 101.59 31.632C101.91 31.4187 102.113 31.184 102.198 30.928C102.305 30.6507 102.358 30.3307 102.358 29.968V20.528C102.123 20.4853 101.867 20.3787 101.59 20.208C101.334 20.016 101.025 19.824 100.662 19.632C100.321 19.4187 99.9153 19.216 99.446 19.024C98.998 18.832 98.4753 18.704 97.878 18.64C97.3447 18.576 97.014 18.6293 96.886 18.8C96.758 18.9707 96.758 19.1733 96.886 19.408C97.014 19.6213 97.2487 19.8453 97.59 20.08C97.9313 20.2933 98.3047 20.432 98.71 20.496ZM118.345 16.944C118.622 16.8587 118.836 16.944 118.985 17.2C119.156 17.4347 119.262 17.7333 119.305 18.096C119.348 18.4587 119.326 18.8427 119.241 19.248C119.177 19.6533 119.06 19.9733 118.889 20.208C118.697 20.464 118.462 20.7307 118.185 21.008C117.908 21.2853 117.62 21.5627 117.321 21.84C117.044 22.1173 116.766 22.384 116.489 22.64C116.212 22.8747 115.966 23.0987 115.753 23.312C115.006 24.0373 114.164 24.464 113.225 24.592C112.286 24.72 111.412 24.5067 110.601 23.952C110.238 23.696 109.876 23.3653 109.513 22.96C109.172 22.5547 108.926 22.0853 108.777 21.552C109.012 21.104 109.257 20.6667 109.513 20.24C109.769 19.792 110.046 19.3867 110.345 19.024C110.665 18.64 111.017 18.3307 111.401 18.096C111.785 17.84 112.212 17.7013 112.681 17.68C112.894 17.68 113.086 17.7013 113.257 17.744C113.449 17.7867 113.63 17.872 113.801 18C113.993 18.128 114.164 18.32 114.313 18.576C114.484 18.832 114.644 19.184 114.793 19.632C114.772 19.7173 114.676 19.8667 114.505 20.08C114.334 20.2933 114.142 20.496 113.929 20.688C113.737 20.88 113.545 21.0507 113.353 21.2C113.161 21.328 113.033 21.3813 112.969 21.36C112.884 21.36 112.82 21.3067 112.777 21.2C112.734 21.072 112.734 20.9653 112.777 20.88C112.564 20.2613 112.372 19.8453 112.201 19.632C112.052 19.4187 111.924 19.3333 111.817 19.376C111.71 19.4187 111.561 19.536 111.369 19.728C111.177 19.92 111.07 20.1547 111.049 20.432C111.134 20.8373 111.316 21.1893 111.593 21.488C111.87 21.7653 112.18 21.9893 112.521 22.16C112.884 22.3307 113.246 22.448 113.609 22.512C113.993 22.5547 114.324 22.544 114.601 22.48C115.22 22.3307 115.657 22.0533 115.913 21.648C116.169 21.2213 116.308 20.7947 116.329 20.368C116.372 19.92 116.34 19.5253 116.233 19.184C116.148 18.8427 116.073 18.6613 116.009 18.64C115.86 18.6187 115.774 18.5547 115.753 18.448C115.753 18.3413 115.785 18.2347 115.849 18.128C115.913 18.0427 116.062 17.936 116.297 17.808C116.532 17.68 116.777 17.5627 117.033 17.456C117.31 17.328 117.566 17.2213 117.801 17.136C118.057 17.0293 118.238 16.9653 118.345 16.944ZM118.889 28.4C118.697 28.6773 118.462 28.9547 118.185 29.232C117.908 29.5093 117.62 29.7867 117.321 30.064C117.044 30.32 116.766 30.576 116.489 30.832C116.212 31.0667 115.966 31.2907 115.753 31.504C115.006 32.2507 114.164 32.688 113.225 32.816C112.286 32.9227 111.412 32.6987 110.601 32.144C110.238 31.9093 109.876 31.5893 109.513 31.184C109.172 30.7787 108.926 30.2987 108.777 29.744C109.012 29.3173 109.257 28.88 109.513 28.432C109.769 27.984 110.046 27.5787 110.345 27.216C110.665 26.832 111.017 26.5227 111.401 26.288C111.785 26.032 112.212 25.8933 112.681 25.872C112.894 25.872 113.086 25.8933 113.257 25.936C113.449 25.9787 113.63 26.064 113.801 26.192C113.993 26.32 114.164 26.5227 114.313 26.8C114.484 27.056 114.644 27.408 114.793 27.856C114.772 27.9413 114.676 28.0907 114.505 28.304C114.334 28.496 114.142 28.688 113.929 28.88C113.737 29.072 113.545 29.2427 113.353 29.392C113.161 29.52 113.033 29.5733 112.969 29.552C112.884 29.552 112.82 29.4987 112.777 29.392C112.734 29.264 112.734 29.1573 112.777 29.072C112.564 28.4533 112.372 28.0373 112.201 27.824C112.052 27.6107 111.924 27.5253 111.817 27.568C111.71 27.6107 111.561 27.728 111.369 27.92C111.177 28.112 111.07 28.3467 111.049 28.624C111.134 29.0293 111.316 29.3813 111.593 29.68C111.87 29.9787 112.18 30.2133 112.521 30.384C112.884 30.5333 113.246 30.64 113.609 30.704C113.993 30.7467 114.324 30.736 114.601 30.672C115.22 30.5227 115.657 30.2453 115.913 29.84C116.169 29.4133 116.308 28.9867 116.329 28.56C116.372 28.112 116.34 27.7173 116.233 27.376C116.148 27.0347 116.073 26.864 116.009 26.864C115.86 26.8213 115.774 26.7467 115.753 26.64C115.753 26.5333 115.785 26.4267 115.849 26.32C115.913 26.2347 116.062 26.128 116.297 26C116.532 25.872 116.777 25.7547 117.033 25.648C117.31 25.52 117.566 25.4133 117.801 25.328C118.057 25.2213 118.238 25.1573 118.345 25.136C118.622 25.0507 118.836 25.136 118.985 25.392C119.156 25.6267 119.262 25.9253 119.305 26.288C119.348 26.6507 119.326 27.0347 119.241 27.44C119.177 27.8453 119.06 28.1653 118.889 28.4ZM135.059 19.248C134.739 19.4827 134.526 19.728 134.419 19.984C134.334 20.24 134.291 20.5493 134.291 20.912V32.112C134.291 32.3467 134.259 32.4853 134.195 32.528C134.131 32.5707 133.982 32.5707 133.747 32.528C133.299 32.528 132.809 32.6027 132.275 32.752C131.763 32.9013 131.241 33.072 130.707 33.264C130.174 33.4347 129.641 33.6053 129.107 33.776C128.595 33.9253 128.115 34 127.667 34C126.793 34.0213 126.003 33.8613 125.299 33.52C124.617 33.1573 124.041 32.72 123.571 32.208C123.102 31.696 122.75 31.1733 122.515 30.64C122.281 30.1067 122.174 29.6693 122.195 29.328C122.259 28.8373 122.409 28.368 122.643 27.92C122.878 27.472 123.155 27.0453 123.475 26.64C123.795 26.2133 124.115 25.7973 124.435 25.392C124.777 24.9653 125.075 24.5493 125.331 24.144C125.63 23.632 125.769 23.0667 125.747 22.448C125.726 21.808 125.619 21.232 125.427 20.72C125.235 20.1867 124.99 19.7813 124.691 19.504C124.393 19.2267 124.115 19.1947 123.859 19.408C123.71 19.536 123.657 19.7067 123.699 19.92C123.742 20.112 123.817 20.3147 123.923 20.528C124.03 20.72 124.158 20.8907 124.307 21.04C124.457 21.168 124.563 21.232 124.627 21.232C124.734 21.2533 124.766 21.3173 124.723 21.424C124.659 21.5733 124.553 21.7653 124.403 22C124.275 22.2133 124.115 22.416 123.923 22.608C123.753 22.8 123.561 22.9387 123.347 23.024C123.155 23.1093 122.963 23.1093 122.771 23.024C122.665 22.9813 122.547 22.896 122.419 22.768C122.313 22.6187 122.206 22.4693 122.099 22.32C121.993 22.1707 121.897 22.032 121.811 21.904C121.747 21.7547 121.715 21.6693 121.715 21.648C121.694 21.584 121.758 21.4133 121.907 21.136C122.057 20.8373 122.259 20.4853 122.515 20.08C122.793 19.6747 123.102 19.248 123.443 18.8C123.785 18.352 124.126 17.936 124.467 17.552C124.83 17.168 125.171 16.848 125.491 16.592C125.811 16.336 126.078 16.2187 126.291 16.24C126.761 16.2613 127.187 16.432 127.571 16.752C127.955 17.0507 128.286 17.424 128.563 17.872C128.841 18.2987 129.033 18.7573 129.139 19.248C129.267 19.7173 129.299 20.144 129.235 20.528C129.214 20.8907 129.022 21.3387 128.659 21.872C128.297 22.4053 127.891 22.96 127.443 23.536C126.995 24.112 126.558 24.688 126.131 25.264C125.726 25.84 125.449 26.3627 125.299 26.832C125.129 28.2187 125.502 29.3493 126.419 30.224C126.739 30.5013 127.07 30.7573 127.411 30.992C127.774 31.2267 128.137 31.3973 128.499 31.504C128.883 31.6107 129.278 31.6427 129.683 31.6C130.089 31.5573 130.494 31.408 130.899 31.152V20.24C130.899 19.8987 130.846 19.6 130.739 19.344C130.654 19.0667 130.451 18.8213 130.131 18.608C130.025 18.48 130.025 18.3627 130.131 18.256C130.451 17.9573 130.718 17.648 130.931 17.328C131.166 16.9867 131.475 16.6987 131.859 16.464C132.35 16.144 132.841 16.144 133.331 16.464C133.523 16.5707 133.683 16.7307 133.811 16.944C133.961 17.1573 134.099 17.392 134.227 17.648C134.355 17.8827 134.483 18.1173 134.611 18.352C134.739 18.5867 134.889 18.7787 135.059 18.928C135.166 19.0347 135.166 19.1413 135.059 19.248ZM143.797 25.36C143.541 25.1467 143.285 25.1573 143.029 25.392C142.773 25.6267 142.527 25.9467 142.293 26.352C142.079 26.736 141.898 27.152 141.749 27.6C141.621 28.0267 141.557 28.336 141.557 28.528C141.599 28.976 141.77 29.392 142.069 29.776C142.389 30.1387 142.762 30.4587 143.189 30.736C143.615 31.0133 144.074 31.2267 144.565 31.376C145.077 31.5253 145.535 31.6107 145.941 31.632C146.431 31.6747 146.922 31.664 147.413 31.6C147.903 31.536 148.33 31.3867 148.693 31.152V20.688C148.351 20.6453 147.925 20.5493 147.413 20.4C146.901 20.2507 146.367 20.0907 145.813 19.92C145.279 19.7493 144.735 19.5787 144.181 19.408C143.647 19.216 143.157 19.056 142.709 18.928C142.047 18.736 141.525 18.64 141.141 18.64C140.757 18.6187 140.479 18.6613 140.309 18.768C140.159 18.8747 140.106 19.0133 140.149 19.184C140.191 19.3547 140.298 19.536 140.469 19.728C140.661 19.8987 140.895 20.0587 141.173 20.208C141.45 20.3573 141.749 20.4533 142.069 20.496C142.154 20.5173 142.175 20.5813 142.133 20.688C142.09 20.7733 142.026 20.8693 141.941 20.976C141.877 21.0827 141.791 21.1893 141.685 21.296C141.599 21.4027 141.535 21.4773 141.493 21.52C141.237 21.7333 140.917 21.8933 140.533 22C140.149 22.0853 139.765 22.0853 139.381 22C138.997 21.8933 138.645 21.68 138.325 21.36C138.005 21.04 137.781 20.5707 137.653 19.952C138.549 18.5653 139.498 17.5947 140.501 17.04C141.525 16.464 142.517 16.1973 143.477 16.24C143.925 16.24 144.511 16.3253 145.237 16.496C145.962 16.6453 146.719 16.816 147.509 17.008C148.298 17.1787 149.055 17.3387 149.781 17.488C150.506 17.6373 151.093 17.712 151.541 17.712C151.775 17.6693 151.925 17.6693 151.989 17.712C152.053 17.7547 152.085 17.8933 152.085 18.128V32.112C152.085 32.3467 152.053 32.4853 151.989 32.528C151.925 32.5707 151.775 32.5707 151.541 32.528C151.093 32.528 150.517 32.6027 149.813 32.752C149.109 32.9013 148.383 33.072 147.637 33.264C146.89 33.4347 146.165 33.6053 145.461 33.776C144.757 33.9253 144.181 34 143.733 34C143.029 34.0213 142.389 33.9147 141.813 33.68C141.237 33.4453 140.725 33.1573 140.277 32.816C139.829 32.4533 139.445 32.0587 139.125 31.632C138.826 31.184 138.602 30.768 138.453 30.384C138.261 29.872 138.197 29.392 138.261 28.944C138.303 28.5387 138.453 28.0053 138.709 27.344C138.986 26.6613 139.317 26 139.701 25.36C140.085 24.72 140.511 24.176 140.981 23.728C141.45 23.2587 141.909 23.0453 142.357 23.088C142.549 23.1093 142.762 23.1947 142.997 23.344C143.231 23.472 143.455 23.632 143.669 23.824C143.903 24.016 144.127 24.2293 144.341 24.464C144.575 24.6773 144.789 24.8907 144.981 25.104C145.301 25.4453 145.557 25.7867 145.749 26.128C145.962 26.448 146.09 26.7787 146.133 27.12C146.175 27.4613 146.122 27.8027 145.973 28.144C145.823 28.464 145.557 28.7947 145.173 29.136C145.023 29.0933 144.831 28.9973 144.597 28.848C144.383 28.6987 144.17 28.528 143.957 28.336C143.765 28.144 143.573 27.9413 143.381 27.728C143.21 27.5147 143.093 27.344 143.029 27.216C142.986 27.1093 142.975 27.024 142.997 26.96C143.039 26.8747 143.114 26.832 143.221 26.832C143.541 26.5973 143.754 26.3413 143.861 26.064C143.989 25.7867 143.967 25.552 143.797 25.36ZM164.024 16.24C164.408 16.2613 164.749 16.3573 165.048 16.528C165.368 16.6773 165.634 16.8587 165.848 17.072C166.061 17.264 166.232 17.4453 166.36 17.616C166.509 17.7867 166.605 17.904 166.648 17.968V32.112C166.648 32.3467 166.616 32.4853 166.552 32.528C166.488 32.5707 166.338 32.5707 166.104 32.528C165.634 32.5067 165.208 32.5813 164.824 32.752C164.44 32.9013 164.066 33.0613 163.704 33.232C163.298 33.4453 162.925 33.6267 162.584 33.776C162.242 33.9253 161.837 34 161.368 34C160.621 34 159.842 33.7333 159.032 33.2C158.242 32.6453 157.517 31.9627 156.856 31.152C156.194 30.32 155.661 29.424 155.256 28.464C154.85 27.504 154.68 26.6187 154.743 25.808C154.786 25.3387 154.946 24.7947 155.224 24.176C155.522 23.5573 155.832 23.024 156.152 22.576C156.493 22.128 156.781 21.8613 157.016 21.776C157.272 21.6693 157.357 21.904 157.272 22.48C157.165 22.9707 157.165 23.5467 157.272 24.208C157.4 24.8693 157.602 25.552 157.88 26.256C158.157 26.96 158.498 27.6533 158.904 28.336C159.309 29.0187 159.746 29.616 160.216 30.128C160.685 30.64 161.176 31.0453 161.688 31.344C162.221 31.6213 162.744 31.7173 163.256 31.632V20.112C163.256 19.8987 163.213 19.7173 163.128 19.568C163.064 19.4187 162.978 19.3013 162.872 19.216C162.765 19.1093 162.658 19.0453 162.552 19.024C162.445 18.9813 162.36 18.9707 162.296 18.992C162.04 18.992 161.848 19.0773 161.72 19.248C161.613 19.4187 161.56 19.6213 161.56 19.856C161.581 20.0907 161.666 20.336 161.816 20.592C161.965 20.8267 162.168 21.0293 162.424 21.2C162.552 21.2 162.594 21.2533 162.552 21.36C162.509 21.5307 162.424 21.7333 162.296 21.968C162.168 22.1813 162.008 22.384 161.816 22.576C161.645 22.768 161.453 22.9173 161.24 23.024C161.048 23.1307 160.856 23.1413 160.664 23.056C160.536 23.0133 160.397 22.9173 160.248 22.768C160.12 22.6187 160.002 22.4693 159.896 22.32C159.81 22.1493 159.736 22 159.672 21.872C159.608 21.7227 159.576 21.6373 159.576 21.616C159.554 21.552 159.618 21.3813 159.768 21.104C159.917 20.8053 160.109 20.464 160.344 20.08C160.6 19.6747 160.888 19.248 161.208 18.8C161.549 18.3307 161.89 17.9147 162.232 17.552C162.573 17.168 162.893 16.848 163.192 16.592C163.512 16.336 163.789 16.2187 164.024 16.24ZM174.554 19.248C174.234 19.4827 174.021 19.728 173.914 19.984C173.829 20.24 173.786 20.5493 173.786 20.912V27.984C173.807 29.0293 174.01 29.744 174.394 30.128C174.778 30.4907 175.258 30.5867 175.834 30.416C175.941 30.3733 176.026 30.384 176.09 30.448C176.154 30.512 176.154 30.5867 176.09 30.672C175.877 31.0133 175.653 31.3867 175.418 31.792C175.183 32.176 174.938 32.5387 174.682 32.88C174.426 33.2213 174.159 33.4987 173.882 33.712C173.605 33.9253 173.317 34.0213 173.018 34C172.613 33.9787 172.239 33.8293 171.898 33.552C171.578 33.2533 171.279 32.9227 171.002 32.56C170.746 32.176 170.511 31.8027 170.298 31.44C170.085 31.0773 169.882 30.8213 169.69 30.672C169.626 30.6293 169.594 30.576 169.594 30.512C169.615 30.448 169.647 30.3947 169.69 30.352C169.903 30.3307 170.053 30.256 170.138 30.128C170.245 29.9787 170.309 29.808 170.33 29.616C170.373 29.424 170.394 29.2213 170.394 29.008C170.394 28.7947 170.394 28.6027 170.394 28.432V20.24C170.394 19.8987 170.341 19.6 170.234 19.344C170.149 19.0667 169.946 18.8213 169.626 18.608C169.541 18.5013 169.541 18.384 169.626 18.256C169.967 17.9573 170.245 17.648 170.458 17.328C170.693 16.9867 171.002 16.6987 171.386 16.464C171.877 16.144 172.357 16.144 172.826 16.464C173.018 16.5707 173.189 16.7307 173.338 16.944C173.487 17.1573 173.626 17.392 173.754 17.648C173.882 17.8827 174.01 18.1173 174.138 18.352C174.266 18.5867 174.405 18.7787 174.554 18.928C174.682 19.056 174.682 19.1627 174.554 19.248ZM184.285 27.984V24.88C183.773 24.688 183.218 24.4853 182.621 24.272C182.024 24.0373 181.405 23.8133 180.765 23.6C180.125 23.3867 179.496 23.2053 178.877 23.056C178.258 22.8853 177.672 22.7893 177.117 22.768C177.01 22.7467 176.893 22.672 176.765 22.544C176.658 22.3947 176.69 22.1387 176.861 21.776C177.16 21.1147 177.48 20.4533 177.821 19.792C178.162 19.1093 178.557 18.5013 179.005 17.968C179.474 17.4347 180.008 17.008 180.605 16.688C181.224 16.3467 181.938 16.1973 182.749 16.24C183.197 16.2613 183.592 16.3253 183.933 16.432C184.274 16.5173 184.594 16.624 184.893 16.752C185.192 16.88 185.501 17.0293 185.821 17.2C186.141 17.3493 186.493 17.4987 186.877 17.648C187.026 17.6907 187.144 17.6907 187.229 17.648C187.336 17.6053 187.389 17.5307 187.389 17.424C187.389 17.3173 187.325 17.2 187.197 17.072C187.069 16.944 186.856 16.816 186.557 16.688C186.6 16.5173 186.664 16.3253 186.749 16.112C186.834 15.8987 186.93 15.7067 187.037 15.536C187.165 15.344 187.314 15.2053 187.485 15.12C187.677 15.0133 187.89 14.992 188.125 15.056C188.53 15.184 188.786 15.4187 188.893 15.76C189.021 16.08 189.042 16.4427 188.957 16.848C188.872 17.2533 188.712 17.68 188.477 18.128C188.242 18.576 187.976 18.9813 187.677 19.344C187.378 19.7067 187.058 20.0053 186.717 20.24C186.397 20.4747 186.109 20.5813 185.853 20.56C185.341 20.496 184.797 20.3147 184.221 20.016C183.645 19.7173 183.08 19.4613 182.525 19.248C181.992 19.0133 181.48 18.896 180.989 18.896C180.498 18.896 180.072 19.1627 179.709 19.696C179.624 19.76 179.517 19.92 179.389 20.176C179.282 20.4107 179.208 20.5813 179.165 20.688C179.464 20.7093 179.858 20.7947 180.349 20.944C180.861 21.072 181.405 21.232 181.981 21.424C182.557 21.616 183.133 21.8187 183.709 22.032C184.306 22.2453 184.84 22.4373 185.309 22.608C186.056 22.7787 186.664 22.864 187.133 22.864C187.368 22.8213 187.517 22.8213 187.581 22.864C187.645 22.9067 187.677 23.0453 187.677 23.28V28.432C187.677 28.6027 187.677 28.7947 187.677 29.008C187.677 29.2213 187.688 29.424 187.709 29.616C187.752 29.808 187.816 29.9787 187.901 30.128C188.008 30.256 188.168 30.3307 188.381 30.352C188.445 30.3947 188.477 30.448 188.477 30.512C188.477 30.576 188.445 30.6293 188.381 30.672C188.189 30.8213 187.986 31.0773 187.773 31.44C187.56 31.8027 187.314 32.176 187.037 32.56C186.781 32.9227 186.493 33.2533 186.173 33.552C185.853 33.8293 185.48 33.9787 185.053 34C184.754 34.0213 184.466 33.9253 184.189 33.712C183.912 33.4987 183.645 33.2213 183.389 32.88C183.133 32.5387 182.888 32.176 182.653 31.792C182.418 31.3867 182.194 31.0133 181.981 30.672C181.938 30.5867 181.938 30.512 181.981 30.448C182.045 30.384 182.141 30.3733 182.269 30.416C182.824 30.5867 183.293 30.4907 183.677 30.128C184.061 29.744 184.264 29.0293 184.285 27.984ZM194.21 20.496C194.295 20.5173 194.317 20.5813 194.274 20.688C194.231 20.7733 194.167 20.8693 194.082 20.976C194.018 21.0827 193.933 21.1893 193.826 21.296C193.741 21.4027 193.677 21.4773 193.634 21.52C193.378 21.7333 193.058 21.8933 192.674 22C192.29 22.0853 191.906 22.0853 191.522 22C191.138 21.9147 190.786 21.712 190.466 21.392C190.146 21.072 189.922 20.6027 189.794 19.984C190.69 18.5973 191.639 17.616 192.642 17.04C193.666 16.464 194.658 16.1973 195.618 16.24C196.066 16.24 196.493 16.3253 196.898 16.496C197.325 16.6453 197.741 16.816 198.146 17.008C198.573 17.1787 198.989 17.3387 199.394 17.488C199.821 17.6373 200.258 17.712 200.706 17.712C200.941 17.6693 201.09 17.6693 201.154 17.712C201.218 17.7547 201.25 17.8933 201.25 18.128V29.328C201.25 29.6693 201.293 29.9787 201.378 30.256C201.485 30.512 201.698 30.7467 202.018 30.96C202.103 31.0667 202.103 31.184 202.018 31.312C201.847 31.4613 201.698 31.6533 201.57 31.888C201.442 32.1227 201.314 32.3573 201.186 32.592C201.058 32.8267 200.919 33.0507 200.77 33.264C200.642 33.4773 200.482 33.648 200.29 33.776C199.778 34.0533 199.287 34.0533 198.818 33.776C198.434 33.5413 198.125 33.264 197.89 32.944C197.677 32.6027 197.41 32.2827 197.09 31.984C196.983 31.856 196.983 31.7387 197.09 31.632C197.41 31.4187 197.613 31.184 197.698 30.928C197.805 30.6507 197.858 30.3307 197.858 29.968V20.528C197.623 20.4853 197.367 20.3787 197.09 20.208C196.834 20.016 196.525 19.824 196.162 19.632C195.821 19.4187 195.415 19.216 194.946 19.024C194.498 18.832 193.975 18.704 193.378 18.64C192.845 18.576 192.514 18.6293 192.386 18.8C192.258 18.9707 192.258 19.1733 192.386 19.408C192.514 19.6213 192.749 19.8453 193.09 20.08C193.431 20.2933 193.805 20.432 194.21 20.496ZM216.181 26.16C215.989 26.7147 215.712 27.44 215.349 28.336C214.986 29.2107 214.549 30.0747 214.037 30.928C213.546 31.76 212.981 32.4853 212.341 33.104C211.701 33.7013 211.008 34 210.261 34C209.386 34.0213 208.597 33.8613 207.893 33.52C207.21 33.1573 206.634 32.72 206.165 32.208C205.696 31.696 205.344 31.1733 205.109 30.64C204.874 30.1067 204.768 29.6693 204.789 29.328C204.853 28.8373 205.002 28.368 205.237 27.92C205.472 27.472 205.749 27.0453 206.069 26.64C206.389 26.2133 206.709 25.7973 207.029 25.392C207.37 24.9653 207.669 24.5493 207.925 24.144C208.224 23.632 208.362 23.0667 208.341 22.448C208.32 21.808 208.213 21.232 208.021 20.72C207.829 20.1867 207.584 19.7813 207.285 19.504C206.986 19.2267 206.709 19.1947 206.453 19.408C206.304 19.536 206.25 19.7067 206.293 19.92C206.336 20.112 206.41 20.3147 206.517 20.528C206.624 20.72 206.752 20.8907 206.901 21.04C207.05 21.168 207.157 21.232 207.221 21.232C207.328 21.2533 207.36 21.3173 207.317 21.424C207.253 21.5733 207.146 21.7653 206.997 22C206.869 22.2133 206.709 22.416 206.517 22.608C206.346 22.8 206.154 22.9387 205.941 23.024C205.749 23.1093 205.557 23.1093 205.365 23.024C205.258 22.9813 205.141 22.896 205.013 22.768C204.906 22.6187 204.8 22.4693 204.693 22.32C204.586 22.1707 204.49 22.032 204.405 21.904C204.341 21.7547 204.309 21.6693 204.309 21.648C204.288 21.584 204.352 21.4133 204.501 21.136C204.65 20.8373 204.853 20.4853 205.109 20.08C205.386 19.6747 205.696 19.248 206.037 18.8C206.378 18.352 206.72 17.936 207.061 17.552C207.424 17.168 207.765 16.848 208.085 16.592C208.405 16.336 208.672 16.2187 208.885 16.24C209.354 16.2613 209.781 16.432 210.165 16.752C210.549 17.0507 210.88 17.424 211.157 17.872C211.434 18.2987 211.626 18.7573 211.733 19.248C211.861 19.7173 211.893 20.144 211.829 20.528C211.808 20.8907 211.616 21.3387 211.253 21.872C210.89 22.4053 210.485 22.96 210.037 23.536C209.589 24.112 209.152 24.688 208.725 25.264C208.32 25.84 208.042 26.3627 207.893 26.832C207.786 27.3653 207.85 27.8987 208.085 28.432C208.32 28.944 208.64 29.4027 209.045 29.808C209.472 30.2133 209.952 30.5227 210.485 30.736C211.018 30.928 211.541 30.9813 212.053 30.896C212.48 30.8107 212.746 30.64 212.853 30.384C212.96 30.128 212.981 29.808 212.917 29.424C212.853 29.0187 212.736 28.5707 212.565 28.08C212.394 27.5893 212.245 27.0773 212.117 26.544C212.01 26.0107 211.946 25.4773 211.925 24.944C211.904 24.3893 212.01 23.856 212.245 23.344C212.629 22.3413 213.002 21.4133 213.365 20.56C213.749 19.6853 214.122 18.928 214.485 18.288C214.848 17.648 215.2 17.1467 215.541 16.784C215.882 16.4 216.202 16.1867 216.501 16.144C217.205 16.1867 217.781 16.3467 218.229 16.624C218.698 16.88 219.114 17.168 219.477 17.488C219.84 17.808 220.17 18.128 220.469 18.448C220.789 18.7467 221.152 18.9707 221.557 19.12C221.664 19.1413 221.728 19.2053 221.749 19.312C221.77 19.4187 221.749 19.5147 221.685 19.6C221.386 19.7707 221.237 20.0373 221.237 20.4V29.968C221.237 30.3307 221.28 30.6507 221.365 30.928C221.472 31.184 221.685 31.4187 222.005 31.632C222.112 31.76 222.112 31.8773 222.005 31.984C221.685 32.2827 221.408 32.6027 221.173 32.944C220.96 33.264 220.661 33.5413 220.277 33.776C219.786 34.0747 219.296 34.0747 218.805 33.776C218.613 33.648 218.442 33.4773 218.293 33.264C218.165 33.0507 218.037 32.8267 217.909 32.592C217.781 32.3573 217.653 32.1227 217.525 31.888C217.397 31.6533 217.248 31.4613 217.077 31.312C216.97 31.2053 216.97 31.088 217.077 30.96C217.397 30.7467 217.6 30.512 217.685 30.256C217.792 29.9787 217.845 29.6693 217.845 29.328V21.04C217.61 20.912 217.365 20.7413 217.109 20.528C216.874 20.3147 216.64 20.1333 216.405 19.984C216.192 19.8347 215.989 19.76 215.797 19.76C215.605 19.76 215.445 19.8987 215.317 20.176C215.061 20.5173 214.965 20.9227 215.029 21.392C215.093 21.8613 215.21 22.3627 215.381 22.896C215.552 23.4293 215.722 23.9733 215.893 24.528C216.085 25.0827 216.181 25.6267 216.181 26.16ZM221.39 12.208C221.028 12.9547 220.633 13.5093 220.206 13.872C219.758 14.2347 219.364 14.3627 219.022 14.256C218.788 14.192 218.489 14.0107 218.126 13.712C217.742 13.392 217.316 13.0507 216.846 12.688C216.356 12.3253 215.812 11.984 215.214 11.664C214.617 11.344 213.966 11.1413 213.262 11.056C212.793 10.992 212.505 11.0453 212.398 11.216C212.292 11.3653 212.302 11.5573 212.43 11.792C212.558 12.0053 212.772 12.2187 213.07 12.432C213.369 12.624 213.71 12.752 214.094 12.816C214.158 12.8373 214.18 12.8907 214.158 12.976C214.116 13.0613 214.062 13.1573 213.998 13.264C213.913 13.3707 213.828 13.4773 213.742 13.584C213.657 13.6693 213.593 13.7333 213.55 13.776C213.316 13.9893 213.028 14.1493 212.686 14.256C212.324 14.3413 211.961 14.3413 211.598 14.256C211.236 14.1493 210.905 13.9467 210.606 13.648C210.308 13.3493 210.105 12.9013 209.998 12.304C210.809 11.0027 211.662 10.096 212.558 9.584C213.454 9.05067 214.35 8.80533 215.246 8.848C215.609 8.848 216.089 8.99733 216.686 9.296C217.262 9.57333 217.753 9.91467 218.158 10.32V9.68C218.158 9.168 218.308 8.70933 218.606 8.304C218.905 7.87733 219.3 7.67467 219.79 7.696C220.217 7.71733 220.601 7.89867 220.942 8.24C221.262 8.56 221.572 8.85867 221.87 9.136C221.956 9.22133 221.956 9.328 221.87 9.456C221.742 9.54133 221.657 9.616 221.614 9.68C221.55 9.744 221.508 9.81867 221.486 9.904C221.444 9.98933 221.422 10.096 221.422 10.224C221.422 10.352 221.422 10.5227 221.422 10.736V12.016C221.422 12.0587 221.422 12.0907 221.422 12.112C221.401 12.1333 221.39 12.1653 221.39 12.208ZM217.55 1.808C217.486 1.72267 217.486 1.60533 217.55 1.456C217.849 1.2 218.19 0.911999 218.574 0.591999C218.958 0.250665 219.364 0.0693309 219.79 0.0479965C220.281 0.0266647 220.676 0.229332 220.974 0.655998C221.273 1.06133 221.422 1.52 221.422 2.032V2.928V3.088V3.984C221.422 4.496 221.273 4.96533 220.974 5.392C220.654 5.79733 220.26 5.98933 219.79 5.968C219.364 5.94667 218.958 5.776 218.574 5.456C218.19 5.11467 217.849 4.816 217.55 4.56C217.465 4.432 217.465 4.31466 217.55 4.208C217.849 4.016 218.009 3.83466 218.03 3.664C218.03 3.472 218.03 3.216 218.03 2.896C218.03 2.576 218.009 2.36267 217.966 2.256C217.924 2.128 217.785 1.97867 217.55 1.808ZM230.35 13.616V27.984C230.372 29.0293 230.564 29.744 230.926 30.128C231.31 30.4907 231.79 30.5867 232.366 30.416C232.494 30.3733 232.58 30.384 232.622 30.448C232.686 30.512 232.697 30.5867 232.654 30.672C232.441 31.0133 232.217 31.3867 231.982 31.792C231.748 32.176 231.502 32.5387 231.246 32.88C230.99 33.2213 230.724 33.4987 230.446 33.712C230.169 33.9253 229.881 34.0213 229.582 34C229.156 33.9787 228.772 33.8293 228.43 33.552C228.11 33.2533 227.822 32.9227 227.566 32.56C227.31 32.176 227.076 31.8027 226.862 31.44C226.649 31.0773 226.446 30.8213 226.254 30.672C226.19 30.6293 226.158 30.576 226.158 30.512C226.158 30.448 226.19 30.3947 226.254 30.352C226.446 30.3307 226.596 30.256 226.702 30.128C226.809 29.9787 226.873 29.808 226.894 29.616C226.937 29.424 226.958 29.2213 226.958 29.008C226.958 28.7947 226.958 28.6027 226.958 28.432V15.216C226.809 15.1307 226.606 15.0027 226.35 14.832C226.116 14.64 225.849 14.4587 225.55 14.288C225.273 14.096 224.985 13.936 224.686 13.808C224.388 13.6587 224.1 13.584 223.822 13.584C223.716 13.5627 223.598 13.488 223.47 13.36C223.364 13.2107 223.396 12.9547 223.566 12.592C223.865 11.9307 224.174 11.2693 224.494 10.608C224.836 9.92533 225.23 9.31733 225.678 8.784C226.148 8.22933 226.681 7.792 227.278 7.472C227.876 7.152 228.58 7.01333 229.39 7.056C229.945 7.03466 230.596 7.16267 231.342 7.44C232.11 7.696 232.846 7.952 233.55 8.208C234.254 8.464 234.873 8.656 235.406 8.784C235.94 8.912 236.249 8.83733 236.334 8.56C236.377 8.45333 236.334 8.32533 236.206 8.176C236.1 8.02667 235.876 7.888 235.534 7.76C235.577 7.58933 235.641 7.39733 235.726 7.184C235.812 6.97066 235.908 6.77866 236.014 6.608C236.142 6.416 236.292 6.27733 236.462 6.192C236.654 6.08533 236.868 6.05333 237.102 6.096C237.444 6.20267 237.678 6.39467 237.806 6.672C237.934 6.928 237.977 7.22666 237.934 7.568C237.913 7.90933 237.828 8.28267 237.678 8.688C237.529 9.072 237.337 9.44533 237.102 9.808C236.676 10.4907 236.249 10.9707 235.822 11.248C235.396 11.5253 234.948 11.6853 234.478 11.728C234.137 11.7493 233.732 11.6853 233.262 11.536C232.793 11.3867 232.292 11.2053 231.758 10.992C231.246 10.7787 230.724 10.5653 230.19 10.352C229.678 10.1387 229.177 9.98933 228.686 9.904C228.217 9.79733 227.78 9.776 227.374 9.84C226.969 9.904 226.649 10.1173 226.414 10.48C226.329 10.5653 226.222 10.736 226.094 10.992C225.988 11.2267 225.913 11.3973 225.87 11.504C226.041 11.504 226.265 11.5893 226.542 11.76C226.82 11.9307 227.14 12.1227 227.502 12.336C227.865 12.528 228.238 12.72 228.622 12.912C229.028 13.0827 229.422 13.1787 229.806 13.2C230.041 13.1573 230.19 13.1573 230.254 13.2C230.318 13.2427 230.35 13.3813 230.35 13.616ZM249.771 30.96C249.899 31.0453 249.899 31.152 249.771 31.28C249.622 31.4293 249.483 31.6213 249.355 31.856C249.227 32.0907 249.099 32.336 248.971 32.592C248.843 32.8267 248.704 33.0507 248.555 33.264C248.406 33.4773 248.235 33.6373 248.043 33.744C247.574 34.064 247.094 34.064 246.603 33.744C246.219 33.5093 245.91 33.232 245.675 32.912C245.462 32.5707 245.184 32.2507 244.843 31.952C244.758 31.824 244.758 31.7067 244.843 31.6C245.163 31.3867 245.366 31.152 245.451 30.896C245.558 30.6187 245.611 30.3093 245.611 29.968V20.656C245.27 20.6133 244.918 20.528 244.555 20.4C244.214 20.2507 243.862 20.0907 243.499 19.92C243.158 19.728 242.795 19.5467 242.411 19.376C242.027 19.2053 241.611 19.056 241.163 18.928C240.779 18.8213 240.438 18.736 240.139 18.672C239.84 18.5867 239.563 18.5653 239.307 18.608C239.072 18.6293 238.848 18.7147 238.635 18.864C238.422 18.992 238.198 19.216 237.963 19.536C237.686 19.8773 237.451 20.2613 237.259 20.688C237.088 21.0933 237.046 21.4773 237.131 21.84C237.174 22.1387 237.291 22.48 237.483 22.864C237.696 23.2267 237.931 23.6213 238.187 24.048C238.464 24.4747 238.742 24.9333 239.019 25.424C239.318 25.9147 239.595 26.4267 239.851 26.96C239.872 27.0027 239.904 27.0987 239.947 27.248C240.011 27.376 240.075 27.5147 240.139 27.664C240.203 27.8133 240.256 27.952 240.299 28.08C240.342 28.208 240.374 28.2933 240.395 28.336C240.48 28.5493 240.534 28.7093 240.555 28.816C240.768 28.6667 241.003 28.464 241.259 28.208C241.515 27.9307 241.664 27.7067 241.707 27.536C241.75 27.408 241.75 27.2587 241.707 27.088C241.686 26.9173 241.632 26.7573 241.547 26.608C241.483 26.4587 241.387 26.3307 241.259 26.224C241.152 26.096 241.014 26.032 240.843 26.032C240.672 26.032 240.534 26.0213 240.427 26C240.299 25.9147 240.256 25.808 240.299 25.68C240.342 25.5307 240.438 25.328 240.587 25.072C240.736 24.816 240.907 24.5707 241.099 24.336C241.312 24.1013 241.536 23.8987 241.771 23.728C242.027 23.536 242.262 23.44 242.475 23.44C242.71 23.504 242.944 23.632 243.179 23.824C243.435 23.9947 243.659 24.1973 243.851 24.432C244.064 24.6667 244.224 24.9227 244.331 25.2C244.459 25.4773 244.491 25.7333 244.427 25.968C244.384 26.2027 244.15 26.576 243.723 27.088C243.296 27.6 242.806 28.1547 242.251 28.752C241.718 29.328 241.163 29.8933 240.587 30.448C240.032 31.0027 239.595 31.44 239.275 31.76C238.848 32.208 238.336 32.6667 237.739 33.136C237.163 33.584 236.608 33.872 236.075 34C235.243 33.8507 234.71 33.616 234.475 33.296C234.262 32.9547 234.198 32.6027 234.283 32.24C234.39 31.8773 234.582 31.536 234.859 31.216C235.158 30.896 235.392 30.672 235.563 30.544C235.755 30.3307 235.904 30.2667 236.011 30.352C236.118 30.416 236.16 30.5333 236.139 30.704C236.139 30.96 236.235 31.1947 236.427 31.408C236.64 31.6 236.854 31.7387 237.067 31.824C237.302 31.888 237.494 31.8667 237.643 31.76C237.814 31.6533 237.856 31.4187 237.771 31.056C237.728 30.8427 237.654 30.6293 237.547 30.416C237.462 30.1813 237.366 29.9787 237.259 29.808C236.918 29.1893 236.523 28.56 236.075 27.92C235.648 27.28 235.264 26.6613 234.923 26.064C234.582 25.4453 234.336 24.8587 234.187 24.304C234.059 23.728 234.102 23.2053 234.315 22.736C234.464 22.3093 234.688 21.8613 234.987 21.392C235.286 20.9013 235.606 20.4427 235.947 20.016C236.288 19.568 236.598 19.184 236.875 18.864C237.174 18.5227 237.376 18.2987 237.483 18.192C238.208 17.4453 238.944 16.9227 239.691 16.624C240.459 16.304 241.206 16.1653 241.931 16.208C242.379 16.208 242.891 16.2933 243.467 16.464C244.043 16.6133 244.619 16.784 245.195 16.976C245.792 17.1467 246.368 17.3067 246.923 17.456C247.499 17.6053 248.011 17.68 248.459 17.68C248.715 17.6373 248.864 17.6373 248.907 17.68C248.971 17.7227 249.003 17.8613 249.003 18.096V29.296C249.003 29.6373 249.046 29.9467 249.131 30.224C249.238 30.48 249.451 30.7253 249.771 30.96ZM268.083 30.96C268.212 31.0453 268.212 31.152 268.083 31.28C267.934 31.4293 267.796 31.6213 267.668 31.856C267.54 32.0907 267.412 32.336 267.284 32.592C267.156 32.8267 267.017 33.0507 266.868 33.264C266.718 33.4773 266.548 33.6373 266.356 33.744C265.886 34.064 265.406 34.064 264.916 33.744C264.532 33.5093 264.222 33.232 263.988 32.912C263.774 32.5707 263.497 32.2507 263.156 31.952C263.07 31.824 263.07 31.7067 263.156 31.6C263.476 31.3867 263.678 31.152 263.764 30.896C263.87 30.6187 263.924 30.3093 263.924 29.968V20.656C263.582 20.6133 263.23 20.528 262.868 20.4C262.526 20.2507 262.174 20.0907 261.812 19.92C261.47 19.728 261.108 19.5467 260.724 19.376C260.34 19.2053 259.924 19.056 259.476 18.928C259.092 18.8213 258.75 18.736 258.452 18.672C258.153 18.5867 257.876 18.5653 257.62 18.608C257.385 18.6293 257.161 18.7147 256.948 18.864C256.734 18.992 256.51 19.216 256.276 19.536C255.998 19.8773 255.764 20.2613 255.572 20.688C255.401 21.0933 255.358 21.4773 255.444 21.84C255.486 22.1387 255.604 22.48 255.796 22.864C256.009 23.2267 256.244 23.6213 256.5 24.048C256.777 24.4747 257.054 24.9333 257.332 25.424C257.63 25.9147 257.908 26.4267 258.164 26.96C258.185 27.0027 258.217 27.0987 258.26 27.248C258.324 27.376 258.388 27.5147 258.452 27.664C258.516 27.8133 258.569 27.952 258.612 28.08C258.654 28.208 258.686 28.2933 258.708 28.336C258.793 28.5493 258.846 28.7093 258.868 28.816C259.081 28.6667 259.316 28.464 259.572 28.208C259.828 27.9307 259.977 27.7067 260.02 27.536C260.062 27.408 260.062 27.2587 260.02 27.088C259.998 26.9173 259.945 26.7573 259.86 26.608C259.796 26.4587 259.7 26.3307 259.572 26.224C259.465 26.096 259.326 26.032 259.156 26.032C258.985 26.032 258.846 26.0213 258.74 26C258.612 25.9147 258.569 25.808 258.612 25.68C258.654 25.5307 258.75 25.328 258.9 25.072C259.049 24.816 259.22 24.5707 259.411 24.336C259.625 24.1013 259.849 23.8987 260.084 23.728C260.34 23.536 260.574 23.44 260.788 23.44C261.022 23.504 261.257 23.632 261.492 23.824C261.748 23.9947 261.972 24.1973 262.164 24.432C262.377 24.6667 262.537 24.9227 262.644 25.2C262.772 25.4773 262.804 25.7333 262.74 25.968C262.697 26.2027 262.462 26.576 262.036 27.088C261.609 27.6 261.118 28.1547 260.564 28.752C260.03 29.328 259.476 29.8933 258.9 30.448C258.345 31.0027 257.908 31.44 257.588 31.76C257.161 32.208 256.649 32.6667 256.052 33.136C255.476 33.584 254.921 33.872 254.388 34C253.556 33.8507 253.022 33.616 252.788 33.296C252.574 32.9547 252.51 32.6027 252.596 32.24C252.702 31.8773 252.894 31.536 253.172 31.216C253.47 30.896 253.705 30.672 253.876 30.544C254.068 30.3307 254.217 30.2667 254.324 30.352C254.43 30.416 254.473 30.5333 254.452 30.704C254.452 30.96 254.548 31.1947 254.74 31.408C254.953 31.6 255.166 31.7387 255.38 31.824C255.614 31.888 255.806 31.8667 255.956 31.76C256.126 31.6533 256.169 31.4187 256.084 31.056C256.041 30.8427 255.966 30.6293 255.86 30.416C255.774 30.1813 255.678 29.9787 255.572 29.808C255.23 29.1893 254.836 28.56 254.388 27.92C253.961 27.28 253.577 26.6613 253.236 26.064C252.894 25.4453 252.649 24.8587 252.5 24.304C252.372 23.728 252.414 23.2053 252.628 22.736C252.777 22.3093 253.001 21.8613 253.299 21.392C253.598 20.9013 253.918 20.4427 254.26 20.016C254.601 19.568 254.91 19.184 255.188 18.864C255.486 18.5227 255.689 18.2987 255.796 18.192C256.521 17.4453 257.257 16.9227 258.004 16.624C258.772 16.304 259.518 16.1653 260.244 16.208C260.692 16.208 261.204 16.2933 261.78 16.464C262.356 16.6133 262.932 16.784 263.508 16.976C264.105 17.1467 264.681 17.3067 265.236 17.456C265.812 17.6053 266.324 17.68 266.772 17.68C267.028 17.6373 267.177 17.6373 267.22 17.68C267.284 17.7227 267.316 17.8613 267.316 18.096V29.296C267.316 29.6373 267.358 29.9467 267.444 30.224C267.55 30.48 267.764 30.7253 268.083 30.96ZM275.804 19.248C275.484 19.4827 275.271 19.728 275.164 19.984C275.079 20.24 275.036 20.5493 275.036 20.912V27.984C275.057 29.0293 275.26 29.744 275.644 30.128C276.028 30.4907 276.508 30.5867 277.084 30.416C277.191 30.3733 277.276 30.384 277.34 30.448C277.404 30.512 277.404 30.5867 277.34 30.672C277.127 31.0133 276.903 31.3867 276.668 31.792C276.433 32.176 276.188 32.5387 275.932 32.88C275.676 33.2213 275.409 33.4987 275.132 33.712C274.855 33.9253 274.567 34.0213 274.268 34C273.863 33.9787 273.489 33.8293 273.148 33.552C272.828 33.2533 272.529 32.9227 272.252 32.56C271.996 32.176 271.761 31.8027 271.548 31.44C271.335 31.0773 271.132 30.8213 270.94 30.672C270.876 30.6293 270.844 30.576 270.844 30.512C270.865 30.448 270.897 30.3947 270.94 30.352C271.153 30.3307 271.303 30.256 271.388 30.128C271.495 29.9787 271.559 29.808 271.58 29.616C271.623 29.424 271.644 29.2213 271.644 29.008C271.644 28.7947 271.644 28.6027 271.644 28.432V20.24C271.644 19.8987 271.591 19.6 271.484 19.344C271.399 19.0667 271.196 18.8213 270.876 18.608C270.791 18.5013 270.791 18.384 270.876 18.256C271.217 17.9573 271.495 17.648 271.708 17.328C271.943 16.9867 272.252 16.6987 272.636 16.464C273.127 16.144 273.607 16.144 274.076 16.464C274.268 16.5707 274.439 16.7307 274.588 16.944C274.737 17.1573 274.876 17.392 275.004 17.648C275.132 17.8827 275.26 18.1173 275.388 18.352C275.516 18.5867 275.655 18.7787 275.804 18.928C275.932 19.056 275.932 19.1627 275.804 19.248ZM294.521 30.96C294.649 31.0453 294.649 31.152 294.521 31.28C294.372 31.4293 294.233 31.6213 294.105 31.856C293.977 32.0907 293.849 32.336 293.721 32.592C293.593 32.8267 293.454 33.0507 293.305 33.264C293.156 33.4773 292.985 33.6373 292.793 33.744C292.324 34.064 291.844 34.064 291.353 33.744C290.969 33.5093 290.66 33.232 290.425 32.912C290.212 32.5707 289.934 32.2507 289.593 31.952C289.508 31.824 289.508 31.7067 289.593 31.6C289.913 31.3867 290.116 31.152 290.201 30.896C290.308 30.6187 290.361 30.3093 290.361 29.968V20.656C290.02 20.6133 289.668 20.528 289.305 20.4C288.964 20.2507 288.612 20.0907 288.249 19.92C287.908 19.728 287.545 19.5467 287.161 19.376C286.777 19.2053 286.361 19.056 285.913 18.928C285.529 18.8213 285.188 18.736 284.889 18.672C284.59 18.5867 284.313 18.5653 284.057 18.608C283.822 18.6293 283.598 18.7147 283.385 18.864C283.172 18.992 282.948 19.216 282.713 19.536C282.436 19.8773 282.201 20.2613 282.009 20.688C281.838 21.0933 281.796 21.4773 281.881 21.84C281.924 22.1387 282.041 22.48 282.233 22.864C282.446 23.2267 282.681 23.6213 282.937 24.048C283.214 24.4747 283.492 24.9333 283.769 25.424C284.068 25.9147 284.345 26.4267 284.601 26.96C284.622 27.0027 284.654 27.0987 284.697 27.248C284.761 27.376 284.825 27.5147 284.889 27.664C284.953 27.8133 285.006 27.952 285.049 28.08C285.092 28.208 285.124 28.2933 285.145 28.336C285.23 28.5493 285.284 28.7093 285.305 28.816C285.518 28.6667 285.753 28.464 286.009 28.208C286.265 27.9307 286.414 27.7067 286.457 27.536C286.5 27.408 286.5 27.2587 286.457 27.088C286.436 26.9173 286.382 26.7573 286.297 26.608C286.233 26.4587 286.137 26.3307 286.009 26.224C285.902 26.096 285.764 26.032 285.593 26.032C285.422 26.032 285.284 26.0213 285.177 26C285.049 25.9147 285.006 25.808 285.049 25.68C285.092 25.5307 285.188 25.328 285.337 25.072C285.486 24.816 285.657 24.5707 285.849 24.336C286.062 24.1013 286.286 23.8987 286.521 23.728C286.777 23.536 287.012 23.44 287.225 23.44C287.46 23.504 287.694 23.632 287.929 23.824C288.185 23.9947 288.409 24.1973 288.601 24.432C288.814 24.6667 288.974 24.9227 289.081 25.2C289.209 25.4773 289.241 25.7333 289.177 25.968C289.134 26.2027 288.9 26.576 288.473 27.088C288.046 27.6 287.556 28.1547 287.001 28.752C286.468 29.328 285.913 29.8933 285.337 30.448C284.782 31.0027 284.345 31.44 284.025 31.76C283.598 32.208 283.086 32.6667 282.489 33.136C281.913 33.584 281.358 33.872 280.825 34C279.993 33.8507 279.46 33.616 279.225 33.296C279.012 32.9547 278.948 32.6027 279.033 32.24C279.14 31.8773 279.332 31.536 279.609 31.216C279.908 30.896 280.142 30.672 280.313 30.544C280.505 30.3307 280.654 30.2667 280.761 30.352C280.868 30.416 280.91 30.5333 280.889 30.704C280.889 30.96 280.985 31.1947 281.177 31.408C281.39 31.6 281.604 31.7387 281.817 31.824C282.052 31.888 282.244 31.8667 282.393 31.76C282.564 31.6533 282.606 31.4187 282.521 31.056C282.478 30.8427 282.404 30.6293 282.297 30.416C282.212 30.1813 282.116 29.9787 282.009 29.808C281.668 29.1893 281.273 28.56 280.825 27.92C280.398 27.28 280.014 26.6613 279.673 26.064C279.332 25.4453 279.086 24.8587 278.937 24.304C278.809 23.728 278.852 23.2053 279.065 22.736C279.214 22.3093 279.438 21.8613 279.737 21.392C280.036 20.9013 280.356 20.4427 280.697 20.016C281.038 19.568 281.348 19.184 281.625 18.864C281.924 18.5227 282.126 18.2987 282.233 18.192C282.958 17.4453 283.694 16.9227 284.441 16.624C285.209 16.304 285.956 16.1653 286.681 16.208C287.129 16.208 287.641 16.2933 288.217 16.464C288.793 16.6133 289.369 16.784 289.945 16.976C290.542 17.1467 291.118 17.3067 291.673 17.456C292.249 17.6053 292.761 17.68 293.209 17.68C293.465 17.6373 293.614 17.6373 293.657 17.68C293.721 17.7227 293.753 17.8613 293.753 18.096V29.296C293.753 29.6373 293.796 29.9467 293.881 30.224C293.988 30.48 294.201 30.7253 294.521 30.96ZM290.081 10.096C289.996 10.0107 289.996 9.904 290.081 9.776C290.38 9.49867 290.721 9.2 291.105 8.88C291.489 8.53867 291.895 8.35733 292.321 8.336C292.812 8.31467 293.207 8.51733 293.505 8.944C293.804 9.34933 293.953 9.808 293.953 10.32V11.216V11.408V12.304C293.953 12.816 293.804 13.2853 293.505 13.712C293.207 14.1173 292.812 14.3093 292.321 14.288C291.895 14.2667 291.489 14.0853 291.105 13.744C290.721 13.4027 290.38 13.104 290.081 12.848C289.996 12.72 289.996 12.6027 290.081 12.496C290.38 12.304 290.54 12.1227 290.561 11.952C290.561 11.76 290.561 11.504 290.561 11.184C290.561 10.864 290.54 10.6507 290.497 10.544C290.455 10.416 290.316 10.2667 290.081 10.096ZM312.418 28.208C312.354 28.0373 312.226 27.824 312.034 27.568C311.842 27.2907 311.639 27.0667 311.426 26.896V30.448C311.49 30.32 311.564 30.1493 311.65 29.936C311.756 29.7227 311.852 29.5093 311.938 29.296C312.044 29.0613 312.14 28.848 312.226 28.656C312.311 28.4427 312.375 28.2933 312.418 28.208ZM312.226 19.248C311.906 19.4827 311.692 19.728 311.586 19.984C311.5 20.24 311.458 20.5493 311.458 20.912V25.36C311.799 25.5093 312.108 25.712 312.385 25.968C312.684 26.224 312.94 26.4907 313.154 26.768C313.367 27.024 313.538 27.2907 313.666 27.568C313.815 27.824 313.922 28.0373 313.986 28.208C313.858 28.528 313.655 28.976 313.378 29.552C313.1 30.1067 312.791 30.672 312.45 31.248C312.13 31.8027 311.788 32.3253 311.426 32.816C311.084 33.2853 310.775 33.6053 310.498 33.776C310.263 33.9253 310.018 34 309.762 34C309.506 34 309.303 33.9573 309.154 33.872C309.026 33.7867 308.908 33.6693 308.802 33.52C308.695 33.3707 308.588 33.2 308.482 33.008C308.396 32.7947 308.258 32.5813 308.066 32.368V27.376C307.298 27.568 306.647 27.9733 306.114 28.592C305.602 29.1893 305.164 29.8187 304.802 30.48C304.46 31.1413 304.183 31.76 303.97 32.336C303.756 32.8907 303.575 33.2213 303.426 33.328C303.212 33.4773 302.924 33.6373 302.562 33.808C302.22 33.9787 301.911 34.032 301.634 33.968C300.93 33.84 300.322 33.584 299.81 33.2C299.298 32.7947 298.871 32.3573 298.53 31.888C298.188 31.4187 297.943 30.9493 297.794 30.48C297.644 30.0107 297.58 29.6267 297.602 29.328C297.666 28.8373 297.815 28.368 298.049 27.92C298.284 27.472 298.562 27.0453 298.882 26.64C299.202 26.2133 299.522 25.7973 299.842 25.392C300.183 24.9653 300.482 24.5493 300.738 24.144C301.036 23.632 301.175 23.0667 301.154 22.448C301.132 21.808 301.026 21.232 300.834 20.72C300.642 20.1867 300.396 19.7813 300.098 19.504C299.799 19.2267 299.522 19.1947 299.266 19.408C299.116 19.536 299.063 19.7067 299.106 19.92C299.148 20.112 299.223 20.3147 299.33 20.528C299.436 20.72 299.564 20.8907 299.714 21.04C299.863 21.168 299.97 21.232 300.034 21.232C300.14 21.2533 300.172 21.3173 300.13 21.424C300.066 21.5733 299.959 21.7653 299.81 22C299.682 22.2133 299.522 22.416 299.33 22.608C299.159 22.8 298.967 22.9387 298.754 23.024C298.562 23.1093 298.37 23.1093 298.178 23.024C298.071 22.9813 297.954 22.896 297.826 22.768C297.719 22.6187 297.612 22.4693 297.506 22.32C297.399 22.1707 297.303 22.032 297.218 21.904C297.154 21.7547 297.122 21.6693 297.122 21.648C297.1 21.584 297.164 21.4133 297.314 21.136C297.463 20.8373 297.666 20.4853 297.922 20.08C298.199 19.6747 298.508 19.248 298.85 18.8C299.191 18.352 299.532 17.936 299.874 17.552C300.236 17.168 300.578 16.848 300.898 16.592C301.218 16.336 301.484 16.2187 301.698 16.24C302.167 16.2613 302.594 16.432 302.978 16.752C303.362 17.0507 303.692 17.424 303.97 17.872C304.247 18.2987 304.439 18.7573 304.546 19.248C304.674 19.7173 304.706 20.144 304.642 20.528C304.62 20.8907 304.428 21.3387 304.066 21.872C303.703 22.4053 303.298 22.96 302.85 23.536C302.402 24.112 301.964 24.688 301.538 25.264C301.132 25.84 300.855 26.3627 300.706 26.832C300.599 27.6427 300.695 28.3893 300.994 29.072C301.292 29.7333 301.783 30.2773 302.466 30.704L303.65 28.72C303.82 28.4427 304.044 28.144 304.322 27.824C304.62 27.504 304.962 27.1947 305.345 26.896C305.73 26.5973 306.146 26.32 306.594 26.064C307.063 25.7867 307.554 25.5733 308.066 25.424V20.24C308.066 19.8987 308.012 19.6 307.906 19.344C307.82 19.0667 307.618 18.8213 307.298 18.608C307.191 18.48 307.191 18.3627 307.298 18.256C307.618 17.9573 307.884 17.648 308.098 17.328C308.332 16.9867 308.642 16.6987 309.026 16.464C309.516 16.144 310.007 16.144 310.498 16.464C310.69 16.5707 310.85 16.7307 310.978 16.944C311.127 17.1573 311.266 17.392 311.394 17.648C311.522 17.8827 311.65 18.1173 311.778 18.352C311.906 18.5867 312.055 18.7787 312.226 18.928C312.332 19.0347 312.332 19.1413 312.226 19.248Z" fill="#303030"/>
</svg>
