<svg width="329" height="69" viewBox="0 0 329 69" fill="none" xmlns="http://www.w3.org/2000/svg">
<path d="M8.456 29.872C7.976 30.224 7.656 30.592 7.496 30.976C7.368 31.36 7.304 31.824 7.304 32.368V42.976C7.336 44.544 7.64 45.616 8.216 46.192C8.792 46.736 9.512 46.88 10.376 46.624C10.536 46.56 10.664 46.576 10.76 46.672C10.856 46.768 10.856 46.88 10.76 47.008C10.44 47.52 10.104 48.08 9.752 48.688C9.4 49.264 9.032 49.808 8.648 50.32C8.264 50.832 7.864 51.248 7.448 51.568C7.032 51.888 6.6 52.032 6.152 52C5.544 51.968 4.984 51.744 4.472 51.328C3.992 50.88 3.544 50.384 3.128 49.84C2.744 49.264 2.392 48.704 2.072 48.16C1.752 47.616 1.448 47.232 1.16 47.008C1.064 46.944 1.016 46.864 1.016 46.768C1.048 46.672 1.096 46.592 1.16 46.528C1.48 46.496 1.704 46.384 1.832 46.192C1.992 45.968 2.088 45.712 2.12 45.424C2.184 45.136 2.216 44.832 2.216 44.512C2.216 44.192 2.216 43.904 2.216 43.648V31.36C2.216 30.848 2.136 30.4 1.976 30.016C1.848 29.6 1.544 29.232 1.064 28.912C0.936 28.752 0.936 28.576 1.064 28.384C1.576 27.936 1.992 27.472 2.312 26.992C2.664 26.48 3.128 26.048 3.704 25.696C4.44 25.216 5.16 25.216 5.864 25.696C6.152 25.856 6.408 26.096 6.632 26.416C6.856 26.736 7.064 27.088 7.256 27.472C7.448 27.824 7.64 28.176 7.832 28.528C8.024 28.88 8.232 29.168 8.456 29.392C8.648 29.584 8.648 29.744 8.456 29.872ZM18.5225 34.336C18.4905 32.768 18.1865 31.712 17.6105 31.168C17.0665 30.624 16.3625 30.464 15.4985 30.688C15.3065 30.784 15.1625 30.784 15.0665 30.688C15.0025 30.592 15.0025 30.48 15.0665 30.352C15.3865 29.84 15.7225 29.28 16.0745 28.672C16.4585 28.064 16.8425 27.52 17.2265 27.04C17.6105 26.528 18.0105 26.112 18.4265 25.792C18.8425 25.472 19.2585 25.328 19.6745 25.36C20.3145 25.392 20.8745 25.632 21.3545 26.08C21.8665 26.496 22.3145 26.976 22.6985 27.52C23.0825 28.064 23.4345 28.608 23.7545 29.152C24.0745 29.696 24.3785 30.096 24.6665 30.352C24.9225 30.48 24.9225 30.64 24.6665 30.832C24.3785 30.864 24.1545 30.992 23.9945 31.216C23.8345 31.408 23.7225 31.648 23.6585 31.936C23.6265 32.224 23.6105 32.528 23.6105 32.848C23.6105 33.136 23.6105 33.408 23.6105 33.664V39.136C24.2505 39.328 24.9385 39.6 25.6745 39.952C26.4105 40.304 27.1145 40.704 27.7865 41.152C28.4905 41.6 29.1145 42.08 29.6585 42.592C30.2345 43.104 30.6665 43.6 30.9545 44.08V31.36C30.9545 30.848 30.8745 30.4 30.7145 30.016C30.5865 29.6 30.2825 29.232 29.8025 28.912C29.6425 28.72 29.6425 28.544 29.8025 28.384C30.2825 27.936 30.6825 27.472 31.0025 26.992C31.3545 26.48 31.8185 26.048 32.3945 25.696C33.1305 25.216 33.8505 25.216 34.5545 25.696C34.8425 25.856 35.0985 26.096 35.3225 26.416C35.5465 26.736 35.7545 27.088 35.9465 27.472C36.1385 27.824 36.3305 28.176 36.5225 28.528C36.7145 28.88 36.9385 29.168 37.1945 29.392C37.3225 29.584 37.3225 29.744 37.1945 29.872C36.7145 30.224 36.3945 30.592 36.2345 30.976C36.1065 31.36 36.0425 31.824 36.0425 32.368V45.952C36.0425 46.496 36.1065 46.976 36.2345 47.392C36.3945 47.776 36.7145 48.128 37.1945 48.448C37.3225 48.608 37.3225 48.784 37.1945 48.976C36.6825 49.424 36.1865 49.936 35.7065 50.512C35.2585 51.056 34.7465 51.504 34.1705 51.856C33.9785 51.952 33.7545 52 33.4985 52C33.2425 51.968 32.9705 51.904 32.6825 51.808C32.4265 51.68 32.1705 51.552 31.9145 51.424C31.6585 51.264 31.4505 51.12 31.2905 50.992C30.9705 50.736 30.6505 50.256 30.3305 49.552C30.0425 48.816 29.6425 48.016 29.1305 47.152C28.6185 46.256 27.9305 45.36 27.0665 44.464C26.2025 43.536 25.0505 42.736 23.6105 42.064V49.552C23.0665 50.192 22.5545 50.768 22.0745 51.28C21.6265 51.76 21.0345 52 20.2985 52C19.9145 52 19.5465 51.888 19.1945 51.664C18.7785 51.408 18.2505 50.96 17.6105 50.32C16.9705 49.648 16.3305 48.896 15.6905 48.064C15.0825 47.2 14.5225 46.32 14.0105 45.424C13.5305 44.528 13.2105 43.728 13.0505 43.024C13.1465 42.768 13.3705 42.448 13.7225 42.064C14.0745 41.648 14.4905 41.248 14.9705 40.864C15.4825 40.448 16.0425 40.08 16.6505 39.76C17.2905 39.408 17.9145 39.168 18.5225 39.04V34.336ZM18.6185 41.584C18.4905 41.616 18.2985 41.712 18.0425 41.872C17.7865 42 17.5145 42.16 17.2265 42.352C16.9705 42.512 16.7305 42.688 16.5065 42.88C16.3145 43.04 16.1865 43.184 16.1225 43.312C16.2185 43.504 16.3785 43.792 16.6025 44.176C16.8265 44.528 17.0665 44.896 17.3225 45.28C17.5785 45.664 17.8185 46.048 18.0425 46.432C18.2985 46.784 18.4905 47.056 18.6185 47.248V41.584ZM64.0325 43.312C63.9365 43.056 63.7445 42.736 63.4565 42.352C63.1685 41.936 62.8645 41.6 62.5445 41.344V46.672C62.6405 46.48 62.7525 46.224 62.8805 45.904C63.0405 45.584 63.1845 45.264 63.3125 44.944C63.4725 44.592 63.6165 44.272 63.7445 43.984C63.8725 43.664 63.9685 43.44 64.0325 43.312ZM63.7445 29.872C63.2645 30.224 62.9445 30.592 62.7845 30.976C62.6565 31.36 62.5925 31.824 62.5925 32.368V39.04C63.1045 39.264 63.5685 39.568 63.9845 39.952C64.4325 40.336 64.8165 40.736 65.1365 41.152C65.4565 41.536 65.7125 41.936 65.9045 42.352C66.1285 42.736 66.2885 43.056 66.3845 43.312C66.1925 43.792 65.8885 44.464 65.4725 45.328C65.0565 46.16 64.5925 47.008 64.0805 47.872C63.6005 48.704 63.0885 49.488 62.5445 50.224C62.0325 50.928 61.5685 51.408 61.1525 51.664C60.8005 51.888 60.4325 52 60.0485 52C59.6645 52 59.3605 51.936 59.1365 51.808C58.9445 51.68 58.7685 51.504 58.6085 51.28C58.4485 51.056 58.2885 50.8 58.1285 50.512C58.0005 50.192 57.7925 49.872 57.5045 49.552V42.064C56.3525 42.352 55.3765 42.96 54.5765 43.888C53.8085 44.784 53.1525 45.728 52.6085 46.72C52.0965 47.712 51.6805 48.64 51.3605 49.504C51.0405 50.336 50.7685 50.832 50.5445 50.992C50.2245 51.216 49.7925 51.456 49.2485 51.712C48.7365 51.968 48.2725 52.048 47.8565 51.952C46.8005 51.76 45.8885 51.376 45.1205 50.8C44.3525 50.192 43.7125 49.536 43.2005 48.832C42.6885 48.128 42.3205 47.424 42.0965 46.72C41.8725 46.016 41.7765 45.44 41.8085 44.992C41.9045 44.256 42.1285 43.552 42.4805 42.88C42.8325 42.208 43.2485 41.568 43.7285 40.96C44.2085 40.32 44.6885 39.696 45.1685 39.088C45.6805 38.448 46.1285 37.824 46.5125 37.216C46.9605 36.448 47.1685 35.6 47.1365 34.672C47.1045 33.712 46.9445 32.848 46.6565 32.08C46.3685 31.28 46.0005 30.672 45.5525 30.256C45.1045 29.84 44.6885 29.792 44.3045 30.112C44.0805 30.304 44.0005 30.56 44.0645 30.88C44.1285 31.168 44.2405 31.472 44.4005 31.792C44.5605 32.08 44.7525 32.336 44.9765 32.56C45.2005 32.752 45.3605 32.848 45.4565 32.848C45.6165 32.88 45.6645 32.976 45.6005 33.136C45.5045 33.36 45.3445 33.648 45.1205 34C44.9285 34.32 44.6885 34.624 44.4005 34.912C44.1445 35.2 43.8565 35.408 43.5365 35.536C43.2485 35.664 42.9605 35.664 42.6725 35.536C42.5125 35.472 42.3365 35.344 42.1445 35.152C41.9845 34.928 41.8245 34.704 41.6645 34.48C41.5045 34.256 41.3605 34.048 41.2325 33.856C41.1365 33.632 41.0885 33.504 41.0885 33.472C41.0565 33.376 41.1525 33.12 41.3765 32.704C41.6005 32.256 41.9045 31.728 42.2885 31.12C42.7045 30.512 43.1685 29.872 43.6805 29.2C44.1925 28.528 44.7045 27.904 45.2165 27.328C45.7605 26.752 46.2725 26.272 46.7525 25.888C47.2325 25.504 47.6325 25.328 47.9525 25.36C48.6565 25.392 49.2965 25.648 49.8725 26.128C50.4485 26.576 50.9445 27.136 51.3605 27.808C51.7765 28.448 52.0645 29.136 52.2245 29.872C52.4165 30.576 52.4645 31.216 52.3685 31.792C52.3365 32.336 52.0485 33.008 51.5045 33.808C50.9605 34.608 50.3525 35.44 49.6805 36.304C49.0085 37.168 48.3525 38.032 47.7125 38.896C47.1045 39.76 46.6885 40.544 46.4645 41.248C46.3045 42.464 46.4485 43.584 46.8965 44.608C47.3445 45.6 48.0805 46.416 49.1045 47.056L50.8805 44.08C51.1365 43.664 51.4725 43.216 51.8885 42.736C52.3365 42.256 52.8485 41.792 53.4245 41.344C54.0005 40.896 54.6245 40.48 55.2965 40.096C56.0005 39.68 56.7365 39.36 57.5045 39.136V31.36C57.5045 30.848 57.4245 30.4 57.2645 30.016C57.1365 29.6 56.8325 29.232 56.3525 28.912C56.1925 28.72 56.1925 28.544 56.3525 28.384C56.8325 27.936 57.2325 27.472 57.5525 26.992C57.9045 26.48 58.3685 26.048 58.9445 25.696C59.6805 25.216 60.4165 25.216 61.1525 25.696C61.4405 25.856 61.6805 26.096 61.8725 26.416C62.0965 26.736 62.3045 27.088 62.4965 27.472C62.6885 27.824 62.8805 28.176 63.0725 28.528C63.2645 28.88 63.4885 29.168 63.7445 29.392C63.9045 29.552 63.9045 29.712 63.7445 29.872ZM60.3725 64.384V59.44C60.3725 58.992 60.3085 58.592 60.1805 58.24C60.0525 57.888 59.7805 57.584 59.3645 57.328C59.2045 57.2 59.2045 57.056 59.3645 56.896C59.8125 56.512 60.1805 56.096 60.4685 55.648C60.7245 55.232 61.1085 54.864 61.6205 54.544C62.2285 54.16 62.8525 54.16 63.4925 54.544C63.7165 54.704 63.9245 54.912 64.1165 55.168C64.3085 55.456 64.4845 55.76 64.6445 56.08C64.8045 56.4 64.9805 56.704 65.1725 56.992C65.3325 57.28 65.5085 57.52 65.7005 57.712C65.8285 57.872 65.8285 58.016 65.7005 58.144C65.2845 58.432 65.0125 58.752 64.8845 59.104C64.7565 59.456 64.6925 59.856 64.6925 60.304V66.112C64.6925 66.432 64.6605 66.608 64.5965 66.64C64.5325 66.704 64.3405 66.704 64.0205 66.64C63.3805 66.64 62.8045 66.752 62.2925 66.976C61.7805 67.232 61.2685 67.488 60.7565 67.744C59.9245 68.192 59.0605 68.384 58.1645 68.32C57.2365 68.288 56.3885 68.096 55.6205 67.744C54.8205 67.392 54.1485 66.896 53.6045 66.256C53.0285 65.648 52.6445 64.96 52.4525 64.192C53.0285 63.616 53.6205 63.024 54.2285 62.416C54.8045 61.808 55.3165 61.104 55.7645 60.304C55.7005 59.888 55.5245 59.52 55.2365 59.2C54.9485 58.88 54.6285 58.64 54.2765 58.48C53.9245 58.32 53.5885 58.224 53.2685 58.192C52.9165 58.16 52.6445 58.224 52.4525 58.384C52.2605 58.544 52.1805 58.752 52.2125 59.008C52.2445 59.296 52.3405 59.568 52.5005 59.824C52.6285 60.08 52.7885 60.288 52.9805 60.448C53.1725 60.64 53.3165 60.736 53.4125 60.736C53.5725 60.736 53.6205 60.816 53.5565 60.976C53.4925 61.168 53.3645 61.408 53.1725 61.696C52.9805 61.984 52.7725 62.24 52.5485 62.464C52.2925 62.72 52.0365 62.912 51.7805 63.04C51.5245 63.168 51.2845 63.168 51.0605 63.04C50.9325 62.976 50.7885 62.848 50.6285 62.656C50.4685 62.464 50.3245 62.272 50.1965 62.08C50.0365 61.888 49.9085 61.712 49.8125 61.552C49.7165 61.392 49.6685 61.296 49.6685 61.264C49.6365 61.2 49.7005 60.976 49.8605 60.592C50.0205 60.24 50.2605 59.792 50.5805 59.248C50.8685 58.736 51.2045 58.176 51.5885 57.568C51.9405 56.992 52.3245 56.448 52.7405 55.936C53.1245 55.456 53.5085 55.04 53.8925 54.688C54.2445 54.368 54.5645 54.224 54.8525 54.256C55.4285 54.288 55.9725 54.496 56.4845 54.88C56.9645 55.264 57.3805 55.712 57.7325 56.224C58.0845 56.768 58.3405 57.344 58.5005 57.952C58.6605 58.56 58.7245 59.12 58.6925 59.632C58.5965 59.696 58.4365 59.84 58.2125 60.064C57.9565 60.288 57.7005 60.512 57.4445 60.736C57.1885 60.992 56.9485 61.232 56.7245 61.456C56.5005 61.68 56.3725 61.84 56.3405 61.936C56.1485 62.352 56.1965 62.72 56.4845 63.04C56.7405 63.36 57.1085 63.616 57.5885 63.808C58.0685 64.032 58.5805 64.192 59.1245 64.288C59.6685 64.384 60.0845 64.416 60.3725 64.384ZM87.3965 40.24C87.1085 41.072 86.6925 42.16 86.1485 43.504C85.6045 44.816 84.9485 46.112 84.1805 47.392C83.4445 48.64 82.5965 49.728 81.6365 50.656C80.6765 51.552 79.6365 52 78.5165 52C77.2045 52.032 76.0205 51.792 74.9645 51.28C73.9405 50.736 73.0765 50.08 72.3725 49.312C71.6685 48.544 71.1405 47.76 70.7885 46.96C70.4365 46.16 70.2765 45.504 70.3085 44.992C70.4045 44.256 70.6285 43.552 70.9805 42.88C71.3325 42.208 71.7485 41.568 72.2285 40.96C72.7085 40.32 73.1885 39.696 73.6685 39.088C74.1805 38.448 74.6285 37.824 75.0125 37.216C75.4605 36.448 75.6685 35.6 75.6365 34.672C75.6045 33.712 75.4445 32.848 75.1565 32.08C74.8685 31.28 74.5005 30.672 74.0525 30.256C73.6045 29.84 73.1885 29.792 72.8045 30.112C72.5805 30.304 72.5005 30.56 72.5645 30.88C72.6285 31.168 72.7405 31.472 72.9005 31.792C73.0605 32.08 73.2525 32.336 73.4765 32.56C73.7005 32.752 73.8605 32.848 73.9565 32.848C74.1165 32.88 74.1645 32.976 74.1005 33.136C74.0045 33.36 73.8445 33.648 73.6205 34C73.4285 34.32 73.1885 34.624 72.9005 34.912C72.6445 35.2 72.3565 35.408 72.0365 35.536C71.7485 35.664 71.4605 35.664 71.1725 35.536C71.0125 35.472 70.8365 35.344 70.6445 35.152C70.4845 34.928 70.3245 34.704 70.1645 34.48C70.0045 34.256 69.8605 34.048 69.7325 33.856C69.6365 33.632 69.5885 33.504 69.5885 33.472C69.5565 33.376 69.6525 33.12 69.8765 32.704C70.1005 32.256 70.4045 31.728 70.7885 31.12C71.2045 30.512 71.6685 29.872 72.1805 29.2C72.6925 28.528 73.2045 27.904 73.7165 27.328C74.2605 26.752 74.7725 26.272 75.2525 25.888C75.7325 25.504 76.1325 25.328 76.4525 25.36C77.1565 25.392 77.7965 25.648 78.3725 26.128C78.9485 26.576 79.4445 27.136 79.8605 27.808C80.2765 28.448 80.5645 29.136 80.7245 29.872C80.9165 30.576 80.9645 31.216 80.8685 31.792C80.8365 32.336 80.5485 33.008 80.0045 33.808C79.4605 34.608 78.8525 35.44 78.1805 36.304C77.5085 37.168 76.8525 38.032 76.2125 38.896C75.6045 39.76 75.1885 40.544 74.9645 41.248C74.8045 42.048 74.9005 42.848 75.2525 43.648C75.6045 44.416 76.0845 45.104 76.6925 45.712C77.3325 46.32 78.0525 46.784 78.8525 47.104C79.6525 47.392 80.4365 47.472 81.2045 47.344C81.8445 47.216 82.2445 46.96 82.4045 46.576C82.5645 46.192 82.5965 45.712 82.5005 45.136C82.4045 44.528 82.2285 43.856 81.9725 43.12C81.7165 42.384 81.4925 41.616 81.3005 40.816C81.1405 40.016 81.0445 39.216 81.0125 38.416C80.9805 37.584 81.1405 36.784 81.4925 36.016C82.0685 34.512 82.6285 33.12 83.1725 31.84C83.7485 30.528 84.3085 29.392 84.8525 28.432C85.3965 27.472 85.9245 26.72 86.4365 26.176C86.9485 25.6 87.4285 25.28 87.8765 25.216C88.9325 25.28 89.7965 25.52 90.4685 25.936C91.1725 26.32 91.7965 26.752 92.3405 27.232C92.8845 27.712 93.3805 28.192 93.8285 28.672C94.3085 29.12 94.8525 29.456 95.4605 29.68C95.6205 29.712 95.7165 29.808 95.7485 29.968C95.7805 30.128 95.7485 30.272 95.6525 30.4C95.2045 30.656 94.9805 31.056 94.9805 31.6V45.952C94.9805 46.496 95.0445 46.976 95.1725 47.392C95.3325 47.776 95.6525 48.128 96.1325 48.448C96.2925 48.64 96.2925 48.816 96.1325 48.976C95.6525 49.424 95.2365 49.904 94.8845 50.416C94.5645 50.896 94.1165 51.312 93.5405 51.664C92.8045 52.112 92.0685 52.112 91.3325 51.664C91.0445 51.472 90.7885 51.216 90.5645 50.896C90.3725 50.576 90.1805 50.24 89.9885 49.888C89.7965 49.536 89.6045 49.184 89.4125 48.832C89.2205 48.48 88.9965 48.192 88.7405 47.968C88.5805 47.808 88.5805 47.632 88.7405 47.44C89.2205 47.12 89.5245 46.768 89.6525 46.384C89.8125 45.968 89.8925 45.504 89.8925 44.992V32.56C89.5405 32.368 89.1725 32.112 88.7885 31.792C88.4365 31.472 88.0845 31.2 87.7325 30.976C87.4125 30.752 87.1085 30.64 86.8205 30.64C86.5325 30.64 86.2925 30.848 86.1005 31.264C85.7165 31.776 85.5725 32.384 85.6685 33.088C85.7645 33.792 85.9405 34.544 86.1965 35.344C86.4525 36.144 86.7085 36.96 86.9645 37.792C87.2525 38.624 87.3965 39.44 87.3965 40.24ZM97.0824 16.96C96.4744 17.6 95.7064 18.272 94.7784 18.976C93.8504 19.648 93.0664 20.24 92.4264 20.752C91.2744 21.68 89.9944 22.224 88.5864 22.384C87.1784 22.512 85.8664 22.24 84.6504 21.568C84.1064 21.248 83.5784 20.848 83.0664 20.368C82.5224 19.856 82.1384 19.264 81.9144 18.592C82.2344 18.048 82.6024 17.504 83.0184 16.96C83.4024 16.416 83.8344 15.92 84.3144 15.472C84.7624 14.992 85.2744 14.608 85.8504 14.32C86.4264 14 87.0664 13.824 87.7704 13.792C88.0904 13.824 88.3944 13.872 88.6824 13.936C88.9384 13.968 89.2104 14.064 89.4984 14.224C89.7544 14.384 90.0104 14.624 90.2664 14.944C90.4904 15.264 90.7144 15.696 90.9384 16.24C90.9064 16.336 90.7784 16.512 90.5544 16.768C90.2984 17.024 90.0104 17.28 89.6904 17.536C89.3704 17.792 89.0664 18 88.7784 18.16C88.4904 18.32 88.2984 18.384 88.2024 18.352C88.0744 18.352 87.9784 18.288 87.9144 18.16C87.8504 18 87.8504 17.872 87.9144 17.776C87.6264 17.04 87.3544 16.528 87.0984 16.24C86.8424 15.952 86.6344 15.84 86.4744 15.904C86.3144 15.968 86.0904 16.112 85.8024 16.336C85.5144 16.56 85.3544 16.848 85.3224 17.2C85.4504 17.712 85.7224 18.16 86.1384 18.544C86.5544 18.896 87.0344 19.184 87.5784 19.408C88.1224 19.6 88.6824 19.728 89.2584 19.792C89.8024 19.856 90.2664 19.84 90.6504 19.744C91.1304 19.648 91.6264 19.456 92.1384 19.168C92.6504 18.88 93.0344 18.528 93.2904 18.112C93.7384 17.408 94.0104 16.736 94.1064 16.096C94.1704 15.424 94.0904 15.072 93.8664 15.04C93.4824 14.944 93.4024 14.72 93.6264 14.368C93.7224 14.272 93.8984 14.144 94.1544 13.984C94.3784 13.824 94.6184 13.68 94.8744 13.552C95.1304 13.392 95.4024 13.248 95.6904 13.12C95.9464 12.992 96.1544 12.912 96.3144 12.88C96.7304 12.784 97.0664 12.896 97.3224 13.216C97.5464 13.504 97.6904 13.888 97.7544 14.368C97.7864 14.816 97.7544 15.296 97.6584 15.808C97.5304 16.288 97.3384 16.672 97.0824 16.96ZM98.8584 4.768C97.5784 6.144 96.1384 7.344 94.5384 8.368C92.9384 9.36 91.3224 9.872 89.6904 9.904C88.8584 9.904 88.0744 9.776 87.3384 9.52C86.5704 9.232 85.9144 8.768 85.3704 8.128C85.3064 8.032 85.3224 7.92 85.4184 7.792C85.5144 7.664 85.6424 7.6 85.8024 7.6C86.1864 7.408 86.5864 7.184 87.0024 6.928C87.4184 6.672 87.7384 6.24 87.9624 5.632C88.1544 5.216 88.1544 4.736 87.9624 4.192C87.7704 3.648 87.5304 3.36 87.2424 3.328C87.2744 3.296 87.2264 3.328 87.0984 3.424C86.9384 3.52 86.8104 3.648 86.7144 3.808C86.6184 3.968 86.6024 4.144 86.6664 4.336C86.6984 4.528 86.9224 4.704 87.3384 4.864C87.3704 5.44 87.2264 5.872 86.9064 6.16C86.5544 6.416 86.1544 6.544 85.7064 6.544C85.2584 6.512 84.8424 6.352 84.4584 6.064C84.0424 5.776 83.8184 5.376 83.7864 4.864C83.7544 4.384 83.9464 3.936 84.3624 3.52C84.7784 3.072 85.2424 2.704 85.7544 2.416C86.2664 2.096 86.7624 1.856 87.2424 1.696C87.7224 1.504 88.0104 1.424 88.1064 1.456C89.0984 1.616 89.8984 2.048 90.5064 2.752C91.1144 3.424 91.3064 4.224 91.0824 5.152C91.0184 5.44 90.9064 5.744 90.7464 6.064C90.5864 6.352 90.4264 6.608 90.2664 6.832C90.5544 7.088 90.8744 7.28 91.2264 7.408C91.5464 7.504 91.9464 7.504 92.4264 7.408C92.9384 7.312 93.3704 7.04 93.7224 6.592C94.0744 6.112 94.3464 5.616 94.5384 5.104C94.6984 4.56 94.7784 4.08 94.7784 3.664C94.7784 3.216 94.6664 2.976 94.4424 2.944C94.2184 2.912 94.1064 2.848 94.1064 2.752C94.0744 2.624 94.1064 2.48 94.2024 2.32C94.2984 2.224 94.5384 2.112 94.9224 1.984C95.2744 1.824 95.6584 1.68 96.0744 1.552C96.4584 1.392 96.8424 1.264 97.2264 1.168C97.6104 1.072 97.8824 1.008 98.0424 0.975996C98.4584 0.879995 98.7784 0.975996 99.0024 1.264C99.2584 1.52 99.4184 1.872 99.4824 2.32C99.5464 2.736 99.5144 3.184 99.3864 3.664C99.2904 4.112 99.1144 4.48 98.8584 4.768ZM113.738 25.36C114.314 25.392 114.826 25.536 115.274 25.792C115.754 26.016 116.154 26.288 116.474 26.608C116.794 26.896 117.05 27.168 117.242 27.424C117.466 27.68 117.61 27.856 117.674 27.952V49.168C117.674 49.52 117.626 49.728 117.53 49.792C117.434 49.856 117.21 49.856 116.858 49.792C116.154 49.76 115.514 49.872 114.938 50.128C114.362 50.352 113.802 50.592 113.258 50.848C112.65 51.168 112.09 51.44 111.578 51.664C111.066 51.888 110.458 52 109.754 52C108.634 52 107.466 51.6 106.25 50.8C105.066 49.968 103.978 48.944 102.986 47.728C101.994 46.48 101.194 45.136 100.586 43.696C99.9784 42.256 99.7224 40.928 99.8184 39.712C99.8824 39.008 100.122 38.192 100.538 37.264C100.986 36.336 101.45 35.536 101.93 34.864C102.442 34.192 102.874 33.792 103.226 33.664C103.61 33.504 103.738 33.856 103.61 34.72C103.45 35.456 103.45 36.32 103.61 37.312C103.802 38.304 104.106 39.328 104.522 40.384C104.938 41.44 105.45 42.48 106.058 43.504C106.666 44.528 107.322 45.424 108.026 46.192C108.73 46.96 109.466 47.568 110.234 48.016C111.034 48.432 111.818 48.576 112.586 48.448V31.168C112.586 30.848 112.522 30.576 112.394 30.352C112.298 30.128 112.17 29.952 112.01 29.824C111.85 29.664 111.69 29.568 111.53 29.536C111.37 29.472 111.242 29.456 111.146 29.488C110.762 29.488 110.474 29.616 110.282 29.872C110.122 30.128 110.042 30.432 110.042 30.784C110.074 31.136 110.202 31.504 110.426 31.888C110.65 32.24 110.954 32.544 111.338 32.8C111.53 32.8 111.594 32.88 111.53 33.04C111.466 33.296 111.338 33.6 111.146 33.952C110.954 34.272 110.714 34.576 110.426 34.864C110.17 35.152 109.882 35.376 109.562 35.536C109.274 35.696 108.986 35.712 108.698 35.584C108.506 35.52 108.298 35.376 108.074 35.152C107.882 34.928 107.706 34.704 107.546 34.48C107.418 34.224 107.306 34 107.21 33.808C107.114 33.584 107.066 33.456 107.066 33.424C107.034 33.328 107.13 33.072 107.354 32.656C107.578 32.208 107.866 31.696 108.218 31.12C108.602 30.512 109.034 29.872 109.514 29.2C110.026 28.496 110.538 27.872 111.05 27.328C111.562 26.752 112.042 26.272 112.49 25.888C112.97 25.504 113.386 25.328 113.738 25.36ZM138.318 43.744C137.902 44.672 137.422 45.632 136.878 46.624C136.366 47.584 135.79 48.464 135.15 49.264C134.542 50.064 133.87 50.72 133.134 51.232C132.398 51.744 131.614 52 130.782 52C129.47 52.032 128.286 51.792 127.23 51.28C126.206 50.736 125.342 50.08 124.638 49.312C123.934 48.544 123.406 47.76 123.054 46.96C122.702 46.16 122.542 45.504 122.574 44.992C122.67 44.256 122.894 43.552 123.246 42.88C123.598 42.208 124.014 41.568 124.494 40.96C124.974 40.32 125.454 39.696 125.934 39.088C126.446 38.448 126.894 37.824 127.278 37.216C127.726 36.448 127.934 35.6 127.902 34.672C127.87 33.712 127.71 32.848 127.422 32.08C127.134 31.28 126.766 30.672 126.318 30.256C125.87 29.84 125.454 29.792 125.07 30.112C124.846 30.304 124.766 30.56 124.83 30.88C124.894 31.168 125.006 31.472 125.166 31.792C125.326 32.08 125.518 32.336 125.742 32.56C125.966 32.752 126.126 32.848 126.222 32.848C126.382 32.88 126.43 32.976 126.366 33.136C126.27 33.36 126.11 33.648 125.886 34C125.694 34.32 125.454 34.624 125.166 34.912C124.91 35.2 124.622 35.408 124.302 35.536C124.014 35.664 123.726 35.664 123.438 35.536C123.278 35.472 123.102 35.344 122.91 35.152C122.75 34.928 122.59 34.704 122.43 34.48C122.27 34.256 122.126 34.048 121.998 33.856C121.902 33.632 121.854 33.504 121.854 33.472C121.822 33.376 121.918 33.12 122.142 32.704C122.366 32.256 122.67 31.728 123.054 31.12C123.47 30.512 123.934 29.872 124.446 29.2C124.958 28.528 125.47 27.904 125.982 27.328C126.526 26.752 127.038 26.272 127.518 25.888C127.998 25.504 128.398 25.328 128.718 25.36C129.422 25.392 130.062 25.648 130.638 26.128C131.214 26.576 131.71 27.136 132.126 27.808C132.542 28.448 132.83 29.136 132.99 29.872C133.182 30.576 133.23 31.216 133.134 31.792C133.102 32.336 132.814 33.008 132.27 33.808C131.726 34.608 131.118 35.44 130.446 36.304C129.774 37.168 129.118 38.032 128.478 38.896C127.87 39.76 127.454 40.544 127.23 41.248C127.07 42.048 127.166 42.848 127.518 43.648C127.87 44.416 128.35 45.104 128.958 45.712C129.598 46.32 130.318 46.784 131.118 47.104C131.918 47.392 132.702 47.472 133.47 47.344C134.11 47.216 134.51 46.96 134.67 46.576C134.83 46.192 134.862 45.712 134.766 45.136C134.67 44.528 134.494 43.856 134.238 43.12C133.982 42.384 133.758 41.616 133.566 40.816C133.406 40.016 133.31 39.216 133.278 38.416C133.246 37.584 133.406 36.784 133.758 36.016C134.334 34.512 134.91 33.12 135.486 31.84C136.094 30.56 136.686 29.456 137.262 28.528C137.838 27.6 138.398 26.864 138.942 26.32C139.486 25.744 139.982 25.424 140.43 25.36C141.742 25.328 142.798 25.424 143.598 25.648C144.43 25.872 145.134 26.08 145.71 26.272C146.286 26.464 146.814 26.576 147.294 26.608C147.806 26.608 148.366 26.4 148.974 25.984C149.134 26.016 149.31 26.128 149.502 26.32C149.694 26.512 149.742 26.672 149.646 26.8C149.486 27.12 149.294 27.6 149.07 28.24C148.846 28.848 148.558 29.456 148.206 30.064C147.822 30.736 147.422 31.232 147.006 31.552C146.622 31.84 146.206 32 145.758 32.032C145.342 32.032 144.878 31.936 144.366 31.744C143.886 31.552 143.342 31.312 142.734 31.024C142.318 30.832 141.87 30.64 141.39 30.448C140.942 30.256 140.494 30.16 140.046 30.16C139.63 30.16 139.214 30.272 138.798 30.496C138.382 30.72 137.998 31.152 137.646 31.792C137.486 32.048 137.326 32.368 137.166 32.752C137.006 33.104 136.878 33.472 136.782 33.856C136.686 34.24 136.638 34.624 136.638 35.008C136.638 35.392 136.718 35.744 136.878 36.064C137.518 35.328 138.142 34.864 138.75 34.672C139.358 34.48 139.838 34.352 140.19 34.288C140.734 34.448 141.23 34.656 141.678 34.912C142.158 35.168 142.622 35.424 143.07 35.68C143.55 35.904 144.03 36.096 144.51 36.256C145.022 36.416 145.566 36.48 146.142 36.448C146.43 36.288 146.686 36.208 146.91 36.208C147.134 36.176 147.246 36.432 147.246 36.976V45.952C147.246 46.496 147.31 46.976 147.438 47.392C147.598 47.776 147.918 48.128 148.398 48.448C148.558 48.64 148.558 48.816 148.398 48.976C147.918 49.424 147.502 49.904 147.15 50.416C146.83 50.896 146.382 51.312 145.806 51.664C145.07 52.112 144.334 52.112 143.598 51.664C143.31 51.472 143.054 51.216 142.83 50.896C142.638 50.576 142.446 50.24 142.254 49.888C142.062 49.536 141.87 49.184 141.678 48.832C141.486 48.48 141.262 48.192 141.006 47.968C140.846 47.808 140.846 47.632 141.006 47.44C141.486 47.12 141.79 46.768 141.918 46.384C142.078 45.968 142.158 45.504 142.158 44.992C142.158 44.352 142.174 43.632 142.206 42.832C142.27 42 142.302 41.264 142.302 40.624C142.046 40.432 141.726 40.192 141.342 39.904C140.958 39.616 140.542 39.36 140.094 39.136C139.678 38.88 139.246 38.688 138.798 38.56C138.35 38.432 137.934 38.4 137.55 38.464C137.742 39.072 137.918 39.6 138.078 40.048C138.238 40.496 138.35 40.912 138.414 41.296C138.51 41.648 138.558 42.016 138.558 42.4C138.558 42.784 138.478 43.232 138.318 43.744ZM157.366 34.336C157.334 32.768 157.03 31.712 156.454 31.168C155.91 30.624 155.206 30.464 154.342 30.688C154.15 30.784 154.006 30.784 153.91 30.688C153.846 30.592 153.846 30.48 153.91 30.352C154.23 29.84 154.566 29.28 154.918 28.672C155.302 28.064 155.686 27.52 156.07 27.04C156.454 26.528 156.854 26.112 157.27 25.792C157.686 25.472 158.102 25.328 158.518 25.36C159.158 25.392 159.718 25.632 160.198 26.08C160.71 26.496 161.158 26.976 161.542 27.52C161.926 28.064 162.278 28.608 162.598 29.152C162.918 29.696 163.222 30.096 163.51 30.352C163.766 30.48 163.766 30.64 163.51 30.832C163.222 30.864 162.998 30.992 162.838 31.216C162.678 31.408 162.566 31.648 162.502 31.936C162.47 32.224 162.454 32.528 162.454 32.848C162.454 33.136 162.454 33.408 162.454 33.664V39.136C163.094 39.328 163.782 39.6 164.518 39.952C165.254 40.304 165.958 40.704 166.63 41.152C167.334 41.6 167.958 42.08 168.502 42.592C169.078 43.104 169.51 43.6 169.798 44.08V31.36C169.798 30.848 169.718 30.4 169.558 30.016C169.43 29.6 169.126 29.232 168.646 28.912C168.486 28.72 168.486 28.544 168.646 28.384C169.126 27.936 169.526 27.472 169.846 26.992C170.198 26.48 170.662 26.048 171.238 25.696C171.974 25.216 172.694 25.216 173.398 25.696C173.686 25.856 173.942 26.096 174.166 26.416C174.39 26.736 174.598 27.088 174.79 27.472C174.982 27.824 175.174 28.176 175.366 28.528C175.558 28.88 175.782 29.168 176.038 29.392C176.166 29.584 176.166 29.744 176.038 29.872C175.558 30.224 175.238 30.592 175.078 30.976C174.95 31.36 174.886 31.824 174.886 32.368V45.952C174.886 46.496 174.95 46.976 175.078 47.392C175.238 47.776 175.558 48.128 176.038 48.448C176.166 48.608 176.166 48.784 176.038 48.976C175.526 49.424 175.03 49.936 174.55 50.512C174.102 51.056 173.59 51.504 173.014 51.856C172.822 51.952 172.598 52 172.342 52C172.086 51.968 171.814 51.904 171.526 51.808C171.27 51.68 171.014 51.552 170.758 51.424C170.502 51.264 170.294 51.12 170.134 50.992C169.814 50.736 169.494 50.256 169.174 49.552C168.886 48.816 168.486 48.016 167.974 47.152C167.462 46.256 166.774 45.36 165.91 44.464C165.046 43.536 163.894 42.736 162.454 42.064V49.552C161.91 50.192 161.398 50.768 160.918 51.28C160.47 51.76 159.878 52 159.142 52C158.758 52 158.39 51.888 158.038 51.664C157.622 51.408 157.094 50.96 156.454 50.32C155.814 49.648 155.174 48.896 154.534 48.064C153.926 47.2 153.366 46.32 152.854 45.424C152.374 44.528 152.054 43.728 151.894 43.024C151.99 42.768 152.214 42.448 152.566 42.064C152.918 41.648 153.334 41.248 153.814 40.864C154.326 40.448 154.886 40.08 155.494 39.76C156.134 39.408 156.758 39.168 157.366 39.04V34.336ZM157.462 41.584C157.334 41.616 157.142 41.712 156.886 41.872C156.63 42 156.358 42.16 156.07 42.352C155.814 42.512 155.574 42.688 155.35 42.88C155.158 43.04 155.03 43.184 154.966 43.312C155.062 43.504 155.222 43.792 155.446 44.176C155.67 44.528 155.91 44.896 156.166 45.28C156.422 45.664 156.662 46.048 156.886 46.432C157.142 46.784 157.334 47.056 157.462 47.248V41.584ZM203.5 47.44C203.692 47.568 203.692 47.728 203.5 47.92C203.276 48.144 203.068 48.432 202.876 48.784C202.684 49.136 202.492 49.504 202.3 49.888C202.108 50.24 201.9 50.576 201.676 50.896C201.452 51.216 201.196 51.456 200.908 51.616C200.204 52.096 199.484 52.096 198.748 51.616C198.172 51.264 197.708 50.848 197.356 50.368C197.036 49.856 196.62 49.376 196.108 48.928C195.98 48.736 195.98 48.56 196.108 48.4C196.588 48.08 196.892 47.728 197.02 47.344C197.18 46.928 197.26 46.464 197.26 45.952V31.984C196.748 31.92 196.22 31.792 195.676 31.6C195.164 31.376 194.636 31.136 194.092 30.88C193.58 30.592 193.036 30.32 192.46 30.064C191.884 29.808 191.26 29.584 190.588 29.392C190.012 29.232 189.5 29.104 189.052 29.008C188.604 28.88 188.188 28.848 187.804 28.912C187.452 28.944 187.116 29.072 186.796 29.296C186.476 29.488 186.14 29.824 185.788 30.304C185.372 30.816 185.02 31.392 184.732 32.032C184.476 32.64 184.412 33.216 184.54 33.76C184.604 34.208 184.78 34.72 185.068 35.296C185.388 35.84 185.74 36.432 186.124 37.072C186.54 37.712 186.956 38.4 187.372 39.136C187.82 39.872 188.236 40.64 188.62 41.44C188.652 41.504 188.7 41.648 188.764 41.872C188.86 42.064 188.956 42.272 189.052 42.496C189.148 42.72 189.228 42.928 189.292 43.12C189.356 43.312 189.404 43.44 189.436 43.504C189.564 43.824 189.644 44.064 189.676 44.224C189.996 44 190.348 43.696 190.732 43.312C191.116 42.896 191.34 42.56 191.404 42.304C191.468 42.112 191.468 41.888 191.404 41.632C191.372 41.376 191.292 41.136 191.164 40.912C191.068 40.688 190.924 40.496 190.732 40.336C190.572 40.144 190.364 40.048 190.108 40.048C189.852 40.048 189.644 40.032 189.484 40C189.292 39.872 189.228 39.712 189.292 39.52C189.356 39.296 189.5 38.992 189.724 38.608C189.948 38.224 190.204 37.856 190.492 37.504C190.812 37.152 191.148 36.848 191.5 36.592C191.884 36.304 192.236 36.16 192.556 36.16C192.908 36.256 193.26 36.448 193.612 36.736C193.996 36.992 194.332 37.296 194.62 37.648C194.94 38 195.18 38.384 195.34 38.8C195.532 39.216 195.58 39.6 195.484 39.952C195.42 40.304 195.068 40.864 194.428 41.632C193.788 42.4 193.052 43.232 192.22 44.128C191.42 44.992 190.588 45.84 189.724 46.672C188.892 47.504 188.236 48.16 187.756 48.64C187.116 49.312 186.348 50 185.452 50.704C184.588 51.376 183.756 51.808 182.956 52C181.708 51.776 180.908 51.424 180.556 50.944C180.236 50.432 180.14 49.904 180.268 49.36C180.428 48.816 180.716 48.304 181.132 47.824C181.58 47.344 181.932 47.008 182.188 46.816C182.476 46.496 182.7 46.4 182.86 46.528C183.02 46.624 183.084 46.8 183.052 47.056C183.052 47.44 183.196 47.792 183.484 48.112C183.804 48.4 184.124 48.608 184.444 48.736C184.796 48.832 185.084 48.8 185.308 48.64C185.564 48.48 185.628 48.128 185.5 47.584C185.436 47.264 185.324 46.944 185.164 46.624C185.036 46.272 184.892 45.968 184.732 45.712C184.22 44.784 183.628 43.84 182.956 42.88C182.316 41.92 181.74 40.992 181.228 40.096C180.716 39.168 180.348 38.288 180.124 37.456C179.932 36.592 179.996 35.808 180.316 35.104C180.54 34.464 180.876 33.792 181.324 33.088C181.772 32.352 182.252 31.664 182.764 31.024C183.276 30.352 183.74 29.776 184.156 29.296C184.604 28.784 184.908 28.448 185.068 28.288C186.156 27.168 187.26 26.384 188.38 25.936C189.532 25.456 190.652 25.248 191.74 25.312C192.412 25.312 193.18 25.44 194.044 25.696C194.908 25.92 195.772 26.176 196.636 26.464C197.532 26.72 198.396 26.96 199.228 27.184C200.092 27.408 200.86 27.52 201.532 27.52C201.916 27.456 202.14 27.456 202.204 27.52C202.3 27.584 202.348 27.792 202.348 28.144V44.944C202.348 45.456 202.412 45.92 202.54 46.336C202.7 46.72 203.02 47.088 203.5 47.44ZM227.417 29.872C226.937 30.224 226.617 30.592 226.457 30.976C226.329 31.36 226.265 31.824 226.265 32.368V49.168C226.265 49.52 226.217 49.728 226.121 49.792C226.025 49.856 225.801 49.856 225.449 49.792C224.777 49.792 224.041 49.904 223.241 50.128C222.473 50.352 221.689 50.608 220.889 50.896C220.089 51.152 219.289 51.408 218.489 51.664C217.721 51.888 217.001 52 216.329 52C215.017 52.032 213.833 51.792 212.777 51.28C211.753 50.736 210.889 50.08 210.185 49.312C209.481 48.544 208.953 47.76 208.601 46.96C208.249 46.16 208.089 45.504 208.121 44.992C208.217 44.256 208.441 43.552 208.793 42.88C209.145 42.208 209.561 41.568 210.041 40.96C210.521 40.32 211.001 39.696 211.481 39.088C211.993 38.448 212.441 37.824 212.825 37.216C213.273 36.448 213.481 35.6 213.449 34.672C213.417 33.712 213.257 32.848 212.969 32.08C212.681 31.28 212.313 30.672 211.865 30.256C211.417 29.84 211.001 29.792 210.617 30.112C210.393 30.304 210.313 30.56 210.377 30.88C210.441 31.168 210.553 31.472 210.713 31.792C210.873 32.08 211.065 32.336 211.289 32.56C211.513 32.752 211.673 32.848 211.769 32.848C211.929 32.88 211.977 32.976 211.913 33.136C211.817 33.36 211.657 33.648 211.433 34C211.241 34.32 211.001 34.624 210.713 34.912C210.457 35.2 210.169 35.408 209.849 35.536C209.561 35.664 209.273 35.664 208.985 35.536C208.825 35.472 208.649 35.344 208.457 35.152C208.297 34.928 208.137 34.704 207.977 34.48C207.817 34.256 207.673 34.048 207.545 33.856C207.449 33.632 207.401 33.504 207.401 33.472C207.369 33.376 207.465 33.12 207.689 32.704C207.913 32.256 208.217 31.728 208.601 31.12C209.017 30.512 209.481 29.872 209.993 29.2C210.505 28.528 211.017 27.904 211.529 27.328C212.073 26.752 212.585 26.272 213.065 25.888C213.545 25.504 213.945 25.328 214.265 25.36C214.969 25.392 215.609 25.648 216.185 26.128C216.761 26.576 217.257 27.136 217.673 27.808C218.089 28.448 218.377 29.136 218.537 29.872C218.729 30.576 218.777 31.216 218.681 31.792C218.649 32.336 218.361 33.008 217.817 33.808C217.273 34.608 216.665 35.44 215.993 36.304C215.321 37.168 214.665 38.032 214.025 38.896C213.417 39.76 213.001 40.544 212.777 41.248C212.521 43.328 213.081 45.024 214.457 46.336C214.937 46.752 215.433 47.136 215.945 47.488C216.489 47.84 217.033 48.096 217.577 48.256C218.153 48.416 218.745 48.464 219.353 48.4C219.961 48.336 220.569 48.112 221.177 47.728V31.36C221.177 30.848 221.097 30.4 220.937 30.016C220.809 29.6 220.505 29.232 220.025 28.912C219.865 28.72 219.865 28.544 220.025 28.384C220.505 27.936 220.905 27.472 221.225 26.992C221.577 26.48 222.041 26.048 222.617 25.696C223.353 25.216 224.089 25.216 224.825 25.696C225.113 25.856 225.353 26.096 225.545 26.416C225.769 26.736 225.977 27.088 226.169 27.472C226.361 27.824 226.553 28.176 226.745 28.528C226.937 28.88 227.161 29.168 227.417 29.392C227.577 29.552 227.577 29.712 227.417 29.872ZM240.523 39.04C240.139 38.72 239.755 38.736 239.371 39.088C238.987 39.44 238.619 39.92 238.267 40.528C237.947 41.104 237.675 41.728 237.451 42.4C237.259 43.04 237.163 43.504 237.163 43.792C237.227 44.464 237.483 45.088 237.931 45.664C238.411 46.208 238.971 46.688 239.611 47.104C240.251 47.52 240.939 47.84 241.675 48.064C242.443 48.288 243.131 48.416 243.739 48.448C244.475 48.512 245.211 48.496 245.947 48.4C246.683 48.304 247.323 48.08 247.867 47.728V32.032C247.355 31.968 246.715 31.824 245.947 31.6C245.179 31.376 244.379 31.136 243.547 30.88C242.747 30.624 241.931 30.368 241.099 30.112C240.299 29.824 239.563 29.584 238.891 29.392C237.899 29.104 237.115 28.96 236.539 28.96C235.963 28.928 235.547 28.992 235.291 29.152C235.067 29.312 234.987 29.52 235.051 29.776C235.115 30.032 235.275 30.304 235.531 30.592C235.819 30.848 236.171 31.088 236.587 31.312C237.003 31.536 237.451 31.68 237.931 31.744C238.059 31.776 238.091 31.872 238.027 32.032C237.963 32.16 237.867 32.304 237.739 32.464C237.643 32.624 237.515 32.784 237.355 32.944C237.227 33.104 237.131 33.216 237.067 33.28C236.683 33.6 236.203 33.84 235.627 34C235.051 34.128 234.475 34.128 233.899 34C233.323 33.84 232.795 33.52 232.315 33.04C231.835 32.56 231.499 31.856 231.307 30.928C232.651 28.848 234.075 27.392 235.579 26.56C237.115 25.696 238.603 25.296 240.043 25.36C240.715 25.36 241.595 25.488 242.683 25.744C243.771 25.968 244.907 26.224 246.091 26.512C247.275 26.768 248.411 27.008 249.499 27.232C250.587 27.456 251.467 27.568 252.139 27.568C252.491 27.504 252.715 27.504 252.811 27.568C252.907 27.632 252.955 27.84 252.955 28.192V49.168C252.955 49.52 252.907 49.728 252.811 49.792C252.715 49.856 252.491 49.856 252.139 49.792C251.467 49.792 250.603 49.904 249.547 50.128C248.491 50.352 247.403 50.608 246.283 50.896C245.163 51.152 244.075 51.408 243.019 51.664C241.963 51.888 241.099 52 240.427 52C239.371 52.032 238.411 51.872 237.547 51.52C236.683 51.168 235.915 50.736 235.243 50.224C234.571 49.68 233.995 49.088 233.515 48.448C233.067 47.776 232.731 47.152 232.507 46.576C232.219 45.808 232.123 45.088 232.219 44.416C232.283 43.808 232.507 43.008 232.891 42.016C233.307 40.992 233.803 40 234.379 39.04C234.955 38.08 235.595 37.264 236.299 36.592C237.003 35.888 237.691 35.568 238.363 35.632C238.651 35.664 238.971 35.792 239.323 36.016C239.675 36.208 240.011 36.448 240.331 36.736C240.683 37.024 241.019 37.344 241.339 37.696C241.691 38.016 242.011 38.336 242.299 38.656C242.779 39.168 243.163 39.68 243.451 40.192C243.771 40.672 243.963 41.168 244.027 41.68C244.091 42.192 244.011 42.704 243.787 43.216C243.563 43.696 243.163 44.192 242.587 44.704C242.363 44.64 242.075 44.496 241.723 44.272C241.403 44.048 241.083 43.792 240.763 43.504C240.475 43.216 240.187 42.912 239.899 42.592C239.643 42.272 239.467 42.016 239.371 41.824C239.307 41.664 239.291 41.536 239.323 41.44C239.387 41.312 239.499 41.248 239.659 41.248C240.139 40.896 240.459 40.512 240.619 40.096C240.811 39.68 240.779 39.328 240.523 39.04ZM270.863 25.36C271.439 25.392 271.951 25.536 272.399 25.792C272.879 26.016 273.279 26.288 273.599 26.608C273.919 26.896 274.175 27.168 274.367 27.424C274.591 27.68 274.735 27.856 274.799 27.952V49.168C274.799 49.52 274.751 49.728 274.655 49.792C274.559 49.856 274.335 49.856 273.983 49.792C273.279 49.76 272.639 49.872 272.063 50.128C271.487 50.352 270.927 50.592 270.383 50.848C269.775 51.168 269.215 51.44 268.703 51.664C268.191 51.888 267.583 52 266.879 52C265.759 52 264.591 51.6 263.375 50.8C262.191 49.968 261.103 48.944 260.111 47.728C259.119 46.48 258.319 45.136 257.711 43.696C257.103 42.256 256.847 40.928 256.943 39.712C257.007 39.008 257.247 38.192 257.663 37.264C258.111 36.336 258.575 35.536 259.055 34.864C259.567 34.192 259.999 33.792 260.351 33.664C260.735 33.504 260.863 33.856 260.735 34.72C260.575 35.456 260.575 36.32 260.735 37.312C260.927 38.304 261.231 39.328 261.647 40.384C262.063 41.44 262.575 42.48 263.183 43.504C263.791 44.528 264.447 45.424 265.151 46.192C265.855 46.96 266.591 47.568 267.359 48.016C268.159 48.432 268.943 48.576 269.711 48.448V31.168C269.711 30.848 269.647 30.576 269.519 30.352C269.423 30.128 269.295 29.952 269.135 29.824C268.975 29.664 268.815 29.568 268.655 29.536C268.495 29.472 268.367 29.456 268.271 29.488C267.887 29.488 267.599 29.616 267.407 29.872C267.247 30.128 267.167 30.432 267.167 30.784C267.199 31.136 267.327 31.504 267.551 31.888C267.775 32.24 268.079 32.544 268.463 32.8C268.655 32.8 268.719 32.88 268.655 33.04C268.591 33.296 268.463 33.6 268.271 33.952C268.079 34.272 267.839 34.576 267.551 34.864C267.295 35.152 267.007 35.376 266.687 35.536C266.399 35.696 266.111 35.712 265.823 35.584C265.631 35.52 265.423 35.376 265.199 35.152C265.007 34.928 264.831 34.704 264.671 34.48C264.543 34.224 264.431 34 264.335 33.808C264.239 33.584 264.191 33.456 264.191 33.424C264.159 33.328 264.255 33.072 264.479 32.656C264.703 32.208 264.991 31.696 265.343 31.12C265.727 30.512 266.159 29.872 266.639 29.2C267.151 28.496 267.663 27.872 268.175 27.328C268.687 26.752 269.167 26.272 269.615 25.888C270.095 25.504 270.511 25.328 270.863 25.36ZM286.659 29.872C286.179 30.224 285.859 30.592 285.699 30.976C285.571 31.36 285.507 31.824 285.507 32.368V42.976C285.539 44.544 285.843 45.616 286.419 46.192C286.995 46.736 287.715 46.88 288.579 46.624C288.739 46.56 288.867 46.576 288.963 46.672C289.059 46.768 289.059 46.88 288.963 47.008C288.643 47.52 288.307 48.08 287.955 48.688C287.603 49.264 287.235 49.808 286.851 50.32C286.467 50.832 286.067 51.248 285.651 51.568C285.235 51.888 284.803 52.032 284.355 52C283.747 51.968 283.187 51.744 282.675 51.328C282.195 50.88 281.747 50.384 281.331 49.84C280.947 49.264 280.595 48.704 280.275 48.16C279.955 47.616 279.651 47.232 279.363 47.008C279.267 46.944 279.219 46.864 279.219 46.768C279.251 46.672 279.299 46.592 279.363 46.528C279.683 46.496 279.907 46.384 280.035 46.192C280.195 45.968 280.291 45.712 280.323 45.424C280.387 45.136 280.419 44.832 280.419 44.512C280.419 44.192 280.419 43.904 280.419 43.648V31.36C280.419 30.848 280.339 30.4 280.179 30.016C280.051 29.6 279.747 29.232 279.267 28.912C279.139 28.752 279.139 28.576 279.267 28.384C279.779 27.936 280.195 27.472 280.515 26.992C280.867 26.48 281.331 26.048 281.907 25.696C282.643 25.216 283.363 25.216 284.067 25.696C284.355 25.856 284.611 26.096 284.835 26.416C285.059 26.736 285.267 27.088 285.459 27.472C285.651 27.824 285.843 28.176 286.035 28.528C286.227 28.88 286.435 29.168 286.659 29.392C286.851 29.584 286.851 29.744 286.659 29.872ZM301.256 42.976V38.32C300.488 38.032 299.656 37.728 298.76 37.408C297.864 37.056 296.936 36.72 295.976 36.4C295.016 36.08 294.072 35.808 293.144 35.584C292.216 35.328 291.336 35.184 290.504 35.152C290.344 35.12 290.168 35.008 289.976 34.816C289.816 34.592 289.864 34.208 290.12 33.664C290.568 32.672 291.048 31.68 291.56 30.688C292.072 29.664 292.664 28.752 293.336 27.952C294.04 27.152 294.84 26.512 295.736 26.032C296.664 25.52 297.736 25.296 298.952 25.36C299.624 25.392 300.216 25.488 300.728 25.648C301.24 25.776 301.72 25.936 302.168 26.128C302.616 26.32 303.08 26.544 303.56 26.8C304.04 27.024 304.568 27.248 305.144 27.472C305.368 27.536 305.544 27.536 305.672 27.472C305.832 27.408 305.912 27.296 305.912 27.136C305.912 26.976 305.816 26.8 305.624 26.608C305.432 26.416 305.112 26.224 304.664 26.032C304.728 25.776 304.824 25.488 304.952 25.168C305.08 24.848 305.224 24.56 305.384 24.304C305.576 24.016 305.8 23.808 306.056 23.68C306.344 23.52 306.664 23.488 307.016 23.584C307.624 23.776 308.008 24.128 308.168 24.64C308.36 25.12 308.392 25.664 308.264 26.272C308.136 26.88 307.896 27.52 307.544 28.192C307.192 28.864 306.792 29.472 306.344 30.016C305.896 30.56 305.416 31.008 304.904 31.36C304.424 31.712 303.992 31.872 303.608 31.84C302.84 31.744 302.024 31.472 301.16 31.024C300.296 30.576 299.448 30.192 298.616 29.872C297.816 29.52 297.048 29.344 296.312 29.344C295.576 29.344 294.936 29.744 294.392 30.544C294.264 30.64 294.104 30.88 293.912 31.264C293.752 31.616 293.64 31.872 293.576 32.032C294.024 32.064 294.616 32.192 295.352 32.416C296.12 32.608 296.936 32.848 297.8 33.136C298.664 33.424 299.528 33.728 300.392 34.048C301.288 34.368 302.088 34.656 302.792 34.912C303.912 35.168 304.824 35.296 305.528 35.296C305.88 35.232 306.104 35.232 306.2 35.296C306.296 35.36 306.344 35.568 306.344 35.92V43.648C306.344 43.904 306.344 44.192 306.344 44.512C306.344 44.832 306.36 45.136 306.392 45.424C306.456 45.712 306.552 45.968 306.68 46.192C306.84 46.384 307.08 46.496 307.4 46.528C307.496 46.592 307.544 46.672 307.544 46.768C307.544 46.864 307.496 46.944 307.4 47.008C307.112 47.232 306.808 47.616 306.488 48.16C306.168 48.704 305.8 49.264 305.384 49.84C305 50.384 304.568 50.88 304.088 51.328C303.608 51.744 303.048 51.968 302.408 52C301.96 52.032 301.528 51.888 301.112 51.568C300.696 51.248 300.296 50.832 299.912 50.32C299.528 49.808 299.16 49.264 298.808 48.688C298.456 48.08 298.12 47.52 297.8 47.008C297.736 46.88 297.736 46.768 297.8 46.672C297.896 46.576 298.04 46.56 298.232 46.624C299.064 46.88 299.768 46.736 300.344 46.192C300.92 45.616 301.224 44.544 301.256 42.976ZM316.143 31.744C316.271 31.776 316.303 31.872 316.239 32.032C316.175 32.16 316.079 32.304 315.951 32.464C315.855 32.624 315.727 32.784 315.567 32.944C315.439 33.104 315.343 33.216 315.279 33.28C314.895 33.6 314.415 33.84 313.839 34C313.263 34.128 312.687 34.128 312.111 34C311.535 33.872 311.007 33.568 310.527 33.088C310.047 32.608 309.711 31.904 309.519 30.976C310.863 28.896 312.287 27.424 313.791 26.56C315.327 25.696 316.815 25.296 318.255 25.36C318.927 25.36 319.567 25.488 320.175 25.744C320.815 25.968 321.439 26.224 322.047 26.512C322.687 26.768 323.311 27.008 323.919 27.232C324.559 27.456 325.215 27.568 325.887 27.568C326.239 27.504 326.463 27.504 326.559 27.568C326.655 27.632 326.703 27.84 326.703 28.192V44.992C326.703 45.504 326.767 45.968 326.895 46.384C327.055 46.768 327.375 47.12 327.855 47.44C327.983 47.6 327.983 47.776 327.855 47.968C327.599 48.192 327.375 48.48 327.183 48.832C326.991 49.184 326.799 49.536 326.607 49.888C326.415 50.24 326.207 50.576 325.983 50.896C325.791 51.216 325.551 51.472 325.263 51.664C324.495 52.08 323.759 52.08 323.055 51.664C322.479 51.312 322.015 50.896 321.663 50.416C321.343 49.904 320.943 49.424 320.463 48.976C320.303 48.784 320.303 48.608 320.463 48.448C320.943 48.128 321.247 47.776 321.375 47.392C321.535 46.976 321.615 46.496 321.615 45.952V31.792C321.263 31.728 320.879 31.568 320.463 31.312C320.079 31.024 319.615 30.736 319.071 30.448C318.559 30.128 317.951 29.824 317.247 29.536C316.575 29.248 315.791 29.056 314.895 28.96C314.095 28.864 313.599 28.944 313.407 29.2C313.215 29.456 313.215 29.76 313.407 30.112C313.599 30.432 313.951 30.768 314.463 31.12C314.975 31.44 315.535 31.648 316.143 31.744Z" fill="#303030"/>
</svg>
