<svg width="100" height="21" viewBox="0 0 100 21" fill="none" xmlns="http://www.w3.org/2000/svg">
<path d="M4.728 8.936C4.488 9.112 4.328 9.296 4.248 9.488C4.184 9.68 4.152 9.912 4.152 10.184V15.488C4.168 16.272 4.32 16.808 4.608 17.096C4.896 17.368 5.256 17.44 5.688 17.312C5.768 17.28 5.832 17.288 5.88 17.336C5.928 17.384 5.928 17.44 5.88 17.504C5.72 17.76 5.552 18.04 5.376 18.344C5.2 18.632 5.016 18.904 4.824 19.16C4.632 19.416 4.432 19.624 4.224 19.784C4.016 19.944 3.8 20.016 3.576 20C3.272 19.984 2.992 19.872 2.736 19.664C2.496 19.44 2.272 19.192 2.064 18.92C1.872 18.632 1.696 18.352 1.536 18.08C1.376 17.808 1.224 17.616 1.08 17.504C1.032 17.472 1.008 17.432 1.008 17.384C1.024 17.336 1.048 17.296 1.08 17.264C1.24 17.248 1.352 17.192 1.416 17.096C1.496 16.984 1.544 16.856 1.56 16.712C1.592 16.568 1.608 16.416 1.608 16.256C1.608 16.096 1.608 15.952 1.608 15.824V9.68C1.608 9.424 1.568 9.2 1.488 9.008C1.424 8.8 1.272 8.616 1.032 8.456C0.968 8.376 0.968 8.288 1.032 8.192C1.288 7.968 1.496 7.736 1.656 7.496C1.832 7.24 2.064 7.024 2.352 6.848C2.72 6.608 3.08 6.608 3.432 6.848C3.576 6.928 3.704 7.048 3.816 7.208C3.928 7.368 4.032 7.544 4.128 7.736C4.224 7.912 4.32 8.088 4.416 8.264C4.512 8.44 4.616 8.584 4.728 8.696C4.824 8.792 4.824 8.872 4.728 8.936ZM9.43875 9.872C9.50275 9.888 9.51875 9.936 9.48675 10.016C9.45475 10.08 9.40675 10.152 9.34275 10.232C9.29475 10.312 9.23075 10.392 9.15075 10.472C9.08675 10.552 9.03875 10.608 9.00675 10.64C8.81475 10.8 8.57475 10.92 8.28675 11C7.99875 11.064 7.71075 11.064 7.42275 11C7.13475 10.92 6.87075 10.76 6.63075 10.52C6.39075 10.28 6.22275 9.928 6.12675 9.464C6.79875 8.424 7.51075 7.696 8.26275 7.28C9.03075 6.848 9.77475 6.648 10.4948 6.68C10.8308 6.68 11.1988 6.744 11.5988 6.872C11.9988 6.984 12.3988 7.112 12.7988 7.256C13.2148 7.384 13.6228 7.504 14.0228 7.616C14.4228 7.728 14.7908 7.784 15.1268 7.784C15.3028 7.752 15.4068 7.752 15.4388 7.784C15.4868 7.816 15.5108 7.92 15.5108 8.096V10.688V16.352C15.5268 16.576 15.5668 16.776 15.6308 16.952C15.6948 17.128 15.8308 17.232 16.0388 17.264C16.0868 17.296 16.1108 17.336 16.1108 17.384C16.1108 17.432 16.0868 17.472 16.0388 17.504C15.8468 17.664 15.6388 17.944 15.4148 18.344C15.2068 18.728 14.9508 19.08 14.6468 19.4C14.4548 19.608 14.2308 19.76 13.9748 19.856C13.7188 19.952 13.4548 20 13.1828 20C12.9108 20 12.6388 19.96 12.3668 19.88C12.0948 19.8 11.8468 19.688 11.6228 19.544C10.9988 19.112 10.5108 18.648 10.1588 18.152C9.82275 17.64 9.67075 17.216 9.70275 16.88C9.70275 16.848 9.74275 16.768 9.82275 16.64C9.90275 16.512 9.99875 16.376 10.1108 16.232C10.2388 16.088 10.3668 15.952 10.4948 15.824C10.6388 15.696 10.7668 15.616 10.8788 15.584C11.0228 15.52 11.1668 15.52 11.3108 15.584C11.4708 15.648 11.6148 15.752 11.7428 15.896C11.8868 16.024 12.0068 16.168 12.1028 16.328C12.2148 16.472 12.2868 16.608 12.3188 16.736C12.3508 16.816 12.3188 16.864 12.2228 16.88C11.8388 17.104 11.6228 17.328 11.5748 17.552C11.5428 17.776 11.5988 17.944 11.7428 18.056C11.8868 18.152 12.0788 18.16 12.3188 18.08C12.5748 18 12.7908 17.768 12.9668 17.384V10.016C12.7108 9.984 12.4628 9.912 12.2228 9.8C11.9988 9.688 11.7668 9.568 11.5268 9.44C11.3028 9.312 11.0628 9.184 10.8068 9.056C10.5508 8.912 10.2548 8.792 9.91875 8.696C9.42275 8.552 9.03075 8.48 8.74275 8.48C8.45475 8.464 8.24675 8.496 8.11875 8.576C8.00675 8.656 7.96675 8.76 7.99875 8.888C8.03075 9.016 8.11075 9.152 8.23875 9.296C8.38275 9.424 8.55875 9.544 8.76675 9.656C8.97475 9.768 9.19875 9.84 9.43875 9.872ZM21.3334 9.872C21.3974 9.888 21.4134 9.936 21.3814 10.016C21.3494 10.08 21.3014 10.152 21.2374 10.232C21.1894 10.312 21.1254 10.392 21.0454 10.472C20.9814 10.552 20.9334 10.608 20.9014 10.64C20.7094 10.8 20.4694 10.92 20.1814 11C19.8934 11.064 19.6054 11.064 19.3174 11C19.0294 10.92 18.7654 10.76 18.5254 10.52C18.2854 10.28 18.1174 9.928 18.0214 9.464C18.6934 8.424 19.4054 7.696 20.1574 7.28C20.9254 6.848 21.6694 6.648 22.3894 6.68C22.7254 6.68 23.1654 6.744 23.7094 6.872C24.2534 6.984 24.8214 7.112 25.4134 7.256C26.0054 7.384 26.5734 7.504 27.1174 7.616C27.6614 7.728 28.1014 7.784 28.4374 7.784C28.6134 7.752 28.7254 7.752 28.7734 7.784C28.8214 7.816 28.8454 7.92 28.8454 8.096V16.496C28.8454 16.752 28.8774 16.984 28.9414 17.192C29.0214 17.384 29.1814 17.56 29.4214 17.72C29.4854 17.8 29.4854 17.888 29.4214 17.984C29.2934 18.096 29.1814 18.24 29.0854 18.416C28.9894 18.592 28.8934 18.768 28.7974 18.944C28.7014 19.12 28.5974 19.288 28.4854 19.448C28.3894 19.608 28.2694 19.736 28.1254 19.832C27.7414 20.04 27.3734 20.04 27.0214 19.832C26.7334 19.656 26.5014 19.448 26.3254 19.208C26.1654 18.952 25.9654 18.712 25.7254 18.488C25.6454 18.392 25.6454 18.304 25.7254 18.224C25.9174 18.096 26.0534 17.952 26.1334 17.792C26.2134 17.632 26.2614 17.456 26.2774 17.264C26.2454 16.96 26.1094 16.648 25.8694 16.328C25.6454 16.008 25.3574 15.688 25.0054 15.368C24.6694 15.048 24.2934 14.752 23.8774 14.48C23.4774 14.192 23.0854 13.944 22.7014 13.736C22.3334 13.528 21.9974 13.368 21.6934 13.256C21.3894 13.128 21.1734 13.072 21.0454 13.088C20.7094 13.264 20.5014 13.584 20.4214 14.048C20.3574 14.512 20.3734 15.008 20.4694 15.536C20.5814 16.048 20.7494 16.544 20.9734 17.024C21.2134 17.488 21.4534 17.824 21.6934 18.032C21.9814 18.272 22.1894 18.376 22.3174 18.344C22.4454 18.296 22.5094 18.192 22.5094 18.032C22.5254 17.872 22.4774 17.704 22.3654 17.528C22.2694 17.336 22.1334 17.208 21.9574 17.144C21.8774 17.144 21.8214 17.112 21.7894 17.048C21.7734 16.984 21.7814 16.92 21.8134 16.856C21.8614 16.76 21.9494 16.632 22.0774 16.472C22.2214 16.312 22.3734 16.16 22.5334 16.016C22.6934 15.872 22.8534 15.744 23.0134 15.632C23.1734 15.504 23.3094 15.432 23.4214 15.416C24.0134 15.912 24.2534 16.416 24.1414 16.928C24.0454 17.424 23.7574 17.928 23.2774 18.44C23.1334 18.584 22.9734 18.744 22.7974 18.92C22.6214 19.096 22.4374 19.264 22.2454 19.424C22.0694 19.568 21.8854 19.696 21.6934 19.808C21.5174 19.904 21.3494 19.96 21.1894 19.976C20.7414 20.024 20.3334 19.928 19.9654 19.688C19.5974 19.448 19.2854 19.144 19.0294 18.776C18.7734 18.392 18.5734 17.968 18.4294 17.504C18.3014 17.04 18.2534 16.608 18.2854 16.208C18.6374 15.072 19.1094 14.088 19.7014 13.256C20.2934 12.424 21.0614 11.792 22.0054 11.36C22.2134 11.328 22.4934 11.368 22.8454 11.48C23.1974 11.576 23.5734 11.72 23.9734 11.912C24.3894 12.104 24.8054 12.328 25.2214 12.584C25.6374 12.84 25.9974 13.104 26.3014 13.376V10.016C26.0454 9.984 25.7254 9.912 25.3414 9.8C24.9574 9.688 24.5574 9.568 24.1414 9.44C23.7414 9.312 23.3334 9.184 22.9174 9.056C22.5174 8.912 22.1494 8.792 21.8134 8.696C21.3174 8.552 20.9254 8.48 20.6374 8.48C20.3494 8.464 20.1414 8.496 20.0134 8.576C19.9014 8.656 19.8614 8.76 19.8934 8.888C19.9254 9.016 20.0054 9.152 20.1334 9.296C20.2774 9.424 20.4534 9.544 20.6614 9.656C20.8694 9.768 21.0934 9.84 21.3334 9.872ZM34.1888 9.872C34.2528 9.888 34.2688 9.936 34.2368 10.016C34.2048 10.08 34.1568 10.152 34.0928 10.232C34.0448 10.312 33.9808 10.392 33.9008 10.472C33.8368 10.552 33.7888 10.608 33.7568 10.64C33.5648 10.8 33.3248 10.92 33.0368 11C32.7488 11.064 32.4608 11.064 32.1728 11C31.8848 10.936 31.6208 10.784 31.3808 10.544C31.1408 10.304 30.9728 9.952 30.8768 9.488C31.5488 8.448 32.2608 7.712 33.0128 7.28C33.7808 6.848 34.5248 6.648 35.2448 6.68C35.5808 6.68 35.9008 6.744 36.2048 6.872C36.5248 6.984 36.8368 7.112 37.1408 7.256C37.4608 7.384 37.7728 7.504 38.0768 7.616C38.3968 7.728 38.7248 7.784 39.0608 7.784C39.2368 7.752 39.3488 7.752 39.3968 7.784C39.4448 7.816 39.4688 7.92 39.4688 8.096V16.496C39.4688 16.752 39.5008 16.984 39.5648 17.192C39.6448 17.384 39.8048 17.56 40.0448 17.72C40.1088 17.8 40.1088 17.888 40.0448 17.984C39.9168 18.096 39.8048 18.24 39.7088 18.416C39.6128 18.592 39.5168 18.768 39.4208 18.944C39.3248 19.12 39.2208 19.288 39.1088 19.448C39.0128 19.608 38.8928 19.736 38.7488 19.832C38.3648 20.04 37.9968 20.04 37.6448 19.832C37.3568 19.656 37.1248 19.448 36.9488 19.208C36.7888 18.952 36.5888 18.712 36.3488 18.488C36.2688 18.392 36.2688 18.304 36.3488 18.224C36.5888 18.064 36.7408 17.888 36.8047 17.696C36.8848 17.488 36.9248 17.248 36.9248 16.976V9.896C36.7488 9.864 36.5568 9.784 36.3488 9.656C36.1568 9.512 35.9248 9.368 35.6528 9.224C35.3968 9.064 35.0928 8.912 34.7408 8.768C34.4048 8.624 34.0128 8.528 33.5648 8.48C33.1648 8.432 32.9168 8.472 32.8208 8.6C32.7248 8.728 32.7248 8.88 32.8208 9.056C32.9168 9.216 33.0928 9.384 33.3488 9.56C33.6048 9.72 33.8848 9.824 34.1888 9.872ZM50.667 14.12C50.523 14.536 50.315 15.08 50.043 15.752C49.771 16.408 49.443 17.056 49.059 17.696C48.691 18.32 48.267 18.864 47.787 19.328C47.307 19.776 46.787 20 46.227 20C45.571 20.016 44.979 19.896 44.451 19.64C43.939 19.368 43.507 19.04 43.155 18.656C42.803 18.272 42.539 17.88 42.363 17.48C42.187 17.08 42.107 16.752 42.123 16.496C42.171 16.128 42.283 15.776 42.459 15.44C42.635 15.104 42.843 14.784 43.083 14.48C43.323 14.16 43.563 13.848 43.803 13.544C44.059 13.224 44.283 12.912 44.475 12.608C44.699 12.224 44.803 11.8 44.787 11.336C44.771 10.856 44.691 10.424 44.547 10.04C44.403 9.64 44.219 9.336 43.995 9.128C43.771 8.92 43.563 8.896 43.371 9.056C43.259 9.152 43.219 9.28 43.251 9.44C43.283 9.584 43.339 9.736 43.419 9.896C43.499 10.04 43.595 10.168 43.707 10.28C43.819 10.376 43.899 10.424 43.947 10.424C44.027 10.44 44.051 10.488 44.019 10.568C43.971 10.68 43.891 10.824 43.779 11C43.683 11.16 43.563 11.312 43.419 11.456C43.291 11.6 43.147 11.704 42.987 11.768C42.843 11.832 42.699 11.832 42.555 11.768C42.475 11.736 42.387 11.672 42.291 11.576C42.211 11.464 42.131 11.352 42.051 11.24C41.971 11.128 41.899 11.024 41.835 10.928C41.787 10.816 41.763 10.752 41.763 10.736C41.747 10.688 41.795 10.56 41.907 10.352C42.019 10.128 42.171 9.864 42.363 9.56C42.571 9.256 42.803 8.936 43.059 8.6C43.315 8.264 43.571 7.952 43.827 7.664C44.099 7.376 44.355 7.136 44.595 6.944C44.835 6.752 45.035 6.664 45.195 6.68C45.547 6.696 45.867 6.824 46.155 7.064C46.443 7.288 46.691 7.568 46.899 7.904C47.107 8.224 47.251 8.568 47.331 8.936C47.427 9.288 47.451 9.608 47.403 9.896C47.387 10.168 47.243 10.504 46.971 10.904C46.699 11.304 46.395 11.72 46.059 12.152C45.723 12.584 45.395 13.016 45.075 13.448C44.771 13.88 44.563 14.272 44.451 14.624C44.371 15.024 44.419 15.424 44.595 15.824C44.771 16.208 45.011 16.552 45.315 16.856C45.635 17.16 45.995 17.392 46.395 17.552C46.795 17.696 47.187 17.736 47.571 17.672C47.891 17.608 48.091 17.48 48.171 17.288C48.251 17.096 48.267 16.856 48.219 16.568C48.171 16.264 48.083 15.928 47.955 15.56C47.827 15.192 47.715 14.808 47.619 14.408C47.539 14.008 47.491 13.608 47.475 13.208C47.459 12.792 47.539 12.392 47.715 12.008C48.003 11.256 48.283 10.56 48.555 9.92C48.843 9.264 49.123 8.696 49.395 8.216C49.667 7.736 49.931 7.36 50.187 7.088C50.443 6.8 50.683 6.64 50.907 6.608C51.435 6.64 51.867 6.76 52.203 6.968C52.555 7.16 52.867 7.376 53.139 7.616C53.411 7.856 53.659 8.096 53.883 8.336C54.123 8.56 54.395 8.728 54.699 8.84C54.779 8.856 54.827 8.904 54.843 8.984C54.859 9.064 54.843 9.136 54.795 9.2C54.571 9.328 54.459 9.528 54.459 9.8V16.976C54.459 17.248 54.491 17.488 54.555 17.696C54.635 17.888 54.795 18.064 55.035 18.224C55.115 18.32 55.115 18.408 55.035 18.488C54.795 18.712 54.587 18.952 54.411 19.208C54.251 19.448 54.027 19.656 53.739 19.832C53.371 20.056 53.003 20.056 52.635 19.832C52.491 19.736 52.363 19.608 52.251 19.448C52.155 19.288 52.059 19.12 51.963 18.944C51.867 18.768 51.771 18.592 51.675 18.416C51.579 18.24 51.467 18.096 51.339 17.984C51.259 17.904 51.259 17.816 51.339 17.72C51.579 17.56 51.731 17.384 51.795 17.192C51.875 16.984 51.915 16.752 51.915 16.496V10.28C51.739 10.184 51.555 10.056 51.363 9.896C51.187 9.736 51.011 9.6 50.835 9.488C50.675 9.376 50.523 9.32 50.379 9.32C50.235 9.32 50.115 9.424 50.019 9.632C49.827 9.888 49.755 10.192 49.803 10.544C49.851 10.896 49.939 11.272 50.067 11.672C50.195 12.072 50.323 12.48 50.451 12.896C50.595 13.312 50.667 13.72 50.667 14.12ZM59.8059 9.872C59.8699 9.888 59.8859 9.936 59.8539 10.016C59.8219 10.08 59.7739 10.152 59.7099 10.232C59.6619 10.312 59.5979 10.392 59.5179 10.472C59.4539 10.552 59.4059 10.608 59.3739 10.64C59.1819 10.8 58.9419 10.92 58.6539 11C58.3659 11.064 58.0779 11.064 57.7899 11C57.5019 10.936 57.2379 10.784 56.9979 10.544C56.7579 10.304 56.5899 9.952 56.4939 9.488C57.1659 8.448 57.8779 7.712 58.6299 7.28C59.3979 6.848 60.1419 6.648 60.8619 6.68C61.1979 6.68 61.5179 6.744 61.8219 6.872C62.1419 6.984 62.4539 7.112 62.7579 7.256C63.0779 7.384 63.3899 7.504 63.6939 7.616C64.0139 7.728 64.3419 7.784 64.6779 7.784C64.8539 7.752 64.9659 7.752 65.0139 7.784C65.0619 7.816 65.0859 7.92 65.0859 8.096V16.496C65.0859 16.752 65.1179 16.984 65.1819 17.192C65.2619 17.384 65.4219 17.56 65.6619 17.72C65.7259 17.8 65.7259 17.888 65.6619 17.984C65.5339 18.096 65.4219 18.24 65.3259 18.416C65.2299 18.592 65.1339 18.768 65.0379 18.944C64.9419 19.12 64.8379 19.288 64.7259 19.448C64.6299 19.608 64.5099 19.736 64.3659 19.832C63.9819 20.04 63.6139 20.04 63.2619 19.832C62.9739 19.656 62.7419 19.448 62.5659 19.208C62.4059 18.952 62.2059 18.712 61.9659 18.488C61.8859 18.392 61.8859 18.304 61.9659 18.224C62.2059 18.064 62.3579 17.888 62.4219 17.696C62.5019 17.488 62.5419 17.248 62.5419 16.976V9.896C62.3659 9.864 62.1739 9.784 61.9659 9.656C61.7739 9.512 61.5419 9.368 61.2699 9.224C61.0139 9.064 60.7099 8.912 60.3579 8.768C60.0219 8.624 59.6299 8.528 59.1819 8.48C58.7819 8.432 58.5339 8.472 58.4379 8.6C58.3419 8.728 58.3419 8.88 58.4379 9.056C58.5339 9.216 58.7099 9.384 58.9659 9.56C59.2219 9.72 59.5019 9.824 59.8059 9.872ZM52.0539 3.56C52.2139 3.736 52.3739 3.88 52.5339 3.992C52.6779 4.088 52.8059 4.112 52.9179 4.064C53.0139 4.032 53.1019 3.976 53.1819 3.896C53.2619 3.816 53.3419 3.728 53.4219 3.632V2.96C53.4219 2.448 53.3419 2.088 53.1819 1.88C53.0059 1.672 52.8299 1.592 52.6539 1.64C52.6219 1.64 52.5739 1.664 52.5099 1.712C52.4459 1.76 52.3819 1.816 52.3179 1.88C52.2539 1.944 52.1979 2.016 52.1499 2.096C52.0859 2.16 52.0539 2.208 52.0539 2.24V3.56ZM55.2699 3.584C55.2699 3.6 55.1499 3.696 54.9099 3.872C54.6699 4.032 54.3899 4.216 54.0699 4.424C53.7499 4.616 53.4299 4.792 53.1099 4.952C52.7739 5.112 52.5179 5.192 52.3419 5.192C52.1659 5.208 51.9659 5.184 51.7419 5.12C51.5019 5.04 51.2699 4.944 51.0459 4.832C50.8219 4.704 50.6299 4.552 50.4699 4.376C50.3099 4.2 50.2219 4.008 50.2059 3.8V2.456C50.3019 2.312 50.4859 2.144 50.7579 1.952C51.0139 1.744 51.2939 1.552 51.5979 1.376C51.9019 1.184 52.1819 1.024 52.4379 0.895998C52.6939 0.767999 52.8699 0.704 52.9659 0.704C53.6699 0.704 54.2139 0.855999 54.5979 1.16C54.9659 1.448 55.1899 1.928 55.2699 2.6V3.584ZM70.4762 12.512C70.3482 12.416 70.1402 12.304 69.8522 12.176C69.5642 12.032 69.2602 11.904 68.9402 11.792C68.6202 11.664 68.3082 11.552 68.0042 11.456C67.7002 11.36 67.4682 11.296 67.3082 11.264C67.4042 11.056 67.5082 10.816 67.6202 10.544C67.7482 10.272 67.8762 10 68.0042 9.728C68.1322 9.44 68.2602 9.168 68.3882 8.912C68.5322 8.656 68.6682 8.448 68.7962 8.288C69.1802 7.776 69.6202 7.376 70.1162 7.088C70.6282 6.784 71.2522 6.648 71.9882 6.68C72.3242 6.68 72.7322 6.744 73.2122 6.872C73.6922 6.984 74.1882 7.112 74.7002 7.256C75.2122 7.384 75.7082 7.504 76.1882 7.616C76.6682 7.728 77.0762 7.784 77.4122 7.784C77.5882 7.752 77.7002 7.752 77.7482 7.784C77.7962 7.816 77.8202 7.92 77.8202 8.096V16.496C77.8202 16.752 77.8522 16.984 77.9162 17.192C77.9962 17.384 78.1562 17.56 78.3962 17.72C78.4762 17.816 78.4762 17.904 78.3962 17.984C78.2842 18.096 78.1802 18.24 78.0842 18.416C77.9882 18.592 77.8922 18.768 77.7962 18.944C77.7002 19.12 77.5962 19.288 77.4842 19.448C77.3722 19.608 77.2442 19.736 77.1002 19.832C76.7322 20.056 76.3642 20.056 75.9962 19.832C75.7082 19.656 75.4762 19.448 75.3002 19.208C75.1402 18.952 74.9402 18.712 74.7002 18.488C74.6362 18.392 74.6362 18.304 74.7002 18.224C74.9402 18.064 75.0922 17.888 75.1562 17.696C75.2362 17.488 75.2762 17.248 75.2762 16.976V10.016C75.0202 9.984 74.7322 9.912 74.4122 9.8C74.1082 9.688 73.7882 9.568 73.4522 9.44C73.1162 9.312 72.7722 9.184 72.4202 9.056C72.0842 8.912 71.7482 8.792 71.4122 8.696C71.1082 8.6 70.8602 8.552 70.6682 8.552C70.4762 8.536 70.3082 8.576 70.1642 8.672C70.0202 8.752 69.8842 8.872 69.7562 9.032C69.6442 9.192 69.5242 9.392 69.3962 9.632C69.6682 9.696 69.9562 9.8 70.2602 9.944C70.5802 10.072 70.8842 10.208 71.1722 10.352C71.4602 10.48 71.7082 10.608 71.9162 10.736C72.1402 10.864 72.2922 10.968 72.3722 11.048C72.4682 11.144 72.4602 11.248 72.3482 11.36C72.0122 11.68 71.7242 11.968 71.4842 12.224C71.2602 12.464 71.1162 12.816 71.0522 13.28V14.504V16.496C71.0522 16.752 71.0842 16.984 71.1482 17.192C71.2282 17.384 71.3882 17.56 71.6282 17.72C71.7082 17.8 71.7162 17.888 71.6522 17.984C71.5242 18.096 71.4122 18.24 71.3162 18.416C71.2202 18.592 71.1242 18.768 71.0282 18.944C70.9322 19.12 70.8282 19.288 70.7162 19.448C70.6042 19.608 70.4762 19.736 70.3322 19.832C69.9802 20.056 69.6202 20.056 69.2522 19.832C68.9642 19.656 68.7322 19.448 68.5562 19.208C68.3962 18.952 68.1882 18.712 67.9322 18.488C67.8842 18.376 67.8842 18.288 67.9322 18.224C68.1722 18.064 68.3322 17.888 68.4122 17.696C68.4922 17.488 68.5322 17.248 68.5322 16.976V14.96C68.5322 14.64 68.5882 14.36 68.7002 14.12C68.8122 13.88 68.9562 13.664 69.1322 13.472C69.3242 13.28 69.5322 13.104 69.7562 12.944C69.9962 12.784 70.2362 12.64 70.4762 12.512ZM83.1731 9.872C83.2371 9.888 83.2531 9.936 83.2211 10.016C83.1891 10.08 83.1411 10.152 83.0771 10.232C83.0291 10.312 82.9651 10.392 82.8851 10.472C82.8211 10.552 82.7731 10.608 82.7411 10.64C82.5491 10.8 82.3091 10.92 82.0211 11C81.7331 11.064 81.4451 11.064 81.1571 11C80.8691 10.936 80.6051 10.784 80.3651 10.544C80.1251 10.304 79.9571 9.952 79.8611 9.488C80.5331 8.448 81.2451 7.712 81.9971 7.28C82.7651 6.848 83.5091 6.648 84.2291 6.68C84.5651 6.68 84.8851 6.744 85.1891 6.872C85.5091 6.984 85.8211 7.112 86.1251 7.256C86.4451 7.384 86.7571 7.504 87.0611 7.616C87.3811 7.728 87.7091 7.784 88.0451 7.784C88.2211 7.752 88.3331 7.752 88.3811 7.784C88.4291 7.816 88.4531 7.92 88.4531 8.096V16.496C88.4531 16.752 88.4851 16.984 88.5491 17.192C88.6291 17.384 88.7891 17.56 89.0291 17.72C89.0931 17.8 89.0931 17.888 89.0291 17.984C88.9011 18.096 88.7891 18.24 88.6931 18.416C88.5971 18.592 88.5011 18.768 88.4051 18.944C88.3091 19.12 88.2051 19.288 88.0931 19.448C87.9971 19.608 87.8771 19.736 87.7331 19.832C87.3491 20.04 86.9811 20.04 86.6291 19.832C86.3411 19.656 86.1091 19.448 85.9331 19.208C85.7731 18.952 85.5731 18.712 85.3331 18.488C85.2531 18.392 85.2531 18.304 85.3331 18.224C85.5731 18.064 85.7251 17.888 85.7891 17.696C85.8691 17.488 85.9091 17.248 85.9091 16.976V9.896C85.7331 9.864 85.5411 9.784 85.3331 9.656C85.1411 9.512 84.9091 9.368 84.6371 9.224C84.3811 9.064 84.0771 8.912 83.7251 8.768C83.3891 8.624 82.9971 8.528 82.5491 8.48C82.1491 8.432 81.9011 8.472 81.8051 8.6C81.7091 8.728 81.7091 8.88 81.8051 9.056C81.9011 9.216 82.0771 9.384 82.3331 9.56C82.5891 9.72 82.8691 9.824 83.1731 9.872ZM95.9794 15.488V13.16C95.5954 13.016 95.1794 12.864 94.7314 12.704C94.2834 12.528 93.8194 12.36 93.3394 12.2C92.8594 12.04 92.3874 11.904 91.9234 11.792C91.4594 11.664 91.0194 11.592 90.6034 11.576C90.5234 11.56 90.4354 11.504 90.3394 11.408C90.2594 11.296 90.2834 11.104 90.4114 10.832C90.6354 10.336 90.8754 9.84 91.1314 9.344C91.3874 8.832 91.6834 8.376 92.0194 7.976C92.3714 7.576 92.7714 7.256 93.2194 7.016C93.6834 6.76 94.2194 6.648 94.8274 6.68C95.1634 6.696 95.4594 6.744 95.7154 6.824C95.9714 6.888 96.2114 6.968 96.4354 7.064C96.6594 7.16 96.8914 7.272 97.1314 7.4C97.3714 7.512 97.6354 7.624 97.9234 7.736C98.0354 7.768 98.1234 7.768 98.1874 7.736C98.2674 7.704 98.3074 7.648 98.3074 7.568C98.3074 7.488 98.2594 7.4 98.1634 7.304C98.0674 7.208 97.9074 7.112 97.6834 7.016C97.7154 6.888 97.7634 6.744 97.8274 6.584C97.8914 6.424 97.9634 6.28 98.0434 6.152C98.1394 6.008 98.2514 5.904 98.3794 5.84C98.5234 5.76 98.6834 5.744 98.8594 5.792C99.1634 5.888 99.3554 6.064 99.4354 6.32C99.5314 6.56 99.5474 6.832 99.4834 7.136C99.4194 7.44 99.2994 7.76 99.1234 8.096C98.9474 8.432 98.7474 8.736 98.5234 9.008C98.2994 9.28 98.0594 9.504 97.8034 9.68C97.5634 9.856 97.3474 9.936 97.1554 9.92C96.7714 9.872 96.3634 9.736 95.9314 9.512C95.4994 9.288 95.0754 9.096 94.6594 8.936C94.2594 8.76 93.8754 8.672 93.5074 8.672C93.1394 8.672 92.8194 8.872 92.5474 9.272C92.4834 9.32 92.4034 9.44 92.3074 9.632C92.2274 9.808 92.1714 9.936 92.1394 10.016C92.3634 10.032 92.6594 10.096 93.0274 10.208C93.4114 10.304 93.8194 10.424 94.2514 10.568C94.6834 10.712 95.1154 10.864 95.5474 11.024C95.9954 11.184 96.3954 11.328 96.7474 11.456C97.3074 11.584 97.7634 11.648 98.1154 11.648C98.2914 11.616 98.4034 11.616 98.4514 11.648C98.4994 11.68 98.5234 11.784 98.5234 11.96V15.824C98.5234 15.952 98.5234 16.096 98.5234 16.256C98.5234 16.416 98.5314 16.568 98.5474 16.712C98.5794 16.856 98.6274 16.984 98.6914 17.096C98.7714 17.192 98.8914 17.248 99.0514 17.264C99.0994 17.296 99.1234 17.336 99.1234 17.384C99.1234 17.432 99.0994 17.472 99.0514 17.504C98.9074 17.616 98.7554 17.808 98.5954 18.08C98.4354 18.352 98.2514 18.632 98.0434 18.92C97.8514 19.192 97.6354 19.44 97.3954 19.664C97.1554 19.872 96.8754 19.984 96.5554 20C96.3314 20.016 96.1154 19.944 95.9074 19.784C95.6994 19.624 95.4994 19.416 95.3074 19.16C95.1154 18.904 94.9314 18.632 94.7554 18.344C94.5794 18.04 94.4114 17.76 94.2514 17.504C94.2194 17.44 94.2194 17.384 94.2514 17.336C94.2994 17.288 94.3714 17.28 94.4674 17.312C94.8834 17.44 95.2354 17.368 95.5234 17.096C95.8114 16.808 95.9634 16.272 95.9794 15.488Z" fill="white"/>
</svg>
