<svg width="196" height="30" viewBox="0 0 196 30" fill="none" xmlns="http://www.w3.org/2000/svg">
<g filter="url(#filter0_d_22_1309)">
<path d="M8.728 9.936C8.488 10.112 8.328 10.296 8.248 10.488C8.184 10.68 8.152 10.912 8.152 11.184V16.488C8.168 17.272 8.32 17.808 8.608 18.096C8.896 18.368 9.256 18.44 9.688 18.312C9.768 18.28 9.832 18.288 9.88 18.336C9.928 18.384 9.928 18.44 9.88 18.504C9.72 18.76 9.552 19.04 9.376 19.344C9.2 19.632 9.016 19.904 8.824 20.16C8.632 20.416 8.432 20.624 8.224 20.784C8.016 20.944 7.8 21.016 7.576 21C7.272 20.984 6.992 20.872 6.736 20.664C6.496 20.44 6.272 20.192 6.064 19.92C5.872 19.632 5.696 19.352 5.536 19.08C5.376 18.808 5.224 18.616 5.08 18.504C5.032 18.472 5.008 18.432 5.008 18.384C5.024 18.336 5.048 18.296 5.08 18.264C5.24 18.248 5.352 18.192 5.416 18.096C5.496 17.984 5.544 17.856 5.56 17.712C5.592 17.568 5.608 17.416 5.608 17.256C5.608 17.096 5.608 16.952 5.608 16.824V10.68C5.608 10.424 5.568 10.2 5.488 10.008C5.424 9.8 5.272 9.616 5.032 9.456C4.968 9.376 4.968 9.288 5.032 9.192C5.288 8.968 5.496 8.736 5.656 8.496C5.832 8.24 6.064 8.024 6.352 7.848C6.72 7.608 7.08 7.608 7.432 7.848C7.576 7.928 7.704 8.048 7.816 8.208C7.928 8.368 8.032 8.544 8.128 8.736C8.224 8.912 8.32 9.088 8.416 9.264C8.512 9.44 8.616 9.584 8.728 9.696C8.824 9.792 8.824 9.872 8.728 9.936ZM20.4483 15.12C20.3043 15.536 20.0963 16.08 19.8243 16.752C19.5523 17.408 19.2243 18.056 18.8403 18.696C18.4723 19.32 18.0483 19.864 17.5683 20.328C17.0883 20.776 16.5683 21 16.0083 21C15.3523 21.016 14.7603 20.896 14.2323 20.64C13.7203 20.368 13.2883 20.04 12.9363 19.656C12.5843 19.272 12.3203 18.88 12.1443 18.48C11.9683 18.08 11.8883 17.752 11.9043 17.496C11.9523 17.128 12.0643 16.776 12.2402 16.44C12.4163 16.104 12.6243 15.784 12.8643 15.48C13.1043 15.16 13.3443 14.848 13.5843 14.544C13.8403 14.224 14.0643 13.912 14.2563 13.608C14.4803 13.224 14.5843 12.8 14.5683 12.336C14.5523 11.856 14.4723 11.424 14.3283 11.04C14.1843 10.64 14.0003 10.336 13.7763 10.128C13.5523 9.92 13.3443 9.896 13.1523 10.056C13.0403 10.152 13.0003 10.28 13.0323 10.44C13.0643 10.584 13.1203 10.736 13.2003 10.896C13.2803 11.04 13.3763 11.168 13.4883 11.28C13.6003 11.376 13.6803 11.424 13.7283 11.424C13.8083 11.44 13.8323 11.488 13.8003 11.568C13.7523 11.68 13.6723 11.824 13.5603 12C13.4643 12.16 13.3443 12.312 13.2003 12.456C13.0723 12.6 12.9283 12.704 12.7683 12.768C12.6243 12.832 12.4803 12.832 12.3363 12.768C12.2563 12.736 12.1683 12.672 12.0723 12.576C11.9923 12.464 11.9123 12.352 11.8323 12.24C11.7523 12.128 11.6803 12.024 11.6163 11.928C11.5683 11.816 11.5443 11.752 11.5443 11.736C11.5283 11.688 11.5763 11.56 11.6883 11.352C11.8003 11.128 11.9523 10.864 12.1443 10.56C12.3523 10.256 12.5843 9.936 12.8403 9.6C13.0963 9.264 13.3523 8.952 13.6083 8.664C13.8803 8.376 14.1363 8.136 14.3763 7.944C14.6163 7.752 14.8163 7.664 14.9763 7.68C15.3283 7.696 15.6483 7.824 15.9363 8.064C16.2243 8.288 16.4723 8.568 16.6803 8.904C16.8883 9.224 17.0323 9.568 17.1123 9.936C17.2083 10.288 17.2323 10.608 17.1843 10.896C17.1683 11.168 17.0243 11.504 16.7523 11.904C16.4803 12.304 16.1763 12.72 15.8403 13.152C15.5043 13.584 15.1763 14.016 14.8563 14.448C14.5523 14.88 14.3443 15.272 14.2323 15.624C14.1523 16.024 14.2003 16.424 14.3763 16.824C14.5523 17.208 14.7923 17.552 15.0963 17.856C15.4163 18.16 15.7763 18.392 16.1763 18.552C16.5763 18.696 16.9683 18.736 17.3523 18.672C17.6723 18.608 17.8723 18.48 17.9523 18.288C18.0323 18.096 18.0483 17.856 18.0003 17.568C17.9523 17.264 17.8643 16.928 17.7363 16.56C17.6083 16.192 17.4963 15.808 17.4003 15.408C17.3203 15.008 17.2723 14.608 17.2563 14.208C17.2403 13.792 17.3203 13.392 17.4963 13.008C17.7843 12.256 18.0643 11.56 18.3363 10.92C18.6243 10.264 18.9043 9.696 19.1763 9.216C19.4483 8.736 19.7123 8.36 19.9683 8.088C20.2243 7.8 20.4643 7.64 20.6883 7.608C21.2163 7.64 21.6483 7.76 21.9843 7.968C22.3363 8.16 22.6483 8.376 22.9203 8.616C23.1923 8.856 23.4403 9.096 23.6643 9.336C23.9043 9.56 24.1763 9.728 24.4803 9.84C24.5603 9.856 24.6083 9.904 24.6243 9.984C24.6403 10.064 24.6243 10.136 24.5763 10.2C24.3523 10.328 24.2403 10.528 24.2403 10.8V17.976C24.2403 18.248 24.2723 18.488 24.3363 18.696C24.4163 18.888 24.5763 19.064 24.8163 19.224C24.8963 19.32 24.8963 19.408 24.8163 19.488C24.5763 19.712 24.3683 19.952 24.1923 20.208C24.0323 20.448 23.8083 20.656 23.5203 20.832C23.1523 21.056 22.7843 21.056 22.4163 20.832C22.2723 20.736 22.1443 20.608 22.0323 20.448C21.9363 20.288 21.8403 20.12 21.7443 19.944C21.6483 19.768 21.5523 19.592 21.4563 19.416C21.3603 19.24 21.2483 19.096 21.1203 18.984C21.0403 18.904 21.0403 18.816 21.1203 18.72C21.3603 18.56 21.5123 18.384 21.5763 18.192C21.6563 17.984 21.6963 17.752 21.6963 17.496V11.28C21.5203 11.184 21.3363 11.056 21.1443 10.896C20.9683 10.736 20.7923 10.6 20.6163 10.488C20.4563 10.376 20.3043 10.32 20.1603 10.32C20.0163 10.32 19.8963 10.424 19.8003 10.632C19.6083 10.888 19.5363 11.192 19.5843 11.544C19.6323 11.896 19.7203 12.272 19.8483 12.672C19.9763 13.072 20.1043 13.48 20.2323 13.896C20.3763 14.312 20.4483 14.72 20.4483 15.12ZM31.9872 16.488V14.16C31.6032 14.016 31.1872 13.864 30.7392 13.704C30.2912 13.528 29.8272 13.36 29.3472 13.2C28.8672 13.04 28.3952 12.904 27.9312 12.792C27.4672 12.664 27.0272 12.592 26.6112 12.576C26.5312 12.56 26.4432 12.504 26.3472 12.408C26.2672 12.296 26.2912 12.104 26.4192 11.832C26.6432 11.336 26.8832 10.84 27.1392 10.344C27.3952 9.832 27.6912 9.376 28.0272 8.976C28.3792 8.576 28.7792 8.256 29.2272 8.016C29.6912 7.76 30.2272 7.648 30.8352 7.68C31.1712 7.696 31.4672 7.744 31.7232 7.824C31.9792 7.888 32.2192 7.968 32.4432 8.064C32.6672 8.16 32.8992 8.272 33.1392 8.4C33.3792 8.512 33.6432 8.624 33.9312 8.736C34.0432 8.768 34.1312 8.768 34.1952 8.736C34.2752 8.704 34.3152 8.648 34.3152 8.568C34.3152 8.488 34.2672 8.4 34.1712 8.304C34.0752 8.208 33.9152 8.112 33.6912 8.016C33.7232 7.888 33.7712 7.744 33.8352 7.584C33.8992 7.424 33.9712 7.28 34.0512 7.152C34.1472 7.008 34.2592 6.904 34.3872 6.84C34.5312 6.76 34.6912 6.744 34.8672 6.792C35.1712 6.888 35.3632 7.064 35.4432 7.32C35.5392 7.56 35.5552 7.832 35.4912 8.136C35.4272 8.44 35.3072 8.76 35.1312 9.096C34.9552 9.432 34.7552 9.736 34.5312 10.008C34.3072 10.28 34.0672 10.504 33.8112 10.68C33.5712 10.856 33.3552 10.936 33.1632 10.92C32.7792 10.872 32.3712 10.736 31.9392 10.512C31.5072 10.288 31.0832 10.096 30.6672 9.936C30.2672 9.76 29.8832 9.672 29.5152 9.672C29.1472 9.672 28.8272 9.872 28.5552 10.272C28.4912 10.32 28.4112 10.44 28.3152 10.632C28.2352 10.808 28.1792 10.936 28.1472 11.016C28.3712 11.032 28.6672 11.096 29.0352 11.208C29.4192 11.304 29.8272 11.424 30.2592 11.568C30.6912 11.712 31.1232 11.864 31.5552 12.024C32.0032 12.184 32.4032 12.328 32.7552 12.456C33.3152 12.584 33.7712 12.648 34.1232 12.648C34.2992 12.616 34.4112 12.616 34.4592 12.648C34.5072 12.68 34.5312 12.784 34.5312 12.96V16.824C34.5312 16.952 34.5312 17.096 34.5312 17.256C34.5312 17.416 34.5392 17.568 34.5552 17.712C34.5872 17.856 34.6352 17.984 34.6992 18.096C34.7792 18.192 34.8992 18.248 35.0592 18.264C35.1072 18.296 35.1312 18.336 35.1312 18.384C35.1312 18.432 35.1072 18.472 35.0592 18.504C34.9152 18.616 34.7632 18.808 34.6032 19.08C34.4432 19.352 34.2592 19.632 34.0512 19.92C33.8592 20.192 33.6432 20.44 33.4032 20.664C33.1632 20.872 32.8832 20.984 32.5632 21C32.3392 21.016 32.1232 20.944 31.9152 20.784C31.7072 20.624 31.5072 20.416 31.3152 20.16C31.1232 19.904 30.9392 19.632 30.7632 19.344C30.5872 19.04 30.4192 18.76 30.2592 18.504C30.2272 18.44 30.2272 18.384 30.2592 18.336C30.3072 18.288 30.3792 18.28 30.4752 18.312C30.8912 18.44 31.2432 18.368 31.5312 18.096C31.8192 17.808 31.9712 17.272 31.9872 16.488ZM40.6849 10.872C40.7489 10.888 40.7649 10.936 40.7329 11.016C40.7009 11.08 40.6529 11.152 40.5889 11.232C40.5409 11.312 40.4769 11.392 40.3969 11.472C40.3329 11.552 40.2849 11.608 40.2529 11.64C40.0609 11.8 39.8209 11.92 39.5329 12C39.2449 12.064 38.9569 12.064 38.6689 12C38.3809 11.92 38.1169 11.76 37.8769 11.52C37.6369 11.28 37.4689 10.928 37.3729 10.464C38.0449 9.424 38.7569 8.696 39.5089 8.28C40.2769 7.848 41.0209 7.648 41.7409 7.68C42.0769 7.68 42.5169 7.744 43.0609 7.872C43.6049 7.984 44.1729 8.112 44.7649 8.256C45.3569 8.384 45.9249 8.504 46.4689 8.616C47.0129 8.728 47.4529 8.784 47.7889 8.784C47.9649 8.752 48.0769 8.752 48.1249 8.784C48.1729 8.816 48.1969 8.92 48.1969 9.096V17.496C48.1969 17.752 48.2289 17.984 48.2929 18.192C48.3729 18.384 48.5329 18.56 48.7729 18.72C48.8369 18.8 48.8369 18.888 48.7729 18.984C48.6449 19.096 48.5329 19.24 48.4369 19.416C48.3409 19.592 48.2449 19.768 48.1489 19.944C48.0529 20.12 47.9489 20.288 47.8369 20.448C47.7409 20.608 47.6209 20.736 47.4769 20.832C47.0929 21.04 46.7249 21.04 46.3729 20.832C46.0849 20.656 45.8529 20.448 45.6769 20.208C45.5169 19.952 45.3169 19.712 45.0769 19.488C44.9969 19.392 44.9969 19.304 45.0769 19.224C45.2689 19.096 45.4049 18.952 45.4849 18.792C45.5649 18.632 45.6129 18.456 45.6289 18.264C45.5969 17.96 45.4609 17.648 45.2209 17.328C44.9969 17.008 44.7089 16.688 44.3569 16.368C44.0209 16.048 43.6449 15.752 43.2289 15.48C42.8289 15.192 42.4369 14.944 42.0529 14.736C41.6849 14.528 41.3489 14.368 41.0449 14.256C40.7409 14.128 40.5249 14.072 40.3969 14.088C40.0609 14.264 39.8529 14.584 39.7729 15.048C39.7089 15.512 39.7249 16.008 39.8209 16.536C39.9329 17.048 40.1009 17.544 40.3249 18.024C40.5649 18.488 40.8049 18.824 41.0449 19.032C41.3329 19.272 41.5409 19.376 41.6689 19.344C41.7969 19.296 41.8609 19.192 41.8609 19.032C41.8769 18.872 41.8289 18.704 41.7169 18.528C41.6209 18.336 41.4849 18.208 41.3089 18.144C41.2289 18.144 41.1729 18.112 41.1409 18.048C41.1249 17.984 41.1329 17.92 41.1649 17.856C41.2129 17.76 41.3009 17.632 41.4289 17.472C41.5729 17.312 41.7249 17.16 41.8849 17.016C42.0449 16.872 42.2049 16.744 42.3649 16.632C42.5249 16.504 42.6609 16.432 42.7729 16.416C43.3649 16.912 43.6049 17.416 43.4929 17.928C43.3969 18.424 43.1089 18.928 42.6289 19.44C42.4849 19.584 42.3249 19.744 42.1489 19.92C41.9729 20.096 41.7889 20.264 41.5969 20.424C41.4209 20.568 41.2369 20.696 41.0449 20.808C40.8689 20.904 40.7009 20.96 40.5409 20.976C40.0929 21.024 39.6849 20.928 39.3169 20.688C38.9489 20.448 38.6369 20.144 38.3809 19.776C38.1249 19.392 37.9249 18.968 37.7809 18.504C37.6529 18.04 37.6049 17.608 37.6369 17.208C37.9889 16.072 38.4609 15.088 39.0529 14.256C39.6449 13.424 40.4129 12.792 41.3569 12.36C41.5649 12.328 41.8449 12.368 42.1969 12.48C42.5489 12.576 42.9249 12.72 43.3249 12.912C43.7409 13.104 44.1569 13.328 44.5729 13.584C44.9889 13.84 45.3489 14.104 45.6529 14.376V11.016C45.3969 10.984 45.0769 10.912 44.6929 10.8C44.3089 10.688 43.9089 10.568 43.4929 10.44C43.0929 10.312 42.6849 10.184 42.2689 10.056C41.8689 9.912 41.5009 9.792 41.1649 9.696C40.6689 9.552 40.2769 9.48 39.9889 9.48C39.7009 9.464 39.4929 9.496 39.3649 9.576C39.2529 9.656 39.2129 9.76 39.2449 9.888C39.2769 10.016 39.3569 10.152 39.4849 10.296C39.6289 10.424 39.8049 10.544 40.0129 10.656C40.2209 10.768 40.4449 10.84 40.6849 10.872ZM54.5483 9.936C54.3083 10.112 54.1483 10.296 54.0683 10.488C54.0043 10.68 53.9723 10.912 53.9723 11.184V16.488C53.9883 17.272 54.1403 17.808 54.4283 18.096C54.7163 18.368 55.0763 18.44 55.5083 18.312C55.5883 18.28 55.6523 18.288 55.7003 18.336C55.7483 18.384 55.7483 18.44 55.7003 18.504C55.5403 18.76 55.3723 19.04 55.1963 19.344C55.0203 19.632 54.8363 19.904 54.6443 20.16C54.4523 20.416 54.2523 20.624 54.0443 20.784C53.8363 20.944 53.6203 21.016 53.3963 21C53.0923 20.984 52.8123 20.872 52.5563 20.664C52.3163 20.44 52.0923 20.192 51.8843 19.92C51.6923 19.632 51.5163 19.352 51.3563 19.08C51.1963 18.808 51.0443 18.616 50.9003 18.504C50.8523 18.472 50.8283 18.432 50.8283 18.384C50.8443 18.336 50.8683 18.296 50.9003 18.264C51.0603 18.248 51.1723 18.192 51.2363 18.096C51.3163 17.984 51.3643 17.856 51.3803 17.712C51.4123 17.568 51.4283 17.416 51.4283 17.256C51.4283 17.096 51.4283 16.952 51.4283 16.824V10.68C51.4283 10.424 51.3883 10.2 51.3083 10.008C51.2443 9.8 51.0923 9.616 50.8523 9.456C50.7883 9.376 50.7883 9.288 50.8523 9.192C51.1083 8.968 51.3163 8.736 51.4763 8.496C51.6523 8.24 51.8843 8.024 52.1723 7.848C52.5403 7.608 52.9003 7.608 53.2523 7.848C53.3963 7.928 53.5243 8.048 53.6363 8.208C53.7483 8.368 53.8523 8.544 53.9483 8.736C54.0443 8.912 54.1403 9.088 54.2363 9.264C54.3323 9.44 54.4363 9.584 54.5483 9.696C54.6443 9.792 54.6443 9.872 54.5483 9.936ZM59.9506 10.872C60.0146 10.888 60.0306 10.936 59.9986 11.016C59.9666 11.08 59.9186 11.152 59.8546 11.232C59.8066 11.312 59.7426 11.392 59.6626 11.472C59.5986 11.552 59.5506 11.608 59.5186 11.64C59.3266 11.8 59.0866 11.92 58.7986 12C58.5106 12.064 58.2226 12.064 57.9346 12C57.6466 11.92 57.3826 11.76 57.1426 11.52C56.9026 11.28 56.7346 10.928 56.6386 10.464C57.3106 9.424 58.0226 8.696 58.7746 8.28C59.5426 7.848 60.2866 7.648 61.0066 7.68C61.3426 7.68 61.7826 7.744 62.3266 7.872C62.8706 7.984 63.4386 8.112 64.0306 8.256C64.6226 8.384 65.1906 8.504 65.7346 8.616C66.2786 8.728 66.7186 8.784 67.0546 8.784C67.2306 8.752 67.3426 8.752 67.3906 8.784C67.4386 8.816 67.4626 8.92 67.4626 9.096V17.496C67.4626 17.752 67.4946 17.984 67.5586 18.192C67.6386 18.384 67.7986 18.56 68.0386 18.72C68.1026 18.8 68.1026 18.888 68.0386 18.984C67.9106 19.096 67.7986 19.24 67.7026 19.416C67.6066 19.592 67.5106 19.768 67.4146 19.944C67.3186 20.12 67.2146 20.288 67.1026 20.448C67.0066 20.608 66.8866 20.736 66.7426 20.832C66.3586 21.04 65.9906 21.04 65.6386 20.832C65.3506 20.656 65.1186 20.448 64.9426 20.208C64.7826 19.952 64.5826 19.712 64.3426 19.488C64.2626 19.392 64.2626 19.304 64.3426 19.224C64.5346 19.096 64.6706 18.952 64.7506 18.792C64.8306 18.632 64.8786 18.456 64.8946 18.264C64.8626 17.96 64.7266 17.648 64.4866 17.328C64.2626 17.008 63.9746 16.688 63.6226 16.368C63.2866 16.048 62.9106 15.752 62.4946 15.48C62.0946 15.192 61.7026 14.944 61.3186 14.736C60.9506 14.528 60.6146 14.368 60.3106 14.256C60.0066 14.128 59.7906 14.072 59.6626 14.088C59.3266 14.264 59.1186 14.584 59.0386 15.048C58.9746 15.512 58.9906 16.008 59.0866 16.536C59.1986 17.048 59.3666 17.544 59.5906 18.024C59.8306 18.488 60.0706 18.824 60.3106 19.032C60.5986 19.272 60.8066 19.376 60.9346 19.344C61.0626 19.296 61.1266 19.192 61.1266 19.032C61.1426 18.872 61.0946 18.704 60.9826 18.528C60.8866 18.336 60.7506 18.208 60.5746 18.144C60.4946 18.144 60.4386 18.112 60.4066 18.048C60.3906 17.984 60.3986 17.92 60.4306 17.856C60.4786 17.76 60.5666 17.632 60.6946 17.472C60.8386 17.312 60.9906 17.16 61.1506 17.016C61.3106 16.872 61.4706 16.744 61.6306 16.632C61.7906 16.504 61.9266 16.432 62.0386 16.416C62.6306 16.912 62.8706 17.416 62.7586 17.928C62.6626 18.424 62.3746 18.928 61.8946 19.44C61.7506 19.584 61.5906 19.744 61.4146 19.92C61.2386 20.096 61.0546 20.264 60.8626 20.424C60.6866 20.568 60.5026 20.696 60.3106 20.808C60.1346 20.904 59.9666 20.96 59.8066 20.976C59.3586 21.024 58.9506 20.928 58.5826 20.688C58.2146 20.448 57.9026 20.144 57.6466 19.776C57.3906 19.392 57.1906 18.968 57.0466 18.504C56.9186 18.04 56.8706 17.608 56.9026 17.208C57.2546 16.072 57.7266 15.088 58.3186 14.256C58.9106 13.424 59.6786 12.792 60.6226 12.36C60.8306 12.328 61.1106 12.368 61.4626 12.48C61.8146 12.576 62.1906 12.72 62.5906 12.912C63.0066 13.104 63.4226 13.328 63.8386 13.584C64.2546 13.84 64.6146 14.104 64.9186 14.376V11.016C64.6626 10.984 64.3426 10.912 63.9586 10.8C63.5746 10.688 63.1746 10.568 62.7586 10.44C62.3586 10.312 61.9506 10.184 61.5346 10.056C61.1346 9.912 60.7666 9.792 60.4306 9.696C59.9346 9.552 59.5426 9.48 59.2546 9.48C58.9666 9.464 58.7586 9.496 58.6306 9.576C58.5186 9.656 58.4786 9.76 58.5106 9.888C58.5426 10.016 58.6226 10.152 58.7506 10.296C58.8946 10.424 59.0706 10.544 59.2786 10.656C59.4866 10.768 59.7106 10.84 59.9506 10.872ZM64.6939 3.072C64.6299 3.008 64.6299 2.928 64.6939 2.832C64.9179 2.624 65.1739 2.4 65.4619 2.16C65.7499 1.904 66.0539 1.768 66.3739 1.752C66.7419 1.736 67.0379 1.888 67.2619 2.208C67.4859 2.512 67.5979 2.856 67.5979 3.24V3.912V4.056V4.728C67.5979 5.112 67.4859 5.464 67.2619 5.784C67.0379 6.088 66.7419 6.232 66.3739 6.216C66.0539 6.2 65.7499 6.064 65.4619 5.808C65.1739 5.552 64.9179 5.328 64.6939 5.136C64.6299 5.04 64.6299 4.952 64.6939 4.872C64.9179 4.728 65.0379 4.592 65.0539 4.464C65.0539 4.32 65.0539 4.128 65.0539 3.888C65.0539 3.648 65.0379 3.488 65.0059 3.408C64.9739 3.312 64.8699 3.2 64.6939 3.072ZM74.5819 14.52C74.3899 14.36 74.1979 14.368 74.0059 14.544C73.8139 14.72 73.6299 14.96 73.4539 15.264C73.2939 15.552 73.1579 15.864 73.0459 16.2C72.9499 16.52 72.9019 16.752 72.9019 16.896C72.9339 17.232 73.0619 17.544 73.2859 17.832C73.5259 18.104 73.8059 18.344 74.1259 18.552C74.4459 18.76 74.7899 18.92 75.1579 19.032C75.5419 19.144 75.8859 19.208 76.1899 19.224C76.5579 19.256 76.9259 19.248 77.2939 19.2C77.6619 19.152 77.9819 19.04 78.2539 18.864V11.016C77.9979 10.984 77.6779 10.912 77.2939 10.8C76.9099 10.688 76.5099 10.568 76.0939 10.44C75.6939 10.312 75.2859 10.184 74.8699 10.056C74.4699 9.912 74.1019 9.792 73.7659 9.696C73.2699 9.552 72.8779 9.48 72.5899 9.48C72.3019 9.464 72.0939 9.496 71.9659 9.576C71.8539 9.656 71.8139 9.76 71.8459 9.888C71.8779 10.016 71.9579 10.152 72.0859 10.296C72.2299 10.424 72.4059 10.544 72.6139 10.656C72.8219 10.768 73.0459 10.84 73.2859 10.872C73.3499 10.888 73.3659 10.936 73.3339 11.016C73.3019 11.08 73.2539 11.152 73.1899 11.232C73.1419 11.312 73.0779 11.392 72.9979 11.472C72.9339 11.552 72.8859 11.608 72.8539 11.64C72.6619 11.8 72.4219 11.92 72.1339 12C71.8459 12.064 71.5579 12.064 71.2699 12C70.9819 11.92 70.7179 11.76 70.4779 11.52C70.2379 11.28 70.0699 10.928 69.9739 10.464C70.6459 9.424 71.3579 8.696 72.1099 8.28C72.8779 7.848 73.6219 7.648 74.3419 7.68C74.6779 7.68 75.1179 7.744 75.6619 7.872C76.2059 7.984 76.7739 8.112 77.3659 8.256C77.9579 8.384 78.5259 8.504 79.0699 8.616C79.6139 8.728 80.0539 8.784 80.3899 8.784C80.5659 8.752 80.6779 8.752 80.7259 8.784C80.7739 8.816 80.7979 8.92 80.7979 9.096V19.584C80.7979 19.76 80.7739 19.864 80.7259 19.896C80.6779 19.928 80.5659 19.928 80.3899 19.896C80.0539 19.896 79.6219 19.952 79.0939 20.064C78.5659 20.176 78.0219 20.304 77.4619 20.448C76.9019 20.576 76.3579 20.704 75.8299 20.832C75.3019 20.944 74.8699 21 74.5339 21C74.0059 21.016 73.5259 20.936 73.0939 20.76C72.6619 20.584 72.2779 20.368 71.9419 20.112C71.6059 19.84 71.3179 19.544 71.0779 19.224C70.8539 18.888 70.6859 18.576 70.5739 18.288C70.4299 17.904 70.3819 17.544 70.4299 17.208C70.4619 16.904 70.5739 16.504 70.7659 16.008C70.9739 15.496 71.2219 15 71.5099 14.52C71.7979 14.04 72.1179 13.632 72.4699 13.296C72.8219 12.944 73.1659 12.784 73.5019 12.816C73.6459 12.832 73.8059 12.896 73.9819 13.008C74.1579 13.104 74.3259 13.224 74.4859 13.368C74.6619 13.512 74.8299 13.672 74.9899 13.848C75.1659 14.008 75.3259 14.168 75.4699 14.328C75.7099 14.584 75.9019 14.84 76.0459 15.096C76.2059 15.336 76.3019 15.584 76.3339 15.84C76.3659 16.096 76.3259 16.352 76.2139 16.608C76.1019 16.848 75.9019 17.096 75.6139 17.352C75.5019 17.32 75.3579 17.248 75.1819 17.136C75.0219 17.024 74.8619 16.896 74.7019 16.752C74.5579 16.608 74.4139 16.456 74.2699 16.296C74.1419 16.136 74.0539 16.008 74.0059 15.912C73.9739 15.832 73.9659 15.768 73.9819 15.72C74.0139 15.656 74.0699 15.624 74.1499 15.624C74.3899 15.448 74.5499 15.256 74.6299 15.048C74.7259 14.84 74.7099 14.664 74.5819 14.52ZM88.12 16.488V14.16C87.736 14.016 87.32 13.864 86.872 13.704C86.424 13.528 85.96 13.36 85.48 13.2C85 13.04 84.528 12.904 84.064 12.792C83.6 12.664 83.16 12.592 82.744 12.576C82.664 12.56 82.576 12.504 82.48 12.408C82.4 12.296 82.424 12.104 82.552 11.832C82.776 11.336 83.016 10.84 83.272 10.344C83.528 9.832 83.824 9.376 84.16 8.976C84.512 8.576 84.912 8.256 85.36 8.016C85.824 7.76 86.36 7.648 86.968 7.68C87.304 7.696 87.6 7.744 87.856 7.824C88.112 7.888 88.352 7.968 88.576 8.064C88.8 8.16 89.032 8.272 89.272 8.4C89.512 8.512 89.776 8.624 90.064 8.736C90.176 8.768 90.264 8.768 90.328 8.736C90.408 8.704 90.448 8.648 90.448 8.568C90.448 8.488 90.4 8.4 90.304 8.304C90.208 8.208 90.048 8.112 89.824 8.016C89.856 7.888 89.904 7.744 89.968 7.584C90.032 7.424 90.104 7.28 90.184 7.152C90.28 7.008 90.392 6.904 90.52 6.84C90.664 6.76 90.824 6.744 91 6.792C91.304 6.888 91.496 7.064 91.576 7.32C91.672 7.56 91.688 7.832 91.624 8.136C91.56 8.44 91.44 8.76 91.264 9.096C91.088 9.432 90.888 9.736 90.664 10.008C90.44 10.28 90.2 10.504 89.944 10.68C89.704 10.856 89.488 10.936 89.296 10.92C88.912 10.872 88.504 10.736 88.072 10.512C87.64 10.288 87.216 10.096 86.8 9.936C86.4 9.76 86.016 9.672 85.648 9.672C85.28 9.672 84.96 9.872 84.688 10.272C84.624 10.32 84.544 10.44 84.448 10.632C84.368 10.808 84.312 10.936 84.28 11.016C84.504 11.032 84.8 11.096 85.168 11.208C85.552 11.304 85.96 11.424 86.392 11.568C86.824 11.712 87.256 11.864 87.688 12.024C88.136 12.184 88.536 12.328 88.888 12.456C89.448 12.584 89.904 12.648 90.256 12.648C90.432 12.616 90.544 12.616 90.592 12.648C90.64 12.68 90.664 12.784 90.664 12.96V16.824C90.664 16.952 90.664 17.096 90.664 17.256C90.664 17.416 90.672 17.568 90.688 17.712C90.72 17.856 90.768 17.984 90.832 18.096C90.912 18.192 91.032 18.248 91.192 18.264C91.24 18.296 91.264 18.336 91.264 18.384C91.264 18.432 91.24 18.472 91.192 18.504C91.048 18.616 90.896 18.808 90.736 19.08C90.576 19.352 90.392 19.632 90.184 19.92C89.992 20.192 89.776 20.44 89.536 20.664C89.296 20.872 89.016 20.984 88.696 21C88.472 21.016 88.256 20.944 88.048 20.784C87.84 20.624 87.64 20.416 87.448 20.16C87.256 19.904 87.072 19.632 86.896 19.344C86.72 19.04 86.552 18.76 86.392 18.504C86.36 18.44 86.36 18.384 86.392 18.336C86.44 18.288 86.512 18.28 86.608 18.312C87.024 18.44 87.376 18.368 87.664 18.096C87.952 17.808 88.104 17.272 88.12 16.488ZM88.6097 4.728C88.4977 4.744 88.4177 4.712 88.3697 4.632C88.3217 4.536 88.3217 4.464 88.3697 4.416C88.5137 4.272 88.6737 4.136 88.8497 4.008C89.0097 3.88 89.1857 3.832 89.3777 3.864C89.5537 3.896 89.7137 4.008 89.8577 4.2C90.0017 4.392 90.0737 4.576 90.0737 4.752C90.0417 4.944 89.9617 5.128 89.8337 5.304C89.6897 5.464 89.5297 5.608 89.3537 5.736C89.1777 5.864 88.9937 5.968 88.8017 6.048C88.5937 6.128 88.4097 6.176 88.2497 6.192C87.9937 6.192 87.7217 6.152 87.4337 6.072C87.1457 5.976 86.8737 5.848 86.6177 5.688C86.3617 5.512 86.1537 5.304 85.9937 5.064C85.8337 4.808 85.7617 4.504 85.7777 4.152C85.8737 3.736 86.0737 3.432 86.3777 3.24C86.6817 3.032 87.0017 2.88 87.3377 2.784C87.6737 2.672 87.9857 2.592 88.2737 2.544C88.5617 2.48 88.7297 2.392 88.7777 2.28C88.7937 2.232 88.8017 2.176 88.8017 2.112C88.7857 2.032 88.7697 1.96 88.7537 1.896C88.7217 1.816 88.6817 1.752 88.6337 1.704C88.5857 1.656 88.5377 1.64 88.4897 1.656C88.3457 1.672 88.2497 1.648 88.2017 1.584C88.1377 1.52 88.1217 1.448 88.1537 1.368C88.1857 1.304 88.2737 1.216 88.4177 1.104C88.5617 0.975999 88.7297 0.855999 88.9217 0.743999C89.0977 0.615999 89.2817 0.511999 89.4737 0.431999C89.6497 0.335999 89.8017 0.295999 89.9297 0.311999C90.1377 0.407999 90.3217 0.575999 90.4817 0.816C90.6257 1.056 90.6897 1.28 90.6737 1.488C90.6737 1.696 90.6337 1.88 90.5537 2.04C90.4577 2.2 90.3377 2.336 90.1937 2.448C90.0497 2.56 89.8897 2.664 89.7137 2.76C89.5377 2.84 89.3537 2.92 89.1617 3C88.8577 3.128 88.5617 3.312 88.2737 3.552C87.9697 3.776 87.7937 4.024 87.7457 4.296C87.6977 4.52 87.7537 4.736 87.9137 4.944C88.0577 5.136 88.2017 5.232 88.3457 5.232C88.4577 5.232 88.5377 5.184 88.5857 5.088C88.6337 4.976 88.6417 4.856 88.6097 4.728ZM97.8018 5.712V16.488C97.8178 17.272 97.9618 17.808 98.2338 18.096C98.5218 18.368 98.8818 18.44 99.3138 18.312C99.4098 18.28 99.4738 18.288 99.5058 18.336C99.5538 18.384 99.5618 18.44 99.5298 18.504C99.3698 18.76 99.2018 19.04 99.0258 19.344C98.8498 19.632 98.6658 19.904 98.4738 20.16C98.2818 20.416 98.0818 20.624 97.8738 20.784C97.6658 20.944 97.4498 21.016 97.2258 21C96.9058 20.984 96.6178 20.872 96.3618 20.664C96.1218 20.44 95.9058 20.192 95.7138 19.92C95.5218 19.632 95.3458 19.352 95.1858 19.08C95.0258 18.808 94.8738 18.616 94.7298 18.504C94.6818 18.472 94.6578 18.432 94.6578 18.384C94.6578 18.336 94.6818 18.296 94.7298 18.264C94.8738 18.248 94.9858 18.192 95.0658 18.096C95.1458 17.984 95.1938 17.856 95.2098 17.712C95.2418 17.568 95.2578 17.416 95.2578 17.256C95.2578 17.096 95.2578 16.952 95.2578 16.824V6.912C95.1458 6.848 94.9938 6.752 94.8018 6.624C94.6258 6.48 94.4258 6.344 94.2018 6.216C93.9938 6.072 93.7778 5.952 93.5538 5.856C93.3298 5.744 93.1138 5.688 92.9058 5.688C92.8258 5.672 92.7378 5.616 92.6418 5.52C92.5618 5.408 92.5858 5.216 92.7138 4.944C92.9378 4.448 93.1698 3.952 93.4098 3.456C93.6658 2.944 93.9618 2.488 94.2978 2.088C94.6498 1.672 95.0498 1.344 95.4978 1.104C95.9458 0.863999 96.4738 0.759999 97.0818 0.791998C97.4978 0.775999 97.9858 0.871999 98.5458 1.08C99.1218 1.272 99.6738 1.464 100.202 1.656C100.73 1.848 101.194 1.992 101.594 2.088C101.994 2.184 102.226 2.128 102.29 1.92C102.322 1.84 102.29 1.744 102.194 1.632C102.114 1.52 101.946 1.416 101.69 1.32C101.722 1.192 101.77 1.048 101.834 0.887999C101.898 0.727999 101.97 0.583999 102.05 0.455998C102.146 0.311998 102.258 0.207999 102.386 0.144C102.53 0.0639997 102.69 0.0399995 102.866 0.0719991C103.122 0.151999 103.298 0.295999 103.394 0.503999C103.49 0.695999 103.522 0.919999 103.49 1.176C103.474 1.432 103.41 1.712 103.298 2.016C103.186 2.304 103.042 2.584 102.866 2.856C102.546 3.368 102.226 3.728 101.906 3.936C101.586 4.144 101.25 4.264 100.898 4.296C100.642 4.312 100.338 4.264 99.9858 4.152C99.6338 4.04 99.2578 3.904 98.8578 3.744C98.4738 3.584 98.0818 3.424 97.6818 3.264C97.2978 3.104 96.9218 2.992 96.5538 2.928C96.2018 2.848 95.8738 2.832 95.5698 2.88C95.2658 2.928 95.0258 3.088 94.8498 3.36C94.7858 3.424 94.7058 3.552 94.6098 3.744C94.5298 3.92 94.4738 4.048 94.4418 4.128C94.5698 4.128 94.7378 4.192 94.9458 4.32C95.1538 4.448 95.3938 4.592 95.6658 4.752C95.9378 4.896 96.2178 5.04 96.5058 5.184C96.8098 5.312 97.1058 5.384 97.3938 5.4C97.5698 5.368 97.6818 5.368 97.7298 5.4C97.7778 5.432 97.8018 5.536 97.8018 5.712ZM103.738 12.168C103.722 11.384 103.57 10.856 103.282 10.584C103.01 10.312 102.658 10.232 102.226 10.344C102.13 10.392 102.058 10.392 102.01 10.344C101.978 10.296 101.978 10.24 102.01 10.176C102.17 9.92 102.338 9.64 102.514 9.336C102.706 9.032 102.898 8.76 103.09 8.52C103.282 8.264 103.482 8.056 103.69 7.896C103.898 7.736 104.106 7.664 104.314 7.68C104.634 7.696 104.914 7.816 105.154 8.04C105.41 8.248 105.634 8.488 105.826 8.76C106.018 9.032 106.194 9.304 106.354 9.576C106.514 9.848 106.666 10.048 106.81 10.176C106.938 10.24 106.938 10.32 106.81 10.416C106.666 10.432 106.554 10.496 106.474 10.608C106.394 10.704 106.338 10.824 106.306 10.968C106.29 11.112 106.282 11.264 106.282 11.424C106.282 11.568 106.282 11.704 106.282 11.832V14.568C106.602 14.664 106.946 14.8 107.314 14.976C107.682 15.152 108.034 15.352 108.37 15.576C108.722 15.8 109.034 16.04 109.306 16.296C109.594 16.552 109.81 16.8 109.954 17.04V10.68C109.954 10.424 109.914 10.2 109.834 10.008C109.77 9.8 109.618 9.616 109.378 9.456C109.298 9.36 109.298 9.272 109.378 9.192C109.618 8.968 109.818 8.736 109.978 8.496C110.154 8.24 110.386 8.024 110.674 7.848C111.042 7.608 111.402 7.608 111.754 7.848C111.898 7.928 112.026 8.048 112.138 8.208C112.25 8.368 112.354 8.544 112.45 8.736C112.546 8.912 112.642 9.088 112.738 9.264C112.834 9.44 112.946 9.584 113.074 9.696C113.138 9.792 113.138 9.872 113.074 9.936C112.834 10.112 112.674 10.296 112.594 10.488C112.53 10.68 112.498 10.912 112.498 11.184V17.976C112.498 18.248 112.53 18.488 112.594 18.696C112.674 18.888 112.834 19.064 113.074 19.224C113.138 19.304 113.138 19.392 113.074 19.488C112.818 19.712 112.57 19.968 112.33 20.256C112.106 20.528 111.85 20.752 111.562 20.928C111.466 20.976 111.354 21 111.226 21C111.098 20.984 110.962 20.952 110.818 20.904C110.69 20.84 110.562 20.776 110.434 20.712C110.306 20.632 110.202 20.56 110.122 20.496C109.962 20.368 109.802 20.128 109.642 19.776C109.498 19.408 109.298 19.008 109.042 18.576C108.786 18.128 108.442 17.68 108.01 17.232C107.578 16.768 107.002 16.368 106.282 16.032V19.776C106.01 20.096 105.754 20.384 105.514 20.64C105.29 20.88 104.994 21 104.626 21C104.434 21 104.25 20.944 104.074 20.832C103.866 20.704 103.602 20.48 103.282 20.16C102.962 19.824 102.642 19.448 102.322 19.032C102.018 18.6 101.738 18.16 101.482 17.712C101.242 17.264 101.082 16.864 101.002 16.512C101.05 16.384 101.162 16.224 101.338 16.032C101.514 15.824 101.722 15.624 101.962 15.432C102.218 15.224 102.498 15.04 102.802 14.88C103.122 14.704 103.434 14.584 103.738 14.52V12.168ZM103.786 15.792C103.722 15.808 103.626 15.856 103.498 15.936C103.37 16 103.234 16.08 103.09 16.176C102.962 16.256 102.842 16.344 102.73 16.44C102.634 16.52 102.57 16.592 102.538 16.656C102.586 16.752 102.666 16.896 102.778 17.088C102.89 17.264 103.01 17.448 103.138 17.64C103.266 17.832 103.386 18.024 103.498 18.216C103.626 18.392 103.722 18.528 103.786 18.624V15.792ZM118.861 9.936C118.621 10.112 118.461 10.296 118.381 10.488C118.317 10.68 118.285 10.912 118.285 11.184V16.488C118.301 17.272 118.453 17.808 118.741 18.096C119.029 18.368 119.389 18.44 119.821 18.312C119.901 18.28 119.965 18.288 120.013 18.336C120.061 18.384 120.061 18.44 120.013 18.504C119.853 18.76 119.685 19.04 119.509 19.344C119.333 19.632 119.149 19.904 118.957 20.16C118.765 20.416 118.565 20.624 118.357 20.784C118.149 20.944 117.933 21.016 117.709 21C117.405 20.984 117.125 20.872 116.869 20.664C116.629 20.44 116.405 20.192 116.197 19.92C116.005 19.632 115.829 19.352 115.669 19.08C115.509 18.808 115.357 18.616 115.213 18.504C115.165 18.472 115.141 18.432 115.141 18.384C115.157 18.336 115.181 18.296 115.213 18.264C115.373 18.248 115.485 18.192 115.549 18.096C115.629 17.984 115.677 17.856 115.693 17.712C115.725 17.568 115.741 17.416 115.741 17.256C115.741 17.096 115.741 16.952 115.741 16.824V10.68C115.741 10.424 115.701 10.2 115.621 10.008C115.557 9.8 115.405 9.616 115.165 9.456C115.101 9.376 115.101 9.288 115.165 9.192C115.421 8.968 115.629 8.736 115.789 8.496C115.965 8.24 116.197 8.024 116.485 7.848C116.853 7.608 117.213 7.608 117.565 7.848C117.709 7.928 117.837 8.048 117.949 8.208C118.061 8.368 118.165 8.544 118.261 8.736C118.357 8.912 118.453 9.088 118.549 9.264C118.645 9.44 118.749 9.584 118.861 9.696C118.957 9.792 118.957 9.872 118.861 9.936ZM127.119 11.328C126.895 11.616 126.711 11.736 126.567 11.688C126.439 11.624 126.263 11.472 126.039 11.232C125.863 11.056 125.663 10.872 125.439 10.68C125.215 10.488 124.983 10.328 124.743 10.2C124.503 10.072 124.271 10 124.047 9.984C123.823 9.952 123.615 10.016 123.423 10.176C123.231 10.432 123.135 10.712 123.135 11.016C123.135 11.32 123.167 11.616 123.231 11.904C123.263 12.128 123.351 12.384 123.495 12.672C123.655 12.944 123.831 13.24 124.023 13.56C124.231 13.88 124.439 14.224 124.647 14.592C124.871 14.96 125.079 15.336 125.271 15.72C125.511 16.28 125.655 16.752 125.703 17.136C125.863 17.04 126.039 16.888 126.231 16.68C126.439 16.472 126.559 16.304 126.591 16.176C126.623 16.08 126.623 15.968 126.591 15.84C126.575 15.712 126.535 15.592 126.471 15.48C126.407 15.368 126.327 15.272 126.231 15.192C126.151 15.096 126.055 15.048 125.943 15.048C125.815 15.048 125.711 15.032 125.631 15C125.535 14.936 125.503 14.864 125.535 14.784C125.567 14.672 125.639 14.52 125.751 14.328C125.863 14.136 125.991 13.952 126.135 13.776C126.295 13.584 126.463 13.424 126.639 13.296C126.831 13.152 127.007 13.08 127.167 13.08C127.343 13.128 127.519 13.224 127.695 13.368C127.887 13.512 128.055 13.672 128.199 13.848C128.359 14.024 128.479 14.216 128.559 14.424C128.655 14.616 128.679 14.8 128.631 14.976C128.599 15.152 128.431 15.424 128.127 15.792C127.839 16.16 127.495 16.552 127.095 16.968C126.695 17.384 126.287 17.8 125.871 18.216C125.471 18.616 125.135 18.952 124.863 19.224C124.559 19.576 124.183 19.936 123.735 20.304C123.287 20.672 122.855 20.912 122.439 21.024C121.815 20.912 121.415 20.736 121.239 20.496C121.079 20.24 121.031 19.976 121.095 19.704C121.175 19.432 121.319 19.176 121.527 18.936C121.751 18.696 121.927 18.528 122.055 18.432C122.199 18.256 122.311 18.2 122.391 18.264C122.471 18.328 122.503 18.424 122.487 18.552C122.487 18.744 122.559 18.92 122.703 19.08C122.863 19.224 123.023 19.32 123.183 19.368C123.359 19.416 123.503 19.408 123.615 19.344C123.743 19.264 123.775 19.088 123.711 18.816C123.679 18.656 123.623 18.496 123.543 18.336C123.479 18.16 123.407 18.008 123.327 17.88C123.071 17.416 122.775 16.944 122.439 16.464C122.119 15.984 121.831 15.512 121.575 15.048C121.319 14.584 121.135 14.144 121.023 13.728C120.927 13.312 120.959 12.928 121.119 12.576C121.215 12.304 121.407 11.896 121.695 11.352C121.983 10.808 122.311 10.264 122.679 9.72C123.047 9.16 123.431 8.68 123.831 8.28C124.247 7.864 124.607 7.664 124.911 7.68C125.167 7.648 125.431 7.72 125.703 7.896C125.991 8.056 126.263 8.248 126.519 8.472C126.775 8.68 126.999 8.888 127.191 9.096C127.399 9.288 127.551 9.4 127.647 9.432C128.047 8.76 128.439 8.28 128.823 7.992C129.223 7.704 129.543 7.6 129.783 7.68C129.975 7.728 130.175 7.816 130.383 7.944C130.591 8.056 130.799 8.176 131.007 8.304C131.215 8.416 131.407 8.52 131.583 8.616C131.775 8.696 131.943 8.736 132.087 8.736C132.263 8.704 132.375 8.704 132.423 8.736C132.471 8.768 132.495 8.872 132.495 9.048V17.496C132.495 17.752 132.527 17.984 132.591 18.192C132.671 18.384 132.831 18.56 133.071 18.72C133.135 18.8 133.135 18.888 133.071 18.984C132.943 19.096 132.831 19.24 132.735 19.416C132.639 19.592 132.543 19.768 132.447 19.944C132.351 20.12 132.247 20.288 132.135 20.448C132.039 20.608 131.919 20.736 131.775 20.832C131.407 21.056 131.039 21.056 130.671 20.832C130.383 20.656 130.151 20.448 129.975 20.208C129.815 19.952 129.615 19.712 129.375 19.488C129.311 19.392 129.311 19.304 129.375 19.224C129.615 19.064 129.767 18.888 129.831 18.696C129.911 18.488 129.951 18.248 129.951 17.976V10.656C129.727 10.624 129.463 10.512 129.159 10.32C128.855 10.128 128.575 9.976 128.319 9.864C128.287 9.848 128.223 9.888 128.127 9.984C128.047 10.08 127.943 10.208 127.815 10.368C127.703 10.512 127.583 10.672 127.455 10.848C127.343 11.024 127.231 11.184 127.119 11.328ZM131.029 4.584C131.109 4.488 131.213 4.456 131.341 4.488C131.453 4.52 131.469 4.616 131.389 4.776C131.261 5.048 131.125 5.304 130.981 5.544C130.837 5.768 130.677 5.992 130.501 6.216C129.989 6.28 129.493 6.208 129.013 6C128.533 5.792 128.125 5.408 127.789 4.848C127.613 5.12 127.437 5.376 127.261 5.616C127.069 5.84 126.861 6.04 126.637 6.216C126.237 6.216 125.901 6.16 125.629 6.048C125.357 5.92 125.125 5.768 124.933 5.592C124.741 5.416 124.589 5.232 124.477 5.04C124.349 4.832 124.253 4.632 124.189 4.44C124.141 4.424 124.189 4.28 124.333 4.008C124.461 3.736 124.645 3.432 124.885 3.096C125.125 2.76 125.397 2.432 125.701 2.112C126.005 1.776 126.301 1.544 126.589 1.416L129.589 1.392C129.893 1.408 130.141 1.336 130.333 1.176C130.525 1 130.589 0.791999 130.525 0.551999C130.509 0.487998 130.533 0.447999 130.597 0.431999C130.661 0.399999 130.709 0.399999 130.741 0.431999C131.477 0.895998 131.773 1.424 131.629 2.016C131.565 2.24 131.461 2.416 131.317 2.544C131.173 2.672 131.005 2.768 130.813 2.832C130.621 2.896 130.421 2.936 130.213 2.952C129.989 2.968 129.773 2.976 129.565 2.976H126.493C126.253 2.96 126.061 3.072 125.917 3.312C125.821 3.472 125.813 3.624 125.893 3.768C125.973 3.912 126.093 4.04 126.253 4.152C126.397 4.248 126.565 4.32 126.757 4.368C126.949 4.416 127.117 4.424 127.261 4.392C127.309 4.328 127.373 4.248 127.453 4.152C127.533 4.056 127.621 3.968 127.717 3.888C127.813 3.792 127.909 3.72 128.005 3.672C128.101 3.608 128.189 3.592 128.269 3.624C128.701 3.976 129.133 4.248 129.565 4.44C129.981 4.632 130.469 4.68 131.029 4.584ZM138.349 10.872C138.413 10.888 138.429 10.936 138.397 11.016C138.365 11.08 138.317 11.152 138.253 11.232C138.205 11.312 138.141 11.392 138.061 11.472C137.997 11.552 137.949 11.608 137.917 11.64C137.725 11.8 137.485 11.92 137.197 12C136.909 12.064 136.621 12.064 136.333 12C136.045 11.92 135.781 11.76 135.541 11.52C135.301 11.28 135.133 10.928 135.037 10.464C135.709 9.424 136.421 8.696 137.173 8.28C137.941 7.848 138.685 7.648 139.405 7.68C139.741 7.68 140.181 7.744 140.725 7.872C141.269 7.984 141.837 8.112 142.429 8.256C143.021 8.384 143.589 8.504 144.133 8.616C144.677 8.728 145.117 8.784 145.453 8.784C145.629 8.752 145.741 8.752 145.789 8.784C145.837 8.816 145.861 8.92 145.861 9.096V17.496C145.861 17.752 145.893 17.984 145.957 18.192C146.037 18.384 146.197 18.56 146.437 18.72C146.501 18.8 146.501 18.888 146.437 18.984C146.309 19.096 146.197 19.24 146.101 19.416C146.005 19.592 145.909 19.768 145.813 19.944C145.717 20.12 145.613 20.288 145.501 20.448C145.405 20.608 145.285 20.736 145.141 20.832C144.757 21.04 144.389 21.04 144.037 20.832C143.749 20.656 143.517 20.448 143.341 20.208C143.181 19.952 142.981 19.712 142.741 19.488C142.661 19.392 142.661 19.304 142.741 19.224C142.933 19.096 143.069 18.952 143.149 18.792C143.229 18.632 143.277 18.456 143.293 18.264C143.261 17.96 143.125 17.648 142.885 17.328C142.661 17.008 142.373 16.688 142.021 16.368C141.685 16.048 141.309 15.752 140.893 15.48C140.493 15.192 140.101 14.944 139.717 14.736C139.349 14.528 139.013 14.368 138.709 14.256C138.405 14.128 138.189 14.072 138.061 14.088C137.725 14.264 137.517 14.584 137.437 15.048C137.373 15.512 137.389 16.008 137.485 16.536C137.597 17.048 137.765 17.544 137.989 18.024C138.229 18.488 138.469 18.824 138.709 19.032C138.997 19.272 139.205 19.376 139.333 19.344C139.461 19.296 139.525 19.192 139.525 19.032C139.541 18.872 139.493 18.704 139.381 18.528C139.285 18.336 139.149 18.208 138.973 18.144C138.893 18.144 138.837 18.112 138.805 18.048C138.789 17.984 138.797 17.92 138.829 17.856C138.877 17.76 138.965 17.632 139.093 17.472C139.237 17.312 139.389 17.16 139.549 17.016C139.709 16.872 139.869 16.744 140.029 16.632C140.189 16.504 140.325 16.432 140.437 16.416C141.029 16.912 141.269 17.416 141.157 17.928C141.061 18.424 140.773 18.928 140.293 19.44C140.149 19.584 139.989 19.744 139.813 19.92C139.637 20.096 139.453 20.264 139.261 20.424C139.085 20.568 138.901 20.696 138.709 20.808C138.533 20.904 138.365 20.96 138.205 20.976C137.757 21.024 137.349 20.928 136.981 20.688C136.613 20.448 136.301 20.144 136.045 19.776C135.789 19.392 135.589 18.968 135.445 18.504C135.317 18.04 135.269 17.608 135.301 17.208C135.653 16.072 136.125 15.088 136.717 14.256C137.309 13.424 138.077 12.792 139.021 12.36C139.229 12.328 139.509 12.368 139.861 12.48C140.213 12.576 140.589 12.72 140.989 12.912C141.405 13.104 141.821 13.328 142.237 13.584C142.653 13.84 143.013 14.104 143.317 14.376V11.016C143.061 10.984 142.741 10.912 142.357 10.8C141.973 10.688 141.573 10.568 141.157 10.44C140.757 10.312 140.349 10.184 139.933 10.056C139.533 9.912 139.165 9.792 138.829 9.696C138.333 9.552 137.941 9.48 137.653 9.48C137.365 9.464 137.157 9.496 137.029 9.576C136.917 9.656 136.877 9.76 136.909 9.888C136.941 10.016 137.021 10.152 137.149 10.296C137.293 10.424 137.469 10.544 137.677 10.656C137.885 10.768 138.109 10.84 138.349 10.872ZM151.204 10.872C151.268 10.888 151.284 10.936 151.252 11.016C151.22 11.08 151.172 11.152 151.108 11.232C151.06 11.312 150.996 11.392 150.916 11.472C150.852 11.552 150.804 11.608 150.772 11.64C150.58 11.8 150.34 11.92 150.052 12C149.764 12.064 149.476 12.064 149.188 12C148.9 11.92 148.636 11.76 148.396 11.52C148.156 11.28 147.988 10.928 147.892 10.464C148.564 9.424 149.276 8.696 150.028 8.28C150.796 7.848 151.54 7.648 152.26 7.68C152.596 7.68 152.964 7.744 153.364 7.872C153.764 7.984 154.164 8.112 154.564 8.256C154.98 8.384 155.388 8.504 155.788 8.616C156.188 8.728 156.556 8.784 156.892 8.784C157.068 8.752 157.172 8.752 157.204 8.784C157.252 8.816 157.276 8.92 157.276 9.096V11.688V17.352C157.292 17.576 157.332 17.776 157.396 17.952C157.46 18.128 157.596 18.232 157.804 18.264C157.852 18.296 157.876 18.336 157.876 18.384C157.876 18.432 157.852 18.472 157.804 18.504C157.612 18.664 157.404 18.944 157.18 19.344C156.972 19.728 156.716 20.08 156.412 20.4C156.22 20.608 155.996 20.76 155.74 20.856C155.484 20.952 155.22 21 154.948 21C154.676 21 154.404 20.96 154.132 20.88C153.86 20.8 153.612 20.688 153.388 20.544C152.764 20.112 152.276 19.648 151.924 19.152C151.588 18.64 151.436 18.216 151.468 17.88C151.468 17.848 151.508 17.768 151.588 17.64C151.668 17.512 151.764 17.376 151.876 17.232C152.004 17.088 152.132 16.952 152.26 16.824C152.404 16.696 152.532 16.616 152.644 16.584C152.788 16.52 152.932 16.52 153.076 16.584C153.236 16.648 153.38 16.752 153.508 16.896C153.652 17.024 153.772 17.168 153.868 17.328C153.98 17.472 154.052 17.608 154.084 17.736C154.116 17.816 154.084 17.864 153.988 17.88C153.604 18.104 153.388 18.328 153.34 18.552C153.308 18.776 153.364 18.944 153.508 19.056C153.652 19.152 153.844 19.16 154.084 19.08C154.34 19 154.556 18.768 154.732 18.384V11.016C154.476 10.984 154.228 10.912 153.988 10.8C153.764 10.688 153.532 10.568 153.292 10.44C153.068 10.312 152.828 10.184 152.572 10.056C152.316 9.912 152.02 9.792 151.684 9.696C151.188 9.552 150.796 9.48 150.508 9.48C150.22 9.464 150.012 9.496 149.884 9.576C149.772 9.656 149.732 9.76 149.764 9.888C149.796 10.016 149.876 10.152 150.004 10.296C150.148 10.424 150.324 10.544 150.532 10.656C150.74 10.768 150.964 10.84 151.204 10.872ZM162.595 10.872C162.659 10.888 162.675 10.936 162.643 11.016C162.611 11.08 162.563 11.152 162.499 11.232C162.451 11.312 162.387 11.392 162.307 11.472C162.243 11.552 162.195 11.608 162.163 11.64C161.971 11.8 161.731 11.92 161.443 12C161.155 12.064 160.867 12.064 160.579 12C160.291 11.936 160.027 11.784 159.787 11.544C159.547 11.304 159.379 10.952 159.283 10.488C159.955 9.448 160.667 8.712 161.419 8.28C162.187 7.848 162.931 7.648 163.651 7.68C163.987 7.68 164.307 7.744 164.611 7.872C164.931 7.984 165.243 8.112 165.547 8.256C165.867 8.384 166.179 8.504 166.483 8.616C166.803 8.728 167.131 8.784 167.467 8.784C167.643 8.752 167.755 8.752 167.803 8.784C167.851 8.816 167.875 8.92 167.875 9.096V17.496C167.875 17.752 167.907 17.984 167.971 18.192C168.051 18.384 168.211 18.56 168.451 18.72C168.515 18.8 168.515 18.888 168.451 18.984C168.323 19.096 168.211 19.24 168.115 19.416C168.019 19.592 167.923 19.768 167.827 19.944C167.731 20.12 167.627 20.288 167.515 20.448C167.419 20.608 167.299 20.736 167.155 20.832C166.771 21.04 166.403 21.04 166.051 20.832C165.763 20.656 165.531 20.448 165.355 20.208C165.195 19.952 164.995 19.712 164.755 19.488C164.675 19.392 164.675 19.304 164.755 19.224C164.995 19.064 165.147 18.888 165.211 18.696C165.291 18.488 165.331 18.248 165.331 17.976V10.896C165.155 10.864 164.963 10.784 164.755 10.656C164.563 10.512 164.331 10.368 164.059 10.224C163.803 10.064 163.499 9.912 163.147 9.768C162.811 9.624 162.419 9.528 161.971 9.48C161.571 9.432 161.323 9.472 161.227 9.6C161.131 9.728 161.131 9.88 161.227 10.056C161.323 10.216 161.499 10.384 161.755 10.56C162.011 10.72 162.291 10.824 162.595 10.872ZM175.401 16.488V14.16C175.017 14.016 174.601 13.864 174.153 13.704C173.705 13.528 173.241 13.36 172.761 13.2C172.281 13.04 171.809 12.904 171.345 12.792C170.881 12.664 170.441 12.592 170.025 12.576C169.945 12.56 169.857 12.504 169.761 12.408C169.681 12.296 169.705 12.104 169.833 11.832C170.057 11.336 170.297 10.84 170.553 10.344C170.809 9.832 171.105 9.376 171.441 8.976C171.793 8.576 172.193 8.256 172.641 8.016C173.105 7.76 173.641 7.648 174.249 7.68C174.585 7.696 174.881 7.744 175.137 7.824C175.393 7.888 175.633 7.968 175.857 8.064C176.081 8.16 176.313 8.272 176.553 8.4C176.793 8.512 177.057 8.624 177.345 8.736C177.457 8.768 177.545 8.768 177.609 8.736C177.689 8.704 177.729 8.648 177.729 8.568C177.729 8.488 177.681 8.4 177.585 8.304C177.489 8.208 177.329 8.112 177.105 8.016C177.137 7.888 177.185 7.744 177.249 7.584C177.313 7.424 177.385 7.28 177.465 7.152C177.561 7.008 177.673 6.904 177.801 6.84C177.945 6.76 178.105 6.744 178.281 6.792C178.585 6.888 178.777 7.064 178.857 7.32C178.953 7.56 178.969 7.832 178.905 8.136C178.841 8.44 178.721 8.76 178.545 9.096C178.369 9.432 178.169 9.736 177.945 10.008C177.721 10.28 177.481 10.504 177.225 10.68C176.985 10.856 176.769 10.936 176.577 10.92C176.193 10.872 175.785 10.736 175.353 10.512C174.921 10.288 174.497 10.096 174.081 9.936C173.681 9.76 173.297 9.672 172.929 9.672C172.561 9.672 172.241 9.872 171.969 10.272C171.905 10.32 171.825 10.44 171.729 10.632C171.649 10.808 171.593 10.936 171.561 11.016C171.785 11.032 172.081 11.096 172.449 11.208C172.833 11.304 173.241 11.424 173.673 11.568C174.105 11.712 174.537 11.864 174.969 12.024C175.417 12.184 175.817 12.328 176.169 12.456C176.729 12.584 177.185 12.648 177.537 12.648C177.713 12.616 177.825 12.616 177.873 12.648C177.921 12.68 177.945 12.784 177.945 12.96V16.824C177.945 16.952 177.945 17.096 177.945 17.256C177.945 17.416 177.953 17.568 177.969 17.712C178.001 17.856 178.049 17.984 178.113 18.096C178.193 18.192 178.313 18.248 178.473 18.264C178.521 18.296 178.545 18.336 178.545 18.384C178.545 18.432 178.521 18.472 178.473 18.504C178.329 18.616 178.177 18.808 178.017 19.08C177.857 19.352 177.673 19.632 177.465 19.92C177.273 20.192 177.057 20.44 176.817 20.664C176.577 20.872 176.297 20.984 175.977 21C175.753 21.016 175.537 20.944 175.329 20.784C175.121 20.624 174.921 20.416 174.729 20.16C174.537 19.904 174.353 19.632 174.177 19.344C174.001 19.04 173.833 18.76 173.673 18.504C173.641 18.44 173.641 18.384 173.673 18.336C173.721 18.288 173.793 18.28 173.889 18.312C174.305 18.44 174.657 18.368 174.945 18.096C175.233 17.808 175.385 17.272 175.401 16.488ZM178.363 4.68C178.091 5.24 177.795 5.656 177.475 5.928C177.139 6.184 176.843 6.28 176.587 6.216C176.411 6.168 176.187 6.024 175.915 5.784C175.627 5.544 175.307 5.288 174.955 5.016C174.587 4.744 174.179 4.496 173.731 4.272C173.283 4.032 172.795 3.88 172.267 3.816C171.915 3.768 171.699 3.808 171.619 3.936C171.539 4.048 171.547 4.192 171.643 4.368C171.739 4.528 171.899 4.688 172.123 4.848C172.347 4.992 172.603 5.088 172.891 5.136C172.939 5.152 172.955 5.192 172.939 5.256C172.907 5.32 172.867 5.392 172.819 5.472C172.755 5.552 172.691 5.632 172.627 5.712C172.563 5.776 172.515 5.824 172.483 5.856C172.307 6.016 172.091 6.136 171.835 6.216C171.563 6.28 171.291 6.28 171.019 6.216C170.747 6.136 170.499 5.984 170.275 5.76C170.051 5.536 169.899 5.2 169.819 4.752C170.427 3.76 171.067 3.072 171.739 2.688C172.411 2.304 173.083 2.128 173.755 2.16C174.059 2.16 174.435 2.264 174.883 2.472C175.315 2.68 175.747 2.912 176.179 3.168C176.595 3.424 176.979 3.664 177.331 3.888C177.683 4.112 177.931 4.248 178.075 4.296C178.331 4.296 178.427 4.424 178.363 4.68ZM191.179 13.872C191.003 14 190.907 14.16 190.891 14.352C190.891 14.528 190.891 14.712 190.891 14.904V19.56C190.891 19.736 190.867 19.84 190.819 19.872C190.771 19.904 190.659 19.904 190.483 19.872C190.147 19.872 189.739 19.928 189.259 20.04C188.779 20.152 188.283 20.28 187.771 20.424C187.275 20.568 186.787 20.704 186.307 20.832C185.827 20.944 185.419 21 185.083 21C184.411 21.016 183.811 20.888 183.283 20.616C182.755 20.344 182.307 20.016 181.939 19.632C181.587 19.248 181.315 18.848 181.123 18.432C180.947 18.016 180.867 17.68 180.883 17.424C180.931 17.056 181.043 16.704 181.219 16.368C181.411 16.016 181.627 15.68 181.867 15.36C182.107 15.04 182.355 14.728 182.611 14.424C182.867 14.104 183.091 13.784 183.283 13.464C183.507 13.08 183.611 12.648 183.595 12.168C183.595 11.672 183.523 11.232 183.379 10.848C183.235 10.448 183.043 10.144 182.803 9.936C182.579 9.712 182.371 9.688 182.179 9.864C182.067 9.96 182.019 10.088 182.035 10.248C182.067 10.392 182.123 10.544 182.203 10.704C182.283 10.848 182.379 10.976 182.491 11.088C182.603 11.2 182.691 11.256 182.755 11.256C182.835 11.256 182.859 11.304 182.827 11.4C182.779 11.512 182.699 11.656 182.587 11.832C182.491 11.992 182.371 12.144 182.227 12.288C182.083 12.432 181.931 12.544 181.771 12.624C181.627 12.688 181.483 12.688 181.339 12.624C181.259 12.576 181.171 12.504 181.075 12.408C180.979 12.296 180.891 12.184 180.811 12.072C180.731 11.96 180.659 11.856 180.595 11.76C180.547 11.648 180.523 11.584 180.523 11.568C180.507 11.52 180.555 11.392 180.667 11.184C180.779 10.96 180.939 10.696 181.147 10.392C181.355 10.072 181.587 9.736 181.843 9.384C182.099 9.032 182.363 8.712 182.635 8.424C182.907 8.12 183.163 7.88 183.403 7.704C183.643 7.512 183.851 7.416 184.027 7.416C184.379 7.448 184.699 7.584 184.987 7.824C185.291 8.048 185.547 8.328 185.755 8.664C185.963 9 186.107 9.352 186.187 9.72C186.283 10.088 186.307 10.416 186.259 10.704C186.243 10.992 186.091 11.336 185.803 11.736C185.531 12.136 185.227 12.56 184.891 13.008C184.555 13.44 184.227 13.88 183.907 14.328C183.587 14.76 183.371 15.152 183.259 15.504C183.179 16.064 183.219 16.576 183.379 17.04C183.555 17.488 183.827 17.864 184.195 18.168C184.467 18.392 184.771 18.592 185.107 18.768C185.459 18.928 185.819 19.048 186.187 19.128C186.571 19.192 186.939 19.208 187.291 19.176C187.659 19.128 187.995 19.016 188.299 18.84V15.192C188.299 14.92 188.291 14.656 188.275 14.4C188.259 14.144 188.203 13.912 188.107 13.704C188.011 13.496 187.859 13.336 187.651 13.224C187.443 13.112 187.147 13.072 186.763 13.104C186.667 13.136 186.587 13.064 186.523 12.888C186.459 12.712 186.467 12.592 186.547 12.528C186.579 12.496 186.611 12.48 186.643 12.48C186.691 12.464 186.731 12.44 186.763 12.408C187.035 12.216 187.299 11.992 187.555 11.736C187.827 11.48 188.067 11.208 188.275 10.92C188.483 10.632 188.651 10.344 188.779 10.056C188.923 9.752 189.019 9.472 189.067 9.216C189.115 8.976 189.027 8.864 188.803 8.88C188.707 8.848 188.651 8.752 188.635 8.592C188.635 8.432 188.651 8.312 188.683 8.232C188.827 8.104 188.995 7.976 189.187 7.848C189.379 7.704 189.571 7.576 189.763 7.464C189.971 7.352 190.163 7.264 190.339 7.2C190.531 7.12 190.691 7.08 190.819 7.08C190.995 7.08 191.131 7.168 191.227 7.344C191.323 7.504 191.395 7.704 191.443 7.944C191.491 8.184 191.515 8.432 191.515 8.688C191.531 8.928 191.531 9.136 191.515 9.312C191.419 9.744 191.251 10.128 191.011 10.464C190.787 10.8 190.523 11.104 190.219 11.376C189.915 11.632 189.587 11.856 189.235 12.048C188.883 12.24 188.531 12.4 188.179 12.528C188.691 12.56 189.187 12.64 189.667 12.768C190.163 12.896 190.643 13.136 191.107 13.488C191.171 13.536 191.219 13.6 191.251 13.68C191.283 13.744 191.259 13.808 191.179 13.872Z" fill="#303030"/>
</g>
<defs>
<filter id="filter0_d_22_1309" x="0.936035" y="0.0239868" width="194.603" height="29.144" filterUnits="userSpaceOnUse" color-interpolation-filters="sRGB">
<feFlood flood-opacity="0" result="BackgroundImageFix"/>
<feColorMatrix in="SourceAlpha" type="matrix" values="0 0 0 0 0 0 0 0 0 0 0 0 0 0 0 0 0 0 127 0" result="hardAlpha"/>
<feOffset dy="4"/>
<feGaussianBlur stdDeviation="2"/>
<feComposite in2="hardAlpha" operator="out"/>
<feColorMatrix type="matrix" values="0 0 0 0 0 0 0 0 0 0 0 0 0 0 0 0 0 0 0.25 0"/>
<feBlend mode="normal" in2="BackgroundImageFix" result="effect1_dropShadow_22_1309"/>
<feBlend mode="normal" in="SourceGraphic" in2="effect1_dropShadow_22_1309" result="shape"/>
</filter>
</defs>
</svg>
