<svg width="154" height="31" viewBox="0 0 154 31" fill="none" xmlns="http://www.w3.org/2000/svg">
<path d="M6.304 7.552V17.488C6.32 18.272 6.464 18.808 6.736 19.096C7.024 19.368 7.384 19.44 7.816 19.312C7.912 19.28 7.976 19.288 8.008 19.336C8.056 19.384 8.064 19.44 8.032 19.504C7.872 19.76 7.704 20.04 7.528 20.344C7.352 20.632 7.168 20.904 6.976 21.16C6.784 21.416 6.584 21.624 6.376 21.784C6.168 21.944 5.952 22.016 5.728 22C5.408 21.984 5.12 21.872 4.864 21.664C4.624 21.44 4.408 21.192 4.216 20.92C4.024 20.632 3.848 20.352 3.688 20.08C3.528 19.808 3.376 19.616 3.232 19.504C3.184 19.472 3.16 19.432 3.16 19.384C3.16 19.336 3.184 19.296 3.232 19.264C3.376 19.248 3.488 19.192 3.568 19.096C3.648 18.984 3.696 18.856 3.712 18.712C3.744 18.568 3.76 18.416 3.76 18.256C3.76 18.096 3.76 17.952 3.76 17.824V6.352C3.76 6.176 3.784 6.072 3.832 6.04C3.88 6.008 3.992 6.008 4.168 6.04C4.664 6.056 5.112 5.984 5.512 5.824C5.928 5.664 6.312 5.488 6.664 5.296C7.032 5.104 7.376 4.92 7.696 4.744C8.032 4.568 8.368 4.464 8.704 4.432C8.672 4.352 8.608 4.216 8.512 4.024C8.432 3.832 8.36 3.712 8.296 3.664C8.024 3.264 7.688 3.08 7.288 3.112C6.888 3.128 6.464 3.232 6.016 3.424C5.568 3.6 5.112 3.808 4.648 4.048C4.2 4.288 3.784 4.424 3.4 4.456C3.208 4.472 2.984 4.4 2.728 4.24C2.488 4.064 2.256 3.84 2.032 3.568C1.808 3.28 1.608 2.976 1.432 2.656C1.256 2.32 1.136 2 1.072 1.696C1.008 1.376 1.016 1.096 1.096 0.855999C1.192 0.599999 1.392 0.423999 1.696 0.327999C1.872 0.295999 2.024 0.319999 2.152 0.399999C2.28 0.463999 2.392 0.567999 2.488 0.711999C2.584 0.839999 2.664 0.983999 2.728 1.144C2.792 1.304 2.84 1.448 2.872 1.576C2.648 1.656 2.488 1.744 2.392 1.84C2.296 1.936 2.24 2.024 2.224 2.104C2.224 2.184 2.256 2.24 2.32 2.272C2.4 2.304 2.496 2.304 2.608 2.272C2.912 2.16 3.208 2.04 3.496 1.912C3.784 1.784 4.072 1.664 4.36 1.552C4.664 1.424 4.968 1.32 5.272 1.24C5.592 1.144 5.92 1.088 6.256 1.072C6.864 1.04 7.384 1.152 7.816 1.408C8.248 1.648 8.616 1.976 8.92 2.392C9.24 2.792 9.52 3.248 9.76 3.76C10 4.256 10.224 4.752 10.432 5.248C10.56 5.52 10.576 5.704 10.48 5.8C10.4 5.896 10.32 5.96 10.24 5.992C9.84 6.008 9.48 6.08 9.16 6.208C8.84 6.32 8.528 6.456 8.224 6.616C7.936 6.76 7.64 6.92 7.336 7.096C7.032 7.256 6.688 7.408 6.304 7.552ZM12.9818 11.872C13.0458 11.888 13.0618 11.936 13.0298 12.016C12.9978 12.08 12.9498 12.152 12.8858 12.232C12.8378 12.312 12.7738 12.392 12.6938 12.472C12.6298 12.552 12.5818 12.608 12.5498 12.64C12.3578 12.8 12.1178 12.92 11.8298 13C11.5418 13.064 11.2538 13.064 10.9658 13C10.6778 12.92 10.4138 12.76 10.1738 12.52C9.93381 12.28 9.76581 11.928 9.66981 11.464C10.3418 10.424 11.0538 9.696 11.8058 9.28C12.5738 8.848 13.3178 8.648 14.0378 8.68C14.3738 8.68 14.8138 8.744 15.3578 8.872C15.9018 8.984 16.4698 9.112 17.0618 9.256C17.6538 9.384 18.2218 9.504 18.7658 9.616C19.3098 9.728 19.7498 9.784 20.0858 9.784C20.2618 9.752 20.3738 9.752 20.4218 9.784C20.4698 9.816 20.4938 9.92 20.4938 10.096V18.496C20.4938 18.752 20.5258 18.984 20.5898 19.192C20.6698 19.384 20.8298 19.56 21.0698 19.72C21.1338 19.8 21.1338 19.888 21.0698 19.984C20.9418 20.096 20.8298 20.24 20.7338 20.416C20.6378 20.592 20.5418 20.768 20.4458 20.944C20.3498 21.12 20.2458 21.288 20.1338 21.448C20.0378 21.608 19.9178 21.736 19.7738 21.832C19.3898 22.04 19.0218 22.04 18.6698 21.832C18.3818 21.656 18.1498 21.448 17.9738 21.208C17.8138 20.952 17.6138 20.712 17.3738 20.488C17.2938 20.392 17.2938 20.304 17.3738 20.224C17.5658 20.096 17.7018 19.952 17.7818 19.792C17.8618 19.632 17.9098 19.456 17.9258 19.264C17.8938 18.96 17.7578 18.648 17.5178 18.328C17.2938 18.008 17.0058 17.688 16.6538 17.368C16.3178 17.048 15.9418 16.752 15.5258 16.48C15.1258 16.192 14.7338 15.944 14.3498 15.736C13.9818 15.528 13.6458 15.368 13.3418 15.256C13.0378 15.128 12.8218 15.072 12.6938 15.088C12.3578 15.264 12.1498 15.584 12.0698 16.048C12.0058 16.512 12.0218 17.008 12.1178 17.536C12.2298 18.048 12.3978 18.544 12.6218 19.024C12.8618 19.488 13.1018 19.824 13.3418 20.032C13.6298 20.272 13.8378 20.376 13.9658 20.344C14.0938 20.296 14.1578 20.192 14.1578 20.032C14.1738 19.872 14.1258 19.704 14.0138 19.528C13.9178 19.336 13.7818 19.208 13.6058 19.144C13.5258 19.144 13.4698 19.112 13.4378 19.048C13.4218 18.984 13.4298 18.92 13.4618 18.856C13.5098 18.76 13.5978 18.632 13.7258 18.472C13.8698 18.312 14.0218 18.16 14.1818 18.016C14.3418 17.872 14.5018 17.744 14.6618 17.632C14.8218 17.504 14.9578 17.432 15.0698 17.416C15.6618 17.912 15.9018 18.416 15.7898 18.928C15.6938 19.424 15.4058 19.928 14.9258 20.44C14.7818 20.584 14.6218 20.744 14.4458 20.92C14.2698 21.096 14.0858 21.264 13.8938 21.424C13.7178 21.568 13.5338 21.696 13.3418 21.808C13.1658 21.904 12.9978 21.96 12.8378 21.976C12.3898 22.024 11.9818 21.928 11.6138 21.688C11.2458 21.448 10.9338 21.144 10.6778 20.776C10.4218 20.392 10.2218 19.968 10.0778 19.504C9.94981 19.04 9.90181 18.608 9.93381 18.208C10.2858 17.072 10.7578 16.088 11.3498 15.256C11.9418 14.424 12.7098 13.792 13.6538 13.36C13.8618 13.328 14.1418 13.368 14.4938 13.48C14.8458 13.576 15.2218 13.72 15.6218 13.912C16.0378 14.104 16.4538 14.328 16.8698 14.584C17.2858 14.84 17.6458 15.104 17.9498 15.376V12.016C17.6938 11.984 17.3738 11.912 16.9898 11.8C16.6058 11.688 16.2058 11.568 15.7898 11.44C15.3898 11.312 14.9818 11.184 14.5658 11.056C14.1658 10.912 13.7978 10.792 13.4618 10.696C12.9658 10.552 12.5738 10.48 12.2858 10.48C11.9978 10.464 11.7898 10.496 11.6618 10.576C11.5498 10.656 11.5098 10.76 11.5418 10.888C11.5738 11.016 11.6538 11.152 11.7818 11.296C11.9258 11.424 12.1018 11.544 12.3098 11.656C12.5178 11.768 12.7418 11.84 12.9818 11.872ZM34.4772 17.656C34.4292 17.528 34.3332 17.368 34.1892 17.176C34.0452 16.968 33.8932 16.8 33.7332 16.672V19.336C33.7812 19.24 33.8372 19.112 33.9012 18.952C33.9812 18.792 34.0532 18.632 34.1172 18.472C34.1972 18.296 34.2692 18.136 34.3332 17.992C34.3972 17.832 34.4452 17.72 34.4772 17.656ZM34.3332 10.936C34.0932 11.112 33.9332 11.296 33.8532 11.488C33.7892 11.68 33.7572 11.912 33.7572 12.184V15.52C34.0132 15.632 34.2452 15.784 34.4532 15.976C34.6772 16.168 34.8692 16.368 35.0292 16.576C35.1892 16.768 35.3172 16.968 35.4132 17.176C35.5252 17.368 35.6052 17.528 35.6532 17.656C35.5572 17.896 35.4052 18.232 35.1972 18.664C34.9892 19.08 34.7572 19.504 34.5012 19.936C34.2612 20.352 34.0052 20.744 33.7332 21.112C33.4772 21.464 33.2452 21.704 33.0372 21.832C32.8612 21.944 32.6772 22 32.4852 22C32.2932 22 32.1412 21.968 32.0292 21.904C31.9332 21.84 31.8452 21.752 31.7652 21.64C31.6852 21.528 31.6052 21.4 31.5252 21.256C31.4612 21.096 31.3572 20.936 31.2132 20.776V17.032C30.6372 17.176 30.1492 17.48 29.7492 17.944C29.3652 18.392 29.0372 18.864 28.7652 19.36C28.5092 19.856 28.3012 20.32 28.1412 20.752C27.9812 21.168 27.8452 21.416 27.7332 21.496C27.5732 21.608 27.3572 21.728 27.0852 21.856C26.8292 21.984 26.5972 22.024 26.3892 21.976C25.8612 21.88 25.4052 21.688 25.0212 21.4C24.6372 21.096 24.3172 20.768 24.0612 20.416C23.8052 20.064 23.6212 19.712 23.5092 19.36C23.3972 19.008 23.3492 18.72 23.3652 18.496C23.4132 18.128 23.5252 17.776 23.7012 17.44C23.8772 17.104 24.0852 16.784 24.3252 16.48C24.5652 16.16 24.8052 15.848 25.0452 15.544C25.3012 15.224 25.5252 14.912 25.7172 14.608C25.9412 14.224 26.0452 13.8 26.0292 13.336C26.0132 12.856 25.9332 12.424 25.7892 12.04C25.6452 11.64 25.4612 11.336 25.2372 11.128C25.0132 10.92 24.8052 10.896 24.6132 11.056C24.5012 11.152 24.4612 11.28 24.4932 11.44C24.5252 11.584 24.5812 11.736 24.6612 11.896C24.7412 12.04 24.8372 12.168 24.9492 12.28C25.0612 12.376 25.1412 12.424 25.1892 12.424C25.2692 12.44 25.2932 12.488 25.2612 12.568C25.2132 12.68 25.1332 12.824 25.0212 13C24.9252 13.16 24.8052 13.312 24.6612 13.456C24.5332 13.6 24.3892 13.704 24.2292 13.768C24.0852 13.832 23.9412 13.832 23.7972 13.768C23.7172 13.736 23.6292 13.672 23.5332 13.576C23.4532 13.464 23.3732 13.352 23.2932 13.24C23.2132 13.128 23.1412 13.024 23.0772 12.928C23.0292 12.816 23.0052 12.752 23.0052 12.736C22.9892 12.688 23.0372 12.56 23.1492 12.352C23.2612 12.128 23.4132 11.864 23.6052 11.56C23.8132 11.256 24.0452 10.936 24.3012 10.6C24.5572 10.264 24.8132 9.952 25.0692 9.664C25.3412 9.376 25.5972 9.136 25.8372 8.944C26.0772 8.752 26.2772 8.664 26.4372 8.68C26.7892 8.696 27.1092 8.824 27.3972 9.064C27.6852 9.288 27.9332 9.568 28.1412 9.904C28.3492 10.224 28.4932 10.568 28.5732 10.936C28.6692 11.288 28.6932 11.608 28.6452 11.896C28.6292 12.168 28.4852 12.504 28.2132 12.904C27.9412 13.304 27.6372 13.72 27.3012 14.152C26.9652 14.584 26.6372 15.016 26.3172 15.448C26.0132 15.88 25.8052 16.272 25.6932 16.624C25.6132 17.232 25.6852 17.792 25.9092 18.304C26.1332 18.8 26.5012 19.208 27.0132 19.528L27.9012 18.04C28.0292 17.832 28.1972 17.608 28.4052 17.368C28.6292 17.128 28.8852 16.896 29.1732 16.672C29.4612 16.448 29.7732 16.24 30.1092 16.048C30.4612 15.84 30.8292 15.68 31.2132 15.568V11.68C31.2132 11.424 31.1732 11.2 31.0932 11.008C31.0292 10.8 30.8772 10.616 30.6372 10.456C30.5572 10.36 30.5572 10.272 30.6372 10.192C30.8772 9.968 31.0772 9.736 31.2372 9.496C31.4132 9.24 31.6452 9.024 31.9332 8.848C32.3012 8.608 32.6692 8.608 33.0372 8.848C33.1812 8.928 33.3012 9.048 33.3972 9.208C33.5092 9.368 33.6132 9.544 33.7092 9.736C33.8052 9.912 33.9012 10.088 33.9972 10.264C34.0932 10.44 34.2052 10.584 34.3332 10.696C34.4132 10.776 34.4132 10.856 34.3332 10.936ZM32.3832 5.728C32.2712 5.744 32.1912 5.712 32.1432 5.632C32.0952 5.536 32.0952 5.464 32.1432 5.416C32.2872 5.272 32.4472 5.136 32.6232 5.008C32.7832 4.88 32.9592 4.832 33.1512 4.864C33.3272 4.896 33.4872 5.008 33.6312 5.2C33.7752 5.392 33.8472 5.576 33.8472 5.752C33.8152 5.944 33.7352 6.128 33.6072 6.304C33.4632 6.464 33.3032 6.608 33.1272 6.736C32.9512 6.864 32.7672 6.968 32.5752 7.048C32.3672 7.128 32.1832 7.176 32.0232 7.192C31.7672 7.192 31.4952 7.152 31.2072 7.072C30.9192 6.976 30.6472 6.848 30.3912 6.688C30.1352 6.512 29.9272 6.304 29.7672 6.064C29.6072 5.808 29.5352 5.504 29.5512 5.152C29.6472 4.736 29.8472 4.432 30.1512 4.24C30.4552 4.032 30.7752 3.88 31.1112 3.784C31.4472 3.672 31.7592 3.592 32.0472 3.544C32.3352 3.48 32.5032 3.392 32.5512 3.28C32.5672 3.232 32.5752 3.176 32.5752 3.112C32.5592 3.032 32.5432 2.96 32.5272 2.896C32.4952 2.816 32.4552 2.752 32.4072 2.704C32.3592 2.656 32.3112 2.64 32.2632 2.656C32.1192 2.672 32.0232 2.648 31.9752 2.584C31.9112 2.52 31.8952 2.448 31.9272 2.368C31.9592 2.304 32.0472 2.216 32.1912 2.104C32.3352 1.976 32.5032 1.856 32.6952 1.744C32.8712 1.616 33.0552 1.512 33.2472 1.432C33.4232 1.336 33.5752 1.296 33.7032 1.312C33.9112 1.408 34.0952 1.576 34.2552 1.816C34.3992 2.056 34.4632 2.28 34.4472 2.488C34.4472 2.696 34.4072 2.88 34.3272 3.04C34.2312 3.2 34.1112 3.336 33.9672 3.448C33.8232 3.56 33.6632 3.664 33.4872 3.76C33.3112 3.84 33.1272 3.92 32.9352 4C32.6312 4.128 32.3352 4.312 32.0472 4.552C31.7432 4.776 31.5672 5.024 31.5192 5.296C31.4712 5.52 31.5272 5.736 31.6872 5.944C31.8312 6.136 31.9752 6.232 32.1192 6.232C32.2312 6.232 32.3112 6.184 32.3592 6.088C32.4072 5.976 32.4152 5.856 32.3832 5.728ZM41.0952 10.936C40.8552 11.112 40.6952 11.296 40.6152 11.488C40.5512 11.68 40.5192 11.912 40.5192 12.184V17.488C40.5352 18.272 40.6872 18.808 40.9752 19.096C41.2632 19.368 41.6232 19.44 42.0552 19.312C42.1352 19.28 42.1992 19.288 42.2472 19.336C42.2952 19.384 42.2952 19.44 42.2472 19.504C42.0872 19.76 41.9192 20.04 41.7432 20.344C41.5672 20.632 41.3832 20.904 41.1912 21.16C40.9992 21.416 40.7992 21.624 40.5912 21.784C40.3832 21.944 40.1672 22.016 39.9432 22C39.6392 21.984 39.3592 21.872 39.1032 21.664C38.8632 21.44 38.6392 21.192 38.4312 20.92C38.2392 20.632 38.0632 20.352 37.9032 20.08C37.7432 19.808 37.5912 19.616 37.4472 19.504C37.3992 19.472 37.3752 19.432 37.3752 19.384C37.3912 19.336 37.4152 19.296 37.4472 19.264C37.6072 19.248 37.7192 19.192 37.7832 19.096C37.8632 18.984 37.9112 18.856 37.9272 18.712C37.9592 18.568 37.9752 18.416 37.9752 18.256C37.9752 18.096 37.9752 17.952 37.9752 17.824V11.68C37.9752 11.424 37.9352 11.2 37.8552 11.008C37.7912 10.8 37.6392 10.616 37.3992 10.456C37.3352 10.376 37.3352 10.288 37.3992 10.192C37.6552 9.968 37.8632 9.736 38.0232 9.496C38.1992 9.24 38.4312 9.024 38.7192 8.848C39.0872 8.608 39.4472 8.608 39.7992 8.848C39.9432 8.928 40.0712 9.048 40.1832 9.208C40.2952 9.368 40.3992 9.544 40.4952 9.736C40.5912 9.912 40.6872 10.088 40.7832 10.264C40.8792 10.44 40.9832 10.584 41.0952 10.696C41.1912 10.792 41.1912 10.872 41.0952 10.936ZM55.7434 6.448C55.5034 6.624 55.3434 6.808 55.2634 7C55.1994 7.192 55.1674 7.424 55.1674 7.696V20.584C55.1674 20.76 55.1434 20.864 55.0954 20.896C55.0474 20.928 54.9354 20.928 54.7594 20.896C54.4234 20.896 54.0074 20.952 53.5114 21.064C53.0154 21.176 52.4954 21.304 51.9514 21.448C51.4234 21.576 50.9114 21.704 50.4154 21.832C49.9194 21.944 49.5034 22 49.1674 22C48.5114 22.016 47.8794 21.896 47.2714 21.64C46.6634 21.368 46.1274 21.04 45.6634 20.656C45.1994 20.272 44.8314 19.88 44.5594 19.48C44.3034 19.08 44.1834 18.752 44.1994 18.496C44.2474 18.128 44.3594 17.776 44.5354 17.44C44.7114 17.104 44.9194 16.784 45.1594 16.48C45.3994 16.16 45.6394 15.848 45.8794 15.544C46.1354 15.224 46.3594 14.912 46.5514 14.608C46.7754 14.224 46.8794 13.8 46.8634 13.336C46.8474 12.856 46.7674 12.424 46.6234 12.04C46.4794 11.64 46.2954 11.336 46.0714 11.128C45.8474 10.92 45.6394 10.896 45.4474 11.056C45.3354 11.152 45.2954 11.28 45.3274 11.44C45.3594 11.584 45.4154 11.736 45.4954 11.896C45.5754 12.04 45.6714 12.168 45.7834 12.28C45.8954 12.376 45.9754 12.424 46.0234 12.424C46.1034 12.44 46.1274 12.488 46.0954 12.568C46.0474 12.68 45.9674 12.824 45.8554 13C45.7594 13.16 45.6394 13.312 45.4954 13.456C45.3674 13.584 45.2234 13.688 45.0634 13.768C44.9194 13.832 44.7754 13.832 44.6314 13.768C44.5514 13.736 44.4634 13.672 44.3674 13.576C44.2874 13.464 44.2074 13.352 44.1274 13.24C44.0474 13.128 43.9754 13.024 43.9114 12.928C43.8634 12.816 43.8394 12.752 43.8394 12.736C43.8234 12.688 43.8714 12.56 43.9834 12.352C44.0954 12.128 44.2474 11.864 44.4394 11.56C44.6474 11.256 44.8794 10.936 45.1354 10.6C45.3914 10.264 45.6474 9.952 45.9034 9.664C46.1754 9.376 46.4314 9.136 46.6714 8.944C46.9114 8.752 47.1114 8.664 47.2714 8.68C47.6234 8.696 47.9434 8.824 48.2314 9.064C48.5194 9.288 48.7674 9.568 48.9754 9.904C49.1834 10.224 49.3274 10.568 49.4074 10.936C49.5034 11.288 49.5274 11.608 49.4794 11.896C49.4634 12.168 49.3194 12.504 49.0474 12.904C48.7754 13.304 48.4714 13.72 48.1354 14.152C47.7994 14.584 47.4714 15.016 47.1514 15.448C46.8474 15.88 46.6394 16.272 46.5274 16.624C46.4794 17.008 46.5594 17.392 46.7674 17.776C46.9754 18.144 47.2554 18.488 47.6074 18.808C47.9754 19.128 48.3914 19.408 48.8554 19.648C49.3194 19.888 49.7834 20.064 50.2474 20.176C50.7274 20.288 51.1754 20.328 51.5914 20.296C52.0074 20.248 52.3514 20.104 52.6234 19.864V7.192C52.6234 6.936 52.5834 6.712 52.5034 6.52C52.4394 6.312 52.2874 6.128 52.0474 5.968C51.9674 5.872 51.9674 5.784 52.0474 5.704C52.2874 5.48 52.4874 5.248 52.6474 5.008C52.8234 4.752 53.0554 4.536 53.3434 4.36C53.7114 4.12 54.0794 4.12 54.4474 4.36C54.5914 4.44 54.7194 4.56 54.8314 4.72C54.9434 4.88 55.0474 5.056 55.1434 5.248C55.2394 5.424 55.3354 5.6 55.4314 5.776C55.5274 5.952 55.6314 6.096 55.7434 6.208C55.8234 6.288 55.8234 6.368 55.7434 6.448ZM61.5796 10.936C61.3396 11.112 61.1796 11.296 61.0996 11.488C61.0356 11.68 61.0036 11.912 61.0036 12.184V17.488C61.0196 18.272 61.1716 18.808 61.4596 19.096C61.7476 19.368 62.1076 19.44 62.5396 19.312C62.6196 19.28 62.6836 19.288 62.7316 19.336C62.7796 19.384 62.7796 19.44 62.7316 19.504C62.5716 19.76 62.4036 20.04 62.2276 20.344C62.0516 20.632 61.8676 20.904 61.6756 21.16C61.4836 21.416 61.2836 21.624 61.0756 21.784C60.8676 21.944 60.6516 22.016 60.4276 22C60.1236 21.984 59.8436 21.872 59.5876 21.664C59.3476 21.44 59.1236 21.192 58.9156 20.92C58.7236 20.632 58.5476 20.352 58.3876 20.08C58.2276 19.808 58.0756 19.616 57.9316 19.504C57.8836 19.472 57.8596 19.432 57.8596 19.384C57.8756 19.336 57.8996 19.296 57.9316 19.264C58.0916 19.248 58.2036 19.192 58.2676 19.096C58.3476 18.984 58.3956 18.856 58.4116 18.712C58.4436 18.568 58.4596 18.416 58.4596 18.256C58.4596 18.096 58.4596 17.952 58.4596 17.824V11.68C58.4596 11.424 58.4196 11.2 58.3396 11.008C58.2756 10.8 58.1236 10.616 57.8836 10.456C57.8196 10.376 57.8196 10.288 57.8836 10.192C58.1396 9.968 58.3476 9.736 58.5076 9.496C58.6836 9.24 58.9156 9.024 59.2036 8.848C59.5716 8.608 59.9316 8.608 60.2836 8.848C60.4276 8.928 60.5556 9.048 60.6676 9.208C60.7796 9.368 60.8836 9.544 60.9796 9.736C61.0756 9.912 61.1716 10.088 61.2676 10.264C61.3636 10.44 61.4676 10.584 61.5796 10.696C61.6756 10.792 61.6756 10.872 61.5796 10.936ZM76.2278 6.448C75.9878 6.624 75.8278 6.808 75.7478 7C75.6838 7.192 75.6518 7.424 75.6518 7.696V20.584C75.6518 20.76 75.6278 20.864 75.5798 20.896C75.5318 20.928 75.4198 20.928 75.2438 20.896C74.9078 20.896 74.4918 20.952 73.9958 21.064C73.4998 21.176 72.9798 21.304 72.4358 21.448C71.9078 21.576 71.3958 21.704 70.8998 21.832C70.4038 21.944 69.9878 22 69.6518 22C68.9958 22.016 68.3638 21.896 67.7558 21.64C67.1478 21.368 66.6118 21.04 66.1478 20.656C65.6838 20.272 65.3158 19.88 65.0438 19.48C64.7878 19.08 64.6678 18.752 64.6838 18.496C64.7318 18.128 64.8438 17.776 65.0198 17.44C65.1958 17.104 65.4038 16.784 65.6438 16.48C65.8838 16.16 66.1238 15.848 66.3638 15.544C66.6198 15.224 66.8438 14.912 67.0358 14.608C67.2598 14.224 67.3638 13.8 67.3478 13.336C67.3318 12.856 67.2518 12.424 67.1078 12.04C66.9638 11.64 66.7798 11.336 66.5558 11.128C66.3318 10.92 66.1238 10.896 65.9318 11.056C65.8198 11.152 65.7798 11.28 65.8118 11.44C65.8438 11.584 65.8998 11.736 65.9798 11.896C66.0598 12.04 66.1558 12.168 66.2678 12.28C66.3798 12.376 66.4598 12.424 66.5078 12.424C66.5878 12.44 66.6118 12.488 66.5798 12.568C66.5318 12.68 66.4518 12.824 66.3398 13C66.2438 13.16 66.1238 13.312 65.9798 13.456C65.8518 13.584 65.7078 13.688 65.5478 13.768C65.4038 13.832 65.2598 13.832 65.1158 13.768C65.0358 13.736 64.9478 13.672 64.8518 13.576C64.7718 13.464 64.6918 13.352 64.6118 13.24C64.5318 13.128 64.4598 13.024 64.3958 12.928C64.3478 12.816 64.3238 12.752 64.3238 12.736C64.3078 12.688 64.3558 12.56 64.4678 12.352C64.5798 12.128 64.7318 11.864 64.9238 11.56C65.1318 11.256 65.3638 10.936 65.6198 10.6C65.8758 10.264 66.1318 9.952 66.3878 9.664C66.6598 9.376 66.9158 9.136 67.1558 8.944C67.3958 8.752 67.5958 8.664 67.7558 8.68C68.1078 8.696 68.4278 8.824 68.7158 9.064C69.0038 9.288 69.2518 9.568 69.4598 9.904C69.6678 10.224 69.8118 10.568 69.8918 10.936C69.9878 11.288 70.0118 11.608 69.9638 11.896C69.9478 12.168 69.8038 12.504 69.5318 12.904C69.2598 13.304 68.9558 13.72 68.6198 14.152C68.2838 14.584 67.9558 15.016 67.6358 15.448C67.3318 15.88 67.1238 16.272 67.0118 16.624C66.9638 17.008 67.0438 17.392 67.2518 17.776C67.4598 18.144 67.7398 18.488 68.0918 18.808C68.4598 19.128 68.8758 19.408 69.3398 19.648C69.8038 19.888 70.2678 20.064 70.7318 20.176C71.2118 20.288 71.6598 20.328 72.0758 20.296C72.4918 20.248 72.8358 20.104 73.1078 19.864V7.192C73.1078 6.936 73.0678 6.712 72.9878 6.52C72.9238 6.312 72.7718 6.128 72.5318 5.968C72.4518 5.872 72.4518 5.784 72.5318 5.704C72.7718 5.48 72.9718 5.248 73.1318 5.008C73.3078 4.752 73.5398 4.536 73.8278 4.36C74.1958 4.12 74.5638 4.12 74.9318 4.36C75.0758 4.44 75.2038 4.56 75.3158 4.72C75.4278 4.88 75.5318 5.056 75.6278 5.248C75.7238 5.424 75.8198 5.6 75.9158 5.776C76.0118 5.952 76.1158 6.096 76.2278 6.208C76.3078 6.288 76.3078 6.368 76.2278 6.448ZM82.8319 15.52C82.6399 15.36 82.4479 15.368 82.2559 15.544C82.0639 15.72 81.8799 15.96 81.7039 16.264C81.5439 16.552 81.4079 16.864 81.2959 17.2C81.1999 17.52 81.1519 17.752 81.1519 17.896C81.1839 18.232 81.3119 18.544 81.5359 18.832C81.7759 19.104 82.0559 19.344 82.3759 19.552C82.6959 19.76 83.0399 19.92 83.4079 20.032C83.7919 20.144 84.1359 20.208 84.4399 20.224C84.8079 20.256 85.1759 20.248 85.5439 20.2C85.9119 20.152 86.2319 20.04 86.5039 19.864V12.016C86.2479 11.984 85.9279 11.912 85.5439 11.8C85.1599 11.688 84.7599 11.568 84.3439 11.44C83.9439 11.312 83.5359 11.184 83.1199 11.056C82.7199 10.912 82.3519 10.792 82.0159 10.696C81.5199 10.552 81.1279 10.48 80.8399 10.48C80.5519 10.464 80.3439 10.496 80.2159 10.576C80.1039 10.656 80.0639 10.76 80.0959 10.888C80.1279 11.016 80.2079 11.152 80.3359 11.296C80.4799 11.424 80.6559 11.544 80.8639 11.656C81.0719 11.768 81.2959 11.84 81.5359 11.872C81.5999 11.888 81.6159 11.936 81.5839 12.016C81.5519 12.08 81.5039 12.152 81.4399 12.232C81.3919 12.312 81.3279 12.392 81.2479 12.472C81.1839 12.552 81.1359 12.608 81.1039 12.64C80.9119 12.8 80.6719 12.92 80.3839 13C80.0959 13.064 79.8079 13.064 79.5199 13C79.2319 12.92 78.9679 12.76 78.7279 12.52C78.4879 12.28 78.3199 11.928 78.2239 11.464C78.8959 10.424 79.6079 9.696 80.3599 9.28C81.1279 8.848 81.8719 8.648 82.5919 8.68C82.9279 8.68 83.3679 8.744 83.9119 8.872C84.4559 8.984 85.0239 9.112 85.6159 9.256C86.2079 9.384 86.7759 9.504 87.3199 9.616C87.8639 9.728 88.3039 9.784 88.6399 9.784C88.8159 9.752 88.9279 9.752 88.9759 9.784C89.0239 9.816 89.0479 9.92 89.0479 10.096V20.584C89.0479 20.76 89.0239 20.864 88.9759 20.896C88.9279 20.928 88.8159 20.928 88.6399 20.896C88.3039 20.896 87.8719 20.952 87.3439 21.064C86.8159 21.176 86.2719 21.304 85.7119 21.448C85.1519 21.576 84.6079 21.704 84.0799 21.832C83.5519 21.944 83.1199 22 82.7839 22C82.2559 22.016 81.7759 21.936 81.3439 21.76C80.9119 21.584 80.5279 21.368 80.1919 21.112C79.8559 20.84 79.5679 20.544 79.3279 20.224C79.1039 19.888 78.9359 19.576 78.8239 19.288C78.6799 18.904 78.6319 18.544 78.6799 18.208C78.7119 17.904 78.8239 17.504 79.0159 17.008C79.2239 16.496 79.4719 16 79.7599 15.52C80.0479 15.04 80.3679 14.632 80.7199 14.296C81.0719 13.944 81.4159 13.784 81.7519 13.816C81.8959 13.832 82.0559 13.896 82.2319 14.008C82.4079 14.104 82.5759 14.224 82.7359 14.368C82.9119 14.512 83.0799 14.672 83.2399 14.848C83.4159 15.008 83.5759 15.168 83.7199 15.328C83.9599 15.584 84.1519 15.84 84.2959 16.096C84.4559 16.336 84.5519 16.584 84.5839 16.84C84.6159 17.096 84.5759 17.352 84.4639 17.608C84.3519 17.848 84.1519 18.096 83.8639 18.352C83.7519 18.32 83.6079 18.248 83.4319 18.136C83.2719 18.024 83.1119 17.896 82.9519 17.752C82.8079 17.608 82.6639 17.456 82.5199 17.296C82.3919 17.136 82.3039 17.008 82.2559 16.912C82.2239 16.832 82.2159 16.768 82.2319 16.72C82.2639 16.656 82.3199 16.624 82.3999 16.624C82.6399 16.448 82.7999 16.256 82.8799 16.048C82.9759 15.84 82.9599 15.664 82.8319 15.52ZM96.37 17.488V15.16C95.986 15.016 95.57 14.864 95.122 14.704C94.674 14.528 94.21 14.36 93.73 14.2C93.25 14.04 92.778 13.904 92.314 13.792C91.85 13.664 91.41 13.592 90.994 13.576C90.914 13.56 90.826 13.504 90.73 13.408C90.65 13.296 90.674 13.104 90.802 12.832C91.026 12.336 91.266 11.84 91.522 11.344C91.778 10.832 92.074 10.376 92.41 9.976C92.762 9.576 93.162 9.256 93.61 9.016C94.074 8.76 94.61 8.648 95.218 8.68C95.554 8.696 95.85 8.744 96.106 8.824C96.362 8.888 96.602 8.968 96.826 9.064C97.05 9.16 97.282 9.272 97.522 9.4C97.762 9.512 98.026 9.624 98.314 9.736C98.426 9.768 98.514 9.768 98.578 9.736C98.658 9.704 98.698 9.648 98.698 9.568C98.698 9.488 98.65 9.4 98.554 9.304C98.458 9.208 98.298 9.112 98.074 9.016C98.106 8.888 98.154 8.744 98.218 8.584C98.282 8.424 98.354 8.28 98.434 8.152C98.53 8.008 98.642 7.904 98.77 7.84C98.914 7.76 99.074 7.744 99.25 7.792C99.554 7.888 99.746 8.064 99.826 8.32C99.922 8.56 99.938 8.832 99.874 9.136C99.81 9.44 99.69 9.76 99.514 10.096C99.338 10.432 99.138 10.736 98.914 11.008C98.69 11.28 98.45 11.504 98.194 11.68C97.954 11.856 97.738 11.936 97.546 11.92C97.162 11.872 96.754 11.736 96.322 11.512C95.89 11.288 95.466 11.096 95.05 10.936C94.65 10.76 94.266 10.672 93.898 10.672C93.53 10.672 93.21 10.872 92.938 11.272C92.874 11.32 92.794 11.44 92.698 11.632C92.618 11.808 92.562 11.936 92.53 12.016C92.754 12.032 93.05 12.096 93.418 12.208C93.802 12.304 94.21 12.424 94.642 12.568C95.074 12.712 95.506 12.864 95.938 13.024C96.386 13.184 96.786 13.328 97.138 13.456C97.698 13.584 98.154 13.648 98.506 13.648C98.682 13.616 98.794 13.616 98.842 13.648C98.89 13.68 98.914 13.784 98.914 13.96V17.824C98.914 17.952 98.914 18.096 98.914 18.256C98.914 18.416 98.922 18.568 98.938 18.712C98.97 18.856 99.018 18.984 99.082 19.096C99.162 19.192 99.282 19.248 99.442 19.264C99.49 19.296 99.514 19.336 99.514 19.384C99.514 19.432 99.49 19.472 99.442 19.504C99.298 19.616 99.146 19.808 98.986 20.08C98.826 20.352 98.642 20.632 98.434 20.92C98.242 21.192 98.026 21.44 97.786 21.664C97.546 21.872 97.266 21.984 96.946 22C96.722 22.016 96.506 21.944 96.298 21.784C96.09 21.624 95.89 21.416 95.698 21.16C95.506 20.904 95.322 20.632 95.146 20.344C94.97 20.04 94.802 19.76 94.642 19.504C94.61 19.44 94.61 19.384 94.642 19.336C94.69 19.288 94.762 19.28 94.858 19.312C95.274 19.44 95.626 19.368 95.914 19.096C96.202 18.808 96.354 18.272 96.37 17.488ZM96.8597 5.728C96.7477 5.744 96.6677 5.712 96.6197 5.632C96.5717 5.536 96.5717 5.464 96.6197 5.416C96.7637 5.272 96.9237 5.136 97.0997 5.008C97.2597 4.88 97.4357 4.832 97.6277 4.864C97.8037 4.896 97.9637 5.008 98.1077 5.2C98.2517 5.392 98.3237 5.576 98.3237 5.752C98.2917 5.944 98.2117 6.128 98.0837 6.304C97.9397 6.464 97.7797 6.608 97.6037 6.736C97.4277 6.864 97.2437 6.968 97.0517 7.048C96.8437 7.128 96.6597 7.176 96.4997 7.192C96.2437 7.192 95.9717 7.152 95.6837 7.072C95.3957 6.976 95.1237 6.848 94.8677 6.688C94.6117 6.512 94.4037 6.304 94.2437 6.064C94.0837 5.808 94.0117 5.504 94.0277 5.152C94.1237 4.736 94.3237 4.432 94.6277 4.24C94.9317 4.032 95.2517 3.88 95.5877 3.784C95.9237 3.672 96.2357 3.592 96.5237 3.544C96.8117 3.48 96.9797 3.392 97.0277 3.28C97.0437 3.232 97.0517 3.176 97.0517 3.112C97.0357 3.032 97.0197 2.96 97.0037 2.896C96.9717 2.816 96.9317 2.752 96.8837 2.704C96.8357 2.656 96.7877 2.64 96.7397 2.656C96.5957 2.672 96.4997 2.648 96.4517 2.584C96.3877 2.52 96.3717 2.448 96.4037 2.368C96.4357 2.304 96.5237 2.216 96.6677 2.104C96.8117 1.976 96.9797 1.856 97.1717 1.744C97.3477 1.616 97.5317 1.512 97.7237 1.432C97.8997 1.336 98.0517 1.296 98.1797 1.312C98.3877 1.408 98.5717 1.576 98.7317 1.816C98.8757 2.056 98.9397 2.28 98.9237 2.488C98.9237 2.696 98.8837 2.88 98.8037 3.04C98.7077 3.2 98.5877 3.336 98.4437 3.448C98.2997 3.56 98.1397 3.664 97.9637 3.76C97.7877 3.84 97.6037 3.92 97.4117 4C97.1077 4.128 96.8117 4.312 96.5237 4.552C96.2197 4.776 96.0437 5.024 95.9957 5.296C95.9477 5.52 96.0037 5.736 96.1637 5.944C96.3077 6.136 96.4517 6.232 96.5957 6.232C96.7077 6.232 96.7877 6.184 96.8357 6.088C96.8837 5.976 96.8917 5.856 96.8597 5.728ZM107.924 12.328C107.7 12.616 107.516 12.736 107.372 12.688C107.244 12.624 107.068 12.472 106.844 12.232C106.668 12.056 106.468 11.872 106.244 11.68C106.02 11.488 105.788 11.328 105.548 11.2C105.308 11.072 105.076 11 104.852 10.984C104.628 10.952 104.42 11.016 104.228 11.176C104.036 11.432 103.94 11.712 103.94 12.016C103.94 12.32 103.972 12.616 104.036 12.904C104.068 13.128 104.156 13.384 104.3 13.672C104.46 13.944 104.636 14.24 104.828 14.56C105.036 14.88 105.244 15.224 105.452 15.592C105.676 15.96 105.884 16.336 106.076 16.72C106.316 17.28 106.46 17.752 106.508 18.136C106.668 18.04 106.844 17.888 107.036 17.68C107.244 17.472 107.364 17.304 107.396 17.176C107.428 17.08 107.428 16.968 107.396 16.84C107.38 16.712 107.34 16.592 107.276 16.48C107.212 16.368 107.132 16.272 107.036 16.192C106.956 16.096 106.86 16.048 106.748 16.048C106.62 16.048 106.516 16.032 106.436 16C106.34 15.936 106.308 15.864 106.34 15.784C106.372 15.672 106.444 15.52 106.556 15.328C106.668 15.136 106.796 14.952 106.94 14.776C107.1 14.584 107.268 14.424 107.444 14.296C107.636 14.152 107.812 14.08 107.972 14.08C108.148 14.128 108.324 14.224 108.5 14.368C108.692 14.512 108.86 14.672 109.004 14.848C109.164 15.024 109.284 15.216 109.364 15.424C109.46 15.616 109.484 15.8 109.436 15.976C109.404 16.152 109.236 16.424 108.932 16.792C108.644 17.16 108.3 17.552 107.9 17.968C107.5 18.384 107.092 18.8 106.676 19.216C106.276 19.616 105.94 19.952 105.668 20.224C105.364 20.576 104.988 20.936 104.54 21.304C104.092 21.672 103.66 21.912 103.244 22.024C102.62 21.912 102.22 21.736 102.044 21.496C101.884 21.24 101.836 20.976 101.9 20.704C101.98 20.432 102.124 20.176 102.332 19.936C102.556 19.696 102.732 19.528 102.86 19.432C103.004 19.256 103.116 19.2 103.196 19.264C103.276 19.328 103.308 19.424 103.292 19.552C103.292 19.744 103.364 19.92 103.508 20.08C103.668 20.224 103.828 20.32 103.988 20.368C104.164 20.416 104.308 20.408 104.42 20.344C104.548 20.264 104.58 20.088 104.516 19.816C104.484 19.656 104.428 19.496 104.348 19.336C104.284 19.16 104.212 19.008 104.132 18.88C103.876 18.416 103.58 17.944 103.244 17.464C102.924 16.984 102.636 16.512 102.38 16.048C102.124 15.584 101.94 15.144 101.828 14.728C101.732 14.312 101.764 13.928 101.924 13.576C102.02 13.304 102.212 12.896 102.5 12.352C102.788 11.808 103.116 11.264 103.484 10.72C103.852 10.16 104.236 9.68 104.636 9.28C105.052 8.864 105.412 8.664 105.716 8.68C105.972 8.648 106.236 8.72 106.508 8.896C106.796 9.056 107.068 9.248 107.324 9.472C107.58 9.68 107.804 9.888 107.996 10.096C108.204 10.288 108.356 10.4 108.452 10.432C108.852 9.76 109.244 9.28 109.628 8.992C110.028 8.704 110.348 8.6 110.588 8.68C110.78 8.728 110.98 8.816 111.188 8.944C111.396 9.056 111.604 9.176 111.812 9.304C112.02 9.416 112.212 9.52 112.388 9.616C112.58 9.696 112.748 9.736 112.892 9.736C113.068 9.704 113.18 9.704 113.228 9.736C113.276 9.768 113.3 9.872 113.3 10.048V18.496C113.3 18.752 113.332 18.984 113.396 19.192C113.476 19.384 113.636 19.56 113.876 19.72C113.94 19.8 113.94 19.888 113.876 19.984C113.748 20.096 113.636 20.24 113.54 20.416C113.444 20.592 113.348 20.768 113.252 20.944C113.156 21.12 113.052 21.288 112.94 21.448C112.844 21.608 112.724 21.736 112.58 21.832C112.212 22.056 111.844 22.056 111.476 21.832C111.188 21.656 110.956 21.448 110.78 21.208C110.62 20.952 110.42 20.712 110.18 20.488C110.116 20.392 110.116 20.304 110.18 20.224C110.42 20.064 110.572 19.888 110.636 19.696C110.716 19.488 110.756 19.248 110.756 18.976V11.656C110.532 11.624 110.268 11.512 109.964 11.32C109.66 11.128 109.38 10.976 109.124 10.864C109.092 10.848 109.028 10.888 108.932 10.984C108.852 11.08 108.748 11.208 108.62 11.368C108.508 11.512 108.388 11.672 108.26 11.848C108.148 12.024 108.036 12.184 107.924 12.328ZM111.21 26.152C111.194 25.88 111.138 25.656 111.042 25.48C110.946 25.304 110.834 25.176 110.706 25.096C110.562 25.016 110.426 24.976 110.298 24.976C110.154 24.976 110.034 25.016 109.938 25.096C109.842 25.176 109.802 25.28 109.818 25.408C109.834 25.552 109.882 25.688 109.962 25.816C110.026 25.944 110.106 26.048 110.202 26.128C110.298 26.224 110.37 26.272 110.418 26.272C110.498 26.272 110.522 26.312 110.49 26.392C110.442 26.488 110.37 26.608 110.274 26.752C110.178 26.896 110.074 27.024 109.962 27.136C109.834 27.264 109.706 27.36 109.578 27.424C109.45 27.488 109.33 27.488 109.218 27.424C109.154 27.392 109.082 27.328 109.002 27.232C108.922 27.136 108.85 27.04 108.786 26.944C108.722 26.848 108.666 26.76 108.618 26.68C108.57 26.6 108.546 26.552 108.546 26.536C108.53 26.504 108.57 26.392 108.666 26.2C108.762 26.024 108.898 25.8 109.074 25.528C109.25 25.272 109.45 24.992 109.674 24.688C109.882 24.4 110.098 24.128 110.322 23.872C110.546 23.632 110.762 23.432 110.97 23.272C111.162 23.112 111.33 23.04 111.474 23.056C111.762 23.072 112.034 23.176 112.29 23.368C112.53 23.56 112.738 23.792 112.914 24.064C113.09 24.336 113.218 24.624 113.298 24.928C113.378 25.232 113.402 25.504 113.37 25.744V27.568C113.37 27.792 113.402 27.992 113.466 28.168C113.53 28.344 113.666 28.496 113.874 28.624C113.938 28.704 113.938 28.776 113.874 28.84C113.666 29.032 113.49 29.232 113.346 29.44C113.202 29.664 113.01 29.856 112.77 30.016C112.45 30.208 112.138 30.208 111.834 30.016C111.706 29.936 111.602 29.824 111.522 29.68C111.426 29.552 111.338 29.408 111.258 29.248C111.162 29.088 111.074 28.936 110.994 28.792C110.914 28.648 110.818 28.528 110.706 28.432C110.642 28.352 110.642 28.272 110.706 28.192C110.914 28.064 111.05 27.912 111.114 27.736C111.178 27.56 111.21 27.36 111.21 27.136V26.152ZM114.474 4.648C114.426 4.712 114.29 4.888 114.066 5.176C113.826 5.448 113.562 5.736 113.274 6.04C112.986 6.344 112.698 6.616 112.41 6.856C112.106 7.096 111.874 7.208 111.714 7.192C111.394 7.176 111.09 7.104 110.802 6.976C110.514 6.848 110.242 6.624 109.986 6.304C109.97 6.256 109.986 6.2 110.034 6.136C110.066 6.072 110.106 6.048 110.154 6.064C110.234 5.968 110.314 5.864 110.394 5.752C110.474 5.624 110.57 5.424 110.682 5.152C110.602 4.88 110.498 4.64 110.37 4.432C110.242 4.224 110.082 4.144 109.89 4.192C109.794 4.256 109.706 4.352 109.626 4.48C109.53 4.592 109.442 4.704 109.362 4.816C109.266 4.912 109.186 4.992 109.122 5.056C109.042 5.104 108.978 5.104 108.93 5.056C108.802 4.928 108.658 4.808 108.498 4.696C108.338 4.568 108.194 4.472 108.066 4.408C107.938 4.52 107.834 4.672 107.754 4.864C107.658 5.04 107.602 5.232 107.586 5.44C107.538 5.824 107.746 6.16 108.21 6.448C108.29 6.496 108.354 6.48 108.402 6.4C108.45 6.304 108.458 6.192 108.426 6.064C108.346 6.08 108.282 6.048 108.234 5.968C108.186 5.872 108.186 5.792 108.234 5.728C108.346 5.584 108.474 5.456 108.618 5.344C108.762 5.216 108.922 5.168 109.098 5.2C109.258 5.232 109.402 5.344 109.53 5.536C109.642 5.728 109.698 5.912 109.698 6.088C109.666 6.28 109.594 6.44 109.482 6.568C109.37 6.696 109.234 6.808 109.074 6.904C108.914 6.984 108.754 7.048 108.594 7.096C108.418 7.128 108.258 7.152 108.114 7.168C107.89 7.168 107.658 7.128 107.418 7.048C107.162 6.952 106.938 6.824 106.746 6.664C106.538 6.488 106.37 6.28 106.242 6.04C106.098 5.784 106.034 5.48 106.05 5.128C106.082 4.952 106.154 4.752 106.266 4.528C106.362 4.288 106.482 4.048 106.626 3.808C106.754 3.568 106.898 3.352 107.058 3.16C107.202 2.952 107.338 2.808 107.466 2.728C107.61 2.728 107.778 2.76 107.97 2.824C108.146 2.872 108.33 2.952 108.522 3.064C108.698 3.16 108.866 3.272 109.026 3.4C109.186 3.512 109.322 3.624 109.434 3.736C109.578 3.464 109.762 3.232 109.986 3.04C110.194 2.848 110.338 2.736 110.418 2.704C110.754 2.72 111.026 2.8 111.234 2.944C111.442 3.088 111.618 3.256 111.762 3.448C111.89 3.64 111.986 3.832 112.05 4.024C112.098 4.216 112.13 4.376 112.146 4.504C112.162 4.52 112.154 4.584 112.122 4.696C112.09 4.808 112.042 4.928 111.978 5.056C111.914 5.184 111.858 5.312 111.81 5.44C111.746 5.552 111.706 5.624 111.69 5.656C111.946 5.896 112.154 5.936 112.314 5.776C112.458 5.616 112.562 5.384 112.626 5.08C112.69 4.776 112.714 4.48 112.698 4.192C112.666 3.904 112.602 3.752 112.506 3.736C112.33 3.688 112.298 3.576 112.41 3.4C112.458 3.352 112.562 3.296 112.722 3.232C112.882 3.152 113.058 3.08 113.25 3.016C113.426 2.952 113.602 2.896 113.778 2.848C113.954 2.784 114.074 2.744 114.138 2.728C114.314 2.68 114.458 2.728 114.57 2.872C114.666 3 114.73 3.176 114.762 3.4C114.778 3.608 114.762 3.832 114.714 4.072C114.666 4.312 114.586 4.504 114.474 4.648ZM118.914 14.512C118.786 14.416 118.578 14.304 118.29 14.176C118.002 14.032 117.698 13.904 117.378 13.792C117.058 13.664 116.746 13.552 116.442 13.456C116.138 13.36 115.906 13.296 115.746 13.264C115.842 13.056 115.946 12.816 116.058 12.544C116.186 12.272 116.314 12 116.442 11.728C116.57 11.44 116.698 11.168 116.826 10.912C116.97 10.656 117.106 10.448 117.234 10.288C117.618 9.776 118.058 9.376 118.554 9.088C119.066 8.784 119.69 8.648 120.426 8.68C120.762 8.68 121.17 8.744 121.65 8.872C122.13 8.984 122.626 9.112 123.138 9.256C123.65 9.384 124.146 9.504 124.626 9.616C125.106 9.728 125.514 9.784 125.85 9.784C126.026 9.752 126.138 9.752 126.186 9.784C126.234 9.816 126.258 9.92 126.258 10.096V18.496C126.258 18.752 126.29 18.984 126.354 19.192C126.434 19.384 126.594 19.56 126.834 19.72C126.914 19.816 126.914 19.904 126.834 19.984C126.722 20.096 126.618 20.24 126.522 20.416C126.426 20.592 126.33 20.768 126.234 20.944C126.138 21.12 126.034 21.288 125.922 21.448C125.81 21.608 125.682 21.736 125.538 21.832C125.17 22.056 124.802 22.056 124.434 21.832C124.146 21.656 123.914 21.448 123.738 21.208C123.578 20.952 123.378 20.712 123.138 20.488C123.074 20.392 123.074 20.304 123.138 20.224C123.378 20.064 123.53 19.888 123.594 19.696C123.674 19.488 123.714 19.248 123.714 18.976V12.016C123.458 11.984 123.17 11.912 122.85 11.8C122.546 11.688 122.226 11.568 121.89 11.44C121.554 11.312 121.21 11.184 120.858 11.056C120.522 10.912 120.186 10.792 119.85 10.696C119.546 10.6 119.298 10.552 119.106 10.552C118.914 10.536 118.746 10.576 118.602 10.672C118.458 10.752 118.322 10.872 118.194 11.032C118.082 11.192 117.962 11.392 117.834 11.632C118.106 11.696 118.394 11.8 118.698 11.944C119.018 12.072 119.322 12.208 119.61 12.352C119.898 12.48 120.146 12.608 120.354 12.736C120.578 12.864 120.73 12.968 120.81 13.048C120.906 13.144 120.898 13.248 120.786 13.36C120.45 13.68 120.162 13.968 119.922 14.224C119.698 14.464 119.554 14.816 119.49 15.28V16.504V18.496C119.49 18.752 119.522 18.984 119.586 19.192C119.666 19.384 119.826 19.56 120.066 19.72C120.146 19.8 120.154 19.888 120.09 19.984C119.962 20.096 119.85 20.24 119.754 20.416C119.658 20.592 119.562 20.768 119.466 20.944C119.37 21.12 119.266 21.288 119.154 21.448C119.042 21.608 118.914 21.736 118.77 21.832C118.418 22.056 118.058 22.056 117.69 21.832C117.402 21.656 117.17 21.448 116.994 21.208C116.834 20.952 116.626 20.712 116.37 20.488C116.322 20.376 116.322 20.288 116.37 20.224C116.61 20.064 116.77 19.888 116.85 19.696C116.93 19.488 116.97 19.248 116.97 18.976V16.96C116.97 16.64 117.026 16.36 117.138 16.12C117.25 15.88 117.394 15.664 117.57 15.472C117.762 15.28 117.97 15.104 118.194 14.944C118.434 14.784 118.674 14.64 118.914 14.512ZM134.971 12.328C134.747 12.616 134.563 12.736 134.419 12.688C134.291 12.624 134.115 12.472 133.891 12.232C133.715 12.056 133.515 11.872 133.291 11.68C133.067 11.488 132.835 11.328 132.595 11.2C132.355 11.072 132.123 11 131.899 10.984C131.675 10.952 131.467 11.016 131.275 11.176C131.083 11.432 130.987 11.712 130.987 12.016C130.987 12.32 131.019 12.616 131.083 12.904C131.115 13.128 131.203 13.384 131.347 13.672C131.507 13.944 131.683 14.24 131.875 14.56C132.083 14.88 132.291 15.224 132.499 15.592C132.723 15.96 132.931 16.336 133.123 16.72C133.363 17.28 133.507 17.752 133.555 18.136C133.715 18.04 133.891 17.888 134.083 17.68C134.291 17.472 134.411 17.304 134.443 17.176C134.475 17.08 134.475 16.968 134.443 16.84C134.427 16.712 134.387 16.592 134.323 16.48C134.259 16.368 134.179 16.272 134.083 16.192C134.003 16.096 133.907 16.048 133.795 16.048C133.667 16.048 133.563 16.032 133.483 16C133.387 15.936 133.355 15.864 133.387 15.784C133.419 15.672 133.491 15.52 133.603 15.328C133.715 15.136 133.843 14.952 133.987 14.776C134.147 14.584 134.315 14.424 134.491 14.296C134.683 14.152 134.859 14.08 135.019 14.08C135.195 14.128 135.371 14.224 135.547 14.368C135.739 14.512 135.907 14.672 136.051 14.848C136.211 15.024 136.331 15.216 136.411 15.424C136.507 15.616 136.531 15.8 136.483 15.976C136.451 16.152 136.283 16.424 135.979 16.792C135.691 17.16 135.347 17.552 134.947 17.968C134.547 18.384 134.139 18.8 133.723 19.216C133.323 19.616 132.987 19.952 132.715 20.224C132.411 20.576 132.035 20.936 131.587 21.304C131.139 21.672 130.707 21.912 130.291 22.024C129.667 21.912 129.267 21.736 129.091 21.496C128.931 21.24 128.883 20.976 128.947 20.704C129.027 20.432 129.171 20.176 129.379 19.936C129.603 19.696 129.779 19.528 129.907 19.432C130.051 19.256 130.163 19.2 130.243 19.264C130.323 19.328 130.355 19.424 130.339 19.552C130.339 19.744 130.411 19.92 130.555 20.08C130.715 20.224 130.875 20.32 131.035 20.368C131.211 20.416 131.355 20.408 131.467 20.344C131.595 20.264 131.627 20.088 131.563 19.816C131.531 19.656 131.475 19.496 131.395 19.336C131.331 19.16 131.259 19.008 131.179 18.88C130.923 18.416 130.627 17.944 130.291 17.464C129.971 16.984 129.683 16.512 129.427 16.048C129.171 15.584 128.987 15.144 128.875 14.728C128.779 14.312 128.811 13.928 128.971 13.576C129.067 13.304 129.259 12.896 129.547 12.352C129.835 11.808 130.163 11.264 130.531 10.72C130.899 10.16 131.283 9.68 131.683 9.28C132.099 8.864 132.459 8.664 132.763 8.68C133.019 8.648 133.283 8.72 133.555 8.896C133.843 9.056 134.115 9.248 134.371 9.472C134.627 9.68 134.851 9.888 135.043 10.096C135.251 10.288 135.403 10.4 135.499 10.432C135.899 9.76 136.291 9.28 136.675 8.992C137.075 8.704 137.395 8.6 137.635 8.68C137.827 8.728 138.027 8.816 138.235 8.944C138.443 9.056 138.651 9.176 138.859 9.304C139.067 9.416 139.259 9.52 139.435 9.616C139.627 9.696 139.795 9.736 139.939 9.736C140.115 9.704 140.227 9.704 140.275 9.736C140.323 9.768 140.347 9.872 140.347 10.048V18.496C140.347 18.752 140.379 18.984 140.443 19.192C140.523 19.384 140.683 19.56 140.923 19.72C140.987 19.8 140.987 19.888 140.923 19.984C140.795 20.096 140.683 20.24 140.587 20.416C140.491 20.592 140.395 20.768 140.299 20.944C140.203 21.12 140.099 21.288 139.987 21.448C139.891 21.608 139.771 21.736 139.627 21.832C139.259 22.056 138.891 22.056 138.523 21.832C138.235 21.656 138.003 21.448 137.827 21.208C137.667 20.952 137.467 20.712 137.227 20.488C137.163 20.392 137.163 20.304 137.227 20.224C137.467 20.064 137.619 19.888 137.683 19.696C137.763 19.488 137.803 19.248 137.803 18.976V11.656C137.579 11.624 137.315 11.512 137.011 11.32C136.707 11.128 136.427 10.976 136.171 10.864C136.139 10.848 136.075 10.888 135.979 10.984C135.899 11.08 135.795 11.208 135.667 11.368C135.555 11.512 135.435 11.672 135.307 11.848C135.195 12.024 135.083 12.184 134.971 12.328ZM138.257 26.152C138.241 25.88 138.185 25.656 138.089 25.48C137.993 25.304 137.881 25.176 137.753 25.096C137.609 25.016 137.473 24.976 137.345 24.976C137.201 24.976 137.081 25.016 136.985 25.096C136.889 25.176 136.849 25.28 136.865 25.408C136.881 25.552 136.929 25.688 137.009 25.816C137.073 25.944 137.153 26.048 137.249 26.128C137.345 26.224 137.417 26.272 137.465 26.272C137.545 26.272 137.569 26.312 137.537 26.392C137.489 26.488 137.417 26.608 137.321 26.752C137.225 26.896 137.121 27.024 137.009 27.136C136.881 27.264 136.753 27.36 136.625 27.424C136.497 27.488 136.377 27.488 136.265 27.424C136.201 27.392 136.129 27.328 136.049 27.232C135.969 27.136 135.897 27.04 135.833 26.944C135.769 26.848 135.713 26.76 135.665 26.68C135.617 26.6 135.593 26.552 135.593 26.536C135.577 26.504 135.617 26.392 135.713 26.2C135.809 26.024 135.945 25.8 136.121 25.528C136.297 25.272 136.497 24.992 136.721 24.688C136.929 24.4 137.145 24.128 137.369 23.872C137.593 23.632 137.809 23.432 138.017 23.272C138.209 23.112 138.377 23.04 138.521 23.056C138.809 23.072 139.081 23.176 139.337 23.368C139.577 23.56 139.785 23.792 139.961 24.064C140.137 24.336 140.265 24.624 140.345 24.928C140.425 25.232 140.449 25.504 140.417 25.744V27.568C140.417 27.792 140.449 27.992 140.513 28.168C140.577 28.344 140.713 28.496 140.921 28.624C140.985 28.704 140.985 28.776 140.921 28.84C140.713 29.032 140.537 29.232 140.393 29.44C140.249 29.664 140.057 29.856 139.817 30.016C139.497 30.208 139.185 30.208 138.881 30.016C138.753 29.936 138.649 29.824 138.569 29.68C138.473 29.552 138.385 29.408 138.305 29.248C138.209 29.088 138.121 28.936 138.041 28.792C137.961 28.648 137.865 28.528 137.753 28.432C137.689 28.352 137.689 28.272 137.753 28.192C137.961 28.064 138.097 27.912 138.161 27.736C138.225 27.56 138.257 27.36 138.257 27.136V26.152ZM141.521 4.648C141.473 4.712 141.337 4.888 141.113 5.176C140.873 5.448 140.609 5.736 140.321 6.04C140.033 6.344 139.745 6.616 139.457 6.856C139.153 7.096 138.921 7.208 138.761 7.192C138.441 7.176 138.137 7.104 137.849 6.976C137.561 6.848 137.289 6.624 137.033 6.304C137.017 6.256 137.033 6.2 137.081 6.136C137.113 6.072 137.153 6.048 137.201 6.064C137.281 5.968 137.361 5.864 137.441 5.752C137.521 5.624 137.617 5.424 137.729 5.152C137.649 4.88 137.545 4.64 137.417 4.432C137.289 4.224 137.129 4.144 136.937 4.192C136.841 4.256 136.753 4.352 136.673 4.48C136.577 4.592 136.489 4.704 136.409 4.816C136.313 4.912 136.233 4.992 136.169 5.056C136.089 5.104 136.025 5.104 135.977 5.056C135.849 4.928 135.705 4.808 135.545 4.696C135.385 4.568 135.241 4.472 135.113 4.408C134.985 4.52 134.881 4.672 134.801 4.864C134.705 5.04 134.649 5.232 134.633 5.44C134.585 5.824 134.793 6.16 135.257 6.448C135.337 6.496 135.401 6.48 135.449 6.4C135.497 6.304 135.505 6.192 135.473 6.064C135.393 6.08 135.329 6.048 135.281 5.968C135.233 5.872 135.233 5.792 135.281 5.728C135.393 5.584 135.521 5.456 135.665 5.344C135.809 5.216 135.969 5.168 136.145 5.2C136.305 5.232 136.449 5.344 136.577 5.536C136.689 5.728 136.745 5.912 136.745 6.088C136.713 6.28 136.641 6.44 136.529 6.568C136.417 6.696 136.281 6.808 136.121 6.904C135.961 6.984 135.801 7.048 135.641 7.096C135.465 7.128 135.305 7.152 135.161 7.168C134.937 7.168 134.705 7.128 134.465 7.048C134.209 6.952 133.985 6.824 133.793 6.664C133.585 6.488 133.417 6.28 133.289 6.04C133.145 5.784 133.081 5.48 133.097 5.128C133.129 4.952 133.201 4.752 133.313 4.528C133.409 4.288 133.529 4.048 133.673 3.808C133.801 3.568 133.945 3.352 134.105 3.16C134.249 2.952 134.385 2.808 134.513 2.728C134.657 2.728 134.825 2.76 135.017 2.824C135.193 2.872 135.377 2.952 135.569 3.064C135.745 3.16 135.913 3.272 136.073 3.4C136.233 3.512 136.369 3.624 136.481 3.736C136.625 3.464 136.809 3.232 137.033 3.04C137.241 2.848 137.385 2.736 137.465 2.704C137.801 2.72 138.073 2.8 138.281 2.944C138.489 3.088 138.665 3.256 138.809 3.448C138.937 3.64 139.033 3.832 139.097 4.024C139.145 4.216 139.177 4.376 139.193 4.504C139.209 4.52 139.201 4.584 139.169 4.696C139.137 4.808 139.089 4.928 139.025 5.056C138.961 5.184 138.905 5.312 138.857 5.44C138.793 5.552 138.753 5.624 138.737 5.656C138.993 5.896 139.201 5.936 139.361 5.776C139.505 5.616 139.609 5.384 139.673 5.08C139.737 4.776 139.761 4.48 139.745 4.192C139.713 3.904 139.649 3.752 139.553 3.736C139.377 3.688 139.345 3.576 139.457 3.4C139.505 3.352 139.609 3.296 139.769 3.232C139.929 3.152 140.105 3.08 140.297 3.016C140.473 2.952 140.649 2.896 140.825 2.848C141.001 2.784 141.121 2.744 141.185 2.728C141.361 2.68 141.505 2.728 141.617 2.872C141.713 3 141.777 3.176 141.809 3.4C141.825 3.608 141.809 3.832 141.761 4.072C141.713 4.312 141.633 4.504 141.521 4.648ZM145.961 14.512C145.833 14.416 145.625 14.304 145.337 14.176C145.049 14.032 144.745 13.904 144.425 13.792C144.105 13.664 143.793 13.552 143.489 13.456C143.185 13.36 142.953 13.296 142.793 13.264C142.889 13.056 142.993 12.816 143.105 12.544C143.233 12.272 143.361 12 143.489 11.728C143.617 11.44 143.745 11.168 143.873 10.912C144.017 10.656 144.153 10.448 144.281 10.288C144.665 9.776 145.105 9.376 145.601 9.088C146.113 8.784 146.737 8.648 147.473 8.68C147.809 8.68 148.217 8.744 148.697 8.872C149.177 8.984 149.673 9.112 150.185 9.256C150.697 9.384 151.193 9.504 151.673 9.616C152.153 9.728 152.561 9.784 152.897 9.784C153.073 9.752 153.185 9.752 153.233 9.784C153.281 9.816 153.305 9.92 153.305 10.096V18.496C153.305 18.752 153.337 18.984 153.401 19.192C153.481 19.384 153.641 19.56 153.881 19.72C153.961 19.816 153.961 19.904 153.881 19.984C153.769 20.096 153.665 20.24 153.569 20.416C153.473 20.592 153.377 20.768 153.281 20.944C153.185 21.12 153.081 21.288 152.969 21.448C152.857 21.608 152.729 21.736 152.585 21.832C152.217 22.056 151.849 22.056 151.481 21.832C151.193 21.656 150.961 21.448 150.785 21.208C150.625 20.952 150.425 20.712 150.185 20.488C150.121 20.392 150.121 20.304 150.185 20.224C150.425 20.064 150.577 19.888 150.641 19.696C150.721 19.488 150.761 19.248 150.761 18.976V12.016C150.505 11.984 150.217 11.912 149.897 11.8C149.593 11.688 149.273 11.568 148.937 11.44C148.601 11.312 148.257 11.184 147.905 11.056C147.569 10.912 147.233 10.792 146.897 10.696C146.593 10.6 146.345 10.552 146.153 10.552C145.961 10.536 145.793 10.576 145.649 10.672C145.505 10.752 145.369 10.872 145.241 11.032C145.129 11.192 145.009 11.392 144.881 11.632C145.153 11.696 145.441 11.8 145.745 11.944C146.065 12.072 146.369 12.208 146.657 12.352C146.945 12.48 147.193 12.608 147.401 12.736C147.625 12.864 147.777 12.968 147.857 13.048C147.953 13.144 147.945 13.248 147.833 13.36C147.497 13.68 147.209 13.968 146.969 14.224C146.745 14.464 146.601 14.816 146.537 15.28V16.504V18.496C146.537 18.752 146.569 18.984 146.633 19.192C146.713 19.384 146.873 19.56 147.113 19.72C147.193 19.8 147.201 19.888 147.137 19.984C147.009 20.096 146.897 20.24 146.801 20.416C146.705 20.592 146.609 20.768 146.513 20.944C146.417 21.12 146.313 21.288 146.201 21.448C146.089 21.608 145.961 21.736 145.817 21.832C145.465 22.056 145.105 22.056 144.737 21.832C144.449 21.656 144.217 21.448 144.041 21.208C143.881 20.952 143.673 20.712 143.417 20.488C143.369 20.376 143.369 20.288 143.417 20.224C143.657 20.064 143.817 19.888 143.897 19.696C143.977 19.488 144.017 19.248 144.017 18.976V16.96C144.017 16.64 144.073 16.36 144.185 16.12C144.297 15.88 144.441 15.664 144.617 15.472C144.809 15.28 145.017 15.104 145.241 14.944C145.481 14.784 145.721 14.64 145.961 14.512Z" fill="#303030"/>
</svg>
